<svg xmlns="http://www.w3.org/2000/svg" xmlns:xlink="http://www.w3.org/1999/xlink" width="1080" zoomAndPan="magnify" viewBox="0 0 810 809.999993" height="1080" preserveAspectRatio="xMidYMid meet" version="1.0"><defs><g/><clipPath id="id1"><path d="M 226.785156 146.414062 L 583.035156 146.414062 L 583.035156 502.664062 L 226.785156 502.664062 Z M 226.785156 146.414062 " clip-rule="nonzero"/></clipPath><clipPath id="id2"><path d="M 226.785156 146.414062 L 583.035156 146.414062 L 583.035156 502.664062 L 226.785156 502.664062 Z M 226.785156 146.414062 " clip-rule="nonzero"/></clipPath><clipPath id="id3"><path d="M 404.910156 146.414062 C 306.535156 146.414062 226.785156 226.164062 226.785156 324.539062 C 226.785156 422.917969 306.535156 502.664062 404.910156 502.664062 C 503.289062 502.664062 583.035156 422.917969 583.035156 324.539062 C 583.035156 226.164062 503.289062 146.414062 404.910156 146.414062 " clip-rule="nonzero"/></clipPath><clipPath id="id4"><path d="M 309.542969 217.214844 L 500.792969 217.214844 L 500.792969 275.714844 L 309.542969 275.714844 Z M 309.542969 217.214844 " clip-rule="nonzero"/></clipPath></defs><rect x="-81" width="972" fill="#ffffff" y="-80.999999" height="971.999992" fill-opacity="1"/><rect x="-81" width="972" fill="#ffffff" y="-80.999999" height="971.999992" fill-opacity="1"/><rect x="-81" width="972" fill="#ffffff" y="-80.999999" height="971.999992" fill-opacity="1"/><rect x="-81" width="972" fill="#ffffff" y="-80.999999" height="971.999992" fill-opacity="1"/><g clip-path="url(#id1)"><path fill="#ffcc00" d="M 404.910156 146.414062 C 306.535156 146.414062 226.785156 226.164062 226.785156 324.539062 C 226.785156 422.917969 306.535156 502.664062 404.910156 502.664062 C 503.289062 502.664062 583.035156 422.917969 583.035156 324.539062 C 583.035156 226.164062 503.289062 146.414062 404.910156 146.414062 " fill-opacity="1" fill-rule="nonzero"/></g><g clip-path="url(#id2)"><g clip-path="url(#id3)"><path stroke-linecap="butt" transform="matrix(0.74963, 0, 0, 0.74963, 226.786648, 146.415466)" fill="none" stroke-linejoin="miter" d="M 237.615203 -0.00187257 C 106.383813 -0.00187257 -0.0019901 106.38393 -0.0019901 237.615321 C -0.0019901 368.851922 106.383813 475.232514 237.615203 475.232514 C 368.851804 475.232514 475.232397 368.851922 475.232397 237.615321 C 475.232397 106.38393 368.851804 -0.00187257 237.615203 -0.00187257 " stroke="#000000" stroke-width="30" stroke-opacity="1" stroke-miterlimit="4"/></g></g><g clip-path="url(#id4)"><path fill="#000000" d="M 500.5625 246.464844 C 500.5625 262.625 487.40625 275.714844 471.160156 275.714844 C 454.914062 275.714844 441.757812 262.625 441.757812 246.464844 C 441.757812 230.304688 454.914062 217.214844 471.160156 217.214844 C 487.40625 217.214844 500.5625 230.304688 500.5625 246.464844 Z M 339.175781 217.214844 C 322.929688 217.214844 309.773438 230.304688 309.773438 246.464844 C 309.773438 262.625 322.929688 275.714844 339.175781 275.714844 C 355.417969 275.714844 368.578125 262.625 368.578125 246.464844 C 368.578125 230.304688 355.417969 217.214844 339.175781 217.214844 Z M 339.175781 217.214844 " fill-opacity="1" fill-rule="nonzero"/></g><path fill="#ffffff" d="M 471.875 241.46875 C 471.875 247.773438 466.738281 252.882812 460.398438 252.882812 C 454.0625 252.882812 448.925781 247.773438 448.925781 241.46875 C 448.925781 235.164062 454.0625 230.054688 460.398438 230.054688 C 466.738281 230.054688 471.875 235.164062 471.875 241.46875 Z M 486.207031 254.328125 C 483.832031 254.328125 481.898438 256.253906 481.898438 258.613281 C 481.898438 260.976562 483.832031 262.902344 486.207031 262.902344 C 488.582031 262.902344 490.515625 260.976562 490.515625 258.613281 C 490.515625 256.230469 488.601562 254.328125 486.207031 254.328125 Z M 349.933594 230.054688 C 343.597656 230.054688 338.460938 235.164062 338.460938 241.46875 C 338.460938 247.773438 343.597656 252.882812 349.933594 252.882812 C 356.273438 252.882812 361.410156 247.773438 361.410156 241.46875 C 361.410156 235.164062 356.273438 230.054688 349.933594 230.054688 Z M 324.128906 254.328125 C 321.753906 254.328125 319.820312 256.253906 319.820312 258.613281 C 319.820312 260.976562 321.753906 262.902344 324.128906 262.902344 C 326.5 262.902344 328.4375 260.976562 328.4375 258.613281 C 328.414062 256.230469 326.5 254.328125 324.128906 254.328125 Z M 324.128906 254.328125 " fill-opacity="1" fill-rule="nonzero"/><g fill="#100f0d" fill-opacity="0.302"><g transform="translate(188.02599, 626.475924)"><g><path d="M 78.519531 -80.46875 L 74.265625 -80.46875 L 61.503906 -79.9375 C 61.328125 -85.964844 62.746094 -90.042969 59.910156 -95.359375 C 58.136719 -98.902344 54.414062 -99.613281 50.339844 -99.613281 C 46.261719 -99.613281 34.207031 -99.257812 31.371094 -96.246094 C 27.828125 -92.347656 26.234375 -89.6875 25.523438 -84.546875 C 23.75 -71.078125 24.816406 -63.453125 24.992188 -49.984375 C 25.167969 -42.183594 23.21875 -36.867188 26.585938 -29.777344 C 28.714844 -25.167969 42.007812 -22.332031 47.148438 -21.980469 C 51.757812 -21.625 55.125 -23.574219 57.78125 -27.296875 C 60.972656 -31.90625 59.378906 -35.804688 60.441406 -41.121094 L 79.050781 -41.652344 C 78.875 -35.273438 80.117188 -31.371094 78.519531 -25.167969 C 77.101562 -18.964844 75.683594 -15.597656 71.609375 -10.8125 C 67.886719 -6.382812 65.050781 -3.898438 59.378906 -2.835938 C 48.035156 -0.886719 31.371094 0 20.738281 -4.253906 C 13.648438 -7.089844 10.988281 -12.761719 9.039062 -20.207031 C 5.316406 -35.449219 7.089844 -44.132812 6.914062 -59.554688 C 6.734375 -76.925781 6.203125 -86.851562 8.507812 -104.222656 C 9.21875 -109.539062 11.699219 -113.082031 16.308594 -116.273438 C 23.574219 -121.414062 37.398438 -122.125 46.617188 -123.007812 C 54.058594 -123.71875 59.378906 -124.25 66.289062 -120.882812 C 73.558594 -117.335938 74.445312 -113.4375 77.457031 -105.992188 C 81.179688 -96.777344 78.167969 -90.394531 78.519531 -80.46875 Z M 78.519531 -80.46875 "/></g></g></g><g fill="#100f0d" fill-opacity="0.302"><g transform="translate(273.104111, 626.475924)"><g><path d="M 24.28125 -118.222656 L 10.988281 -87.382812 L 24.460938 -87.382812 L 45.550781 -118.222656 Z M 4.253906 -59.023438 L 4.253906 0 L 31.371094 0 L 31.371094 -59.023438 Z M 4.253906 -59.023438 "/></g></g></g><g fill="#100f0d" fill-opacity="0.302"><g transform="translate(311.034773, 626.475924)"><g><path d="M 67.53125 -52.640625 L 53.351562 -52.464844 C 50.871094 -56.1875 48.742188 -59.199219 44.667969 -60.085938 C 39.527344 -60.972656 36.335938 -60.441406 31.371094 -58.492188 C 30.839844 -58.3125 30.308594 -58.3125 30.308594 -57.960938 L 30.308594 0 L 5.847656 0 L 5.847656 -76.039062 L 30.308594 -76.039062 L 30.308594 -69.304688 C 33.675781 -71.078125 37.398438 -72.316406 42.007812 -73.378906 C 49.097656 -75.152344 54.945312 -75.332031 60.617188 -70.722656 C 66.46875 -65.9375 66.644531 -60.265625 67.53125 -52.640625 Z M 67.53125 -52.640625 "/></g></g></g><g fill="#100f0d" fill-opacity="0.302"><g transform="translate(385.655375, 626.475924)"><g><path d="M 55.832031 -35.09375 C 53.882812 -30.308594 50.160156 -26.410156 45.550781 -24.28125 C 42.894531 -23.042969 39.878906 -22.332031 36.867188 -22.332031 C 34.742188 -22.332031 32.789062 -22.6875 30.839844 -23.398438 C 24.816406 -25.167969 19.851562 -29.953125 17.726562 -35.804688 C 16.839844 -37.929688 17.191406 -40.414062 17.191406 -42.714844 C 17.191406 -46.617188 17.546875 -50.339844 19.675781 -53.707031 C 22.332031 -57.960938 26.585938 -61.148438 31.550781 -62.390625 C 33.144531 -62.746094 34.742188 -63.101562 36.511719 -63.101562 C 39.878906 -63.101562 43.25 -62.214844 46.261719 -60.617188 C 49.628906 -58.667969 52.464844 -55.65625 54.238281 -52.109375 L 69.660156 -62.214844 C 67.886719 -67 64.871094 -71.429688 60.972656 -74.796875 C 57.074219 -78.167969 52.289062 -80.648438 47.324219 -81.886719 C 44.84375 -82.421875 42.363281 -82.597656 39.878906 -82.597656 C 36.867188 -82.597656 33.855469 -82.242188 30.839844 -81.535156 C 25.523438 -80.117188 20.5625 -77.457031 16.484375 -73.914062 C 7.800781 -66.644531 5.671875 -56.011719 4.785156 -44.84375 C 4.609375 -43.601562 4.609375 -42.363281 4.609375 -40.945312 C 4.609375 -31.195312 4.785156 -21.269531 11.167969 -13.824219 C 17.371094 -6.382812 26.410156 -1.417969 36.160156 -0.710938 C 36.867188 -0.53125 37.578125 -0.53125 38.285156 -0.53125 C 47.324219 -0.53125 56.1875 -4.429688 62.214844 -11.167969 C 65.582031 -15.066406 68.0625 -19.851562 69.125 -24.992188 Z M 55.832031 -35.09375 "/></g></g></g><g fill="#100f0d" fill-opacity="0.302"><g transform="translate(460.275977, 626.475924)"><g><path d="M 5.847656 -23.398438 L 5.847656 -75.332031 L 20.027344 -75.332031 L 20.027344 -23.574219 C 22.511719 -19.851562 24.460938 -16.660156 28.714844 -15.953125 C 33.855469 -15.066406 36.867188 -15.421875 42.007812 -17.546875 C 42.363281 -17.546875 43.070312 -17.726562 43.070312 -17.902344 L 43.070312 -76.039062 L 67.53125 -76.039062 L 67.53125 0 L 43.070312 0 L 43.070312 -6.558594 C 39.527344 -4.785156 35.804688 -3.546875 31.371094 -2.660156 C 24.28125 -0.886719 18.433594 -0.710938 12.761719 -5.316406 C 6.914062 -10.101562 6.734375 -15.773438 5.847656 -23.398438 Z M 5.847656 -23.398438 "/></g></g></g><g fill="#100f0d" fill-opacity="0.302"><g transform="translate(534.896579, 626.475924)"><g><path d="M 7.445312 -125.492188 L 7.445312 0 L 34.03125 0 L 34.03125 -125.492188 Z M 7.445312 -125.492188 "/></g></g></g><g fill="#100f0d" fill-opacity="0.302"><g transform="translate(578.144624, 626.475924)"><g><path d="M 21.269531 -39.527344 C 21.269531 -48.921875 28.890625 -56.542969 38.285156 -56.542969 C 47.679688 -56.542969 55.300781 -48.921875 55.300781 -39.527344 C 55.300781 -30.132812 47.679688 -22.511719 38.285156 -22.511719 C 28.890625 -22.511719 21.269531 -30.132812 21.269531 -39.527344 Z M 3.191406 -39.527344 C 3.191406 -18.964844 18.433594 -2.304688 37.222656 -2.304688 C 56.011719 -2.304688 71.253906 -18.964844 71.253906 -39.527344 C 71.253906 -60.085938 56.011719 -76.75 37.222656 -76.75 C 18.433594 -76.75 3.191406 -60.085938 3.191406 -39.527344 Z M 3.191406 -39.527344 "/></g></g></g><g fill="#100f0d" fill-opacity="0.502"><g transform="translate(180.192681, 618.642613)"><g><path d="M 78.519531 -80.46875 L 74.265625 -80.46875 L 61.503906 -79.9375 C 61.328125 -85.964844 62.746094 -90.042969 59.910156 -95.359375 C 58.136719 -98.902344 54.414062 -99.613281 50.339844 -99.613281 C 46.261719 -99.613281 34.207031 -99.257812 31.371094 -96.246094 C 27.828125 -92.347656 26.234375 -89.6875 25.523438 -84.546875 C 23.75 -71.078125 24.816406 -63.453125 24.992188 -49.984375 C 25.167969 -42.183594 23.21875 -36.867188 26.585938 -29.777344 C 28.714844 -25.167969 42.007812 -22.332031 47.148438 -21.980469 C 51.757812 -21.625 55.125 -23.574219 57.78125 -27.296875 C 60.972656 -31.90625 59.378906 -35.804688 60.441406 -41.121094 L 79.050781 -41.652344 C 78.875 -35.273438 80.117188 -31.371094 78.519531 -25.167969 C 77.101562 -18.964844 75.683594 -15.597656 71.609375 -10.8125 C 67.886719 -6.382812 65.050781 -3.898438 59.378906 -2.835938 C 48.035156 -0.886719 31.371094 0 20.738281 -4.253906 C 13.648438 -7.089844 10.988281 -12.761719 9.039062 -20.207031 C 5.316406 -35.449219 7.089844 -44.132812 6.914062 -59.554688 C 6.734375 -76.925781 6.203125 -86.851562 8.507812 -104.222656 C 9.21875 -109.539062 11.699219 -113.082031 16.308594 -116.273438 C 23.574219 -121.414062 37.398438 -122.125 46.617188 -123.007812 C 54.058594 -123.71875 59.378906 -124.25 66.289062 -120.882812 C 73.558594 -117.335938 74.445312 -113.4375 77.457031 -105.992188 C 81.179688 -96.777344 78.167969 -90.394531 78.519531 -80.46875 Z M 78.519531 -80.46875 "/></g></g></g><g fill="#100f0d" fill-opacity="0.502"><g transform="translate(265.270802, 618.642613)"><g><path d="M 24.28125 -118.222656 L 10.988281 -87.382812 L 24.460938 -87.382812 L 45.550781 -118.222656 Z M 4.253906 -59.023438 L 4.253906 0 L 31.371094 0 L 31.371094 -59.023438 Z M 4.253906 -59.023438 "/></g></g></g><g fill="#100f0d" fill-opacity="0.502"><g transform="translate(303.201464, 618.642613)"><g><path d="M 67.53125 -52.640625 L 53.351562 -52.464844 C 50.871094 -56.1875 48.742188 -59.199219 44.667969 -60.085938 C 39.527344 -60.972656 36.335938 -60.441406 31.371094 -58.492188 C 30.839844 -58.3125 30.308594 -58.3125 30.308594 -57.960938 L 30.308594 0 L 5.847656 0 L 5.847656 -76.039062 L 30.308594 -76.039062 L 30.308594 -69.304688 C 33.675781 -71.078125 37.398438 -72.316406 42.007812 -73.378906 C 49.097656 -75.152344 54.945312 -75.332031 60.617188 -70.722656 C 66.46875 -65.9375 66.644531 -60.265625 67.53125 -52.640625 Z M 67.53125 -52.640625 "/></g></g></g><g fill="#100f0d" fill-opacity="0.502"><g transform="translate(377.822066, 618.642613)"><g><path d="M 55.832031 -35.09375 C 53.882812 -30.308594 50.160156 -26.410156 45.550781 -24.28125 C 42.894531 -23.042969 39.878906 -22.332031 36.867188 -22.332031 C 34.742188 -22.332031 32.789062 -22.6875 30.839844 -23.398438 C 24.816406 -25.167969 19.851562 -29.953125 17.726562 -35.804688 C 16.839844 -37.929688 17.191406 -40.414062 17.191406 -42.714844 C 17.191406 -46.617188 17.546875 -50.339844 19.675781 -53.707031 C 22.332031 -57.960938 26.585938 -61.148438 31.550781 -62.390625 C 33.144531 -62.746094 34.742188 -63.101562 36.511719 -63.101562 C 39.878906 -63.101562 43.25 -62.214844 46.261719 -60.617188 C 49.628906 -58.667969 52.464844 -55.65625 54.238281 -52.109375 L 69.660156 -62.214844 C 67.886719 -67 64.871094 -71.429688 60.972656 -74.796875 C 57.074219 -78.167969 52.289062 -80.648438 47.324219 -81.886719 C 44.84375 -82.421875 42.363281 -82.597656 39.878906 -82.597656 C 36.867188 -82.597656 33.855469 -82.242188 30.839844 -81.535156 C 25.523438 -80.117188 20.5625 -77.457031 16.484375 -73.914062 C 7.800781 -66.644531 5.671875 -56.011719 4.785156 -44.84375 C 4.609375 -43.601562 4.609375 -42.363281 4.609375 -40.945312 C 4.609375 -31.195312 4.785156 -21.269531 11.167969 -13.824219 C 17.371094 -6.382812 26.410156 -1.417969 36.160156 -0.710938 C 36.867188 -0.53125 37.578125 -0.53125 38.285156 -0.53125 C 47.324219 -0.53125 56.1875 -4.429688 62.214844 -11.167969 C 65.582031 -15.066406 68.0625 -19.851562 69.125 -24.992188 Z M 55.832031 -35.09375 "/></g></g></g><g fill="#100f0d" fill-opacity="0.502"><g transform="translate(452.442668, 618.642613)"><g><path d="M 5.847656 -23.398438 L 5.847656 -75.332031 L 20.027344 -75.332031 L 20.027344 -23.574219 C 22.511719 -19.851562 24.460938 -16.660156 28.714844 -15.953125 C 33.855469 -15.066406 36.867188 -15.421875 42.007812 -17.546875 C 42.363281 -17.546875 43.070312 -17.726562 43.070312 -17.902344 L 43.070312 -76.039062 L 67.53125 -76.039062 L 67.53125 0 L 43.070312 0 L 43.070312 -6.558594 C 39.527344 -4.785156 35.804688 -3.546875 31.371094 -2.660156 C 24.28125 -0.886719 18.433594 -0.710938 12.761719 -5.316406 C 6.914062 -10.101562 6.734375 -15.773438 5.847656 -23.398438 Z M 5.847656 -23.398438 "/></g></g></g><g fill="#100f0d" fill-opacity="0.502"><g transform="translate(527.06327, 618.642613)"><g><path d="M 7.445312 -125.492188 L 7.445312 0 L 34.03125 0 L 34.03125 -125.492188 Z M 7.445312 -125.492188 "/></g></g></g><g fill="#100f0d" fill-opacity="0.502"><g transform="translate(570.311315, 618.642613)"><g><path d="M 21.269531 -39.527344 C 21.269531 -48.921875 28.890625 -56.542969 38.285156 -56.542969 C 47.679688 -56.542969 55.300781 -48.921875 55.300781 -39.527344 C 55.300781 -30.132812 47.679688 -22.511719 38.285156 -22.511719 C 28.890625 -22.511719 21.269531 -30.132812 21.269531 -39.527344 Z M 3.191406 -39.527344 C 3.191406 -18.964844 18.433594 -2.304688 37.222656 -2.304688 C 56.011719 -2.304688 71.253906 -18.964844 71.253906 -39.527344 C 71.253906 -60.085938 56.011719 -76.75 37.222656 -76.75 C 18.433594 -76.75 3.191406 -60.085938 3.191406 -39.527344 Z M 3.191406 -39.527344 "/></g></g></g><g fill="#ffcc00" fill-opacity="1"><g transform="translate(172.359369, 610.809301)"><g><path d="M 78.519531 -80.46875 L 74.265625 -80.46875 L 61.503906 -79.9375 C 61.328125 -85.964844 62.746094 -90.042969 59.910156 -95.359375 C 58.136719 -98.902344 54.414062 -99.613281 50.339844 -99.613281 C 46.261719 -99.613281 34.207031 -99.257812 31.371094 -96.246094 C 27.828125 -92.347656 26.234375 -89.6875 25.523438 -84.546875 C 23.75 -71.078125 24.816406 -63.453125 24.992188 -49.984375 C 25.167969 -42.183594 23.21875 -36.867188 26.585938 -29.777344 C 28.714844 -25.167969 42.007812 -22.332031 47.148438 -21.980469 C 51.757812 -21.625 55.125 -23.574219 57.78125 -27.296875 C 60.972656 -31.90625 59.378906 -35.804688 60.441406 -41.121094 L 79.050781 -41.652344 C 78.875 -35.273438 80.117188 -31.371094 78.519531 -25.167969 C 77.101562 -18.964844 75.683594 -15.597656 71.609375 -10.8125 C 67.886719 -6.382812 65.050781 -3.898438 59.378906 -2.835938 C 48.035156 -0.886719 31.371094 0 20.738281 -4.253906 C 13.648438 -7.089844 10.988281 -12.761719 9.039062 -20.207031 C 5.316406 -35.449219 7.089844 -44.132812 6.914062 -59.554688 C 6.734375 -76.925781 6.203125 -86.851562 8.507812 -104.222656 C 9.21875 -109.539062 11.699219 -113.082031 16.308594 -116.273438 C 23.574219 -121.414062 37.398438 -122.125 46.617188 -123.007812 C 54.058594 -123.71875 59.378906 -124.25 66.289062 -120.882812 C 73.558594 -117.335938 74.445312 -113.4375 77.457031 -105.992188 C 81.179688 -96.777344 78.167969 -90.394531 78.519531 -80.46875 Z M 78.519531 -80.46875 "/></g></g></g><g fill="#ffcc00" fill-opacity="1"><g transform="translate(257.43749, 610.809301)"><g><path d="M 24.28125 -118.222656 L 10.988281 -87.382812 L 24.460938 -87.382812 L 45.550781 -118.222656 Z M 4.253906 -59.023438 L 4.253906 0 L 31.371094 0 L 31.371094 -59.023438 Z M 4.253906 -59.023438 "/></g></g></g><g fill="#ffcc00" fill-opacity="1"><g transform="translate(295.368152, 610.809301)"><g><path d="M 67.53125 -52.640625 L 53.351562 -52.464844 C 50.871094 -56.1875 48.742188 -59.199219 44.667969 -60.085938 C 39.527344 -60.972656 36.335938 -60.441406 31.371094 -58.492188 C 30.839844 -58.3125 30.308594 -58.3125 30.308594 -57.960938 L 30.308594 0 L 5.847656 0 L 5.847656 -76.039062 L 30.308594 -76.039062 L 30.308594 -69.304688 C 33.675781 -71.078125 37.398438 -72.316406 42.007812 -73.378906 C 49.097656 -75.152344 54.945312 -75.332031 60.617188 -70.722656 C 66.46875 -65.9375 66.644531 -60.265625 67.53125 -52.640625 Z M 67.53125 -52.640625 "/></g></g></g><g fill="#ffcc00" fill-opacity="1"><g transform="translate(369.988754, 610.809301)"><g><path d="M 55.832031 -35.09375 C 53.882812 -30.308594 50.160156 -26.410156 45.550781 -24.28125 C 42.894531 -23.042969 39.878906 -22.332031 36.867188 -22.332031 C 34.742188 -22.332031 32.789062 -22.6875 30.839844 -23.398438 C 24.816406 -25.167969 19.851562 -29.953125 17.726562 -35.804688 C 16.839844 -37.929688 17.191406 -40.414062 17.191406 -42.714844 C 17.191406 -46.617188 17.546875 -50.339844 19.675781 -53.707031 C 22.332031 -57.960938 26.585938 -61.148438 31.550781 -62.390625 C 33.144531 -62.746094 34.742188 -63.101562 36.511719 -63.101562 C 39.878906 -63.101562 43.25 -62.214844 46.261719 -60.617188 C 49.628906 -58.667969 52.464844 -55.65625 54.238281 -52.109375 L 69.660156 -62.214844 C 67.886719 -67 64.871094 -71.429688 60.972656 -74.796875 C 57.074219 -78.167969 52.289062 -80.648438 47.324219 -81.886719 C 44.84375 -82.421875 42.363281 -82.597656 39.878906 -82.597656 C 36.867188 -82.597656 33.855469 -82.242188 30.839844 -81.535156 C 25.523438 -80.117188 20.5625 -77.457031 16.484375 -73.914062 C 7.800781 -66.644531 5.671875 -56.011719 4.785156 -44.84375 C 4.609375 -43.601562 4.609375 -42.363281 4.609375 -40.945312 C 4.609375 -31.195312 4.785156 -21.269531 11.167969 -13.824219 C 17.371094 -6.382812 26.410156 -1.417969 36.160156 -0.710938 C 36.867188 -0.53125 37.578125 -0.53125 38.285156 -0.53125 C 47.324219 -0.53125 56.1875 -4.429688 62.214844 -11.167969 C 65.582031 -15.066406 68.0625 -19.851562 69.125 -24.992188 Z M 55.832031 -35.09375 "/></g></g></g><g fill="#ffcc00" fill-opacity="1"><g transform="translate(444.609356, 610.809301)"><g><path d="M 5.847656 -23.398438 L 5.847656 -75.332031 L 20.027344 -75.332031 L 20.027344 -23.574219 C 22.511719 -19.851562 24.460938 -16.660156 28.714844 -15.953125 C 33.855469 -15.066406 36.867188 -15.421875 42.007812 -17.546875 C 42.363281 -17.546875 43.070312 -17.726562 43.070312 -17.902344 L 43.070312 -76.039062 L 67.53125 -76.039062 L 67.53125 0 L 43.070312 0 L 43.070312 -6.558594 C 39.527344 -4.785156 35.804688 -3.546875 31.371094 -2.660156 C 24.28125 -0.886719 18.433594 -0.710938 12.761719 -5.316406 C 6.914062 -10.101562 6.734375 -15.773438 5.847656 -23.398438 Z M 5.847656 -23.398438 "/></g></g></g><g fill="#ffcc00" fill-opacity="1"><g transform="translate(519.229958, 610.809301)"><g><path d="M 7.445312 -125.492188 L 7.445312 0 L 34.03125 0 L 34.03125 -125.492188 Z M 7.445312 -125.492188 "/></g></g></g><g fill="#ffcc00" fill-opacity="1"><g transform="translate(562.478003, 610.809301)"><g><path d="M 21.269531 -39.527344 C 21.269531 -48.921875 28.890625 -56.542969 38.285156 -56.542969 C 47.679688 -56.542969 55.300781 -48.921875 55.300781 -39.527344 C 55.300781 -30.132812 47.679688 -22.511719 38.285156 -22.511719 C 28.890625 -22.511719 21.269531 -30.132812 21.269531 -39.527344 Z M 3.191406 -39.527344 C 3.191406 -18.964844 18.433594 -2.304688 37.222656 -2.304688 C 56.011719 -2.304688 71.253906 -18.964844 71.253906 -39.527344 C 71.253906 -60.085938 56.011719 -76.75 37.222656 -76.75 C 18.433594 -76.75 3.191406 -60.085938 3.191406 -39.527344 Z M 3.191406 -39.527344 "/></g></g></g></svg>