<svg xmlns="http://www.w3.org/2000/svg" xmlns:xlink="http://www.w3.org/1999/xlink" width="1080" zoomAndPan="magnify" viewBox="0 0 810 809.999993" height="1080" preserveAspectRatio="xMidYMid meet" version="1.0"><defs><g/><clipPath id="id1"><path d="M 206.835938 156.304688 L 602.835938 156.304688 L 602.835938 502.804688 L 206.835938 502.804688 Z M 206.835938 156.304688 " clip-rule="nonzero"/></clipPath><clipPath id="id2"><path d="M 206.839844 156.304688 L 602.835938 156.304688 L 602.835938 502.804688 L 206.839844 502.804688 Z M 206.839844 156.304688 " clip-rule="nonzero"/></clipPath><clipPath id="id3"><path d="M 222.539062 211.628906 C 190.429688 264.527344 213.050781 316.011719 241.476562 343.339844 L 407.683594 502.804688 L 570.382812 343.910156 C 596.820312 314.515625 606.957031 283.332031 601.328125 248.613281 C 593.554688 200.582031 553.972656 163.320312 505.082031 157.996094 C 475.09375 154.769531 446.128906 163.253906 423.519531 182.042969 C 417.433594 187.097656 411.996094 192.75 407.253906 198.890625 C 401.628906 191.898438 395.035156 185.5 387.578125 179.828125 C 361.578125 160.070312 328.484375 152.226562 296.695312 158.328125 C 266.589844 164.144531 239.566406 183.566406 222.539062 211.628906 " clip-rule="nonzero"/></clipPath><clipPath id="id4"><path d="M 309.542969 270.992188 L 500.792969 270.992188 L 500.792969 329.492188 L 309.542969 329.492188 Z M 309.542969 270.992188 " clip-rule="nonzero"/></clipPath></defs><rect x="-81" width="972" fill="#ffffff" y="-80.999999" height="971.999992" fill-opacity="1"/><rect x="-81" width="972" fill="#ffffff" y="-80.999999" height="971.999992" fill-opacity="1"/><rect x="-81" width="972" fill="#ffffff" y="-80.999999" height="971.999992" fill-opacity="1"/><g clip-path="url(#id1)"><path fill="#ce0a0a" d="M 222.539062 211.628906 C 190.429688 264.527344 213.050781 316.011719 241.476562 343.339844 L 407.683594 502.804688 L 570.382812 343.910156 C 596.820312 314.515625 606.957031 283.332031 601.328125 248.613281 C 593.554688 200.582031 553.972656 163.320312 505.082031 157.996094 C 475.09375 154.769531 446.128906 163.253906 423.519531 182.042969 C 417.433594 187.097656 411.996094 192.75 407.253906 198.890625 C 401.628906 191.898438 395.035156 185.5 387.578125 179.828125 C 361.578125 160.070312 328.484375 152.226562 296.695312 158.328125 C 266.589844 164.144531 239.566406 183.566406 222.539062 211.628906 " fill-opacity="1" fill-rule="nonzero"/></g><g clip-path="url(#id2)"><g clip-path="url(#id3)"><path stroke-linecap="butt" transform="matrix(0.749379, 0, 0, 0.749392, 206.838466, 156.303763)" fill="none" stroke-linejoin="miter" d="M 20.951475 73.826735 C -21.8965 144.415236 8.289951 213.116791 46.222397 249.583868 L 268.0154 462.376246 L 485.127443 250.344902 C 520.406652 211.12038 533.933476 169.508505 526.422049 123.179263 C 516.048877 59.085612 463.229105 9.362993 397.98759 2.258272 C 357.970084 -2.047303 319.318291 9.274379 289.147479 34.346798 C 281.026172 41.091852 273.770164 48.634428 267.442008 56.828574 C 259.935794 47.498089 251.136842 38.959914 241.185895 31.391276 C 206.490504 5.026142 162.328941 -5.44068 119.908404 2.70134 C 79.734518 10.462843 43.673412 36.379697 20.951475 73.826735 " stroke="#000000" stroke-width="30" stroke-opacity="1" stroke-miterlimit="4"/></g></g><g clip-path="url(#id4)"><path fill="#000000" d="M 500.5625 300.242188 C 500.5625 316.402344 487.40625 329.492188 471.160156 329.492188 C 454.914062 329.492188 441.757812 316.402344 441.757812 300.242188 C 441.757812 284.082031 454.914062 270.992188 471.160156 270.992188 C 487.40625 270.992188 500.5625 284.082031 500.5625 300.242188 Z M 339.175781 270.992188 C 322.929688 270.992188 309.773438 284.082031 309.773438 300.242188 C 309.773438 316.402344 322.929688 329.492188 339.175781 329.492188 C 355.417969 329.492188 368.578125 316.402344 368.578125 300.242188 C 368.578125 284.082031 355.417969 270.992188 339.175781 270.992188 Z M 339.175781 270.992188 " fill-opacity="1" fill-rule="nonzero"/></g><path fill="#ffffff" d="M 471.875 295.246094 C 471.875 301.546875 466.738281 306.660156 460.398438 306.660156 C 454.0625 306.660156 448.925781 301.546875 448.925781 295.246094 C 448.925781 288.941406 454.0625 283.828125 460.398438 283.828125 C 466.738281 283.828125 471.875 288.941406 471.875 295.246094 Z M 486.207031 308.105469 C 483.832031 308.105469 481.898438 310.03125 481.898438 312.390625 C 481.898438 314.75 483.832031 316.675781 486.207031 316.675781 C 488.582031 316.675781 490.515625 314.75 490.515625 312.390625 C 490.515625 310.007812 488.601562 308.105469 486.207031 308.105469 Z M 349.933594 283.828125 C 343.597656 283.828125 338.460938 288.941406 338.460938 295.246094 C 338.460938 301.546875 343.597656 306.660156 349.933594 306.660156 C 356.273438 306.660156 361.410156 301.546875 361.410156 295.246094 C 361.410156 288.941406 356.273438 283.828125 349.933594 283.828125 Z M 324.128906 308.105469 C 321.753906 308.105469 319.820312 310.03125 319.820312 312.390625 C 319.820312 314.75 321.753906 316.675781 324.128906 316.675781 C 326.5 316.675781 328.4375 314.75 328.4375 312.390625 C 328.414062 310.007812 326.5 308.105469 324.128906 308.105469 Z M 324.128906 308.105469 " fill-opacity="1" fill-rule="nonzero"/><g fill="#100f0d" fill-opacity="0.302"><g transform="translate(145.486931, 616.589101)"><g><path d="M 78.519531 -80.46875 L 74.265625 -80.46875 L 61.503906 -79.9375 C 61.328125 -85.964844 62.746094 -90.042969 59.910156 -95.359375 C 58.136719 -98.902344 54.414062 -99.613281 50.339844 -99.613281 C 46.261719 -99.613281 34.207031 -99.257812 31.371094 -96.246094 C 27.828125 -92.347656 26.234375 -89.6875 25.523438 -84.546875 C 23.75 -71.078125 24.816406 -63.453125 24.992188 -49.984375 C 25.167969 -42.183594 23.21875 -36.867188 26.585938 -29.777344 C 28.714844 -25.167969 42.007812 -22.332031 47.148438 -21.980469 C 51.757812 -21.625 55.125 -23.574219 57.78125 -27.296875 C 60.972656 -31.90625 59.378906 -35.804688 60.441406 -41.121094 L 79.050781 -41.652344 C 78.875 -35.273438 80.117188 -31.371094 78.519531 -25.167969 C 77.101562 -18.964844 75.683594 -15.597656 71.609375 -10.8125 C 67.886719 -6.382812 65.050781 -3.898438 59.378906 -2.835938 C 48.035156 -0.886719 31.371094 0 20.738281 -4.253906 C 13.648438 -7.089844 10.988281 -12.761719 9.039062 -20.207031 C 5.316406 -35.449219 7.089844 -44.132812 6.914062 -59.554688 C 6.734375 -76.925781 6.203125 -86.851562 8.507812 -104.222656 C 9.21875 -109.539062 11.699219 -113.082031 16.308594 -116.273438 C 23.574219 -121.414062 37.398438 -122.125 46.617188 -123.007812 C 54.058594 -123.71875 59.378906 -124.25 66.289062 -120.882812 C 73.558594 -117.335938 74.445312 -113.4375 77.457031 -105.992188 C 81.179688 -96.777344 78.167969 -90.394531 78.519531 -80.46875 Z M 78.519531 -80.46875 "/></g></g></g><g fill="#100f0d" fill-opacity="0.302"><g transform="translate(230.565051, 616.589101)"><g><path d="M 21.269531 -39.527344 C 21.269531 -48.921875 28.890625 -56.542969 38.285156 -56.542969 C 47.679688 -56.542969 55.300781 -48.921875 55.300781 -39.527344 C 55.300781 -30.132812 47.679688 -22.511719 38.285156 -22.511719 C 28.890625 -22.511719 21.269531 -30.132812 21.269531 -39.527344 Z M 3.191406 -39.527344 C 3.191406 -18.964844 18.433594 -2.304688 37.222656 -2.304688 C 56.011719 -2.304688 71.253906 -18.964844 71.253906 -39.527344 C 71.253906 -60.085938 56.011719 -76.75 37.222656 -76.75 C 18.433594 -76.75 3.191406 -60.085938 3.191406 -39.527344 Z M 3.191406 -39.527344 "/></g></g></g><g fill="#100f0d" fill-opacity="0.302"><g transform="translate(305.717391, 616.589101)"><g><path d="M 67.53125 -52.640625 L 53.351562 -52.464844 C 50.871094 -56.1875 48.742188 -59.199219 44.667969 -60.085938 C 39.527344 -60.972656 36.335938 -60.441406 31.371094 -58.492188 C 30.839844 -58.3125 30.308594 -58.3125 30.308594 -57.960938 L 30.308594 0 L 5.847656 0 L 5.847656 -76.039062 L 30.308594 -76.039062 L 30.308594 -69.304688 C 33.675781 -71.078125 37.398438 -72.316406 42.007812 -73.378906 C 49.097656 -75.152344 54.945312 -75.332031 60.617188 -70.722656 C 66.46875 -65.9375 66.644531 -60.265625 67.53125 -52.640625 Z M 67.53125 -52.640625 "/></g></g></g><g fill="#100f0d" fill-opacity="0.302"><g transform="translate(380.337993, 616.589101)"><g><path d="M 43.070312 -76.039062 L 43.070312 -70.542969 C 41.832031 -71.078125 40.589844 -71.609375 39.347656 -72.316406 C 31.550781 -75.507812 25.699219 -76.394531 18.078125 -72.847656 C 11.167969 -69.660156 8.683594 -64.695312 6.914062 -57.429688 C 3.722656 -44.667969 4.429688 -36.511719 5.847656 -23.398438 C 6.734375 -15.773438 6.914062 -10.101562 12.761719 -5.316406 C 18.433594 -0.710938 24.28125 -0.886719 31.371094 -2.660156 C 35.804688 -3.546875 39.527344 -4.785156 43.070312 -6.558594 L 43.070312 0 L 67.53125 0 L 67.53125 -76.039062 Z M 43.070312 -17.902344 C 42.714844 -17.726562 42.363281 -17.546875 42.007812 -17.546875 C 37.042969 -15.421875 33.855469 -15.066406 28.714844 -15.953125 C 24.460938 -16.660156 21.09375 -17.546875 18.609375 -21.269531 C 15.066406 -26.585938 15.242188 -30.839844 14.890625 -37.222656 C 14.710938 -41.121094 15.066406 -43.425781 17.015625 -46.792969 C 19.675781 -51.222656 21.269531 -54.59375 26.054688 -56.363281 C 31.195312 -58.136719 34.207031 -55.476562 39.347656 -54.769531 L 43.070312 -51.402344 Z M 43.070312 -17.902344 "/></g></g></g><g fill="#100f0d" fill-opacity="0.302"><g transform="translate(454.958595, 616.589101)"><g><path d="M 9.570312 -63.277344 L 51.578125 -62.214844 L 9.039062 -28.714844 L 8.507812 0 L 77.632812 0 L 78.167969 -22.332031 L 37.222656 -21.269531 L 80.292969 -61.683594 L 80.292969 -86.675781 L 9.039062 -86.675781 Z M 9.570312 -63.277344 "/></g></g></g><g fill="#100f0d" fill-opacity="0.302"><g transform="translate(546.063083, 616.589101)"><g><path d="M 43.78125 -118.222656 L 30.488281 -87.382812 L 43.957031 -87.382812 L 65.050781 -118.222656 Z M 21.269531 -39.527344 C 21.269531 -48.921875 28.890625 -56.542969 38.285156 -56.542969 C 47.679688 -56.542969 55.300781 -48.921875 55.300781 -39.527344 C 55.300781 -30.132812 47.679688 -22.511719 38.285156 -22.511719 C 28.890625 -22.511719 21.269531 -30.132812 21.269531 -39.527344 Z M 3.191406 -39.527344 C 3.191406 -18.964844 18.433594 -2.304688 37.222656 -2.304688 C 56.011719 -2.304688 71.253906 -18.964844 71.253906 -39.527344 C 71.253906 -60.085938 56.011719 -76.75 37.222656 -76.75 C 18.433594 -76.75 3.191406 -60.085938 3.191406 -39.527344 Z M 3.191406 -39.527344 "/></g></g></g><g fill="#100f0d" fill-opacity="0.302"><g transform="translate(621.215423, 616.589101)"><g><path d="M 67.53125 -52.640625 L 67.53125 -0.710938 L 53.351562 -0.710938 L 53.351562 -52.464844 C 50.871094 -56.1875 48.742188 -59.199219 44.667969 -60.085938 C 39.527344 -60.972656 36.335938 -60.441406 31.371094 -58.492188 C 30.839844 -58.3125 30.308594 -58.3125 30.308594 -57.960938 L 30.308594 0 L 5.847656 0 L 5.847656 -76.039062 L 30.308594 -76.039062 L 30.308594 -69.304688 C 33.675781 -71.078125 37.398438 -72.316406 42.007812 -73.378906 C 49.097656 -75.152344 54.945312 -75.332031 60.617188 -70.722656 C 66.46875 -65.9375 66.644531 -60.265625 67.53125 -52.640625 Z M 67.53125 -52.640625 "/></g></g></g><g fill="#100f0d" fill-opacity="0.502"><g transform="translate(137.653619, 608.755789)"><g><path d="M 78.519531 -80.46875 L 74.265625 -80.46875 L 61.503906 -79.9375 C 61.328125 -85.964844 62.746094 -90.042969 59.910156 -95.359375 C 58.136719 -98.902344 54.414062 -99.613281 50.339844 -99.613281 C 46.261719 -99.613281 34.207031 -99.257812 31.371094 -96.246094 C 27.828125 -92.347656 26.234375 -89.6875 25.523438 -84.546875 C 23.75 -71.078125 24.816406 -63.453125 24.992188 -49.984375 C 25.167969 -42.183594 23.21875 -36.867188 26.585938 -29.777344 C 28.714844 -25.167969 42.007812 -22.332031 47.148438 -21.980469 C 51.757812 -21.625 55.125 -23.574219 57.78125 -27.296875 C 60.972656 -31.90625 59.378906 -35.804688 60.441406 -41.121094 L 79.050781 -41.652344 C 78.875 -35.273438 80.117188 -31.371094 78.519531 -25.167969 C 77.101562 -18.964844 75.683594 -15.597656 71.609375 -10.8125 C 67.886719 -6.382812 65.050781 -3.898438 59.378906 -2.835938 C 48.035156 -0.886719 31.371094 0 20.738281 -4.253906 C 13.648438 -7.089844 10.988281 -12.761719 9.039062 -20.207031 C 5.316406 -35.449219 7.089844 -44.132812 6.914062 -59.554688 C 6.734375 -76.925781 6.203125 -86.851562 8.507812 -104.222656 C 9.21875 -109.539062 11.699219 -113.082031 16.308594 -116.273438 C 23.574219 -121.414062 37.398438 -122.125 46.617188 -123.007812 C 54.058594 -123.71875 59.378906 -124.25 66.289062 -120.882812 C 73.558594 -117.335938 74.445312 -113.4375 77.457031 -105.992188 C 81.179688 -96.777344 78.167969 -90.394531 78.519531 -80.46875 Z M 78.519531 -80.46875 "/></g></g></g><g fill="#100f0d" fill-opacity="0.502"><g transform="translate(222.73174, 608.755789)"><g><path d="M 21.269531 -39.527344 C 21.269531 -48.921875 28.890625 -56.542969 38.285156 -56.542969 C 47.679688 -56.542969 55.300781 -48.921875 55.300781 -39.527344 C 55.300781 -30.132812 47.679688 -22.511719 38.285156 -22.511719 C 28.890625 -22.511719 21.269531 -30.132812 21.269531 -39.527344 Z M 3.191406 -39.527344 C 3.191406 -18.964844 18.433594 -2.304688 37.222656 -2.304688 C 56.011719 -2.304688 71.253906 -18.964844 71.253906 -39.527344 C 71.253906 -60.085938 56.011719 -76.75 37.222656 -76.75 C 18.433594 -76.75 3.191406 -60.085938 3.191406 -39.527344 Z M 3.191406 -39.527344 "/></g></g></g><g fill="#100f0d" fill-opacity="0.502"><g transform="translate(297.88408, 608.755789)"><g><path d="M 67.53125 -52.640625 L 53.351562 -52.464844 C 50.871094 -56.1875 48.742188 -59.199219 44.667969 -60.085938 C 39.527344 -60.972656 36.335938 -60.441406 31.371094 -58.492188 C 30.839844 -58.3125 30.308594 -58.3125 30.308594 -57.960938 L 30.308594 0 L 5.847656 0 L 5.847656 -76.039062 L 30.308594 -76.039062 L 30.308594 -69.304688 C 33.675781 -71.078125 37.398438 -72.316406 42.007812 -73.378906 C 49.097656 -75.152344 54.945312 -75.332031 60.617188 -70.722656 C 66.46875 -65.9375 66.644531 -60.265625 67.53125 -52.640625 Z M 67.53125 -52.640625 "/></g></g></g><g fill="#100f0d" fill-opacity="0.502"><g transform="translate(372.504682, 608.755789)"><g><path d="M 43.070312 -76.039062 L 43.070312 -70.542969 C 41.832031 -71.078125 40.589844 -71.609375 39.347656 -72.316406 C 31.550781 -75.507812 25.699219 -76.394531 18.078125 -72.847656 C 11.167969 -69.660156 8.683594 -64.695312 6.914062 -57.429688 C 3.722656 -44.667969 4.429688 -36.511719 5.847656 -23.398438 C 6.734375 -15.773438 6.914062 -10.101562 12.761719 -5.316406 C 18.433594 -0.710938 24.28125 -0.886719 31.371094 -2.660156 C 35.804688 -3.546875 39.527344 -4.785156 43.070312 -6.558594 L 43.070312 0 L 67.53125 0 L 67.53125 -76.039062 Z M 43.070312 -17.902344 C 42.714844 -17.726562 42.363281 -17.546875 42.007812 -17.546875 C 37.042969 -15.421875 33.855469 -15.066406 28.714844 -15.953125 C 24.460938 -16.660156 21.09375 -17.546875 18.609375 -21.269531 C 15.066406 -26.585938 15.242188 -30.839844 14.890625 -37.222656 C 14.710938 -41.121094 15.066406 -43.425781 17.015625 -46.792969 C 19.675781 -51.222656 21.269531 -54.59375 26.054688 -56.363281 C 31.195312 -58.136719 34.207031 -55.476562 39.347656 -54.769531 L 43.070312 -51.402344 Z M 43.070312 -17.902344 "/></g></g></g><g fill="#100f0d" fill-opacity="0.502"><g transform="translate(447.125284, 608.755789)"><g><path d="M 9.570312 -63.277344 L 51.578125 -62.214844 L 9.039062 -28.714844 L 8.507812 0 L 77.632812 0 L 78.167969 -22.332031 L 37.222656 -21.269531 L 80.292969 -61.683594 L 80.292969 -86.675781 L 9.039062 -86.675781 Z M 9.570312 -63.277344 "/></g></g></g><g fill="#100f0d" fill-opacity="0.502"><g transform="translate(538.229771, 608.755789)"><g><path d="M 43.78125 -118.222656 L 30.488281 -87.382812 L 43.957031 -87.382812 L 65.050781 -118.222656 Z M 21.269531 -39.527344 C 21.269531 -48.921875 28.890625 -56.542969 38.285156 -56.542969 C 47.679688 -56.542969 55.300781 -48.921875 55.300781 -39.527344 C 55.300781 -30.132812 47.679688 -22.511719 38.285156 -22.511719 C 28.890625 -22.511719 21.269531 -30.132812 21.269531 -39.527344 Z M 3.191406 -39.527344 C 3.191406 -18.964844 18.433594 -2.304688 37.222656 -2.304688 C 56.011719 -2.304688 71.253906 -18.964844 71.253906 -39.527344 C 71.253906 -60.085938 56.011719 -76.75 37.222656 -76.75 C 18.433594 -76.75 3.191406 -60.085938 3.191406 -39.527344 Z M 3.191406 -39.527344 "/></g></g></g><g fill="#100f0d" fill-opacity="0.502"><g transform="translate(613.382111, 608.755789)"><g><path d="M 67.53125 -52.640625 L 67.53125 -0.710938 L 53.351562 -0.710938 L 53.351562 -52.464844 C 50.871094 -56.1875 48.742188 -59.199219 44.667969 -60.085938 C 39.527344 -60.972656 36.335938 -60.441406 31.371094 -58.492188 C 30.839844 -58.3125 30.308594 -58.3125 30.308594 -57.960938 L 30.308594 0 L 5.847656 0 L 5.847656 -76.039062 L 30.308594 -76.039062 L 30.308594 -69.304688 C 33.675781 -71.078125 37.398438 -72.316406 42.007812 -73.378906 C 49.097656 -75.152344 54.945312 -75.332031 60.617188 -70.722656 C 66.46875 -65.9375 66.644531 -60.265625 67.53125 -52.640625 Z M 67.53125 -52.640625 "/></g></g></g><g fill="#ce0a0a" fill-opacity="1"><g transform="translate(129.82031, 600.922502)"><g><path d="M 78.519531 -80.46875 L 74.265625 -80.46875 L 61.503906 -79.9375 C 61.328125 -85.964844 62.746094 -90.042969 59.910156 -95.359375 C 58.136719 -98.902344 54.414062 -99.613281 50.339844 -99.613281 C 46.261719 -99.613281 34.207031 -99.257812 31.371094 -96.246094 C 27.828125 -92.347656 26.234375 -89.6875 25.523438 -84.546875 C 23.75 -71.078125 24.816406 -63.453125 24.992188 -49.984375 C 25.167969 -42.183594 23.21875 -36.867188 26.585938 -29.777344 C 28.714844 -25.167969 42.007812 -22.332031 47.148438 -21.980469 C 51.757812 -21.625 55.125 -23.574219 57.78125 -27.296875 C 60.972656 -31.90625 59.378906 -35.804688 60.441406 -41.121094 L 79.050781 -41.652344 C 78.875 -35.273438 80.117188 -31.371094 78.519531 -25.167969 C 77.101562 -18.964844 75.683594 -15.597656 71.609375 -10.8125 C 67.886719 -6.382812 65.050781 -3.898438 59.378906 -2.835938 C 48.035156 -0.886719 31.371094 0 20.738281 -4.253906 C 13.648438 -7.089844 10.988281 -12.761719 9.039062 -20.207031 C 5.316406 -35.449219 7.089844 -44.132812 6.914062 -59.554688 C 6.734375 -76.925781 6.203125 -86.851562 8.507812 -104.222656 C 9.21875 -109.539062 11.699219 -113.082031 16.308594 -116.273438 C 23.574219 -121.414062 37.398438 -122.125 46.617188 -123.007812 C 54.058594 -123.71875 59.378906 -124.25 66.289062 -120.882812 C 73.558594 -117.335938 74.445312 -113.4375 77.457031 -105.992188 C 81.179688 -96.777344 78.167969 -90.394531 78.519531 -80.46875 Z M 78.519531 -80.46875 "/></g></g></g><g fill="#ce0a0a" fill-opacity="1"><g transform="translate(214.89843, 600.922502)"><g><path d="M 21.269531 -39.527344 C 21.269531 -48.921875 28.890625 -56.542969 38.285156 -56.542969 C 47.679688 -56.542969 55.300781 -48.921875 55.300781 -39.527344 C 55.300781 -30.132812 47.679688 -22.511719 38.285156 -22.511719 C 28.890625 -22.511719 21.269531 -30.132812 21.269531 -39.527344 Z M 3.191406 -39.527344 C 3.191406 -18.964844 18.433594 -2.304688 37.222656 -2.304688 C 56.011719 -2.304688 71.253906 -18.964844 71.253906 -39.527344 C 71.253906 -60.085938 56.011719 -76.75 37.222656 -76.75 C 18.433594 -76.75 3.191406 -60.085938 3.191406 -39.527344 Z M 3.191406 -39.527344 "/></g></g></g><g fill="#ce0a0a" fill-opacity="1"><g transform="translate(290.05077, 600.922502)"><g><path d="M 67.53125 -52.640625 L 53.351562 -52.464844 C 50.871094 -56.1875 48.742188 -59.199219 44.667969 -60.085938 C 39.527344 -60.972656 36.335938 -60.441406 31.371094 -58.492188 C 30.839844 -58.3125 30.308594 -58.3125 30.308594 -57.960938 L 30.308594 0 L 5.847656 0 L 5.847656 -76.039062 L 30.308594 -76.039062 L 30.308594 -69.304688 C 33.675781 -71.078125 37.398438 -72.316406 42.007812 -73.378906 C 49.097656 -75.152344 54.945312 -75.332031 60.617188 -70.722656 C 66.46875 -65.9375 66.644531 -60.265625 67.53125 -52.640625 Z M 67.53125 -52.640625 "/></g></g></g><g fill="#ce0a0a" fill-opacity="1"><g transform="translate(364.671372, 600.922502)"><g><path d="M 43.070312 -76.039062 L 43.070312 -70.542969 C 41.832031 -71.078125 40.589844 -71.609375 39.347656 -72.316406 C 31.550781 -75.507812 25.699219 -76.394531 18.078125 -72.847656 C 11.167969 -69.660156 8.683594 -64.695312 6.914062 -57.429688 C 3.722656 -44.667969 4.429688 -36.511719 5.847656 -23.398438 C 6.734375 -15.773438 6.914062 -10.101562 12.761719 -5.316406 C 18.433594 -0.710938 24.28125 -0.886719 31.371094 -2.660156 C 35.804688 -3.546875 39.527344 -4.785156 43.070312 -6.558594 L 43.070312 0 L 67.53125 0 L 67.53125 -76.039062 Z M 43.070312 -17.902344 C 42.714844 -17.726562 42.363281 -17.546875 42.007812 -17.546875 C 37.042969 -15.421875 33.855469 -15.066406 28.714844 -15.953125 C 24.460938 -16.660156 21.09375 -17.546875 18.609375 -21.269531 C 15.066406 -26.585938 15.242188 -30.839844 14.890625 -37.222656 C 14.710938 -41.121094 15.066406 -43.425781 17.015625 -46.792969 C 19.675781 -51.222656 21.269531 -54.59375 26.054688 -56.363281 C 31.195312 -58.136719 34.207031 -55.476562 39.347656 -54.769531 L 43.070312 -51.402344 Z M 43.070312 -17.902344 "/></g></g></g><g fill="#ce0a0a" fill-opacity="1"><g transform="translate(439.291974, 600.922502)"><g><path d="M 9.570312 -63.277344 L 51.578125 -62.214844 L 9.039062 -28.714844 L 8.507812 0 L 77.632812 0 L 78.167969 -22.332031 L 37.222656 -21.269531 L 80.292969 -61.683594 L 80.292969 -86.675781 L 9.039062 -86.675781 Z M 9.570312 -63.277344 "/></g></g></g><g fill="#ce0a0a" fill-opacity="1"><g transform="translate(530.396462, 600.922502)"><g><path d="M 43.78125 -118.222656 L 30.488281 -87.382812 L 43.957031 -87.382812 L 65.050781 -118.222656 Z M 21.269531 -39.527344 C 21.269531 -48.921875 28.890625 -56.542969 38.285156 -56.542969 C 47.679688 -56.542969 55.300781 -48.921875 55.300781 -39.527344 C 55.300781 -30.132812 47.679688 -22.511719 38.285156 -22.511719 C 28.890625 -22.511719 21.269531 -30.132812 21.269531 -39.527344 Z M 3.191406 -39.527344 C 3.191406 -18.964844 18.433594 -2.304688 37.222656 -2.304688 C 56.011719 -2.304688 71.253906 -18.964844 71.253906 -39.527344 C 71.253906 -60.085938 56.011719 -76.75 37.222656 -76.75 C 18.433594 -76.75 3.191406 -60.085938 3.191406 -39.527344 Z M 3.191406 -39.527344 "/></g></g></g><g fill="#ce0a0a" fill-opacity="1"><g transform="translate(605.548802, 600.922502)"><g><path d="M 67.53125 -52.640625 L 67.53125 -0.710938 L 53.351562 -0.710938 L 53.351562 -52.464844 C 50.871094 -56.1875 48.742188 -59.199219 44.667969 -60.085938 C 39.527344 -60.972656 36.335938 -60.441406 31.371094 -58.492188 C 30.839844 -58.3125 30.308594 -58.3125 30.308594 -57.960938 L 30.308594 0 L 5.847656 0 L 5.847656 -76.039062 L 30.308594 -76.039062 L 30.308594 -69.304688 C 33.675781 -71.078125 37.398438 -72.316406 42.007812 -73.378906 C 49.097656 -75.152344 54.945312 -75.332031 60.617188 -70.722656 C 66.46875 -65.9375 66.644531 -60.265625 67.53125 -52.640625 Z M 67.53125 -52.640625 "/></g></g></g></svg>