<svg xmlns="http://www.w3.org/2000/svg" xmlns:xlink="http://www.w3.org/1999/xlink" width="1080" zoomAndPan="magnify" viewBox="0 0 810 809.999993" height="1080" preserveAspectRatio="xMidYMid meet" version="1.0"><defs><g/><clipPath id="id1"><path d="M 221.449219 132.832031 L 588.199219 132.832031 L 588.199219 499.582031 L 221.449219 499.582031 Z M 221.449219 132.832031 " clip-rule="nonzero"/></clipPath><clipPath id="id2"><path d="M 336.058594 132.832031 L 473.589844 132.832031 L 473.589844 247.441406 L 336.058594 247.441406 Z M 221.449219 247.441406 L 588.199219 247.441406 L 588.199219 384.972656 L 221.449219 384.972656 Z M 336.058594 384.972656 L 473.589844 384.972656 L 473.589844 499.582031 L 336.058594 499.582031 Z M 336.058594 384.972656 " clip-rule="nonzero"/></clipPath><clipPath id="id3"><path d="M 309.542969 269.683594 L 500.792969 269.683594 L 500.792969 328.183594 L 309.542969 328.183594 Z M 309.542969 269.683594 " clip-rule="nonzero"/></clipPath></defs><rect x="-81" width="972" fill="#ffffff" y="-80.999999" height="971.999992" fill-opacity="1"/><rect x="-81" width="972" fill="#ffffff" y="-80.999999" height="971.999992" fill-opacity="1"/><rect x="-81" width="972" fill="#ffffff" y="-80.999999" height="971.999992" fill-opacity="1"/><g clip-path="url(#id1)"><path fill="#a45d2a" d="M 473.589844 132.832031 L 336.058594 132.832031 L 336.058594 247.441406 L 221.449219 247.441406 L 221.449219 384.972656 L 336.058594 384.972656 L 336.058594 499.582031 L 473.589844 499.582031 L 473.589844 384.972656 L 588.199219 384.972656 L 588.199219 247.441406 L 473.589844 247.441406 L 473.589844 132.832031 " fill-opacity="1" fill-rule="nonzero"/></g><g clip-path="url(#id2)"><path stroke-linecap="butt" transform="matrix(0.749282, 0, 0, 0.749282, 221.448919, 132.830169)" fill="none" stroke-linejoin="miter" d="M 336.51017 0.00248602 L 152.959386 0.00248602 L 152.959386 152.961472 L 0.000400371 152.961472 L 0.000400371 336.512255 L 152.959386 336.512255 L 152.959386 489.471242 L 336.51017 489.471242 L 336.51017 336.512255 L 489.469156 336.512255 L 489.469156 152.961472 L 336.51017 152.961472 L 336.51017 0.00248602 " stroke="#000000" stroke-width="30" stroke-opacity="1" stroke-miterlimit="4"/></g><g clip-path="url(#id3)"><path fill="#000000" d="M 500.5625 298.933594 C 500.5625 315.097656 487.40625 328.183594 471.160156 328.183594 C 454.914062 328.183594 441.757812 315.097656 441.757812 298.933594 C 441.757812 282.773438 454.914062 269.683594 471.160156 269.683594 C 487.40625 269.683594 500.5625 282.773438 500.5625 298.933594 Z M 339.175781 269.683594 C 322.929688 269.683594 309.773438 282.773438 309.773438 298.933594 C 309.773438 315.097656 322.929688 328.183594 339.175781 328.183594 C 355.417969 328.183594 368.578125 315.097656 368.578125 298.933594 C 368.578125 282.773438 355.417969 269.683594 339.175781 269.683594 Z M 339.175781 269.683594 " fill-opacity="1" fill-rule="nonzero"/></g><path fill="#ffffff" d="M 471.875 293.9375 C 471.875 300.242188 466.738281 305.351562 460.398438 305.351562 C 454.0625 305.351562 448.925781 300.242188 448.925781 293.9375 C 448.925781 287.632812 454.0625 282.523438 460.398438 282.523438 C 466.738281 282.523438 471.875 287.632812 471.875 293.9375 Z M 486.207031 306.796875 C 483.832031 306.796875 481.898438 308.722656 481.898438 311.085938 C 481.898438 313.445312 483.832031 315.371094 486.207031 315.371094 C 488.582031 315.371094 490.515625 313.445312 490.515625 311.085938 C 490.515625 308.699219 488.601562 306.796875 486.207031 306.796875 Z M 349.933594 282.523438 C 343.597656 282.523438 338.460938 287.632812 338.460938 293.9375 C 338.460938 300.242188 343.597656 305.351562 349.933594 305.351562 C 356.273438 305.351562 361.410156 300.242188 361.410156 293.9375 C 361.410156 287.632812 356.273438 282.523438 349.933594 282.523438 Z M 324.128906 306.796875 C 321.753906 306.796875 319.820312 308.722656 319.820312 311.085938 C 319.820312 313.445312 321.753906 315.371094 324.128906 315.371094 C 326.5 315.371094 328.4375 313.445312 328.4375 311.085938 C 328.414062 308.699219 326.5 306.796875 324.128906 306.796875 Z M 324.128906 306.796875 " fill-opacity="1" fill-rule="nonzero"/><g fill="#100f0d" fill-opacity="0.302"><g transform="translate(257.951767, 640.062708)"><g><path d="M 78.519531 -80.46875 L 74.265625 -80.46875 L 61.503906 -79.9375 C 61.328125 -85.964844 62.746094 -90.042969 59.910156 -95.359375 C 58.136719 -98.902344 54.414062 -99.613281 50.339844 -99.613281 C 46.261719 -99.613281 34.207031 -99.257812 31.371094 -96.246094 C 27.828125 -92.347656 26.234375 -89.6875 25.523438 -84.546875 C 23.75 -71.078125 24.816406 -63.453125 24.992188 -49.984375 C 25.167969 -42.183594 23.21875 -36.867188 26.585938 -29.777344 C 28.714844 -25.167969 42.007812 -22.332031 47.148438 -21.980469 C 51.757812 -21.625 55.125 -23.574219 57.78125 -27.296875 C 60.972656 -31.90625 59.378906 -35.804688 60.441406 -41.121094 L 79.050781 -41.652344 C 78.875 -35.273438 80.117188 -31.371094 78.519531 -25.167969 C 77.101562 -18.964844 75.683594 -15.597656 71.609375 -10.8125 C 67.886719 -6.382812 65.050781 -3.898438 59.378906 -2.835938 C 48.035156 -0.886719 31.371094 0 20.738281 -4.253906 C 13.648438 -7.089844 10.988281 -12.761719 9.039062 -20.207031 C 5.316406 -35.449219 7.089844 -44.132812 6.914062 -59.554688 C 6.734375 -76.925781 6.203125 -86.851562 8.507812 -104.222656 C 9.21875 -109.539062 11.699219 -113.082031 16.308594 -116.273438 C 23.574219 -121.414062 37.398438 -122.125 46.617188 -123.007812 C 54.058594 -123.71875 59.378906 -124.25 66.289062 -120.882812 C 73.558594 -117.335938 74.445312 -113.4375 77.457031 -105.992188 C 81.179688 -96.777344 78.167969 -90.394531 78.519531 -80.46875 Z M 78.519531 -80.46875 "/></g></g></g><g fill="#100f0d" fill-opacity="0.302"><g transform="translate(343.029888, 640.062708)"><g><path d="M 67.53125 -52.640625 L 53.351562 -52.464844 C 50.871094 -56.1875 48.742188 -59.199219 44.667969 -60.085938 C 39.527344 -60.972656 36.335938 -60.441406 31.371094 -58.492188 C 30.839844 -58.3125 30.308594 -58.3125 30.308594 -57.960938 L 30.308594 0 L 5.847656 0 L 5.847656 -76.039062 L 30.308594 -76.039062 L 30.308594 -69.304688 C 33.675781 -71.078125 37.398438 -72.316406 42.007812 -73.378906 C 49.097656 -75.152344 54.945312 -75.332031 60.617188 -70.722656 C 66.46875 -65.9375 66.644531 -60.265625 67.53125 -52.640625 Z M 67.53125 -52.640625 "/></g></g></g><g fill="#100f0d" fill-opacity="0.302"><g transform="translate(417.65049, 640.062708)"><g><path d="M 5.847656 -23.398438 L 5.847656 -75.332031 L 20.027344 -75.332031 L 20.027344 -23.574219 C 22.511719 -19.851562 24.460938 -16.660156 28.714844 -15.953125 C 33.855469 -15.066406 36.867188 -15.421875 42.007812 -17.546875 C 42.363281 -17.546875 43.070312 -17.726562 43.070312 -17.902344 L 43.070312 -76.039062 L 67.53125 -76.039062 L 67.53125 0 L 43.070312 0 L 43.070312 -6.558594 C 39.527344 -4.785156 35.804688 -3.546875 31.371094 -2.660156 C 24.28125 -0.886719 18.433594 -0.710938 12.761719 -5.316406 C 6.914062 -10.101562 6.734375 -15.773438 5.847656 -23.398438 Z M 5.847656 -23.398438 "/></g></g></g><g fill="#100f0d" fill-opacity="0.302"><g transform="translate(492.271092, 640.062708)"><g><path d="M 9.570312 -63.277344 L 51.578125 -62.214844 L 9.039062 -28.714844 L 8.507812 0 L 77.632812 0 L 78.167969 -22.332031 L 37.222656 -21.269531 L 80.292969 -61.683594 L 80.292969 -86.675781 L 9.039062 -86.675781 Z M 9.570312 -63.277344 "/></g></g></g><g fill="#100f0d" fill-opacity="0.502"><g transform="translate(250.118458, 632.229396)"><g><path d="M 78.519531 -80.46875 L 74.265625 -80.46875 L 61.503906 -79.9375 C 61.328125 -85.964844 62.746094 -90.042969 59.910156 -95.359375 C 58.136719 -98.902344 54.414062 -99.613281 50.339844 -99.613281 C 46.261719 -99.613281 34.207031 -99.257812 31.371094 -96.246094 C 27.828125 -92.347656 26.234375 -89.6875 25.523438 -84.546875 C 23.75 -71.078125 24.816406 -63.453125 24.992188 -49.984375 C 25.167969 -42.183594 23.21875 -36.867188 26.585938 -29.777344 C 28.714844 -25.167969 42.007812 -22.332031 47.148438 -21.980469 C 51.757812 -21.625 55.125 -23.574219 57.78125 -27.296875 C 60.972656 -31.90625 59.378906 -35.804688 60.441406 -41.121094 L 79.050781 -41.652344 C 78.875 -35.273438 80.117188 -31.371094 78.519531 -25.167969 C 77.101562 -18.964844 75.683594 -15.597656 71.609375 -10.8125 C 67.886719 -6.382812 65.050781 -3.898438 59.378906 -2.835938 C 48.035156 -0.886719 31.371094 0 20.738281 -4.253906 C 13.648438 -7.089844 10.988281 -12.761719 9.039062 -20.207031 C 5.316406 -35.449219 7.089844 -44.132812 6.914062 -59.554688 C 6.734375 -76.925781 6.203125 -86.851562 8.507812 -104.222656 C 9.21875 -109.539062 11.699219 -113.082031 16.308594 -116.273438 C 23.574219 -121.414062 37.398438 -122.125 46.617188 -123.007812 C 54.058594 -123.71875 59.378906 -124.25 66.289062 -120.882812 C 73.558594 -117.335938 74.445312 -113.4375 77.457031 -105.992188 C 81.179688 -96.777344 78.167969 -90.394531 78.519531 -80.46875 Z M 78.519531 -80.46875 "/></g></g></g><g fill="#100f0d" fill-opacity="0.502"><g transform="translate(335.196579, 632.229396)"><g><path d="M 67.53125 -52.640625 L 53.351562 -52.464844 C 50.871094 -56.1875 48.742188 -59.199219 44.667969 -60.085938 C 39.527344 -60.972656 36.335938 -60.441406 31.371094 -58.492188 C 30.839844 -58.3125 30.308594 -58.3125 30.308594 -57.960938 L 30.308594 0 L 5.847656 0 L 5.847656 -76.039062 L 30.308594 -76.039062 L 30.308594 -69.304688 C 33.675781 -71.078125 37.398438 -72.316406 42.007812 -73.378906 C 49.097656 -75.152344 54.945312 -75.332031 60.617188 -70.722656 C 66.46875 -65.9375 66.644531 -60.265625 67.53125 -52.640625 Z M 67.53125 -52.640625 "/></g></g></g><g fill="#100f0d" fill-opacity="0.502"><g transform="translate(409.817181, 632.229396)"><g><path d="M 5.847656 -23.398438 L 5.847656 -75.332031 L 20.027344 -75.332031 L 20.027344 -23.574219 C 22.511719 -19.851562 24.460938 -16.660156 28.714844 -15.953125 C 33.855469 -15.066406 36.867188 -15.421875 42.007812 -17.546875 C 42.363281 -17.546875 43.070312 -17.726562 43.070312 -17.902344 L 43.070312 -76.039062 L 67.53125 -76.039062 L 67.53125 0 L 43.070312 0 L 43.070312 -6.558594 C 39.527344 -4.785156 35.804688 -3.546875 31.371094 -2.660156 C 24.28125 -0.886719 18.433594 -0.710938 12.761719 -5.316406 C 6.914062 -10.101562 6.734375 -15.773438 5.847656 -23.398438 Z M 5.847656 -23.398438 "/></g></g></g><g fill="#100f0d" fill-opacity="0.502"><g transform="translate(484.437783, 632.229396)"><g><path d="M 9.570312 -63.277344 L 51.578125 -62.214844 L 9.039062 -28.714844 L 8.507812 0 L 77.632812 0 L 78.167969 -22.332031 L 37.222656 -21.269531 L 80.292969 -61.683594 L 80.292969 -86.675781 L 9.039062 -86.675781 Z M 9.570312 -63.277344 "/></g></g></g><g fill="#a45d2a" fill-opacity="1"><g transform="translate(242.285147, 624.396085)"><g><path d="M 78.519531 -80.46875 L 74.265625 -80.46875 L 61.503906 -79.9375 C 61.328125 -85.964844 62.746094 -90.042969 59.910156 -95.359375 C 58.136719 -98.902344 54.414062 -99.613281 50.339844 -99.613281 C 46.261719 -99.613281 34.207031 -99.257812 31.371094 -96.246094 C 27.828125 -92.347656 26.234375 -89.6875 25.523438 -84.546875 C 23.75 -71.078125 24.816406 -63.453125 24.992188 -49.984375 C 25.167969 -42.183594 23.21875 -36.867188 26.585938 -29.777344 C 28.714844 -25.167969 42.007812 -22.332031 47.148438 -21.980469 C 51.757812 -21.625 55.125 -23.574219 57.78125 -27.296875 C 60.972656 -31.90625 59.378906 -35.804688 60.441406 -41.121094 L 79.050781 -41.652344 C 78.875 -35.273438 80.117188 -31.371094 78.519531 -25.167969 C 77.101562 -18.964844 75.683594 -15.597656 71.609375 -10.8125 C 67.886719 -6.382812 65.050781 -3.898438 59.378906 -2.835938 C 48.035156 -0.886719 31.371094 0 20.738281 -4.253906 C 13.648438 -7.089844 10.988281 -12.761719 9.039062 -20.207031 C 5.316406 -35.449219 7.089844 -44.132812 6.914062 -59.554688 C 6.734375 -76.925781 6.203125 -86.851562 8.507812 -104.222656 C 9.21875 -109.539062 11.699219 -113.082031 16.308594 -116.273438 C 23.574219 -121.414062 37.398438 -122.125 46.617188 -123.007812 C 54.058594 -123.71875 59.378906 -124.25 66.289062 -120.882812 C 73.558594 -117.335938 74.445312 -113.4375 77.457031 -105.992188 C 81.179688 -96.777344 78.167969 -90.394531 78.519531 -80.46875 Z M 78.519531 -80.46875 "/></g></g></g><g fill="#a45d2a" fill-opacity="1"><g transform="translate(327.363267, 624.396085)"><g><path d="M 67.53125 -52.640625 L 53.351562 -52.464844 C 50.871094 -56.1875 48.742188 -59.199219 44.667969 -60.085938 C 39.527344 -60.972656 36.335938 -60.441406 31.371094 -58.492188 C 30.839844 -58.3125 30.308594 -58.3125 30.308594 -57.960938 L 30.308594 0 L 5.847656 0 L 5.847656 -76.039062 L 30.308594 -76.039062 L 30.308594 -69.304688 C 33.675781 -71.078125 37.398438 -72.316406 42.007812 -73.378906 C 49.097656 -75.152344 54.945312 -75.332031 60.617188 -70.722656 C 66.46875 -65.9375 66.644531 -60.265625 67.53125 -52.640625 Z M 67.53125 -52.640625 "/></g></g></g><g fill="#a45d2a" fill-opacity="1"><g transform="translate(401.983869, 624.396085)"><g><path d="M 5.847656 -23.398438 L 5.847656 -75.332031 L 20.027344 -75.332031 L 20.027344 -23.574219 C 22.511719 -19.851562 24.460938 -16.660156 28.714844 -15.953125 C 33.855469 -15.066406 36.867188 -15.421875 42.007812 -17.546875 C 42.363281 -17.546875 43.070312 -17.726562 43.070312 -17.902344 L 43.070312 -76.039062 L 67.53125 -76.039062 L 67.53125 0 L 43.070312 0 L 43.070312 -6.558594 C 39.527344 -4.785156 35.804688 -3.546875 31.371094 -2.660156 C 24.28125 -0.886719 18.433594 -0.710938 12.761719 -5.316406 C 6.914062 -10.101562 6.734375 -15.773438 5.847656 -23.398438 Z M 5.847656 -23.398438 "/></g></g></g><g fill="#a45d2a" fill-opacity="1"><g transform="translate(476.604471, 624.396085)"><g><path d="M 9.570312 -63.277344 L 51.578125 -62.214844 L 9.039062 -28.714844 L 8.507812 0 L 77.632812 0 L 78.167969 -22.332031 L 37.222656 -21.269531 L 80.292969 -61.683594 L 80.292969 -86.675781 L 9.039062 -86.675781 Z M 9.570312 -63.277344 "/></g></g></g></svg>