<svg xmlns="http://www.w3.org/2000/svg" xmlns:xlink="http://www.w3.org/1999/xlink" width="1080" zoomAndPan="magnify" viewBox="0 0 810 809.999993" height="1080" preserveAspectRatio="xMidYMid meet" version="1.0"><defs><g/><clipPath id="id1"><path d="M 239.796875 141.441406 L 570.546875 141.441406 L 570.546875 472.191406 L 239.796875 472.191406 Z M 239.796875 141.441406 " clip-rule="nonzero"/></clipPath><clipPath id="id2"><path d="M 309.542969 247.9375 L 500.792969 247.9375 L 500.792969 306.4375 L 309.542969 306.4375 Z M 309.542969 247.9375 " clip-rule="nonzero"/></clipPath></defs><rect x="-81" width="972" fill="#ffffff" y="-80.999999" height="971.999992" fill-opacity="1"/><rect x="-81" width="972" fill="#ffffff" y="-80.999999" height="971.999992" fill-opacity="1"/><rect x="-81" width="972" fill="#ffffff" y="-80.999999" height="971.999992" fill-opacity="1"/><g clip-path="url(#id1)"><path stroke-linecap="butt" transform="matrix(0.750798, 0, 0, 0.750798, 239.797359, 141.439818)" fill-opacity="1" fill="#b55990" fill-rule="nonzero" stroke-linejoin="miter" d="M -0.000645228 0.00211584 L 440.530581 0.00211584 L 440.530581 440.533342 L -0.000645228 440.533342 L -0.000645228 0.00211584 " stroke="#000000" stroke-width="30" stroke-opacity="1" stroke-miterlimit="4"/></g><g clip-path="url(#id2)"><path fill="#000000" d="M 500.5625 277.1875 C 500.5625 293.347656 487.40625 306.4375 471.160156 306.4375 C 454.914062 306.4375 441.757812 293.347656 441.757812 277.1875 C 441.757812 261.023438 454.914062 247.9375 471.160156 247.9375 C 487.40625 247.9375 500.5625 261.023438 500.5625 277.1875 Z M 339.175781 247.9375 C 322.929688 247.9375 309.773438 261.023438 309.773438 277.1875 C 309.773438 293.347656 322.929688 306.4375 339.175781 306.4375 C 355.417969 306.4375 368.578125 293.347656 368.578125 277.1875 C 368.578125 261.023438 355.417969 247.9375 339.175781 247.9375 Z M 339.175781 247.9375 " fill-opacity="1" fill-rule="nonzero"/></g><path fill="#ffffff" d="M 471.875 272.1875 C 471.875 278.492188 466.738281 283.605469 460.398438 283.605469 C 454.0625 283.605469 448.925781 278.492188 448.925781 272.1875 C 448.925781 265.886719 454.0625 260.773438 460.398438 260.773438 C 466.738281 260.773438 471.875 265.886719 471.875 272.1875 Z M 486.207031 285.046875 C 483.832031 285.046875 481.898438 286.972656 481.898438 289.335938 C 481.898438 291.695312 483.832031 293.621094 486.207031 293.621094 C 488.582031 293.621094 490.515625 291.695312 490.515625 289.335938 C 490.515625 286.953125 488.601562 285.046875 486.207031 285.046875 Z M 349.933594 260.773438 C 343.597656 260.773438 338.460938 265.886719 338.460938 272.1875 C 338.460938 278.492188 343.597656 283.605469 349.933594 283.605469 C 356.273438 283.605469 361.410156 278.492188 361.410156 272.1875 C 361.410156 265.886719 356.273438 260.773438 349.933594 260.773438 Z M 324.128906 285.046875 C 321.753906 285.046875 319.820312 286.972656 319.820312 289.335938 C 319.820312 291.695312 321.753906 293.621094 324.128906 293.621094 C 326.5 293.621094 328.4375 291.695312 328.4375 289.335938 C 328.414062 286.953125 326.5 285.046875 324.128906 285.046875 Z M 324.128906 285.046875 " fill-opacity="1" fill-rule="nonzero"/><g fill="#100f0d" fill-opacity="0.302"><g transform="translate(116.693954, 631.451652)"><g><path d="M 78.519531 -80.46875 L 74.265625 -80.46875 L 61.503906 -79.9375 C 61.328125 -85.964844 62.746094 -90.042969 59.910156 -95.359375 C 58.136719 -98.902344 54.414062 -99.613281 50.339844 -99.613281 C 46.261719 -99.613281 34.207031 -99.257812 31.371094 -96.246094 C 27.828125 -92.347656 26.234375 -89.6875 25.523438 -84.546875 C 23.75 -71.078125 24.816406 -63.453125 24.992188 -49.984375 C 25.167969 -42.183594 23.21875 -36.867188 26.585938 -29.777344 C 28.714844 -25.167969 42.007812 -22.332031 47.148438 -21.980469 C 51.757812 -21.625 55.125 -23.574219 57.78125 -27.296875 C 60.972656 -31.90625 59.378906 -35.804688 60.441406 -41.121094 L 79.050781 -41.652344 C 78.875 -35.273438 80.117188 -31.371094 78.519531 -25.167969 C 77.101562 -18.964844 75.683594 -15.597656 71.609375 -10.8125 C 67.886719 -6.382812 65.050781 -3.898438 59.378906 -2.835938 C 48.035156 -0.886719 31.371094 0 20.738281 -4.253906 C 13.648438 -7.089844 10.988281 -12.761719 9.039062 -20.207031 C 5.316406 -35.449219 7.089844 -44.132812 6.914062 -59.554688 C 6.734375 -76.925781 6.203125 -86.851562 8.507812 -104.222656 C 9.21875 -109.539062 11.699219 -113.082031 16.308594 -116.273438 C 23.574219 -121.414062 37.398438 -122.125 46.617188 -123.007812 C 54.058594 -123.71875 59.378906 -124.25 66.289062 -120.882812 C 73.558594 -117.335938 74.445312 -113.4375 77.457031 -105.992188 C 81.179688 -96.777344 78.167969 -90.394531 78.519531 -80.46875 Z M 78.519531 -80.46875 "/></g></g></g><g fill="#100f0d" fill-opacity="0.302"><g transform="translate(201.772075, 631.451652)"><g><path d="M 5.847656 -23.398438 L 5.847656 -75.332031 L 20.027344 -75.332031 L 20.027344 -23.574219 C 22.511719 -19.851562 24.460938 -16.660156 28.714844 -15.953125 C 33.855469 -15.066406 36.867188 -15.421875 42.007812 -17.546875 C 42.363281 -17.546875 43.070312 -17.726562 43.070312 -17.902344 L 43.070312 -76.039062 L 67.53125 -76.039062 L 67.53125 0 L 43.070312 0 L 43.070312 -6.558594 C 39.527344 -4.785156 35.804688 -3.546875 31.371094 -2.660156 C 24.28125 -0.886719 18.433594 -0.710938 12.761719 -5.316406 C 6.914062 -10.101562 6.734375 -15.773438 5.847656 -23.398438 Z M 5.847656 -23.398438 "/></g></g></g><g fill="#100f0d" fill-opacity="0.302"><g transform="translate(276.392677, 631.451652)"><g><path d="M 43.070312 -76.039062 L 43.070312 -70.542969 C 41.832031 -71.078125 40.589844 -71.609375 39.347656 -72.316406 C 31.550781 -75.507812 25.699219 -76.394531 18.078125 -72.847656 C 11.167969 -69.660156 8.683594 -64.695312 6.914062 -57.429688 C 3.722656 -44.667969 4.429688 -36.511719 5.847656 -23.398438 C 6.734375 -15.773438 6.914062 -10.101562 12.761719 -5.316406 C 18.433594 -0.710938 24.28125 -0.886719 31.371094 -2.660156 C 35.804688 -3.546875 39.527344 -4.785156 43.070312 -6.558594 L 43.070312 0 L 67.53125 0 L 67.53125 -76.039062 Z M 43.070312 -17.902344 C 42.714844 -17.726562 42.363281 -17.546875 42.007812 -17.546875 C 37.042969 -15.421875 33.855469 -15.066406 28.714844 -15.953125 C 24.460938 -16.660156 21.09375 -17.546875 18.609375 -21.269531 C 15.066406 -26.585938 15.242188 -30.839844 14.890625 -37.222656 C 14.710938 -41.121094 15.066406 -43.425781 17.015625 -46.792969 C 19.675781 -51.222656 21.269531 -54.59375 26.054688 -56.363281 C 31.195312 -58.136719 34.207031 -55.476562 39.347656 -54.769531 L 43.070312 -51.402344 Z M 43.070312 -17.902344 "/></g></g></g><g fill="#100f0d" fill-opacity="0.302"><g transform="translate(351.013279, 631.451652)"><g><path d="M 43.070312 -116.804688 L 43.070312 -70.542969 C 41.832031 -71.078125 40.589844 -71.609375 39.347656 -72.316406 C 31.550781 -75.507812 25.699219 -76.394531 18.078125 -72.847656 C 11.167969 -69.660156 8.683594 -64.695312 6.914062 -57.429688 C 3.722656 -44.667969 4.429688 -36.511719 5.847656 -23.398438 C 6.734375 -15.773438 6.914062 -10.101562 12.761719 -5.316406 C 18.433594 -0.710938 24.28125 -0.886719 31.371094 -2.660156 C 35.804688 -3.546875 39.527344 -4.785156 43.070312 -6.558594 L 43.070312 0 L 67.53125 0 L 67.53125 -116.804688 Z M 43.070312 -17.902344 C 42.714844 -17.726562 42.363281 -17.546875 42.007812 -17.546875 C 37.042969 -15.421875 33.855469 -15.066406 28.714844 -15.953125 C 24.460938 -16.660156 21.09375 -17.546875 18.609375 -21.269531 C 15.066406 -26.585938 15.242188 -30.839844 14.890625 -37.222656 C 14.710938 -41.121094 15.066406 -43.425781 17.015625 -46.792969 C 19.675781 -51.222656 21.269531 -54.59375 26.054688 -56.363281 C 31.195312 -58.136719 34.207031 -55.476562 39.347656 -54.769531 L 43.070312 -51.402344 Z M 43.070312 -17.902344 "/></g></g></g><g fill="#100f0d" fill-opacity="0.302"><g transform="translate(425.633881, 631.451652)"><g><path d="M 67.53125 -52.640625 L 53.351562 -52.464844 C 50.871094 -56.1875 48.742188 -59.199219 44.667969 -60.085938 C 39.527344 -60.972656 36.335938 -60.441406 31.371094 -58.492188 C 30.839844 -58.3125 30.308594 -58.3125 30.308594 -57.960938 L 30.308594 0 L 5.847656 0 L 5.847656 -76.039062 L 30.308594 -76.039062 L 30.308594 -69.304688 C 33.675781 -71.078125 37.398438 -72.316406 42.007812 -73.378906 C 49.097656 -75.152344 54.945312 -75.332031 60.617188 -70.722656 C 66.46875 -65.9375 66.644531 -60.265625 67.53125 -52.640625 Z M 67.53125 -52.640625 "/></g></g></g><g fill="#100f0d" fill-opacity="0.302"><g transform="translate(500.254483, 631.451652)"><g><path d="M 43.070312 -76.039062 L 43.070312 -70.542969 C 41.832031 -71.078125 40.589844 -71.609375 39.347656 -72.316406 C 31.550781 -75.507812 25.699219 -76.394531 18.078125 -72.847656 C 11.167969 -69.660156 8.683594 -64.695312 6.914062 -57.429688 C 3.722656 -44.667969 4.429688 -36.511719 5.847656 -23.398438 C 6.734375 -15.773438 6.914062 -10.101562 12.761719 -5.316406 C 18.433594 -0.710938 24.28125 -0.886719 31.371094 -2.660156 C 35.804688 -3.546875 39.527344 -4.785156 43.070312 -6.558594 L 43.070312 0 L 67.53125 0 L 67.53125 -76.039062 Z M 43.070312 -17.902344 C 42.714844 -17.726562 42.363281 -17.546875 42.007812 -17.546875 C 37.042969 -15.421875 33.855469 -15.066406 28.714844 -15.953125 C 24.460938 -16.660156 21.09375 -17.546875 18.609375 -21.269531 C 15.066406 -26.585938 15.242188 -30.839844 14.890625 -37.222656 C 14.710938 -41.121094 15.066406 -43.425781 17.015625 -46.792969 C 19.675781 -51.222656 21.269531 -54.59375 26.054688 -56.363281 C 31.195312 -58.136719 34.207031 -55.476562 39.347656 -54.769531 L 43.070312 -51.402344 Z M 43.070312 -17.902344 "/></g></g></g><g fill="#100f0d" fill-opacity="0.302"><g transform="translate(574.875085, 631.451652)"><g><path d="M 43.070312 -116.804688 L 43.070312 -70.542969 C 41.832031 -71.078125 40.589844 -71.609375 39.347656 -72.316406 C 31.550781 -75.507812 25.699219 -76.394531 18.078125 -72.847656 C 11.167969 -69.660156 8.683594 -64.695312 6.914062 -57.429688 C 3.722656 -44.667969 4.429688 -36.511719 5.847656 -23.398438 C 6.734375 -15.773438 6.914062 -10.101562 12.761719 -5.316406 C 18.433594 -0.710938 24.28125 -0.886719 31.371094 -2.660156 C 35.804688 -3.546875 39.527344 -4.785156 43.070312 -6.558594 L 43.070312 0 L 67.53125 0 L 67.53125 -116.804688 Z M 43.070312 -17.902344 C 42.714844 -17.726562 42.363281 -17.546875 42.007812 -17.546875 C 37.042969 -15.421875 33.855469 -15.066406 28.714844 -15.953125 C 24.460938 -16.660156 21.09375 -17.546875 18.609375 -21.269531 C 15.066406 -26.585938 15.242188 -30.839844 14.890625 -37.222656 C 14.710938 -41.121094 15.066406 -43.425781 17.015625 -46.792969 C 19.675781 -51.222656 21.269531 -54.59375 26.054688 -56.363281 C 31.195312 -58.136719 34.207031 -55.476562 39.347656 -54.769531 L 43.070312 -51.402344 Z M 43.070312 -17.902344 "/></g></g></g><g fill="#100f0d" fill-opacity="0.302"><g transform="translate(649.495687, 631.451652)"><g><path d="M 21.269531 -39.527344 C 21.269531 -48.921875 28.890625 -56.542969 38.285156 -56.542969 C 47.679688 -56.542969 55.300781 -48.921875 55.300781 -39.527344 C 55.300781 -30.132812 47.679688 -22.511719 38.285156 -22.511719 C 28.890625 -22.511719 21.269531 -30.132812 21.269531 -39.527344 Z M 3.191406 -39.527344 C 3.191406 -18.964844 18.433594 -2.304688 37.222656 -2.304688 C 56.011719 -2.304688 71.253906 -18.964844 71.253906 -39.527344 C 71.253906 -60.085938 56.011719 -76.75 37.222656 -76.75 C 18.433594 -76.75 3.191406 -60.085938 3.191406 -39.527344 Z M 3.191406 -39.527344 "/></g></g></g><g fill="#100f0d" fill-opacity="0.502"><g transform="translate(108.860652, 623.618341)"><g><path d="M 78.519531 -80.46875 L 74.265625 -80.46875 L 61.503906 -79.9375 C 61.328125 -85.964844 62.746094 -90.042969 59.910156 -95.359375 C 58.136719 -98.902344 54.414062 -99.613281 50.339844 -99.613281 C 46.261719 -99.613281 34.207031 -99.257812 31.371094 -96.246094 C 27.828125 -92.347656 26.234375 -89.6875 25.523438 -84.546875 C 23.75 -71.078125 24.816406 -63.453125 24.992188 -49.984375 C 25.167969 -42.183594 23.21875 -36.867188 26.585938 -29.777344 C 28.714844 -25.167969 42.007812 -22.332031 47.148438 -21.980469 C 51.757812 -21.625 55.125 -23.574219 57.78125 -27.296875 C 60.972656 -31.90625 59.378906 -35.804688 60.441406 -41.121094 L 79.050781 -41.652344 C 78.875 -35.273438 80.117188 -31.371094 78.519531 -25.167969 C 77.101562 -18.964844 75.683594 -15.597656 71.609375 -10.8125 C 67.886719 -6.382812 65.050781 -3.898438 59.378906 -2.835938 C 48.035156 -0.886719 31.371094 0 20.738281 -4.253906 C 13.648438 -7.089844 10.988281 -12.761719 9.039062 -20.207031 C 5.316406 -35.449219 7.089844 -44.132812 6.914062 -59.554688 C 6.734375 -76.925781 6.203125 -86.851562 8.507812 -104.222656 C 9.21875 -109.539062 11.699219 -113.082031 16.308594 -116.273438 C 23.574219 -121.414062 37.398438 -122.125 46.617188 -123.007812 C 54.058594 -123.71875 59.378906 -124.25 66.289062 -120.882812 C 73.558594 -117.335938 74.445312 -113.4375 77.457031 -105.992188 C 81.179688 -96.777344 78.167969 -90.394531 78.519531 -80.46875 Z M 78.519531 -80.46875 "/></g></g></g><g fill="#100f0d" fill-opacity="0.502"><g transform="translate(193.938773, 623.618341)"><g><path d="M 5.847656 -23.398438 L 5.847656 -75.332031 L 20.027344 -75.332031 L 20.027344 -23.574219 C 22.511719 -19.851562 24.460938 -16.660156 28.714844 -15.953125 C 33.855469 -15.066406 36.867188 -15.421875 42.007812 -17.546875 C 42.363281 -17.546875 43.070312 -17.726562 43.070312 -17.902344 L 43.070312 -76.039062 L 67.53125 -76.039062 L 67.53125 0 L 43.070312 0 L 43.070312 -6.558594 C 39.527344 -4.785156 35.804688 -3.546875 31.371094 -2.660156 C 24.28125 -0.886719 18.433594 -0.710938 12.761719 -5.316406 C 6.914062 -10.101562 6.734375 -15.773438 5.847656 -23.398438 Z M 5.847656 -23.398438 "/></g></g></g><g fill="#100f0d" fill-opacity="0.502"><g transform="translate(268.559375, 623.618341)"><g><path d="M 43.070312 -76.039062 L 43.070312 -70.542969 C 41.832031 -71.078125 40.589844 -71.609375 39.347656 -72.316406 C 31.550781 -75.507812 25.699219 -76.394531 18.078125 -72.847656 C 11.167969 -69.660156 8.683594 -64.695312 6.914062 -57.429688 C 3.722656 -44.667969 4.429688 -36.511719 5.847656 -23.398438 C 6.734375 -15.773438 6.914062 -10.101562 12.761719 -5.316406 C 18.433594 -0.710938 24.28125 -0.886719 31.371094 -2.660156 C 35.804688 -3.546875 39.527344 -4.785156 43.070312 -6.558594 L 43.070312 0 L 67.53125 0 L 67.53125 -76.039062 Z M 43.070312 -17.902344 C 42.714844 -17.726562 42.363281 -17.546875 42.007812 -17.546875 C 37.042969 -15.421875 33.855469 -15.066406 28.714844 -15.953125 C 24.460938 -16.660156 21.09375 -17.546875 18.609375 -21.269531 C 15.066406 -26.585938 15.242188 -30.839844 14.890625 -37.222656 C 14.710938 -41.121094 15.066406 -43.425781 17.015625 -46.792969 C 19.675781 -51.222656 21.269531 -54.59375 26.054688 -56.363281 C 31.195312 -58.136719 34.207031 -55.476562 39.347656 -54.769531 L 43.070312 -51.402344 Z M 43.070312 -17.902344 "/></g></g></g><g fill="#100f0d" fill-opacity="0.502"><g transform="translate(343.179977, 623.618341)"><g><path d="M 43.070312 -116.804688 L 43.070312 -70.542969 C 41.832031 -71.078125 40.589844 -71.609375 39.347656 -72.316406 C 31.550781 -75.507812 25.699219 -76.394531 18.078125 -72.847656 C 11.167969 -69.660156 8.683594 -64.695312 6.914062 -57.429688 C 3.722656 -44.667969 4.429688 -36.511719 5.847656 -23.398438 C 6.734375 -15.773438 6.914062 -10.101562 12.761719 -5.316406 C 18.433594 -0.710938 24.28125 -0.886719 31.371094 -2.660156 C 35.804688 -3.546875 39.527344 -4.785156 43.070312 -6.558594 L 43.070312 0 L 67.53125 0 L 67.53125 -116.804688 Z M 43.070312 -17.902344 C 42.714844 -17.726562 42.363281 -17.546875 42.007812 -17.546875 C 37.042969 -15.421875 33.855469 -15.066406 28.714844 -15.953125 C 24.460938 -16.660156 21.09375 -17.546875 18.609375 -21.269531 C 15.066406 -26.585938 15.242188 -30.839844 14.890625 -37.222656 C 14.710938 -41.121094 15.066406 -43.425781 17.015625 -46.792969 C 19.675781 -51.222656 21.269531 -54.59375 26.054688 -56.363281 C 31.195312 -58.136719 34.207031 -55.476562 39.347656 -54.769531 L 43.070312 -51.402344 Z M 43.070312 -17.902344 "/></g></g></g><g fill="#100f0d" fill-opacity="0.502"><g transform="translate(417.800579, 623.618341)"><g><path d="M 67.53125 -52.640625 L 53.351562 -52.464844 C 50.871094 -56.1875 48.742188 -59.199219 44.667969 -60.085938 C 39.527344 -60.972656 36.335938 -60.441406 31.371094 -58.492188 C 30.839844 -58.3125 30.308594 -58.3125 30.308594 -57.960938 L 30.308594 0 L 5.847656 0 L 5.847656 -76.039062 L 30.308594 -76.039062 L 30.308594 -69.304688 C 33.675781 -71.078125 37.398438 -72.316406 42.007812 -73.378906 C 49.097656 -75.152344 54.945312 -75.332031 60.617188 -70.722656 C 66.46875 -65.9375 66.644531 -60.265625 67.53125 -52.640625 Z M 67.53125 -52.640625 "/></g></g></g><g fill="#100f0d" fill-opacity="0.502"><g transform="translate(492.421181, 623.618341)"><g><path d="M 43.070312 -76.039062 L 43.070312 -70.542969 C 41.832031 -71.078125 40.589844 -71.609375 39.347656 -72.316406 C 31.550781 -75.507812 25.699219 -76.394531 18.078125 -72.847656 C 11.167969 -69.660156 8.683594 -64.695312 6.914062 -57.429688 C 3.722656 -44.667969 4.429688 -36.511719 5.847656 -23.398438 C 6.734375 -15.773438 6.914062 -10.101562 12.761719 -5.316406 C 18.433594 -0.710938 24.28125 -0.886719 31.371094 -2.660156 C 35.804688 -3.546875 39.527344 -4.785156 43.070312 -6.558594 L 43.070312 0 L 67.53125 0 L 67.53125 -76.039062 Z M 43.070312 -17.902344 C 42.714844 -17.726562 42.363281 -17.546875 42.007812 -17.546875 C 37.042969 -15.421875 33.855469 -15.066406 28.714844 -15.953125 C 24.460938 -16.660156 21.09375 -17.546875 18.609375 -21.269531 C 15.066406 -26.585938 15.242188 -30.839844 14.890625 -37.222656 C 14.710938 -41.121094 15.066406 -43.425781 17.015625 -46.792969 C 19.675781 -51.222656 21.269531 -54.59375 26.054688 -56.363281 C 31.195312 -58.136719 34.207031 -55.476562 39.347656 -54.769531 L 43.070312 -51.402344 Z M 43.070312 -17.902344 "/></g></g></g><g fill="#100f0d" fill-opacity="0.502"><g transform="translate(567.041783, 623.618341)"><g><path d="M 43.070312 -116.804688 L 43.070312 -70.542969 C 41.832031 -71.078125 40.589844 -71.609375 39.347656 -72.316406 C 31.550781 -75.507812 25.699219 -76.394531 18.078125 -72.847656 C 11.167969 -69.660156 8.683594 -64.695312 6.914062 -57.429688 C 3.722656 -44.667969 4.429688 -36.511719 5.847656 -23.398438 C 6.734375 -15.773438 6.914062 -10.101562 12.761719 -5.316406 C 18.433594 -0.710938 24.28125 -0.886719 31.371094 -2.660156 C 35.804688 -3.546875 39.527344 -4.785156 43.070312 -6.558594 L 43.070312 0 L 67.53125 0 L 67.53125 -116.804688 Z M 43.070312 -17.902344 C 42.714844 -17.726562 42.363281 -17.546875 42.007812 -17.546875 C 37.042969 -15.421875 33.855469 -15.066406 28.714844 -15.953125 C 24.460938 -16.660156 21.09375 -17.546875 18.609375 -21.269531 C 15.066406 -26.585938 15.242188 -30.839844 14.890625 -37.222656 C 14.710938 -41.121094 15.066406 -43.425781 17.015625 -46.792969 C 19.675781 -51.222656 21.269531 -54.59375 26.054688 -56.363281 C 31.195312 -58.136719 34.207031 -55.476562 39.347656 -54.769531 L 43.070312 -51.402344 Z M 43.070312 -17.902344 "/></g></g></g><g fill="#100f0d" fill-opacity="0.502"><g transform="translate(641.662385, 623.618341)"><g><path d="M 21.269531 -39.527344 C 21.269531 -48.921875 28.890625 -56.542969 38.285156 -56.542969 C 47.679688 -56.542969 55.300781 -48.921875 55.300781 -39.527344 C 55.300781 -30.132812 47.679688 -22.511719 38.285156 -22.511719 C 28.890625 -22.511719 21.269531 -30.132812 21.269531 -39.527344 Z M 3.191406 -39.527344 C 3.191406 -18.964844 18.433594 -2.304688 37.222656 -2.304688 C 56.011719 -2.304688 71.253906 -18.964844 71.253906 -39.527344 C 71.253906 -60.085938 56.011719 -76.75 37.222656 -76.75 C 18.433594 -76.75 3.191406 -60.085938 3.191406 -39.527344 Z M 3.191406 -39.527344 "/></g></g></g><g fill="#b55990" fill-opacity="1"><g transform="translate(101.027343, 615.785029)"><g><path d="M 78.519531 -80.46875 L 74.265625 -80.46875 L 61.503906 -79.9375 C 61.328125 -85.964844 62.746094 -90.042969 59.910156 -95.359375 C 58.136719 -98.902344 54.414062 -99.613281 50.339844 -99.613281 C 46.261719 -99.613281 34.207031 -99.257812 31.371094 -96.246094 C 27.828125 -92.347656 26.234375 -89.6875 25.523438 -84.546875 C 23.75 -71.078125 24.816406 -63.453125 24.992188 -49.984375 C 25.167969 -42.183594 23.21875 -36.867188 26.585938 -29.777344 C 28.714844 -25.167969 42.007812 -22.332031 47.148438 -21.980469 C 51.757812 -21.625 55.125 -23.574219 57.78125 -27.296875 C 60.972656 -31.90625 59.378906 -35.804688 60.441406 -41.121094 L 79.050781 -41.652344 C 78.875 -35.273438 80.117188 -31.371094 78.519531 -25.167969 C 77.101562 -18.964844 75.683594 -15.597656 71.609375 -10.8125 C 67.886719 -6.382812 65.050781 -3.898438 59.378906 -2.835938 C 48.035156 -0.886719 31.371094 0 20.738281 -4.253906 C 13.648438 -7.089844 10.988281 -12.761719 9.039062 -20.207031 C 5.316406 -35.449219 7.089844 -44.132812 6.914062 -59.554688 C 6.734375 -76.925781 6.203125 -86.851562 8.507812 -104.222656 C 9.21875 -109.539062 11.699219 -113.082031 16.308594 -116.273438 C 23.574219 -121.414062 37.398438 -122.125 46.617188 -123.007812 C 54.058594 -123.71875 59.378906 -124.25 66.289062 -120.882812 C 73.558594 -117.335938 74.445312 -113.4375 77.457031 -105.992188 C 81.179688 -96.777344 78.167969 -90.394531 78.519531 -80.46875 Z M 78.519531 -80.46875 "/></g></g></g><g fill="#b55990" fill-opacity="1"><g transform="translate(186.105463, 615.785029)"><g><path d="M 5.847656 -23.398438 L 5.847656 -75.332031 L 20.027344 -75.332031 L 20.027344 -23.574219 C 22.511719 -19.851562 24.460938 -16.660156 28.714844 -15.953125 C 33.855469 -15.066406 36.867188 -15.421875 42.007812 -17.546875 C 42.363281 -17.546875 43.070312 -17.726562 43.070312 -17.902344 L 43.070312 -76.039062 L 67.53125 -76.039062 L 67.53125 0 L 43.070312 0 L 43.070312 -6.558594 C 39.527344 -4.785156 35.804688 -3.546875 31.371094 -2.660156 C 24.28125 -0.886719 18.433594 -0.710938 12.761719 -5.316406 C 6.914062 -10.101562 6.734375 -15.773438 5.847656 -23.398438 Z M 5.847656 -23.398438 "/></g></g></g><g fill="#b55990" fill-opacity="1"><g transform="translate(260.726065, 615.785029)"><g><path d="M 43.070312 -76.039062 L 43.070312 -70.542969 C 41.832031 -71.078125 40.589844 -71.609375 39.347656 -72.316406 C 31.550781 -75.507812 25.699219 -76.394531 18.078125 -72.847656 C 11.167969 -69.660156 8.683594 -64.695312 6.914062 -57.429688 C 3.722656 -44.667969 4.429688 -36.511719 5.847656 -23.398438 C 6.734375 -15.773438 6.914062 -10.101562 12.761719 -5.316406 C 18.433594 -0.710938 24.28125 -0.886719 31.371094 -2.660156 C 35.804688 -3.546875 39.527344 -4.785156 43.070312 -6.558594 L 43.070312 0 L 67.53125 0 L 67.53125 -76.039062 Z M 43.070312 -17.902344 C 42.714844 -17.726562 42.363281 -17.546875 42.007812 -17.546875 C 37.042969 -15.421875 33.855469 -15.066406 28.714844 -15.953125 C 24.460938 -16.660156 21.09375 -17.546875 18.609375 -21.269531 C 15.066406 -26.585938 15.242188 -30.839844 14.890625 -37.222656 C 14.710938 -41.121094 15.066406 -43.425781 17.015625 -46.792969 C 19.675781 -51.222656 21.269531 -54.59375 26.054688 -56.363281 C 31.195312 -58.136719 34.207031 -55.476562 39.347656 -54.769531 L 43.070312 -51.402344 Z M 43.070312 -17.902344 "/></g></g></g><g fill="#b55990" fill-opacity="1"><g transform="translate(335.346667, 615.785029)"><g><path d="M 43.070312 -116.804688 L 43.070312 -70.542969 C 41.832031 -71.078125 40.589844 -71.609375 39.347656 -72.316406 C 31.550781 -75.507812 25.699219 -76.394531 18.078125 -72.847656 C 11.167969 -69.660156 8.683594 -64.695312 6.914062 -57.429688 C 3.722656 -44.667969 4.429688 -36.511719 5.847656 -23.398438 C 6.734375 -15.773438 6.914062 -10.101562 12.761719 -5.316406 C 18.433594 -0.710938 24.28125 -0.886719 31.371094 -2.660156 C 35.804688 -3.546875 39.527344 -4.785156 43.070312 -6.558594 L 43.070312 0 L 67.53125 0 L 67.53125 -116.804688 Z M 43.070312 -17.902344 C 42.714844 -17.726562 42.363281 -17.546875 42.007812 -17.546875 C 37.042969 -15.421875 33.855469 -15.066406 28.714844 -15.953125 C 24.460938 -16.660156 21.09375 -17.546875 18.609375 -21.269531 C 15.066406 -26.585938 15.242188 -30.839844 14.890625 -37.222656 C 14.710938 -41.121094 15.066406 -43.425781 17.015625 -46.792969 C 19.675781 -51.222656 21.269531 -54.59375 26.054688 -56.363281 C 31.195312 -58.136719 34.207031 -55.476562 39.347656 -54.769531 L 43.070312 -51.402344 Z M 43.070312 -17.902344 "/></g></g></g><g fill="#b55990" fill-opacity="1"><g transform="translate(409.967269, 615.785029)"><g><path d="M 67.53125 -52.640625 L 53.351562 -52.464844 C 50.871094 -56.1875 48.742188 -59.199219 44.667969 -60.085938 C 39.527344 -60.972656 36.335938 -60.441406 31.371094 -58.492188 C 30.839844 -58.3125 30.308594 -58.3125 30.308594 -57.960938 L 30.308594 0 L 5.847656 0 L 5.847656 -76.039062 L 30.308594 -76.039062 L 30.308594 -69.304688 C 33.675781 -71.078125 37.398438 -72.316406 42.007812 -73.378906 C 49.097656 -75.152344 54.945312 -75.332031 60.617188 -70.722656 C 66.46875 -65.9375 66.644531 -60.265625 67.53125 -52.640625 Z M 67.53125 -52.640625 "/></g></g></g><g fill="#b55990" fill-opacity="1"><g transform="translate(484.587871, 615.785029)"><g><path d="M 43.070312 -76.039062 L 43.070312 -70.542969 C 41.832031 -71.078125 40.589844 -71.609375 39.347656 -72.316406 C 31.550781 -75.507812 25.699219 -76.394531 18.078125 -72.847656 C 11.167969 -69.660156 8.683594 -64.695312 6.914062 -57.429688 C 3.722656 -44.667969 4.429688 -36.511719 5.847656 -23.398438 C 6.734375 -15.773438 6.914062 -10.101562 12.761719 -5.316406 C 18.433594 -0.710938 24.28125 -0.886719 31.371094 -2.660156 C 35.804688 -3.546875 39.527344 -4.785156 43.070312 -6.558594 L 43.070312 0 L 67.53125 0 L 67.53125 -76.039062 Z M 43.070312 -17.902344 C 42.714844 -17.726562 42.363281 -17.546875 42.007812 -17.546875 C 37.042969 -15.421875 33.855469 -15.066406 28.714844 -15.953125 C 24.460938 -16.660156 21.09375 -17.546875 18.609375 -21.269531 C 15.066406 -26.585938 15.242188 -30.839844 14.890625 -37.222656 C 14.710938 -41.121094 15.066406 -43.425781 17.015625 -46.792969 C 19.675781 -51.222656 21.269531 -54.59375 26.054688 -56.363281 C 31.195312 -58.136719 34.207031 -55.476562 39.347656 -54.769531 L 43.070312 -51.402344 Z M 43.070312 -17.902344 "/></g></g></g><g fill="#b55990" fill-opacity="1"><g transform="translate(559.208473, 615.785029)"><g><path d="M 43.070312 -116.804688 L 43.070312 -70.542969 C 41.832031 -71.078125 40.589844 -71.609375 39.347656 -72.316406 C 31.550781 -75.507812 25.699219 -76.394531 18.078125 -72.847656 C 11.167969 -69.660156 8.683594 -64.695312 6.914062 -57.429688 C 3.722656 -44.667969 4.429688 -36.511719 5.847656 -23.398438 C 6.734375 -15.773438 6.914062 -10.101562 12.761719 -5.316406 C 18.433594 -0.710938 24.28125 -0.886719 31.371094 -2.660156 C 35.804688 -3.546875 39.527344 -4.785156 43.070312 -6.558594 L 43.070312 0 L 67.53125 0 L 67.53125 -116.804688 Z M 43.070312 -17.902344 C 42.714844 -17.726562 42.363281 -17.546875 42.007812 -17.546875 C 37.042969 -15.421875 33.855469 -15.066406 28.714844 -15.953125 C 24.460938 -16.660156 21.09375 -17.546875 18.609375 -21.269531 C 15.066406 -26.585938 15.242188 -30.839844 14.890625 -37.222656 C 14.710938 -41.121094 15.066406 -43.425781 17.015625 -46.792969 C 19.675781 -51.222656 21.269531 -54.59375 26.054688 -56.363281 C 31.195312 -58.136719 34.207031 -55.476562 39.347656 -54.769531 L 43.070312 -51.402344 Z M 43.070312 -17.902344 "/></g></g></g><g fill="#b55990" fill-opacity="1"><g transform="translate(633.829075, 615.785029)"><g><path d="M 21.269531 -39.527344 C 21.269531 -48.921875 28.890625 -56.542969 38.285156 -56.542969 C 47.679688 -56.542969 55.300781 -48.921875 55.300781 -39.527344 C 55.300781 -30.132812 47.679688 -22.511719 38.285156 -22.511719 C 28.890625 -22.511719 21.269531 -30.132812 21.269531 -39.527344 Z M 3.191406 -39.527344 C 3.191406 -18.964844 18.433594 -2.304688 37.222656 -2.304688 C 56.011719 -2.304688 71.253906 -18.964844 71.253906 -39.527344 C 71.253906 -60.085938 56.011719 -76.75 37.222656 -76.75 C 18.433594 -76.75 3.191406 -60.085938 3.191406 -39.527344 Z M 3.191406 -39.527344 "/></g></g></g></svg>