<svg xmlns="http://www.w3.org/2000/svg" xmlns:xlink="http://www.w3.org/1999/xlink" width="1080" zoomAndPan="magnify" viewBox="0 0 810 809.999993" height="1080" preserveAspectRatio="xMidYMid meet" version="1.0"><defs><g/><clipPath id="id1"><path d="M 183.117188 96.757812 L 627.117188 96.757812 L 627.117188 519.757812 L 183.117188 519.757812 Z M 183.117188 96.757812 " clip-rule="nonzero"/></clipPath><clipPath id="id2"><path d="M 183.117188 96.757812 L 627.117188 96.757812 L 627.117188 519.757812 L 183.117188 519.757812 Z M 183.117188 96.757812 " clip-rule="nonzero"/></clipPath><clipPath id="id3"><path d="M 405.117188 96.757812 L 457.523438 258.332031 L 627.117188 258.332031 L 489.914062 358.1875 L 542.320312 519.757812 L 405.117188 419.902344 L 267.914062 519.757812 L 320.320312 358.1875 L 183.117188 258.332031 L 352.710938 258.332031 L 405.117188 96.757812 " clip-rule="nonzero"/></clipPath><clipPath id="id4"><path d="M 320.121094 282.140625 L 489.621094 282.140625 L 489.621094 334.640625 L 320.121094 334.640625 Z M 320.121094 282.140625 " clip-rule="nonzero"/></clipPath></defs><rect x="-81" width="972" fill="#ffffff" y="-80.999999" height="971.999992" fill-opacity="1"/><rect x="-81" width="972" fill="#ffffff" y="-80.999999" height="971.999992" fill-opacity="1"/><rect x="-81" width="972" fill="#ffffff" y="-80.999999" height="971.999992" fill-opacity="1"/><g clip-path="url(#id1)"><path fill="#ffcc00" d="M 405.117188 96.757812 L 457.523438 258.332031 L 627.117188 258.332031 L 489.914062 358.1875 L 542.320312 519.757812 L 405.117188 419.902344 L 267.914062 519.757812 L 320.320312 358.1875 L 183.117188 258.332031 L 352.710938 258.332031 L 405.117188 96.757812 " fill-opacity="1" fill-rule="nonzero"/></g><g clip-path="url(#id2)"><g clip-path="url(#id3)"><path stroke-linecap="butt" transform="matrix(0.750416, 0, 0, 0.750083, 183.117681, 96.759486)" fill="none" stroke-linejoin="miter" d="M 295.835289 -0.00223046 L 365.671562 215.406174 L 591.671236 215.406174 L 408.835126 348.532036 L 478.671399 563.935232 L 295.835289 430.80937 L 112.99918 563.935232 L 182.835453 348.532036 L -0.000657219 215.406174 L 225.999017 215.406174 L 295.835289 -0.00223046 " stroke="#000000" stroke-width="30" stroke-opacity="1" stroke-miterlimit="4"/></g></g><g clip-path="url(#id4)"><path fill="#000000" d="M 489.421875 308.390625 C 489.421875 322.894531 477.761719 334.640625 463.363281 334.640625 C 448.964844 334.640625 437.304688 322.894531 437.304688 308.390625 C 437.304688 293.886719 448.964844 282.140625 463.363281 282.140625 C 477.761719 282.140625 489.421875 293.886719 489.421875 308.390625 Z M 346.378906 282.140625 C 331.980469 282.140625 320.320312 293.886719 320.320312 308.390625 C 320.320312 322.894531 331.980469 334.640625 346.378906 334.640625 C 360.777344 334.640625 372.441406 322.894531 372.441406 308.390625 C 372.441406 293.886719 360.777344 282.140625 346.378906 282.140625 Z M 346.378906 282.140625 " fill-opacity="1" fill-rule="nonzero"/></g><path fill="#ffffff" d="M 463.996094 303.90625 C 463.996094 309.5625 459.441406 314.152344 453.824219 314.152344 C 448.210938 314.152344 443.65625 309.5625 443.65625 303.90625 C 443.65625 298.25 448.210938 293.660156 453.824219 293.660156 C 459.441406 293.660156 463.996094 298.25 463.996094 303.90625 Z M 476.699219 315.449219 C 474.597656 315.449219 472.878906 317.175781 472.878906 319.292969 C 472.878906 321.414062 474.597656 323.140625 476.699219 323.140625 C 478.804688 323.140625 480.519531 321.414062 480.519531 319.292969 C 480.519531 317.15625 478.824219 315.449219 476.699219 315.449219 Z M 355.917969 293.660156 C 350.300781 293.660156 345.746094 298.25 345.746094 303.90625 C 345.746094 309.5625 350.300781 314.152344 355.917969 314.152344 C 361.535156 314.152344 366.089844 309.5625 366.089844 303.90625 C 366.089844 298.25 361.535156 293.660156 355.917969 293.660156 Z M 333.042969 315.449219 C 330.941406 315.449219 329.226562 317.175781 329.226562 319.292969 C 329.226562 321.414062 330.941406 323.140625 333.042969 323.140625 C 335.148438 323.140625 336.863281 321.414062 336.863281 319.292969 C 336.84375 317.15625 335.148438 315.449219 333.042969 315.449219 Z M 333.042969 315.449219 " fill-opacity="1" fill-rule="nonzero"/><g fill="#100f0d" fill-opacity="0.302"><g transform="translate(154.891226, 676.132546)"><g><path d="M 76.570312 -124.429688 L 77.101562 -104.222656 L 21.800781 -105.285156 L 21.800781 -69.660156 L 49.453125 -70.191406 L 48.921875 -52.109375 L 21.800781 -51.578125 L 21.800781 -21.269531 L 74.976562 -22.332031 L 74.445312 0 L 6.914062 0 L 6.914062 -123.894531 Z M 76.570312 -124.429688 "/></g></g></g><g fill="#100f0d" fill-opacity="0.302"><g transform="translate(239.083116, 676.132546)"><g><path d="M 40.945312 -14.890625 C 38.109375 -12.761719 35.449219 -12.40625 31.90625 -12.761719 C 29.070312 -13.117188 27.652344 -14.355469 26.054688 -16.484375 C 24.460938 -18.789062 24.28125 -20.5625 23.929688 -23.398438 C 23.574219 -26.054688 24.460938 -30.308594 24.460938 -30.308594 L 4.253906 -31.371094 C 4.609375 -24.460938 1.59375 -19.851562 5.316406 -13.824219 C 9.925781 -6.203125 15.242188 -2.835938 23.398438 0 C 31.195312 2.835938 36.691406 2.660156 44.667969 0 C 51.578125 -2.304688 54.769531 -6.203125 59.023438 -12.230469 C 62.746094 -17.371094 64.519531 -21.269531 64.339844 -27.652344 C 64.164062 -34.03125 61.503906 -38.996094 56.542969 -43.070312 C 49.453125 -48.921875 42.183594 -46.96875 34.207031 -51.046875 C 29.953125 -53.175781 23.398438 -54.238281 22.15625 -58.847656 C 20.914062 -62.746094 21.269531 -65.226562 23.574219 -68.773438 C 24.636719 -70.542969 26.410156 -71.785156 28.890625 -72.496094 C 30.664062 -73.027344 28.890625 -72.496094 34.5625 -74.265625 C 38.109375 -75.332031 42.363281 -71.960938 45.199219 -69.480469 C 48.210938 -66.644531 45.90625 -60.265625 46.96875 -56.363281 L 62.390625 -55.832031 C 62.035156 -62.921875 64.871094 -67.886719 61.328125 -73.914062 C 56.363281 -82.421875 51.402344 -87.027344 42.183594 -90.394531 C 34.03125 -93.410156 24.636719 -93.585938 17.191406 -89.332031 C 9.925781 -85.078125 7.976562 -78.875 6.027344 -70.722656 C 3.898438 -61.683594 4.429688 -63.808594 7.621094 -54.769531 C 9.75 -48.210938 16.308594 -45.730469 21.980469 -42.007812 C 28.535156 -37.753906 34.742188 -39.703125 40.589844 -34.5625 C 43.957031 -31.550781 46.085938 -28.003906 45.730469 -23.398438 C 45.375 -19.675781 43.957031 -17.191406 40.945312 -14.890625 Z M 40.945312 -14.890625 "/></g></g></g><g fill="#100f0d" fill-opacity="0.302"><g transform="translate(307.854598, 676.132546)"><g><path d="M 16.484375 -106.878906 L 16.484375 -82.421875 L 4.785156 -82.421875 L 4.785156 -59.554688 L 16.484375 -59.554688 L 16.484375 0 L 40.414062 0 L 40.414062 -59.554688 L 53.175781 -59.554688 L 53.175781 -82.421875 L 40.414062 -82.421875 L 40.414062 -106.878906 Z M 16.484375 -106.878906 "/></g></g></g><g fill="#100f0d" fill-opacity="0.302"><g transform="translate(369.181743, 676.132546)"><g><path d="M 67.53125 -52.640625 L 53.351562 -52.464844 C 50.871094 -56.1875 48.742188 -59.199219 44.667969 -60.085938 C 39.527344 -60.972656 36.335938 -60.441406 31.371094 -58.492188 C 30.839844 -58.3125 30.308594 -58.3125 30.308594 -57.960938 L 30.308594 0 L 5.847656 0 L 5.847656 -76.039062 L 30.308594 -76.039062 L 30.308594 -69.304688 C 33.675781 -71.078125 37.398438 -72.316406 42.007812 -73.378906 C 49.097656 -75.152344 54.945312 -75.332031 60.617188 -70.722656 C 66.46875 -65.9375 66.644531 -60.265625 67.53125 -52.640625 Z M 67.53125 -52.640625 "/></g></g></g><g fill="#100f0d" fill-opacity="0.302"><g transform="translate(443.802345, 676.132546)"><g><path d="M 17.191406 -55.300781 L 56.1875 -56.363281 C 55.300781 -60.265625 56.894531 -63.632812 54.058594 -66.46875 C 49.628906 -70.898438 45.90625 -72.847656 39.703125 -73.378906 C 31.726562 -73.914062 28.890625 -74.796875 23.21875 -69.125 C 19.144531 -65.050781 17.726562 -60.441406 17.191406 -55.300781 Z M 15.953125 -41.832031 C 15.597656 -33.144531 13.824219 -36.160156 17.902344 -27.828125 C 20.738281 -21.800781 28.535156 -19.675781 35.273438 -19.144531 C 47.503906 -17.902344 42.894531 -19.144531 54.945312 -23.398438 L 61.859375 -30.839844 L 75.152344 -22.332031 C 67.53125 -16.308594 67.707031 -9.570312 58.667969 -5.847656 C 48.386719 -1.59375 46.4375 -0.53125 35.273438 -1.59375 C 24.816406 -2.480469 16.308594 -2.835938 9.75 -11.167969 C 1.59375 -21.269531 3.898438 -21.625 3.011719 -34.5625 C 1.949219 -48.921875 1.242188 -57.429688 5.140625 -71.253906 C 7.621094 -79.9375 10.457031 -85.964844 18.433594 -90.394531 C 26.941406 -95.003906 34.207031 -94.648438 43.957031 -92.523438 C 54.945312 -90.21875 62.390625 -87.914062 69.480469 -79.230469 C 75.507812 -71.609375 72.316406 -64.339844 74.265625 -54.769531 L 74.265625 -40.945312 Z M 15.953125 -41.832031 "/></g></g></g><g fill="#100f0d" fill-opacity="0.302"><g transform="translate(525.335544, 676.132546)"><g><path d="M 7.445312 -125.492188 L 7.445312 0 L 34.03125 0 L 34.03125 -125.492188 Z M 7.445312 -125.492188 "/></g></g></g><g fill="#100f0d" fill-opacity="0.302"><g transform="translate(568.583589, 676.132546)"><g><path d="M 7.445312 -125.492188 L 7.445312 0 L 34.03125 0 L 34.03125 -125.492188 Z M 7.445312 -125.492188 "/></g></g></g><g fill="#100f0d" fill-opacity="0.302"><g transform="translate(611.831634, 676.132546)"><g><path d="M 43.070312 -76.039062 L 43.070312 -70.542969 C 41.832031 -71.078125 40.589844 -71.609375 39.347656 -72.316406 C 31.550781 -75.507812 25.699219 -76.394531 18.078125 -72.847656 C 11.167969 -69.660156 8.683594 -64.695312 6.914062 -57.429688 C 3.722656 -44.667969 4.429688 -36.511719 5.847656 -23.398438 C 6.734375 -15.773438 6.914062 -10.101562 12.761719 -5.316406 C 18.433594 -0.710938 24.28125 -0.886719 31.371094 -2.660156 C 35.804688 -3.546875 39.527344 -4.785156 43.070312 -6.558594 L 43.070312 0 L 67.53125 0 L 67.53125 -76.039062 Z M 43.070312 -17.902344 C 42.714844 -17.726562 42.363281 -17.546875 42.007812 -17.546875 C 37.042969 -15.421875 33.855469 -15.066406 28.714844 -15.953125 C 24.460938 -16.660156 21.09375 -17.546875 18.609375 -21.269531 C 15.066406 -26.585938 15.242188 -30.839844 14.890625 -37.222656 C 14.710938 -41.121094 15.066406 -43.425781 17.015625 -46.792969 C 19.675781 -51.222656 21.269531 -54.59375 26.054688 -56.363281 C 31.195312 -58.136719 34.207031 -55.476562 39.347656 -54.769531 L 43.070312 -51.402344 Z M 43.070312 -17.902344 "/></g></g></g><g fill="#100f0d" fill-opacity="0.502"><g transform="translate(147.057915, 668.299234)"><g><path d="M 76.570312 -124.429688 L 77.101562 -104.222656 L 21.800781 -105.285156 L 21.800781 -69.660156 L 49.453125 -70.191406 L 48.921875 -52.109375 L 21.800781 -51.578125 L 21.800781 -21.269531 L 74.976562 -22.332031 L 74.445312 0 L 6.914062 0 L 6.914062 -123.894531 Z M 76.570312 -124.429688 "/></g></g></g><g fill="#100f0d" fill-opacity="0.502"><g transform="translate(231.249805, 668.299234)"><g><path d="M 40.945312 -14.890625 C 38.109375 -12.761719 35.449219 -12.40625 31.90625 -12.761719 C 29.070312 -13.117188 27.652344 -14.355469 26.054688 -16.484375 C 24.460938 -18.789062 24.28125 -20.5625 23.929688 -23.398438 C 23.574219 -26.054688 24.460938 -30.308594 24.460938 -30.308594 L 4.253906 -31.371094 C 4.609375 -24.460938 1.59375 -19.851562 5.316406 -13.824219 C 9.925781 -6.203125 15.242188 -2.835938 23.398438 0 C 31.195312 2.835938 36.691406 2.660156 44.667969 0 C 51.578125 -2.304688 54.769531 -6.203125 59.023438 -12.230469 C 62.746094 -17.371094 64.519531 -21.269531 64.339844 -27.652344 C 64.164062 -34.03125 61.503906 -38.996094 56.542969 -43.070312 C 49.453125 -48.921875 42.183594 -46.96875 34.207031 -51.046875 C 29.953125 -53.175781 23.398438 -54.238281 22.15625 -58.847656 C 20.914062 -62.746094 21.269531 -65.226562 23.574219 -68.773438 C 24.636719 -70.542969 26.410156 -71.785156 28.890625 -72.496094 C 30.664062 -73.027344 28.890625 -72.496094 34.5625 -74.265625 C 38.109375 -75.332031 42.363281 -71.960938 45.199219 -69.480469 C 48.210938 -66.644531 45.90625 -60.265625 46.96875 -56.363281 L 62.390625 -55.832031 C 62.035156 -62.921875 64.871094 -67.886719 61.328125 -73.914062 C 56.363281 -82.421875 51.402344 -87.027344 42.183594 -90.394531 C 34.03125 -93.410156 24.636719 -93.585938 17.191406 -89.332031 C 9.925781 -85.078125 7.976562 -78.875 6.027344 -70.722656 C 3.898438 -61.683594 4.429688 -63.808594 7.621094 -54.769531 C 9.75 -48.210938 16.308594 -45.730469 21.980469 -42.007812 C 28.535156 -37.753906 34.742188 -39.703125 40.589844 -34.5625 C 43.957031 -31.550781 46.085938 -28.003906 45.730469 -23.398438 C 45.375 -19.675781 43.957031 -17.191406 40.945312 -14.890625 Z M 40.945312 -14.890625 "/></g></g></g><g fill="#100f0d" fill-opacity="0.502"><g transform="translate(300.021286, 668.299234)"><g><path d="M 16.484375 -106.878906 L 16.484375 -82.421875 L 4.785156 -82.421875 L 4.785156 -59.554688 L 16.484375 -59.554688 L 16.484375 0 L 40.414062 0 L 40.414062 -59.554688 L 53.175781 -59.554688 L 53.175781 -82.421875 L 40.414062 -82.421875 L 40.414062 -106.878906 Z M 16.484375 -106.878906 "/></g></g></g><g fill="#100f0d" fill-opacity="0.502"><g transform="translate(361.348431, 668.299234)"><g><path d="M 67.53125 -52.640625 L 53.351562 -52.464844 C 50.871094 -56.1875 48.742188 -59.199219 44.667969 -60.085938 C 39.527344 -60.972656 36.335938 -60.441406 31.371094 -58.492188 C 30.839844 -58.3125 30.308594 -58.3125 30.308594 -57.960938 L 30.308594 0 L 5.847656 0 L 5.847656 -76.039062 L 30.308594 -76.039062 L 30.308594 -69.304688 C 33.675781 -71.078125 37.398438 -72.316406 42.007812 -73.378906 C 49.097656 -75.152344 54.945312 -75.332031 60.617188 -70.722656 C 66.46875 -65.9375 66.644531 -60.265625 67.53125 -52.640625 Z M 67.53125 -52.640625 "/></g></g></g><g fill="#100f0d" fill-opacity="0.502"><g transform="translate(435.969033, 668.299234)"><g><path d="M 17.191406 -55.300781 L 56.1875 -56.363281 C 55.300781 -60.265625 56.894531 -63.632812 54.058594 -66.46875 C 49.628906 -70.898438 45.90625 -72.847656 39.703125 -73.378906 C 31.726562 -73.914062 28.890625 -74.796875 23.21875 -69.125 C 19.144531 -65.050781 17.726562 -60.441406 17.191406 -55.300781 Z M 15.953125 -41.832031 C 15.597656 -33.144531 13.824219 -36.160156 17.902344 -27.828125 C 20.738281 -21.800781 28.535156 -19.675781 35.273438 -19.144531 C 47.503906 -17.902344 42.894531 -19.144531 54.945312 -23.398438 L 61.859375 -30.839844 L 75.152344 -22.332031 C 67.53125 -16.308594 67.707031 -9.570312 58.667969 -5.847656 C 48.386719 -1.59375 46.4375 -0.53125 35.273438 -1.59375 C 24.816406 -2.480469 16.308594 -2.835938 9.75 -11.167969 C 1.59375 -21.269531 3.898438 -21.625 3.011719 -34.5625 C 1.949219 -48.921875 1.242188 -57.429688 5.140625 -71.253906 C 7.621094 -79.9375 10.457031 -85.964844 18.433594 -90.394531 C 26.941406 -95.003906 34.207031 -94.648438 43.957031 -92.523438 C 54.945312 -90.21875 62.390625 -87.914062 69.480469 -79.230469 C 75.507812 -71.609375 72.316406 -64.339844 74.265625 -54.769531 L 74.265625 -40.945312 Z M 15.953125 -41.832031 "/></g></g></g><g fill="#100f0d" fill-opacity="0.502"><g transform="translate(517.502233, 668.299234)"><g><path d="M 7.445312 -125.492188 L 7.445312 0 L 34.03125 0 L 34.03125 -125.492188 Z M 7.445312 -125.492188 "/></g></g></g><g fill="#100f0d" fill-opacity="0.502"><g transform="translate(560.750278, 668.299234)"><g><path d="M 7.445312 -125.492188 L 7.445312 0 L 34.03125 0 L 34.03125 -125.492188 Z M 7.445312 -125.492188 "/></g></g></g><g fill="#100f0d" fill-opacity="0.502"><g transform="translate(603.998323, 668.299234)"><g><path d="M 43.070312 -76.039062 L 43.070312 -70.542969 C 41.832031 -71.078125 40.589844 -71.609375 39.347656 -72.316406 C 31.550781 -75.507812 25.699219 -76.394531 18.078125 -72.847656 C 11.167969 -69.660156 8.683594 -64.695312 6.914062 -57.429688 C 3.722656 -44.667969 4.429688 -36.511719 5.847656 -23.398438 C 6.734375 -15.773438 6.914062 -10.101562 12.761719 -5.316406 C 18.433594 -0.710938 24.28125 -0.886719 31.371094 -2.660156 C 35.804688 -3.546875 39.527344 -4.785156 43.070312 -6.558594 L 43.070312 0 L 67.53125 0 L 67.53125 -76.039062 Z M 43.070312 -17.902344 C 42.714844 -17.726562 42.363281 -17.546875 42.007812 -17.546875 C 37.042969 -15.421875 33.855469 -15.066406 28.714844 -15.953125 C 24.460938 -16.660156 21.09375 -17.546875 18.609375 -21.269531 C 15.066406 -26.585938 15.242188 -30.839844 14.890625 -37.222656 C 14.710938 -41.121094 15.066406 -43.425781 17.015625 -46.792969 C 19.675781 -51.222656 21.269531 -54.59375 26.054688 -56.363281 C 31.195312 -58.136719 34.207031 -55.476562 39.347656 -54.769531 L 43.070312 -51.402344 Z M 43.070312 -17.902344 "/></g></g></g><g fill="#ffcc00" fill-opacity="1"><g transform="translate(139.224606, 660.465923)"><g><path d="M 76.570312 -124.429688 L 77.101562 -104.222656 L 21.800781 -105.285156 L 21.800781 -69.660156 L 49.453125 -70.191406 L 48.921875 -52.109375 L 21.800781 -51.578125 L 21.800781 -21.269531 L 74.976562 -22.332031 L 74.445312 0 L 6.914062 0 L 6.914062 -123.894531 Z M 76.570312 -124.429688 "/></g></g></g><g fill="#ffcc00" fill-opacity="1"><g transform="translate(223.416496, 660.465923)"><g><path d="M 40.945312 -14.890625 C 38.109375 -12.761719 35.449219 -12.40625 31.90625 -12.761719 C 29.070312 -13.117188 27.652344 -14.355469 26.054688 -16.484375 C 24.460938 -18.789062 24.28125 -20.5625 23.929688 -23.398438 C 23.574219 -26.054688 24.460938 -30.308594 24.460938 -30.308594 L 4.253906 -31.371094 C 4.609375 -24.460938 1.59375 -19.851562 5.316406 -13.824219 C 9.925781 -6.203125 15.242188 -2.835938 23.398438 0 C 31.195312 2.835938 36.691406 2.660156 44.667969 0 C 51.578125 -2.304688 54.769531 -6.203125 59.023438 -12.230469 C 62.746094 -17.371094 64.519531 -21.269531 64.339844 -27.652344 C 64.164062 -34.03125 61.503906 -38.996094 56.542969 -43.070312 C 49.453125 -48.921875 42.183594 -46.96875 34.207031 -51.046875 C 29.953125 -53.175781 23.398438 -54.238281 22.15625 -58.847656 C 20.914062 -62.746094 21.269531 -65.226562 23.574219 -68.773438 C 24.636719 -70.542969 26.410156 -71.785156 28.890625 -72.496094 C 30.664062 -73.027344 28.890625 -72.496094 34.5625 -74.265625 C 38.109375 -75.332031 42.363281 -71.960938 45.199219 -69.480469 C 48.210938 -66.644531 45.90625 -60.265625 46.96875 -56.363281 L 62.390625 -55.832031 C 62.035156 -62.921875 64.871094 -67.886719 61.328125 -73.914062 C 56.363281 -82.421875 51.402344 -87.027344 42.183594 -90.394531 C 34.03125 -93.410156 24.636719 -93.585938 17.191406 -89.332031 C 9.925781 -85.078125 7.976562 -78.875 6.027344 -70.722656 C 3.898438 -61.683594 4.429688 -63.808594 7.621094 -54.769531 C 9.75 -48.210938 16.308594 -45.730469 21.980469 -42.007812 C 28.535156 -37.753906 34.742188 -39.703125 40.589844 -34.5625 C 43.957031 -31.550781 46.085938 -28.003906 45.730469 -23.398438 C 45.375 -19.675781 43.957031 -17.191406 40.945312 -14.890625 Z M 40.945312 -14.890625 "/></g></g></g><g fill="#ffcc00" fill-opacity="1"><g transform="translate(292.187977, 660.465923)"><g><path d="M 16.484375 -106.878906 L 16.484375 -82.421875 L 4.785156 -82.421875 L 4.785156 -59.554688 L 16.484375 -59.554688 L 16.484375 0 L 40.414062 0 L 40.414062 -59.554688 L 53.175781 -59.554688 L 53.175781 -82.421875 L 40.414062 -82.421875 L 40.414062 -106.878906 Z M 16.484375 -106.878906 "/></g></g></g><g fill="#ffcc00" fill-opacity="1"><g transform="translate(353.515122, 660.465923)"><g><path d="M 67.53125 -52.640625 L 53.351562 -52.464844 C 50.871094 -56.1875 48.742188 -59.199219 44.667969 -60.085938 C 39.527344 -60.972656 36.335938 -60.441406 31.371094 -58.492188 C 30.839844 -58.3125 30.308594 -58.3125 30.308594 -57.960938 L 30.308594 0 L 5.847656 0 L 5.847656 -76.039062 L 30.308594 -76.039062 L 30.308594 -69.304688 C 33.675781 -71.078125 37.398438 -72.316406 42.007812 -73.378906 C 49.097656 -75.152344 54.945312 -75.332031 60.617188 -70.722656 C 66.46875 -65.9375 66.644531 -60.265625 67.53125 -52.640625 Z M 67.53125 -52.640625 "/></g></g></g><g fill="#ffcc00" fill-opacity="1"><g transform="translate(428.135724, 660.465923)"><g><path d="M 17.191406 -55.300781 L 56.1875 -56.363281 C 55.300781 -60.265625 56.894531 -63.632812 54.058594 -66.46875 C 49.628906 -70.898438 45.90625 -72.847656 39.703125 -73.378906 C 31.726562 -73.914062 28.890625 -74.796875 23.21875 -69.125 C 19.144531 -65.050781 17.726562 -60.441406 17.191406 -55.300781 Z M 15.953125 -41.832031 C 15.597656 -33.144531 13.824219 -36.160156 17.902344 -27.828125 C 20.738281 -21.800781 28.535156 -19.675781 35.273438 -19.144531 C 47.503906 -17.902344 42.894531 -19.144531 54.945312 -23.398438 L 61.859375 -30.839844 L 75.152344 -22.332031 C 67.53125 -16.308594 67.707031 -9.570312 58.667969 -5.847656 C 48.386719 -1.59375 46.4375 -0.53125 35.273438 -1.59375 C 24.816406 -2.480469 16.308594 -2.835938 9.75 -11.167969 C 1.59375 -21.269531 3.898438 -21.625 3.011719 -34.5625 C 1.949219 -48.921875 1.242188 -57.429688 5.140625 -71.253906 C 7.621094 -79.9375 10.457031 -85.964844 18.433594 -90.394531 C 26.941406 -95.003906 34.207031 -94.648438 43.957031 -92.523438 C 54.945312 -90.21875 62.390625 -87.914062 69.480469 -79.230469 C 75.507812 -71.609375 72.316406 -64.339844 74.265625 -54.769531 L 74.265625 -40.945312 Z M 15.953125 -41.832031 "/></g></g></g><g fill="#ffcc00" fill-opacity="1"><g transform="translate(509.668924, 660.465923)"><g><path d="M 7.445312 -125.492188 L 7.445312 0 L 34.03125 0 L 34.03125 -125.492188 Z M 7.445312 -125.492188 "/></g></g></g><g fill="#ffcc00" fill-opacity="1"><g transform="translate(552.916969, 660.465923)"><g><path d="M 7.445312 -125.492188 L 7.445312 0 L 34.03125 0 L 34.03125 -125.492188 Z M 7.445312 -125.492188 "/></g></g></g><g fill="#ffcc00" fill-opacity="1"><g transform="translate(596.165014, 660.465923)"><g><path d="M 43.070312 -76.039062 L 43.070312 -70.542969 C 41.832031 -71.078125 40.589844 -71.609375 39.347656 -72.316406 C 31.550781 -75.507812 25.699219 -76.394531 18.078125 -72.847656 C 11.167969 -69.660156 8.683594 -64.695312 6.914062 -57.429688 C 3.722656 -44.667969 4.429688 -36.511719 5.847656 -23.398438 C 6.734375 -15.773438 6.914062 -10.101562 12.761719 -5.316406 C 18.433594 -0.710938 24.28125 -0.886719 31.371094 -2.660156 C 35.804688 -3.546875 39.527344 -4.785156 43.070312 -6.558594 L 43.070312 0 L 67.53125 0 L 67.53125 -76.039062 Z M 43.070312 -17.902344 C 42.714844 -17.726562 42.363281 -17.546875 42.007812 -17.546875 C 37.042969 -15.421875 33.855469 -15.066406 28.714844 -15.953125 C 24.460938 -16.660156 21.09375 -17.546875 18.609375 -21.269531 C 15.066406 -26.585938 15.242188 -30.839844 14.890625 -37.222656 C 14.710938 -41.121094 15.066406 -43.425781 17.015625 -46.792969 C 19.675781 -51.222656 21.269531 -54.59375 26.054688 -56.363281 C 31.195312 -58.136719 34.207031 -55.476562 39.347656 -54.769531 L 43.070312 -51.402344 Z M 43.070312 -17.902344 "/></g></g></g></svg>