<svg xmlns="http://www.w3.org/2000/svg" xmlns:xlink="http://www.w3.org/1999/xlink" width="1080" zoomAndPan="magnify" viewBox="0 0 810 809.999993" height="1080" preserveAspectRatio="xMidYMid meet" version="1.0"><defs><g/><clipPath id="id1"><path d="M 239.914062 119.59375 L 569.914062 119.59375 L 569.914062 503.59375 L 239.914062 503.59375 Z M 239.914062 119.59375 " clip-rule="nonzero"/></clipPath><clipPath id="id2"><path d="M 239.917969 119.59375 L 569.914062 119.59375 L 569.914062 503.59375 L 239.917969 503.59375 Z M 239.917969 119.59375 " clip-rule="nonzero"/></clipPath><clipPath id="id3"><path d="M 404.914062 119.59375 L 569.914062 215.59375 L 569.914062 407.59375 L 404.914062 503.59375 L 239.917969 407.59375 L 239.917969 215.59375 L 404.914062 119.59375 " clip-rule="nonzero"/></clipPath><clipPath id="id4"><path d="M 309.542969 240.214844 L 500.792969 240.214844 L 500.792969 298.714844 L 309.542969 298.714844 Z M 309.542969 240.214844 " clip-rule="nonzero"/></clipPath></defs><rect x="-81" width="972" fill="#ffffff" y="-80.999999" height="971.999992" fill-opacity="1"/><rect x="-81" width="972" fill="#ffffff" y="-80.999999" height="971.999992" fill-opacity="1"/><rect x="-81" width="972" fill="#ffffff" y="-80.999999" height="971.999992" fill-opacity="1"/><g clip-path="url(#id1)"><path fill="#ff7802" d="M 404.914062 119.59375 L 569.914062 215.59375 L 569.914062 407.59375 L 404.914062 503.59375 L 239.917969 407.59375 L 239.917969 215.59375 L 404.914062 119.59375 " fill-opacity="1" fill-rule="nonzero"/></g><g clip-path="url(#id2)"><g clip-path="url(#id3)"><path stroke-linecap="butt" transform="matrix(0.749627, 0, 0, 0.749634, 239.917227, 119.595482)" fill="none" stroke-linejoin="miter" d="M 220.105161 -0.00231044 L 440.214543 128.060199 L 440.214543 384.185217 L 220.105161 512.247726 L 0.000988918 384.185217 L 0.000988918 128.060199 L 220.105161 -0.00231044 " stroke="#000000" stroke-width="30" stroke-opacity="1" stroke-miterlimit="4"/></g></g><g clip-path="url(#id4)"><path fill="#000000" d="M 500.5625 269.464844 C 500.5625 285.628906 487.40625 298.714844 471.160156 298.714844 C 454.914062 298.714844 441.757812 285.628906 441.757812 269.464844 C 441.757812 253.304688 454.914062 240.214844 471.160156 240.214844 C 487.40625 240.214844 500.5625 253.304688 500.5625 269.464844 Z M 339.175781 240.214844 C 322.929688 240.214844 309.773438 253.304688 309.773438 269.464844 C 309.773438 285.628906 322.929688 298.714844 339.175781 298.714844 C 355.417969 298.714844 368.578125 285.628906 368.578125 269.464844 C 368.578125 253.304688 355.417969 240.214844 339.175781 240.214844 Z M 339.175781 240.214844 " fill-opacity="1" fill-rule="nonzero"/></g><path fill="#ffffff" d="M 471.875 264.46875 C 471.875 270.773438 466.738281 275.886719 460.398438 275.886719 C 454.0625 275.886719 448.925781 270.773438 448.925781 264.46875 C 448.925781 258.164062 454.0625 253.054688 460.398438 253.054688 C 466.738281 253.054688 471.875 258.164062 471.875 264.46875 Z M 486.207031 277.328125 C 483.832031 277.328125 481.898438 279.253906 481.898438 281.617188 C 481.898438 283.976562 483.832031 285.902344 486.207031 285.902344 C 488.582031 285.902344 490.515625 283.976562 490.515625 281.617188 C 490.515625 279.230469 488.601562 277.328125 486.207031 277.328125 Z M 349.933594 253.054688 C 343.597656 253.054688 338.460938 258.164062 338.460938 264.46875 C 338.460938 270.773438 343.597656 275.886719 349.933594 275.886719 C 356.273438 275.886719 361.410156 270.773438 361.410156 264.46875 C 361.410156 258.164062 356.273438 253.054688 349.933594 253.054688 Z M 324.128906 277.328125 C 321.753906 277.328125 319.820312 279.253906 319.820312 281.617188 C 319.820312 283.976562 321.753906 285.902344 324.128906 285.902344 C 326.5 285.902344 328.4375 283.976562 328.4375 281.617188 C 328.414062 279.230469 326.5 277.328125 324.128906 277.328125 Z M 324.128906 277.328125 " fill-opacity="1" fill-rule="nonzero"/><g fill="#100f0d" fill-opacity="0.302"><g transform="translate(86.828723, 653.296451)"><g><path d="M 33.5 -124.960938 L 33.324219 -79.230469 L 64.871094 -80.824219 L 65.050781 -124.960938 L 87.382812 -126.023438 L 85.078125 0 L 61.683594 0 L 62.214844 -46.792969 L 32.4375 -47.324219 L 31.371094 0 L 7.445312 0 L 7.976562 -124.960938 Z M 33.5 -124.960938 "/></g></g></g><g fill="#100f0d" fill-opacity="0.302"><g transform="translate(183.250593, 653.296451)"><g><path d="M 17.191406 -55.300781 L 56.1875 -56.363281 C 55.300781 -60.265625 56.894531 -63.632812 54.058594 -66.46875 C 49.628906 -70.898438 45.90625 -72.847656 39.703125 -73.378906 C 31.726562 -73.914062 28.890625 -74.796875 23.21875 -69.125 C 19.144531 -65.050781 17.726562 -60.441406 17.191406 -55.300781 Z M 15.953125 -41.832031 C 15.597656 -33.144531 13.824219 -36.160156 17.902344 -27.828125 C 20.738281 -21.800781 28.535156 -19.675781 35.273438 -19.144531 C 47.503906 -17.902344 42.894531 -19.144531 54.945312 -23.398438 L 61.859375 -30.839844 L 75.152344 -22.332031 C 67.53125 -16.308594 67.707031 -9.570312 58.667969 -5.847656 C 48.386719 -1.59375 46.4375 -0.53125 35.273438 -1.59375 C 24.816406 -2.480469 16.308594 -2.835938 9.75 -11.167969 C 1.59375 -21.269531 3.898438 -21.625 3.011719 -34.5625 C 1.949219 -48.921875 1.242188 -57.429688 5.140625 -71.253906 C 7.621094 -79.9375 10.457031 -85.964844 18.433594 -90.394531 C 26.941406 -95.003906 34.207031 -94.648438 43.957031 -92.523438 C 54.945312 -90.21875 62.390625 -87.914062 69.480469 -79.230469 C 75.507812 -71.609375 72.316406 -64.339844 74.265625 -54.769531 L 74.265625 -40.945312 Z M 15.953125 -41.832031 "/></g></g></g><g fill="#100f0d" fill-opacity="0.302"><g transform="translate(264.783792, 653.296451)"><g><path d="M 5.316406 -82.773438 L 35.804688 -42.714844 L 5.671875 -0.355469 L 39.703125 -0.355469 L 54.238281 -21.269531 L 68.59375 -0.355469 L 102.625 -0.355469 L 70.898438 -42.539062 L 102.449219 -81.710938 L 66.113281 -81.886719 L 53.882812 -63.632812 L 41.652344 -82.597656 Z M 5.316406 -82.773438 "/></g></g></g><g fill="#100f0d" fill-opacity="0.302"><g transform="translate(373.435643, 653.296451)"><g><path d="M 40.589844 -111.84375 L 27.296875 -81.003906 L 40.765625 -81.003906 L 61.859375 -111.84375 Z M 43.070312 -76.039062 L 43.070312 -70.542969 C 41.832031 -71.078125 40.589844 -71.609375 39.347656 -72.316406 C 31.550781 -75.507812 25.699219 -76.394531 18.078125 -72.847656 C 11.167969 -69.660156 8.683594 -64.695312 6.914062 -57.429688 C 3.722656 -44.667969 4.429688 -36.511719 5.847656 -23.398438 C 6.734375 -15.773438 6.914062 -10.101562 12.761719 -5.316406 C 18.433594 -0.710938 24.28125 -0.886719 31.371094 -2.660156 C 35.804688 -3.546875 39.527344 -4.785156 43.070312 -6.558594 L 43.070312 0 L 67.53125 0 L 67.53125 -76.039062 Z M 43.070312 -17.902344 C 42.714844 -17.726562 42.363281 -17.546875 42.007812 -17.546875 C 37.042969 -15.421875 33.855469 -15.066406 28.714844 -15.953125 C 24.460938 -16.660156 21.09375 -17.546875 18.609375 -21.269531 C 15.066406 -26.585938 15.242188 -30.839844 14.890625 -37.222656 C 14.710938 -41.121094 15.066406 -43.425781 17.015625 -46.792969 C 19.675781 -51.222656 21.269531 -54.59375 26.054688 -56.363281 C 31.195312 -58.136719 34.207031 -55.476562 39.347656 -54.769531 L 43.070312 -51.402344 Z M 43.070312 -17.902344 "/></g></g></g><g fill="#100f0d" fill-opacity="0.302"><g transform="translate(448.056245, 653.296451)"><g><path d="M 75.507812 -87.207031 C 75.683594 -59.554688 77.28125 -43.957031 76.039062 -16.484375 C 75.507812 -5.847656 74.796875 0.175781 71.253906 10.101562 C 69.125 15.953125 67 19.144531 62.214844 22.863281 C 57.25 26.585938 53.707031 27.117188 47.855469 28.183594 C 38.996094 29.777344 33.855469 29.777344 24.992188 29.246094 C 15.242188 28.535156 9.75 26.585938 0 24.992188 L 6.382812 2.660156 C 14.535156 5.140625 18.609375 8.863281 27.117188 9.039062 C 34.917969 9.21875 40.058594 8.507812 46.261719 3.722656 C 51.222656 -0.175781 52.109375 -4.785156 53.175781 -11.167969 C 54.59375 -19.675781 53.175781 -11.875 52.996094 -20.5625 L 52.996094 -24.28125 C 48.210938 -21.800781 38.996094 -19.320312 32.96875 -17.015625 C 28.535156 -15.242188 23.574219 -20.382812 19.144531 -20.914062 C 15.242188 -21.269531 12.9375 -25.699219 10.457031 -28.890625 C 5.496094 -34.917969 5.140625 -43.78125 3.722656 -51.222656 C 2.128906 -59.023438 7.089844 -63.632812 9.039062 -71.253906 C 10.28125 -76.039062 11.519531 -79.761719 15.953125 -82.421875 C 21.625 -85.964844 26.234375 -87.207031 32.96875 -86.140625 C 40.414062 -84.902344 46.085938 -84.015625 51.578125 -80.648438 L 51.578125 -87.207031 Z M 51.933594 -63.808594 C 46.792969 -66.113281 43.601562 -71.785156 37.222656 -74.976562 C 34.207031 -76.394531 32.257812 -77.632812 29.246094 -76.570312 C 25.167969 -75.152344 22.511719 -73.558594 21.269531 -69.660156 C 18.789062 -62.390625 19.675781 -58.847656 18.257812 -51.578125 C 17.015625 -46.4375 18.609375 -35.625 24.992188 -34.207031 C 31.195312 -32.613281 37.222656 -30.308594 43.070312 -32.4375 C 45.199219 -33.144531 50.871094 -36.511719 52.640625 -37.578125 Z M 51.933594 -63.808594 "/></g></g></g><g fill="#100f0d" fill-opacity="0.302"><g transform="translate(529.589444, 653.296451)"><g><path d="M 21.269531 -39.527344 C 21.269531 -48.921875 28.890625 -56.542969 38.285156 -56.542969 C 47.679688 -56.542969 55.300781 -48.921875 55.300781 -39.527344 C 55.300781 -30.132812 47.679688 -22.511719 38.285156 -22.511719 C 28.890625 -22.511719 21.269531 -30.132812 21.269531 -39.527344 Z M 3.191406 -39.527344 C 3.191406 -18.964844 18.433594 -2.304688 37.222656 -2.304688 C 56.011719 -2.304688 71.253906 -18.964844 71.253906 -39.527344 C 71.253906 -60.085938 56.011719 -76.75 37.222656 -76.75 C 18.433594 -76.75 3.191406 -60.085938 3.191406 -39.527344 Z M 3.191406 -39.527344 "/></g></g></g><g fill="#100f0d" fill-opacity="0.302"><g transform="translate(604.741784, 653.296451)"><g><path d="M 67.53125 -52.640625 L 67.53125 -0.710938 L 53.351562 -0.710938 L 53.351562 -52.464844 C 50.871094 -56.1875 48.742188 -59.199219 44.667969 -60.085938 C 39.527344 -60.972656 36.335938 -60.441406 31.371094 -58.492188 C 30.839844 -58.3125 30.308594 -58.3125 30.308594 -57.960938 L 30.308594 0 L 5.847656 0 L 5.847656 -76.039062 L 30.308594 -76.039062 L 30.308594 -69.304688 C 33.675781 -71.078125 37.398438 -72.316406 42.007812 -73.378906 C 49.097656 -75.152344 54.945312 -75.332031 60.617188 -70.722656 C 66.46875 -65.9375 66.644531 -60.265625 67.53125 -52.640625 Z M 67.53125 -52.640625 "/></g></g></g><g fill="#100f0d" fill-opacity="0.302"><g transform="translate(679.362386, 653.296451)"><g><path d="M 21.269531 -39.527344 C 21.269531 -48.921875 28.890625 -56.542969 38.285156 -56.542969 C 47.679688 -56.542969 55.300781 -48.921875 55.300781 -39.527344 C 55.300781 -30.132812 47.679688 -22.511719 38.285156 -22.511719 C 28.890625 -22.511719 21.269531 -30.132812 21.269531 -39.527344 Z M 3.191406 -39.527344 C 3.191406 -18.964844 18.433594 -2.304688 37.222656 -2.304688 C 56.011719 -2.304688 71.253906 -18.964844 71.253906 -39.527344 C 71.253906 -60.085938 56.011719 -76.75 37.222656 -76.75 C 18.433594 -76.75 3.191406 -60.085938 3.191406 -39.527344 Z M 3.191406 -39.527344 "/></g></g></g><g fill="#100f0d" fill-opacity="0.502"><g transform="translate(78.995418, 645.46314)"><g><path d="M 33.5 -124.960938 L 33.324219 -79.230469 L 64.871094 -80.824219 L 65.050781 -124.960938 L 87.382812 -126.023438 L 85.078125 0 L 61.683594 0 L 62.214844 -46.792969 L 32.4375 -47.324219 L 31.371094 0 L 7.445312 0 L 7.976562 -124.960938 Z M 33.5 -124.960938 "/></g></g></g><g fill="#100f0d" fill-opacity="0.502"><g transform="translate(175.417288, 645.46314)"><g><path d="M 17.191406 -55.300781 L 56.1875 -56.363281 C 55.300781 -60.265625 56.894531 -63.632812 54.058594 -66.46875 C 49.628906 -70.898438 45.90625 -72.847656 39.703125 -73.378906 C 31.726562 -73.914062 28.890625 -74.796875 23.21875 -69.125 C 19.144531 -65.050781 17.726562 -60.441406 17.191406 -55.300781 Z M 15.953125 -41.832031 C 15.597656 -33.144531 13.824219 -36.160156 17.902344 -27.828125 C 20.738281 -21.800781 28.535156 -19.675781 35.273438 -19.144531 C 47.503906 -17.902344 42.894531 -19.144531 54.945312 -23.398438 L 61.859375 -30.839844 L 75.152344 -22.332031 C 67.53125 -16.308594 67.707031 -9.570312 58.667969 -5.847656 C 48.386719 -1.59375 46.4375 -0.53125 35.273438 -1.59375 C 24.816406 -2.480469 16.308594 -2.835938 9.75 -11.167969 C 1.59375 -21.269531 3.898438 -21.625 3.011719 -34.5625 C 1.949219 -48.921875 1.242188 -57.429688 5.140625 -71.253906 C 7.621094 -79.9375 10.457031 -85.964844 18.433594 -90.394531 C 26.941406 -95.003906 34.207031 -94.648438 43.957031 -92.523438 C 54.945312 -90.21875 62.390625 -87.914062 69.480469 -79.230469 C 75.507812 -71.609375 72.316406 -64.339844 74.265625 -54.769531 L 74.265625 -40.945312 Z M 15.953125 -41.832031 "/></g></g></g><g fill="#100f0d" fill-opacity="0.502"><g transform="translate(256.950488, 645.46314)"><g><path d="M 5.316406 -82.773438 L 35.804688 -42.714844 L 5.671875 -0.355469 L 39.703125 -0.355469 L 54.238281 -21.269531 L 68.59375 -0.355469 L 102.625 -0.355469 L 70.898438 -42.539062 L 102.449219 -81.710938 L 66.113281 -81.886719 L 53.882812 -63.632812 L 41.652344 -82.597656 Z M 5.316406 -82.773438 "/></g></g></g><g fill="#100f0d" fill-opacity="0.502"><g transform="translate(365.602338, 645.46314)"><g><path d="M 40.589844 -111.84375 L 27.296875 -81.003906 L 40.765625 -81.003906 L 61.859375 -111.84375 Z M 43.070312 -76.039062 L 43.070312 -70.542969 C 41.832031 -71.078125 40.589844 -71.609375 39.347656 -72.316406 C 31.550781 -75.507812 25.699219 -76.394531 18.078125 -72.847656 C 11.167969 -69.660156 8.683594 -64.695312 6.914062 -57.429688 C 3.722656 -44.667969 4.429688 -36.511719 5.847656 -23.398438 C 6.734375 -15.773438 6.914062 -10.101562 12.761719 -5.316406 C 18.433594 -0.710938 24.28125 -0.886719 31.371094 -2.660156 C 35.804688 -3.546875 39.527344 -4.785156 43.070312 -6.558594 L 43.070312 0 L 67.53125 0 L 67.53125 -76.039062 Z M 43.070312 -17.902344 C 42.714844 -17.726562 42.363281 -17.546875 42.007812 -17.546875 C 37.042969 -15.421875 33.855469 -15.066406 28.714844 -15.953125 C 24.460938 -16.660156 21.09375 -17.546875 18.609375 -21.269531 C 15.066406 -26.585938 15.242188 -30.839844 14.890625 -37.222656 C 14.710938 -41.121094 15.066406 -43.425781 17.015625 -46.792969 C 19.675781 -51.222656 21.269531 -54.59375 26.054688 -56.363281 C 31.195312 -58.136719 34.207031 -55.476562 39.347656 -54.769531 L 43.070312 -51.402344 Z M 43.070312 -17.902344 "/></g></g></g><g fill="#100f0d" fill-opacity="0.502"><g transform="translate(440.22294, 645.46314)"><g><path d="M 75.507812 -87.207031 C 75.683594 -59.554688 77.28125 -43.957031 76.039062 -16.484375 C 75.507812 -5.847656 74.796875 0.175781 71.253906 10.101562 C 69.125 15.953125 67 19.144531 62.214844 22.863281 C 57.25 26.585938 53.707031 27.117188 47.855469 28.183594 C 38.996094 29.777344 33.855469 29.777344 24.992188 29.246094 C 15.242188 28.535156 9.75 26.585938 0 24.992188 L 6.382812 2.660156 C 14.535156 5.140625 18.609375 8.863281 27.117188 9.039062 C 34.917969 9.21875 40.058594 8.507812 46.261719 3.722656 C 51.222656 -0.175781 52.109375 -4.785156 53.175781 -11.167969 C 54.59375 -19.675781 53.175781 -11.875 52.996094 -20.5625 L 52.996094 -24.28125 C 48.210938 -21.800781 38.996094 -19.320312 32.96875 -17.015625 C 28.535156 -15.242188 23.574219 -20.382812 19.144531 -20.914062 C 15.242188 -21.269531 12.9375 -25.699219 10.457031 -28.890625 C 5.496094 -34.917969 5.140625 -43.78125 3.722656 -51.222656 C 2.128906 -59.023438 7.089844 -63.632812 9.039062 -71.253906 C 10.28125 -76.039062 11.519531 -79.761719 15.953125 -82.421875 C 21.625 -85.964844 26.234375 -87.207031 32.96875 -86.140625 C 40.414062 -84.902344 46.085938 -84.015625 51.578125 -80.648438 L 51.578125 -87.207031 Z M 51.933594 -63.808594 C 46.792969 -66.113281 43.601562 -71.785156 37.222656 -74.976562 C 34.207031 -76.394531 32.257812 -77.632812 29.246094 -76.570312 C 25.167969 -75.152344 22.511719 -73.558594 21.269531 -69.660156 C 18.789062 -62.390625 19.675781 -58.847656 18.257812 -51.578125 C 17.015625 -46.4375 18.609375 -35.625 24.992188 -34.207031 C 31.195312 -32.613281 37.222656 -30.308594 43.070312 -32.4375 C 45.199219 -33.144531 50.871094 -36.511719 52.640625 -37.578125 Z M 51.933594 -63.808594 "/></g></g></g><g fill="#100f0d" fill-opacity="0.502"><g transform="translate(521.75614, 645.46314)"><g><path d="M 21.269531 -39.527344 C 21.269531 -48.921875 28.890625 -56.542969 38.285156 -56.542969 C 47.679688 -56.542969 55.300781 -48.921875 55.300781 -39.527344 C 55.300781 -30.132812 47.679688 -22.511719 38.285156 -22.511719 C 28.890625 -22.511719 21.269531 -30.132812 21.269531 -39.527344 Z M 3.191406 -39.527344 C 3.191406 -18.964844 18.433594 -2.304688 37.222656 -2.304688 C 56.011719 -2.304688 71.253906 -18.964844 71.253906 -39.527344 C 71.253906 -60.085938 56.011719 -76.75 37.222656 -76.75 C 18.433594 -76.75 3.191406 -60.085938 3.191406 -39.527344 Z M 3.191406 -39.527344 "/></g></g></g><g fill="#100f0d" fill-opacity="0.502"><g transform="translate(596.908479, 645.46314)"><g><path d="M 67.53125 -52.640625 L 67.53125 -0.710938 L 53.351562 -0.710938 L 53.351562 -52.464844 C 50.871094 -56.1875 48.742188 -59.199219 44.667969 -60.085938 C 39.527344 -60.972656 36.335938 -60.441406 31.371094 -58.492188 C 30.839844 -58.3125 30.308594 -58.3125 30.308594 -57.960938 L 30.308594 0 L 5.847656 0 L 5.847656 -76.039062 L 30.308594 -76.039062 L 30.308594 -69.304688 C 33.675781 -71.078125 37.398438 -72.316406 42.007812 -73.378906 C 49.097656 -75.152344 54.945312 -75.332031 60.617188 -70.722656 C 66.46875 -65.9375 66.644531 -60.265625 67.53125 -52.640625 Z M 67.53125 -52.640625 "/></g></g></g><g fill="#100f0d" fill-opacity="0.502"><g transform="translate(671.529081, 645.46314)"><g><path d="M 21.269531 -39.527344 C 21.269531 -48.921875 28.890625 -56.542969 38.285156 -56.542969 C 47.679688 -56.542969 55.300781 -48.921875 55.300781 -39.527344 C 55.300781 -30.132812 47.679688 -22.511719 38.285156 -22.511719 C 28.890625 -22.511719 21.269531 -30.132812 21.269531 -39.527344 Z M 3.191406 -39.527344 C 3.191406 -18.964844 18.433594 -2.304688 37.222656 -2.304688 C 56.011719 -2.304688 71.253906 -18.964844 71.253906 -39.527344 C 71.253906 -60.085938 56.011719 -76.75 37.222656 -76.75 C 18.433594 -76.75 3.191406 -60.085938 3.191406 -39.527344 Z M 3.191406 -39.527344 "/></g></g></g><g fill="#ff7802" fill-opacity="1"><g transform="translate(71.162109, 637.629828)"><g><path d="M 33.5 -124.960938 L 33.324219 -79.230469 L 64.871094 -80.824219 L 65.050781 -124.960938 L 87.382812 -126.023438 L 85.078125 0 L 61.683594 0 L 62.214844 -46.792969 L 32.4375 -47.324219 L 31.371094 0 L 7.445312 0 L 7.976562 -124.960938 Z M 33.5 -124.960938 "/></g></g></g><g fill="#ff7802" fill-opacity="1"><g transform="translate(167.583979, 637.629828)"><g><path d="M 17.191406 -55.300781 L 56.1875 -56.363281 C 55.300781 -60.265625 56.894531 -63.632812 54.058594 -66.46875 C 49.628906 -70.898438 45.90625 -72.847656 39.703125 -73.378906 C 31.726562 -73.914062 28.890625 -74.796875 23.21875 -69.125 C 19.144531 -65.050781 17.726562 -60.441406 17.191406 -55.300781 Z M 15.953125 -41.832031 C 15.597656 -33.144531 13.824219 -36.160156 17.902344 -27.828125 C 20.738281 -21.800781 28.535156 -19.675781 35.273438 -19.144531 C 47.503906 -17.902344 42.894531 -19.144531 54.945312 -23.398438 L 61.859375 -30.839844 L 75.152344 -22.332031 C 67.53125 -16.308594 67.707031 -9.570312 58.667969 -5.847656 C 48.386719 -1.59375 46.4375 -0.53125 35.273438 -1.59375 C 24.816406 -2.480469 16.308594 -2.835938 9.75 -11.167969 C 1.59375 -21.269531 3.898438 -21.625 3.011719 -34.5625 C 1.949219 -48.921875 1.242188 -57.429688 5.140625 -71.253906 C 7.621094 -79.9375 10.457031 -85.964844 18.433594 -90.394531 C 26.941406 -95.003906 34.207031 -94.648438 43.957031 -92.523438 C 54.945312 -90.21875 62.390625 -87.914062 69.480469 -79.230469 C 75.507812 -71.609375 72.316406 -64.339844 74.265625 -54.769531 L 74.265625 -40.945312 Z M 15.953125 -41.832031 "/></g></g></g><g fill="#ff7802" fill-opacity="1"><g transform="translate(249.117179, 637.629828)"><g><path d="M 5.316406 -82.773438 L 35.804688 -42.714844 L 5.671875 -0.355469 L 39.703125 -0.355469 L 54.238281 -21.269531 L 68.59375 -0.355469 L 102.625 -0.355469 L 70.898438 -42.539062 L 102.449219 -81.710938 L 66.113281 -81.886719 L 53.882812 -63.632812 L 41.652344 -82.597656 Z M 5.316406 -82.773438 "/></g></g></g><g fill="#ff7802" fill-opacity="1"><g transform="translate(357.769029, 637.629828)"><g><path d="M 40.589844 -111.84375 L 27.296875 -81.003906 L 40.765625 -81.003906 L 61.859375 -111.84375 Z M 43.070312 -76.039062 L 43.070312 -70.542969 C 41.832031 -71.078125 40.589844 -71.609375 39.347656 -72.316406 C 31.550781 -75.507812 25.699219 -76.394531 18.078125 -72.847656 C 11.167969 -69.660156 8.683594 -64.695312 6.914062 -57.429688 C 3.722656 -44.667969 4.429688 -36.511719 5.847656 -23.398438 C 6.734375 -15.773438 6.914062 -10.101562 12.761719 -5.316406 C 18.433594 -0.710938 24.28125 -0.886719 31.371094 -2.660156 C 35.804688 -3.546875 39.527344 -4.785156 43.070312 -6.558594 L 43.070312 0 L 67.53125 0 L 67.53125 -76.039062 Z M 43.070312 -17.902344 C 42.714844 -17.726562 42.363281 -17.546875 42.007812 -17.546875 C 37.042969 -15.421875 33.855469 -15.066406 28.714844 -15.953125 C 24.460938 -16.660156 21.09375 -17.546875 18.609375 -21.269531 C 15.066406 -26.585938 15.242188 -30.839844 14.890625 -37.222656 C 14.710938 -41.121094 15.066406 -43.425781 17.015625 -46.792969 C 19.675781 -51.222656 21.269531 -54.59375 26.054688 -56.363281 C 31.195312 -58.136719 34.207031 -55.476562 39.347656 -54.769531 L 43.070312 -51.402344 Z M 43.070312 -17.902344 "/></g></g></g><g fill="#ff7802" fill-opacity="1"><g transform="translate(432.389631, 637.629828)"><g><path d="M 75.507812 -87.207031 C 75.683594 -59.554688 77.28125 -43.957031 76.039062 -16.484375 C 75.507812 -5.847656 74.796875 0.175781 71.253906 10.101562 C 69.125 15.953125 67 19.144531 62.214844 22.863281 C 57.25 26.585938 53.707031 27.117188 47.855469 28.183594 C 38.996094 29.777344 33.855469 29.777344 24.992188 29.246094 C 15.242188 28.535156 9.75 26.585938 0 24.992188 L 6.382812 2.660156 C 14.535156 5.140625 18.609375 8.863281 27.117188 9.039062 C 34.917969 9.21875 40.058594 8.507812 46.261719 3.722656 C 51.222656 -0.175781 52.109375 -4.785156 53.175781 -11.167969 C 54.59375 -19.675781 53.175781 -11.875 52.996094 -20.5625 L 52.996094 -24.28125 C 48.210938 -21.800781 38.996094 -19.320312 32.96875 -17.015625 C 28.535156 -15.242188 23.574219 -20.382812 19.144531 -20.914062 C 15.242188 -21.269531 12.9375 -25.699219 10.457031 -28.890625 C 5.496094 -34.917969 5.140625 -43.78125 3.722656 -51.222656 C 2.128906 -59.023438 7.089844 -63.632812 9.039062 -71.253906 C 10.28125 -76.039062 11.519531 -79.761719 15.953125 -82.421875 C 21.625 -85.964844 26.234375 -87.207031 32.96875 -86.140625 C 40.414062 -84.902344 46.085938 -84.015625 51.578125 -80.648438 L 51.578125 -87.207031 Z M 51.933594 -63.808594 C 46.792969 -66.113281 43.601562 -71.785156 37.222656 -74.976562 C 34.207031 -76.394531 32.257812 -77.632812 29.246094 -76.570312 C 25.167969 -75.152344 22.511719 -73.558594 21.269531 -69.660156 C 18.789062 -62.390625 19.675781 -58.847656 18.257812 -51.578125 C 17.015625 -46.4375 18.609375 -35.625 24.992188 -34.207031 C 31.195312 -32.613281 37.222656 -30.308594 43.070312 -32.4375 C 45.199219 -33.144531 50.871094 -36.511719 52.640625 -37.578125 Z M 51.933594 -63.808594 "/></g></g></g><g fill="#ff7802" fill-opacity="1"><g transform="translate(513.92283, 637.629828)"><g><path d="M 21.269531 -39.527344 C 21.269531 -48.921875 28.890625 -56.542969 38.285156 -56.542969 C 47.679688 -56.542969 55.300781 -48.921875 55.300781 -39.527344 C 55.300781 -30.132812 47.679688 -22.511719 38.285156 -22.511719 C 28.890625 -22.511719 21.269531 -30.132812 21.269531 -39.527344 Z M 3.191406 -39.527344 C 3.191406 -18.964844 18.433594 -2.304688 37.222656 -2.304688 C 56.011719 -2.304688 71.253906 -18.964844 71.253906 -39.527344 C 71.253906 -60.085938 56.011719 -76.75 37.222656 -76.75 C 18.433594 -76.75 3.191406 -60.085938 3.191406 -39.527344 Z M 3.191406 -39.527344 "/></g></g></g><g fill="#ff7802" fill-opacity="1"><g transform="translate(589.07517, 637.629828)"><g><path d="M 67.53125 -52.640625 L 67.53125 -0.710938 L 53.351562 -0.710938 L 53.351562 -52.464844 C 50.871094 -56.1875 48.742188 -59.199219 44.667969 -60.085938 C 39.527344 -60.972656 36.335938 -60.441406 31.371094 -58.492188 C 30.839844 -58.3125 30.308594 -58.3125 30.308594 -57.960938 L 30.308594 0 L 5.847656 0 L 5.847656 -76.039062 L 30.308594 -76.039062 L 30.308594 -69.304688 C 33.675781 -71.078125 37.398438 -72.316406 42.007812 -73.378906 C 49.097656 -75.152344 54.945312 -75.332031 60.617188 -70.722656 C 66.46875 -65.9375 66.644531 -60.265625 67.53125 -52.640625 Z M 67.53125 -52.640625 "/></g></g></g><g fill="#ff7802" fill-opacity="1"><g transform="translate(663.695772, 637.629828)"><g><path d="M 21.269531 -39.527344 C 21.269531 -48.921875 28.890625 -56.542969 38.285156 -56.542969 C 47.679688 -56.542969 55.300781 -48.921875 55.300781 -39.527344 C 55.300781 -30.132812 47.679688 -22.511719 38.285156 -22.511719 C 28.890625 -22.511719 21.269531 -30.132812 21.269531 -39.527344 Z M 3.191406 -39.527344 C 3.191406 -18.964844 18.433594 -2.304688 37.222656 -2.304688 C 56.011719 -2.304688 71.253906 -18.964844 71.253906 -39.527344 C 71.253906 -60.085938 56.011719 -76.75 37.222656 -76.75 C 18.433594 -76.75 3.191406 -60.085938 3.191406 -39.527344 Z M 3.191406 -39.527344 "/></g></g></g></svg>