<svg xmlns="http://www.w3.org/2000/svg" xmlns:xlink="http://www.w3.org/1999/xlink" width="1080" zoomAndPan="magnify" viewBox="0 0 810 809.999993" height="1080" preserveAspectRatio="xMidYMid meet" version="1.0"><defs><g/><clipPath id="id1"><path d="M 207.105469 114.226562 L 603.105469 114.226562 L 603.105469 510.226562 L 207.105469 510.226562 Z M 207.105469 114.226562 " clip-rule="nonzero"/></clipPath><clipPath id="id2"><path d="M 207.105469 114.226562 L 603.105469 114.226562 L 603.105469 510.226562 L 207.105469 510.226562 Z M 207.105469 114.226562 " clip-rule="nonzero"/></clipPath><clipPath id="id3"><path d="M 405.105469 114.226562 L 603.105469 265.484375 L 527.472656 510.226562 L 282.734375 510.226562 L 207.105469 265.484375 L 405.105469 114.226562 " clip-rule="nonzero"/></clipPath><clipPath id="id4"><path d="M 309.542969 253.414062 L 500.792969 253.414062 L 500.792969 311.914062 L 309.542969 311.914062 Z M 309.542969 253.414062 " clip-rule="nonzero"/></clipPath></defs><rect x="-81" width="972" fill="#ffffff" y="-80.999999" height="971.999992" fill-opacity="1"/><rect x="-81" width="972" fill="#ffffff" y="-80.999999" height="971.999992" fill-opacity="1"/><rect x="-81" width="972" fill="#ffffff" y="-80.999999" height="971.999992" fill-opacity="1"/><g clip-path="url(#id1)"><path fill="#32af8d" d="M 405.105469 114.226562 L 603.105469 265.484375 L 527.472656 510.226562 L 282.734375 510.226562 L 207.105469 265.484375 L 405.105469 114.226562 " fill-opacity="1" fill-rule="nonzero"/></g><g clip-path="url(#id2)"><g clip-path="url(#id3)"><path stroke-linecap="butt" transform="matrix(0.7504, 0, 0, 0.7504, 207.103793, 114.225014)" fill="none" stroke-linejoin="miter" d="M 263.861628 0.00206323 L 527.721023 201.571735 L 426.930982 527.720854 L 100.787069 527.720854 L 0.00223304 201.571735 L 263.861628 0.00206323 " stroke="#000000" stroke-width="30" stroke-opacity="1" stroke-miterlimit="4"/></g></g><g clip-path="url(#id4)"><path fill="#000000" d="M 500.5625 282.664062 C 500.5625 298.824219 487.40625 311.914062 471.160156 311.914062 C 454.914062 311.914062 441.757812 298.824219 441.757812 282.664062 C 441.757812 266.503906 454.914062 253.414062 471.160156 253.414062 C 487.40625 253.414062 500.5625 266.503906 500.5625 282.664062 Z M 339.175781 253.414062 C 322.929688 253.414062 309.773438 266.503906 309.773438 282.664062 C 309.773438 298.824219 322.929688 311.914062 339.175781 311.914062 C 355.417969 311.914062 368.578125 298.824219 368.578125 282.664062 C 368.578125 266.503906 355.417969 253.414062 339.175781 253.414062 Z M 339.175781 253.414062 " fill-opacity="1" fill-rule="nonzero"/></g><path fill="#ffffff" d="M 471.875 277.667969 C 471.875 283.972656 466.738281 289.082031 460.398438 289.082031 C 454.0625 289.082031 448.925781 283.972656 448.925781 277.667969 C 448.925781 271.363281 454.0625 266.253906 460.398438 266.253906 C 466.738281 266.253906 471.875 271.363281 471.875 277.667969 Z M 486.207031 290.527344 C 483.832031 290.527344 481.898438 292.453125 481.898438 294.816406 C 481.898438 297.175781 483.832031 299.101562 486.207031 299.101562 C 488.582031 299.101562 490.515625 297.175781 490.515625 294.816406 C 490.515625 292.429688 488.601562 290.527344 486.207031 290.527344 Z M 349.933594 266.253906 C 343.597656 266.253906 338.460938 271.363281 338.460938 277.667969 C 338.460938 283.972656 343.597656 289.082031 349.933594 289.082031 C 356.273438 289.082031 361.410156 283.972656 361.410156 277.667969 C 361.410156 271.363281 356.273438 266.253906 349.933594 266.253906 Z M 324.128906 290.527344 C 321.753906 290.527344 319.820312 292.453125 319.820312 294.816406 C 319.820312 297.175781 321.753906 299.101562 324.128906 299.101562 C 326.5 299.101562 328.4375 297.175781 328.4375 294.816406 C 328.414062 292.429688 326.5 290.527344 324.128906 290.527344 Z M 324.128906 290.527344 " fill-opacity="1" fill-rule="nonzero"/><g fill="#100f0d" fill-opacity="0.302"><g transform="translate(83.096301, 658.666451)"><g><path d="M 22.863281 -112.199219 C 28.714844 -112.019531 40.945312 -112.199219 46.617188 -110.78125 C 50.871094 -109.714844 53.707031 -109.007812 56.1875 -105.460938 C 58.847656 -101.738281 58.667969 -98.371094 58.847656 -93.765625 C 59.023438 -89.863281 59.554688 -86.851562 56.71875 -84.191406 C 53.351562 -80.824219 40.765625 -82.773438 36.160156 -81.355469 L 22.332031 -80.824219 Z M 4.785156 0 L 21.09375 0 L 20.5625 -64.339844 C 33.855469 -67 51.757812 -63.632812 63.453125 -70.367188 C 69.660156 -73.914062 70.542969 -80.117188 71.429688 -87.382812 C 72.316406 -95.714844 71.253906 -100.675781 67.707031 -108.121094 C 64.695312 -114.324219 61.503906 -118.402344 54.945312 -121.414062 C 46.085938 -125.492188 31.726562 -124.605469 22.6875 -126.023438 L 4.785156 -126.023438 Z M 4.785156 0 "/></g></g></g><g fill="#100f0d" fill-opacity="0.302"><g transform="translate(159.66661, 658.666451)"><g><path d="M 17.191406 -55.300781 L 56.1875 -56.363281 C 55.300781 -60.265625 56.894531 -63.632812 54.058594 -66.46875 C 49.628906 -70.898438 45.90625 -72.847656 39.703125 -73.378906 C 31.726562 -73.914062 28.890625 -74.796875 23.21875 -69.125 C 19.144531 -65.050781 17.726562 -60.441406 17.191406 -55.300781 Z M 15.953125 -41.832031 C 15.597656 -33.144531 13.824219 -36.160156 17.902344 -27.828125 C 20.738281 -21.800781 28.535156 -19.675781 35.273438 -19.144531 C 47.503906 -17.902344 42.894531 -19.144531 54.945312 -23.398438 L 61.859375 -30.839844 L 75.152344 -22.332031 C 67.53125 -16.308594 67.707031 -9.570312 58.667969 -5.847656 C 48.386719 -1.59375 46.4375 -0.53125 35.273438 -1.59375 C 24.816406 -2.480469 16.308594 -2.835938 9.75 -11.167969 C 1.59375 -21.269531 3.898438 -21.625 3.011719 -34.5625 C 1.949219 -48.921875 1.242188 -57.429688 5.140625 -71.253906 C 7.621094 -79.9375 10.457031 -85.964844 18.433594 -90.394531 C 26.941406 -95.003906 34.207031 -94.648438 43.957031 -92.523438 C 54.945312 -90.21875 62.390625 -87.914062 69.480469 -79.230469 C 75.507812 -71.609375 72.316406 -64.339844 74.265625 -54.769531 L 74.265625 -40.945312 Z M 15.953125 -41.832031 "/></g></g></g><g fill="#100f0d" fill-opacity="0.302"><g transform="translate(241.199809, 658.666451)"><g><path d="M 67.53125 -52.640625 L 67.53125 -0.710938 L 53.351562 -0.710938 L 53.351562 -52.464844 C 50.871094 -56.1875 48.742188 -59.199219 44.667969 -60.085938 C 39.527344 -60.972656 36.335938 -60.441406 31.371094 -58.492188 C 30.839844 -58.3125 30.308594 -58.3125 30.308594 -57.960938 L 30.308594 0 L 5.847656 0 L 5.847656 -76.039062 L 30.308594 -76.039062 L 30.308594 -69.304688 C 33.675781 -71.078125 37.398438 -72.316406 42.007812 -73.378906 C 49.097656 -75.152344 54.945312 -75.332031 60.617188 -70.722656 C 66.46875 -65.9375 66.644531 -60.265625 67.53125 -52.640625 Z M 67.53125 -52.640625 "/></g></g></g><g fill="#100f0d" fill-opacity="0.302"><g transform="translate(315.820411, 658.666451)"><g><path d="M 16.484375 -106.878906 L 16.484375 -82.421875 L 4.785156 -82.421875 L 4.785156 -59.554688 L 16.484375 -59.554688 L 16.484375 0 L 40.414062 0 L 40.414062 -59.554688 L 53.175781 -59.554688 L 53.175781 -82.421875 L 40.414062 -82.421875 L 40.414062 -106.878906 Z M 16.484375 -106.878906 "/></g></g></g><g fill="#100f0d" fill-opacity="0.302"><g transform="translate(377.147556, 658.666451)"><g><path d="M 40.589844 -111.84375 L 27.296875 -81.003906 L 40.765625 -81.003906 L 61.859375 -111.84375 Z M 43.070312 -76.039062 L 43.070312 -70.542969 C 41.832031 -71.078125 40.589844 -71.609375 39.347656 -72.316406 C 31.550781 -75.507812 25.699219 -76.394531 18.078125 -72.847656 C 11.167969 -69.660156 8.683594 -64.695312 6.914062 -57.429688 C 3.722656 -44.667969 4.429688 -36.511719 5.847656 -23.398438 C 6.734375 -15.773438 6.914062 -10.101562 12.761719 -5.316406 C 18.433594 -0.710938 24.28125 -0.886719 31.371094 -2.660156 C 35.804688 -3.546875 39.527344 -4.785156 43.070312 -6.558594 L 43.070312 0 L 67.53125 0 L 67.53125 -76.039062 Z M 43.070312 -17.902344 C 42.714844 -17.726562 42.363281 -17.546875 42.007812 -17.546875 C 37.042969 -15.421875 33.855469 -15.066406 28.714844 -15.953125 C 24.460938 -16.660156 21.09375 -17.546875 18.609375 -21.269531 C 15.066406 -26.585938 15.242188 -30.839844 14.890625 -37.222656 C 14.710938 -41.121094 15.066406 -43.425781 17.015625 -46.792969 C 19.675781 -51.222656 21.269531 -54.59375 26.054688 -56.363281 C 31.195312 -58.136719 34.207031 -55.476562 39.347656 -54.769531 L 43.070312 -51.402344 Z M 43.070312 -17.902344 "/></g></g></g><g fill="#100f0d" fill-opacity="0.302"><g transform="translate(451.768158, 658.666451)"><g><path d="M 75.507812 -87.207031 C 75.683594 -59.554688 77.28125 -43.957031 76.039062 -16.484375 C 75.507812 -5.847656 74.796875 0.175781 71.253906 10.101562 C 69.125 15.953125 67 19.144531 62.214844 22.863281 C 57.25 26.585938 53.707031 27.117188 47.855469 28.183594 C 38.996094 29.777344 33.855469 29.777344 24.992188 29.246094 C 15.242188 28.535156 9.75 26.585938 0 24.992188 L 6.382812 2.660156 C 14.535156 5.140625 18.609375 8.863281 27.117188 9.039062 C 34.917969 9.21875 40.058594 8.507812 46.261719 3.722656 C 51.222656 -0.175781 52.109375 -4.785156 53.175781 -11.167969 C 54.59375 -19.675781 53.175781 -11.875 52.996094 -20.5625 L 52.996094 -24.28125 C 48.210938 -21.800781 38.996094 -19.320312 32.96875 -17.015625 C 28.535156 -15.242188 23.574219 -20.382812 19.144531 -20.914062 C 15.242188 -21.269531 12.9375 -25.699219 10.457031 -28.890625 C 5.496094 -34.917969 5.140625 -43.78125 3.722656 -51.222656 C 2.128906 -59.023438 7.089844 -63.632812 9.039062 -71.253906 C 10.28125 -76.039062 11.519531 -79.761719 15.953125 -82.421875 C 21.625 -85.964844 26.234375 -87.207031 32.96875 -86.140625 C 40.414062 -84.902344 46.085938 -84.015625 51.578125 -80.648438 L 51.578125 -87.207031 Z M 51.933594 -63.808594 C 46.792969 -66.113281 43.601562 -71.785156 37.222656 -74.976562 C 34.207031 -76.394531 32.257812 -77.632812 29.246094 -76.570312 C 25.167969 -75.152344 22.511719 -73.558594 21.269531 -69.660156 C 18.789062 -62.390625 19.675781 -58.847656 18.257812 -51.578125 C 17.015625 -46.4375 18.609375 -35.625 24.992188 -34.207031 C 31.195312 -32.613281 37.222656 -30.308594 43.070312 -32.4375 C 45.199219 -33.144531 50.871094 -36.511719 52.640625 -37.578125 Z M 51.933594 -63.808594 "/></g></g></g><g fill="#100f0d" fill-opacity="0.302"><g transform="translate(533.301358, 658.666451)"><g><path d="M 21.269531 -39.527344 C 21.269531 -48.921875 28.890625 -56.542969 38.285156 -56.542969 C 47.679688 -56.542969 55.300781 -48.921875 55.300781 -39.527344 C 55.300781 -30.132812 47.679688 -22.511719 38.285156 -22.511719 C 28.890625 -22.511719 21.269531 -30.132812 21.269531 -39.527344 Z M 3.191406 -39.527344 C 3.191406 -18.964844 18.433594 -2.304688 37.222656 -2.304688 C 56.011719 -2.304688 71.253906 -18.964844 71.253906 -39.527344 C 71.253906 -60.085938 56.011719 -76.75 37.222656 -76.75 C 18.433594 -76.75 3.191406 -60.085938 3.191406 -39.527344 Z M 3.191406 -39.527344 "/></g></g></g><g fill="#100f0d" fill-opacity="0.302"><g transform="translate(608.453697, 658.666451)"><g><path d="M 67.53125 -52.640625 L 67.53125 -0.710938 L 53.351562 -0.710938 L 53.351562 -52.464844 C 50.871094 -56.1875 48.742188 -59.199219 44.667969 -60.085938 C 39.527344 -60.972656 36.335938 -60.441406 31.371094 -58.492188 C 30.839844 -58.3125 30.308594 -58.3125 30.308594 -57.960938 L 30.308594 0 L 5.847656 0 L 5.847656 -76.039062 L 30.308594 -76.039062 L 30.308594 -69.304688 C 33.675781 -71.078125 37.398438 -72.316406 42.007812 -73.378906 C 49.097656 -75.152344 54.945312 -75.332031 60.617188 -70.722656 C 66.46875 -65.9375 66.644531 -60.265625 67.53125 -52.640625 Z M 67.53125 -52.640625 "/></g></g></g><g fill="#100f0d" fill-opacity="0.302"><g transform="translate(683.074299, 658.666451)"><g><path d="M 21.269531 -39.527344 C 21.269531 -48.921875 28.890625 -56.542969 38.285156 -56.542969 C 47.679688 -56.542969 55.300781 -48.921875 55.300781 -39.527344 C 55.300781 -30.132812 47.679688 -22.511719 38.285156 -22.511719 C 28.890625 -22.511719 21.269531 -30.132812 21.269531 -39.527344 Z M 3.191406 -39.527344 C 3.191406 -18.964844 18.433594 -2.304688 37.222656 -2.304688 C 56.011719 -2.304688 71.253906 -18.964844 71.253906 -39.527344 C 71.253906 -60.085938 56.011719 -76.75 37.222656 -76.75 C 18.433594 -76.75 3.191406 -60.085938 3.191406 -39.527344 Z M 3.191406 -39.527344 "/></g></g></g><g fill="#100f0d" fill-opacity="0.502"><g transform="translate(75.262999, 650.833139)"><g><path d="M 22.863281 -112.199219 C 28.714844 -112.019531 40.945312 -112.199219 46.617188 -110.78125 C 50.871094 -109.714844 53.707031 -109.007812 56.1875 -105.460938 C 58.847656 -101.738281 58.667969 -98.371094 58.847656 -93.765625 C 59.023438 -89.863281 59.554688 -86.851562 56.71875 -84.191406 C 53.351562 -80.824219 40.765625 -82.773438 36.160156 -81.355469 L 22.332031 -80.824219 Z M 4.785156 0 L 21.09375 0 L 20.5625 -64.339844 C 33.855469 -67 51.757812 -63.632812 63.453125 -70.367188 C 69.660156 -73.914062 70.542969 -80.117188 71.429688 -87.382812 C 72.316406 -95.714844 71.253906 -100.675781 67.707031 -108.121094 C 64.695312 -114.324219 61.503906 -118.402344 54.945312 -121.414062 C 46.085938 -125.492188 31.726562 -124.605469 22.6875 -126.023438 L 4.785156 -126.023438 Z M 4.785156 0 "/></g></g></g><g fill="#100f0d" fill-opacity="0.502"><g transform="translate(151.833308, 650.833139)"><g><path d="M 17.191406 -55.300781 L 56.1875 -56.363281 C 55.300781 -60.265625 56.894531 -63.632812 54.058594 -66.46875 C 49.628906 -70.898438 45.90625 -72.847656 39.703125 -73.378906 C 31.726562 -73.914062 28.890625 -74.796875 23.21875 -69.125 C 19.144531 -65.050781 17.726562 -60.441406 17.191406 -55.300781 Z M 15.953125 -41.832031 C 15.597656 -33.144531 13.824219 -36.160156 17.902344 -27.828125 C 20.738281 -21.800781 28.535156 -19.675781 35.273438 -19.144531 C 47.503906 -17.902344 42.894531 -19.144531 54.945312 -23.398438 L 61.859375 -30.839844 L 75.152344 -22.332031 C 67.53125 -16.308594 67.707031 -9.570312 58.667969 -5.847656 C 48.386719 -1.59375 46.4375 -0.53125 35.273438 -1.59375 C 24.816406 -2.480469 16.308594 -2.835938 9.75 -11.167969 C 1.59375 -21.269531 3.898438 -21.625 3.011719 -34.5625 C 1.949219 -48.921875 1.242188 -57.429688 5.140625 -71.253906 C 7.621094 -79.9375 10.457031 -85.964844 18.433594 -90.394531 C 26.941406 -95.003906 34.207031 -94.648438 43.957031 -92.523438 C 54.945312 -90.21875 62.390625 -87.914062 69.480469 -79.230469 C 75.507812 -71.609375 72.316406 -64.339844 74.265625 -54.769531 L 74.265625 -40.945312 Z M 15.953125 -41.832031 "/></g></g></g><g fill="#100f0d" fill-opacity="0.502"><g transform="translate(233.366507, 650.833139)"><g><path d="M 67.53125 -52.640625 L 67.53125 -0.710938 L 53.351562 -0.710938 L 53.351562 -52.464844 C 50.871094 -56.1875 48.742188 -59.199219 44.667969 -60.085938 C 39.527344 -60.972656 36.335938 -60.441406 31.371094 -58.492188 C 30.839844 -58.3125 30.308594 -58.3125 30.308594 -57.960938 L 30.308594 0 L 5.847656 0 L 5.847656 -76.039062 L 30.308594 -76.039062 L 30.308594 -69.304688 C 33.675781 -71.078125 37.398438 -72.316406 42.007812 -73.378906 C 49.097656 -75.152344 54.945312 -75.332031 60.617188 -70.722656 C 66.46875 -65.9375 66.644531 -60.265625 67.53125 -52.640625 Z M 67.53125 -52.640625 "/></g></g></g><g fill="#100f0d" fill-opacity="0.502"><g transform="translate(307.987109, 650.833139)"><g><path d="M 16.484375 -106.878906 L 16.484375 -82.421875 L 4.785156 -82.421875 L 4.785156 -59.554688 L 16.484375 -59.554688 L 16.484375 0 L 40.414062 0 L 40.414062 -59.554688 L 53.175781 -59.554688 L 53.175781 -82.421875 L 40.414062 -82.421875 L 40.414062 -106.878906 Z M 16.484375 -106.878906 "/></g></g></g><g fill="#100f0d" fill-opacity="0.502"><g transform="translate(369.314254, 650.833139)"><g><path d="M 40.589844 -111.84375 L 27.296875 -81.003906 L 40.765625 -81.003906 L 61.859375 -111.84375 Z M 43.070312 -76.039062 L 43.070312 -70.542969 C 41.832031 -71.078125 40.589844 -71.609375 39.347656 -72.316406 C 31.550781 -75.507812 25.699219 -76.394531 18.078125 -72.847656 C 11.167969 -69.660156 8.683594 -64.695312 6.914062 -57.429688 C 3.722656 -44.667969 4.429688 -36.511719 5.847656 -23.398438 C 6.734375 -15.773438 6.914062 -10.101562 12.761719 -5.316406 C 18.433594 -0.710938 24.28125 -0.886719 31.371094 -2.660156 C 35.804688 -3.546875 39.527344 -4.785156 43.070312 -6.558594 L 43.070312 0 L 67.53125 0 L 67.53125 -76.039062 Z M 43.070312 -17.902344 C 42.714844 -17.726562 42.363281 -17.546875 42.007812 -17.546875 C 37.042969 -15.421875 33.855469 -15.066406 28.714844 -15.953125 C 24.460938 -16.660156 21.09375 -17.546875 18.609375 -21.269531 C 15.066406 -26.585938 15.242188 -30.839844 14.890625 -37.222656 C 14.710938 -41.121094 15.066406 -43.425781 17.015625 -46.792969 C 19.675781 -51.222656 21.269531 -54.59375 26.054688 -56.363281 C 31.195312 -58.136719 34.207031 -55.476562 39.347656 -54.769531 L 43.070312 -51.402344 Z M 43.070312 -17.902344 "/></g></g></g><g fill="#100f0d" fill-opacity="0.502"><g transform="translate(443.934856, 650.833139)"><g><path d="M 75.507812 -87.207031 C 75.683594 -59.554688 77.28125 -43.957031 76.039062 -16.484375 C 75.507812 -5.847656 74.796875 0.175781 71.253906 10.101562 C 69.125 15.953125 67 19.144531 62.214844 22.863281 C 57.25 26.585938 53.707031 27.117188 47.855469 28.183594 C 38.996094 29.777344 33.855469 29.777344 24.992188 29.246094 C 15.242188 28.535156 9.75 26.585938 0 24.992188 L 6.382812 2.660156 C 14.535156 5.140625 18.609375 8.863281 27.117188 9.039062 C 34.917969 9.21875 40.058594 8.507812 46.261719 3.722656 C 51.222656 -0.175781 52.109375 -4.785156 53.175781 -11.167969 C 54.59375 -19.675781 53.175781 -11.875 52.996094 -20.5625 L 52.996094 -24.28125 C 48.210938 -21.800781 38.996094 -19.320312 32.96875 -17.015625 C 28.535156 -15.242188 23.574219 -20.382812 19.144531 -20.914062 C 15.242188 -21.269531 12.9375 -25.699219 10.457031 -28.890625 C 5.496094 -34.917969 5.140625 -43.78125 3.722656 -51.222656 C 2.128906 -59.023438 7.089844 -63.632812 9.039062 -71.253906 C 10.28125 -76.039062 11.519531 -79.761719 15.953125 -82.421875 C 21.625 -85.964844 26.234375 -87.207031 32.96875 -86.140625 C 40.414062 -84.902344 46.085938 -84.015625 51.578125 -80.648438 L 51.578125 -87.207031 Z M 51.933594 -63.808594 C 46.792969 -66.113281 43.601562 -71.785156 37.222656 -74.976562 C 34.207031 -76.394531 32.257812 -77.632812 29.246094 -76.570312 C 25.167969 -75.152344 22.511719 -73.558594 21.269531 -69.660156 C 18.789062 -62.390625 19.675781 -58.847656 18.257812 -51.578125 C 17.015625 -46.4375 18.609375 -35.625 24.992188 -34.207031 C 31.195312 -32.613281 37.222656 -30.308594 43.070312 -32.4375 C 45.199219 -33.144531 50.871094 -36.511719 52.640625 -37.578125 Z M 51.933594 -63.808594 "/></g></g></g><g fill="#100f0d" fill-opacity="0.502"><g transform="translate(525.468056, 650.833139)"><g><path d="M 21.269531 -39.527344 C 21.269531 -48.921875 28.890625 -56.542969 38.285156 -56.542969 C 47.679688 -56.542969 55.300781 -48.921875 55.300781 -39.527344 C 55.300781 -30.132812 47.679688 -22.511719 38.285156 -22.511719 C 28.890625 -22.511719 21.269531 -30.132812 21.269531 -39.527344 Z M 3.191406 -39.527344 C 3.191406 -18.964844 18.433594 -2.304688 37.222656 -2.304688 C 56.011719 -2.304688 71.253906 -18.964844 71.253906 -39.527344 C 71.253906 -60.085938 56.011719 -76.75 37.222656 -76.75 C 18.433594 -76.75 3.191406 -60.085938 3.191406 -39.527344 Z M 3.191406 -39.527344 "/></g></g></g><g fill="#100f0d" fill-opacity="0.502"><g transform="translate(600.620395, 650.833139)"><g><path d="M 67.53125 -52.640625 L 67.53125 -0.710938 L 53.351562 -0.710938 L 53.351562 -52.464844 C 50.871094 -56.1875 48.742188 -59.199219 44.667969 -60.085938 C 39.527344 -60.972656 36.335938 -60.441406 31.371094 -58.492188 C 30.839844 -58.3125 30.308594 -58.3125 30.308594 -57.960938 L 30.308594 0 L 5.847656 0 L 5.847656 -76.039062 L 30.308594 -76.039062 L 30.308594 -69.304688 C 33.675781 -71.078125 37.398438 -72.316406 42.007812 -73.378906 C 49.097656 -75.152344 54.945312 -75.332031 60.617188 -70.722656 C 66.46875 -65.9375 66.644531 -60.265625 67.53125 -52.640625 Z M 67.53125 -52.640625 "/></g></g></g><g fill="#100f0d" fill-opacity="0.502"><g transform="translate(675.240997, 650.833139)"><g><path d="M 21.269531 -39.527344 C 21.269531 -48.921875 28.890625 -56.542969 38.285156 -56.542969 C 47.679688 -56.542969 55.300781 -48.921875 55.300781 -39.527344 C 55.300781 -30.132812 47.679688 -22.511719 38.285156 -22.511719 C 28.890625 -22.511719 21.269531 -30.132812 21.269531 -39.527344 Z M 3.191406 -39.527344 C 3.191406 -18.964844 18.433594 -2.304688 37.222656 -2.304688 C 56.011719 -2.304688 71.253906 -18.964844 71.253906 -39.527344 C 71.253906 -60.085938 56.011719 -76.75 37.222656 -76.75 C 18.433594 -76.75 3.191406 -60.085938 3.191406 -39.527344 Z M 3.191406 -39.527344 "/></g></g></g><g fill="#32af8d" fill-opacity="1"><g transform="translate(67.429687, 642.999828)"><g><path d="M 22.863281 -112.199219 C 28.714844 -112.019531 40.945312 -112.199219 46.617188 -110.78125 C 50.871094 -109.714844 53.707031 -109.007812 56.1875 -105.460938 C 58.847656 -101.738281 58.667969 -98.371094 58.847656 -93.765625 C 59.023438 -89.863281 59.554688 -86.851562 56.71875 -84.191406 C 53.351562 -80.824219 40.765625 -82.773438 36.160156 -81.355469 L 22.332031 -80.824219 Z M 4.785156 0 L 21.09375 0 L 20.5625 -64.339844 C 33.855469 -67 51.757812 -63.632812 63.453125 -70.367188 C 69.660156 -73.914062 70.542969 -80.117188 71.429688 -87.382812 C 72.316406 -95.714844 71.253906 -100.675781 67.707031 -108.121094 C 64.695312 -114.324219 61.503906 -118.402344 54.945312 -121.414062 C 46.085938 -125.492188 31.726562 -124.605469 22.6875 -126.023438 L 4.785156 -126.023438 Z M 4.785156 0 "/></g></g></g><g fill="#32af8d" fill-opacity="1"><g transform="translate(143.999996, 642.999828)"><g><path d="M 17.191406 -55.300781 L 56.1875 -56.363281 C 55.300781 -60.265625 56.894531 -63.632812 54.058594 -66.46875 C 49.628906 -70.898438 45.90625 -72.847656 39.703125 -73.378906 C 31.726562 -73.914062 28.890625 -74.796875 23.21875 -69.125 C 19.144531 -65.050781 17.726562 -60.441406 17.191406 -55.300781 Z M 15.953125 -41.832031 C 15.597656 -33.144531 13.824219 -36.160156 17.902344 -27.828125 C 20.738281 -21.800781 28.535156 -19.675781 35.273438 -19.144531 C 47.503906 -17.902344 42.894531 -19.144531 54.945312 -23.398438 L 61.859375 -30.839844 L 75.152344 -22.332031 C 67.53125 -16.308594 67.707031 -9.570312 58.667969 -5.847656 C 48.386719 -1.59375 46.4375 -0.53125 35.273438 -1.59375 C 24.816406 -2.480469 16.308594 -2.835938 9.75 -11.167969 C 1.59375 -21.269531 3.898438 -21.625 3.011719 -34.5625 C 1.949219 -48.921875 1.242188 -57.429688 5.140625 -71.253906 C 7.621094 -79.9375 10.457031 -85.964844 18.433594 -90.394531 C 26.941406 -95.003906 34.207031 -94.648438 43.957031 -92.523438 C 54.945312 -90.21875 62.390625 -87.914062 69.480469 -79.230469 C 75.507812 -71.609375 72.316406 -64.339844 74.265625 -54.769531 L 74.265625 -40.945312 Z M 15.953125 -41.832031 "/></g></g></g><g fill="#32af8d" fill-opacity="1"><g transform="translate(225.533195, 642.999828)"><g><path d="M 67.53125 -52.640625 L 67.53125 -0.710938 L 53.351562 -0.710938 L 53.351562 -52.464844 C 50.871094 -56.1875 48.742188 -59.199219 44.667969 -60.085938 C 39.527344 -60.972656 36.335938 -60.441406 31.371094 -58.492188 C 30.839844 -58.3125 30.308594 -58.3125 30.308594 -57.960938 L 30.308594 0 L 5.847656 0 L 5.847656 -76.039062 L 30.308594 -76.039062 L 30.308594 -69.304688 C 33.675781 -71.078125 37.398438 -72.316406 42.007812 -73.378906 C 49.097656 -75.152344 54.945312 -75.332031 60.617188 -70.722656 C 66.46875 -65.9375 66.644531 -60.265625 67.53125 -52.640625 Z M 67.53125 -52.640625 "/></g></g></g><g fill="#32af8d" fill-opacity="1"><g transform="translate(300.153797, 642.999828)"><g><path d="M 16.484375 -106.878906 L 16.484375 -82.421875 L 4.785156 -82.421875 L 4.785156 -59.554688 L 16.484375 -59.554688 L 16.484375 0 L 40.414062 0 L 40.414062 -59.554688 L 53.175781 -59.554688 L 53.175781 -82.421875 L 40.414062 -82.421875 L 40.414062 -106.878906 Z M 16.484375 -106.878906 "/></g></g></g><g fill="#32af8d" fill-opacity="1"><g transform="translate(361.480943, 642.999828)"><g><path d="M 40.589844 -111.84375 L 27.296875 -81.003906 L 40.765625 -81.003906 L 61.859375 -111.84375 Z M 43.070312 -76.039062 L 43.070312 -70.542969 C 41.832031 -71.078125 40.589844 -71.609375 39.347656 -72.316406 C 31.550781 -75.507812 25.699219 -76.394531 18.078125 -72.847656 C 11.167969 -69.660156 8.683594 -64.695312 6.914062 -57.429688 C 3.722656 -44.667969 4.429688 -36.511719 5.847656 -23.398438 C 6.734375 -15.773438 6.914062 -10.101562 12.761719 -5.316406 C 18.433594 -0.710938 24.28125 -0.886719 31.371094 -2.660156 C 35.804688 -3.546875 39.527344 -4.785156 43.070312 -6.558594 L 43.070312 0 L 67.53125 0 L 67.53125 -76.039062 Z M 43.070312 -17.902344 C 42.714844 -17.726562 42.363281 -17.546875 42.007812 -17.546875 C 37.042969 -15.421875 33.855469 -15.066406 28.714844 -15.953125 C 24.460938 -16.660156 21.09375 -17.546875 18.609375 -21.269531 C 15.066406 -26.585938 15.242188 -30.839844 14.890625 -37.222656 C 14.710938 -41.121094 15.066406 -43.425781 17.015625 -46.792969 C 19.675781 -51.222656 21.269531 -54.59375 26.054688 -56.363281 C 31.195312 -58.136719 34.207031 -55.476562 39.347656 -54.769531 L 43.070312 -51.402344 Z M 43.070312 -17.902344 "/></g></g></g><g fill="#32af8d" fill-opacity="1"><g transform="translate(436.101545, 642.999828)"><g><path d="M 75.507812 -87.207031 C 75.683594 -59.554688 77.28125 -43.957031 76.039062 -16.484375 C 75.507812 -5.847656 74.796875 0.175781 71.253906 10.101562 C 69.125 15.953125 67 19.144531 62.214844 22.863281 C 57.25 26.585938 53.707031 27.117188 47.855469 28.183594 C 38.996094 29.777344 33.855469 29.777344 24.992188 29.246094 C 15.242188 28.535156 9.75 26.585938 0 24.992188 L 6.382812 2.660156 C 14.535156 5.140625 18.609375 8.863281 27.117188 9.039062 C 34.917969 9.21875 40.058594 8.507812 46.261719 3.722656 C 51.222656 -0.175781 52.109375 -4.785156 53.175781 -11.167969 C 54.59375 -19.675781 53.175781 -11.875 52.996094 -20.5625 L 52.996094 -24.28125 C 48.210938 -21.800781 38.996094 -19.320312 32.96875 -17.015625 C 28.535156 -15.242188 23.574219 -20.382812 19.144531 -20.914062 C 15.242188 -21.269531 12.9375 -25.699219 10.457031 -28.890625 C 5.496094 -34.917969 5.140625 -43.78125 3.722656 -51.222656 C 2.128906 -59.023438 7.089844 -63.632812 9.039062 -71.253906 C 10.28125 -76.039062 11.519531 -79.761719 15.953125 -82.421875 C 21.625 -85.964844 26.234375 -87.207031 32.96875 -86.140625 C 40.414062 -84.902344 46.085938 -84.015625 51.578125 -80.648438 L 51.578125 -87.207031 Z M 51.933594 -63.808594 C 46.792969 -66.113281 43.601562 -71.785156 37.222656 -74.976562 C 34.207031 -76.394531 32.257812 -77.632812 29.246094 -76.570312 C 25.167969 -75.152344 22.511719 -73.558594 21.269531 -69.660156 C 18.789062 -62.390625 19.675781 -58.847656 18.257812 -51.578125 C 17.015625 -46.4375 18.609375 -35.625 24.992188 -34.207031 C 31.195312 -32.613281 37.222656 -30.308594 43.070312 -32.4375 C 45.199219 -33.144531 50.871094 -36.511719 52.640625 -37.578125 Z M 51.933594 -63.808594 "/></g></g></g><g fill="#32af8d" fill-opacity="1"><g transform="translate(517.634744, 642.999828)"><g><path d="M 21.269531 -39.527344 C 21.269531 -48.921875 28.890625 -56.542969 38.285156 -56.542969 C 47.679688 -56.542969 55.300781 -48.921875 55.300781 -39.527344 C 55.300781 -30.132812 47.679688 -22.511719 38.285156 -22.511719 C 28.890625 -22.511719 21.269531 -30.132812 21.269531 -39.527344 Z M 3.191406 -39.527344 C 3.191406 -18.964844 18.433594 -2.304688 37.222656 -2.304688 C 56.011719 -2.304688 71.253906 -18.964844 71.253906 -39.527344 C 71.253906 -60.085938 56.011719 -76.75 37.222656 -76.75 C 18.433594 -76.75 3.191406 -60.085938 3.191406 -39.527344 Z M 3.191406 -39.527344 "/></g></g></g><g fill="#32af8d" fill-opacity="1"><g transform="translate(592.787084, 642.999828)"><g><path d="M 67.53125 -52.640625 L 67.53125 -0.710938 L 53.351562 -0.710938 L 53.351562 -52.464844 C 50.871094 -56.1875 48.742188 -59.199219 44.667969 -60.085938 C 39.527344 -60.972656 36.335938 -60.441406 31.371094 -58.492188 C 30.839844 -58.3125 30.308594 -58.3125 30.308594 -57.960938 L 30.308594 0 L 5.847656 0 L 5.847656 -76.039062 L 30.308594 -76.039062 L 30.308594 -69.304688 C 33.675781 -71.078125 37.398438 -72.316406 42.007812 -73.378906 C 49.097656 -75.152344 54.945312 -75.332031 60.617188 -70.722656 C 66.46875 -65.9375 66.644531 -60.265625 67.53125 -52.640625 Z M 67.53125 -52.640625 "/></g></g></g><g fill="#32af8d" fill-opacity="1"><g transform="translate(667.407686, 642.999828)"><g><path d="M 21.269531 -39.527344 C 21.269531 -48.921875 28.890625 -56.542969 38.285156 -56.542969 C 47.679688 -56.542969 55.300781 -48.921875 55.300781 -39.527344 C 55.300781 -30.132812 47.679688 -22.511719 38.285156 -22.511719 C 28.890625 -22.511719 21.269531 -30.132812 21.269531 -39.527344 Z M 3.191406 -39.527344 C 3.191406 -18.964844 18.433594 -2.304688 37.222656 -2.304688 C 56.011719 -2.304688 71.253906 -18.964844 71.253906 -39.527344 C 71.253906 -60.085938 56.011719 -76.75 37.222656 -76.75 C 18.433594 -76.75 3.191406 -60.085938 3.191406 -39.527344 Z M 3.191406 -39.527344 "/></g></g></g></svg>