<svg xmlns="http://www.w3.org/2000/svg" xmlns:xlink="http://www.w3.org/1999/xlink" width="1080" zoomAndPan="magnify" viewBox="0 0 810 809.999993" height="1080" preserveAspectRatio="xMidYMid meet" version="1.0"><defs><g/><clipPath id="id1"><path d="M 182.25 177.476562 L 627.75 177.476562 L 627.75 420.476562 L 182.25 420.476562 Z M 182.25 177.476562 " clip-rule="nonzero"/></clipPath><clipPath id="id2"><path d="M 309.542969 240.269531 L 500.792969 240.269531 L 500.792969 298.769531 L 309.542969 298.769531 Z M 309.542969 240.269531 " clip-rule="nonzero"/></clipPath></defs><rect x="-81" width="972" fill="#ffffff" y="-80.999999" height="971.999992" fill-opacity="1"/><rect x="-81" width="972" fill="#ffffff" y="-80.999999" height="971.999992" fill-opacity="1"/><rect x="-81" width="972" fill="#ffffff" y="-80.999999" height="971.999992" fill-opacity="1"/><g clip-path="url(#id1)"><path stroke-linecap="butt" transform="matrix(0.75, 0, 0, 0.75, 182.249994, 177.474856)" fill-opacity="1" fill="#81d82a" fill-rule="nonzero" stroke-linejoin="miter" d="M 0.00000755833 0.0022755 L 594.000037 0.0022755 L 594.000037 324.002292 L 0.00000755833 324.002292 L 0.00000755833 0.0022755 " stroke="#000000" stroke-width="30" stroke-opacity="1" stroke-miterlimit="4"/></g><g clip-path="url(#id2)"><path fill="#000000" d="M 500.5625 269.519531 C 500.5625 285.679688 487.40625 298.769531 471.160156 298.769531 C 454.914062 298.769531 441.757812 285.679688 441.757812 269.519531 C 441.757812 253.359375 454.914062 240.269531 471.160156 240.269531 C 487.40625 240.269531 500.5625 253.359375 500.5625 269.519531 Z M 339.175781 240.269531 C 322.929688 240.269531 309.773438 253.359375 309.773438 269.519531 C 309.773438 285.679688 322.929688 298.769531 339.175781 298.769531 C 355.417969 298.769531 368.578125 285.679688 368.578125 269.519531 C 368.578125 253.359375 355.417969 240.269531 339.175781 240.269531 Z M 339.175781 240.269531 " fill-opacity="1" fill-rule="nonzero"/></g><path fill="#ffffff" d="M 471.875 264.519531 C 471.875 270.824219 466.738281 275.9375 460.398438 275.9375 C 454.0625 275.9375 448.925781 270.824219 448.925781 264.519531 C 448.925781 258.21875 454.0625 253.105469 460.398438 253.105469 C 466.738281 253.105469 471.875 258.21875 471.875 264.519531 Z M 486.207031 277.382812 C 483.832031 277.382812 481.898438 279.304688 481.898438 281.667969 C 481.898438 284.027344 483.832031 285.953125 486.207031 285.953125 C 488.582031 285.953125 490.515625 284.027344 490.515625 281.667969 C 490.515625 279.285156 488.601562 277.382812 486.207031 277.382812 Z M 349.933594 253.105469 C 343.597656 253.105469 338.460938 258.21875 338.460938 264.519531 C 338.460938 270.824219 343.597656 275.9375 349.933594 275.9375 C 356.273438 275.9375 361.410156 270.824219 361.410156 264.519531 C 361.410156 258.21875 356.273438 253.105469 349.933594 253.105469 Z M 324.128906 277.382812 C 321.753906 277.382812 319.820312 279.304688 319.820312 281.667969 C 319.820312 284.027344 321.753906 285.953125 324.128906 285.953125 C 326.5 285.953125 328.4375 284.027344 328.4375 281.667969 C 328.414062 279.285156 326.5 277.382812 324.128906 277.382812 Z M 324.128906 277.382812 " fill-opacity="1" fill-rule="nonzero"/><g fill="#100f0d" fill-opacity="0.302"><g transform="translate(59.436145, 595.416614)"><g><path d="M 21.800781 -95.183594 L 28.183594 -95.003906 L 49.453125 -95.890625 C 56.363281 -90.75 57.960938 -88.625 59.023438 -81.003906 C 60.085938 -72.140625 51.046875 -65.050781 42.007812 -67.175781 C 37.222656 -67 26.410156 -66.289062 21.800781 -67 Z M 21.800781 -44.667969 C 22.6875 -44.84375 23.574219 -45.019531 24.460938 -45.199219 C 39.347656 -48.035156 46.617188 -33.5 45.199219 -21.269531 C 43.425781 -8.332031 53.175781 3.546875 66.46875 3.191406 C 70.367188 3.191406 74.445312 1.417969 74.445312 -2.660156 C 74.445312 -3.367188 74.976562 -5.316406 73.914062 -5.316406 C 72.847656 -5.316406 72.847656 -4.609375 71.253906 -4.785156 C 64.164062 -4.785156 59.199219 -25.699219 60.085938 -34.03125 C 60.972656 -43.601562 40.589844 -62.214844 46.085938 -55.476562 C 44.84375 -57.25 46.261719 -58.136719 52.640625 -57.960938 C 60.441406 -57.605469 74.976562 -61.859375 74.976562 -74.976562 C 74.796875 -87.382812 77.8125 -101.917969 59.554688 -111.132812 C 56.71875 -112.375 51.933594 -109.183594 48.921875 -110.601562 L 6.382812 -110.601562 L 6.382812 0 L 21.800781 0 Z M 21.800781 -44.667969 "/></g></g></g><g fill="#100f0d" fill-opacity="0.302"><g transform="translate(140.614851, 595.416614)"><g><path d="M 17.191406 -55.300781 L 56.1875 -56.363281 C 55.300781 -60.265625 56.894531 -63.632812 54.058594 -66.46875 C 49.628906 -70.898438 45.90625 -72.847656 39.703125 -73.378906 C 31.726562 -73.914062 28.890625 -74.796875 23.21875 -69.125 C 19.144531 -65.050781 17.726562 -60.441406 17.191406 -55.300781 Z M 15.953125 -41.832031 C 15.597656 -33.144531 13.824219 -36.160156 17.902344 -27.828125 C 20.738281 -21.800781 28.535156 -19.675781 35.273438 -19.144531 C 47.503906 -17.902344 42.894531 -19.144531 54.945312 -23.398438 L 61.859375 -30.839844 L 75.152344 -22.332031 C 67.53125 -16.308594 67.707031 -9.570312 58.667969 -5.847656 C 48.386719 -1.59375 46.4375 -0.53125 35.273438 -1.59375 C 24.816406 -2.480469 16.308594 -2.835938 9.75 -11.167969 C 1.59375 -21.269531 3.898438 -21.625 3.011719 -34.5625 C 1.949219 -48.921875 1.242188 -57.429688 5.140625 -71.253906 C 7.621094 -79.9375 10.457031 -85.964844 18.433594 -90.394531 C 26.941406 -95.003906 34.207031 -94.648438 43.957031 -92.523438 C 54.945312 -90.21875 62.390625 -87.914062 69.480469 -79.230469 C 75.507812 -71.609375 72.316406 -64.339844 74.265625 -54.769531 L 74.265625 -40.945312 Z M 15.953125 -41.832031 "/></g></g></g><g fill="#100f0d" fill-opacity="0.302"><g transform="translate(222.148051, 595.416614)"><g><path d="M 55.832031 -35.09375 C 53.882812 -30.308594 50.160156 -26.410156 45.550781 -24.28125 C 42.894531 -23.042969 39.878906 -22.332031 36.867188 -22.332031 C 34.742188 -22.332031 32.789062 -22.6875 30.839844 -23.398438 C 24.816406 -25.167969 19.851562 -29.953125 17.726562 -35.804688 C 16.839844 -37.929688 17.191406 -40.414062 17.191406 -42.714844 C 17.191406 -46.617188 17.546875 -50.339844 19.675781 -53.707031 C 22.332031 -57.960938 26.585938 -61.148438 31.550781 -62.390625 C 33.144531 -62.746094 34.742188 -63.101562 36.511719 -63.101562 C 39.878906 -63.101562 43.25 -62.214844 46.261719 -60.617188 C 49.628906 -58.667969 52.464844 -55.65625 54.238281 -52.109375 L 69.660156 -62.214844 C 67.886719 -67 64.871094 -71.429688 60.972656 -74.796875 C 57.074219 -78.167969 52.289062 -80.648438 47.324219 -81.886719 C 44.84375 -82.421875 42.363281 -82.597656 39.878906 -82.597656 C 36.867188 -82.597656 33.855469 -82.242188 30.839844 -81.535156 C 25.523438 -80.117188 20.5625 -77.457031 16.484375 -73.914062 C 7.800781 -66.644531 5.671875 -56.011719 4.785156 -44.84375 C 4.609375 -43.601562 4.609375 -42.363281 4.609375 -40.945312 C 4.609375 -31.195312 4.785156 -21.269531 11.167969 -13.824219 C 17.371094 -6.382812 26.410156 -1.417969 36.160156 -0.710938 C 36.867188 -0.53125 37.578125 -0.53125 38.285156 -0.53125 C 47.324219 -0.53125 56.1875 -4.429688 62.214844 -11.167969 C 65.582031 -15.066406 68.0625 -19.851562 69.125 -24.992188 Z M 55.832031 -35.09375 "/></g></g></g><g fill="#100f0d" fill-opacity="0.302"><g transform="translate(296.768653, 595.416614)"><g><path d="M 16.484375 -106.878906 L 16.484375 -82.421875 L 4.785156 -82.421875 L 4.785156 -59.554688 L 16.484375 -59.554688 L 16.484375 0 L 40.414062 0 L 40.414062 -59.554688 L 53.175781 -59.554688 L 53.175781 -82.421875 L 40.414062 -82.421875 L 40.414062 -106.878906 Z M 16.484375 -106.878906 "/></g></g></g><g fill="#100f0d" fill-opacity="0.302"><g transform="translate(358.095798, 595.416614)"><g><path d="M 40.589844 -111.84375 L 27.296875 -81.003906 L 40.765625 -81.003906 L 61.859375 -111.84375 Z M 43.070312 -76.039062 L 43.070312 -70.542969 C 41.832031 -71.078125 40.589844 -71.609375 39.347656 -72.316406 C 31.550781 -75.507812 25.699219 -76.394531 18.078125 -72.847656 C 11.167969 -69.660156 8.683594 -64.695312 6.914062 -57.429688 C 3.722656 -44.667969 4.429688 -36.511719 5.847656 -23.398438 C 6.734375 -15.773438 6.914062 -10.101562 12.761719 -5.316406 C 18.433594 -0.710938 24.28125 -0.886719 31.371094 -2.660156 C 35.804688 -3.546875 39.527344 -4.785156 43.070312 -6.558594 L 43.070312 0 L 67.53125 0 L 67.53125 -76.039062 Z M 43.070312 -17.902344 C 42.714844 -17.726562 42.363281 -17.546875 42.007812 -17.546875 C 37.042969 -15.421875 33.855469 -15.066406 28.714844 -15.953125 C 24.460938 -16.660156 21.09375 -17.546875 18.609375 -21.269531 C 15.066406 -26.585938 15.242188 -30.839844 14.890625 -37.222656 C 14.710938 -41.121094 15.066406 -43.425781 17.015625 -46.792969 C 19.675781 -51.222656 21.269531 -54.59375 26.054688 -56.363281 C 31.195312 -58.136719 34.207031 -55.476562 39.347656 -54.769531 L 43.070312 -51.402344 Z M 43.070312 -17.902344 "/></g></g></g><g fill="#100f0d" fill-opacity="0.302"><g transform="translate(432.7164, 595.416614)"><g><path d="M 67.53125 -52.640625 L 67.53125 -0.710938 L 53.351562 -0.710938 L 53.351562 -52.464844 C 50.871094 -56.1875 48.742188 -59.199219 44.667969 -60.085938 C 39.527344 -60.972656 36.335938 -60.441406 31.371094 -58.492188 C 30.839844 -58.3125 30.308594 -58.3125 30.308594 -57.960938 L 30.308594 0 L 5.847656 0 L 5.847656 -76.039062 L 30.308594 -76.039062 L 30.308594 -69.304688 C 33.675781 -71.078125 37.398438 -72.316406 42.007812 -73.378906 C 49.097656 -75.152344 54.945312 -75.332031 60.617188 -70.722656 C 66.46875 -65.9375 66.644531 -60.265625 67.53125 -52.640625 Z M 67.53125 -52.640625 "/></g></g></g><g fill="#100f0d" fill-opacity="0.302"><g transform="translate(507.337002, 595.416614)"><g><path d="M 75.507812 -87.207031 C 75.683594 -59.554688 77.28125 -43.957031 76.039062 -16.484375 C 75.507812 -5.847656 74.796875 0.175781 71.253906 10.101562 C 69.125 15.953125 67 19.144531 62.214844 22.863281 C 57.25 26.585938 53.707031 27.117188 47.855469 28.183594 C 38.996094 29.777344 33.855469 29.777344 24.992188 29.246094 C 15.242188 28.535156 9.75 26.585938 0 24.992188 L 6.382812 2.660156 C 14.535156 5.140625 18.609375 8.863281 27.117188 9.039062 C 34.917969 9.21875 40.058594 8.507812 46.261719 3.722656 C 51.222656 -0.175781 52.109375 -4.785156 53.175781 -11.167969 C 54.59375 -19.675781 53.175781 -11.875 52.996094 -20.5625 L 52.996094 -24.28125 C 48.210938 -21.800781 38.996094 -19.320312 32.96875 -17.015625 C 28.535156 -15.242188 23.574219 -20.382812 19.144531 -20.914062 C 15.242188 -21.269531 12.9375 -25.699219 10.457031 -28.890625 C 5.496094 -34.917969 5.140625 -43.78125 3.722656 -51.222656 C 2.128906 -59.023438 7.089844 -63.632812 9.039062 -71.253906 C 10.28125 -76.039062 11.519531 -79.761719 15.953125 -82.421875 C 21.625 -85.964844 26.234375 -87.207031 32.96875 -86.140625 C 40.414062 -84.902344 46.085938 -84.015625 51.578125 -80.648438 L 51.578125 -87.207031 Z M 51.933594 -63.808594 C 46.792969 -66.113281 43.601562 -71.785156 37.222656 -74.976562 C 34.207031 -76.394531 32.257812 -77.632812 29.246094 -76.570312 C 25.167969 -75.152344 22.511719 -73.558594 21.269531 -69.660156 C 18.789062 -62.390625 19.675781 -58.847656 18.257812 -51.578125 C 17.015625 -46.4375 18.609375 -35.625 24.992188 -34.207031 C 31.195312 -32.613281 37.222656 -30.308594 43.070312 -32.4375 C 45.199219 -33.144531 50.871094 -36.511719 52.640625 -37.578125 Z M 51.933594 -63.808594 "/></g></g></g><g fill="#100f0d" fill-opacity="0.302"><g transform="translate(588.870201, 595.416614)"><g><path d="M 5.847656 -23.398438 L 5.847656 -75.332031 L 20.027344 -75.332031 L 20.027344 -23.574219 C 22.511719 -19.851562 24.460938 -16.660156 28.714844 -15.953125 C 33.855469 -15.066406 36.867188 -15.421875 42.007812 -17.546875 C 42.363281 -17.546875 43.070312 -17.726562 43.070312 -17.902344 L 43.070312 -76.039062 L 67.53125 -76.039062 L 67.53125 0 L 43.070312 0 L 43.070312 -6.558594 C 39.527344 -4.785156 35.804688 -3.546875 31.371094 -2.660156 C 24.28125 -0.886719 18.433594 -0.710938 12.761719 -5.316406 C 6.914062 -10.101562 6.734375 -15.773438 5.847656 -23.398438 Z M 5.847656 -23.398438 "/></g></g></g><g fill="#100f0d" fill-opacity="0.302"><g transform="translate(663.490803, 595.416614)"><g><path d="M 7.445312 -125.492188 L 7.445312 0 L 34.03125 0 L 34.03125 -125.492188 Z M 7.445312 -125.492188 "/></g></g></g><g fill="#100f0d" fill-opacity="0.302"><g transform="translate(706.738848, 595.416614)"><g><path d="M 21.269531 -39.527344 C 21.269531 -48.921875 28.890625 -56.542969 38.285156 -56.542969 C 47.679688 -56.542969 55.300781 -48.921875 55.300781 -39.527344 C 55.300781 -30.132812 47.679688 -22.511719 38.285156 -22.511719 C 28.890625 -22.511719 21.269531 -30.132812 21.269531 -39.527344 Z M 3.191406 -39.527344 C 3.191406 -18.964844 18.433594 -2.304688 37.222656 -2.304688 C 56.011719 -2.304688 71.253906 -18.964844 71.253906 -39.527344 C 71.253906 -60.085938 56.011719 -76.75 37.222656 -76.75 C 18.433594 -76.75 3.191406 -60.085938 3.191406 -39.527344 Z M 3.191406 -39.527344 "/></g></g></g><g fill="#100f0d" fill-opacity="0.502"><g transform="translate(51.60284, 587.583302)"><g><path d="M 21.800781 -95.183594 L 28.183594 -95.003906 L 49.453125 -95.890625 C 56.363281 -90.75 57.960938 -88.625 59.023438 -81.003906 C 60.085938 -72.140625 51.046875 -65.050781 42.007812 -67.175781 C 37.222656 -67 26.410156 -66.289062 21.800781 -67 Z M 21.800781 -44.667969 C 22.6875 -44.84375 23.574219 -45.019531 24.460938 -45.199219 C 39.347656 -48.035156 46.617188 -33.5 45.199219 -21.269531 C 43.425781 -8.332031 53.175781 3.546875 66.46875 3.191406 C 70.367188 3.191406 74.445312 1.417969 74.445312 -2.660156 C 74.445312 -3.367188 74.976562 -5.316406 73.914062 -5.316406 C 72.847656 -5.316406 72.847656 -4.609375 71.253906 -4.785156 C 64.164062 -4.785156 59.199219 -25.699219 60.085938 -34.03125 C 60.972656 -43.601562 40.589844 -62.214844 46.085938 -55.476562 C 44.84375 -57.25 46.261719 -58.136719 52.640625 -57.960938 C 60.441406 -57.605469 74.976562 -61.859375 74.976562 -74.976562 C 74.796875 -87.382812 77.8125 -101.917969 59.554688 -111.132812 C 56.71875 -112.375 51.933594 -109.183594 48.921875 -110.601562 L 6.382812 -110.601562 L 6.382812 0 L 21.800781 0 Z M 21.800781 -44.667969 "/></g></g></g><g fill="#100f0d" fill-opacity="0.502"><g transform="translate(132.781547, 587.583302)"><g><path d="M 17.191406 -55.300781 L 56.1875 -56.363281 C 55.300781 -60.265625 56.894531 -63.632812 54.058594 -66.46875 C 49.628906 -70.898438 45.90625 -72.847656 39.703125 -73.378906 C 31.726562 -73.914062 28.890625 -74.796875 23.21875 -69.125 C 19.144531 -65.050781 17.726562 -60.441406 17.191406 -55.300781 Z M 15.953125 -41.832031 C 15.597656 -33.144531 13.824219 -36.160156 17.902344 -27.828125 C 20.738281 -21.800781 28.535156 -19.675781 35.273438 -19.144531 C 47.503906 -17.902344 42.894531 -19.144531 54.945312 -23.398438 L 61.859375 -30.839844 L 75.152344 -22.332031 C 67.53125 -16.308594 67.707031 -9.570312 58.667969 -5.847656 C 48.386719 -1.59375 46.4375 -0.53125 35.273438 -1.59375 C 24.816406 -2.480469 16.308594 -2.835938 9.75 -11.167969 C 1.59375 -21.269531 3.898438 -21.625 3.011719 -34.5625 C 1.949219 -48.921875 1.242188 -57.429688 5.140625 -71.253906 C 7.621094 -79.9375 10.457031 -85.964844 18.433594 -90.394531 C 26.941406 -95.003906 34.207031 -94.648438 43.957031 -92.523438 C 54.945312 -90.21875 62.390625 -87.914062 69.480469 -79.230469 C 75.507812 -71.609375 72.316406 -64.339844 74.265625 -54.769531 L 74.265625 -40.945312 Z M 15.953125 -41.832031 "/></g></g></g><g fill="#100f0d" fill-opacity="0.502"><g transform="translate(214.314746, 587.583302)"><g><path d="M 55.832031 -35.09375 C 53.882812 -30.308594 50.160156 -26.410156 45.550781 -24.28125 C 42.894531 -23.042969 39.878906 -22.332031 36.867188 -22.332031 C 34.742188 -22.332031 32.789062 -22.6875 30.839844 -23.398438 C 24.816406 -25.167969 19.851562 -29.953125 17.726562 -35.804688 C 16.839844 -37.929688 17.191406 -40.414062 17.191406 -42.714844 C 17.191406 -46.617188 17.546875 -50.339844 19.675781 -53.707031 C 22.332031 -57.960938 26.585938 -61.148438 31.550781 -62.390625 C 33.144531 -62.746094 34.742188 -63.101562 36.511719 -63.101562 C 39.878906 -63.101562 43.25 -62.214844 46.261719 -60.617188 C 49.628906 -58.667969 52.464844 -55.65625 54.238281 -52.109375 L 69.660156 -62.214844 C 67.886719 -67 64.871094 -71.429688 60.972656 -74.796875 C 57.074219 -78.167969 52.289062 -80.648438 47.324219 -81.886719 C 44.84375 -82.421875 42.363281 -82.597656 39.878906 -82.597656 C 36.867188 -82.597656 33.855469 -82.242188 30.839844 -81.535156 C 25.523438 -80.117188 20.5625 -77.457031 16.484375 -73.914062 C 7.800781 -66.644531 5.671875 -56.011719 4.785156 -44.84375 C 4.609375 -43.601562 4.609375 -42.363281 4.609375 -40.945312 C 4.609375 -31.195312 4.785156 -21.269531 11.167969 -13.824219 C 17.371094 -6.382812 26.410156 -1.417969 36.160156 -0.710938 C 36.867188 -0.53125 37.578125 -0.53125 38.285156 -0.53125 C 47.324219 -0.53125 56.1875 -4.429688 62.214844 -11.167969 C 65.582031 -15.066406 68.0625 -19.851562 69.125 -24.992188 Z M 55.832031 -35.09375 "/></g></g></g><g fill="#100f0d" fill-opacity="0.502"><g transform="translate(288.935348, 587.583302)"><g><path d="M 16.484375 -106.878906 L 16.484375 -82.421875 L 4.785156 -82.421875 L 4.785156 -59.554688 L 16.484375 -59.554688 L 16.484375 0 L 40.414062 0 L 40.414062 -59.554688 L 53.175781 -59.554688 L 53.175781 -82.421875 L 40.414062 -82.421875 L 40.414062 -106.878906 Z M 16.484375 -106.878906 "/></g></g></g><g fill="#100f0d" fill-opacity="0.502"><g transform="translate(350.262493, 587.583302)"><g><path d="M 40.589844 -111.84375 L 27.296875 -81.003906 L 40.765625 -81.003906 L 61.859375 -111.84375 Z M 43.070312 -76.039062 L 43.070312 -70.542969 C 41.832031 -71.078125 40.589844 -71.609375 39.347656 -72.316406 C 31.550781 -75.507812 25.699219 -76.394531 18.078125 -72.847656 C 11.167969 -69.660156 8.683594 -64.695312 6.914062 -57.429688 C 3.722656 -44.667969 4.429688 -36.511719 5.847656 -23.398438 C 6.734375 -15.773438 6.914062 -10.101562 12.761719 -5.316406 C 18.433594 -0.710938 24.28125 -0.886719 31.371094 -2.660156 C 35.804688 -3.546875 39.527344 -4.785156 43.070312 -6.558594 L 43.070312 0 L 67.53125 0 L 67.53125 -76.039062 Z M 43.070312 -17.902344 C 42.714844 -17.726562 42.363281 -17.546875 42.007812 -17.546875 C 37.042969 -15.421875 33.855469 -15.066406 28.714844 -15.953125 C 24.460938 -16.660156 21.09375 -17.546875 18.609375 -21.269531 C 15.066406 -26.585938 15.242188 -30.839844 14.890625 -37.222656 C 14.710938 -41.121094 15.066406 -43.425781 17.015625 -46.792969 C 19.675781 -51.222656 21.269531 -54.59375 26.054688 -56.363281 C 31.195312 -58.136719 34.207031 -55.476562 39.347656 -54.769531 L 43.070312 -51.402344 Z M 43.070312 -17.902344 "/></g></g></g><g fill="#100f0d" fill-opacity="0.502"><g transform="translate(424.883095, 587.583302)"><g><path d="M 67.53125 -52.640625 L 67.53125 -0.710938 L 53.351562 -0.710938 L 53.351562 -52.464844 C 50.871094 -56.1875 48.742188 -59.199219 44.667969 -60.085938 C 39.527344 -60.972656 36.335938 -60.441406 31.371094 -58.492188 C 30.839844 -58.3125 30.308594 -58.3125 30.308594 -57.960938 L 30.308594 0 L 5.847656 0 L 5.847656 -76.039062 L 30.308594 -76.039062 L 30.308594 -69.304688 C 33.675781 -71.078125 37.398438 -72.316406 42.007812 -73.378906 C 49.097656 -75.152344 54.945312 -75.332031 60.617188 -70.722656 C 66.46875 -65.9375 66.644531 -60.265625 67.53125 -52.640625 Z M 67.53125 -52.640625 "/></g></g></g><g fill="#100f0d" fill-opacity="0.502"><g transform="translate(499.503697, 587.583302)"><g><path d="M 75.507812 -87.207031 C 75.683594 -59.554688 77.28125 -43.957031 76.039062 -16.484375 C 75.507812 -5.847656 74.796875 0.175781 71.253906 10.101562 C 69.125 15.953125 67 19.144531 62.214844 22.863281 C 57.25 26.585938 53.707031 27.117188 47.855469 28.183594 C 38.996094 29.777344 33.855469 29.777344 24.992188 29.246094 C 15.242188 28.535156 9.75 26.585938 0 24.992188 L 6.382812 2.660156 C 14.535156 5.140625 18.609375 8.863281 27.117188 9.039062 C 34.917969 9.21875 40.058594 8.507812 46.261719 3.722656 C 51.222656 -0.175781 52.109375 -4.785156 53.175781 -11.167969 C 54.59375 -19.675781 53.175781 -11.875 52.996094 -20.5625 L 52.996094 -24.28125 C 48.210938 -21.800781 38.996094 -19.320312 32.96875 -17.015625 C 28.535156 -15.242188 23.574219 -20.382812 19.144531 -20.914062 C 15.242188 -21.269531 12.9375 -25.699219 10.457031 -28.890625 C 5.496094 -34.917969 5.140625 -43.78125 3.722656 -51.222656 C 2.128906 -59.023438 7.089844 -63.632812 9.039062 -71.253906 C 10.28125 -76.039062 11.519531 -79.761719 15.953125 -82.421875 C 21.625 -85.964844 26.234375 -87.207031 32.96875 -86.140625 C 40.414062 -84.902344 46.085938 -84.015625 51.578125 -80.648438 L 51.578125 -87.207031 Z M 51.933594 -63.808594 C 46.792969 -66.113281 43.601562 -71.785156 37.222656 -74.976562 C 34.207031 -76.394531 32.257812 -77.632812 29.246094 -76.570312 C 25.167969 -75.152344 22.511719 -73.558594 21.269531 -69.660156 C 18.789062 -62.390625 19.675781 -58.847656 18.257812 -51.578125 C 17.015625 -46.4375 18.609375 -35.625 24.992188 -34.207031 C 31.195312 -32.613281 37.222656 -30.308594 43.070312 -32.4375 C 45.199219 -33.144531 50.871094 -36.511719 52.640625 -37.578125 Z M 51.933594 -63.808594 "/></g></g></g><g fill="#100f0d" fill-opacity="0.502"><g transform="translate(581.036897, 587.583302)"><g><path d="M 5.847656 -23.398438 L 5.847656 -75.332031 L 20.027344 -75.332031 L 20.027344 -23.574219 C 22.511719 -19.851562 24.460938 -16.660156 28.714844 -15.953125 C 33.855469 -15.066406 36.867188 -15.421875 42.007812 -17.546875 C 42.363281 -17.546875 43.070312 -17.726562 43.070312 -17.902344 L 43.070312 -76.039062 L 67.53125 -76.039062 L 67.53125 0 L 43.070312 0 L 43.070312 -6.558594 C 39.527344 -4.785156 35.804688 -3.546875 31.371094 -2.660156 C 24.28125 -0.886719 18.433594 -0.710938 12.761719 -5.316406 C 6.914062 -10.101562 6.734375 -15.773438 5.847656 -23.398438 Z M 5.847656 -23.398438 "/></g></g></g><g fill="#100f0d" fill-opacity="0.502"><g transform="translate(655.657499, 587.583302)"><g><path d="M 7.445312 -125.492188 L 7.445312 0 L 34.03125 0 L 34.03125 -125.492188 Z M 7.445312 -125.492188 "/></g></g></g><g fill="#100f0d" fill-opacity="0.502"><g transform="translate(698.905544, 587.583302)"><g><path d="M 21.269531 -39.527344 C 21.269531 -48.921875 28.890625 -56.542969 38.285156 -56.542969 C 47.679688 -56.542969 55.300781 -48.921875 55.300781 -39.527344 C 55.300781 -30.132812 47.679688 -22.511719 38.285156 -22.511719 C 28.890625 -22.511719 21.269531 -30.132812 21.269531 -39.527344 Z M 3.191406 -39.527344 C 3.191406 -18.964844 18.433594 -2.304688 37.222656 -2.304688 C 56.011719 -2.304688 71.253906 -18.964844 71.253906 -39.527344 C 71.253906 -60.085938 56.011719 -76.75 37.222656 -76.75 C 18.433594 -76.75 3.191406 -60.085938 3.191406 -39.527344 Z M 3.191406 -39.527344 "/></g></g></g><g fill="#81d82a" fill-opacity="1"><g transform="translate(43.769533, 579.749991)"><g><path d="M 21.800781 -95.183594 L 28.183594 -95.003906 L 49.453125 -95.890625 C 56.363281 -90.75 57.960938 -88.625 59.023438 -81.003906 C 60.085938 -72.140625 51.046875 -65.050781 42.007812 -67.175781 C 37.222656 -67 26.410156 -66.289062 21.800781 -67 Z M 21.800781 -44.667969 C 22.6875 -44.84375 23.574219 -45.019531 24.460938 -45.199219 C 39.347656 -48.035156 46.617188 -33.5 45.199219 -21.269531 C 43.425781 -8.332031 53.175781 3.546875 66.46875 3.191406 C 70.367188 3.191406 74.445312 1.417969 74.445312 -2.660156 C 74.445312 -3.367188 74.976562 -5.316406 73.914062 -5.316406 C 72.847656 -5.316406 72.847656 -4.609375 71.253906 -4.785156 C 64.164062 -4.785156 59.199219 -25.699219 60.085938 -34.03125 C 60.972656 -43.601562 40.589844 -62.214844 46.085938 -55.476562 C 44.84375 -57.25 46.261719 -58.136719 52.640625 -57.960938 C 60.441406 -57.605469 74.976562 -61.859375 74.976562 -74.976562 C 74.796875 -87.382812 77.8125 -101.917969 59.554688 -111.132812 C 56.71875 -112.375 51.933594 -109.183594 48.921875 -110.601562 L 6.382812 -110.601562 L 6.382812 0 L 21.800781 0 Z M 21.800781 -44.667969 "/></g></g></g><g fill="#81d82a" fill-opacity="1"><g transform="translate(124.94824, 579.749991)"><g><path d="M 17.191406 -55.300781 L 56.1875 -56.363281 C 55.300781 -60.265625 56.894531 -63.632812 54.058594 -66.46875 C 49.628906 -70.898438 45.90625 -72.847656 39.703125 -73.378906 C 31.726562 -73.914062 28.890625 -74.796875 23.21875 -69.125 C 19.144531 -65.050781 17.726562 -60.441406 17.191406 -55.300781 Z M 15.953125 -41.832031 C 15.597656 -33.144531 13.824219 -36.160156 17.902344 -27.828125 C 20.738281 -21.800781 28.535156 -19.675781 35.273438 -19.144531 C 47.503906 -17.902344 42.894531 -19.144531 54.945312 -23.398438 L 61.859375 -30.839844 L 75.152344 -22.332031 C 67.53125 -16.308594 67.707031 -9.570312 58.667969 -5.847656 C 48.386719 -1.59375 46.4375 -0.53125 35.273438 -1.59375 C 24.816406 -2.480469 16.308594 -2.835938 9.75 -11.167969 C 1.59375 -21.269531 3.898438 -21.625 3.011719 -34.5625 C 1.949219 -48.921875 1.242188 -57.429688 5.140625 -71.253906 C 7.621094 -79.9375 10.457031 -85.964844 18.433594 -90.394531 C 26.941406 -95.003906 34.207031 -94.648438 43.957031 -92.523438 C 54.945312 -90.21875 62.390625 -87.914062 69.480469 -79.230469 C 75.507812 -71.609375 72.316406 -64.339844 74.265625 -54.769531 L 74.265625 -40.945312 Z M 15.953125 -41.832031 "/></g></g></g><g fill="#81d82a" fill-opacity="1"><g transform="translate(206.481439, 579.749991)"><g><path d="M 55.832031 -35.09375 C 53.882812 -30.308594 50.160156 -26.410156 45.550781 -24.28125 C 42.894531 -23.042969 39.878906 -22.332031 36.867188 -22.332031 C 34.742188 -22.332031 32.789062 -22.6875 30.839844 -23.398438 C 24.816406 -25.167969 19.851562 -29.953125 17.726562 -35.804688 C 16.839844 -37.929688 17.191406 -40.414062 17.191406 -42.714844 C 17.191406 -46.617188 17.546875 -50.339844 19.675781 -53.707031 C 22.332031 -57.960938 26.585938 -61.148438 31.550781 -62.390625 C 33.144531 -62.746094 34.742188 -63.101562 36.511719 -63.101562 C 39.878906 -63.101562 43.25 -62.214844 46.261719 -60.617188 C 49.628906 -58.667969 52.464844 -55.65625 54.238281 -52.109375 L 69.660156 -62.214844 C 67.886719 -67 64.871094 -71.429688 60.972656 -74.796875 C 57.074219 -78.167969 52.289062 -80.648438 47.324219 -81.886719 C 44.84375 -82.421875 42.363281 -82.597656 39.878906 -82.597656 C 36.867188 -82.597656 33.855469 -82.242188 30.839844 -81.535156 C 25.523438 -80.117188 20.5625 -77.457031 16.484375 -73.914062 C 7.800781 -66.644531 5.671875 -56.011719 4.785156 -44.84375 C 4.609375 -43.601562 4.609375 -42.363281 4.609375 -40.945312 C 4.609375 -31.195312 4.785156 -21.269531 11.167969 -13.824219 C 17.371094 -6.382812 26.410156 -1.417969 36.160156 -0.710938 C 36.867188 -0.53125 37.578125 -0.53125 38.285156 -0.53125 C 47.324219 -0.53125 56.1875 -4.429688 62.214844 -11.167969 C 65.582031 -15.066406 68.0625 -19.851562 69.125 -24.992188 Z M 55.832031 -35.09375 "/></g></g></g><g fill="#81d82a" fill-opacity="1"><g transform="translate(281.102041, 579.749991)"><g><path d="M 16.484375 -106.878906 L 16.484375 -82.421875 L 4.785156 -82.421875 L 4.785156 -59.554688 L 16.484375 -59.554688 L 16.484375 0 L 40.414062 0 L 40.414062 -59.554688 L 53.175781 -59.554688 L 53.175781 -82.421875 L 40.414062 -82.421875 L 40.414062 -106.878906 Z M 16.484375 -106.878906 "/></g></g></g><g fill="#81d82a" fill-opacity="1"><g transform="translate(342.429187, 579.749991)"><g><path d="M 40.589844 -111.84375 L 27.296875 -81.003906 L 40.765625 -81.003906 L 61.859375 -111.84375 Z M 43.070312 -76.039062 L 43.070312 -70.542969 C 41.832031 -71.078125 40.589844 -71.609375 39.347656 -72.316406 C 31.550781 -75.507812 25.699219 -76.394531 18.078125 -72.847656 C 11.167969 -69.660156 8.683594 -64.695312 6.914062 -57.429688 C 3.722656 -44.667969 4.429688 -36.511719 5.847656 -23.398438 C 6.734375 -15.773438 6.914062 -10.101562 12.761719 -5.316406 C 18.433594 -0.710938 24.28125 -0.886719 31.371094 -2.660156 C 35.804688 -3.546875 39.527344 -4.785156 43.070312 -6.558594 L 43.070312 0 L 67.53125 0 L 67.53125 -76.039062 Z M 43.070312 -17.902344 C 42.714844 -17.726562 42.363281 -17.546875 42.007812 -17.546875 C 37.042969 -15.421875 33.855469 -15.066406 28.714844 -15.953125 C 24.460938 -16.660156 21.09375 -17.546875 18.609375 -21.269531 C 15.066406 -26.585938 15.242188 -30.839844 14.890625 -37.222656 C 14.710938 -41.121094 15.066406 -43.425781 17.015625 -46.792969 C 19.675781 -51.222656 21.269531 -54.59375 26.054688 -56.363281 C 31.195312 -58.136719 34.207031 -55.476562 39.347656 -54.769531 L 43.070312 -51.402344 Z M 43.070312 -17.902344 "/></g></g></g><g fill="#81d82a" fill-opacity="1"><g transform="translate(417.049789, 579.749991)"><g><path d="M 67.53125 -52.640625 L 67.53125 -0.710938 L 53.351562 -0.710938 L 53.351562 -52.464844 C 50.871094 -56.1875 48.742188 -59.199219 44.667969 -60.085938 C 39.527344 -60.972656 36.335938 -60.441406 31.371094 -58.492188 C 30.839844 -58.3125 30.308594 -58.3125 30.308594 -57.960938 L 30.308594 0 L 5.847656 0 L 5.847656 -76.039062 L 30.308594 -76.039062 L 30.308594 -69.304688 C 33.675781 -71.078125 37.398438 -72.316406 42.007812 -73.378906 C 49.097656 -75.152344 54.945312 -75.332031 60.617188 -70.722656 C 66.46875 -65.9375 66.644531 -60.265625 67.53125 -52.640625 Z M 67.53125 -52.640625 "/></g></g></g><g fill="#81d82a" fill-opacity="1"><g transform="translate(491.670391, 579.749991)"><g><path d="M 75.507812 -87.207031 C 75.683594 -59.554688 77.28125 -43.957031 76.039062 -16.484375 C 75.507812 -5.847656 74.796875 0.175781 71.253906 10.101562 C 69.125 15.953125 67 19.144531 62.214844 22.863281 C 57.25 26.585938 53.707031 27.117188 47.855469 28.183594 C 38.996094 29.777344 33.855469 29.777344 24.992188 29.246094 C 15.242188 28.535156 9.75 26.585938 0 24.992188 L 6.382812 2.660156 C 14.535156 5.140625 18.609375 8.863281 27.117188 9.039062 C 34.917969 9.21875 40.058594 8.507812 46.261719 3.722656 C 51.222656 -0.175781 52.109375 -4.785156 53.175781 -11.167969 C 54.59375 -19.675781 53.175781 -11.875 52.996094 -20.5625 L 52.996094 -24.28125 C 48.210938 -21.800781 38.996094 -19.320312 32.96875 -17.015625 C 28.535156 -15.242188 23.574219 -20.382812 19.144531 -20.914062 C 15.242188 -21.269531 12.9375 -25.699219 10.457031 -28.890625 C 5.496094 -34.917969 5.140625 -43.78125 3.722656 -51.222656 C 2.128906 -59.023438 7.089844 -63.632812 9.039062 -71.253906 C 10.28125 -76.039062 11.519531 -79.761719 15.953125 -82.421875 C 21.625 -85.964844 26.234375 -87.207031 32.96875 -86.140625 C 40.414062 -84.902344 46.085938 -84.015625 51.578125 -80.648438 L 51.578125 -87.207031 Z M 51.933594 -63.808594 C 46.792969 -66.113281 43.601562 -71.785156 37.222656 -74.976562 C 34.207031 -76.394531 32.257812 -77.632812 29.246094 -76.570312 C 25.167969 -75.152344 22.511719 -73.558594 21.269531 -69.660156 C 18.789062 -62.390625 19.675781 -58.847656 18.257812 -51.578125 C 17.015625 -46.4375 18.609375 -35.625 24.992188 -34.207031 C 31.195312 -32.613281 37.222656 -30.308594 43.070312 -32.4375 C 45.199219 -33.144531 50.871094 -36.511719 52.640625 -37.578125 Z M 51.933594 -63.808594 "/></g></g></g><g fill="#81d82a" fill-opacity="1"><g transform="translate(573.20359, 579.749991)"><g><path d="M 5.847656 -23.398438 L 5.847656 -75.332031 L 20.027344 -75.332031 L 20.027344 -23.574219 C 22.511719 -19.851562 24.460938 -16.660156 28.714844 -15.953125 C 33.855469 -15.066406 36.867188 -15.421875 42.007812 -17.546875 C 42.363281 -17.546875 43.070312 -17.726562 43.070312 -17.902344 L 43.070312 -76.039062 L 67.53125 -76.039062 L 67.53125 0 L 43.070312 0 L 43.070312 -6.558594 C 39.527344 -4.785156 35.804688 -3.546875 31.371094 -2.660156 C 24.28125 -0.886719 18.433594 -0.710938 12.761719 -5.316406 C 6.914062 -10.101562 6.734375 -15.773438 5.847656 -23.398438 Z M 5.847656 -23.398438 "/></g></g></g><g fill="#81d82a" fill-opacity="1"><g transform="translate(647.824192, 579.749991)"><g><path d="M 7.445312 -125.492188 L 7.445312 0 L 34.03125 0 L 34.03125 -125.492188 Z M 7.445312 -125.492188 "/></g></g></g><g fill="#81d82a" fill-opacity="1"><g transform="translate(691.072237, 579.749991)"><g><path d="M 21.269531 -39.527344 C 21.269531 -48.921875 28.890625 -56.542969 38.285156 -56.542969 C 47.679688 -56.542969 55.300781 -48.921875 55.300781 -39.527344 C 55.300781 -30.132812 47.679688 -22.511719 38.285156 -22.511719 C 28.890625 -22.511719 21.269531 -30.132812 21.269531 -39.527344 Z M 3.191406 -39.527344 C 3.191406 -18.964844 18.433594 -2.304688 37.222656 -2.304688 C 56.011719 -2.304688 71.253906 -18.964844 71.253906 -39.527344 C 71.253906 -60.085938 56.011719 -76.75 37.222656 -76.75 C 18.433594 -76.75 3.191406 -60.085938 3.191406 -39.527344 Z M 3.191406 -39.527344 "/></g></g></g></svg>