<svg xmlns="http://www.w3.org/2000/svg" xmlns:xlink="http://www.w3.org/1999/xlink" width="1080" zoomAndPan="magnify" viewBox="0 0 810 809.999993" height="1080" preserveAspectRatio="xMidYMid meet" version="1.0"><defs><g/><clipPath id="id1"><path d="M 177.414062 101.117188 L 632.664062 101.117188 L 632.664062 556.367188 L 177.414062 556.367188 Z M 177.414062 101.117188 " clip-rule="nonzero"/></clipPath><clipPath id="id2"><path d="M 177.414062 101.117188 L 632.664062 101.117188 L 632.664062 556.367188 L 177.414062 556.367188 Z M 177.414062 101.117188 " clip-rule="nonzero"/></clipPath><clipPath id="id3"><path d="M 405.039062 101.117188 L 632.664062 328.742188 L 405.039062 556.367188 L 177.414062 328.742188 L 405.039062 101.117188 " clip-rule="nonzero"/></clipPath><clipPath id="id4"><path d="M 309.542969 269.996094 L 500.792969 269.996094 L 500.792969 328.496094 L 309.542969 328.496094 Z M 309.542969 269.996094 " clip-rule="nonzero"/></clipPath></defs><rect x="-81" width="972" fill="#ffffff" y="-80.999999" height="971.999992" fill-opacity="1"/><rect x="-81" width="972" fill="#ffffff" y="-80.999999" height="971.999992" fill-opacity="1"/><rect x="-81" width="972" fill="#ffffff" y="-80.999999" height="971.999992" fill-opacity="1"/><g clip-path="url(#id1)"><path fill="#98f4ca" d="M 405.039062 101.117188 L 632.664062 328.742188 L 405.039062 556.367188 L 177.414062 328.742188 L 405.039062 101.117188 " fill-opacity="1" fill-rule="nonzero"/></g><g clip-path="url(#id2)"><g clip-path="url(#id3)"><path stroke-linecap="butt" transform="matrix(0.750135, 0, 0, 0.750135, 177.412684, 101.115483)" fill="none" stroke-linejoin="miter" d="M 303.447174 0.00227237 L 606.892511 303.447609 L 303.447174 606.892946 L 0.00183744 303.447609 L 303.447174 0.00227237 " stroke="#000000" stroke-width="30" stroke-opacity="1" stroke-miterlimit="4"/></g></g><g clip-path="url(#id4)"><path fill="#000000" d="M 500.5625 299.246094 C 500.5625 315.40625 487.40625 328.496094 471.160156 328.496094 C 454.914062 328.496094 441.757812 315.40625 441.757812 299.246094 C 441.757812 283.085938 454.914062 269.996094 471.160156 269.996094 C 487.40625 269.996094 500.5625 283.085938 500.5625 299.246094 Z M 339.175781 269.996094 C 322.929688 269.996094 309.773438 283.085938 309.773438 299.246094 C 309.773438 315.40625 322.929688 328.496094 339.175781 328.496094 C 355.417969 328.496094 368.578125 315.40625 368.578125 299.246094 C 368.578125 283.085938 355.417969 269.996094 339.175781 269.996094 Z M 339.175781 269.996094 " fill-opacity="1" fill-rule="nonzero"/></g><path fill="#ffffff" d="M 471.875 294.25 C 471.875 300.554688 466.738281 305.664062 460.398438 305.664062 C 454.0625 305.664062 448.925781 300.554688 448.925781 294.25 C 448.925781 287.945312 454.0625 282.832031 460.398438 282.832031 C 466.738281 282.832031 471.875 287.945312 471.875 294.25 Z M 486.207031 307.109375 C 483.832031 307.109375 481.898438 309.035156 481.898438 311.394531 C 481.898438 313.757812 483.832031 315.683594 486.207031 315.683594 C 488.582031 315.683594 490.515625 313.757812 490.515625 311.394531 C 490.515625 309.011719 488.601562 307.109375 486.207031 307.109375 Z M 349.933594 282.832031 C 343.597656 282.832031 338.460938 287.945312 338.460938 294.25 C 338.460938 300.554688 343.597656 305.664062 349.933594 305.664062 C 356.273438 305.664062 361.410156 300.554688 361.410156 294.25 C 361.410156 287.945312 356.273438 282.832031 349.933594 282.832031 Z M 324.128906 307.109375 C 321.753906 307.109375 319.820312 309.035156 319.820312 311.394531 C 319.820312 313.757812 321.753906 315.683594 324.128906 315.683594 C 326.5 315.683594 328.4375 313.757812 328.4375 311.394531 C 328.414062 309.011719 326.5 307.109375 324.128906 307.109375 Z M 324.128906 307.109375 " fill-opacity="1" fill-rule="nonzero"/><g fill="#100f0d" fill-opacity="0.302"><g transform="translate(206.371692, 671.77621)"><g><path d="M 21.800781 -95.183594 L 28.183594 -95.003906 L 49.453125 -95.890625 C 56.363281 -90.75 57.960938 -88.625 59.023438 -81.003906 C 60.085938 -72.140625 51.046875 -65.050781 42.007812 -67.175781 C 37.222656 -67 26.410156 -66.289062 21.800781 -67 Z M 21.800781 -44.667969 C 22.6875 -44.84375 23.574219 -45.019531 24.460938 -45.199219 C 39.347656 -48.035156 46.617188 -33.5 45.199219 -21.269531 C 43.425781 -8.332031 53.175781 3.546875 66.46875 3.191406 C 70.367188 3.191406 74.445312 1.417969 74.445312 -2.660156 C 74.445312 -3.367188 74.976562 -5.316406 73.914062 -5.316406 C 72.847656 -5.316406 72.847656 -4.609375 71.253906 -4.785156 C 64.164062 -4.785156 59.199219 -25.699219 60.085938 -34.03125 C 60.972656 -43.601562 40.589844 -62.214844 46.085938 -55.476562 C 44.84375 -57.25 46.261719 -58.136719 52.640625 -57.960938 C 60.441406 -57.605469 74.976562 -61.859375 74.976562 -74.976562 C 74.796875 -87.382812 77.8125 -101.917969 59.554688 -111.132812 C 56.71875 -112.375 51.933594 -109.183594 48.921875 -110.601562 L 6.382812 -110.601562 L 6.382812 0 L 21.800781 0 Z M 21.800781 -44.667969 "/></g></g></g><g fill="#100f0d" fill-opacity="0.302"><g transform="translate(287.550399, 671.77621)"><g><path d="M 21.269531 -39.527344 C 21.269531 -48.921875 28.890625 -56.542969 38.285156 -56.542969 C 47.679688 -56.542969 55.300781 -48.921875 55.300781 -39.527344 C 55.300781 -30.132812 47.679688 -22.511719 38.285156 -22.511719 C 28.890625 -22.511719 21.269531 -30.132812 21.269531 -39.527344 Z M 3.191406 -39.527344 C 3.191406 -18.964844 18.433594 -2.304688 37.222656 -2.304688 C 56.011719 -2.304688 71.253906 -18.964844 71.253906 -39.527344 C 71.253906 -60.085938 56.011719 -76.75 37.222656 -76.75 C 18.433594 -76.75 3.191406 -60.085938 3.191406 -39.527344 Z M 3.191406 -39.527344 "/></g></g></g><g fill="#100f0d" fill-opacity="0.302"><g transform="translate(362.702739, 671.77621)"><g><path d="M 77.632812 -69.304688 L 66.46875 -64.339844 L 59.023438 -70.191406 L 52.464844 -72.847656 C 48.921875 -73.558594 45.90625 -74.265625 42.007812 -73.378906 C 37.398438 -72.316406 33.675781 -71.078125 30.308594 -69.304688 L 30.308594 -76.039062 L 5.847656 -76.039062 L 5.847656 0 L 30.308594 0 L 30.308594 -57.960938 C 30.308594 -58.3125 30.839844 -58.3125 31.371094 -58.492188 C 36.335938 -60.441406 39.527344 -60.972656 44.667969 -60.085938 C 48.742188 -59.199219 50.691406 -56.1875 53.175781 -52.640625 L 53.175781 0 L 77.632812 0 L 77.632812 -57.960938 C 77.632812 -58.3125 78.167969 -58.3125 78.699219 -58.492188 C 83.660156 -60.441406 86.851562 -60.972656 91.992188 -60.085938 C 96.066406 -59.199219 98.195312 -56.1875 100.675781 -52.464844 L 100.675781 0 L 114.855469 0 L 114.855469 -52.640625 C 113.96875 -60.265625 113.792969 -65.9375 107.945312 -70.722656 C 102.273438 -75.332031 96.421875 -75.152344 89.332031 -73.378906 C 84.722656 -72.316406 81.003906 -71.078125 77.632812 -69.304688 Z M 77.632812 -69.304688 "/></g></g></g><g fill="#100f0d" fill-opacity="0.302"><g transform="translate(485.179783, 671.77621)"><g><path d="M 29.070312 -116.804688 L 29.070312 -70.542969 C 30.132812 -71.078125 31.371094 -71.609375 32.789062 -72.316406 C 40.589844 -75.507812 46.4375 -76.394531 54.058594 -72.847656 C 60.972656 -69.660156 63.453125 -64.695312 65.226562 -57.429688 C 68.417969 -44.667969 67.707031 -36.511719 66.289062 -23.398438 C 65.40625 -15.773438 65.226562 -10.101562 59.378906 -5.316406 C 53.707031 -0.710938 47.855469 -0.886719 40.765625 -2.660156 C 36.160156 -3.546875 32.4375 -4.785156 29.070312 -6.558594 L 29.070312 0 L 4.609375 0 L 4.609375 -116.804688 Z M 29.070312 -17.902344 C 29.421875 -17.726562 29.777344 -17.546875 30.132812 -17.546875 C 35.09375 -15.421875 38.285156 -15.066406 43.425781 -15.953125 C 47.679688 -16.660156 51.046875 -17.546875 53.527344 -21.269531 C 57.074219 -26.585938 56.894531 -30.839844 57.25 -37.222656 C 57.429688 -41.121094 57.074219 -43.425781 55.125 -46.792969 C 52.464844 -51.222656 50.871094 -54.59375 46.085938 -56.363281 C 40.945312 -58.136719 37.929688 -55.476562 32.789062 -54.769531 L 29.070312 -51.402344 Z M 29.070312 -17.902344 "/></g></g></g><g fill="#100f0d" fill-opacity="0.302"><g transform="translate(559.800385, 671.77621)"><g><path d="M 21.269531 -39.527344 C 21.269531 -48.921875 28.890625 -56.542969 38.285156 -56.542969 C 47.679688 -56.542969 55.300781 -48.921875 55.300781 -39.527344 C 55.300781 -30.132812 47.679688 -22.511719 38.285156 -22.511719 C 28.890625 -22.511719 21.269531 -30.132812 21.269531 -39.527344 Z M 3.191406 -39.527344 C 3.191406 -18.964844 18.433594 -2.304688 37.222656 -2.304688 C 56.011719 -2.304688 71.253906 -18.964844 71.253906 -39.527344 C 71.253906 -60.085938 56.011719 -76.75 37.222656 -76.75 C 18.433594 -76.75 3.191406 -60.085938 3.191406 -39.527344 Z M 3.191406 -39.527344 "/></g></g></g><g fill="#100f0d" fill-opacity="0.502"><g transform="translate(198.538383, 663.942899)"><g><path d="M 21.800781 -95.183594 L 28.183594 -95.003906 L 49.453125 -95.890625 C 56.363281 -90.75 57.960938 -88.625 59.023438 -81.003906 C 60.085938 -72.140625 51.046875 -65.050781 42.007812 -67.175781 C 37.222656 -67 26.410156 -66.289062 21.800781 -67 Z M 21.800781 -44.667969 C 22.6875 -44.84375 23.574219 -45.019531 24.460938 -45.199219 C 39.347656 -48.035156 46.617188 -33.5 45.199219 -21.269531 C 43.425781 -8.332031 53.175781 3.546875 66.46875 3.191406 C 70.367188 3.191406 74.445312 1.417969 74.445312 -2.660156 C 74.445312 -3.367188 74.976562 -5.316406 73.914062 -5.316406 C 72.847656 -5.316406 72.847656 -4.609375 71.253906 -4.785156 C 64.164062 -4.785156 59.199219 -25.699219 60.085938 -34.03125 C 60.972656 -43.601562 40.589844 -62.214844 46.085938 -55.476562 C 44.84375 -57.25 46.261719 -58.136719 52.640625 -57.960938 C 60.441406 -57.605469 74.976562 -61.859375 74.976562 -74.976562 C 74.796875 -87.382812 77.8125 -101.917969 59.554688 -111.132812 C 56.71875 -112.375 51.933594 -109.183594 48.921875 -110.601562 L 6.382812 -110.601562 L 6.382812 0 L 21.800781 0 Z M 21.800781 -44.667969 "/></g></g></g><g fill="#100f0d" fill-opacity="0.502"><g transform="translate(279.71709, 663.942899)"><g><path d="M 21.269531 -39.527344 C 21.269531 -48.921875 28.890625 -56.542969 38.285156 -56.542969 C 47.679688 -56.542969 55.300781 -48.921875 55.300781 -39.527344 C 55.300781 -30.132812 47.679688 -22.511719 38.285156 -22.511719 C 28.890625 -22.511719 21.269531 -30.132812 21.269531 -39.527344 Z M 3.191406 -39.527344 C 3.191406 -18.964844 18.433594 -2.304688 37.222656 -2.304688 C 56.011719 -2.304688 71.253906 -18.964844 71.253906 -39.527344 C 71.253906 -60.085938 56.011719 -76.75 37.222656 -76.75 C 18.433594 -76.75 3.191406 -60.085938 3.191406 -39.527344 Z M 3.191406 -39.527344 "/></g></g></g><g fill="#100f0d" fill-opacity="0.502"><g transform="translate(354.86943, 663.942899)"><g><path d="M 77.632812 -69.304688 L 66.46875 -64.339844 L 59.023438 -70.191406 L 52.464844 -72.847656 C 48.921875 -73.558594 45.90625 -74.265625 42.007812 -73.378906 C 37.398438 -72.316406 33.675781 -71.078125 30.308594 -69.304688 L 30.308594 -76.039062 L 5.847656 -76.039062 L 5.847656 0 L 30.308594 0 L 30.308594 -57.960938 C 30.308594 -58.3125 30.839844 -58.3125 31.371094 -58.492188 C 36.335938 -60.441406 39.527344 -60.972656 44.667969 -60.085938 C 48.742188 -59.199219 50.691406 -56.1875 53.175781 -52.640625 L 53.175781 0 L 77.632812 0 L 77.632812 -57.960938 C 77.632812 -58.3125 78.167969 -58.3125 78.699219 -58.492188 C 83.660156 -60.441406 86.851562 -60.972656 91.992188 -60.085938 C 96.066406 -59.199219 98.195312 -56.1875 100.675781 -52.464844 L 100.675781 0 L 114.855469 0 L 114.855469 -52.640625 C 113.96875 -60.265625 113.792969 -65.9375 107.945312 -70.722656 C 102.273438 -75.332031 96.421875 -75.152344 89.332031 -73.378906 C 84.722656 -72.316406 81.003906 -71.078125 77.632812 -69.304688 Z M 77.632812 -69.304688 "/></g></g></g><g fill="#100f0d" fill-opacity="0.502"><g transform="translate(477.346474, 663.942899)"><g><path d="M 29.070312 -116.804688 L 29.070312 -70.542969 C 30.132812 -71.078125 31.371094 -71.609375 32.789062 -72.316406 C 40.589844 -75.507812 46.4375 -76.394531 54.058594 -72.847656 C 60.972656 -69.660156 63.453125 -64.695312 65.226562 -57.429688 C 68.417969 -44.667969 67.707031 -36.511719 66.289062 -23.398438 C 65.40625 -15.773438 65.226562 -10.101562 59.378906 -5.316406 C 53.707031 -0.710938 47.855469 -0.886719 40.765625 -2.660156 C 36.160156 -3.546875 32.4375 -4.785156 29.070312 -6.558594 L 29.070312 0 L 4.609375 0 L 4.609375 -116.804688 Z M 29.070312 -17.902344 C 29.421875 -17.726562 29.777344 -17.546875 30.132812 -17.546875 C 35.09375 -15.421875 38.285156 -15.066406 43.425781 -15.953125 C 47.679688 -16.660156 51.046875 -17.546875 53.527344 -21.269531 C 57.074219 -26.585938 56.894531 -30.839844 57.25 -37.222656 C 57.429688 -41.121094 57.074219 -43.425781 55.125 -46.792969 C 52.464844 -51.222656 50.871094 -54.59375 46.085938 -56.363281 C 40.945312 -58.136719 37.929688 -55.476562 32.789062 -54.769531 L 29.070312 -51.402344 Z M 29.070312 -17.902344 "/></g></g></g><g fill="#100f0d" fill-opacity="0.502"><g transform="translate(551.967076, 663.942899)"><g><path d="M 21.269531 -39.527344 C 21.269531 -48.921875 28.890625 -56.542969 38.285156 -56.542969 C 47.679688 -56.542969 55.300781 -48.921875 55.300781 -39.527344 C 55.300781 -30.132812 47.679688 -22.511719 38.285156 -22.511719 C 28.890625 -22.511719 21.269531 -30.132812 21.269531 -39.527344 Z M 3.191406 -39.527344 C 3.191406 -18.964844 18.433594 -2.304688 37.222656 -2.304688 C 56.011719 -2.304688 71.253906 -18.964844 71.253906 -39.527344 C 71.253906 -60.085938 56.011719 -76.75 37.222656 -76.75 C 18.433594 -76.75 3.191406 -60.085938 3.191406 -39.527344 Z M 3.191406 -39.527344 "/></g></g></g><g fill="#98f4ca" fill-opacity="1"><g transform="translate(190.705072, 656.109587)"><g><path d="M 21.800781 -95.183594 L 28.183594 -95.003906 L 49.453125 -95.890625 C 56.363281 -90.75 57.960938 -88.625 59.023438 -81.003906 C 60.085938 -72.140625 51.046875 -65.050781 42.007812 -67.175781 C 37.222656 -67 26.410156 -66.289062 21.800781 -67 Z M 21.800781 -44.667969 C 22.6875 -44.84375 23.574219 -45.019531 24.460938 -45.199219 C 39.347656 -48.035156 46.617188 -33.5 45.199219 -21.269531 C 43.425781 -8.332031 53.175781 3.546875 66.46875 3.191406 C 70.367188 3.191406 74.445312 1.417969 74.445312 -2.660156 C 74.445312 -3.367188 74.976562 -5.316406 73.914062 -5.316406 C 72.847656 -5.316406 72.847656 -4.609375 71.253906 -4.785156 C 64.164062 -4.785156 59.199219 -25.699219 60.085938 -34.03125 C 60.972656 -43.601562 40.589844 -62.214844 46.085938 -55.476562 C 44.84375 -57.25 46.261719 -58.136719 52.640625 -57.960938 C 60.441406 -57.605469 74.976562 -61.859375 74.976562 -74.976562 C 74.796875 -87.382812 77.8125 -101.917969 59.554688 -111.132812 C 56.71875 -112.375 51.933594 -109.183594 48.921875 -110.601562 L 6.382812 -110.601562 L 6.382812 0 L 21.800781 0 Z M 21.800781 -44.667969 "/></g></g></g><g fill="#98f4ca" fill-opacity="1"><g transform="translate(271.883778, 656.109587)"><g><path d="M 21.269531 -39.527344 C 21.269531 -48.921875 28.890625 -56.542969 38.285156 -56.542969 C 47.679688 -56.542969 55.300781 -48.921875 55.300781 -39.527344 C 55.300781 -30.132812 47.679688 -22.511719 38.285156 -22.511719 C 28.890625 -22.511719 21.269531 -30.132812 21.269531 -39.527344 Z M 3.191406 -39.527344 C 3.191406 -18.964844 18.433594 -2.304688 37.222656 -2.304688 C 56.011719 -2.304688 71.253906 -18.964844 71.253906 -39.527344 C 71.253906 -60.085938 56.011719 -76.75 37.222656 -76.75 C 18.433594 -76.75 3.191406 -60.085938 3.191406 -39.527344 Z M 3.191406 -39.527344 "/></g></g></g><g fill="#98f4ca" fill-opacity="1"><g transform="translate(347.036118, 656.109587)"><g><path d="M 77.632812 -69.304688 L 66.46875 -64.339844 L 59.023438 -70.191406 L 52.464844 -72.847656 C 48.921875 -73.558594 45.90625 -74.265625 42.007812 -73.378906 C 37.398438 -72.316406 33.675781 -71.078125 30.308594 -69.304688 L 30.308594 -76.039062 L 5.847656 -76.039062 L 5.847656 0 L 30.308594 0 L 30.308594 -57.960938 C 30.308594 -58.3125 30.839844 -58.3125 31.371094 -58.492188 C 36.335938 -60.441406 39.527344 -60.972656 44.667969 -60.085938 C 48.742188 -59.199219 50.691406 -56.1875 53.175781 -52.640625 L 53.175781 0 L 77.632812 0 L 77.632812 -57.960938 C 77.632812 -58.3125 78.167969 -58.3125 78.699219 -58.492188 C 83.660156 -60.441406 86.851562 -60.972656 91.992188 -60.085938 C 96.066406 -59.199219 98.195312 -56.1875 100.675781 -52.464844 L 100.675781 0 L 114.855469 0 L 114.855469 -52.640625 C 113.96875 -60.265625 113.792969 -65.9375 107.945312 -70.722656 C 102.273438 -75.332031 96.421875 -75.152344 89.332031 -73.378906 C 84.722656 -72.316406 81.003906 -71.078125 77.632812 -69.304688 Z M 77.632812 -69.304688 "/></g></g></g><g fill="#98f4ca" fill-opacity="1"><g transform="translate(469.513162, 656.109587)"><g><path d="M 29.070312 -116.804688 L 29.070312 -70.542969 C 30.132812 -71.078125 31.371094 -71.609375 32.789062 -72.316406 C 40.589844 -75.507812 46.4375 -76.394531 54.058594 -72.847656 C 60.972656 -69.660156 63.453125 -64.695312 65.226562 -57.429688 C 68.417969 -44.667969 67.707031 -36.511719 66.289062 -23.398438 C 65.40625 -15.773438 65.226562 -10.101562 59.378906 -5.316406 C 53.707031 -0.710938 47.855469 -0.886719 40.765625 -2.660156 C 36.160156 -3.546875 32.4375 -4.785156 29.070312 -6.558594 L 29.070312 0 L 4.609375 0 L 4.609375 -116.804688 Z M 29.070312 -17.902344 C 29.421875 -17.726562 29.777344 -17.546875 30.132812 -17.546875 C 35.09375 -15.421875 38.285156 -15.066406 43.425781 -15.953125 C 47.679688 -16.660156 51.046875 -17.546875 53.527344 -21.269531 C 57.074219 -26.585938 56.894531 -30.839844 57.25 -37.222656 C 57.429688 -41.121094 57.074219 -43.425781 55.125 -46.792969 C 52.464844 -51.222656 50.871094 -54.59375 46.085938 -56.363281 C 40.945312 -58.136719 37.929688 -55.476562 32.789062 -54.769531 L 29.070312 -51.402344 Z M 29.070312 -17.902344 "/></g></g></g><g fill="#98f4ca" fill-opacity="1"><g transform="translate(544.133764, 656.109587)"><g><path d="M 21.269531 -39.527344 C 21.269531 -48.921875 28.890625 -56.542969 38.285156 -56.542969 C 47.679688 -56.542969 55.300781 -48.921875 55.300781 -39.527344 C 55.300781 -30.132812 47.679688 -22.511719 38.285156 -22.511719 C 28.890625 -22.511719 21.269531 -30.132812 21.269531 -39.527344 Z M 3.191406 -39.527344 C 3.191406 -18.964844 18.433594 -2.304688 37.222656 -2.304688 C 56.011719 -2.304688 71.253906 -18.964844 71.253906 -39.527344 C 71.253906 -60.085938 56.011719 -76.75 37.222656 -76.75 C 18.433594 -76.75 3.191406 -60.085938 3.191406 -39.527344 Z M 3.191406 -39.527344 "/></g></g></g></svg>