<svg xmlns="http://www.w3.org/2000/svg" xmlns:xlink="http://www.w3.org/1999/xlink" width="1080" zoomAndPan="magnify" viewBox="0 0 810 809.999993" height="1080" preserveAspectRatio="xMidYMid meet" version="1.0"><defs><g/><clipPath id="id1"><path d="M 195.066406 130.921875 L 595.566406 130.921875 L 595.566406 481.171875 L 195.066406 481.171875 Z M 195.066406 130.921875 " clip-rule="nonzero"/></clipPath><clipPath id="id2"><path d="M 195.066406 130.921875 L 595.5625 130.921875 L 595.5625 481.171875 L 195.066406 481.171875 Z M 195.066406 130.921875 " clip-rule="nonzero"/></clipPath><clipPath id="id3"><path d="M 395.316406 130.921875 L 595.5625 481.171875 L 195.066406 481.171875 L 395.316406 130.921875 " clip-rule="nonzero"/></clipPath><clipPath id="id4"><path d="M 300 247.386719 L 491 247.386719 L 491 305.886719 L 300 305.886719 Z M 300 247.386719 " clip-rule="nonzero"/></clipPath></defs><rect x="-81" width="972" fill="#ffffff" y="-80.999999" height="971.999992" fill-opacity="1"/><rect x="-81" width="972" fill="#ffffff" y="-80.999999" height="971.999992" fill-opacity="1"/><rect x="-81" width="972" fill="#ffffff" y="-80.999999" height="971.999992" fill-opacity="1"/><g clip-path="url(#id1)"><path fill="#2aa0c6" d="M 395.316406 130.921875 L 595.5625 481.171875 L 195.066406 481.171875 L 395.316406 130.921875 " fill-opacity="1" fill-rule="nonzero"/></g><g clip-path="url(#id2)"><g clip-path="url(#id3)"><path stroke-linecap="butt" transform="matrix(0.75022, 0, 0, 0.749824, 195.067347, 130.922416)" fill="none" stroke-linejoin="miter" d="M 266.920621 -0.000721253 L 533.83729 467.108643 L -0.00125435 467.108643 L 266.920621 -0.000721253 " stroke="#000000" stroke-width="30" stroke-opacity="1" stroke-miterlimit="4"/></g></g><g clip-path="url(#id4)"><path fill="#000000" d="M 490.824219 276.636719 C 490.824219 292.796875 477.667969 305.886719 461.421875 305.886719 C 445.175781 305.886719 432.019531 292.796875 432.019531 276.636719 C 432.019531 260.476562 445.175781 247.386719 461.421875 247.386719 C 477.667969 247.386719 490.824219 260.476562 490.824219 276.636719 Z M 329.4375 247.386719 C 313.191406 247.386719 300.035156 260.476562 300.035156 276.636719 C 300.035156 292.796875 313.191406 305.886719 329.4375 305.886719 C 345.679688 305.886719 358.839844 292.796875 358.839844 276.636719 C 358.839844 260.476562 345.679688 247.386719 329.4375 247.386719 Z M 329.4375 247.386719 " fill-opacity="1" fill-rule="nonzero"/></g><path fill="#ffffff" d="M 462.136719 271.640625 C 462.136719 277.945312 457 283.054688 450.660156 283.054688 C 444.324219 283.054688 439.1875 277.945312 439.1875 271.640625 C 439.1875 265.335938 444.324219 260.226562 450.660156 260.226562 C 457 260.226562 462.136719 265.335938 462.136719 271.640625 Z M 476.46875 284.5 C 474.09375 284.5 472.160156 286.425781 472.160156 288.785156 C 472.160156 291.148438 474.09375 293.074219 476.46875 293.074219 C 478.84375 293.074219 480.777344 291.148438 480.777344 288.785156 C 480.777344 286.402344 478.863281 284.5 476.46875 284.5 Z M 340.195312 260.226562 C 333.859375 260.226562 328.722656 265.335938 328.722656 271.640625 C 328.722656 277.945312 333.859375 283.054688 340.195312 283.054688 C 346.535156 283.054688 351.671875 277.945312 351.671875 271.640625 C 351.671875 265.335938 346.535156 260.226562 340.195312 260.226562 Z M 314.390625 284.5 C 312.015625 284.5 310.082031 286.425781 310.082031 288.785156 C 310.082031 291.148438 312.015625 293.074219 314.390625 293.074219 C 316.761719 293.074219 318.699219 291.148438 318.699219 288.785156 C 318.675781 286.402344 316.761719 284.5 314.390625 284.5 Z M 314.390625 284.5 " fill-opacity="1" fill-rule="nonzero"/><g fill="#100f0d" fill-opacity="0.302"><g transform="translate(106.404893, 641.969052)"><g><path d="M 82.953125 -124.429688 L 83.484375 -102.09375 L 58.492188 -101.5625 L 58.3125 0 L 34.03125 0 L 34.5625 -100.5 L 8.507812 -101.03125 L 8.507812 -125.492188 Z M 82.953125 -124.429688 "/></g></g></g><g fill="#100f0d" fill-opacity="0.302"><g transform="translate(198.572857, 641.969052)"><g><path d="M 67.53125 -52.640625 L 53.351562 -52.464844 C 50.871094 -56.1875 48.742188 -59.199219 44.667969 -60.085938 C 39.527344 -60.972656 36.335938 -60.441406 31.371094 -58.492188 C 30.839844 -58.3125 30.308594 -58.3125 30.308594 -57.960938 L 30.308594 0 L 5.847656 0 L 5.847656 -76.039062 L 30.308594 -76.039062 L 30.308594 -69.304688 C 33.675781 -71.078125 37.398438 -72.316406 42.007812 -73.378906 C 49.097656 -75.152344 54.945312 -75.332031 60.617188 -70.722656 C 66.46875 -65.9375 66.644531 -60.265625 67.53125 -52.640625 Z M 67.53125 -52.640625 "/></g></g></g><g fill="#100f0d" fill-opacity="0.302"><g transform="translate(273.193459, 641.969052)"><g><path d="M 24.28125 -118.222656 L 10.988281 -87.382812 L 24.460938 -87.382812 L 45.550781 -118.222656 Z M 4.253906 -59.023438 L 4.253906 0 L 31.371094 0 L 31.371094 -59.023438 Z M 4.253906 -59.023438 "/></g></g></g><g fill="#100f0d" fill-opacity="0.302"><g transform="translate(311.124122, 641.969052)"><g><path d="M 43.070312 -76.039062 L 43.070312 -70.542969 C 41.832031 -71.078125 40.589844 -71.609375 39.347656 -72.316406 C 31.550781 -75.507812 25.699219 -76.394531 18.078125 -72.847656 C 11.167969 -69.660156 8.683594 -64.695312 6.914062 -57.429688 C 3.722656 -44.667969 4.429688 -36.511719 5.847656 -23.398438 C 6.734375 -15.773438 6.914062 -10.101562 12.761719 -5.316406 C 18.433594 -0.710938 24.28125 -0.886719 31.371094 -2.660156 C 35.804688 -3.546875 39.527344 -4.785156 43.070312 -6.558594 L 43.070312 0 L 67.53125 0 L 67.53125 -76.039062 Z M 43.070312 -17.902344 C 42.714844 -17.726562 42.363281 -17.546875 42.007812 -17.546875 C 37.042969 -15.421875 33.855469 -15.066406 28.714844 -15.953125 C 24.460938 -16.660156 21.09375 -17.546875 18.609375 -21.269531 C 15.066406 -26.585938 15.242188 -30.839844 14.890625 -37.222656 C 14.710938 -41.121094 15.066406 -43.425781 17.015625 -46.792969 C 19.675781 -51.222656 21.269531 -54.59375 26.054688 -56.363281 C 31.195312 -58.136719 34.207031 -55.476562 39.347656 -54.769531 L 43.070312 -51.402344 Z M 43.070312 -17.902344 "/></g></g></g><g fill="#100f0d" fill-opacity="0.302"><g transform="translate(385.744724, 641.969052)"><g><path d="M 67.53125 -52.640625 L 67.53125 -0.710938 L 53.351562 -0.710938 L 53.351562 -52.464844 C 50.871094 -56.1875 48.742188 -59.199219 44.667969 -60.085938 C 39.527344 -60.972656 36.335938 -60.441406 31.371094 -58.492188 C 30.839844 -58.3125 30.308594 -58.3125 30.308594 -57.960938 L 30.308594 0 L 5.847656 0 L 5.847656 -76.039062 L 30.308594 -76.039062 L 30.308594 -69.304688 C 33.675781 -71.078125 37.398438 -72.316406 42.007812 -73.378906 C 49.097656 -75.152344 54.945312 -75.332031 60.617188 -70.722656 C 66.46875 -65.9375 66.644531 -60.265625 67.53125 -52.640625 Z M 67.53125 -52.640625 "/></g></g></g><g fill="#100f0d" fill-opacity="0.302"><g transform="translate(460.365326, 641.969052)"><g><path d="M 75.507812 -87.207031 C 75.683594 -59.554688 77.28125 -43.957031 76.039062 -16.484375 C 75.507812 -5.847656 74.796875 0.175781 71.253906 10.101562 C 69.125 15.953125 67 19.144531 62.214844 22.863281 C 57.25 26.585938 53.707031 27.117188 47.855469 28.183594 C 38.996094 29.777344 33.855469 29.777344 24.992188 29.246094 C 15.242188 28.535156 9.75 26.585938 0 24.992188 L 6.382812 2.660156 C 14.535156 5.140625 18.609375 8.863281 27.117188 9.039062 C 34.917969 9.21875 40.058594 8.507812 46.261719 3.722656 C 51.222656 -0.175781 52.109375 -4.785156 53.175781 -11.167969 C 54.59375 -19.675781 53.175781 -11.875 52.996094 -20.5625 L 52.996094 -24.28125 C 48.210938 -21.800781 38.996094 -19.320312 32.96875 -17.015625 C 28.535156 -15.242188 23.574219 -20.382812 19.144531 -20.914062 C 15.242188 -21.269531 12.9375 -25.699219 10.457031 -28.890625 C 5.496094 -34.917969 5.140625 -43.78125 3.722656 -51.222656 C 2.128906 -59.023438 7.089844 -63.632812 9.039062 -71.253906 C 10.28125 -76.039062 11.519531 -79.761719 15.953125 -82.421875 C 21.625 -85.964844 26.234375 -87.207031 32.96875 -86.140625 C 40.414062 -84.902344 46.085938 -84.015625 51.578125 -80.648438 L 51.578125 -87.207031 Z M 51.933594 -63.808594 C 46.792969 -66.113281 43.601562 -71.785156 37.222656 -74.976562 C 34.207031 -76.394531 32.257812 -77.632812 29.246094 -76.570312 C 25.167969 -75.152344 22.511719 -73.558594 21.269531 -69.660156 C 18.789062 -62.390625 19.675781 -58.847656 18.257812 -51.578125 C 17.015625 -46.4375 18.609375 -35.625 24.992188 -34.207031 C 31.195312 -32.613281 37.222656 -30.308594 43.070312 -32.4375 C 45.199219 -33.144531 50.871094 -36.511719 52.640625 -37.578125 Z M 51.933594 -63.808594 "/></g></g></g><g fill="#100f0d" fill-opacity="0.302"><g transform="translate(541.898525, 641.969052)"><g><path d="M 5.847656 -23.398438 L 5.847656 -75.332031 L 20.027344 -75.332031 L 20.027344 -23.574219 C 22.511719 -19.851562 24.460938 -16.660156 28.714844 -15.953125 C 33.855469 -15.066406 36.867188 -15.421875 42.007812 -17.546875 C 42.363281 -17.546875 43.070312 -17.726562 43.070312 -17.902344 L 43.070312 -76.039062 L 67.53125 -76.039062 L 67.53125 0 L 43.070312 0 L 43.070312 -6.558594 C 39.527344 -4.785156 35.804688 -3.546875 31.371094 -2.660156 C 24.28125 -0.886719 18.433594 -0.710938 12.761719 -5.316406 C 6.914062 -10.101562 6.734375 -15.773438 5.847656 -23.398438 Z M 5.847656 -23.398438 "/></g></g></g><g fill="#100f0d" fill-opacity="0.302"><g transform="translate(616.519127, 641.969052)"><g><path d="M 7.445312 -125.492188 L 7.445312 0 L 34.03125 0 L 34.03125 -125.492188 Z M 7.445312 -125.492188 "/></g></g></g><g fill="#100f0d" fill-opacity="0.302"><g transform="translate(659.767172, 641.969052)"><g><path d="M 21.269531 -39.527344 C 21.269531 -48.921875 28.890625 -56.542969 38.285156 -56.542969 C 47.679688 -56.542969 55.300781 -48.921875 55.300781 -39.527344 C 55.300781 -30.132812 47.679688 -22.511719 38.285156 -22.511719 C 28.890625 -22.511719 21.269531 -30.132812 21.269531 -39.527344 Z M 3.191406 -39.527344 C 3.191406 -18.964844 18.433594 -2.304688 37.222656 -2.304688 C 56.011719 -2.304688 71.253906 -18.964844 71.253906 -39.527344 C 71.253906 -60.085938 56.011719 -76.75 37.222656 -76.75 C 18.433594 -76.75 3.191406 -60.085938 3.191406 -39.527344 Z M 3.191406 -39.527344 "/></g></g></g><g fill="#100f0d" fill-opacity="0.502"><g transform="translate(98.571591, 634.13574)"><g><path d="M 82.953125 -124.429688 L 83.484375 -102.09375 L 58.492188 -101.5625 L 58.3125 0 L 34.03125 0 L 34.5625 -100.5 L 8.507812 -101.03125 L 8.507812 -125.492188 Z M 82.953125 -124.429688 "/></g></g></g><g fill="#100f0d" fill-opacity="0.502"><g transform="translate(190.739555, 634.13574)"><g><path d="M 67.53125 -52.640625 L 53.351562 -52.464844 C 50.871094 -56.1875 48.742188 -59.199219 44.667969 -60.085938 C 39.527344 -60.972656 36.335938 -60.441406 31.371094 -58.492188 C 30.839844 -58.3125 30.308594 -58.3125 30.308594 -57.960938 L 30.308594 0 L 5.847656 0 L 5.847656 -76.039062 L 30.308594 -76.039062 L 30.308594 -69.304688 C 33.675781 -71.078125 37.398438 -72.316406 42.007812 -73.378906 C 49.097656 -75.152344 54.945312 -75.332031 60.617188 -70.722656 C 66.46875 -65.9375 66.644531 -60.265625 67.53125 -52.640625 Z M 67.53125 -52.640625 "/></g></g></g><g fill="#100f0d" fill-opacity="0.502"><g transform="translate(265.360157, 634.13574)"><g><path d="M 24.28125 -118.222656 L 10.988281 -87.382812 L 24.460938 -87.382812 L 45.550781 -118.222656 Z M 4.253906 -59.023438 L 4.253906 0 L 31.371094 0 L 31.371094 -59.023438 Z M 4.253906 -59.023438 "/></g></g></g><g fill="#100f0d" fill-opacity="0.502"><g transform="translate(303.29082, 634.13574)"><g><path d="M 43.070312 -76.039062 L 43.070312 -70.542969 C 41.832031 -71.078125 40.589844 -71.609375 39.347656 -72.316406 C 31.550781 -75.507812 25.699219 -76.394531 18.078125 -72.847656 C 11.167969 -69.660156 8.683594 -64.695312 6.914062 -57.429688 C 3.722656 -44.667969 4.429688 -36.511719 5.847656 -23.398438 C 6.734375 -15.773438 6.914062 -10.101562 12.761719 -5.316406 C 18.433594 -0.710938 24.28125 -0.886719 31.371094 -2.660156 C 35.804688 -3.546875 39.527344 -4.785156 43.070312 -6.558594 L 43.070312 0 L 67.53125 0 L 67.53125 -76.039062 Z M 43.070312 -17.902344 C 42.714844 -17.726562 42.363281 -17.546875 42.007812 -17.546875 C 37.042969 -15.421875 33.855469 -15.066406 28.714844 -15.953125 C 24.460938 -16.660156 21.09375 -17.546875 18.609375 -21.269531 C 15.066406 -26.585938 15.242188 -30.839844 14.890625 -37.222656 C 14.710938 -41.121094 15.066406 -43.425781 17.015625 -46.792969 C 19.675781 -51.222656 21.269531 -54.59375 26.054688 -56.363281 C 31.195312 -58.136719 34.207031 -55.476562 39.347656 -54.769531 L 43.070312 -51.402344 Z M 43.070312 -17.902344 "/></g></g></g><g fill="#100f0d" fill-opacity="0.502"><g transform="translate(377.911422, 634.13574)"><g><path d="M 67.53125 -52.640625 L 67.53125 -0.710938 L 53.351562 -0.710938 L 53.351562 -52.464844 C 50.871094 -56.1875 48.742188 -59.199219 44.667969 -60.085938 C 39.527344 -60.972656 36.335938 -60.441406 31.371094 -58.492188 C 30.839844 -58.3125 30.308594 -58.3125 30.308594 -57.960938 L 30.308594 0 L 5.847656 0 L 5.847656 -76.039062 L 30.308594 -76.039062 L 30.308594 -69.304688 C 33.675781 -71.078125 37.398438 -72.316406 42.007812 -73.378906 C 49.097656 -75.152344 54.945312 -75.332031 60.617188 -70.722656 C 66.46875 -65.9375 66.644531 -60.265625 67.53125 -52.640625 Z M 67.53125 -52.640625 "/></g></g></g><g fill="#100f0d" fill-opacity="0.502"><g transform="translate(452.532024, 634.13574)"><g><path d="M 75.507812 -87.207031 C 75.683594 -59.554688 77.28125 -43.957031 76.039062 -16.484375 C 75.507812 -5.847656 74.796875 0.175781 71.253906 10.101562 C 69.125 15.953125 67 19.144531 62.214844 22.863281 C 57.25 26.585938 53.707031 27.117188 47.855469 28.183594 C 38.996094 29.777344 33.855469 29.777344 24.992188 29.246094 C 15.242188 28.535156 9.75 26.585938 0 24.992188 L 6.382812 2.660156 C 14.535156 5.140625 18.609375 8.863281 27.117188 9.039062 C 34.917969 9.21875 40.058594 8.507812 46.261719 3.722656 C 51.222656 -0.175781 52.109375 -4.785156 53.175781 -11.167969 C 54.59375 -19.675781 53.175781 -11.875 52.996094 -20.5625 L 52.996094 -24.28125 C 48.210938 -21.800781 38.996094 -19.320312 32.96875 -17.015625 C 28.535156 -15.242188 23.574219 -20.382812 19.144531 -20.914062 C 15.242188 -21.269531 12.9375 -25.699219 10.457031 -28.890625 C 5.496094 -34.917969 5.140625 -43.78125 3.722656 -51.222656 C 2.128906 -59.023438 7.089844 -63.632812 9.039062 -71.253906 C 10.28125 -76.039062 11.519531 -79.761719 15.953125 -82.421875 C 21.625 -85.964844 26.234375 -87.207031 32.96875 -86.140625 C 40.414062 -84.902344 46.085938 -84.015625 51.578125 -80.648438 L 51.578125 -87.207031 Z M 51.933594 -63.808594 C 46.792969 -66.113281 43.601562 -71.785156 37.222656 -74.976562 C 34.207031 -76.394531 32.257812 -77.632812 29.246094 -76.570312 C 25.167969 -75.152344 22.511719 -73.558594 21.269531 -69.660156 C 18.789062 -62.390625 19.675781 -58.847656 18.257812 -51.578125 C 17.015625 -46.4375 18.609375 -35.625 24.992188 -34.207031 C 31.195312 -32.613281 37.222656 -30.308594 43.070312 -32.4375 C 45.199219 -33.144531 50.871094 -36.511719 52.640625 -37.578125 Z M 51.933594 -63.808594 "/></g></g></g><g fill="#100f0d" fill-opacity="0.502"><g transform="translate(534.065223, 634.13574)"><g><path d="M 5.847656 -23.398438 L 5.847656 -75.332031 L 20.027344 -75.332031 L 20.027344 -23.574219 C 22.511719 -19.851562 24.460938 -16.660156 28.714844 -15.953125 C 33.855469 -15.066406 36.867188 -15.421875 42.007812 -17.546875 C 42.363281 -17.546875 43.070312 -17.726562 43.070312 -17.902344 L 43.070312 -76.039062 L 67.53125 -76.039062 L 67.53125 0 L 43.070312 0 L 43.070312 -6.558594 C 39.527344 -4.785156 35.804688 -3.546875 31.371094 -2.660156 C 24.28125 -0.886719 18.433594 -0.710938 12.761719 -5.316406 C 6.914062 -10.101562 6.734375 -15.773438 5.847656 -23.398438 Z M 5.847656 -23.398438 "/></g></g></g><g fill="#100f0d" fill-opacity="0.502"><g transform="translate(608.685825, 634.13574)"><g><path d="M 7.445312 -125.492188 L 7.445312 0 L 34.03125 0 L 34.03125 -125.492188 Z M 7.445312 -125.492188 "/></g></g></g><g fill="#100f0d" fill-opacity="0.502"><g transform="translate(651.93387, 634.13574)"><g><path d="M 21.269531 -39.527344 C 21.269531 -48.921875 28.890625 -56.542969 38.285156 -56.542969 C 47.679688 -56.542969 55.300781 -48.921875 55.300781 -39.527344 C 55.300781 -30.132812 47.679688 -22.511719 38.285156 -22.511719 C 28.890625 -22.511719 21.269531 -30.132812 21.269531 -39.527344 Z M 3.191406 -39.527344 C 3.191406 -18.964844 18.433594 -2.304688 37.222656 -2.304688 C 56.011719 -2.304688 71.253906 -18.964844 71.253906 -39.527344 C 71.253906 -60.085938 56.011719 -76.75 37.222656 -76.75 C 18.433594 -76.75 3.191406 -60.085938 3.191406 -39.527344 Z M 3.191406 -39.527344 "/></g></g></g><g fill="#2aa0c6" fill-opacity="1"><g transform="translate(90.73828, 626.302428)"><g><path d="M 82.953125 -124.429688 L 83.484375 -102.09375 L 58.492188 -101.5625 L 58.3125 0 L 34.03125 0 L 34.5625 -100.5 L 8.507812 -101.03125 L 8.507812 -125.492188 Z M 82.953125 -124.429688 "/></g></g></g><g fill="#2aa0c6" fill-opacity="1"><g transform="translate(182.906244, 626.302428)"><g><path d="M 67.53125 -52.640625 L 53.351562 -52.464844 C 50.871094 -56.1875 48.742188 -59.199219 44.667969 -60.085938 C 39.527344 -60.972656 36.335938 -60.441406 31.371094 -58.492188 C 30.839844 -58.3125 30.308594 -58.3125 30.308594 -57.960938 L 30.308594 0 L 5.847656 0 L 5.847656 -76.039062 L 30.308594 -76.039062 L 30.308594 -69.304688 C 33.675781 -71.078125 37.398438 -72.316406 42.007812 -73.378906 C 49.097656 -75.152344 54.945312 -75.332031 60.617188 -70.722656 C 66.46875 -65.9375 66.644531 -60.265625 67.53125 -52.640625 Z M 67.53125 -52.640625 "/></g></g></g><g fill="#2aa0c6" fill-opacity="1"><g transform="translate(257.526846, 626.302428)"><g><path d="M 24.28125 -118.222656 L 10.988281 -87.382812 L 24.460938 -87.382812 L 45.550781 -118.222656 Z M 4.253906 -59.023438 L 4.253906 0 L 31.371094 0 L 31.371094 -59.023438 Z M 4.253906 -59.023438 "/></g></g></g><g fill="#2aa0c6" fill-opacity="1"><g transform="translate(295.457508, 626.302428)"><g><path d="M 43.070312 -76.039062 L 43.070312 -70.542969 C 41.832031 -71.078125 40.589844 -71.609375 39.347656 -72.316406 C 31.550781 -75.507812 25.699219 -76.394531 18.078125 -72.847656 C 11.167969 -69.660156 8.683594 -64.695312 6.914062 -57.429688 C 3.722656 -44.667969 4.429688 -36.511719 5.847656 -23.398438 C 6.734375 -15.773438 6.914062 -10.101562 12.761719 -5.316406 C 18.433594 -0.710938 24.28125 -0.886719 31.371094 -2.660156 C 35.804688 -3.546875 39.527344 -4.785156 43.070312 -6.558594 L 43.070312 0 L 67.53125 0 L 67.53125 -76.039062 Z M 43.070312 -17.902344 C 42.714844 -17.726562 42.363281 -17.546875 42.007812 -17.546875 C 37.042969 -15.421875 33.855469 -15.066406 28.714844 -15.953125 C 24.460938 -16.660156 21.09375 -17.546875 18.609375 -21.269531 C 15.066406 -26.585938 15.242188 -30.839844 14.890625 -37.222656 C 14.710938 -41.121094 15.066406 -43.425781 17.015625 -46.792969 C 19.675781 -51.222656 21.269531 -54.59375 26.054688 -56.363281 C 31.195312 -58.136719 34.207031 -55.476562 39.347656 -54.769531 L 43.070312 -51.402344 Z M 43.070312 -17.902344 "/></g></g></g><g fill="#2aa0c6" fill-opacity="1"><g transform="translate(370.07811, 626.302428)"><g><path d="M 67.53125 -52.640625 L 67.53125 -0.710938 L 53.351562 -0.710938 L 53.351562 -52.464844 C 50.871094 -56.1875 48.742188 -59.199219 44.667969 -60.085938 C 39.527344 -60.972656 36.335938 -60.441406 31.371094 -58.492188 C 30.839844 -58.3125 30.308594 -58.3125 30.308594 -57.960938 L 30.308594 0 L 5.847656 0 L 5.847656 -76.039062 L 30.308594 -76.039062 L 30.308594 -69.304688 C 33.675781 -71.078125 37.398438 -72.316406 42.007812 -73.378906 C 49.097656 -75.152344 54.945312 -75.332031 60.617188 -70.722656 C 66.46875 -65.9375 66.644531 -60.265625 67.53125 -52.640625 Z M 67.53125 -52.640625 "/></g></g></g><g fill="#2aa0c6" fill-opacity="1"><g transform="translate(444.698712, 626.302428)"><g><path d="M 75.507812 -87.207031 C 75.683594 -59.554688 77.28125 -43.957031 76.039062 -16.484375 C 75.507812 -5.847656 74.796875 0.175781 71.253906 10.101562 C 69.125 15.953125 67 19.144531 62.214844 22.863281 C 57.25 26.585938 53.707031 27.117188 47.855469 28.183594 C 38.996094 29.777344 33.855469 29.777344 24.992188 29.246094 C 15.242188 28.535156 9.75 26.585938 0 24.992188 L 6.382812 2.660156 C 14.535156 5.140625 18.609375 8.863281 27.117188 9.039062 C 34.917969 9.21875 40.058594 8.507812 46.261719 3.722656 C 51.222656 -0.175781 52.109375 -4.785156 53.175781 -11.167969 C 54.59375 -19.675781 53.175781 -11.875 52.996094 -20.5625 L 52.996094 -24.28125 C 48.210938 -21.800781 38.996094 -19.320312 32.96875 -17.015625 C 28.535156 -15.242188 23.574219 -20.382812 19.144531 -20.914062 C 15.242188 -21.269531 12.9375 -25.699219 10.457031 -28.890625 C 5.496094 -34.917969 5.140625 -43.78125 3.722656 -51.222656 C 2.128906 -59.023438 7.089844 -63.632812 9.039062 -71.253906 C 10.28125 -76.039062 11.519531 -79.761719 15.953125 -82.421875 C 21.625 -85.964844 26.234375 -87.207031 32.96875 -86.140625 C 40.414062 -84.902344 46.085938 -84.015625 51.578125 -80.648438 L 51.578125 -87.207031 Z M 51.933594 -63.808594 C 46.792969 -66.113281 43.601562 -71.785156 37.222656 -74.976562 C 34.207031 -76.394531 32.257812 -77.632812 29.246094 -76.570312 C 25.167969 -75.152344 22.511719 -73.558594 21.269531 -69.660156 C 18.789062 -62.390625 19.675781 -58.847656 18.257812 -51.578125 C 17.015625 -46.4375 18.609375 -35.625 24.992188 -34.207031 C 31.195312 -32.613281 37.222656 -30.308594 43.070312 -32.4375 C 45.199219 -33.144531 50.871094 -36.511719 52.640625 -37.578125 Z M 51.933594 -63.808594 "/></g></g></g><g fill="#2aa0c6" fill-opacity="1"><g transform="translate(526.231912, 626.302428)"><g><path d="M 5.847656 -23.398438 L 5.847656 -75.332031 L 20.027344 -75.332031 L 20.027344 -23.574219 C 22.511719 -19.851562 24.460938 -16.660156 28.714844 -15.953125 C 33.855469 -15.066406 36.867188 -15.421875 42.007812 -17.546875 C 42.363281 -17.546875 43.070312 -17.726562 43.070312 -17.902344 L 43.070312 -76.039062 L 67.53125 -76.039062 L 67.53125 0 L 43.070312 0 L 43.070312 -6.558594 C 39.527344 -4.785156 35.804688 -3.546875 31.371094 -2.660156 C 24.28125 -0.886719 18.433594 -0.710938 12.761719 -5.316406 C 6.914062 -10.101562 6.734375 -15.773438 5.847656 -23.398438 Z M 5.847656 -23.398438 "/></g></g></g><g fill="#2aa0c6" fill-opacity="1"><g transform="translate(600.852514, 626.302428)"><g><path d="M 7.445312 -125.492188 L 7.445312 0 L 34.03125 0 L 34.03125 -125.492188 Z M 7.445312 -125.492188 "/></g></g></g><g fill="#2aa0c6" fill-opacity="1"><g transform="translate(644.100559, 626.302428)"><g><path d="M 21.269531 -39.527344 C 21.269531 -48.921875 28.890625 -56.542969 38.285156 -56.542969 C 47.679688 -56.542969 55.300781 -48.921875 55.300781 -39.527344 C 55.300781 -30.132812 47.679688 -22.511719 38.285156 -22.511719 C 28.890625 -22.511719 21.269531 -30.132812 21.269531 -39.527344 Z M 3.191406 -39.527344 C 3.191406 -18.964844 18.433594 -2.304688 37.222656 -2.304688 C 56.011719 -2.304688 71.253906 -18.964844 71.253906 -39.527344 C 71.253906 -60.085938 56.011719 -76.75 37.222656 -76.75 C 18.433594 -76.75 3.191406 -60.085938 3.191406 -39.527344 Z M 3.191406 -39.527344 "/></g></g></g></svg>