<svg xmlns="http://www.w3.org/2000/svg" xmlns:xlink="http://www.w3.org/1999/xlink" width="1080" zoomAndPan="magnify" viewBox="0 0 810 809.999993" height="1080" preserveAspectRatio="xMidYMid meet" version="1.0"><defs><g/><clipPath id="id1"><path d="M 250.144531 319 L 313 319 L 313 348 L 250.144531 348 Z M 250.144531 319 " clip-rule="nonzero"/></clipPath><clipPath id="id2"><path d="M 396 149.695312 L 450 149.695312 L 450 244 L 396 244 Z M 396 149.695312 " clip-rule="nonzero"/></clipPath><clipPath id="id3"><path d="M 411 420 L 470 420 L 470 563.695312 L 411 563.695312 Z M 411 420 " clip-rule="nonzero"/></clipPath><clipPath id="id4"><path d="M 566 332 L 634.894531 332 L 634.894531 367 L 566 367 Z M 566 332 " clip-rule="nonzero"/></clipPath></defs><rect x="-81" width="972" fill="rgb(100%, 100%, 100%)" y="-80.999999" height="971.999992" fill-opacity="1"/><rect x="-81" width="972" fill="rgb(100%, 100%, 100%)" y="-80.999999" height="971.999992" fill-opacity="1"/><rect x="-81" width="972" fill="rgb(100%, 100%, 100%)" y="-80.999999" height="971.999992" fill-opacity="1"/><g fill="rgb(0%, 0%, 0%)" fill-opacity="1"><g transform="translate(175.430853, 567.114455)"><g><path d="M 71.261719 -96.300781 L 119.027344 -216.871094 L 166.410156 -96.300781 Z M 233.820312 0 L 119.027344 -280.046875 L 3.851562 0 L 33.128906 0 L 61.246094 -71.261719 L 176.425781 -71.261719 L 204.546875 0 Z M 233.820312 0 "/></g></g></g><path fill="rgb(63.139343%, 60.389709%, 18.429565%)" d="M 254.351562 257.152344 C 254.351562 257.152344 300.273438 342.148438 369.535156 308.707031 C 369.535156 308.707031 355.25 239.828125 254.351562 257.152344 Z M 254.351562 257.152344 " fill-opacity="1" fill-rule="nonzero"/><path fill="rgb(63.139343%, 60.389709%, 18.429565%)" d="M 584.726562 306.996094 C 584.726562 306.996094 510.574219 267.550781 490.179688 334.878906 C 490.179688 334.878906 537.246094 380.453125 584.726562 306.996094 Z M 584.726562 306.996094 " fill-opacity="1" fill-rule="nonzero"/><path fill="rgb(63.139343%, 60.389709%, 18.429565%)" d="M 527.730469 456.5625 C 527.730469 456.5625 513.140625 373.933594 447.46875 399.394531 C 447.46875 399.394531 440.539062 464.5 527.730469 456.5625 Z M 527.730469 456.5625 " fill-opacity="1" fill-rule="nonzero"/><path fill="rgb(63.139343%, 60.389709%, 18.429565%)" d="M 461.582031 252.332031 C 461.582031 252.332031 416.242188 253.972656 424.734375 303.996094 C 424.734375 304 469.289062 299.359375 461.582031 252.332031 Z M 461.582031 252.332031 " fill-opacity="1" fill-rule="nonzero"/><path fill="rgb(63.139343%, 60.389709%, 18.429565%)" d="M 330.152344 450.125 C 330.152344 450.125 404.675781 484.351562 432.65625 409.953125 C 432.65625 409.957031 367.6875 376.546875 330.152344 450.125 Z M 330.152344 450.125 " fill-opacity="1" fill-rule="nonzero"/><g clip-path="url(#id1)"><path fill="rgb(63.139343%, 60.389709%, 18.429565%)" d="M 250.554688 335.738281 C 250.554688 335.738281 281.820312 364.246094 312.640625 331.539062 C 312.640625 331.539062 281.183594 300.886719 250.554688 335.738281 Z M 250.554688 335.738281 " fill-opacity="1" fill-rule="nonzero"/></g><path fill="rgb(63.139343%, 60.389709%, 18.429565%)" d="M 525.617188 158.371094 C 525.617188 158.371094 459.269531 172.355469 468.023438 241.824219 C 468.023438 241.824219 541.453125 232.121094 525.617188 158.371094 Z M 525.617188 158.371094 " fill-opacity="1" fill-rule="nonzero"/><path fill="rgb(56.469727%, 36.859131%, 21.179199%)" d="M 587.53125 389.671875 C 587.53125 389.671875 534.050781 324.964844 489.472656 379.4375 C 489.472656 379.4375 515.585938 439.492188 587.53125 389.671875 Z M 587.53125 389.671875 " fill-opacity="1" fill-rule="nonzero"/><g clip-path="url(#id2)"><path fill="rgb(56.469727%, 36.859131%, 21.179199%)" d="M 406.757812 149.695312 C 406.757812 149.695312 368.617188 224.449219 436.40625 243.589844 C 436.40625 243.589844 481.183594 195.761719 406.757812 149.695312 Z M 406.757812 149.695312 " fill-opacity="1" fill-rule="nonzero"/></g><path fill="rgb(56.469727%, 36.859131%, 21.179199%)" d="M 377.914062 372.59375 C 377.914062 372.59375 422.796875 416.972656 480.300781 370.597656 C 480.300781 370.597656 427.882812 316.023438 377.914062 372.59375 Z M 377.914062 372.59375 " fill-opacity="1" fill-rule="nonzero"/><g clip-path="url(#id3)"><path fill="rgb(56.469727%, 36.859131%, 21.179199%)" d="M 440.324219 420.546875 L 411.183594 563.695312 L 469.867188 563.695312 Z M 440.324219 420.546875 " fill-opacity="1" fill-rule="nonzero"/></g><path fill="rgb(98.81897%, 44.309998%, 21.958923%)" d="M 583.28125 230.0625 C 583.28125 230.0625 499.414062 203.425781 477.976562 279.960938 C 477.976562 279.960938 552.800781 308.710938 583.28125 230.0625 Z M 583.28125 230.0625 " fill-opacity="1" fill-rule="nonzero"/><path fill="rgb(98.81897%, 44.309998%, 21.958923%)" d="M 274.914062 381.445312 C 274.914062 381.445312 310.878906 430.179688 363.109375 394.269531 C 363.109375 394.269531 333.140625 343.820312 274.914062 381.445312 Z M 274.914062 381.445312 " fill-opacity="1" fill-rule="nonzero"/><path fill="rgb(98.81897%, 44.309998%, 21.958923%)" d="M 381.265625 309.269531 C 381.265625 309.269531 394.273438 349.445312 435.324219 330.378906 C 435.324219 330.378906 419.945312 290.542969 381.265625 309.269531 Z M 381.265625 309.269531 " fill-opacity="1" fill-rule="nonzero"/><path fill="rgb(100%, 84.309387%, 23.919678%)" d="M 328.496094 206.675781 C 328.496094 206.675781 331.570312 287.738281 411.0625 283.96875 C 411.0625 283.96875 417.910156 213.003906 328.496094 206.675781 Z M 328.496094 206.675781 " fill-opacity="1" fill-rule="nonzero"/><path fill="rgb(100%, 84.309387%, 23.919678%)" d="M 317.898438 343.472656 C 317.898438 343.472656 348.695312 380.746094 386.167969 343.894531 C 386.167969 343.894531 354.046875 305.949219 317.898438 343.472656 Z M 317.898438 343.472656 " fill-opacity="1" fill-rule="nonzero"/><g clip-path="url(#id4)"><path fill="rgb(100%, 84.309387%, 23.919678%)" d="M 566.21875 349.457031 C 566.21875 349.457031 597.011719 386.734375 634.484375 349.878906 C 634.484375 349.878906 602.363281 311.933594 566.21875 349.457031 Z M 566.21875 349.457031 " fill-opacity="1" fill-rule="nonzero"/></g><path fill="rgb(100%, 84.309387%, 23.919678%)" d="M 464.566406 290.101562 C 464.566406 290.101562 434.015625 323.144531 467.429688 348.097656 C 467.429688 348.097656 495.085938 317.179688 464.566406 290.101562 Z M 464.566406 290.101562 " fill-opacity="1" fill-rule="nonzero"/><g fill="rgb(0%, 0%, 0%)" fill-opacity="1"><g transform="translate(389.655569, 564.565376)"><g><path d="M 163.625 -84.699219 C 163.625 -68.144531 157.847656 -53.515625 146.300781 -41.578125 C 134.75 -29.261719 120.503906 -23.101562 103.949219 -23.101562 C 87.007812 -23.101562 72.765625 -29.261719 61.214844 -41.578125 C 49.664062 -53.515625 44.273438 -68.144531 44.273438 -84.699219 C 44.273438 -100.871094 49.664062 -115.5 61.214844 -127.820312 C 72.765625 -140.140625 87.007812 -146.300781 103.949219 -146.300781 C 120.503906 -146.300781 134.75 -140.140625 146.300781 -127.820312 C 157.847656 -115.5 163.625 -100.871094 163.625 -84.699219 Z M 190.574219 0 L 190.574219 -169.398438 L 163.625 -169.398438 L 163.625 -140.140625 C 162.082031 -142.449219 160.160156 -144.375 158.617188 -146.300781 C 142.449219 -164.007812 122.8125 -173.25 99.714844 -173.25 C 76.230469 -173.25 56.59375 -164.007812 40.425781 -146.300781 C 25.023438 -128.589844 17.324219 -108.183594 17.324219 -84.699219 C 17.324219 -60.828125 25.023438 -40.425781 40.425781 -23.101562 C 56.59375 -5.003906 76.230469 3.851562 99.714844 3.851562 C 122.8125 3.851562 142.449219 -5.003906 158.617188 -23.101562 C 160.160156 -24.640625 162.082031 -26.566406 163.625 -28.875 L 163.625 0 Z M 190.574219 0 "/></g></g></g></svg>