<svg xmlns="http://www.w3.org/2000/svg" xmlns:xlink="http://www.w3.org/1999/xlink" width="1080" zoomAndPan="magnify" viewBox="0 0 810 809.999993" height="1080" preserveAspectRatio="xMidYMid meet" version="1.0"><defs><g/><clipPath id="id1"><path d="M 336 322 L 342 322 L 342 349.265625 L 336 349.265625 Z M 336 322 " clip-rule="nonzero"/></clipPath><clipPath id="id2"><path d="M 289 322 L 294 322 L 294 349.265625 L 289 349.265625 Z M 289 322 " clip-rule="nonzero"/></clipPath></defs><rect x="-81" width="972" fill="rgb(100%, 100%, 100%)" y="-80.999999" height="971.999992" fill-opacity="1"/><rect x="-81" width="972" fill="rgb(100%, 100%, 100%)" y="-80.999999" height="971.999992" fill-opacity="1"/><g fill="rgb(50.19989%, 80.389404%, 23.139954%)" fill-opacity="1"><g transform="translate(228.919576, 599.294697)"><g><path d="M 199.921875 -72.804688 C 199.921875 -91.292969 195.300781 -107.085938 186.441406 -119.414062 C 177.195312 -131.742188 164.867188 -140.214844 149.847656 -144.453125 C 158.707031 -148.304688 166.410156 -155.238281 172.1875 -165.640625 C 174.882812 -170.261719 176.808594 -174.882812 178.351562 -179.890625 C 179.890625 -184.898438 180.664062 -191.832031 180.664062 -200.691406 C 180.664062 -209.167969 178.351562 -218.027344 174.5 -226.503906 C 162.941406 -250 137.902344 -261.941406 99.769531 -261.941406 L 28.890625 -261.941406 L 28.890625 0 L 109.015625 0 C 135.59375 0 156.78125 -5.777344 172.957031 -18.105469 C 181.046875 -24.269531 187.597656 -32.359375 192.605469 -42.371094 C 197.226562 -52.003906 199.921875 -62.019531 199.921875 -72.804688 Z M 153.699219 -196.457031 C 153.699219 -182.203125 149.460938 -171.800781 140.984375 -164.867188 C 132.511719 -157.933594 121.339844 -154.46875 107.472656 -154.46875 L 55.855469 -154.46875 L 55.855469 -236.132812 L 99.769531 -236.132812 C 135.59375 -236.132812 153.699219 -222.648438 153.699219 -196.457031 Z M 172.957031 -78.195312 C 172.957031 -62.402344 167.566406 -49.691406 156.78125 -40.0625 C 146.378906 -30.429688 132.898438 -25.808594 116.71875 -25.808594 L 55.855469 -25.808594 L 55.855469 -127.503906 L 120.957031 -127.503906 C 134.4375 -127.503906 146.378906 -122.882812 156.78125 -113.636719 C 161.402344 -109.398438 165.253906 -104.390625 168.335938 -98.613281 C 171.417969 -92.449219 172.957031 -85.902344 172.957031 -78.195312 Z M 172.957031 -78.195312 "/></g></g></g><g fill="rgb(83.529663%, 21.179199%, 40.779114%)" fill-opacity="1"><g transform="translate(436.54791, 596.745751)"><g><path d="M 55.824219 0 L 55.824219 -28.875 C 56.980469 -26.566406 58.90625 -24.640625 60.445312 -23.101562 C 76.613281 -5.003906 96.25 3.851562 119.734375 3.851562 C 142.835938 3.851562 162.46875 -5.003906 178.640625 -23.101562 C 194.039062 -40.425781 202.125 -60.828125 202.125 -84.699219 C 202.125 -108.183594 194.039062 -128.589844 178.640625 -146.300781 C 162.46875 -164.007812 142.835938 -173.25 119.734375 -173.25 C 96.25 -173.25 76.613281 -164.007812 60.445312 -146.300781 C 58.90625 -144.375 56.980469 -142.449219 55.824219 -140.140625 L 55.824219 -288.75 L 28.875 -288.75 L 28.875 0 Z M 175.175781 -84.699219 C 175.175781 -68.144531 169.398438 -53.515625 157.847656 -41.578125 C 146.300781 -29.261719 132.054688 -23.101562 115.5 -23.101562 C 98.558594 -23.101562 84.316406 -29.261719 72.765625 -41.578125 C 61.214844 -53.515625 55.824219 -68.144531 55.824219 -84.699219 C 55.824219 -100.871094 61.214844 -115.5 72.765625 -127.820312 C 84.316406 -140.140625 98.558594 -146.300781 115.5 -146.300781 C 132.054688 -146.300781 146.300781 -140.140625 157.847656 -127.820312 C 169.398438 -115.5 175.175781 -100.871094 175.175781 -84.699219 Z M 175.175781 -84.699219 "/></g></g></g><path fill="rgb(70.199585%, 24.708557%, 29.019165%)" d="M 169.113281 127.378906 C 172.023438 124.691406 177.148438 125.519531 180.566406 129.207031 C 180.566406 129.207031 246.488281 181.402344 250.222656 204.628906 C 251.785156 214.394531 225.300781 215.066406 215.75 213.84375 C 198.964844 211.707031 165.308594 196.476562 165.308594 196.476562 C 161.003906 194.238281 158.5 189.1875 159.730469 185.214844 C 160.957031 181.242188 165.4375 179.824219 169.761719 182.078125 L 177.726562 186.210938 L 160.152344 173.414062 C 156.132812 170.492188 154.496094 165.269531 156.492188 161.769531 C 158.476562 158.273438 163.355469 157.808594 167.363281 160.742188 L 180.378906 170.210938 L 162.089844 153.832031 C 158.351562 150.480469 157.335938 145.257812 159.824219 142.152344 C 162.304688 139.046875 167.347656 139.25 171.074219 142.589844 L 184.542969 154.652344 L 170.015625 138.925781 C 166.601562 135.226562 166.191406 130.058594 169.113281 127.378906 " fill-opacity="1" fill-rule="nonzero"/><path fill="rgb(70.199585%, 24.708557%, 29.019165%)" d="M 462.816406 127.378906 C 459.90625 124.691406 454.785156 125.519531 451.367188 129.207031 C 451.367188 129.207031 385.441406 181.402344 381.707031 204.628906 C 380.144531 214.394531 406.628906 215.066406 416.183594 213.84375 C 432.96875 211.707031 466.625 196.476562 466.625 196.476562 C 470.929688 194.238281 473.429688 189.1875 472.199219 185.214844 C 470.976562 181.242188 466.488281 179.824219 462.167969 182.078125 L 454.203125 186.210938 L 471.773438 173.414062 C 475.796875 170.492188 477.4375 165.269531 475.441406 161.769531 C 473.453125 158.273438 468.578125 157.808594 464.570312 160.742188 L 451.546875 170.210938 L 469.839844 153.832031 C 473.574219 150.480469 474.589844 145.257812 472.105469 142.152344 C 469.621094 139.046875 464.582031 139.25 460.851562 142.589844 L 447.382812 154.652344 L 461.917969 138.925781 C 465.324219 135.226562 465.734375 130.058594 462.816406 127.378906 " fill-opacity="1" fill-rule="nonzero"/><g clip-path="url(#id1)"><path fill="rgb(70.199585%, 24.708557%, 29.019165%)" d="M 341.261719 346.128906 C 341.261719 347.722656 340.242188 349.019531 338.976562 349.019531 C 337.714844 349.019531 336.6875 347.722656 336.6875 346.128906 L 336.6875 325.519531 C 336.6875 323.921875 337.714844 322.625 338.976562 322.625 C 340.242188 322.625 341.261719 323.921875 341.261719 325.519531 L 341.261719 346.128906 " fill-opacity="1" fill-rule="nonzero"/></g><path fill="rgb(70.199585%, 24.708557%, 29.019165%)" d="M 329.199219 346.949219 C 328.40625 347.699219 327.058594 347.558594 326.195312 346.644531 C 325.320312 345.726562 325.257812 344.375 326.050781 343.628906 L 336.453125 333.15625 C 337.25 332.40625 338.429688 333.34375 339.296875 334.261719 C 340.164062 335.183594 340.226562 336.53125 339.429688 337.277344 L 329.199219 346.949219 " fill-opacity="1" fill-rule="nonzero"/><path fill="rgb(70.199585%, 24.708557%, 29.019165%)" d="M 348.566406 346.96875 C 349.355469 347.71875 350.699219 347.589844 351.570312 346.675781 C 352.453125 345.769531 352.515625 344.417969 351.734375 343.660156 L 341.386719 333.140625 C 340.601562 332.382812 339.40625 333.316406 338.53125 334.234375 C 337.65625 335.144531 337.582031 336.496094 338.378906 337.242188 L 348.566406 346.96875 " fill-opacity="1" fill-rule="nonzero"/><g clip-path="url(#id2)"><path fill="rgb(70.199585%, 24.708557%, 29.019165%)" d="M 293.796875 346.304688 C 293.796875 347.902344 292.769531 349.199219 291.507812 349.199219 C 290.246094 349.199219 289.21875 347.902344 289.21875 346.304688 L 289.21875 325.691406 C 289.21875 324.09375 290.246094 322.804688 291.507812 322.804688 C 292.769531 322.804688 293.796875 324.09375 293.796875 325.691406 L 293.796875 346.304688 " fill-opacity="1" fill-rule="nonzero"/></g><path fill="rgb(70.199585%, 24.708557%, 29.019165%)" d="M 281.730469 347.125 C 280.9375 347.871094 279.59375 347.730469 278.722656 346.816406 C 277.855469 345.898438 277.792969 344.546875 278.589844 343.800781 L 288.988281 333.328125 C 289.777344 332.578125 290.957031 333.519531 291.828125 334.441406 C 292.699219 335.355469 292.757812 336.699219 291.964844 337.449219 L 281.730469 347.125 " fill-opacity="1" fill-rule="nonzero"/><path fill="rgb(70.199585%, 24.708557%, 29.019165%)" d="M 301.101562 347.140625 C 301.886719 347.898438 303.234375 347.761719 304.109375 346.851562 C 304.984375 345.941406 305.046875 344.589844 304.261719 343.839844 L 293.921875 333.3125 C 293.136719 332.558594 291.9375 333.488281 291.0625 334.410156 C 290.1875 335.3125 290.121094 336.664062 290.910156 337.421875 L 301.101562 347.140625 " fill-opacity="1" fill-rule="nonzero"/><path fill="rgb(100%, 29.798889%, 42.749023%)" d="M 400.417969 225.0625 C 397.867188 208.347656 394.097656 180.175781 394.019531 179.902344 C 394.019531 179.902344 396.652344 154.855469 388.203125 119.636719 C 388.183594 119.5625 387.195312 117.460938 384.539062 119.78125 C 379.023438 124.601562 363.011719 134.160156 357.804688 134.796875 C 357.804688 134.796875 356.777344 135.042969 356.449219 134.964844 C 356.113281 134.882812 355.300781 134.214844 355.300781 134.214844 C 343.851562 126.710938 331.023438 122.789062 317.175781 122.542969 L 317.175781 122.53125 C 317.113281 122.53125 317.050781 122.53125 316.992188 122.53125 C 316.953125 122.53125 316.917969 122.523438 316.875 122.523438 C 316.617188 122.523438 316.363281 122.523438 316.109375 122.523438 C 315.855469 122.523438 315.605469 122.523438 315.339844 122.523438 C 315.304688 122.523438 315.269531 122.53125 315.226562 122.53125 C 315.167969 122.53125 315.109375 122.53125 315.042969 122.53125 L 315.042969 122.542969 C 301.195312 122.789062 288.367188 126.710938 276.921875 134.214844 C 276.921875 134.214844 276.105469 134.882812 275.777344 134.964844 C 275.441406 135.042969 274.414062 134.796875 274.414062 134.796875 C 269.203125 134.160156 253.199219 124.601562 247.675781 119.78125 C 245.023438 117.460938 244.035156 119.5625 244.019531 119.636719 C 235.566406 154.855469 238.199219 179.902344 238.199219 179.902344 C 238.121094 180.175781 234.347656 208.347656 231.800781 225.0625 C 226.195312 261.828125 229.9375 287.355469 243.226562 303.109375 C 251.28125 312.652344 261.058594 317.78125 273.078125 320.597656 C 264.121094 315.757812 258.074219 305.988281 259.121094 286.355469 C 261.078125 249.890625 284.492188 228.082031 316.109375 227.578125 C 347.730469 228.082031 371.144531 249.890625 373.097656 286.355469 C 374.144531 305.988281 368.941406 315.785156 359.984375 320.628906 C 372.003906 317.8125 380.9375 312.652344 388.988281 303.109375 C 402.289062 287.355469 406.027344 261.828125 400.417969 225.0625 " fill-opacity="1" fill-rule="nonzero"/><path fill="rgb(98.039246%, 31.369019%, 42.749023%)" d="M 373.097656 286.355469 C 371.121094 249.5625 347.308594 227.679688 315.25 227.554688 C 283.1875 227.445312 258.535156 249.128906 256.984375 285.949219 C 256.164062 305.269531 261.4375 315.058594 270.433594 320.007812 C 283.242188 323.042969 298.082031 323.671875 314.003906 323.902344 C 318.070312 323.957031 323.4375 324.007812 328.890625 323.898438 C 328.898438 323.898438 328.898438 323.898438 328.898438 323.898438 C 339.144531 323.699219 349.902344 322.988281 359.984375 320.628906 C 368.941406 315.785156 374.144531 305.988281 373.097656 286.355469 " fill-opacity="1" fill-rule="nonzero"/><path fill="rgb(99.609375%, 81.17981%, 83.529663%)" d="M 283.21875 268.28125 C 283.097656 268.28125 282.964844 268.273438 282.847656 268.261719 C 277.105469 268.03125 273.128906 262.992188 273.078125 262.941406 L 273.402344 262.714844 C 273.4375 262.773438 277.3125 267.660156 282.855469 267.894531 C 286.355469 268.023438 289.789062 266.308594 293.046875 262.773438 L 293.34375 263.027344 C 290.109375 266.523438 286.714844 268.292969 283.21875 268.28125 " fill-opacity="1" fill-rule="nonzero"/><path fill="rgb(99.609375%, 81.17981%, 83.529663%)" d="M 283.226562 268.8125 C 283.082031 268.816406 282.9375 268.804688 282.8125 268.808594 C 276.824219 268.554688 272.707031 263.328125 272.667969 263.273438 L 272.320312 262.832031 L 273.507812 261.964844 L 273.832031 262.382812 C 273.863281 262.441406 277.597656 267.136719 282.878906 267.355469 C 286.179688 267.476562 289.511719 265.8125 292.660156 262.40625 L 293.011719 262.015625 L 294.117188 262.984375 L 293.761719 263.390625 C 290.40625 267.003906 286.867188 268.816406 283.226562 268.8125 " fill-opacity="1" fill-rule="nonzero"/><path fill="rgb(99.609375%, 81.17981%, 83.529663%)" d="M 316.058594 268.390625 C 315.933594 268.394531 315.804688 268.390625 315.675781 268.378906 C 309.949219 268.140625 305.976562 263.101562 305.925781 263.066406 L 306.25 262.832031 C 306.28125 262.890625 310.152344 267.777344 315.695312 268.003906 C 319.199219 268.140625 322.632812 266.425781 325.894531 262.890625 L 326.1875 263.136719 C 322.957031 266.636719 319.554688 268.40625 316.058594 268.390625 " fill-opacity="1" fill-rule="nonzero"/><path fill="rgb(99.609375%, 81.17981%, 83.529663%)" d="M 316.058594 268.921875 C 315.921875 268.921875 315.789062 268.921875 315.660156 268.921875 C 309.660156 268.671875 305.542969 263.441406 305.5 263.390625 L 305.167969 262.945312 L 306.363281 262.074219 L 306.6875 262.523438 C 306.714844 262.546875 310.46875 267.25 315.714844 267.46875 C 319.0625 267.609375 322.355469 265.933594 325.496094 262.519531 L 325.855469 262.144531 L 326.964844 263.101562 L 326.597656 263.511719 C 323.253906 267.128906 319.71875 268.9375 316.058594 268.921875 " fill-opacity="1" fill-rule="nonzero"/><path fill="rgb(99.609375%, 81.17981%, 83.529663%)" d="M 347.011719 268.503906 C 346.890625 268.503906 346.753906 268.5 346.628906 268.488281 C 340.898438 268.253906 336.929688 263.214844 336.878906 263.167969 L 337.191406 262.941406 C 337.242188 263.003906 341.101562 267.882812 346.644531 268.117188 C 350.160156 268.253906 353.59375 266.535156 356.859375 263.003906 L 357.144531 263.246094 C 353.917969 266.746094 350.496094 268.519531 347.011719 268.503906 " fill-opacity="1" fill-rule="nonzero"/><path fill="rgb(99.609375%, 81.17981%, 83.529663%)" d="M 347.019531 269.035156 C 346.886719 269.035156 346.746094 269.035156 346.601562 269.035156 C 340.859375 268.796875 336.902344 264.054688 336.457031 263.511719 L 336.109375 263.066406 L 337.324219 262.171875 L 337.640625 262.632812 C 337.65625 262.664062 341.40625 267.367188 346.671875 267.578125 C 349.960938 267.703125 353.292969 266.042969 356.449219 262.628906 L 356.816406 262.238281 L 357.917969 263.21875 L 357.53125 263.617188 C 354.207031 267.230469 350.667969 269.046875 347.019531 269.035156 " fill-opacity="1" fill-rule="nonzero"/><path fill="rgb(99.609375%, 81.17981%, 83.529663%)" d="M 287.894531 289.515625 C 287.761719 289.515625 287.640625 289.515625 287.511719 289.511719 C 281.777344 289.28125 277.796875 284.230469 277.75 284.1875 L 278.070312 283.972656 C 278.105469 284.015625 281.976562 288.921875 287.527344 289.144531 C 291.03125 289.28125 294.46875 287.558594 297.730469 284.023438 L 298.015625 284.265625 C 294.789062 287.753906 291.382812 289.539062 287.894531 289.515625 " fill-opacity="1" fill-rule="nonzero"/><path fill="rgb(99.609375%, 81.17981%, 83.529663%)" d="M 287.886719 290.050781 C 287.742188 290.058594 287.605469 290.058594 287.480469 290.042969 C 281.757812 289.828125 277.765625 285.082031 277.335938 284.523438 L 276.972656 284.089844 L 278.171875 283.222656 L 278.496094 283.636719 C 278.652344 283.828125 282.335938 288.378906 287.546875 288.589844 C 290.882812 288.738281 294.179688 287.070312 297.324219 283.660156 L 297.671875 283.277344 L 298.792969 284.226562 L 298.398438 284.644531 C 295.085938 288.238281 291.535156 290.070312 287.886719 290.050781 " fill-opacity="1" fill-rule="nonzero"/><path fill="rgb(99.609375%, 81.17981%, 83.529663%)" d="M 314.175781 289.511719 C 314.046875 289.511719 313.925781 289.503906 313.796875 289.503906 C 308.050781 289.269531 304.082031 284.425781 304.039062 284.375 L 304.347656 284.164062 C 304.390625 284.214844 308.265625 288.921875 313.816406 289.128906 C 317.300781 289.269531 320.75 287.621094 324.015625 284.222656 L 324.292969 284.472656 C 321.0625 287.839844 317.664062 289.523438 314.175781 289.511719 " fill-opacity="1" fill-rule="nonzero"/><path fill="rgb(99.609375%, 81.17981%, 83.529663%)" d="M 314.175781 290.050781 C 314.039062 290.050781 313.898438 290.050781 313.765625 290.042969 C 307.917969 289.796875 303.796875 284.929688 303.636719 284.730469 L 303.246094 284.265625 L 304.441406 283.441406 L 304.765625 283.8125 C 304.925781 284.003906 308.679688 288.398438 313.835938 288.601562 C 317.183594 288.746094 320.476562 287.128906 323.621094 283.855469 L 323.972656 283.480469 L 325.101562 284.421875 L 324.6875 284.839844 C 321.363281 288.316406 317.816406 290.0625 314.175781 290.050781 " fill-opacity="1" fill-rule="nonzero"/><path fill="rgb(99.609375%, 81.17981%, 83.529663%)" d="M 342.195312 289.613281 C 342.070312 289.59375 341.929688 289.613281 341.800781 289.59375 C 336.074219 289.367188 332.101562 284.523438 332.070312 284.476562 L 332.375 284.257812 C 332.421875 284.3125 336.292969 289.011719 341.832031 289.234375 C 345.328125 289.375 348.765625 287.714844 352.027344 284.324219 L 352.308594 284.578125 C 349.101562 287.929688 345.691406 289.617188 342.195312 289.613281 " fill-opacity="1" fill-rule="nonzero"/><path fill="rgb(99.609375%, 81.17981%, 83.529663%)" d="M 342.191406 290.148438 C 342.058594 290.148438 341.929688 290.144531 341.78125 290.144531 C 335.757812 289.894531 331.675781 284.855469 331.632812 284.804688 L 331.273438 284.363281 L 332.472656 283.546875 L 332.789062 283.925781 C 332.832031 283.964844 336.585938 288.488281 341.855469 288.699219 C 345.144531 288.832031 348.476562 287.234375 351.636719 283.953125 L 351.988281 283.582031 L 353.101562 284.507812 L 352.703125 284.941406 C 349.378906 288.40625 345.84375 290.15625 342.191406 290.148438 " fill-opacity="1" fill-rule="nonzero"/><path fill="rgb(99.609375%, 81.17981%, 83.529663%)" d="M 330.222656 308.609375 C 330.085938 308.609375 329.957031 308.609375 329.828125 308.609375 C 324.09375 308.371094 320.117188 303.523438 320.066406 303.492188 L 320.386719 303.269531 C 320.421875 303.324219 324.300781 308.023438 329.851562 308.242188 C 333.347656 308.371094 336.785156 306.722656 340.054688 303.324219 L 340.328125 303.566406 C 337.105469 306.929688 333.707031 308.613281 330.222656 308.609375 " fill-opacity="1" fill-rule="nonzero"/><path fill="rgb(99.609375%, 81.17981%, 83.529663%)" d="M 330.226562 309.144531 C 330.078125 309.144531 329.941406 309.144531 329.800781 309.140625 C 324.058594 308.921875 320.105469 304.34375 319.675781 303.832031 L 319.285156 303.375 L 320.507812 302.527344 L 320.8125 302.941406 C 320.855469 302.972656 324.566406 307.496094 329.871094 307.703125 C 333.222656 307.847656 336.507812 306.230469 339.664062 302.953125 L 340.007812 302.589844 L 341.128906 303.523438 L 340.734375 303.941406 C 337.394531 307.40625 333.859375 309.160156 330.226562 309.144531 " fill-opacity="1" fill-rule="nonzero"/><path fill="rgb(99.609375%, 81.17981%, 83.529663%)" d="M 299.734375 308.492188 C 299.613281 308.496094 299.480469 308.492188 299.351562 308.496094 C 293.613281 308.273438 289.644531 303.417969 289.609375 303.375 L 289.914062 303.15625 C 289.960938 303.210938 293.824219 307.914062 299.375 308.128906 C 302.875 308.265625 306.300781 306.625 309.582031 303.214844 L 309.855469 303.457031 C 306.636719 306.820312 303.234375 308.511719 299.734375 308.492188 " fill-opacity="1" fill-rule="nonzero"/><path fill="rgb(99.609375%, 81.17981%, 83.529663%)" d="M 299.734375 309.039062 C 299.609375 309.042969 299.460938 309.039062 299.328125 309.039062 C 293.3125 308.789062 289.214844 303.753906 289.167969 303.707031 L 288.824219 303.25 L 290.023438 302.429688 L 290.335938 302.828125 C 290.378906 302.867188 294.117188 307.390625 299.394531 307.59375 C 302.757812 307.726562 306.027344 306.125 309.179688 302.84375 L 309.527344 302.480469 L 310.660156 303.417969 L 310.253906 303.828125 C 306.921875 307.304688 303.386719 309.054688 299.734375 309.039062 " fill-opacity="1" fill-rule="nonzero"/><path fill="rgb(95.689392%, 80.389404%, 49.798584%)" d="M 323.117188 194.78125 C 321.984375 200.828125 317.121094 205.722656 317.121094 205.722656 C 317.121094 205.722656 312.410156 201.617188 311.457031 194.617188 C 310.078125 184.648438 314.21875 185.273438 317.441406 185.316406 C 320.671875 185.367188 324.9375 185.214844 323.117188 194.78125 " fill-opacity="1" fill-rule="nonzero"/><path fill="rgb(100%, 100%, 100%)" d="M 327.6875 177.3125 C 327.6875 192.550781 340.890625 204.902344 357.167969 204.902344 C 373.453125 204.902344 386.648438 192.550781 386.648438 177.3125 C 386.648438 162.074219 373.453125 149.714844 357.167969 149.714844 C 340.890625 149.714844 327.6875 162.074219 327.6875 177.3125 " fill-opacity="1" fill-rule="nonzero"/><path fill="rgb(13.729858%, 12.159729%, 12.548828%)" d="M 335.816406 176.167969 C 335.816406 184.648438 342.699219 191.519531 351.1875 191.519531 C 359.675781 191.519531 366.558594 184.648438 366.558594 176.167969 C 366.558594 167.691406 359.675781 160.820312 351.1875 160.820312 C 342.699219 160.820312 335.816406 167.691406 335.816406 176.167969 " fill-opacity="1" fill-rule="nonzero"/><path fill="rgb(100%, 100%, 100%)" d="M 348.457031 172.300781 C 348.457031 174.648438 346.558594 176.546875 344.210938 176.546875 C 341.863281 176.546875 339.960938 174.648438 339.960938 172.300781 C 339.960938 169.960938 341.863281 168.0625 344.210938 168.0625 C 346.558594 168.0625 348.457031 169.960938 348.457031 172.300781 " fill-opacity="1" fill-rule="nonzero"/><path fill="rgb(100%, 100%, 100%)" d="M 305.523438 177.3125 C 305.523438 192.550781 292.324219 204.902344 276.042969 204.902344 C 259.761719 204.902344 246.5625 192.550781 246.5625 177.3125 C 246.5625 162.074219 259.761719 149.714844 276.042969 149.714844 C 292.324219 149.714844 305.523438 162.074219 305.523438 177.3125 " fill-opacity="1" fill-rule="nonzero"/><path fill="rgb(13.729858%, 12.159729%, 12.548828%)" d="M 297.398438 176.167969 C 297.398438 184.648438 290.511719 191.519531 282.023438 191.519531 C 273.535156 191.519531 266.648438 184.648438 266.648438 176.167969 C 266.648438 167.691406 273.535156 160.820312 282.023438 160.820312 C 290.511719 160.820312 297.398438 167.691406 297.398438 176.167969 " fill-opacity="1" fill-rule="nonzero"/><path fill="rgb(100%, 100%, 100%)" d="M 284.753906 172.300781 C 284.753906 174.648438 286.652344 176.546875 289.003906 176.546875 C 291.351562 176.546875 293.25 174.648438 293.25 172.300781 C 293.25 169.960938 291.351562 168.0625 289.003906 168.0625 C 286.652344 168.0625 284.753906 169.960938 284.753906 172.300781 " fill-opacity="1" fill-rule="nonzero"/></svg>