<svg xmlns="http://www.w3.org/2000/svg" xmlns:xlink="http://www.w3.org/1999/xlink" width="1080" zoomAndPan="magnify" viewBox="0 0 810 809.999993" height="1080" preserveAspectRatio="xMidYMid meet" version="1.0"><defs><g/><clipPath id="id1"><path d="M 253.433594 253.082031 L 577.433594 253.082031 L 577.433594 392 L 253.433594 392 Z M 253.433594 253.082031 " clip-rule="nonzero"/></clipPath><clipPath id="id2"><path d="M 288 507 L 542 507 L 542 534.332031 L 288 534.332031 Z M 288 507 " clip-rule="nonzero"/></clipPath><clipPath id="id3"><path d="M 416 507 L 542 507 L 542 534.332031 L 416 534.332031 Z M 416 507 " clip-rule="nonzero"/></clipPath><clipPath id="id4"><path d="M 416 253.082031 L 577.433594 253.082031 L 577.433594 390 L 416 390 Z M 416 253.082031 " clip-rule="nonzero"/></clipPath><clipPath id="id5"><path d="M 288 521 L 542 521 L 542 534.332031 L 288 534.332031 Z M 288 521 " clip-rule="nonzero"/></clipPath></defs><rect x="-81" width="972" fill="rgb(100%, 100%, 100%)" y="-80.999999" height="971.999992" fill-opacity="1"/><rect x="-81" width="972" fill="rgb(100%, 100%, 100%)" y="-80.999999" height="971.999992" fill-opacity="1"/><path fill="rgb(93.328857%, 34.899902%, 23.139954%)" d="M 419.511719 268.214844 L 297.507812 369.164062 L 297.507812 509.242188 L 530.902344 509.242188 L 530.902344 366.0625 Z M 457.246094 463.84375 C 457.246094 465.589844 455.824219 466.945312 454.140625 466.945312 L 375.824219 466.945312 C 374.078125 466.945312 372.71875 465.523438 372.71875 463.84375 L 372.71875 385.59375 C 372.71875 383.847656 374.140625 382.488281 375.824219 382.488281 L 454.140625 382.488281 C 455.886719 382.488281 457.246094 383.714844 457.246094 385.59375 Z M 457.246094 463.84375 " fill-opacity="1" fill-rule="nonzero"/><path fill="rgb(0%, 0%, 0%)" d="M 336.472656 313.808594 L 297.507812 365.867188 L 297.507812 509.113281 L 336.472656 509.113281 Z M 336.472656 313.808594 " fill-opacity="0.0392" fill-rule="nonzero"/><path fill="rgb(93.328857%, 34.899902%, 23.139954%)" d="M 411.035156 380.9375 L 418.867188 380.9375 L 418.867188 468.5625 L 411.035156 468.5625 Z M 411.035156 380.9375 " fill-opacity="1" fill-rule="nonzero"/><path fill="rgb(93.328857%, 34.899902%, 23.139954%)" d="M 371.097656 421.742188 L 458.800781 421.742188 L 458.800781 429.566406 L 371.097656 429.566406 Z M 371.097656 421.742188 " fill-opacity="1" fill-rule="nonzero"/><path fill="rgb(0%, 0%, 0%)" d="M 491.746094 509.113281 L 530.707031 509.113281 L 530.707031 365.867188 L 491.746094 313.808594 " fill-opacity="0.0392" fill-rule="nonzero"/><g clip-path="url(#id1)"><path fill="rgb(100%, 78.819275%, 33.329773%)" d="M 265.082031 391.089844 C 261.652344 391.089844 258.21875 389.535156 256.019531 386.5625 C 252.070312 381.582031 253.171875 374.339844 258.21875 370.460938 L 409.609375 255.410156 C 413.6875 252.308594 419.449219 252.308594 423.527344 255.410156 L 572.714844 368.714844 C 577.699219 372.65625 578.796875 379.835938 574.914062 384.816406 C 570.964844 389.796875 563.78125 390.894531 558.796875 387.015625 L 416.601562 279.015625 L 272.136719 388.761719 C 270.066406 390.3125 267.539062 391.089844 265.082031 391.089844 Z M 265.082031 391.089844 " fill-opacity="1" fill-rule="nonzero"/></g><g clip-path="url(#id2)"><path fill="rgb(100%, 78.819275%, 33.329773%)" d="M 538.539062 534.269531 L 291.230469 534.269531 C 289.480469 534.269531 288.121094 532.84375 288.121094 531.164062 L 288.121094 510.792969 C 288.121094 509.046875 289.546875 507.6875 291.230469 507.6875 L 538.539062 507.6875 C 540.289062 507.6875 541.648438 509.113281 541.648438 510.792969 L 541.648438 531.164062 C 541.710938 532.910156 540.289062 534.269531 538.539062 534.269531 Z M 538.539062 534.269531 " fill-opacity="1" fill-rule="nonzero"/></g><g clip-path="url(#id3)"><path fill="rgb(0%, 0%, 0%)" d="M 416.535156 507.6875 L 538.539062 507.6875 C 540.289062 507.6875 541.648438 509.113281 541.648438 510.792969 L 541.648438 531.164062 C 541.648438 532.910156 540.222656 534.269531 538.539062 534.269531 L 416.535156 534.269531 " fill-opacity="0.0471" fill-rule="nonzero"/></g><g clip-path="url(#id4)"><path fill="rgb(0%, 0%, 0%)" d="M 416.535156 253.082031 C 419.058594 253.082031 421.519531 253.859375 423.589844 255.410156 L 572.714844 368.714844 C 577.699219 372.65625 578.796875 379.835938 574.914062 384.816406 C 570.964844 389.796875 563.78125 390.894531 558.796875 387.015625 L 416.601562 279.015625 " fill-opacity="0.0471" fill-rule="nonzero"/></g><path fill="rgb(0%, 0%, 0%)" d="M 416.535156 264.660156 L 574.914062 384.878906 C 570.964844 389.859375 563.78125 390.960938 558.796875 387.078125 L 416.601562 279.082031 L 272.136719 388.761719 C 270.128906 390.3125 267.605469 391.089844 265.277344 391.089844 C 261.84375 391.089844 258.414062 389.535156 256.214844 386.5625 Z M 416.535156 264.660156 " fill-opacity="0.0471" fill-rule="nonzero"/><g clip-path="url(#id5)"><path fill="rgb(0%, 0%, 0%)" d="M 541.710938 521.011719 L 541.710938 531.164062 C 541.710938 532.910156 540.289062 534.269531 538.605469 534.269531 L 291.230469 534.269531 C 289.480469 534.269531 288.121094 532.84375 288.121094 531.164062 L 288.121094 521.011719 " fill-opacity="0.0471" fill-rule="nonzero"/></g><g fill="rgb(47.059631%, 17.649841%, 48.629761%)" fill-opacity="1"><g transform="translate(164.296855, 542.554445)"><g><path d="M 269.261719 -80.125 L 239.597656 -80.125 C 230.355469 -63.175781 217.640625 -49.304688 201.464844 -39.292969 C 185.285156 -28.890625 167.179688 -23.882812 147.917969 -23.882812 C 119.027344 -23.882812 94.375 -34.285156 73.960938 -55.855469 C 53.929688 -76.269531 44.300781 -101.308594 44.300781 -130.585938 C 44.300781 -159.859375 53.929688 -184.898438 73.960938 -205.699219 C 83.203125 -215.332031 94.375 -223.035156 107.085938 -228.8125 C 119.414062 -234.589844 131.742188 -237.671875 144.066406 -237.671875 C 156.007812 -237.671875 166.410156 -236.132812 175.65625 -233.4375 C 203.773438 -224.960938 224.960938 -208.011719 239.214844 -182.203125 L 268.875 -182.203125 C 258.859375 -206.855469 243.066406 -226.886719 221.109375 -242.296875 C 198.765625 -257.703125 174.5 -265.40625 147.917969 -265.40625 C 111.324219 -265.40625 80.507812 -251.925781 55.085938 -225.347656 C 43.144531 -213.019531 33.898438 -198.382812 27.351562 -182.203125 C 20.414062 -166.023438 17.335938 -148.691406 17.335938 -130.585938 C 17.335938 -93.605469 29.660156 -62.402344 55.085938 -36.210938 C 80.507812 -9.246094 111.324219 3.851562 147.917969 3.851562 C 174.5 3.851562 198.765625 -3.851562 221.496094 -19.261719 C 243.449219 -34.667969 259.246094 -54.699219 269.261719 -80.125 Z M 269.261719 -80.125 "/></g></g></g><g fill="rgb(30.979919%, 3.529358%, 4.309082%)" fill-opacity="1"><g transform="translate(445.115597, 540.005266)"><g><path d="M 187.109375 -108.570312 C 181.71875 -127.433594 171.324219 -142.835938 156.308594 -154.769531 C 140.523438 -166.703125 123.199219 -172.863281 103.949219 -172.863281 C 79.695312 -172.863281 58.90625 -164.007812 42.351562 -146.683594 C 25.410156 -129.359375 17.324219 -108.570312 17.324219 -84.699219 C 17.324219 -60.445312 25.410156 -40.039062 42.351562 -22.328125 C 50.050781 -14.246094 58.90625 -7.699219 69.683594 -3.078125 C 80.078125 1.539062 90.859375 3.851562 101.640625 3.851562 C 112.417969 3.851562 122.042969 2.695312 130.515625 -0.386719 C 157.464844 -10.011719 175.945312 -28.105469 185.570312 -55.441406 L 155.152344 -55.441406 C 149.765625 -45.816406 142.835938 -38.113281 133.59375 -32.726562 C 124.355469 -26.949219 114.730469 -24.253906 103.949219 -24.253906 C 87.394531 -24.253906 73.535156 -30.03125 61.984375 -41.964844 C 50.433594 -53.898438 45.042969 -68.144531 45.042969 -84.699219 C 45.042969 -100.484375 50.433594 -114.730469 61.984375 -126.664062 C 67.375 -132.054688 73.535156 -136.675781 80.847656 -139.753906 C 87.78125 -142.835938 96.632812 -144.757812 106.644531 -144.757812 C 116.652344 -144.757812 126.277344 -141.292969 136.289062 -134.75 C 145.914062 -127.820312 153.230469 -119.347656 157.847656 -108.570312 Z M 187.109375 -108.570312 "/></g></g></g></svg>