<svg xmlns="http://www.w3.org/2000/svg" xmlns:xlink="http://www.w3.org/1999/xlink" width="1080" zoomAndPan="magnify" viewBox="0 0 810 809.999993" height="1080" preserveAspectRatio="xMidYMid meet" version="1.0"><defs><g/><clipPath id="id1"><path d="M 473 420 L 548 420 L 548 535.824219 L 473 535.824219 Z M 473 420 " clip-rule="nonzero"/></clipPath><clipPath id="id2"><path d="M 473 422 L 548 422 L 548 535.824219 L 473 535.824219 Z M 473 422 " clip-rule="nonzero"/></clipPath><clipPath id="id3"><path d="M 498 435 L 547 435 L 547 535.824219 L 498 535.824219 Z M 498 435 " clip-rule="nonzero"/></clipPath></defs><rect x="-81" width="972" fill="rgb(100%, 100%, 100%)" y="-80.999999" height="971.999992" fill-opacity="1"/><rect x="-81" width="972" fill="rgb(100%, 100%, 100%)" y="-80.999999" height="971.999992" fill-opacity="1"/><path fill="rgb(23.139954%, 36.859131%, 16.468811%)" d="M 458.925781 226.042969 C 445.617188 226.546875 427.949219 259.152344 441.535156 271.980469 C 450.363281 280.320312 471.570312 279.515625 479.742188 270.527344 C 492.316406 256.703125 472.234375 225.539062 458.925781 226.042969 Z M 458.925781 226.042969 " fill-opacity="1" fill-rule="nonzero"/><path fill="rgb(61.178589%, 76.078796%, 32.939148%)" d="M 438.59375 413.761719 C 438.359375 418.824219 434.054688 506.039062 418.449219 521.292969 C 411.574219 528.015625 405.019531 528.015625 405.019531 528.015625 C 403.71875 528.015625 398.238281 527.828125 391.589844 521.292969 C 381.269531 511.152344 379.578125 496.9375 378.160156 487.691406 C 376.160156 474.589844 372.421875 456.433594 364.730469 433.925781 " fill-opacity="1" fill-rule="nonzero"/><path fill="rgb(61.178589%, 76.078796%, 32.939148%)" d="M 438.867188 414.878906 C 438.667969 419.917969 434.304688 507.152344 418.726562 522.410156 C 411.875 529.132812 405.296875 529.132812 405.296875 529.132812 C 405.027344 529.132812 404.488281 529.132812 403.816406 528.996094 C 401.46875 528.726562 397.035156 527.449219 391.867188 522.410156 C 381.527344 512.261719 379.847656 498.082031 378.4375 488.804688 C 376.421875 475.699219 372.730469 457.554688 365.007812 435.039062 L 419.195312 420.253906 Z M 438.867188 414.878906 " fill-opacity="1" fill-rule="nonzero"/><path fill="rgb(40.779114%, 54.119873%, 22.749329%)" d="M 437.472656 475.410156 C 436.351562 509.371094 421.0625 528.507812 404.03125 528.847656 C 400.722656 528.914062 395.8125 527.484375 389.703125 519.828125 C 391.691406 521.246094 395.914062 523.882812 400.394531 522.988281 C 425.789062 517.914062 419.699219 429.085938 428.257812 428.742188 C 432.1875 428.582031 438.257812 451.660156 437.472656 475.410156 Z M 437.472656 475.410156 " fill-opacity="1" fill-rule="nonzero"/><path fill="rgb(61.178589%, 76.078796%, 32.939148%)" d="M 424.460938 369.742188 C 420.230469 378.277344 412.640625 382.242188 397.601562 389.902344 C 374.636719 401.597656 353.214844 412.484375 337.167969 403.34375 C 336.496094 402.941406 335.824219 402.539062 335.152344 402 C 335.085938 402 335.085938 402 335.085938 402 C 322.671875 396.476562 320.074219 391.980469 320.097656 388.839844 C 320.171875 381.152344 336.027344 378.113281 352.746094 365.910156 C 366.109375 356.160156 374.507812 344.570312 379.671875 335.867188 C 389.878906 325.113281 405.054688 322.492188 415.796875 328.339844 C 416.46875 328.609375 417.140625 329.011719 417.746094 329.417969 C 431.441406 338.484375 429.972656 358.585938 424.460938 369.742188 Z M 424.460938 369.742188 " fill-opacity="1" fill-rule="nonzero"/><path fill="rgb(40.779114%, 54.119873%, 22.749329%)" d="M 424.460938 361.675781 C 421.25 380.0625 405.832031 389.984375 397.601562 395.28125 C 394.351562 397.371094 365.707031 415.1875 337.167969 403.34375 C 331.226562 400.878906 326.746094 397.734375 323.738281 395.28125 C 347.050781 403.511719 372.957031 398.351562 390.886719 381.839844 C 416.863281 357.914062 411.4375 323.671875 411.03125 321.351562 C 412.910156 323.125 415.402344 325.785156 417.746094 329.417969 C 418.394531 330.417969 427.40625 344.808594 424.460938 361.675781 Z M 424.460938 361.675781 " fill-opacity="1" fill-rule="nonzero"/><path fill="rgb(23.139954%, 36.859131%, 16.468811%)" d="M 522.367188 237.414062 C 509.855469 232.851562 479.789062 260.183594 486.9375 278.800781 C 491.585938 290.90625 511.523438 298.179688 522.863281 291.90625 C 540.308594 282.269531 534.875 241.984375 522.367188 237.414062 Z M 522.367188 237.414062 " fill-opacity="1" fill-rule="nonzero"/><path fill="rgb(23.139954%, 36.859131%, 16.468811%)" d="M 575.351562 280.105469 C 566.984375 269.734375 527.140625 277.632812 523.675781 297.277344 C 521.417969 310.046875 534.753906 326.566406 547.699219 327.050781 C 567.609375 327.796875 583.710938 290.476562 575.351562 280.105469 Z M 575.351562 280.105469 " fill-opacity="1" fill-rule="nonzero"/><path fill="rgb(23.139954%, 36.859131%, 16.468811%)" d="M 588.53125 352.152344 C 588.503906 338.824219 552.523438 319.980469 537.515625 333.105469 C 527.765625 341.640625 527.796875 362.878906 537.582031 371.375 C 552.636719 384.453125 588.558594 365.480469 588.53125 352.152344 Z M 588.53125 352.152344 " fill-opacity="1" fill-rule="nonzero"/><path fill="rgb(23.139954%, 36.859131%, 16.468811%)" d="M 587.8125 399.527344 C 584.875 386.53125 545.632812 376.03125 533.867188 392.132812 C 526.21875 402.597656 530.90625 423.3125 542.308594 429.460938 C 559.859375 438.917969 590.753906 412.527344 587.8125 399.527344 Z M 587.8125 399.527344 " fill-opacity="1" fill-rule="nonzero"/><path fill="rgb(23.139954%, 36.859131%, 16.468811%)" d="M 590.640625 437.25 C 583.269531 429.140625 550.921875 437.546875 549.023438 453.851562 C 547.789062 464.449219 559.53125 477.375 570.1875 477.144531 C 586.585938 476.796875 598.015625 445.363281 590.640625 437.25 Z M 590.640625 437.25 " fill-opacity="1" fill-rule="nonzero"/><path fill="rgb(23.139954%, 36.859131%, 16.468811%)" d="M 609.84375 463.664062 C 604.371094 459.820312 586.230469 469.148438 587.269531 479.113281 C 587.949219 485.59375 596.671875 491.722656 602.988281 490.164062 C 612.707031 487.757812 615.324219 467.507812 609.84375 463.664062 Z M 609.84375 463.664062 " fill-opacity="1" fill-rule="nonzero"/><path fill="rgb(61.178589%, 76.078796%, 32.939148%)" d="M 560.855469 341.527344 L 560.855469 407.457031 C 560.519531 411.625 554.003906 481.320312 507.136719 501.550781 C 501.96875 503.765625 496.664062 505.246094 491.425781 506.320312 C 478.464844 508.875 466.246094 508.472656 460.132812 508.269531 C 453.890625 508.066406 443.011719 507.597656 430.050781 504.171875 C 422.734375 502.222656 414.675781 499.265625 406.417969 494.828125 C 400.238281 491.535156 388.691406 485.351562 379.558594 474.664062 C 379.15625 474.195312 378.753906 473.726562 378.417969 473.253906 C 378.148438 472.984375 377.945312 472.714844 377.746094 472.378906 C 362.234375 452.488281 361.5625 426.949219 363.308594 410.28125 C 363.914062 404.769531 364.785156 400.199219 365.390625 397.109375 C 365.925781 394.6875 366.332031 392.203125 366.597656 389.714844 C 367.671875 380.574219 369.285156 368.542969 371.566406 354.5 C 371.96875 352.078125 372.375 349.523438 372.84375 346.972656 C 377.878906 318.140625 380.5 303.488281 386.273438 293.203125 C 390.367188 285.878906 401.917969 268.875 432.671875 257.652344 C 441.46875 254.425781 450.867188 252.878906 460.269531 252.878906 L 472.289062 252.878906 C 521.238281 252.878906 560.855469 292.53125 560.855469 341.527344 Z M 560.855469 341.527344 " fill-opacity="1" fill-rule="nonzero"/><path fill="rgb(61.178589%, 76.078796%, 32.939148%)" d="M 641.429688 494.828125 C 641.296875 497.113281 638.746094 498.996094 634.917969 500.675781 C 623.636719 505.515625 601.546875 507.933594 598.054688 508.269531 C 575.558594 510.621094 542.925781 510.957031 502.101562 500.945312 C 495.050781 499.265625 487.800781 497.179688 480.277344 494.828125 L 560.855469 380.574219 C 560.921875 411.828125 566.898438 447.246094 591.808594 467.945312 C 613.164062 485.621094 641.902344 487.167969 641.429688 494.828125 Z M 641.429688 494.828125 " fill-opacity="1" fill-rule="nonzero"/><path fill="rgb(85.879517%, 100%, 58.428955%)" d="M 491.425781 506.320312 C 478.464844 508.875 466.246094 508.472656 460.132812 508.269531 C 453.890625 508.066406 443.011719 507.597656 430.050781 504.171875 C 422.734375 502.222656 414.675781 499.265625 406.417969 494.828125 C 400.238281 491.535156 388.691406 485.351562 379.558594 474.664062 C 379.15625 474.195312 378.753906 473.726562 378.417969 473.253906 C 378.417969 473.320312 378.417969 473.457031 378.484375 473.523438 C 378.214844 473.121094 377.945312 472.785156 377.746094 472.378906 C 370.761719 461.492188 366.195312 448.722656 366.128906 434.339844 C 366.128906 425.941406 367.605469 417.40625 370.226562 409.273438 C 379.15625 381.648438 401.113281 358.800781 419.847656 360.414062 C 436.835938 361.824219 446.839844 383.800781 466.847656 427.621094 C 482.425781 461.828125 495.183594 489.652344 491.425781 506.320312 Z M 491.425781 506.320312 " fill-opacity="1" fill-rule="nonzero"/><path fill="rgb(85.879517%, 100%, 58.428955%)" d="M 634.917969 500.675781 C 623.636719 505.515625 601.546875 507.933594 598.054688 508.269531 C 575.558594 510.621094 542.925781 510.957031 502.101562 500.945312 C 504.261719 492.84375 509.519531 477.273438 520.566406 474.664062 C 526.824219 473.1875 531.929688 476.59375 540.710938 481.386719 C 563.445312 493.800781 582.195312 500.582031 587.714844 501.550781 C 606.796875 504.894531 623.316406 503.101562 634.917969 500.675781 Z M 634.917969 500.675781 " fill-opacity="1" fill-rule="nonzero"/><g clip-path="url(#id1)"><path fill="rgb(61.178589%, 76.078796%, 32.939148%)" d="M 547.425781 420.898438 C 547.191406 425.960938 542.886719 513.175781 527.28125 528.433594 C 520.40625 535.152344 513.851562 535.152344 513.851562 535.152344 C 512.550781 535.152344 507.070312 534.964844 500.421875 528.433594 C 490.101562 518.289062 488.410156 504.074219 486.992188 494.828125 C 484.992188 481.730469 481.253906 463.570312 473.5625 441.0625 " fill-opacity="1" fill-rule="nonzero"/></g><path fill="rgb(61.178589%, 76.078796%, 32.939148%)" d="M 533.996094 402.082031 C 529.765625 410.617188 522.179688 414.582031 507.136719 422.242188 C 484.171875 433.9375 462.753906 444.824219 446.703125 435.683594 C 446.035156 435.28125 445.363281 434.878906 444.691406 434.339844 C 444.625 434.339844 444.625 434.339844 444.625 434.339844 C 432.207031 428.816406 429.609375 424.320312 429.636719 421.183594 C 429.710938 413.492188 445.5625 410.457031 462.28125 398.25 C 475.644531 388.5 484.046875 376.910156 489.210938 368.207031 C 499.414062 357.457031 514.589844 354.835938 525.335938 360.679688 C 526.003906 360.949219 526.675781 361.351562 527.28125 361.757812 C 540.980469 370.828125 539.503906 390.925781 533.996094 402.082031 Z M 533.996094 402.082031 " fill-opacity="1" fill-rule="nonzero"/><path fill="rgb(40.779114%, 54.119873%, 22.749329%)" d="M 533.996094 394.015625 C 530.785156 412.40625 515.371094 422.324219 507.136719 427.621094 C 503.886719 429.710938 475.242188 447.527344 446.703125 435.683594 C 440.761719 433.21875 436.285156 430.074219 433.277344 427.621094 C 456.589844 435.851562 482.496094 430.691406 500.421875 414.179688 C 526.402344 390.253906 520.976562 356.011719 520.566406 353.691406 C 522.445312 355.464844 524.9375 358.128906 527.28125 361.757812 C 527.933594 362.757812 536.9375 377.148438 533.996094 394.015625 Z M 533.996094 394.015625 " fill-opacity="1" fill-rule="nonzero"/><g clip-path="url(#id2)"><path fill="rgb(61.178589%, 76.078796%, 32.939148%)" d="M 547.707031 422.023438 C 547.507812 427.0625 543.140625 514.296875 527.5625 529.554688 C 520.714844 536.273438 514.132812 536.273438 514.132812 536.273438 C 513.867188 536.273438 513.328125 536.273438 512.65625 536.140625 C 510.304688 535.871094 505.875 534.59375 500.703125 529.554688 C 490.363281 519.40625 488.683594 505.226562 487.273438 495.949219 C 485.261719 482.84375 481.566406 464.699219 473.847656 442.183594 L 528.035156 427.398438 Z M 547.707031 422.023438 " fill-opacity="1" fill-rule="nonzero"/></g><g clip-path="url(#id3)"><path fill="rgb(40.779114%, 54.119873%, 22.749329%)" d="M 546.304688 482.554688 C 545.183594 516.515625 529.894531 535.648438 512.863281 535.992188 C 509.554688 536.058594 504.644531 534.628906 498.535156 526.972656 C 500.523438 528.390625 504.746094 531.027344 509.226562 530.132812 C 534.621094 525.058594 528.53125 436.230469 537.089844 435.886719 C 541.027344 435.726562 547.089844 458.796875 546.304688 482.554688 Z M 546.304688 482.554688 " fill-opacity="1" fill-rule="nonzero"/></g><path fill="rgb(0%, 0%, 0%)" d="M 433.972656 330.355469 C 422.503906 330.355469 415.667969 322.371094 414.40625 320.753906 C 413.265625 319.292969 413.519531 317.183594 414.976562 316.035156 C 416.441406 314.894531 418.542969 315.140625 419.691406 316.605469 C 420.269531 317.332031 425.34375 323.609375 434.207031 323.621094 C 442.476562 323.515625 447.355469 317.761719 448.257812 316.613281 C 449.398438 315.140625 451.507812 314.878906 452.964844 316.023438 C 454.425781 317.15625 454.695312 319.269531 453.554688 320.734375 C 452.324219 322.3125 445.636719 330.195312 434.304688 330.34375 C 434.1875 330.355469 434.074219 330.355469 433.972656 330.355469 Z M 433.972656 330.355469 " fill-opacity="1" fill-rule="nonzero"/><path fill="rgb(100%, 58.428955%, 57.249451%)" d="M 404.53125 321.136719 C 404.53125 321.910156 404.453125 322.671875 404.304688 323.429688 C 404.152344 324.1875 403.929688 324.921875 403.636719 325.636719 C 403.339844 326.351562 402.976562 327.027344 402.550781 327.671875 C 402.121094 328.3125 401.632812 328.90625 401.089844 329.453125 C 400.542969 330 399.949219 330.488281 399.308594 330.914062 C 398.667969 331.34375 397.988281 331.707031 397.277344 332.003906 C 396.5625 332.296875 395.828125 332.519531 395.070312 332.671875 C 394.316406 332.824219 393.550781 332.898438 392.78125 332.898438 C 392.007812 332.898438 391.242188 332.824219 390.488281 332.671875 C 389.730469 332.519531 388.996094 332.296875 388.28125 332.003906 C 387.570312 331.707031 386.890625 331.34375 386.25 330.914062 C 385.609375 330.488281 385.015625 330 384.46875 329.453125 C 383.925781 328.90625 383.4375 328.3125 383.007812 327.671875 C 382.582031 327.027344 382.21875 326.351562 381.921875 325.636719 C 381.628906 324.921875 381.40625 324.1875 381.253906 323.429688 C 381.105469 322.671875 381.027344 321.910156 381.027344 321.136719 C 381.027344 320.363281 381.105469 319.597656 381.253906 318.839844 C 381.40625 318.085938 381.628906 317.347656 381.921875 316.636719 C 382.21875 315.921875 382.582031 315.242188 383.007812 314.601562 C 383.4375 313.960938 383.925781 313.367188 384.46875 312.820312 C 385.015625 312.273438 385.609375 311.785156 386.25 311.355469 C 386.890625 310.929688 387.570312 310.566406 388.28125 310.269531 C 388.996094 309.976562 389.730469 309.75 390.488281 309.601562 C 391.242188 309.449219 392.007812 309.375 392.78125 309.375 C 393.550781 309.375 394.316406 309.449219 395.070312 309.601562 C 395.828125 309.75 396.5625 309.976562 397.277344 310.269531 C 397.988281 310.566406 398.667969 310.929688 399.308594 311.355469 C 399.949219 311.785156 400.542969 312.273438 401.089844 312.820312 C 401.632812 313.367188 402.121094 313.960938 402.550781 314.601562 C 402.976562 315.242188 403.339844 315.921875 403.636719 316.636719 C 403.929688 317.347656 404.152344 318.085938 404.304688 318.839844 C 404.453125 319.597656 404.53125 320.363281 404.53125 321.136719 Z M 404.53125 321.136719 " fill-opacity="1" fill-rule="nonzero"/><path fill="rgb(100%, 58.428955%, 57.249451%)" d="M 491.539062 321.835938 C 491.539062 322.609375 491.464844 323.371094 491.3125 324.128906 C 491.164062 324.886719 490.941406 325.621094 490.644531 326.335938 C 490.347656 327.050781 489.988281 327.726562 489.558594 328.371094 C 489.128906 329.011719 488.644531 329.605469 488.097656 330.152344 C 487.550781 330.699219 486.957031 331.183594 486.316406 331.613281 C 485.675781 332.042969 484.996094 332.40625 484.285156 332.703125 C 483.570312 332.996094 482.835938 333.21875 482.082031 333.371094 C 481.324219 333.519531 480.558594 333.597656 479.789062 333.597656 C 479.015625 333.597656 478.253906 333.519531 477.496094 333.371094 C 476.738281 333.21875 476.003906 332.996094 475.292969 332.703125 C 474.578125 332.40625 473.902344 332.042969 473.261719 331.613281 C 472.617188 331.183594 472.023438 330.699219 471.480469 330.152344 C 470.933594 329.605469 470.445312 329.011719 470.019531 328.371094 C 469.589844 327.726562 469.226562 327.050781 468.933594 326.335938 C 468.636719 325.621094 468.414062 324.886719 468.261719 324.128906 C 468.113281 323.371094 468.039062 322.609375 468.039062 321.835938 C 468.039062 321.0625 468.113281 320.296875 468.261719 319.539062 C 468.414062 318.785156 468.636719 318.046875 468.933594 317.335938 C 469.226562 316.621094 469.589844 315.941406 470.019531 315.300781 C 470.445312 314.660156 470.933594 314.066406 471.480469 313.519531 C 472.023438 312.972656 472.617188 312.484375 473.261719 312.054688 C 473.902344 311.628906 474.578125 311.265625 475.292969 310.96875 C 476.003906 310.671875 476.738281 310.449219 477.496094 310.300781 C 478.253906 310.148438 479.015625 310.074219 479.789062 310.074219 C 480.558594 310.074219 481.324219 310.148438 482.082031 310.300781 C 482.835938 310.449219 483.570312 310.671875 484.285156 310.96875 C 484.996094 311.265625 485.675781 311.628906 486.316406 312.054688 C 486.957031 312.484375 487.550781 312.972656 488.097656 313.519531 C 488.644531 314.066406 489.128906 314.660156 489.558594 315.300781 C 489.988281 315.941406 490.347656 316.621094 490.644531 317.335938 C 490.941406 318.046875 491.164062 318.785156 491.3125 319.539062 C 491.464844 320.296875 491.539062 321.0625 491.539062 321.835938 Z M 491.539062 321.835938 " fill-opacity="1" fill-rule="nonzero"/><path fill="rgb(0%, 0%, 0%)" d="M 407.257812 309.515625 C 407.257812 310.042969 407.203125 310.566406 407.101562 311.085938 C 407 311.605469 406.847656 312.109375 406.644531 312.597656 C 406.441406 313.085938 406.195312 313.550781 405.902344 313.988281 C 405.605469 314.429688 405.273438 314.835938 404.898438 315.210938 C 404.527344 315.582031 404.121094 315.917969 403.679688 316.210938 C 403.242188 316.503906 402.777344 316.753906 402.289062 316.953125 C 401.800781 317.15625 401.300781 317.308594 400.78125 317.414062 C 400.261719 317.515625 399.738281 317.566406 399.210938 317.566406 C 398.683594 317.566406 398.160156 317.515625 397.644531 317.414062 C 397.125 317.308594 396.621094 317.15625 396.132812 316.953125 C 395.644531 316.753906 395.183594 316.503906 394.742188 316.210938 C 394.304688 315.917969 393.898438 315.582031 393.523438 315.210938 C 393.148438 314.835938 392.816406 314.429688 392.523438 313.988281 C 392.230469 313.550781 391.980469 313.085938 391.78125 312.597656 C 391.578125 312.109375 391.425781 311.605469 391.324219 311.085938 C 391.21875 310.566406 391.167969 310.042969 391.167969 309.515625 C 391.167969 308.988281 391.21875 308.464844 391.324219 307.945312 C 391.425781 307.425781 391.578125 306.921875 391.78125 306.433594 C 391.980469 305.945312 392.230469 305.484375 392.523438 305.042969 C 392.816406 304.601562 393.148438 304.195312 393.523438 303.824219 C 393.898438 303.449219 394.304688 303.113281 394.742188 302.820312 C 395.183594 302.527344 395.644531 302.28125 396.132812 302.078125 C 396.621094 301.875 397.125 301.722656 397.644531 301.621094 C 398.160156 301.515625 398.683594 301.464844 399.210938 301.464844 C 399.738281 301.464844 400.261719 301.515625 400.78125 301.621094 C 401.300781 301.722656 401.800781 301.875 402.289062 302.078125 C 402.777344 302.28125 403.242188 302.527344 403.679688 302.820312 C 404.121094 303.113281 404.527344 303.449219 404.898438 303.824219 C 405.273438 304.195312 405.605469 304.601562 405.902344 305.042969 C 406.195312 305.484375 406.441406 305.945312 406.644531 306.433594 C 406.847656 306.921875 407 307.425781 407.101562 307.945312 C 407.203125 308.464844 407.257812 308.988281 407.257812 309.515625 Z M 407.257812 309.515625 " fill-opacity="1" fill-rule="nonzero"/><path fill="rgb(0%, 0%, 0%)" d="M 479.015625 309.449219 C 479.015625 309.980469 478.964844 310.511719 478.859375 311.03125 C 478.757812 311.554688 478.601562 312.0625 478.398438 312.554688 C 478.195312 313.046875 477.945312 313.515625 477.648438 313.960938 C 477.351562 314.402344 477.015625 314.8125 476.640625 315.191406 C 476.265625 315.566406 475.855469 315.902344 475.410156 316.199219 C 474.96875 316.496094 474.5 316.746094 474.007812 316.949219 C 473.515625 317.152344 473.007812 317.308594 472.488281 317.410156 C 471.964844 317.515625 471.4375 317.566406 470.90625 317.566406 C 470.371094 317.566406 469.84375 317.515625 469.324219 317.410156 C 468.800781 317.308594 468.292969 317.152344 467.800781 316.949219 C 467.308594 316.746094 466.839844 316.496094 466.398438 316.199219 C 465.957031 315.902344 465.546875 315.566406 465.167969 315.191406 C 464.792969 314.8125 464.457031 314.402344 464.160156 313.960938 C 463.863281 313.515625 463.613281 313.046875 463.410156 312.554688 C 463.207031 312.0625 463.054688 311.554688 462.949219 311.03125 C 462.84375 310.511719 462.792969 309.980469 462.792969 309.449219 C 462.792969 308.914062 462.84375 308.386719 462.949219 307.863281 C 463.054688 307.34375 463.207031 306.835938 463.410156 306.34375 C 463.613281 305.847656 463.863281 305.382812 464.160156 304.9375 C 464.457031 304.496094 464.792969 304.085938 465.167969 303.707031 C 465.546875 303.332031 465.957031 302.996094 466.398438 302.699219 C 466.839844 302.402344 467.308594 302.152344 467.800781 301.949219 C 468.292969 301.742188 468.800781 301.589844 469.324219 301.484375 C 469.84375 301.382812 470.371094 301.332031 470.90625 301.332031 C 471.4375 301.332031 471.964844 301.382812 472.488281 301.484375 C 473.007812 301.589844 473.515625 301.742188 474.007812 301.949219 C 474.5 302.152344 474.96875 302.402344 475.410156 302.699219 C 475.855469 302.996094 476.265625 303.332031 476.640625 303.707031 C 477.015625 304.085938 477.351562 304.496094 477.648438 304.9375 C 477.945312 305.382812 478.195312 305.847656 478.398438 306.34375 C 478.601562 306.835938 478.757812 307.34375 478.859375 307.863281 C 478.964844 308.386719 479.015625 308.914062 479.015625 309.449219 Z M 479.015625 309.449219 " fill-opacity="1" fill-rule="nonzero"/><g fill="rgb(56.469727%, 36.859131%, 21.179199%)" fill-opacity="1"><g transform="translate(167.374889, 542.554212)"><g><path d="M 232.28125 -130.96875 C 232.28125 -149.847656 228.429688 -167.179688 221.496094 -183.359375 C 214.5625 -199.539062 204.929688 -213.40625 192.988281 -224.960938 C 180.664062 -236.515625 166.410156 -245.378906 150.230469 -251.925781 C 133.667969 -258.472656 115.949219 -261.941406 97.457031 -261.941406 L 28.890625 -261.941406 L 28.890625 0 L 97.457031 0 C 115.949219 0 133.667969 -3.082031 150.230469 -9.628906 C 166.410156 -16.179688 180.664062 -25.421875 192.988281 -36.980469 C 204.929688 -48.535156 214.5625 -62.019531 221.496094 -78.195312 C 228.429688 -94.375 232.28125 -111.710938 232.28125 -130.96875 Z M 206.085938 -130.96875 C 206.085938 -100.925781 195.300781 -75.886719 174.5 -56.242188 C 153.699219 -36.59375 128.273438 -26.964844 98.226562 -26.964844 L 55.855469 -26.964844 L 55.855469 -234.976562 L 98.226562 -234.976562 C 128.273438 -234.976562 153.699219 -224.960938 174.5 -205.699219 C 195.300781 -185.671875 206.085938 -160.632812 206.085938 -130.96875 Z M 206.085938 -130.96875 "/></g></g></g><g fill="rgb(6.269836%, 5.879211%, 5.099487%)" fill-opacity="1"><g transform="translate(423.161046, 540.005148)"><g><path d="M 163.625 -84.699219 C 163.625 -68.144531 157.847656 -53.515625 146.300781 -41.578125 C 134.75 -29.261719 120.503906 -23.101562 103.949219 -23.101562 C 87.007812 -23.101562 72.765625 -29.261719 61.214844 -41.578125 C 49.664062 -53.515625 44.273438 -68.144531 44.273438 -84.699219 C 44.273438 -100.871094 49.664062 -115.5 61.214844 -127.820312 C 72.765625 -140.140625 87.007812 -146.300781 103.949219 -146.300781 C 120.503906 -146.300781 134.75 -140.140625 146.300781 -127.820312 C 157.847656 -115.5 163.625 -100.871094 163.625 -84.699219 Z M 190.574219 0 L 190.574219 -288.75 L 163.625 -288.75 L 163.625 -140.140625 C 162.082031 -142.449219 160.160156 -144.375 158.617188 -146.300781 C 142.449219 -164.007812 122.8125 -173.25 99.714844 -173.25 C 76.230469 -173.25 56.59375 -164.007812 40.425781 -146.300781 C 25.023438 -128.589844 17.324219 -108.183594 17.324219 -84.699219 C 17.324219 -60.828125 25.023438 -40.425781 40.425781 -23.101562 C 56.59375 -5.003906 76.230469 3.851562 99.714844 3.851562 C 122.8125 3.851562 142.449219 -5.003906 158.617188 -23.101562 C 160.160156 -24.640625 162.082031 -26.566406 163.625 -28.875 L 163.625 0 Z M 190.574219 0 "/></g></g></g></svg>