<svg xmlns="http://www.w3.org/2000/svg" xmlns:xlink="http://www.w3.org/1999/xlink" width="1080" zoomAndPan="magnify" viewBox="0 0 810 809.999993" height="1080" preserveAspectRatio="xMidYMid meet" version="1.0"><defs><g/><clipPath id="id1"><path d="M 305.320312 303.277344 L 628.789062 303.277344 L 628.789062 551.382812 L 305.320312 551.382812 Z M 305.320312 303.277344 " clip-rule="nonzero"/></clipPath><clipPath id="id2"><path d="M 540 303.140625 L 585 303.140625 L 585 336 L 540 336 Z M 540 303.140625 " clip-rule="nonzero"/></clipPath></defs><rect x="-81" width="972" fill="rgb(100%, 100%, 100%)" y="-80.999999" height="971.999992" fill-opacity="1"/><rect x="-81" width="972" fill="rgb(100%, 100%, 100%)" y="-80.999999" height="971.999992" fill-opacity="1"/><g fill="rgb(32.939148%, 32.939148%, 32.939148%)" fill-opacity="1"><g transform="translate(180.958091, 541.269367)"><g><path d="M 184.515625 -236.902344 L 184.515625 -261.941406 L 28.890625 -261.941406 L 28.890625 0 L 55.855469 0 L 55.855469 -118.257812 L 180.664062 -118.257812 L 180.664062 -143.683594 L 55.855469 -143.683594 L 55.855469 -236.902344 Z M 184.515625 -236.902344 "/></g></g></g><path fill="rgb(65.098572%, 65.098572%, 65.098572%)" d="M 623.785156 525.296875 C 607.121094 512.730469 596.929688 493.671875 596.183594 473.382812 L 596.167969 473.421875 C 595.628906 475.140625 594.914062 476.84375 594.160156 478.523438 C 593.03125 481.261719 591.828125 483.972656 590.53125 486.632812 C 589.28125 489.414062 587.980469 492.171875 586.589844 494.886719 C 583.144531 501.628906 579.070312 507.949219 574.140625 513.667969 C 580.195312 519.460938 586.855469 524.292969 595.023438 527.769531 C 597.902344 529 600.945312 530.132812 604.011719 530.84375 C 605.332031 531.152344 607.40625 531.703125 608.726562 531.191406 C 611.023438 530.300781 610.253906 529.289062 611.476562 528.144531 C 612.925781 526.785156 614.03125 526.472656 616.070312 526.476562 C 619.285156 526.480469 621.46875 526.707031 623.785156 525.296875 M 555.957031 510.328125 C 560.011719 512.304688 568.925781 502.039062 576.636719 493.042969 C 583.601562 484.914062 589.5 478.03125 594.8125 468.703125 C 611.097656 440.128906 610.5625 408.523438 610.265625 397.964844 C 609.3125 363.742188 597.101562 337.867188 589.359375 324.300781 C 588.367188 326.960938 586.503906 329.25 583.878906 330.261719 C 583.308594 330.480469 582.9375 329.558594 583.46875 329.289062 C 586.75 327.621094 587.796875 323.988281 587.992188 320.472656 C 587.988281 320.304688 587.980469 320.140625 587.972656 319.976562 C 587.902344 319.820312 587.851562 319.652344 587.835938 319.460938 C 587.558594 315.511719 585.660156 312.148438 582.792969 310.058594 C 580.667969 308.742188 576.652344 306.773438 572.316406 307.773438 C 569.160156 308.503906 564.519531 311.117188 562.773438 314.144531 C 562.488281 314.636719 561.625 316.285156 559.816406 317.09375 C 559.125 317.402344 558.519531 317.484375 558.179688 317.527344 C 555.148438 317.910156 551.6875 316.738281 548.679688 316.3125 C 544.542969 315.722656 540.378906 315.257812 536.191406 315.183594 C 528.378906 315.050781 520.6875 316.417969 513.8125 320.117188 C 485.535156 335.339844 484.226562 370.316406 495.089844 396.335938 C 496.640625 395.648438 498.332031 395.234375 499.820312 395 C 500.695312 394.863281 501.089844 396.164062 500.191406 396.355469 C 498.59375 396.691406 497.179688 397.304688 495.789062 398.160156 C 495.003906 398.636719 494.328125 399.234375 493.632812 399.8125 C 484.222656 410.488281 477.882812 423.257812 471.617188 435.8125 C 466.054688 446.96875 460.421875 458.179688 452.523438 468 C 444.140625 478.421875 433.714844 487.109375 422.9375 495.132812 C 411.894531 503.355469 400.398438 511.242188 387.476562 516.472656 C 376.023438 521.105469 359.921875 525.390625 347.6875 521.148438 C 346.054688 520.578125 346.25 518.132812 348.113281 518.132812 C 348.808594 518.136719 349.507812 518.160156 350.203125 518.1875 C 346.734375 514.847656 344.492188 510.324219 343.761719 505.648438 C 343.4375 503.574219 343.324219 501.035156 343.730469 498.648438 C 338.507812 502.96875 334.390625 509.15625 336.199219 515.472656 C 337.871094 516.703125 339.398438 518.082031 340.703125 519.640625 C 341.835938 520.988281 340.339844 523.421875 338.625 522.246094 C 333.847656 518.980469 329.6875 515.683594 324.046875 513.8125 C 320.105469 512.503906 316.070312 511.867188 311.972656 511.796875 C 322.253906 521.734375 331.78125 538.398438 347.832031 534.832031 C 348.128906 534.765625 348.394531 534.789062 348.628906 534.863281 C 348.757812 534.875 348.890625 534.894531 349.035156 534.941406 C 359.707031 538.46875 370.558594 540.242188 381.460938 542.539062 C 395.550781 544.394531 409.554688 546.371094 423.816406 546.929688 C 439.78125 547.550781 455.84375 546.929688 471.644531 544.582031 C 485.996094 542.449219 500.277344 538.769531 513.90625 533.558594 L 513.878906 533.390625 C 514.5 532.609375 515.097656 531.738281 515.644531 530.773438 C 519.066406 524.753906 518.660156 518.410156 518.117188 514.949219 C 519.847656 517.65625 522.789062 521.941406 527.050781 526.683594 C 537.480469 538.277344 550.941406 547.1875 555.367188 544.109375 C 556.347656 543.429688 558.707031 542.960938 560.890625 540.699219 C 561.558594 540.007812 562.726562 539.921875 563.550781 540.371094 C 567.875 542.71875 572.617188 542.816406 576.851562 540.914062 C 568.976562 535.152344 562.335938 527.917969 557.324219 519.769531 C 555.550781 516.460938 553.933594 513.070312 552.179688 509.75 C 548.613281 501.214844 546.714844 492.027344 546.859375 482.683594 C 546.859375 482.59375 546.871094 482.378906 546.96875 482.339844 C 547.3125 482.222656 548.355469 484.394531 548.6875 485.078125 C 551.285156 490.472656 551.519531 508.160156 555.957031 510.328125 " fill-opacity="1" fill-rule="nonzero"/><path fill="rgb(32.939148%, 32.939148%, 32.939148%)" d="M 403.875 536.976562 C 402.398438 536.976562 400.917969 536.296875 399.632812 534.851562 C 398.820312 533.9375 398.515625 531.792969 399.3125 530.554688 C 400.164062 529.230469 401.085938 528.242188 402.054688 527.527344 C 403.445312 526.257812 404.9375 525.34375 406.390625 525.34375 C 407.671875 525.34375 408.921875 526.046875 410.066406 527.820312 C 410.84375 529.015625 410.714844 531.109375 410.066406 532.332031 C 408.480469 535.328125 406.175781 536.976562 403.875 536.976562 M 385.417969 532.292969 C 384.226562 532.292969 383.167969 531.667969 382.503906 530.347656 C 381.945312 529.242188 382.574219 526.660156 383.804688 526.207031 C 384.910156 525.796875 385.984375 525.515625 387.027344 525.402344 C 387.347656 525.300781 387.660156 525.253906 387.964844 525.253906 C 388.253906 525.253906 388.542969 525.296875 388.824219 525.382812 C 389.339844 525.433594 389.851562 525.539062 390.355469 525.703125 C 391.386719 526.039062 390.949219 528.011719 390.082031 528.800781 C 389.851562 529.503906 389.488281 530.160156 389.054688 530.570312 C 387.871094 531.699219 386.582031 532.292969 385.417969 532.292969 M 425.710938 528.410156 C 424.628906 528.410156 423.542969 527.910156 422.601562 526.851562 C 422.003906 526.183594 421.78125 524.613281 422.363281 523.703125 C 422.988281 522.734375 423.664062 522.011719 424.375 521.484375 C 425.394531 520.554688 426.488281 519.886719 427.554688 519.886719 C 428.488281 519.886719 429.40625 520.398438 430.246094 521.699219 C 430.8125 522.574219 430.71875 524.109375 430.246094 525.007812 C 429.082031 527.203125 427.394531 528.410156 425.710938 528.410156 M 412.328125 516.640625 C 412.214844 516.640625 412.097656 516.632812 411.984375 516.625 C 411.121094 516.558594 410.390625 515.734375 410.21875 514.730469 C 409.902344 514.082031 409.914062 513.203125 410.390625 512.5625 C 410.976562 511.761719 411.625 511.066406 412.3125 510.457031 C 413.21875 509.53125 414.28125 508.851562 415.402344 508.542969 C 415.941406 508.328125 416.496094 508.15625 417.070312 508.046875 C 417.125 508.039062 417.183594 508.03125 417.234375 508.03125 C 417.609375 508.03125 417.910156 508.28125 418.09375 508.621094 C 419.105469 509.179688 419.179688 511.019531 418.511719 512.023438 C 417.964844 512.847656 417.34375 513.585938 416.664062 514.195312 C 415.546875 515.71875 413.980469 516.640625 412.328125 516.640625 M 433.597656 512.863281 C 432.492188 512.863281 431.5 512.496094 430.753906 511.644531 C 429.046875 509.679688 430.207031 507.058594 431.707031 505.75 C 432.066406 505.4375 432.445312 505.160156 432.828125 504.90625 C 432.960938 504.734375 433.09375 504.566406 433.238281 504.410156 C 434.796875 502.710938 436.992188 501.234375 439.074219 501.234375 C 439.324219 501.234375 439.574219 501.257812 439.820312 501.300781 C 441.695312 501.644531 443.191406 503.898438 442.25 506.496094 C 441.125 509.597656 436.894531 512.863281 433.597656 512.863281 M 563.664062 364.707031 C 554.765625 364.707031 547.550781 357.488281 547.550781 348.582031 C 547.550781 339.671875 554.765625 332.457031 563.664062 332.457031 C 572.558594 332.457031 579.773438 339.671875 579.773438 348.582031 C 579.773438 357.488281 572.558594 364.707031 563.664062 364.707031 M 533.609375 325.550781 C 532.691406 325.550781 531.839844 325.195312 531.390625 324.207031 C 530.601562 322.46875 532.242188 321.105469 533.578125 320.316406 C 535.039062 319.453125 536.6875 319.089844 538.367188 319.089844 C 538.476562 319.089844 538.585938 319.089844 538.695312 319.09375 C 539.304688 319.113281 539.628906 319.742188 539.511719 320.234375 C 539.714844 320.605469 539.738281 321.074219 539.445312 321.558594 C 538.542969 323.058594 537.273438 324.296875 535.679688 325.046875 C 535.054688 325.34375 534.308594 325.550781 533.609375 325.550781 " fill-opacity="1" fill-rule="nonzero"/><g clip-path="url(#id1)"><path fill="rgb(0%, 0%, 0%)" d="M 538.851562 320.863281 C 538.777344 320.730469 538.730469 320.582031 538.722656 320.398438 L 538.714844 320.242188 C 537.355469 320.023438 535.976562 320.117188 534.667969 320.628906 C 533.523438 321.078125 531.722656 322.28125 531.878906 323.738281 C 532.195312 326.6875 538.429688 323.902344 538.851562 320.863281 Z M 540.699219 319.402344 C 540.714844 319.734375 540.726562 320.066406 540.746094 320.398438 C 540.765625 320.808594 540.578125 321.089844 540.3125 321.242188 C 539.683594 325.085938 533.453125 328.957031 530.691406 325.59375 C 529.160156 323.730469 530.410156 321.160156 532.035156 319.839844 C 534.207031 318.070312 537.324219 317.800781 539.957031 318.425781 C 540.398438 318.53125 540.675781 318.96875 540.699219 319.402344 Z M 573.722656 322.453125 C 568.988281 326.890625 566.242188 332.667969 567.328125 339.246094 C 567.523438 340.46875 569.605469 340.195312 569.5 338.945312 C 569.019531 333.21875 570.242188 327.351562 574.410156 323.140625 C 574.859375 322.699219 574.179688 322.023438 573.722656 322.453125 Z M 623.785156 525.296875 C 607.121094 512.734375 596.933594 493.675781 596.183594 473.378906 L 596.167969 473.421875 C 595.632812 475.140625 594.914062 476.84375 594.160156 478.527344 C 593.035156 481.261719 591.828125 483.972656 590.53125 486.632812 C 589.277344 489.410156 587.984375 492.175781 586.589844 494.890625 C 583.144531 501.632812 579.074219 507.949219 574.136719 513.667969 C 580.199219 519.460938 586.855469 524.292969 595.023438 527.773438 C 597.902344 529.003906 600.941406 530.136719 604.007812 530.84375 C 605.332031 531.152344 607.40625 531.703125 608.726562 531.191406 C 610.589844 530.46875 610.4375 529.671875 610.957031 528.777344 C 609.046875 528.464844 607.160156 528.011719 605.367188 527.550781 C 603.996094 527.199219 604.582031 525.121094 605.953125 525.433594 C 610.480469 526.464844 614.789062 526.027344 619.347656 526.21875 C 619.605469 526.234375 619.832031 526.308594 620.015625 526.433594 C 621.351562 526.332031 622.550781 526.046875 623.785156 525.296875 Z M 590.765625 472.480469 C 604.140625 450.269531 609.703125 424.351562 608.742188 398.804688 C 607.757812 372.640625 599.222656 348.375 589.359375 324.300781 C 588.371094 326.964844 586.503906 329.25 583.878906 330.257812 C 583.304688 330.476562 582.9375 329.554688 583.46875 329.292969 C 586.75 327.625 587.796875 323.988281 587.988281 320.472656 C 587.984375 320.3125 587.984375 320.140625 587.976562 319.976562 C 587.9375 319.898438 587.910156 319.816406 587.886719 319.734375 C 587.84375 319.582031 587.839844 319.46875 587.839844 319.457031 C 587.832031 319.328125 587.03125 314.175781 582.371094 310.722656 C 578.746094 308.035156 574.910156 307.949219 573.660156 307.972656 C 573.269531 308.035156 572.878906 308.101562 572.480469 308.199219 C 568.648438 309.132812 565.710938 311.433594 563.191406 314.257812 C 561.707031 315.902344 560.523438 317.230469 558.179688 317.523438 C 555.144531 317.90625 551.6875 316.742188 548.683594 316.3125 C 544.542969 315.722656 540.378906 315.257812 536.191406 315.183594 C 528.382812 315.050781 520.683594 316.417969 513.8125 320.117188 C 485.535156 335.34375 484.230469 370.3125 495.085938 396.335938 C 496.640625 395.652344 498.332031 395.234375 499.816406 394.996094 C 500.691406 394.859375 501.09375 396.164062 500.191406 396.355469 C 498.589844 396.695312 497.179688 397.300781 495.789062 398.15625 C 495.003906 398.640625 494.324219 399.234375 493.632812 399.8125 C 484.222656 410.488281 477.878906 423.253906 471.617188 435.816406 C 466.050781 446.96875 460.421875 458.179688 452.523438 468 C 444.144531 478.417969 433.714844 487.105469 422.933594 495.128906 C 411.890625 503.351562 400.398438 511.238281 387.472656 516.472656 C 376.027344 521.105469 359.917969 525.394531 347.6875 521.148438 C 346.054688 520.582031 346.25 518.132812 348.113281 518.132812 C 348.808594 518.140625 349.511719 518.160156 350.203125 518.183594 C 346.734375 514.851562 344.492188 510.324219 343.761719 505.652344 C 343.441406 503.570312 343.328125 501.039062 343.730469 498.648438 C 338.507812 502.96875 334.390625 509.160156 336.203125 515.472656 C 337.871094 516.707031 339.398438 518.082031 340.699219 519.640625 C 341.832031 520.992188 340.339844 523.421875 338.621094 522.246094 C 333.84375 518.980469 329.683594 515.683594 324.046875 513.8125 C 320.109375 512.503906 316.0625 511.867188 311.972656 511.796875 C 322.253906 521.734375 331.777344 538.398438 347.832031 534.828125 C 348.132812 534.765625 348.398438 534.789062 348.632812 534.863281 C 348.757812 534.871094 348.890625 534.890625 349.039062 534.9375 C 359.707031 538.46875 370.558594 540.238281 381.460938 542.539062 C 395.550781 544.390625 409.554688 546.367188 423.820312 546.929688 C 439.78125 547.550781 455.84375 546.929688 471.644531 544.582031 C 485.992188 542.453125 500.277344 538.773438 513.910156 533.558594 L 513.882812 533.390625 C 514.496094 532.609375 515.09375 531.738281 515.644531 530.769531 C 519.070312 524.75 518.660156 518.410156 518.113281 514.945312 C 519.847656 517.65625 522.785156 521.9375 527.050781 526.683594 C 537.476562 538.277344 550.941406 547.1875 555.371094 544.109375 C 556.261719 543.480469 558.328125 543.039062 560.34375 541.214844 C 559.773438 540.671875 559.242188 540.113281 558.773438 539.585938 C 558.015625 538.738281 559.1875 537.554688 560.027344 538.332031 C 560.75 539.003906 561.546875 539.566406 562.378906 540.089844 C 562.789062 540.082031 563.195312 540.179688 563.550781 540.371094 C 567.875 542.71875 572.617188 542.820312 576.851562 540.917969 C 568.976562 535.152344 562.335938 527.917969 557.324219 519.769531 C 555.554688 516.460938 553.933594 513.066406 552.179688 509.746094 C 548.617188 501.214844 546.710938 492.027344 546.863281 482.6875 C 546.890625 481.03125 549.417969 481.050781 549.507812 482.6875 C 550.03125 492.289062 552.445312 501.605469 556.523438 510.136719 C 570.117188 499.789062 581.867188 487.253906 590.765625 472.480469 Z M 628.238281 526.558594 C 626.097656 528.609375 623.574219 530.035156 620.546875 530.414062 C 619.355469 530.5625 618.046875 530.203125 616.910156 530.375 C 613.4375 530.890625 614.40625 531.792969 612.53125 533.429688 C 608.496094 536.949219 601.746094 534.453125 597.421875 532.996094 C 584.554688 528.640625 571.894531 520.230469 564.285156 509.144531 L 564.253906 509.085938 C 562.335938 510.6875 560.375 512.242188 558.378906 513.757812 C 563.910156 523.835938 571.875 532.652344 581.910156 539.265625 C 583.347656 540.222656 583.261719 541.945312 581.910156 542.90625 C 576.273438 546.949219 569.101562 547.523438 562.855469 544.769531 C 555.894531 550.679688 545.871094 548.269531 538.941406 543.210938 C 534.652344 540.082031 530.863281 536.25 527.242188 532.402344 C 507.015625 541.769531 485.101562 547.332031 462.773438 549.738281 C 434.910156 552.742188 405.085938 551.765625 377.617188 545.71875 C 367.5625 544.375 357.519531 541.121094 348.242188 537.738281 C 348.144531 537.703125 348.058594 537.65625 347.976562 537.605469 C 328.644531 542.527344 318.933594 521.164062 306.214844 511.710938 C 304.679688 510.578125 305.191406 508.421875 307.183594 508.246094 C 315.441406 507.5 325.296875 509.085938 332.992188 513.410156 C 331.90625 504.183594 340.695312 495.449219 348.539062 491.457031 C 350.585938 490.542969 352.394531 493.4375 350.328125 494.414062 C 346.03125 496.699219 346.941406 504.085938 348.144531 507.8125 C 349.367188 511.5625 351.621094 514.359375 354.492188 516.910156 C 354.804688 517.085938 355.121094 517.253906 355.441406 517.410156 C 356.410156 517.890625 357.445312 518.246094 358.460938 518.636719 C 359.386719 518.65625 360.320312 518.65625 361.257812 518.617188 C 366.046875 518.410156 370.792969 517.628906 375.429688 516.433594 C 384.363281 514.132812 392.738281 510.246094 400.625 505.609375 C 415.394531 496.9375 429.867188 486.242188 441.914062 474.226562 C 464.328125 451.84375 470.621094 419.636719 492.460938 396.949219 C 492.578125 396.824219 492.699219 396.738281 492.832031 396.667969 C 486.890625 383.292969 483.757812 368.683594 486.210938 354.148438 C 490.390625 329.351562 511.195312 310.542969 537.605469 311.425781 C 541.039062 311.542969 544.46875 311.878906 547.878906 312.304688 C 551.550781 312.769531 556.691406 314.53125 559.757812 312.09375 C 562.078125 310.25 563.515625 307.980469 566.222656 306.449219 C 568.328125 305.257812 570.628906 304.375 573.046875 303.988281 C 581.910156 302.5625 592.3125 309.207031 591.164062 318.425781 C 591.140625 319.238281 591.050781 320.050781 590.921875 320.855469 C 597.449219 335.921875 604.089844 351.050781 608.066406 366.980469 C 611.613281 381.164062 613.242188 395.792969 612.699219 410.386719 C 611.996094 429.621094 607.5 448.707031 598.894531 466.003906 L 598.90625 466.03125 C 598.019531 488.390625 608.984375 510.605469 627.847656 523.652344 C 628.832031 524.335938 629.179688 525.660156 628.238281 526.558594 Z M 582.394531 339.058594 C 577.949219 336.378906 576.679688 328.894531 577.820312 324.21875 C 577.964844 323.632812 577.109375 323.410156 576.917969 323.972656 C 575.160156 329.1875 575.78125 338.023438 581.335938 340.863281 C 582.53125 341.46875 583.550781 339.757812 582.394531 339.058594 " fill-opacity="1" fill-rule="nonzero"/></g><path fill="rgb(100%, 100%, 100%)" d="M 559.21875 329.242188 C 559.21875 333.839844 555.234375 337.566406 550.316406 337.566406 C 545.402344 337.566406 541.417969 333.839844 541.417969 329.242188 C 541.417969 324.644531 545.402344 320.917969 550.316406 320.917969 C 555.234375 320.917969 559.21875 324.644531 559.21875 329.242188 " fill-opacity="1" fill-rule="nonzero"/><g clip-path="url(#id2)"><path fill="rgb(0%, 0%, 0%)" d="M 584.152344 308.226562 C 583.644531 311.109375 578.550781 313.085938 576.691406 311.820312 C 575.351562 310.910156 575.882812 308.453125 576.027344 307.777344 C 576.082031 307.519531 577.003906 303.5 579.671875 303.285156 C 581.65625 303.125 583.175781 305.179688 583.324219 305.382812 C 583.535156 305.683594 584.390625 306.867188 584.152344 308.226562 Z M 558.546875 325.714844 C 557.457031 322.777344 553.800781 320.863281 550.539062 320.917969 C 550.625 320.597656 550.433594 320.171875 550.03125 320.195312 C 546.414062 320.378906 543.289062 322.144531 541.769531 325.558594 C 540.398438 328.640625 540.714844 333.609375 543.8125 335.554688 C 544.632812 336.074219 545.921875 335.199219 545.546875 334.226562 C 544.6875 332 543.398438 330.28125 543.589844 327.898438 C 544.941406 330.476562 549.035156 331.792969 551.539062 331.828125 C 554.785156 331.882812 560.09375 329.902344 558.546875 325.714844 " fill-opacity="1" fill-rule="nonzero"/></g><g fill="rgb(0%, 0%, 0%)" fill-opacity="1"><g transform="translate(401.408683, 553.224367)"><g><path d="M 119.734375 -263.722656 L 119.734375 -288.75 L 100.484375 -288.75 C 81.234375 -288.75 67.757812 -283.742188 59.675781 -274.503906 C 51.589844 -265.261719 47.738281 -251.789062 47.738281 -234.847656 L 47.738281 -169.398438 L 13.476562 -169.398438 L 13.476562 -144.375 L 47.738281 -144.375 L 47.738281 0 L 74.691406 0 L 74.691406 -144.375 L 119.734375 -144.375 L 119.734375 -169.398438 L 74.691406 -169.398438 L 74.691406 -242.546875 C 74.691406 -248.324219 75.84375 -253.328125 78.925781 -257.5625 C 81.621094 -261.414062 87.394531 -263.722656 96.632812 -263.722656 Z M 119.734375 -263.722656 "/></g></g></g></svg>