<svg xmlns="http://www.w3.org/2000/svg" xmlns:xlink="http://www.w3.org/1999/xlink" width="1080" zoomAndPan="magnify" viewBox="0 0 810 809.999993" height="1080" preserveAspectRatio="xMidYMid meet" version="1.0"><defs><g/><clipPath id="id1"><path d="M 466.109375 296.324219 L 666.359375 296.324219 L 666.359375 540.824219 L 466.109375 540.824219 Z M 466.109375 296.324219 " clip-rule="nonzero"/></clipPath></defs><rect x="-81" width="972" fill="rgb(100%, 100%, 100%)" y="-80.999999" height="971.999992" fill-opacity="1"/><rect x="-81" width="972" fill="rgb(100%, 100%, 100%)" y="-80.999999" height="971.999992" fill-opacity="1"/><path fill="rgb(99.609375%, 99.21875%, 93.728638%)" d="M 663.230469 440.5 C 663.230469 494.132812 619.800781 537.609375 566.234375 537.609375 C 512.664062 537.609375 469.238281 494.132812 469.238281 440.5 C 469.238281 386.867188 512.664062 299.535156 566.234375 299.535156 C 619.800781 299.535156 663.230469 386.867188 663.230469 440.5 Z M 663.230469 440.5 " fill-opacity="1" fill-rule="nonzero"/><g clip-path="url(#id1)"><path fill="rgb(12.159729%, 12.939453%, 16.859436%)" d="M 566.234375 540.742188 C 511.023438 540.742188 466.109375 495.773438 466.109375 440.5 C 466.109375 383.597656 510.964844 296.402344 566.234375 296.402344 C 621.5 296.402344 666.359375 383.597656 666.359375 440.5 C 666.359375 495.773438 621.441406 540.742188 566.234375 540.742188 Z M 566.234375 302.667969 C 515.320312 302.667969 472.367188 387.328125 472.367188 440.5 C 472.367188 492.320312 514.472656 534.476562 566.234375 534.476562 C 617.992188 534.476562 660.101562 492.320312 660.101562 440.5 C 660.101562 387.328125 617.144531 302.667969 566.234375 302.667969 Z M 566.234375 302.667969 " fill-opacity="1" fill-rule="nonzero"/></g><path fill="rgb(12.159729%, 12.939453%, 16.859436%)" d="M 566.234375 521.949219 C 542.335938 521.949219 519.738281 511.46875 504.234375 493.203125 C 503.671875 492.542969 503.753906 491.554688 504.410156 490.996094 C 505.074219 490.433594 506.0625 490.515625 506.617188 491.171875 C 521.523438 508.742188 543.253906 518.816406 566.234375 518.816406 C 576.289062 518.816406 586.09375 516.921875 595.371094 513.183594 C 596.179688 512.863281 597.085938 513.25 597.40625 514.050781 C 597.730469 514.851562 597.339844 515.765625 596.539062 516.085938 C 586.890625 519.976562 576.6875 521.949219 566.234375 521.949219 Z M 566.234375 521.949219 " fill-opacity="1" fill-rule="nonzero"/><path fill="rgb(12.159729%, 12.939453%, 16.859436%)" d="M 624.234375 496.886719 C 623.851562 496.886719 623.464844 496.746094 623.160156 496.457031 C 622.535156 495.867188 622.507812 494.875 623.097656 494.242188 C 624.042969 493.246094 624.960938 492.21875 625.847656 491.171875 C 626.40625 490.515625 627.394531 490.4375 628.054688 490.996094 C 628.710938 491.554688 628.789062 492.542969 628.230469 493.203125 C 627.304688 494.292969 626.351562 495.359375 625.371094 496.398438 C 625.066406 496.722656 624.652344 496.886719 624.234375 496.886719 Z M 624.234375 496.886719 " fill-opacity="1" fill-rule="nonzero"/><path fill="rgb(12.159729%, 12.939453%, 16.859436%)" d="M 605.34375 511.667969 C 604.800781 511.667969 604.269531 511.378906 603.980469 510.871094 C 603.554688 510.117188 603.820312 509.160156 604.570312 508.734375 C 608.960938 506.257812 613.089844 503.378906 616.84375 500.183594 C 617.503906 499.621094 618.488281 499.699219 619.046875 500.363281 C 619.609375 501.023438 619.527344 502.007812 618.871094 502.570312 C 614.964844 505.898438 610.671875 508.890625 606.109375 511.464844 C 605.871094 511.601562 605.605469 511.667969 605.34375 511.667969 Z M 605.34375 511.667969 " fill-opacity="1" fill-rule="nonzero"/><path fill="rgb(95.689392%, 59.21936%, 69.018555%)" d="M 520.863281 456.164062 C 520.863281 457.089844 520.773438 458.007812 520.59375 458.914062 C 520.414062 459.820312 520.144531 460.703125 519.792969 461.558594 C 519.4375 462.414062 519.003906 463.226562 518.492188 463.996094 C 517.976562 464.765625 517.394531 465.476562 516.738281 466.132812 C 516.085938 466.785156 515.375 467.371094 514.605469 467.886719 C 513.835938 468.398438 513.027344 468.832031 512.171875 469.1875 C 511.316406 469.542969 510.4375 469.808594 509.53125 469.988281 C 508.625 470.171875 507.707031 470.261719 506.785156 470.261719 C 505.859375 470.261719 504.941406 470.171875 504.035156 469.988281 C 503.128906 469.808594 502.25 469.542969 501.394531 469.1875 C 500.542969 468.832031 499.730469 468.398438 498.960938 467.886719 C 498.191406 467.371094 497.480469 466.785156 496.828125 466.132812 C 496.171875 465.476562 495.589844 464.765625 495.078125 463.996094 C 494.5625 463.226562 494.128906 462.414062 493.773438 461.558594 C 493.421875 460.703125 493.152344 459.820312 492.972656 458.914062 C 492.792969 458.007812 492.703125 457.089844 492.703125 456.164062 C 492.703125 455.238281 492.792969 454.320312 492.972656 453.414062 C 493.152344 452.507812 493.421875 451.625 493.773438 450.769531 C 494.128906 449.914062 494.5625 449.101562 495.078125 448.332031 C 495.589844 447.5625 496.171875 446.851562 496.828125 446.195312 C 497.480469 445.542969 498.191406 444.957031 498.960938 444.441406 C 499.730469 443.929688 500.542969 443.496094 501.394531 443.140625 C 502.25 442.785156 503.128906 442.519531 504.035156 442.339844 C 504.941406 442.15625 505.859375 442.066406 506.785156 442.066406 C 507.707031 442.066406 508.625 442.15625 509.53125 442.339844 C 510.4375 442.519531 511.316406 442.785156 512.171875 443.140625 C 513.027344 443.496094 513.835938 443.929688 514.605469 444.441406 C 515.375 444.957031 516.085938 445.542969 516.738281 446.195312 C 517.394531 446.851562 517.976562 447.5625 518.492188 448.332031 C 519.003906 449.101562 519.4375 449.914062 519.792969 450.769531 C 520.144531 451.625 520.414062 452.507812 520.59375 453.414062 C 520.773438 454.320312 520.863281 455.238281 520.863281 456.164062 Z M 520.863281 456.164062 " fill-opacity="1" fill-rule="nonzero"/><path fill="rgb(95.689392%, 59.21936%, 69.018555%)" d="M 639.761719 456.164062 C 639.761719 457.089844 639.671875 458.007812 639.492188 458.914062 C 639.3125 459.820312 639.042969 460.703125 638.691406 461.558594 C 638.335938 462.414062 637.902344 463.226562 637.390625 463.996094 C 636.875 464.765625 636.292969 465.476562 635.636719 466.132812 C 634.984375 466.785156 634.273438 467.371094 633.503906 467.886719 C 632.734375 468.398438 631.925781 468.832031 631.070312 469.1875 C 630.214844 469.542969 629.335938 469.808594 628.429688 469.988281 C 627.523438 470.171875 626.605469 470.261719 625.683594 470.261719 C 624.757812 470.261719 623.839844 470.171875 622.933594 469.988281 C 622.027344 469.808594 621.148438 469.542969 620.292969 469.1875 C 619.441406 468.832031 618.628906 468.398438 617.859375 467.886719 C 617.089844 467.371094 616.378906 466.785156 615.726562 466.132812 C 615.070312 465.476562 614.488281 464.765625 613.976562 463.996094 C 613.460938 463.226562 613.027344 462.414062 612.671875 461.558594 C 612.320312 460.703125 612.050781 459.820312 611.871094 458.914062 C 611.691406 458.007812 611.601562 457.089844 611.601562 456.164062 C 611.601562 455.238281 611.691406 454.320312 611.871094 453.414062 C 612.050781 452.507812 612.320312 451.625 612.671875 450.769531 C 613.027344 449.914062 613.460938 449.101562 613.976562 448.332031 C 614.488281 447.5625 615.070312 446.851562 615.726562 446.195312 C 616.378906 445.542969 617.089844 444.957031 617.859375 444.441406 C 618.628906 443.929688 619.441406 443.496094 620.292969 443.140625 C 621.148438 442.785156 622.027344 442.519531 622.933594 442.339844 C 623.839844 442.15625 624.757812 442.066406 625.683594 442.066406 C 626.605469 442.066406 627.523438 442.15625 628.429688 442.339844 C 629.335938 442.519531 630.214844 442.785156 631.070312 443.140625 C 631.925781 443.496094 632.734375 443.929688 633.503906 444.441406 C 634.273438 444.957031 634.984375 445.542969 635.636719 446.195312 C 636.292969 446.851562 636.875 447.5625 637.390625 448.332031 C 637.902344 449.101562 638.335938 449.914062 638.691406 450.769531 C 639.042969 451.625 639.3125 452.507812 639.492188 453.414062 C 639.671875 454.320312 639.761719 455.238281 639.761719 456.164062 Z M 639.761719 456.164062 " fill-opacity="1" fill-rule="nonzero"/><path fill="rgb(83.529663%, 21.179199%, 40.779114%)" d="M 577.183594 435.800781 C 577.183594 442.722656 572.28125 451.464844 566.234375 451.464844 C 560.183594 451.464844 555.28125 442.722656 555.28125 435.800781 Z M 577.183594 435.800781 " fill-opacity="1" fill-rule="nonzero"/><path fill="rgb(12.159729%, 12.939453%, 16.859436%)" d="M 566.234375 453.03125 C 559.300781 453.03125 553.71875 443.605469 553.71875 435.800781 C 553.71875 434.9375 554.417969 434.234375 555.28125 434.234375 L 577.183594 434.234375 C 578.046875 434.234375 578.75 434.9375 578.75 435.800781 C 578.75 443.605469 573.167969 453.03125 566.234375 453.03125 Z M 556.933594 437.367188 C 557.578125 443.265625 561.671875 449.898438 566.234375 449.898438 C 570.792969 449.898438 574.886719 443.265625 575.53125 437.367188 Z M 556.933594 437.367188 " fill-opacity="1" fill-rule="nonzero"/><path fill="rgb(12.159729%, 12.939453%, 16.859436%)" d="M 547.351562 404.996094 C 547.414062 405.339844 547.460938 405.683594 547.460938 406.042969 C 547.460938 409.503906 544.660156 412.308594 541.203125 412.308594 C 537.742188 412.308594 534.945312 409.503906 534.945312 406.042969 C 534.945312 403.21875 536.820312 400.863281 539.382812 400.078125 C 538.453125 399.882812 537.492188 399.777344 536.507812 399.777344 C 528.746094 399.777344 522.429688 406.101562 522.429688 413.875 C 522.429688 421.644531 528.746094 427.972656 536.507812 427.972656 C 544.269531 427.972656 550.589844 421.644531 550.589844 413.875 C 550.589844 410.492188 549.34375 407.425781 547.351562 404.996094 Z M 547.351562 404.996094 " fill-opacity="1" fill-rule="nonzero"/><path fill="rgb(12.159729%, 12.939453%, 16.859436%)" d="M 606.800781 404.996094 C 606.863281 405.339844 606.910156 405.683594 606.910156 406.042969 C 606.910156 409.503906 604.109375 412.308594 600.652344 412.308594 C 597.191406 412.308594 594.394531 409.503906 594.394531 406.042969 C 594.394531 403.21875 596.269531 400.863281 598.832031 400.078125 C 597.902344 399.882812 596.941406 399.777344 595.957031 399.777344 C 588.195312 399.777344 581.878906 406.101562 581.878906 413.875 C 581.878906 421.644531 588.195312 427.972656 595.957031 427.972656 C 603.71875 427.972656 610.039062 421.644531 610.039062 413.875 C 610.039062 410.492188 608.792969 407.425781 606.800781 404.996094 Z M 606.800781 404.996094 " fill-opacity="1" fill-rule="nonzero"/><path fill="rgb(12.159729%, 12.939453%, 16.859436%)" d="M 506.785156 471.828125 C 498.15625 471.828125 491.140625 464.800781 491.140625 456.164062 C 491.140625 447.527344 498.15625 440.5 506.785156 440.5 C 515.410156 440.5 522.429688 447.527344 522.429688 456.164062 C 522.429688 464.800781 515.410156 471.828125 506.785156 471.828125 Z M 506.785156 443.632812 C 499.882812 443.632812 494.269531 449.253906 494.269531 456.164062 C 494.269531 463.074219 499.882812 468.695312 506.785156 468.695312 C 513.6875 468.695312 519.300781 463.074219 519.300781 456.164062 C 519.300781 449.253906 513.6875 443.632812 506.785156 443.632812 Z M 506.785156 443.632812 " fill-opacity="1" fill-rule="nonzero"/><path fill="rgb(12.159729%, 12.939453%, 16.859436%)" d="M 625.683594 471.828125 C 617.054688 471.828125 610.039062 464.800781 610.039062 456.164062 C 610.039062 447.527344 617.054688 440.5 625.683594 440.5 C 634.308594 440.5 641.328125 447.527344 641.328125 456.164062 C 641.328125 464.800781 634.308594 471.828125 625.683594 471.828125 Z M 625.683594 443.632812 C 618.78125 443.632812 613.167969 449.253906 613.167969 456.164062 C 613.167969 463.074219 618.78125 468.695312 625.683594 468.695312 C 632.585938 468.695312 638.199219 463.074219 638.199219 456.164062 C 638.199219 449.253906 632.585938 443.632812 625.683594 443.632812 Z M 625.683594 443.632812 " fill-opacity="1" fill-rule="nonzero"/><g fill="rgb(100%, 47.059631%, 0.779724%)" fill-opacity="1"><g transform="translate(143.391368, 539.984054)"><g><path d="M 55.855469 0 L 55.855469 -117.101562 L 174.882812 -117.101562 L 174.882812 0 L 201.847656 0 L 201.847656 -261.941406 L 174.882812 -261.941406 L 174.882812 -144.066406 L 55.855469 -144.066406 L 55.855469 -261.941406 L 28.890625 -261.941406 L 28.890625 0 Z M 55.855469 0 "/></g></g></g><g fill="rgb(0%, 0%, 0%)" fill-opacity="1"><g transform="translate(349.403132, 540.005148)"><g><path d="M 55.824219 0 L 55.824219 -70.839844 C 55.824219 -94.324219 59.675781 -112.035156 67.757812 -124.355469 C 72.378906 -131.285156 78.15625 -136.289062 85.46875 -140.140625 C 92.398438 -143.988281 102.023438 -145.914062 113.574219 -145.914062 C 125.125 -145.914062 133.210938 -141.679688 138.214844 -133.980469 C 143.21875 -126.277344 145.914062 -116.652344 145.914062 -105.875 L 145.914062 0 L 172.863281 0 L 172.863281 -105.875 C 172.863281 -125.507812 167.472656 -141.292969 157.464844 -153.230469 C 152.074219 -159.390625 145.914062 -164.007812 138.597656 -167.472656 C 130.898438 -170.9375 121.273438 -172.863281 109.339844 -172.863281 C 97.019531 -172.863281 86.625 -169.398438 77.382812 -163.238281 C 68.53125 -157.464844 61.214844 -149.765625 55.824219 -140.140625 L 55.824219 -288.75 L 28.875 -288.75 L 28.875 0 Z M 55.824219 0 "/></g></g></g></svg>