<svg xmlns="http://www.w3.org/2000/svg" xmlns:xlink="http://www.w3.org/1999/xlink" width="1080" zoomAndPan="magnify" viewBox="0 0 810 809.999993" height="1080" preserveAspectRatio="xMidYMid meet" version="1.0"><defs><g/><clipPath id="id1"><path d="M 275.535156 368.511719 L 599.535156 368.511719 L 599.535156 541.011719 L 275.535156 541.011719 Z M 275.535156 368.511719 " clip-rule="nonzero"/></clipPath></defs><rect x="-81" width="972" fill="rgb(100%, 100%, 100%)" y="-80.999999" height="971.999992" fill-opacity="1"/><rect x="-81" width="972" fill="rgb(100%, 100%, 100%)" y="-80.999999" height="971.999992" fill-opacity="1"/><path fill="rgb(52.938843%, 80.778503%, 91.369629%)" d="M 539.972656 503.277344 L 539.972656 535.621094 L 442.925781 535.621094 L 442.925781 503.277344 L 539.972656 503.277344 " fill-opacity="1" fill-rule="nonzero"/><path fill="rgb(52.938843%, 80.778503%, 91.369629%)" d="M 405.1875 406.246094 L 405.1875 438.589844 L 315.726562 438.589844 C 321.9375 426.441406 330.171875 415.511719 340.007812 406.246094 L 405.1875 406.246094 " fill-opacity="1" fill-rule="nonzero"/><path fill="rgb(46.669006%, 71.369934%, 78.819275%)" d="M 502.714844 406.246094 C 512.550781 415.511719 520.785156 426.441406 527 438.589844 L 405.1875 438.589844 L 405.1875 406.246094 L 502.714844 406.246094 " fill-opacity="1" fill-rule="nonzero"/><path fill="rgb(68.629456%, 87.838745%, 93.728638%)" d="M 437.535156 375.125 L 437.535156 406.246094 L 340.007812 406.246094 C 361.234375 386.199219 389.855469 373.902344 421.363281 373.902344 C 426.859375 373.902344 432.230469 374.410156 437.535156 375.125 " fill-opacity="1" fill-rule="nonzero"/><path fill="rgb(52.938843%, 80.778503%, 91.369629%)" d="M 502.714844 406.246094 L 437.535156 406.246094 L 437.535156 375.125 C 462.597656 378.558594 485.195312 389.695312 502.714844 406.246094 " fill-opacity="1" fill-rule="nonzero"/><path fill="rgb(68.629456%, 87.838745%, 93.728638%)" d="M 469.882812 438.589844 L 469.882812 470.933594 L 304.730469 470.933594 C 306.859375 459.5 310.585938 448.636719 315.726562 438.589844 L 469.882812 438.589844 " fill-opacity="1" fill-rule="nonzero"/><path fill="rgb(52.938843%, 80.778503%, 91.369629%)" d="M 527 438.589844 C 532.136719 448.636719 535.863281 459.5 537.992188 470.933594 L 469.882812 470.933594 L 469.882812 438.589844 L 527 438.589844 " fill-opacity="1" fill-rule="nonzero"/><path fill="rgb(52.938843%, 80.778503%, 91.369629%)" d="M 304.730469 470.933594 L 394.40625 470.933594 L 394.40625 503.277344 L 302.753906 503.277344 L 302.753906 492.496094 C 302.753906 485.125 303.46875 477.925781 304.730469 470.933594 " fill-opacity="1" fill-rule="nonzero"/><path fill="rgb(46.669006%, 71.369934%, 78.819275%)" d="M 537.992188 470.933594 C 539.253906 477.925781 539.972656 485.125 539.972656 492.496094 L 539.972656 503.277344 L 394.40625 503.277344 L 394.40625 470.933594 L 537.992188 470.933594 " fill-opacity="1" fill-rule="nonzero"/><path fill="rgb(68.629456%, 87.838745%, 93.728638%)" d="M 442.925781 535.621094 L 302.753906 535.621094 L 302.753906 503.277344 L 442.925781 503.277344 L 442.925781 535.621094 " fill-opacity="1" fill-rule="nonzero"/><path fill="rgb(90.19928%, 94.509888%, 99.21875%)" d="M 491.449219 384.683594 C 497.199219 384.683594 502.210938 387.695312 505.097656 392.242188 C 507.433594 390.894531 510.128906 390.074219 513.015625 390.074219 C 521.945312 390.074219 529.1875 397.320312 529.1875 406.246094 C 529.1875 411.132812 527 415.449219 523.585938 418.398438 C 526.914062 420.230469 529.1875 423.746094 529.1875 427.808594 C 529.1875 433.769531 524.367188 438.589844 518.40625 438.589844 C 512.445312 438.589844 507.625 433.769531 507.625 427.808594 C 507.625 425.640625 508.277344 423.660156 509.371094 421.957031 C 505.160156 420.988281 501.621094 418.398438 499.367188 414.859375 C 497.03125 416.207031 494.335938 417.027344 491.449219 417.027344 C 482.519531 417.027344 475.277344 409.785156 475.277344 400.855469 C 475.277344 391.929688 482.519531 384.683594 491.449219 384.683594 " fill-opacity="1" fill-rule="nonzero"/><path fill="rgb(90.19928%, 94.509888%, 99.21875%)" d="M 318.925781 438.589844 C 313.175781 438.589844 308.164062 441.601562 305.277344 446.148438 C 302.941406 444.800781 300.246094 443.980469 297.359375 443.980469 C 288.429688 443.980469 281.1875 451.226562 281.1875 460.152344 C 281.1875 465.039062 283.375 469.355469 286.789062 472.304688 C 283.460938 474.136719 281.1875 477.652344 281.1875 481.714844 C 281.1875 487.675781 286.007812 492.496094 291.96875 492.496094 C 297.929688 492.496094 302.753906 487.675781 302.753906 481.714844 C 302.753906 479.546875 302.097656 477.566406 301.003906 475.863281 C 305.214844 474.894531 308.753906 472.304688 311.007812 468.765625 C 313.34375 470.113281 316.039062 470.933594 318.925781 470.933594 C 327.855469 470.933594 335.101562 463.691406 335.101562 454.761719 C 335.101562 445.835938 327.855469 438.589844 318.925781 438.589844 " fill-opacity="1" fill-rule="nonzero"/><path fill="rgb(90.19928%, 94.509888%, 99.21875%)" d="M 389.015625 449.371094 C 391.183594 449.371094 393.164062 450.023438 394.867188 451.121094 C 396.511719 443.9375 402.914062 438.589844 410.578125 438.589844 C 418.246094 438.589844 424.648438 443.9375 426.289062 451.121094 C 427.996094 450.023438 429.976562 449.371094 432.144531 449.371094 C 438.839844 449.371094 444.128906 455.5 442.695312 462.46875 C 441.875 466.40625 437.535156 470.933594 432.144531 470.933594 C 426.835938 470.933594 394.40625 470.933594 389.015625 470.933594 C 383.621094 470.933594 379.285156 466.40625 378.460938 462.46875 C 377.03125 455.5 382.316406 449.371094 389.015625 449.371094 " fill-opacity="1" fill-rule="nonzero"/><path fill="rgb(52.938843%, 80.778503%, 91.369629%)" d="M 593.886719 497.886719 L 593.886719 535.621094 L 572.320312 535.621094 L 572.320312 497.886719 C 572.320312 488.960938 565.074219 481.714844 556.144531 481.714844 C 547.214844 481.714844 539.972656 488.960938 539.972656 497.886719 L 539.972656 535.621094 L 518.40625 535.621094 L 518.40625 497.886719 C 518.40625 477.039062 535.296875 460.152344 556.144531 460.152344 C 576.996094 460.152344 593.886719 477.039062 593.886719 497.886719 " fill-opacity="1" fill-rule="nonzero"/><path fill="rgb(29.40979%, 56.469727%, 62.748718%)" d="M 507.625 460.152344 L 556.144531 460.152344 C 535.296875 460.152344 518.40625 477.039062 518.40625 497.886719 L 518.40625 535.621094 L 469.882812 535.621094 L 469.882812 497.886719 C 469.882812 477.039062 486.773438 460.152344 507.625 460.152344 " fill-opacity="1" fill-rule="nonzero"/><path fill="rgb(29.40979%, 56.469727%, 62.748718%)" d="M 539.972656 535.621094 L 572.320312 535.621094 L 572.320312 497.886719 C 572.320312 488.960938 565.074219 481.714844 556.144531 481.714844 C 547.214844 481.714844 539.972656 488.960938 539.972656 497.886719 L 539.972656 535.621094 " fill-opacity="1" fill-rule="nonzero"/><g clip-path="url(#id1)"><path fill="rgb(0%, 0%, 0%)" d="M 289.378906 477.0625 C 287.632812 478.03125 286.578125 479.757812 286.578125 481.714844 C 286.578125 484.683594 289 487.105469 291.96875 487.105469 C 294.9375 487.105469 297.359375 484.683594 297.359375 481.714844 C 297.359375 480.683594 297.066406 479.714844 296.496094 478.808594 C 295.550781 477.355469 295.382812 475.523438 296.011719 473.902344 C 296.644531 472.304688 298.035156 471.082031 299.71875 470.660156 C 300.5625 470.449219 301.195312 470.238281 301.847656 469.902344 C 303.195312 469.292969 304.332031 468.449219 305.257812 467.398438 L 305.300781 467.417969 C 305.363281 467.332031 305.425781 467.207031 305.511719 467.121094 C 305.785156 466.847656 306.101562 466.449219 306.457031 465.878906 C 307.996094 463.460938 311.175781 462.679688 313.660156 464.089844 C 315.386719 465.058594 317.113281 465.542969 318.925781 465.542969 C 324.863281 465.542969 329.707031 460.699219 329.707031 454.761719 C 329.707031 448.824219 324.863281 443.980469 318.925781 443.980469 C 318.105469 443.980469 317.410156 444.042969 316.863281 444.191406 C 316.777344 444.210938 316.714844 444.210938 316.652344 444.210938 L 316.652344 444.234375 C 313.851562 444.824219 311.367188 446.570312 309.847656 448.992188 C 308.3125 451.457031 305.109375 452.257812 302.625 450.824219 C 295.253906 446.632812 286.578125 452.382812 286.578125 460.152344 C 286.578125 463.226562 287.945312 466.175781 290.347656 468.28125 C 291.675781 469.4375 292.347656 471.164062 292.160156 472.914062 C 291.96875 474.660156 290.9375 476.21875 289.378906 477.0625 Z M 308.144531 497.886719 L 389.015625 497.886719 L 389.015625 476.324219 L 311.472656 476.324219 C 310.734375 476.976562 309.953125 477.566406 309.132812 478.09375 C 308.5 482.980469 308.144531 487.738281 308.144531 492.496094 Z M 308.144531 530.230469 L 437.535156 530.230469 L 437.535156 508.667969 L 308.144531 508.667969 Z M 448.320312 530.230469 L 464.492188 530.230469 L 464.492188 508.667969 L 448.320312 508.667969 Z M 469.882812 476.324219 L 399.796875 476.324219 L 399.796875 497.886719 L 464.492188 497.886719 C 464.492188 490.03125 466.640625 482.683594 470.328125 476.324219 Z M 475.277344 465.542969 L 479.191406 465.542969 C 486.796875 458.867188 496.714844 454.761719 507.625 454.761719 L 528.03125 454.761719 C 526.726562 451.097656 525.3125 447.496094 523.648438 443.980469 L 475.277344 443.980469 Z M 475.277344 530.230469 L 513.015625 530.230469 L 513.015625 497.886719 C 513.015625 485 518.722656 473.460938 527.714844 465.542969 L 507.625 465.542969 C 489.785156 465.542969 475.277344 480.050781 475.277344 497.886719 Z M 523.796875 530.230469 L 534.582031 530.230469 L 534.582031 497.886719 C 534.582031 485.988281 544.246094 476.324219 556.144531 476.324219 C 568.042969 476.324219 577.710938 485.988281 577.710938 497.886719 L 577.710938 530.230469 L 588.492188 530.230469 L 588.492188 497.886719 C 588.492188 480.050781 573.984375 465.542969 556.144531 465.542969 C 538.308594 465.542969 523.796875 480.050781 523.796875 497.886719 Z M 545.363281 530.230469 L 566.929688 530.230469 L 566.929688 497.886719 C 566.929688 491.949219 562.085938 487.105469 556.144531 487.105469 C 550.207031 487.105469 545.363281 491.949219 545.363281 497.886719 Z M 520.027344 414.332031 C 522.472656 412.226562 523.796875 409.363281 523.796875 406.246094 C 523.796875 400.308594 518.953125 395.464844 513.015625 395.464844 C 511.226562 395.464844 509.457031 395.949219 507.75 396.917969 C 505.242188 398.328125 502.0625 397.550781 500.527344 395.109375 C 498.527344 391.949219 495.136719 390.074219 491.449219 390.074219 C 485.511719 390.074219 480.667969 394.917969 480.667969 400.855469 C 480.667969 406.792969 485.511719 411.636719 491.449219 411.636719 C 493.238281 411.636719 495.007812 411.152344 496.714844 410.183594 C 499.21875 408.773438 502.402344 409.554688 503.9375 411.996094 C 505.453125 414.394531 507.8125 416.082031 510.570312 416.710938 C 512.277344 417.113281 513.6875 418.3125 514.363281 419.933594 C 515.015625 421.578125 514.847656 423.410156 513.898438 424.882812 C 513.308594 425.789062 513.015625 426.777344 513.015625 427.808594 C 513.015625 430.777344 515.4375 433.199219 518.40625 433.199219 C 521.375 433.199219 523.796875 430.777344 523.796875 427.808594 C 523.796875 425.894531 522.703125 424.082031 520.976562 423.113281 C 519.4375 422.269531 518.40625 420.714844 518.214844 418.964844 C 518.027344 417.21875 518.699219 415.492188 520.027344 414.332031 Z M 472.875 411.636719 L 410.578125 411.636719 L 410.578125 433.199219 L 503.222656 433.199219 C 502.632812 431.496094 502.230469 429.703125 502.230469 427.808594 C 502.230469 426.882812 502.316406 425.957031 502.464844 425.03125 C 500.738281 424.0625 499.15625 422.859375 497.746094 421.449219 C 495.703125 422.101562 493.597656 422.417969 491.449219 422.417969 C 483.511719 422.417969 476.625 418.058594 472.875 411.636719 Z M 442.925781 381.484375 L 442.925781 400.855469 L 469.882812 400.855469 C 469.882812 397.488281 470.726562 394.328125 472.117188 391.484375 C 462.871094 386.832031 453.121094 383.421875 442.925781 381.484375 Z M 432.144531 379.90625 C 428.226562 379.484375 424.730469 379.292969 421.363281 379.292969 C 397.269531 379.292969 374.167969 386.875 354.917969 400.855469 L 432.144531 400.855469 Z M 436.335938 456.761719 C 435.304688 455.5 433.765625 454.761719 432.144531 454.761719 C 431.113281 454.761719 430.121094 455.058594 429.21875 455.648438 C 427.742188 456.59375 425.890625 456.761719 424.269531 456.109375 C 422.648438 455.457031 421.445312 454.027344 421.046875 452.320312 C 419.910156 447.414062 415.613281 443.980469 410.578125 443.980469 C 405.546875 443.980469 401.25 447.414062 400.113281 452.320312 C 399.710938 454.027344 398.511719 455.457031 396.890625 456.109375 C 395.246094 456.761719 393.414062 456.59375 391.941406 455.648438 C 389.625 454.152344 386.527344 454.679688 384.824219 456.761719 C 384.210938 457.5 383.285156 459.078125 383.75 461.375 C 384.105469 463.039062 386.382812 465.542969 389.015625 465.542969 L 432.144531 465.542969 C 434.777344 465.542969 437.050781 463.039062 437.410156 461.375 C 437.871094 459.078125 436.945312 457.5 436.335938 456.761719 Z M 447.960938 463.5625 C 447.835938 464.21875 447.601562 464.890625 447.351562 465.542969 L 464.492188 465.542969 L 464.492188 443.980469 L 432.144531 443.980469 L 432.144531 444.109375 C 436.925781 444.128906 441.621094 446.171875 444.695312 449.941406 C 447.792969 453.75 448.972656 458.699219 447.960938 463.5625 Z M 337.605469 465.542969 L 373.808594 465.542969 C 373.554688 464.890625 373.324219 464.21875 373.199219 463.5625 C 372.1875 458.699219 373.367188 453.75 376.460938 449.941406 C 379.535156 446.171875 384.234375 444.128906 389.015625 444.109375 L 389.015625 443.980469 L 337.605469 443.980469 C 339.4375 447.160156 340.492188 450.847656 340.492188 454.761719 C 340.492188 458.679688 339.4375 462.363281 337.605469 465.542969 Z M 324.929688 433.199219 L 399.796875 433.199219 L 399.796875 411.636719 L 342.175781 411.636719 C 335.542969 418.125 329.773438 425.34375 324.929688 433.199219 Z M 275.796875 460.152344 C 275.796875 448.253906 285.460938 438.589844 297.359375 438.589844 C 299.507812 438.589844 301.613281 438.90625 303.65625 439.558594 C 305.972656 437.242188 308.796875 435.496094 311.890625 434.421875 C 318.253906 422.460938 326.421875 411.636719 336.300781 402.332031 C 359.425781 380.515625 389.625 368.511719 421.363281 368.511719 C 426.523438 368.511719 431.890625 368.914062 438.273438 369.796875 C 438.292969 369.796875 466.492188 376.304688 479.277344 383.085938 C 482.75 380.703125 486.921875 379.292969 491.449219 379.292969 C 497.261719 379.292969 502.714844 381.609375 506.71875 385.652344 C 508.761719 385 510.867188 384.683594 513.015625 384.683594 C 524.914062 384.683594 534.582031 394.347656 534.582031 406.246094 C 534.582031 410.394531 533.359375 414.417969 531.105469 417.871094 C 533.316406 420.671875 534.582031 424.144531 534.582031 427.808594 C 534.582031 431.03125 533.613281 434.019531 531.988281 436.527344 C 534.9375 442.382812 537.339844 448.507812 539.339844 454.761719 L 556.144531 454.761719 C 579.921875 454.761719 599.277344 474.113281 599.277344 497.886719 L 599.277344 541.011719 L 302.753906 541.011719 C 299.78125 541.011719 297.359375 538.589844 297.359375 535.621094 L 297.359375 496.898438 C 295.65625 497.488281 293.863281 497.886719 291.96875 497.886719 C 283.039062 497.886719 275.796875 490.644531 275.796875 481.714844 C 275.796875 478.050781 277.039062 474.578125 279.25 471.777344 C 277.015625 468.34375 275.796875 464.300781 275.796875 460.152344 " fill-opacity="1" fill-rule="nonzero"/></g><g fill="rgb(8.239746%, 43.919373%, 55.288696%)" fill-opacity="1"><g transform="translate(210.457829, 542.554212)"><g><path d="M 55.855469 0 L 55.855469 -261.941406 L 28.890625 -261.941406 L 28.890625 0 Z M 55.855469 0 "/></g></g></g><g fill="rgb(35.688782%, 79.60968%, 59.609985%)" fill-opacity="1"><g transform="translate(305.73913, 540.005618)"><g><path d="M 56.210938 -227.917969 C 52.746094 -231 48.507812 -232.921875 43.890625 -232.921875 C 39.269531 -232.921875 35.035156 -231 31.953125 -227.917969 C 28.488281 -224.453125 26.949219 -220.21875 26.949219 -215.597656 C 26.949219 -210.980469 28.488281 -206.742188 31.953125 -203.664062 C 35.035156 -200.199219 39.269531 -198.660156 43.890625 -198.660156 C 48.507812 -198.660156 52.746094 -200.199219 56.210938 -203.664062 C 59.289062 -206.742188 61.214844 -210.980469 61.214844 -215.597656 C 61.214844 -220.21875 59.289062 -224.453125 56.210938 -227.917969 Z M 57.75 0 L 57.75 -169.398438 L 30.800781 -169.398438 L 30.800781 0 Z M 57.75 0 "/></g></g></g></svg>