<svg xmlns="http://www.w3.org/2000/svg" xmlns:xlink="http://www.w3.org/1999/xlink" width="1080" zoomAndPan="magnify" viewBox="0 0 810 809.999993" height="1080" preserveAspectRatio="xMidYMid meet" version="1.0"><defs><g/></defs><rect x="-81" width="972" fill="rgb(100%, 100%, 100%)" y="-80.999999" height="971.999992" fill-opacity="1"/><rect x="-81" width="972" fill="rgb(100%, 100%, 100%)" y="-80.999999" height="971.999992" fill-opacity="1"/><g fill="rgb(63.139343%, 60.389709%, 18.429565%)" fill-opacity="1"><g transform="translate(192.88473, 539.984054)"><g><path d="M 55.855469 0 L 55.855469 -122.882812 L 144.066406 0 L 178.734375 0 L 82.433594 -130.96875 L 178.734375 -261.941406 L 144.066406 -261.941406 L 55.855469 -138.675781 L 55.855469 -261.941406 L 28.890625 -261.941406 L 28.890625 0 Z M 55.855469 0 "/></g></g></g><g fill="rgb(56.469727%, 36.859131%, 21.179199%)" fill-opacity="1"><g transform="translate(364.685611, 540.00468)"><g><path d="M 55.824219 0 L 55.824219 -81.234375 L 122.429688 0 L 158.234375 0 L 83.929688 -87.394531 L 153.613281 -169.785156 L 117.808594 -169.785156 L 55.824219 -93.167969 L 55.824219 -288.75 L 28.875 -288.75 L 28.875 0 Z M 55.824219 0 "/></g></g></g><path fill="rgb(53.729248%, 30.589294%, 14.898682%)" d="M 580.574219 431.382812 C 602.199219 441.769531 617.328125 459.804688 612.367188 482.925781 C 612.359375 482.9375 609.878906 495.398438 609.875 495.421875 C 605.207031 518.835938 582.050781 529.863281 560.390625 529.898438 C 537.664062 529.933594 509.988281 525.347656 492.597656 508.832031 C 476.496094 493.535156 472.242188 469.164062 482.699219 449.128906 C 493.769531 427.929688 517.800781 419.566406 540.597656 421.546875 C 553.398438 422.660156 568.929688 425.789062 580.574219 431.382812 Z M 580.574219 431.382812 " fill-opacity="1" fill-rule="nonzero"/><path fill="rgb(48.239136%, 24.708557%, 8.628845%)" d="M 603.753906 475.265625 C 599.289062 497.679688 577.117188 508.238281 556.382812 508.273438 C 534.621094 508.304688 508.125 503.914062 491.476562 488.101562 C 487.300781 484.136719 483.988281 479.523438 481.53125 474.535156 C 482.734375 485.332031 487.621094 495.644531 495.816406 503.433594 C 512.09375 518.886719 537.992188 523.179688 559.257812 523.148438 C 579.523438 523.117188 601.191406 512.792969 605.5625 490.886719 C 605.566406 490.867188 607.890625 479.203125 607.894531 479.195312 C 609.425781 472.054688 603.761719 475.246094 603.753906 475.265625 Z M 603.753906 475.265625 " fill-opacity="1" fill-rule="nonzero"/><path fill="rgb(21.958923%, 4.708862%, 0%)" d="M 598.695312 507.230469 C 591.253906 516.796875 580.71875 523.34375 568.664062 525.507812 C 555.046875 527.953125 540.757812 527.222656 527.242188 524.398438 C 514.21875 521.675781 501.515625 516.582031 491.390625 507.808594 C 481.824219 499.523438 475.367188 487.601562 474.613281 474.917969 C 474.46875 472.402344 474.566406 469.957031 474.742188 467.445312 C 477.234375 478.703125 481.726562 490.101562 490.765625 497.828125 C 499.964844 507.027344 513.550781 512.257812 526.011719 515.148438 C 538.945312 518.328125 552.898438 520.074219 566.21875 519.332031 C 572.292969 518.835938 577.957031 517.5625 583.742188 515.683594 C 589.277344 513.882812 594.039062 510.597656 598.695312 507.230469 Z M 598.695312 507.230469 " fill-opacity="1" fill-rule="nonzero"/><path fill="rgb(21.958923%, 4.708862%, 0%)" d="M 521.019531 417.054688 C 539.773438 412.476562 560.6875 415.207031 578.292969 422.941406 C 595.347656 430.4375 611.082031 445.648438 610.800781 465.316406 C 608.226562 456.582031 603.917969 449.054688 597.164062 442.808594 C 591.0625 437.160156 583.722656 432.367188 576.042969 429.109375 C 566.996094 425.265625 557.683594 422.535156 548.074219 420.4375 C 542.761719 419.28125 537.445312 418.484375 532.066406 417.753906 C 528.402344 417.257812 524.703125 417.324219 521.019531 417.054688 Z M 521.019531 417.054688 " fill-opacity="1" fill-rule="nonzero"/><path fill="rgb(33.729553%, 14.509583%, 0%)" d="M 601.746094 485.082031 C 602.496094 479.292969 605.648438 473.757812 610.191406 474.230469 C 614.039062 474.628906 616.617188 480.152344 615.945312 486.5625 C 615.273438 492.972656 611.613281 497.851562 607.761719 497.449219 C 602.664062 496.921875 601.003906 490.871094 601.746094 485.082031 Z M 601.746094 485.082031 " fill-opacity="1" fill-rule="nonzero"/><path fill="rgb(21.958923%, 4.708862%, 0%)" d="M 606.507812 485.578125 C 607.003906 481.730469 609.097656 478.046875 612.121094 478.363281 C 614.679688 478.628906 616.390625 482.300781 615.945312 486.5625 C 615.5 490.824219 613.0625 494.066406 610.503906 493.800781 C 607.117188 493.449219 606.011719 489.425781 606.507812 485.578125 Z M 606.507812 485.578125 " fill-opacity="1" fill-rule="nonzero"/><path fill="rgb(62.348938%, 39.99939%, 22.349548%)" d="M 541.722656 432.832031 C 553.574219 433.839844 567.96875 436.585938 578.753906 441.535156 C 587.03125 445.332031 594.277344 450.289062 599.609375 456.238281 C 595.519531 445.894531 585.8125 437.628906 573.679688 432.058594 C 563.703125 427.484375 550.394531 424.921875 539.425781 424.011719 C 519.894531 422.390625 499.300781 429.234375 489.816406 446.585938 C 489.816406 446.585938 511.300781 430.238281 541.722656 432.832031 Z M 541.722656 432.832031 " fill-opacity="1" fill-rule="nonzero"/><path fill="rgb(21.958923%, 4.708862%, 0%)" d="M 613.035156 490.429688 C 612.515625 493.441406 610.796875 496.546875 607.632812 497.390625 C 603.449219 498.507812 599.847656 495.070312 598.632812 491.386719 C 597.195312 487.027344 597.859375 481.921875 599.964844 477.882812 C 600.917969 476.058594 602.296875 474.265625 604.125 473.238281 C 604.402344 473.078125 608.753906 471.789062 608.675781 472.71875 C 602.875 473.886719 601.921875 482.515625 602.296875 487.257812 C 602.511719 490.007812 603.347656 493.597656 606.472656 494.3125 C 609.121094 494.972656 611.527344 492.183594 613.035156 490.429688 Z M 613.035156 490.429688 " fill-opacity="1" fill-rule="nonzero"/><path fill="rgb(53.729248%, 30.589294%, 14.898682%)" d="M 474.003906 525.085938 C 467.046875 526.136719 462.597656 530.710938 458.671875 534.738281 C 460.996094 539.925781 463.578125 544.90625 466.179688 549.347656 C 478.132812 569.75 499.621094 585.023438 524.273438 581.699219 C 547.574219 578.550781 565.761719 560.410156 569.140625 537.703125 C 571.285156 523.257812 567.761719 508.300781 561.738281 494.511719 C 543.101562 498.417969 524.839844 508.84375 509.304688 519.746094 C 498.667969 524.433594 485.953125 522.25 474.003906 525.085938 Z M 474.003906 525.085938 " fill-opacity="1" fill-rule="nonzero"/><path fill="rgb(59.999084%, 79.219055%, 12.548828%)" d="M 501.011719 488.8125 C 528.566406 478.128906 555.917969 482.308594 562.097656 498.144531 C 568.28125 513.980469 550.953125 535.480469 523.394531 546.160156 C 495.839844 556.84375 468.488281 552.664062 462.308594 536.828125 C 456.125 520.992188 473.449219 499.496094 501.011719 488.8125 Z M 501.011719 488.8125 " fill-opacity="1" fill-rule="nonzero"/><path fill="rgb(49.798584%, 64.309692%, 3.138733%)" d="M 501.074219 499.59375 C 497.855469 500.976562 495.121094 502.535156 493.253906 504.085938 C 486.796875 509.445312 479.796875 520.28125 486.375 528.136719 C 494.257812 537.554688 508.195312 532.667969 517.714844 527.378906 C 525.730469 522.925781 536.351562 516.714844 536.71875 507.023438 C 537.417969 488.441406 515.582031 493.363281 501.074219 499.59375 Z M 501.074219 499.59375 " fill-opacity="1" fill-rule="nonzero"/><path fill="rgb(87.059021%, 85.488892%, 59.999084%)" d="M 513.714844 503.292969 C 508.367188 504.03125 500.722656 507.5 496.960938 511.679688 C 493.765625 515.222656 494.410156 520.550781 499.34375 521.730469 C 504.289062 522.910156 511.097656 520.238281 515.605469 518.261719 C 518.917969 516.808594 522.453125 512.585938 522.820312 508.988281 C 523.222656 505.003906 518.984375 502.566406 513.714844 503.292969 Z M 513.714844 503.292969 " fill-opacity="1" fill-rule="nonzero"/><path fill="rgb(43.919373%, 58.428955%, 0%)" d="M 554.683594 485.28125 C 544.214844 477.296875 529.535156 476.917969 517.058594 479.207031 C 506.785156 481.089844 497.601562 485.242188 488.523438 490.230469 C 500.039062 486.089844 511.320312 482.480469 523.707031 482.28125 C 531.101562 482.164062 538.660156 483.070312 545.433594 486.164062 C 550.292969 488.039062 553.699219 491.898438 555.941406 496.40625 C 558.113281 504.554688 555.277344 512.101562 550.054688 518.648438 C 541.976562 528.78125 530.601562 535.90625 518.691406 540.769531 C 506.40625 545.351562 493.109375 548.535156 479.929688 546.5 C 468.859375 544.789062 458.917969 538.753906 457.78125 526.820312 C 456.796875 545.570312 477.769531 551.75 493.074219 551.59375 C 511.339844 551.410156 529.882812 544.675781 544.25 533.496094 C 553.257812 526.492188 562.59375 515.925781 563.105469 503.933594 C 563.410156 496.65625 560.597656 489.792969 554.683594 485.28125 Z M 554.683594 485.28125 " fill-opacity="1" fill-rule="nonzero"/><path fill="rgb(21.958923%, 4.708862%, 0%)" d="M 493.386719 500.734375 C 491.957031 499.234375 492.605469 498.578125 493.4375 497.816406 C 494.292969 497.089844 495.015625 496.53125 496.347656 498.125 C 497.671875 499.726562 499.183594 502.804688 498.433594 503.441406 C 497.714844 504.101562 494.828125 502.234375 493.386719 500.734375 Z M 493.386719 500.734375 " fill-opacity="1" fill-rule="nonzero"/><path fill="rgb(21.958923%, 4.708862%, 0%)" d="M 486.796875 505.09375 C 485.375 503.585938 486.078125 502.890625 486.980469 502.128906 C 487.894531 501.414062 488.667969 500.867188 489.902344 502.535156 C 491.128906 504.207031 492.5 507.363281 491.761719 507.933594 C 491.074219 508.515625 488.242188 506.589844 486.796875 505.09375 Z M 486.796875 505.09375 " fill-opacity="1" fill-rule="nonzero"/><path fill="rgb(21.958923%, 4.708862%, 0%)" d="M 482.207031 512.089844 C 480.199219 511.472656 480.566406 510.382812 481.148438 509.128906 C 481.816406 507.902344 482.480469 506.984375 484.179688 508.234375 C 485.03125 508.84375 485.964844 509.800781 486.734375 510.652344 C 487.5 511.515625 488.0625 512.214844 487.875 512.523438 C 487.710938 512.84375 486.847656 512.828125 485.695312 512.71875 C 484.550781 512.601562 483.1875 512.40625 482.207031 512.089844 Z M 482.207031 512.089844 " fill-opacity="1" fill-rule="nonzero"/><path fill="rgb(21.958923%, 4.708862%, 0%)" d="M 480.257812 520.703125 C 478.265625 521.175781 477.902344 520.144531 477.808594 518.820312 C 477.644531 517.503906 477.78125 516.382812 479.84375 516.472656 C 481.933594 516.617188 485.199219 517.367188 485.3125 518.070312 C 485.332031 518.777344 482.304688 520.175781 480.257812 520.703125 Z M 480.257812 520.703125 " fill-opacity="1" fill-rule="nonzero"/><path fill="rgb(21.958923%, 4.708862%, 0%)" d="M 485.199219 526.699219 C 483.617188 528.0625 482.867188 527.261719 482.148438 526.160156 C 481.425781 525.0625 481.003906 524.058594 482.859375 523.167969 C 484.765625 522.296875 488.050781 521.441406 488.453125 522.042969 C 488.691406 522.363281 488.199219 523.160156 487.535156 524.078125 C 486.875 524.980469 485.992188 526.027344 485.199219 526.699219 Z M 485.199219 526.699219 " fill-opacity="1" fill-rule="nonzero"/><path fill="rgb(21.958923%, 4.708862%, 0%)" d="M 490.410156 531.976562 C 489.808594 533.992188 488.710938 533.625 487.457031 533.066406 C 486.238281 532.429688 485.3125 531.785156 486.53125 530.070312 C 487.125 529.210938 488.070312 528.253906 488.910156 527.480469 C 489.761719 526.707031 490.464844 526.140625 490.789062 526.328125 C 491.121094 526.488281 491.105469 527.351562 491.011719 528.5 C 490.90625 529.640625 490.722656 531 490.410156 531.976562 Z M 490.410156 531.976562 " fill-opacity="1" fill-rule="nonzero"/><path fill="rgb(21.958923%, 4.708862%, 0%)" d="M 499.996094 532.222656 C 500.558594 534.1875 499.640625 534.59375 498.398438 534.796875 C 497.136719 534.976562 496.097656 535.066406 495.925781 533.003906 C 495.789062 530.933594 496.191406 527.515625 496.976562 527.421875 C 497.777344 527.308594 499.398438 530.207031 499.996094 532.222656 Z M 499.996094 532.222656 " fill-opacity="1" fill-rule="nonzero"/><path fill="rgb(21.958923%, 4.708862%, 0%)" d="M 508.890625 530.753906 C 509.589844 532.707031 508.695312 533.039062 507.585938 533.394531 C 506.496094 533.789062 505.476562 533.875 505.027344 531.882812 C 504.578125 529.824219 504.5625 526.523438 505.4375 526.199219 C 506.316406 525.90625 508.175781 528.804688 508.890625 530.753906 Z M 508.890625 530.753906 " fill-opacity="1" fill-rule="nonzero"/><path fill="rgb(21.958923%, 4.708862%, 0%)" d="M 516.429688 529.871094 C 516.632812 531.941406 515.726562 532.0625 514.597656 532.121094 C 513.46875 532.191406 512.550781 532.214844 512.480469 530.132812 C 512.425781 528.070312 513.128906 524.6875 514.105469 524.628906 C 515.082031 524.578125 516.222656 527.816406 516.429688 529.871094 Z M 516.429688 529.871094 " fill-opacity="1" fill-rule="nonzero"/><path fill="rgb(21.958923%, 4.708862%, 0%)" d="M 524.414062 524.566406 C 525.492188 526.335938 524.738281 526.835938 523.792969 527.386719 C 522.839844 527.929688 522.054688 528.332031 521.035156 526.519531 C 520.019531 524.714844 519.121094 521.398438 520.011719 520.886719 C 520.894531 520.378906 523.328125 522.792969 524.414062 524.566406 Z M 524.414062 524.566406 " fill-opacity="1" fill-rule="nonzero"/><path fill="rgb(21.958923%, 4.708862%, 0%)" d="M 530.773438 519.390625 C 532.71875 520.105469 532.421875 521.007812 531.980469 522.066406 C 531.519531 523.113281 531.109375 523.945312 529.21875 523.054688 C 527.347656 522.160156 524.652344 520.007812 525.042969 519.132812 C 525.402344 518.261719 528.808594 518.6875 530.773438 519.390625 Z M 530.773438 519.390625 " fill-opacity="1" fill-rule="nonzero"/><path fill="rgb(21.958923%, 4.708862%, 0%)" d="M 535.160156 514.371094 C 536.945312 515.484375 536.378906 516.34375 535.652344 517.359375 C 534.875 518.304688 534.199219 519.046875 532.65625 517.648438 C 531.140625 516.238281 529.128906 513.433594 529.671875 512.78125 C 530.128906 512.117188 533.390625 513.324219 535.160156 514.371094 Z M 535.160156 514.371094 " fill-opacity="1" fill-rule="nonzero"/><path fill="rgb(21.958923%, 4.708862%, 0%)" d="M 539.714844 506.34375 C 541.78125 506.195312 541.957031 507.316406 541.804688 508.667969 C 541.75 510.035156 541.359375 511.078125 539.371094 510.613281 C 537.320312 510.09375 534.304688 508.71875 534.292969 508.046875 C 534.394531 507.386719 537.636719 506.546875 539.714844 506.34375 Z M 539.714844 506.34375 " fill-opacity="1" fill-rule="nonzero"/><path fill="rgb(21.958923%, 4.708862%, 0%)" d="M 536.738281 499.53125 C 538.671875 498.746094 539.21875 499.816406 539.417969 501.117188 C 539.710938 502.425781 539.859375 503.5 537.738281 503.683594 C 535.710938 503.824219 532.230469 503.492188 532.082031 502.816406 C 531.984375 502.445312 532.78125 501.84375 533.6875 501.234375 C 534.605469 500.625 535.773438 499.914062 536.738281 499.53125 Z M 536.738281 499.53125 " fill-opacity="1" fill-rule="nonzero"/><path fill="rgb(21.958923%, 4.708862%, 0%)" d="M 532.765625 492.40625 C 533.632812 490.582031 534.765625 490.917969 535.914062 491.824219 C 537.066406 492.75 537.960938 493.578125 536.359375 495 C 535.59375 495.699219 534.457031 496.417969 533.460938 497.042969 C 532.46875 497.640625 531.703125 498.101562 531.464844 497.886719 C 531.261719 497.640625 531.375 496.84375 531.648438 495.746094 C 531.921875 494.660156 532.308594 493.339844 532.765625 492.40625 Z M 532.765625 492.40625 " fill-opacity="1" fill-rule="nonzero"/><path fill="rgb(21.958923%, 4.708862%, 0%)" d="M 523.5 491.964844 C 523.878906 489.929688 524.871094 490.074219 526.074219 490.359375 C 527.285156 490.753906 528.265625 491.140625 527.5 493.066406 C 526.695312 494.976562 524.8125 497.863281 524.078125 497.601562 C 523.261719 497.421875 523.148438 494.011719 523.5 491.964844 Z M 523.5 491.964844 " fill-opacity="1" fill-rule="nonzero"/><path fill="rgb(21.958923%, 4.708862%, 0%)" d="M 515.8125 490.492188 C 516.242188 488.46875 517.164062 488.578125 518.289062 488.90625 C 519.414062 489.207031 520.320312 489.496094 519.695312 491.472656 C 519.054688 493.445312 517.300781 496.421875 516.402344 496.175781 C 515.511719 495.910156 515.398438 492.527344 515.8125 490.492188 Z M 515.8125 490.492188 " fill-opacity="1" fill-rule="nonzero"/><path fill="rgb(21.958923%, 4.708862%, 0%)" d="M 508.253906 494.878906 C 507.535156 492.933594 508.386719 492.589844 509.449219 492.21875 C 510.527344 491.871094 511.433594 491.664062 512.011719 493.644531 C 512.585938 495.648438 512.746094 499.046875 511.816406 499.347656 C 510.890625 499.675781 508.980469 496.824219 508.253906 494.878906 Z M 508.253906 494.878906 " fill-opacity="1" fill-rule="nonzero"/><path fill="rgb(21.958923%, 4.708862%, 0%)" d="M 501.632812 496.898438 C 501.335938 494.847656 502.238281 494.703125 503.347656 494.574219 C 504.460938 494.429688 505.378906 494.394531 505.550781 496.46875 C 505.710938 498.527344 505.183594 501.90625 504.199219 502.039062 C 503.210938 502.152344 501.929688 498.949219 501.632812 496.898438 Z M 501.632812 496.898438 " fill-opacity="1" fill-rule="nonzero"/><path fill="rgb(74.508667%, 91.758728%, 20.779419%)" d="M 472.410156 512.59375 C 472.410156 512.59375 464.796875 540.613281 487.910156 542.53125 C 487.910156 542.53125 465.023438 546.640625 464.300781 528.386719 C 464.300781 528.386719 464.574219 517.488281 472.410156 512.59375 Z M 472.410156 512.59375 " fill-opacity="1" fill-rule="nonzero"/><path fill="rgb(72.549438%, 70.199585%, 44.709778%)" d="M 494.785156 512.46875 C 493.015625 516.273438 498.332031 518.210938 500.847656 518.199219 C 506.222656 518.175781 520.367188 514.105469 520.367188 506.691406 C 520.367188 506.789062 520.363281 506.890625 520.359375 506.992188 C 520.550781 500.652344 511.390625 502.273438 507.390625 502.734375 C 512.335938 499.945312 519.164062 497.921875 523.289062 503.195312 C 525.613281 506.570312 523.429688 511.269531 521.21875 513.976562 C 517.171875 518.933594 509.605469 521.132812 503.414062 521.460938 C 498.261719 521.730469 491.984375 518.484375 494.785156 512.46875 Z M 494.785156 512.46875 " fill-opacity="1" fill-rule="nonzero"/><path fill="rgb(48.239136%, 24.708557%, 8.628845%)" d="M 515.417969 567.003906 C 499.515625 569.148438 484.816406 564.304688 472.664062 555.457031 C 484.441406 569.46875 501.519531 578.683594 520.613281 576.109375 C 542.667969 573.128906 559.882812 555.957031 563.082031 534.46875 C 563.523438 531.488281 563.699219 528.476562 563.660156 525.46875 C 557.421875 547.183594 538.742188 563.855469 515.417969 567.003906 Z M 515.417969 567.003906 " fill-opacity="1" fill-rule="nonzero"/><path fill="rgb(21.958923%, 4.708862%, 0%)" d="M 563.871094 507.039062 C 564.046875 514.847656 563.847656 523.011719 562.25 530.375 C 558.066406 549.652344 542.816406 565.199219 524.019531 570.730469 C 512.941406 573.988281 501.082031 573.234375 490.320312 569.191406 C 480.808594 565.617188 472.757812 559.683594 465.152344 553.09375 C 469.457031 559.804688 474.714844 565.921875 481.300781 570.523438 C 492.222656 578.152344 505.265625 582.046875 518.621094 580.488281 C 529.316406 579.242188 539.445312 574.960938 547.773438 568.132812 C 557.605469 560.070312 564.640625 548.273438 566.621094 535.703125 C 568.160156 525.957031 566.835938 516.394531 563.871094 507.039062 Z M 563.871094 507.039062 " fill-opacity="1" fill-rule="nonzero"/></svg>