<svg xmlns="http://www.w3.org/2000/svg" xmlns:xlink="http://www.w3.org/1999/xlink" width="1080" zoomAndPan="magnify" viewBox="0 0 810 809.999993" height="1080" preserveAspectRatio="xMidYMid meet" version="1.0"><defs><g/></defs><rect x="-81" width="972" fill="rgb(100%, 100%, 100%)" y="-80.999999" height="971.999992" fill-opacity="1"/><rect x="-81" width="972" fill="rgb(100%, 100%, 100%)" y="-80.999999" height="971.999992" fill-opacity="1"/><g fill="rgb(100%, 47.059631%, 0.779724%)" fill-opacity="1"><g transform="translate(164.412754, 539.984054)"><g><path d="M 55.855469 -26.964844 L 55.855469 -261.941406 L 28.890625 -261.941406 L 28.890625 0 L 149.460938 0 L 149.460938 -26.964844 Z M 55.855469 -26.964844 "/></g></g></g><g fill="rgb(0%, 0%, 0%)" fill-opacity="1"><g transform="translate(319.985935, 540.00468)"><g><path d="M 55.824219 0 L 55.824219 -288.75 L 28.875 -288.75 L 28.875 0 Z M 55.824219 0 "/></g></g></g><path fill="rgb(93.728638%, 18.429565%, 30.589294%)" d="M 591.917969 342.042969 C 589.371094 344.585938 585.253906 344.585938 582.707031 342.050781 L 561.824219 321.234375 C 559.277344 318.699219 559.265625 314.574219 561.8125 312.03125 L 606.316406 267.460938 C 615.667969 258.109375 621.285156 263.710938 623.832031 266.25 L 637.800781 280.171875 C 640.347656 282.714844 645.761719 288.113281 636.433594 297.464844 L 591.917969 342.042969 " fill-opacity="1" fill-rule="nonzero"/><path fill="rgb(82.348633%, 49.409485%, 10.978699%)" d="M 424.707031 509.503906 L 394.589844 479.503906 L 586.269531 287.546875 L 616.375 317.546875 L 424.707031 509.503906 " fill-opacity="1" fill-rule="nonzero"/><path fill="rgb(97.24884%, 63.529968%, 16.079712%)" d="M 415.957031 500.792969 L 403.34375 488.226562 L 595.007812 296.265625 L 607.632812 308.835938 L 415.957031 500.792969 " fill-opacity="1" fill-rule="nonzero"/><path fill="rgb(98.429871%, 78.42865%, 65.098572%)" d="M 424.707031 509.503906 C 424.707031 509.503906 375.398438 541.875 368.859375 535.355469 C 362.3125 528.835938 394.589844 479.503906 394.589844 479.503906 L 424.707031 509.503906 " fill-opacity="1" fill-rule="nonzero"/><path fill="rgb(8.239746%, 10.198975%, 20.388794%)" d="M 378.765625 505.902344 C 371.726562 518.78125 365.660156 532.171875 368.859375 535.355469 C 372.054688 538.542969 385.445312 532.449219 398.3125 525.386719 L 378.765625 505.902344 " fill-opacity="1" fill-rule="nonzero"/><path fill="rgb(68.238831%, 83.529663%, 89.7995%)" d="M 591.917969 342.042969 L 561.8125 312.03125 L 586.269531 287.546875 L 616.375 317.546875 L 591.917969 342.042969 " fill-opacity="1" fill-rule="nonzero"/></svg>