<svg xmlns="http://www.w3.org/2000/svg" xmlns:xlink="http://www.w3.org/1999/xlink" width="1080" zoomAndPan="magnify" viewBox="0 0 810 809.999993" height="1080" preserveAspectRatio="xMidYMid meet" version="1.0"><defs><g/><clipPath id="id1"><path d="M 480 242 L 623 242 L 623 365.476562 L 480 365.476562 Z M 480 242 " clip-rule="nonzero"/></clipPath></defs><rect x="-81" width="972" fill="rgb(100%, 100%, 100%)" y="-80.999999" height="971.999992" fill-opacity="1"/><rect x="-81" width="972" fill="rgb(100%, 100%, 100%)" y="-80.999999" height="971.999992" fill-opacity="1"/><path fill="rgb(30.979919%, 3.529358%, 4.309082%)" d="M 536.347656 201.898438 C 536.347656 201.898438 536.550781 201.972656 536.933594 202.121094 C 542.527344 204.246094 546.039062 209.671875 547.945312 215.011719 C 550.335938 221.734375 551.882812 228.933594 552.417969 236.042969 C 552.84375 241.746094 552.96875 247.917969 551.898438 253.5625 C 551.75 254.351562 551.417969 256.953125 550.207031 256.796875 C 548.414062 256.566406 549.710938 252.523438 549.796875 251.625 C 550.0625 248.863281 549.929688 246.011719 549.566406 243.269531 C 548.789062 237.34375 546.972656 231.621094 544.992188 226.003906 C 543.332031 221.3125 541.339844 216.222656 537.410156 212.941406 C 535.039062 210.960938 534.042969 210.898438 534.042969 210.898438 C 534.15625 210.515625 536.4375 201.929688 536.347656 201.898438 " fill-opacity="1" fill-rule="nonzero"/><path fill="rgb(19.60907%, 1.568604%, 1.568604%)" d="M 538.457031 207.355469 C 539.160156 204.886719 538.460938 202.527344 536.886719 202.078125 C 535.316406 201.628906 533.464844 203.261719 532.757812 205.726562 C 532.050781 208.191406 532.753906 210.554688 534.324219 211.003906 C 535.898438 211.453125 537.746094 209.816406 538.457031 207.355469 " fill-opacity="1" fill-rule="nonzero"/><g clip-path="url(#id1)"><path fill="rgb(81.17981%, 11.759949%, 16.859436%)" d="M 621.703125 272.851562 C 625.316406 306.503906 614.910156 363.964844 570.257812 365.203125 C 561.460938 365.449219 558.277344 361.386719 551.21875 361.386719 C 544.421875 361.386719 541.378906 365.449219 532.730469 364.839844 C 492.324219 362 478.605469 305.378906 480.335938 273.25 C 482.34375 235.992188 530.539062 240.394531 551.21875 251.386719 C 577.523438 238.394531 617.773438 236.285156 621.703125 272.851562 " fill-opacity="1" fill-rule="nonzero"/></g><path fill="rgb(50.19989%, 80.389404%, 23.139954%)" d="M 595.175781 209.605469 C 596.570312 213.75 588.242188 223.660156 575.308594 227.992188 C 562.378906 232.324219 549.742188 229.441406 548.347656 225.300781 C 546.949219 221.15625 554.566406 209.121094 567.496094 204.789062 C 580.425781 200.457031 593.777344 205.464844 595.175781 209.605469 " fill-opacity="1" fill-rule="nonzero"/><g fill="rgb(81.17981%, 11.759949%, 16.859436%)" fill-opacity="1"><g transform="translate(107.304665, 539.984054)"><g><path d="M 270.414062 0 L 297.765625 0 L 236.902344 -279.277344 L 151 -55.085938 L 65.101562 -279.277344 L 3.851562 0 L 31.585938 0 L 72.035156 -186.441406 L 151 15.410156 L 229.582031 -186.441406 Z M 270.414062 0 "/></g></g></g><g fill="rgb(63.139343%, 60.389709%, 18.429565%)" fill-opacity="1"><g transform="translate(404.999983, 540.00468)"><g><path d="M 243.703125 -0.769531 L 270.652344 -0.769531 L 270.652344 -106.644531 C 270.652344 -125.507812 265.648438 -141.292969 256.410156 -153.613281 C 251.789062 -159.773438 245.628906 -164.394531 238.699219 -168.242188 C 231.382812 -172.09375 221.757812 -174.019531 210.207031 -174.019531 C 198.273438 -174.019531 187.878906 -170.554688 179.023438 -164.394531 C 170.9375 -158.234375 164.394531 -150.917969 159.003906 -141.679688 C 157.078125 -145.914062 154.769531 -149.765625 152.074219 -153.613281 C 147.453125 -159.773438 141.292969 -164.394531 134.363281 -168.242188 C 127.050781 -172.09375 117.425781 -174.019531 105.875 -174.019531 C 93.9375 -174.019531 83.542969 -170.554688 74.691406 -164.394531 C 66.988281 -158.617188 60.828125 -151.6875 55.824219 -142.835938 L 55.824219 -170.167969 L 28.875 -170.167969 L 28.875 -0.769531 L 55.824219 -0.769531 L 55.824219 -87.394531 C 56.980469 -100.871094 60.445312 -112.804688 66.21875 -122.429688 C 70.070312 -129.359375 75.84375 -135.519531 82.773438 -140.140625 C 89.703125 -144.757812 97.019531 -147.070312 105.105469 -147.070312 C 112.804688 -147.070312 118.964844 -145.527344 122.8125 -143.21875 C 133.59375 -136.289062 139.367188 -123.96875 139.367188 -106.644531 L 139.367188 -0.769531 L 166.320312 -0.769531 L 166.320312 -106.644531 C 166.320312 -108.570312 165.933594 -110.878906 165.933594 -112.804688 C 167.089844 -116.269531 168.628906 -119.347656 170.554688 -122.429688 C 174.402344 -129.359375 180.179688 -135.519531 187.109375 -140.140625 C 194.039062 -144.757812 201.355469 -147.070312 209.4375 -147.070312 C 217.136719 -147.070312 223.296875 -145.527344 227.148438 -143.21875 C 237.929688 -136.289062 243.703125 -123.96875 243.703125 -106.644531 Z M 243.703125 -0.769531 "/></g></g></g></svg>