<svg xmlns="http://www.w3.org/2000/svg" xmlns:xlink="http://www.w3.org/1999/xlink" width="1080" zoomAndPan="magnify" viewBox="0 0 810 809.999993" height="1080" preserveAspectRatio="xMidYMid meet" version="1.0"><defs><filter x="0%" y="0%" width="100%" xlink:type="simple" xlink:actuate="onLoad" height="100%" id="id1" xlink:show="other"><feColorMatrix values="0 0 0 0 1 0 0 0 0 1 0 0 0 0 1 0 0 0 1 0" color-interpolation-filters="sRGB"/></filter><g/><mask id="id2"><g filter="url(#id1)"><rect x="-81" width="972" fill="rgb(0%, 0%, 0%)" y="-80.999999" height="971.999992" fill-opacity="0.6"/></g></mask><clipPath id="id3"><path d="M 0.972656 11.253906 L 309.472656 11.253906 L 309.472656 315.925781 L 0.972656 315.925781 Z M 0.972656 11.253906 " clip-rule="nonzero"/></clipPath><clipPath id="id4"><path d="M 1.242188 25.300781 L 309.472656 25.300781 L 309.472656 315.925781 L 1.242188 315.925781 Z M 1.242188 25.300781 " clip-rule="nonzero"/></clipPath><clipPath id="id5"><path d="M 275 174 L 324.96875 174 L 324.96875 240 L 275 240 Z M 275 174 " clip-rule="nonzero"/></clipPath><clipPath id="id6"><rect x="0" width="326" y="0" height="317"/></clipPath></defs><rect x="-81" width="972" fill="rgb(100%, 100%, 100%)" y="-80.999999" height="971.999992" fill-opacity="1"/><rect x="-81" width="972" fill="rgb(100%, 100%, 100%)" y="-80.999999" height="971.999992" fill-opacity="1"/><g fill="rgb(56.469727%, 36.859131%, 21.179199%)" fill-opacity="1"><g transform="translate(191.061176, 534.480932)"><g><path d="M 55.855469 -192.988281 L 203.003906 16.179688 L 203.003906 -261.941406 L 176.039062 -261.941406 L 176.039062 -69.335938 L 28.890625 -278.503906 L 28.890625 0 L 55.855469 0 Z M 55.855469 -192.988281 "/></g></g></g><g mask="url(#id2)"><g transform="matrix(1, 0, 0, 1, 260, 239)"><g clip-path="url(#id6)"><path fill="rgb(52.938843%, 44.709778%, 40.779114%)" d="M 236.480469 20.515625 C 235.34375 11.113281 244.148438 0.167969 254.324219 3.488281 C 258.667969 4.90625 261.597656 9.183594 262.6875 13.464844 C 264.085938 18.949219 261.425781 23.671875 257.871094 27.65625 C 257.671875 27.96875 257.335938 28.179688 256.90625 28.144531 C 256.867188 28.140625 256.824219 28.132812 256.785156 28.128906 C 256.730469 28.117188 256.679688 28.105469 256.625 28.089844 C 256.613281 28.085938 256.601562 28.085938 256.589844 28.082031 C 250.203125 25.964844 243.820312 23.84375 237.4375 21.726562 C 236.847656 21.53125 236.554688 21.113281 236.480469 20.515625 " fill-opacity="1" fill-rule="nonzero"/><path fill="rgb(47.059631%, 39.608765%, 36.079407%)" d="M 252.019531 22.835938 C 255.144531 20.882812 256.136719 16.195312 254.070312 13.140625 C 253.089844 11.699219 251.386719 10.613281 249.660156 10.863281 C 248.316406 11.058594 247.195312 12.003906 246.363281 13.078125 C 244.644531 15.300781 243.878906 18.246094 244.304688 21.027344 L 252.019531 22.835938 " fill-opacity="1" fill-rule="nonzero"/><path fill="rgb(47.059631%, 39.608765%, 36.079407%)" d="M 252.65625 23.929688 C 257.015625 20.878906 258.066406 13.539062 253.058594 10.453125 C 246.609375 6.480469 242.46875 15.960938 243.042969 21.027344 C 243.101562 21.566406 243.386719 22.109375 243.96875 22.242188 C 246.539062 22.847656 249.109375 23.449219 251.683594 24.054688 C 253.265625 24.425781 253.9375 21.988281 252.355469 21.621094 C 249.78125 21.015625 247.210938 20.410156 244.640625 19.808594 C 244.949219 20.214844 245.257812 20.621094 245.566406 21.027344 C 245.226562 18.019531 247.277344 9.601562 251.914062 12.746094 C 255.042969 14.867188 254.183594 19.789062 251.382812 21.746094 C 250.058594 22.671875 251.320312 24.863281 252.65625 23.929688 " fill-opacity="1" fill-rule="nonzero"/><path fill="rgb(52.938843%, 44.709778%, 40.779114%)" d="M 134.179688 53.167969 C 138.171875 41.65625 151.085938 45.410156 158.351562 50.78125 C 158.589844 50.898438 158.78125 51.078125 158.890625 51.3125 C 158.902344 51.332031 158.910156 51.355469 158.917969 51.375 C 158.925781 51.390625 158.933594 51.40625 158.9375 51.421875 C 159.066406 51.738281 159.011719 52.078125 158.835938 52.367188 C 156.753906 57.957031 154.671875 63.542969 152.589844 69.132812 C 152.148438 70.324219 151.726562 72.722656 150.46875 73.386719 C 148.382812 74.488281 144.992188 71.652344 143.472656 70.601562 C 137.871094 66.734375 131.566406 60.703125 134.179688 53.167969 " fill-opacity="1" fill-rule="nonzero"/><path fill="rgb(47.059631%, 39.608765%, 36.079407%)" d="M 152.882812 56.347656 C 151.289062 54.597656 149.363281 52.980469 147.039062 52.546875 C 144.710938 52.109375 141.964844 53.238281 141.265625 55.5 C 140.847656 56.847656 141.214844 58.339844 141.925781 59.554688 C 142.640625 60.769531 143.667969 61.761719 144.6875 62.738281 C 145.632812 63.640625 146.597656 64.558594 147.78125 65.109375 C 148.964844 65.660156 150.429688 65.785156 151.539062 65.097656 L 152.882812 56.347656 " fill-opacity="1" fill-rule="nonzero"/><path fill="rgb(47.059631%, 39.608765%, 36.079407%)" d="M 153.835938 55.394531 C 150.8125 52.183594 145.863281 49.257812 141.765625 52.550781 C 137.164062 56.25 141.382812 61.65625 144.59375 64.496094 C 146.601562 66.269531 152.171875 68.855469 152.960938 64.667969 C 153.460938 62.035156 153.777344 59.355469 154.183594 56.707031 C 154.445312 55.003906 151.84375 54.273438 151.582031 55.988281 C 151.394531 57.203125 151.207031 58.421875 151.023438 59.636719 C 150.878906 60.582031 150.730469 61.527344 150.585938 62.472656 C 150.527344 62.863281 150.53125 64.214844 150.273438 64.519531 C 149.710938 65.191406 146.464844 62.558594 145.925781 62.050781 C 144.433594 60.652344 142.449219 58.972656 142.566406 56.746094 C 142.6875 54.445312 144.816406 53.519531 146.917969 53.925781 C 148.972656 54.324219 150.546875 55.835938 151.929688 57.304688 C 153.121094 58.570312 155.027344 56.65625 153.835938 55.394531 " fill-opacity="1" fill-rule="nonzero"/><g clip-path="url(#id3)"><path fill="rgb(60.389709%, 50.979614%, 46.269226%)" d="M 0.972656 254.230469 C 0.964844 254.0625 0.992188 253.914062 1.03125 253.78125 C 2.027344 246.980469 8.757812 244.695312 14.863281 244.296875 C 22.808594 243.78125 30.339844 246.734375 37.355469 250.171875 C 53.429688 258.050781 69.808594 266.5 88.105469 267.230469 C 97.929688 267.625 106.835938 264.867188 115.492188 260.34375 C 120 257.988281 124.796875 256.171875 129.203125 253.632812 C 134.507812 250.574219 139.527344 246.769531 144.121094 242.75 C 152.273438 235.613281 159.71875 226.800781 163.605469 216.566406 C 168.910156 202.601562 168.855469 187.074219 167.117188 172.433594 C 166.253906 165.144531 164.890625 157.914062 163.234375 150.765625 C 161.800781 144.5625 162.042969 136.082031 158.515625 130.722656 C 155.835938 126.660156 151.246094 123.980469 148.40625 119.890625 C 143.597656 112.957031 140.402344 104.316406 139.914062 95.886719 C 137.871094 60.757812 162.585938 23.953125 196.664062 14.34375 C 227.257812 5.714844 260.0625 16.445312 279.179688 41.9375 C 288.246094 54.027344 293.996094 69.347656 291.046875 84.554688 C 290.152344 89.195312 292.722656 94.898438 294.109375 99.378906 C 295.773438 104.75 298.132812 109.859375 300.300781 115.039062 C 303.351562 122.324219 305.746094 129.816406 307.242188 137.582031 C 312.949219 167.167969 306.507812 197.910156 293.25 224.621094 C 279.136719 253.054688 256.757812 279.203125 228.851562 294.769531 C 196.214844 312.972656 155.859375 318.421875 119.003906 314.929688 C 101.039062 313.222656 83.140625 308.90625 67.066406 300.53125 C 48.605469 290.910156 35.328125 274.207031 16.410156 265.332031 C 10.769531 262.683594 1.238281 262.109375 0.972656 254.230469 " fill-opacity="1" fill-rule="nonzero"/></g><g clip-path="url(#id4)"><path fill="rgb(54.899597%, 46.669006%, 42.349243%)" d="M 8.710938 259.046875 C 27.625 267.921875 40.90625 284.625 59.363281 294.246094 C 75.441406 302.621094 93.335938 306.941406 111.300781 308.640625 C 148.15625 312.136719 188.515625 306.6875 221.152344 288.484375 C 249.054688 272.917969 271.4375 246.769531 285.546875 218.335938 C 298.804688 191.621094 305.25 160.882812 299.542969 131.296875 C 298.046875 123.53125 295.652344 116.039062 292.597656 108.753906 C 290.429688 103.578125 288.074219 98.464844 286.410156 93.09375 C 285.023438 88.613281 282.449219 82.910156 283.347656 78.269531 C 286.296875 63.0625 280.542969 47.742188 271.476562 35.65625 C 268.71875 31.976562 265.667969 28.613281 262.386719 25.5625 C 268.679688 30.035156 274.367188 35.519531 279.179688 41.9375 C 288.246094 54.027344 294 69.34375 291.050781 84.554688 C 290.152344 89.195312 292.722656 94.898438 294.109375 99.378906 C 295.773438 104.75 298.132812 109.859375 300.300781 115.035156 C 303.355469 122.324219 305.746094 129.816406 307.242188 137.578125 C 312.949219 167.167969 306.507812 197.90625 293.25 224.621094 C 279.136719 253.054688 256.757812 279.203125 228.851562 294.769531 C 196.21875 312.972656 155.859375 318.417969 119.003906 314.925781 C 101.039062 313.222656 83.140625 308.902344 67.066406 300.527344 C 48.605469 290.90625 35.328125 274.207031 16.414062 265.332031 C 11.347656 262.953125 3.148438 262.242188 1.335938 256.417969 C 3.875 257.335938 6.574219 258.042969 8.710938 259.046875 " fill-opacity="1" fill-rule="nonzero"/></g><path fill="rgb(98.039246%, 94.509888%, 92.939758%)" d="M 193.476562 173.984375 C 193.820312 166.71875 195.488281 159.386719 194.578125 152.175781 C 193.601562 144.449219 190.273438 138.191406 184.722656 132.84375 C 179.226562 127.546875 172.589844 123.609375 170.335938 115.820312 C 167.6875 106.65625 170.324219 96.761719 174.585938 88.527344 C 184.359375 69.644531 205.050781 56.636719 226.296875 57.09375 C 244.0625 57.480469 270.308594 69.3125 267.710938 90.773438 C 267.082031 95.964844 263.765625 100.105469 262.023438 104.902344 C 259.941406 110.644531 261.703125 114.65625 263.597656 120.195312 C 265.96875 127.125 269.429688 133.632812 271.941406 140.511719 C 276.910156 154.128906 278.09375 169.4375 272.613281 183.082031 C 264.289062 203.796875 238.230469 224.816406 215.285156 214.398438 C 200.398438 207.640625 192.734375 189.660156 193.476562 173.984375 " fill-opacity="1" fill-rule="nonzero"/><path fill="rgb(18.818665%, 10.978699%, 3.919983%)" d="M 193.371094 60.457031 C 193.84375 66.320312 201.785156 70.84375 206.691406 72.375 C 216.4375 75.421875 218.859375 68.417969 222.078125 60.566406 C 222.832031 58.734375 223.46875 56.804688 223.40625 54.828125 C 223.347656 52.847656 222.480469 50.800781 220.792969 49.769531 C 219.230469 48.8125 217.261719 48.863281 215.449219 49.121094 C 210.980469 49.75 206.734375 51.425781 202.535156 53.089844 C 200.828125 53.765625 199.117188 54.441406 197.410156 55.121094 C 196.164062 55.613281 194.851562 56.160156 194.085938 57.253906 C 193.441406 58.164062 193.28125 59.34375 193.371094 60.457031 " fill-opacity="1" fill-rule="nonzero"/><path fill="rgb(14.118958%, 8.239746%, 3.138733%)" d="M 203.855469 70.796875 C 213.605469 73.84375 216.027344 66.839844 219.246094 58.988281 C 219.996094 57.15625 220.632812 55.226562 220.574219 53.246094 C 220.53125 51.75 220.019531 50.21875 219.046875 49.109375 C 219.660156 49.234375 220.253906 49.4375 220.792969 49.769531 C 222.480469 50.800781 223.347656 52.847656 223.40625 54.828125 C 223.46875 56.804688 222.832031 58.734375 222.078125 60.566406 C 218.859375 68.417969 216.4375 75.421875 206.691406 72.375 C 204.78125 71.777344 202.417969 70.726562 200.207031 69.320312 C 201.496094 69.949219 202.753906 70.453125 203.855469 70.796875 " fill-opacity="1" fill-rule="nonzero"/><path fill="rgb(100%, 100%, 100%)" d="M 201.683594 57.871094 C 200.527344 58.332031 199.53125 59.007812 198.734375 59.96875 C 197.632812 61.304688 195.429688 59.746094 196.535156 58.40625 C 197.632812 57.078125 198.972656 56.046875 200.574219 55.40625 C 202.179688 54.765625 203.300781 57.222656 201.683594 57.871094 " fill-opacity="1" fill-rule="nonzero"/><path fill="rgb(63.919067%, 56.469727%, 53.729248%)" d="M 246.792969 139.480469 C 247.023438 140.324219 247.257812 141.167969 247.488281 142.011719 C 247.945312 143.6875 250.550781 142.976562 250.089844 141.292969 C 249.859375 140.449219 249.628906 139.605469 249.394531 138.761719 C 248.9375 137.089844 246.332031 137.800781 246.792969 139.480469 " fill-opacity="1" fill-rule="nonzero"/><path fill="rgb(63.919067%, 56.469727%, 53.729248%)" d="M 239.339844 137.996094 C 239.648438 139.246094 239.957031 140.5 240.261719 141.75 C 240.679688 143.4375 243.28125 142.722656 242.867188 141.03125 C 242.558594 139.78125 242.25 138.53125 241.941406 137.277344 C 241.523438 135.59375 238.921875 136.304688 239.339844 137.996094 " fill-opacity="1" fill-rule="nonzero"/><path fill="rgb(63.919067%, 56.469727%, 53.729248%)" d="M 242.542969 149.695312 C 242.769531 150.964844 242.996094 152.234375 243.222656 153.503906 C 243.351562 154.222656 244.226562 154.628906 244.882812 154.449219 C 245.640625 154.242188 245.953125 153.507812 245.824219 152.789062 C 245.597656 151.519531 245.371094 150.246094 245.144531 148.976562 C 245.015625 148.257812 244.140625 147.851562 243.484375 148.03125 C 242.726562 148.242188 242.414062 148.972656 242.542969 149.695312 " fill-opacity="1" fill-rule="nonzero"/><path fill="rgb(63.919067%, 56.469727%, 53.729248%)" d="M 232.097656 147.277344 C 232.519531 147.890625 232.652344 148.414062 232.597656 149.132812 C 232.542969 149.859375 233.257812 150.484375 233.949219 150.484375 C 234.722656 150.484375 235.242188 149.863281 235.296875 149.132812 C 235.382812 148.007812 235.066406 146.84375 234.429688 145.914062 C 234.015625 145.316406 233.246094 145.042969 232.582031 145.429688 C 231.988281 145.78125 231.683594 146.675781 232.097656 147.277344 " fill-opacity="1" fill-rule="nonzero"/><path fill="rgb(63.919067%, 56.469727%, 53.729248%)" d="M 220.925781 143.894531 C 221.15625 144.4375 221.25 145.136719 221.171875 145.714844 C 221.074219 146.4375 221.347656 147.164062 222.117188 147.375 C 222.746094 147.550781 223.679688 147.160156 223.773438 146.433594 C 223.960938 145.046875 223.800781 143.820312 223.257812 142.53125 C 222.972656 141.863281 221.984375 141.714844 221.410156 142.046875 C 220.714844 142.457031 220.640625 143.222656 220.925781 143.894531 " fill-opacity="1" fill-rule="nonzero"/><path fill="rgb(63.919067%, 56.469727%, 53.729248%)" d="M 223.824219 154.3125 C 223.9375 155.691406 224.046875 157.070312 224.160156 158.449219 C 224.300781 160.171875 227 160.183594 226.859375 158.449219 C 226.746094 157.070312 226.636719 155.691406 226.523438 154.3125 C 226.386719 152.59375 223.683594 152.578125 223.824219 154.3125 " fill-opacity="1" fill-rule="nonzero"/><path fill="rgb(63.919067%, 56.469727%, 53.729248%)" d="M 213.914062 150.921875 C 213.917969 151.773438 213.921875 152.621094 213.925781 153.46875 C 213.9375 155.207031 216.636719 155.210938 216.625 153.46875 C 216.621094 152.621094 216.617188 151.773438 216.613281 150.921875 C 216.601562 149.1875 213.902344 149.183594 213.914062 150.921875 " fill-opacity="1" fill-rule="nonzero"/><path fill="rgb(0%, 0%, 0%)" d="M 224.476562 42.230469 C 225.789062 47.539062 229.394531 51.214844 232.53125 50.4375 C 235.664062 49.660156 237.140625 44.726562 235.828125 39.417969 C 234.515625 34.109375 230.910156 30.433594 227.773438 31.210938 C 224.640625 31.984375 223.164062 36.921875 224.476562 42.230469 " fill-opacity="1" fill-rule="nonzero"/><path fill="rgb(0%, 0%, 0%)" d="M 175.996094 60.609375 C 178.164062 65.632812 182.324219 68.664062 185.289062 67.382812 C 188.253906 66.101562 188.902344 60.992188 186.734375 55.972656 C 184.570312 50.949219 180.410156 47.914062 177.445312 49.195312 C 174.480469 50.476562 173.832031 55.585938 175.996094 60.609375 " fill-opacity="1" fill-rule="nonzero"/><path fill="rgb(98.429871%, 80.778503%, 80.778503%)" d="M 249.488281 57.132812 C 252.414062 61.152344 258.042969 62.035156 262.058594 59.109375 C 266.074219 56.179688 266.957031 50.546875 264.03125 46.53125 C 261.105469 42.511719 255.480469 41.625 251.464844 44.554688 C 247.449219 47.480469 246.5625 53.113281 249.488281 57.132812 " fill-opacity="1" fill-rule="nonzero"/><path fill="rgb(45.098877%, 39.608765%, 37.649536%)" d="M 255.414062 52.679688 C 269.28125 41.15625 287.484375 39.988281 304.730469 39.257812 C 305.597656 39.222656 305.667969 40.570312 304.796875 40.605469 C 287.761719 41.332031 269.859375 42.417969 256.152344 53.808594 C 255.488281 54.363281 254.753906 53.226562 255.414062 52.679688 " fill-opacity="1" fill-rule="nonzero"/><path fill="rgb(45.098877%, 39.608765%, 37.649536%)" d="M 255.675781 54.558594 C 271.191406 45.875 289.171875 46.121094 306.429688 46.753906 C 307.289062 46.785156 307.367188 48.136719 306.496094 48.105469 C 289.511719 47.480469 271.695312 47.132812 256.414062 55.6875 C 255.660156 56.109375 254.917969 54.984375 255.675781 54.558594 " fill-opacity="1" fill-rule="nonzero"/><path fill="rgb(45.098877%, 39.608765%, 37.649536%)" d="M 257.464844 56.914062 C 272.527344 54.476562 287.746094 55.085938 302.5625 58.707031 C 303.40625 58.910156 303.132812 60.234375 302.285156 60.027344 C 287.578125 56.433594 272.476562 55.84375 257.53125 58.261719 C 256.675781 58.398438 256.613281 57.050781 257.464844 56.914062 " fill-opacity="1" fill-rule="nonzero"/><path fill="rgb(98.429871%, 80.778503%, 80.778503%)" d="M 166.710938 91.609375 C 165.726562 96.484375 160.980469 99.636719 156.109375 98.652344 C 151.238281 97.664062 148.089844 92.914062 149.074219 88.042969 C 150.058594 83.167969 154.804688 80.015625 159.675781 81 C 164.546875 81.988281 167.695312 86.738281 166.710938 91.609375 " fill-opacity="1" fill-rule="nonzero"/><path fill="rgb(45.098877%, 39.608765%, 37.649536%)" d="M 159.46875 90.035156 C 142.066406 85.34375 125.03125 91.878906 109.050781 98.410156 C 108.25 98.738281 108.746094 99.992188 109.554688 99.664062 C 125.339844 93.210938 142.066406 86.734375 159.265625 91.371094 C 160.105469 91.597656 160.296875 90.257812 159.46875 90.035156 " fill-opacity="1" fill-rule="nonzero"/><path fill="rgb(45.098877%, 39.608765%, 37.649536%)" d="M 160.011719 91.851562 C 142.292969 90.433594 126.054688 98.160156 110.628906 105.933594 C 109.863281 106.320312 110.355469 107.578125 111.132812 107.1875 C 126.308594 99.539062 142.359375 91.789062 159.8125 93.1875 C 160.675781 93.257812 160.878906 91.921875 160.011719 91.851562 " fill-opacity="1" fill-rule="nonzero"/><path fill="rgb(45.098877%, 39.608765%, 37.649536%)" d="M 159.367188 94.738281 C 144.664062 98.804688 131.082031 105.710938 119.121094 115.183594 C 118.441406 115.722656 119.242188 116.808594 119.921875 116.269531 C 131.796875 106.867188 145.277344 100.027344 159.867188 95.992188 C 160.703125 95.761719 160.199219 94.507812 159.367188 94.738281 " fill-opacity="1" fill-rule="nonzero"/><g clip-path="url(#id5)"><path fill="rgb(52.938843%, 44.309998%, 40.779114%)" d="M 302.511719 236.472656 C 309.730469 231.304688 316.488281 220.933594 320.320312 213.265625 C 322.753906 208.402344 324.796875 203.183594 324.859375 197.75 C 324.96875 187.167969 316.703125 177.296875 306.40625 174.890625 C 296.109375 172.484375 284.710938 177.289062 278.640625 185.957031 C 277.296875 187.878906 276.175781 189.988281 275.589844 192.261719 C 274.835938 195.175781 274.976562 198.246094 275.261719 201.242188 C 276.070312 209.726562 277.988281 218.101562 280.957031 226.085938 C 284.570312 235.800781 292.296875 243.789062 302.511719 236.472656 " fill-opacity="1" fill-rule="nonzero"/></g><path fill="rgb(98.039246%, 94.509888%, 92.939758%)" d="M 288.300781 208.851562 C 291.816406 204.054688 299.183594 202.738281 303.859375 208.214844 C 305.457031 210.085938 305.976562 212.667969 305.945312 215.125 C 305.902344 218.320312 304.960938 221.578125 302.878906 224 C 300.800781 226.421875 297.496094 227.882812 294.351562 227.316406 C 291.648438 226.828125 289.328125 224.910156 287.984375 222.515625 C 286.636719 220.117188 286.191406 217.292969 286.3125 214.546875 C 286.410156 212.355469 287.148438 210.417969 288.300781 208.851562 " fill-opacity="1" fill-rule="nonzero"/><path fill="rgb(98.039246%, 94.509888%, 92.939758%)" d="M 282.429688 192.898438 C 282.359375 190.109375 283.644531 186.5625 287.21875 187.0625 C 288.464844 187.234375 289.785156 188.683594 290.484375 189.613281 C 292.453125 192.230469 292.691406 195.742188 290.726562 198.429688 C 290.28125 199.035156 289.746094 199.585938 289.074219 199.917969 C 287.347656 200.777344 285.140625 199.90625 283.972656 198.371094 C 282.804688 196.839844 282.472656 194.828125 282.429688 192.898438 " fill-opacity="1" fill-rule="nonzero"/><path fill="rgb(98.039246%, 94.509888%, 92.939758%)" d="M 295.195312 189.875 C 295.339844 187.085938 296.882812 183.648438 300.414062 184.414062 C 301.640625 184.683594 302.847656 186.222656 303.476562 187.207031 C 305.242188 189.964844 305.214844 193.484375 303.050781 196.015625 C 302.566406 196.585938 301.984375 197.097656 301.292969 197.375 C 299.507812 198.097656 297.375 197.066406 296.324219 195.449219 C 295.273438 193.832031 295.097656 191.800781 295.195312 189.875 " fill-opacity="1" fill-rule="nonzero"/><path fill="rgb(98.039246%, 94.509888%, 92.939758%)" d="M 307.730469 194.453125 C 308.523438 191.777344 310.828125 188.796875 314.082031 190.367188 C 315.210938 190.914062 316.023438 192.695312 316.40625 193.796875 C 317.480469 196.890625 316.628906 200.308594 313.9375 202.265625 C 313.332031 202.703125 312.648438 203.0625 311.910156 203.175781 C 310.003906 203.460938 308.167969 201.957031 307.527344 200.136719 C 306.882812 198.320312 307.1875 196.304688 307.730469 194.453125 " fill-opacity="1" fill-rule="nonzero"/><path fill="rgb(52.938843%, 44.309998%, 40.779114%)" d="M 192.273438 241.914062 C 195.003906 233.460938 194.269531 221.105469 192.792969 212.65625 C 191.855469 207.300781 190.402344 201.890625 187.214844 197.484375 C 181.015625 188.914062 168.503906 185.898438 158.796875 190.097656 C 149.089844 194.292969 142.785156 204.945312 143.058594 215.523438 C 143.117188 217.871094 143.472656 220.230469 144.351562 222.410156 C 145.480469 225.199219 147.417969 227.582031 149.429688 229.824219 C 155.121094 236.160156 161.644531 241.75 168.777344 246.398438 C 177.453125 252.058594 188.410156 253.878906 192.273438 241.914062 " fill-opacity="1" fill-rule="nonzero"/><path fill="rgb(98.039246%, 94.509888%, 92.939758%)" d="M 164.429688 228.175781 C 164.40625 222.226562 169.546875 216.78125 176.558594 218.398438 C 178.953125 218.953125 180.910156 220.714844 182.34375 222.710938 C 184.207031 225.304688 185.386719 228.484375 185.15625 231.671875 C 184.925781 234.855469 183.136719 237.996094 180.273438 239.414062 C 177.8125 240.632812 174.804688 240.472656 172.300781 239.347656 C 169.792969 238.222656 167.753906 236.21875 166.222656 233.9375 C 164.996094 232.117188 164.4375 230.117188 164.429688 228.175781 " fill-opacity="1" fill-rule="nonzero"/><path fill="rgb(98.039246%, 94.509888%, 92.939758%)" d="M 150.230469 218.847656 C 148.515625 216.644531 147.441406 213.035156 150.609375 211.304688 C 151.714844 210.703125 153.632812 211.082031 154.753906 211.414062 C 157.886719 212.34375 160.167969 215.027344 160.1875 218.355469 C 160.191406 219.105469 160.085938 219.867188 159.746094 220.535156 C 158.867188 222.25 156.574219 222.867188 154.722656 222.328125 C 152.875 221.792969 151.414062 220.371094 150.230469 218.847656 " fill-opacity="1" fill-rule="nonzero"/><path fill="rgb(98.039246%, 94.509888%, 92.939758%)" d="M 158.695312 208.816406 C 157.152344 206.488281 156.351562 202.804688 159.640625 201.320312 C 160.785156 200.804688 162.675781 201.328125 163.765625 201.742188 C 166.820312 202.90625 168.890625 205.753906 168.660156 209.074219 C 168.609375 209.824219 168.445312 210.578125 168.054688 211.214844 C 167.046875 212.859375 164.71875 213.300781 162.914062 212.625 C 161.109375 211.953125 159.761719 210.421875 158.695312 208.816406 " fill-opacity="1" fill-rule="nonzero"/><path fill="rgb(98.039246%, 94.509888%, 92.939758%)" d="M 171.492188 205.03125 C 170.539062 202.410156 170.617188 198.640625 174.164062 197.96875 C 175.398438 197.734375 177.113281 198.683594 178.074219 199.339844 C 180.777344 201.1875 182.125 204.441406 181.125 207.617188 C 180.898438 208.332031 180.5625 209.027344 180.035156 209.554688 C 178.671875 210.917969 176.304688 210.800781 174.707031 209.722656 C 173.109375 208.648438 172.15625 206.84375 171.492188 205.03125 " fill-opacity="1" fill-rule="nonzero"/><path fill="rgb(0%, 0%, 0%)" d="M 246.085938 64.121094 C 240.03125 76.78125 223.511719 79.027344 214.269531 68.539062 C 213.371094 67.519531 211.761719 68.261719 211.890625 69.59375 C 213.246094 83.773438 192.027344 91.46875 182.234375 82.433594 C 180.960938 81.257812 179.390625 83.457031 180.65625 84.625 C 186.214844 89.753906 196.367188 89.53125 202.957031 86.96875 C 209.242188 84.523438 213.816406 79.078125 214.527344 72.554688 C 225.402344 81.882812 242.15625 78.574219 248.605469 65.09375 C 249.355469 63.523438 246.832031 62.5625 246.085938 64.121094 " fill-opacity="1" fill-rule="nonzero"/><path fill="rgb(59.21936%, 76.858521%, 81.17981%)" d="M 269.84375 138.078125 C 261.8125 118.164062 236.347656 108.21875 218.765625 115.324219 C 201.179688 122.425781 189.746094 147.277344 197.78125 167.195312 C 203.46875 181.300781 213.148438 181.949219 226.175781 180.242188 L 226.21875 180.535156 C 226.578125 182.957031 228.90625 184.582031 231.296875 184.0625 C 236.808594 182.855469 246.769531 179.992188 257.128906 173.644531 C 259.316406 172.304688 259.855469 169.359375 258.257812 167.355469 L 258.253906 167.351562 C 268.953125 159.519531 275.574219 152.277344 269.84375 138.078125 " fill-opacity="1" fill-rule="nonzero"/><path fill="rgb(92.158508%, 92.158508%, 92.158508%)" d="M 248.042969 169.007812 L 271.59375 151.066406 C 271.714844 150.488281 271.808594 149.898438 271.863281 149.292969 L 247.039062 168.210938 L 271.101562 141.875 C 270.976562 141.40625 270.859375 140.945312 270.703125 140.464844 L 246.398438 167.066406 L 267.757812 133.800781 C 267.527344 133.398438 267.296875 132.992188 267.050781 132.601562 L 245.761719 165.753906 L 262.882812 127.121094 C 262.582031 126.789062 262.273438 126.460938 261.960938 126.136719 L 244.316406 165.949219 L 255.714844 120.886719 C 255.351562 120.636719 254.988281 120.386719 254.621094 120.148438 L 243.285156 164.949219 L 248.550781 116.867188 C 248.152344 116.691406 247.753906 116.519531 247.355469 116.355469 L 241.96875 165.554688 L 238.839844 113.792969 C 238.421875 113.710938 238 113.640625 237.582031 113.574219 L 240.683594 164.871094 L 229.429688 113.078125 C 229.007812 113.09375 228.59375 113.128906 228.175781 113.164062 L 239.625 165.875 L 219.175781 115.171875 C 219.039062 115.222656 218.898438 115.269531 218.765625 115.324219 C 218.515625 115.425781 218.273438 115.539062 218.027344 115.648438 L 238.613281 166.683594 L 210.164062 120.578125 C 209.84375 120.847656 209.527344 121.125 209.210938 121.40625 L 236.960938 166.375 L 203.757812 127.472656 C 203.503906 127.816406 203.257812 128.164062 203.015625 128.515625 L 236.507812 167.761719 L 198.738281 136.285156 C 198.570312 136.6875 198.410156 137.089844 198.25 137.496094 L 235.144531 168.246094 L 196.21875 144.0625 C 196.121094 144.492188 196.035156 144.925781 195.953125 145.359375 L 235.089844 169.675781 L 195.164062 153.4375 C 195.167969 153.890625 195.183594 154.339844 195.199219 154.792969 L 233.914062 170.539062 L 196.046875 161.574219 C 196.144531 162.027344 196.261719 162.480469 196.378906 162.929688 L 234.367188 171.925781 L 198.898438 169.695312 C 199.128906 170.152344 199.371094 170.5625 199.609375 170.988281 L 234.699219 173.191406 L 204.214844 176.769531 C 204.683594 177.164062 205.171875 177.519531 205.664062 177.851562 L 234.527344 174.464844 L 213.535156 180.648438 C 214.675781 180.800781 215.84375 180.890625 217.066406 180.90625 C 223.785156 178.929688 230.503906 176.949219 237.222656 174.972656 C 245.859375 172.429688 253.742188 167.433594 261.699219 163.277344 C 263.003906 162.597656 264.308594 161.914062 265.609375 161.234375 C 266.46875 160.375 267.253906 159.5 267.957031 158.601562 L 248.042969 169.007812 " fill-opacity="1" fill-rule="nonzero"/><path fill="rgb(52.938843%, 44.309998%, 40.779114%)" d="M 303.285156 116.253906 C 304.054688 113.675781 304.464844 111.042969 304.441406 108.378906 C 304.296875 94.941406 289.777344 87.777344 280.492188 98.707031 C 271.984375 108.726562 270.625 122.730469 260.085938 131.753906 C 257.578125 133.90625 254.738281 135.6875 252.472656 138.09375 C 250.203125 140.5 248.515625 143.765625 249.042969 147.03125 C 249.746094 151.414062 254.34375 154.355469 258.777344 154.535156 C 263.210938 154.71875 267.445312 152.761719 271.289062 150.542969 C 283.238281 143.648438 298.945312 130.824219 303.285156 116.253906 " fill-opacity="1" fill-rule="nonzero"/><path fill="rgb(38.819885%, 34.509277%, 32.939148%)" d="M 249.566406 142.640625 C 249.214844 143.582031 248.996094 144.558594 248.964844 145.546875 C 250.40625 145.308594 251.78125 144.738281 253.011719 143.871094 C 254.433594 142.867188 252.753906 140.753906 251.335938 141.75 C 250.78125 142.140625 250.1875 142.4375 249.566406 142.640625 " fill-opacity="1" fill-rule="nonzero"/><path fill="rgb(38.819885%, 34.509277%, 32.939148%)" d="M 254.738281 147.484375 C 255.914062 146.199219 253.742188 144.59375 252.578125 145.863281 C 251.664062 146.859375 250.558594 147.644531 249.339844 148.195312 C 249.628906 149.054688 250.066406 149.84375 250.625 150.550781 C 252.167969 149.816406 253.542969 148.789062 254.738281 147.484375 " fill-opacity="1" fill-rule="nonzero"/><path fill="rgb(38.819885%, 34.509277%, 32.939148%)" d="M 256.378906 150.261719 C 255.621094 151.414062 254.652344 152.335938 253.519531 153.003906 C 254.441406 153.53125 255.445312 153.9375 256.480469 154.195312 C 257.261719 153.53125 257.960938 152.761719 258.539062 151.878906 C 259.492188 150.433594 257.332031 148.808594 256.378906 150.261719 " fill-opacity="1" fill-rule="nonzero"/><path fill="rgb(52.938843%, 44.309998%, 40.779114%)" d="M 162.640625 156.945312 C 160.671875 155.113281 158.976562 153.054688 157.648438 150.746094 C 150.945312 139.101562 159.8125 125.542969 173.359375 130.238281 C 185.777344 134.535156 194.058594 145.90625 207.714844 148.316406 C 210.972656 148.890625 214.320312 148.984375 217.496094 149.902344 C 220.667969 150.820312 223.78125 152.777344 224.988281 155.855469 C 226.605469 159.988281 224.140625 164.859375 220.414062 167.269531 C 216.6875 169.683594 212.046875 170.152344 207.609375 170.195312 C 193.820312 170.335938 173.777344 167.28125 162.640625 156.945312 " fill-opacity="1" fill-rule="nonzero"/><path fill="rgb(38.819885%, 34.509277%, 32.939148%)" d="M 222.304688 152.339844 C 223.085938 152.972656 223.769531 153.703125 224.300781 154.539062 C 222.9375 155.0625 221.460938 155.273438 219.964844 155.152344 C 218.226562 155.011719 218.601562 152.335938 220.328125 152.476562 C 221.003906 152.53125 221.667969 152.480469 222.304688 152.339844 " fill-opacity="1" fill-rule="nonzero"/><path fill="rgb(38.819885%, 34.509277%, 32.939148%)" d="M 220.308594 159.140625 C 218.648438 158.636719 219.699219 156.144531 221.347656 156.648438 C 222.640625 157.042969 223.992188 157.15625 225.320312 157.011719 C 225.507812 157.894531 225.53125 158.796875 225.410156 159.695312 C 223.710938 159.84375 222.003906 159.660156 220.308594 159.140625 " fill-opacity="1" fill-rule="nonzero"/><path fill="rgb(38.819885%, 34.509277%, 32.939148%)" d="M 220.308594 162.367188 C 221.546875 162.976562 222.851562 163.277344 224.164062 163.277344 C 223.636719 164.199219 222.980469 165.058594 222.21875 165.808594 C 221.207031 165.632812 220.214844 165.324219 219.269531 164.863281 C 217.714844 164.097656 218.746094 161.601562 220.308594 162.367188 " fill-opacity="1" fill-rule="nonzero"/></g></g></g><g fill="rgb(16.468811%, 72.549438%, 89.408875%)" fill-opacity="1"><g transform="translate(422.968398, 545.508744)"><g><path d="M 145.914062 0 L 172.863281 0 L 172.863281 -105.875 C 172.863281 -125.507812 167.472656 -141.292969 157.464844 -153.230469 C 152.074219 -159.390625 145.914062 -164.007812 138.597656 -167.472656 C 130.898438 -170.9375 121.273438 -172.863281 109.339844 -172.863281 C 97.019531 -172.863281 86.625 -169.398438 77.382812 -163.238281 C 68.53125 -157.464844 61.214844 -149.765625 55.824219 -140.140625 L 55.824219 -169.398438 L 28.875 -169.398438 L 28.875 0 L 55.824219 0 L 55.824219 -70.839844 C 55.824219 -92.398438 59.675781 -109.339844 67.757812 -122.042969 C 72.378906 -128.972656 78.15625 -134.75 85.46875 -139.367188 C 92.398438 -143.605469 102.023438 -145.914062 113.574219 -145.914062 C 125.125 -145.914062 133.210938 -141.679688 138.214844 -133.980469 C 143.21875 -126.277344 145.914062 -116.652344 145.914062 -105.875 Z M 145.914062 0 "/></g></g></g></svg>