<svg xmlns="http://www.w3.org/2000/svg" xmlns:xlink="http://www.w3.org/1999/xlink" width="1080" zoomAndPan="magnify" viewBox="0 0 810 809.999993" height="1080" preserveAspectRatio="xMidYMid meet" version="1.0"><defs><g/><clipPath id="id1"><path d="M 196.667969 125.589844 L 412.457031 125.589844 L 412.457031 319.089844 L 196.667969 319.089844 Z M 196.667969 125.589844 " clip-rule="nonzero"/></clipPath></defs><rect x="-81" width="972" fill="rgb(100%, 100%, 100%)" y="-80.999999" height="971.999992" fill-opacity="1"/><rect x="-81" width="972" fill="rgb(100%, 100%, 100%)" y="-80.999999" height="971.999992" fill-opacity="1"/><g fill="rgb(58.039856%, 50.19989%, 42.749023%)" fill-opacity="1"><g transform="translate(152.701109, 587.937178)"><g><path d="M 259.628906 -131.742188 C 259.628906 -101.695312 248.84375 -76.269531 228.042969 -55.46875 C 206.855469 -34.285156 181.433594 -23.882812 151.773438 -23.882812 C 122.109375 -23.882812 96.6875 -34.285156 75.886719 -55.46875 C 54.699219 -76.269531 44.300781 -101.695312 44.300781 -131.742188 C 44.300781 -161.015625 54.699219 -186.441406 75.886719 -207.625 C 96.6875 -228.429688 122.109375 -239.214844 151.773438 -239.214844 C 181.433594 -239.214844 206.855469 -228.429688 228.042969 -207.625 C 248.84375 -186.441406 259.628906 -161.015625 259.628906 -131.742188 Z M 286.59375 -131.742188 C 286.59375 -150.230469 282.742188 -167.566406 275.808594 -184.128906 C 268.875 -200.308594 259.246094 -214.5625 246.917969 -226.886719 C 234.589844 -238.828125 220.339844 -248.457031 204.160156 -255.390625 C 187.597656 -262.328125 170.261719 -266.179688 151.773438 -266.179688 C 133.28125 -266.179688 115.5625 -262.328125 99.382812 -255.390625 C 83.203125 -248.457031 68.953125 -238.828125 56.625 -226.886719 C 44.300781 -214.5625 34.667969 -200.308594 27.734375 -184.128906 C 20.800781 -167.566406 17.335938 -150.230469 17.335938 -131.742188 C 17.335938 -113.25 20.800781 -95.53125 27.734375 -79.351562 C 34.667969 -62.789062 44.300781 -48.535156 56.625 -36.210938 C 68.953125 -23.882812 83.203125 -14.253906 99.382812 -7.320312 C 115.5625 -0.386719 133.28125 3.082031 151.773438 3.082031 C 170.261719 3.082031 187.597656 -0.386719 204.160156 -7.320312 C 220.339844 -14.253906 234.589844 -23.882812 246.917969 -36.210938 C 259.246094 -48.535156 268.875 -62.789062 275.808594 -79.351562 C 282.742188 -95.53125 286.59375 -113.25 286.59375 -131.742188 Z M 286.59375 -131.742188 "/></g></g></g><path fill="rgb(58.039856%, 50.19989%, 42.749023%)" d="M 363.0625 151.597656 C 326.488281 148.171875 294.605469 148.722656 258.101562 152.859375 C 256.78125 153.011719 255.246094 153.09375 254.328125 152.128906 C 253.332031 151.078125 253.613281 149.414062 253.675781 147.96875 C 253.898438 142.964844 250.558594 138.292969 246.234375 135.78125 C 241.910156 133.273438 236.761719 132.605469 231.765625 132.574219 C 227.730469 132.546875 223.558594 132.941406 220.003906 134.859375 C 214.78125 137.683594 211.578125 143.867188 212.285156 149.777344 C 212.992188 155.683594 217.5625 160.9375 223.308594 162.4375 C 215.890625 168.0625 210.742188 176.242188 207.171875 184.847656 C 200.726562 200.375 199.003906 217.46875 198.855469 234.285156 C 198.707031 250.671875 200.199219 267.777344 208.660156 281.796875 C 216.527344 294.832031 229.816406 303.9375 244.105469 309.136719 C 258.390625 314.335938 273.71875 315.945312 288.902344 316.640625 C 306.414062 317.445312 323.976562 317.09375 341.441406 315.582031 C 361.59375 313.839844 383.320312 309.664062 396.761719 294.511719 C 406.402344 283.648438 410.199219 268.566406 410.105469 254.03125 C 410.011719 239.492188 411.707031 222.117188 408.105469 208.035156 C 403.902344 191.605469 396.84375 174.171875 390.183594 161.875 C 398.609375 163.191406 406.964844 154.515625 405.351562 146.121094 C 403.824219 138.160156 395.742188 133.402344 388.234375 130.390625 C 383.933594 128.664062 379.375 127.144531 374.765625 127.589844 C 369.167969 128.136719 363.972656 131.796875 361.566406 136.894531 C 359.164062 141.992188 359.640625 148.34375 362.773438 153.023438 " fill-opacity="1" fill-rule="nonzero"/><g clip-path="url(#id1)"><path fill="rgb(6.269836%, 5.879211%, 5.099487%)" d="M 363.0625 149.566406 C 334.457031 146.90625 305.757812 146.644531 277.121094 148.96875 C 273.484375 149.265625 269.851562 149.597656 266.222656 149.960938 C 264.375 150.144531 262.527344 150.339844 260.683594 150.542969 C 259.589844 150.660156 257.011719 151.429688 256.027344 150.734375 C 255.132812 150.097656 255.761719 147.753906 255.683594 146.671875 C 255.585938 145.308594 255.289062 143.972656 254.796875 142.703125 C 253.765625 140.035156 252.019531 137.664062 249.820312 135.84375 C 245 131.84375 238.617188 130.671875 232.519531 130.550781 C 226.464844 130.429688 220.066406 131.296875 215.507812 135.664062 C 211.179688 139.8125 209.167969 146.28125 210.671875 152.125 C 212.1875 158.035156 216.957031 162.738281 222.769531 164.398438 C 222.605469 163.160156 222.445312 161.921875 222.28125 160.683594 C 209.832031 170.3125 203.433594 185.664062 200.144531 200.679688 C 196.644531 216.652344 195.933594 233.753906 197.355469 250.023438 C 198.675781 265.128906 203.007812 279.910156 213.277344 291.398438 C 223.15625 302.449219 236.796875 309.523438 250.917969 313.445312 C 267.671875 318.101562 285.398438 318.875 302.6875 319.070312 C 319.5625 319.257812 336.65625 318.671875 353.375 316.253906 C 367.144531 314.261719 381.136719 310.382812 392.214844 301.59375 C 403.738281 292.449219 409.726562 278.613281 411.535156 264.257812 C 412.503906 256.5625 412.152344 248.703125 412.328125 240.960938 C 412.503906 232.871094 412.652344 224.730469 411.695312 216.679688 C 410.75 208.691406 408.414062 200.964844 405.851562 193.363281 C 403.261719 185.683594 400.269531 178.132812 396.878906 170.769531 C 395.328125 167.414062 393.6875 164.101562 391.9375 160.847656 C 391.351562 161.867188 390.769531 162.886719 390.183594 163.90625 C 396.742188 164.75 403.21875 160.574219 406.03125 154.71875 C 409.027344 148.476562 407.1875 141.691406 402.519531 136.835938 C 397.5625 131.679688 390.121094 128.425781 383.34375 126.527344 C 375.90625 124.441406 367.949219 125.703125 362.636719 131.6875 C 357.144531 137.871094 356.597656 147.113281 361.023438 154.050781 C 362.425781 156.246094 365.9375 154.210938 364.527344 151.996094 C 361.371094 147.050781 361.179688 140.554688 364.617188 135.679688 C 368.296875 130.457031 374.632812 128.695312 380.675781 130.042969 C 389.328125 131.976562 406.136719 138.964844 403.230469 150.628906 C 401.789062 156.410156 396.117188 160.605469 390.183594 159.84375 C 388.566406 159.632812 387.785156 161.695312 388.433594 162.898438 C 395.675781 176.347656 401.296875 190.800781 405.339844 205.53125 C 409.445312 220.484375 408.191406 235.816406 408.082031 251.132812 C 407.976562 265.308594 405.96875 279.621094 396.960938 291.125 C 388.527344 301.886719 375.644531 307.464844 362.648438 310.433594 C 347.882812 313.804688 332.433594 314.511719 317.34375 314.898438 C 300.527344 315.332031 283.367188 315.144531 266.707031 312.617188 C 251.953125 310.378906 237.382812 305.832031 225.273438 296.855469 C 213.546875 288.164062 206.183594 275.894531 203.125 261.675781 C 199.910156 246.726562 200.28125 230.585938 201.871094 215.449219 C 203.453125 200.367188 207.347656 184.414062 216.597656 172.101562 C 218.808594 169.15625 221.417969 166.449219 224.328125 164.195312 C 225.652344 163.171875 225.671875 161 223.847656 160.480469 C 218.992188 159.089844 215.074219 154.914062 214.328125 149.84375 C 213.554688 144.617188 216.414062 139.101562 221.027344 136.613281 C 226.265625 133.789062 233.78125 134.082031 239.449219 135.363281 C 244.835938 136.582031 250.492188 140.042969 251.527344 145.9375 C 251.953125 148.375 250.945312 151.015625 252.578125 153.15625 C 254.132812 155.195312 256.664062 155.046875 258.964844 154.796875 C 265.699219 154.066406 272.4375 153.394531 279.191406 152.871094 C 292.183594 151.867188 305.207031 151.34375 318.234375 151.386719 C 333.207031 151.4375 348.15625 152.246094 363.0625 153.628906 C 365.660156 153.871094 365.644531 149.804688 363.0625 149.566406 " fill-opacity="1" fill-rule="nonzero"/></g><path fill="rgb(100%, 100%, 100%)" d="M 313.328125 207.8125 C 300.902344 206.710938 287.726562 211.285156 279.871094 221 C 272.019531 230.714844 270.519531 245.617188 277.601562 255.910156 C 281.402344 261.433594 287.210938 265.300781 293.347656 267.984375 C 305.085938 273.117188 319.199219 274.136719 330.457031 268.015625 C 343.304688 261.039062 350.335938 244.785156 346.640625 230.613281 C 342.941406 216.445312 328.875 207.8125 314.265625 208.035156 " fill-opacity="1" fill-rule="nonzero"/><path fill="rgb(6.269836%, 5.879211%, 5.099487%)" d="M 313.328125 205.78125 C 298.21875 204.5625 281.683594 211.328125 274.636719 225.410156 C 271.308594 232.0625 270.175781 239.785156 271.699219 247.085938 C 273.292969 254.746094 278.09375 260.957031 284.417969 265.375 C 297.792969 274.707031 317.457031 277.765625 332.023438 269.472656 C 344.582031 262.320312 351.492188 246.96875 349.167969 232.789062 C 346.433594 216.121094 330.347656 205.898438 314.265625 206 C 311.65625 206.015625 311.652344 210.082031 314.265625 210.066406 C 326.761719 209.984375 339.777344 216.722656 344.050781 229.070312 C 348.234375 241.160156 343.605469 255.289062 333.855469 263.308594 C 322.128906 272.953125 304.703125 271.503906 291.855469 265.050781 C 285.582031 261.898438 279.789062 257.261719 277.015625 250.628906 C 274.449219 244.476562 274.542969 237.445312 276.617188 231.171875 C 281.652344 215.925781 298.21875 208.628906 313.328125 209.84375 C 315.929688 210.054688 315.917969 205.988281 313.328125 205.78125 " fill-opacity="1" fill-rule="nonzero"/><path fill="rgb(6.269836%, 5.879211%, 5.099487%)" d="M 265.027344 187.277344 C 265.183594 187.550781 265.183594 187.519531 265.027344 187.175781 C 265.085938 187.433594 265.097656 187.445312 265.058594 187.210938 C 265.035156 186.976562 265.027344 186.992188 265.039062 187.253906 C 265.113281 186.863281 265.121094 186.824219 265.054688 187.140625 C 264.773438 187.753906 265.429688 186.707031 265.023438 187.261719 C 264.644531 187.777344 265.3125 186.914062 264.945312 187.367188 C 264.714844 187.574219 264.738281 187.558594 265.015625 187.3125 C 264.742188 187.460938 264.773438 187.445312 265.109375 187.28125 C 265.21875 187.269531 265.328125 187.261719 265.4375 187.253906 C 265.109375 187.246094 265.128906 187.261719 265.5 187.296875 C 265.242188 187.214844 265.210938 187.210938 265.410156 187.285156 C 265.605469 187.367188 265.585938 187.34375 265.34375 187.214844 C 265.605469 187.421875 265.621094 187.417969 265.390625 187.203125 C 265.558594 187.441406 265.585938 187.476562 265.476562 187.308594 C 265.414062 187.214844 265.355469 187.113281 265.308594 187.007812 C 265.4375 187.324219 265.457031 187.332031 265.359375 187.03125 C 265.375 187.125 265.386719 187.226562 265.398438 187.324219 C 265.410156 187 265.394531 187.023438 265.359375 187.394531 C 265.582031 186.867188 265.191406 187.617188 265.132812 187.691406 C 265.4375 187.3125 264.6875 187.863281 265.277344 187.578125 C 265.464844 187.484375 265.394531 187.511719 265.078125 187.664062 C 265.207031 187.625 265.339844 187.589844 265.476562 187.566406 C 265.042969 187.664062 265.183594 187.617188 265.550781 187.628906 C 265.148438 187.570312 265.097656 187.574219 265.410156 187.644531 C 265.3125 187.601562 265.214844 187.554688 265.117188 187.507812 C 265.683594 187.816406 265.277344 187.605469 265.027344 187.277344 C 265.9375 188.480469 267.4375 189.109375 268.847656 188.28125 C 270.03125 187.585938 270.761719 185.667969 269.847656 184.453125 C 268.113281 182.152344 265.175781 181.335938 262.550781 182.699219 C 259.808594 184.125 259.136719 187.566406 260.65625 190.132812 C 262.230469 192.789062 265.785156 193.695312 268.289062 191.8125 C 270.519531 190.132812 271.347656 186.898438 269.847656 184.453125 C 269.058594 183.167969 267.351562 182.675781 266.03125 183.453125 C 264.75 184.203125 264.238281 185.984375 265.027344 187.277344 " fill-opacity="1" fill-rule="nonzero"/><path fill="rgb(6.269836%, 5.879211%, 5.099487%)" d="M 347.609375 187.277344 C 347.761719 187.550781 347.757812 187.519531 347.601562 187.175781 C 347.664062 187.433594 347.675781 187.445312 347.636719 187.210938 C 347.613281 186.976562 347.609375 186.992188 347.617188 187.253906 C 347.691406 186.863281 347.699219 186.824219 347.632812 187.140625 C 347.351562 187.753906 348.007812 186.707031 347.597656 187.261719 C 347.222656 187.777344 347.890625 186.914062 347.523438 187.367188 C 347.292969 187.574219 347.316406 187.558594 347.59375 187.3125 C 347.320312 187.460938 347.351562 187.445312 347.691406 187.28125 C 347.796875 187.269531 347.90625 187.261719 348.015625 187.253906 C 347.6875 187.246094 347.707031 187.261719 348.078125 187.296875 C 347.816406 187.214844 347.789062 187.210938 347.988281 187.285156 C 348.183594 187.367188 348.160156 187.34375 347.921875 187.214844 C 348.183594 187.421875 348.199219 187.417969 347.96875 187.203125 C 348.136719 187.441406 348.164062 187.476562 348.054688 187.308594 C 347.992188 187.214844 347.9375 187.113281 347.882812 187.007812 C 348.015625 187.324219 348.03125 187.332031 347.9375 187.03125 C 347.949219 187.125 347.964844 187.226562 347.976562 187.324219 C 347.984375 187 347.972656 187.023438 347.9375 187.394531 C 348.15625 186.867188 347.769531 187.617188 347.710938 187.691406 C 348.015625 187.3125 347.265625 187.863281 347.855469 187.578125 C 348.039062 187.484375 347.972656 187.511719 347.65625 187.664062 C 347.785156 187.625 347.917969 187.589844 348.054688 187.566406 C 347.621094 187.664062 347.757812 187.617188 348.128906 187.628906 C 347.726562 187.570312 347.675781 187.574219 347.984375 187.644531 C 347.886719 187.601562 347.789062 187.554688 347.695312 187.507812 C 348.261719 187.816406 347.855469 187.605469 347.609375 187.277344 C 348.515625 188.480469 350.015625 189.109375 351.425781 188.28125 C 352.605469 187.585938 353.339844 185.667969 352.425781 184.453125 C 350.691406 182.152344 347.757812 181.335938 345.128906 182.699219 C 342.386719 184.125 341.714844 187.566406 343.238281 190.132812 C 344.808594 192.789062 348.363281 193.695312 350.867188 191.8125 C 353.097656 190.132812 353.925781 186.898438 352.425781 184.453125 C 351.636719 183.167969 349.929688 182.675781 348.609375 183.453125 C 347.324219 184.203125 346.816406 185.984375 347.609375 187.277344 " fill-opacity="1" fill-rule="nonzero"/><path fill="rgb(6.269836%, 5.879211%, 5.099487%)" d="M 319.136719 217.402344 C 315.007812 215.800781 310.484375 215.246094 306.09375 215.792969 C 304.535156 215.988281 302.820312 216.433594 302 217.777344 C 301.125 219.203125 301.675781 221.179688 302.882812 222.339844 C 304.085938 223.5 305.785156 223.996094 307.4375 224.238281 C 309.695312 224.570312 312.011719 224.515625 314.25 224.074219 C 316.003906 223.726562 317.871094 223.011719 318.703125 221.425781 C 319.53125 219.835938 318.464844 217.351562 316.6875 217.519531 " fill-opacity="1" fill-rule="nonzero"/><path fill="rgb(6.269836%, 5.879211%, 5.099487%)" d="M 319.675781 215.441406 C 314.808594 213.640625 307.675781 212.253906 302.746094 214.597656 C 297.785156 216.960938 299.269531 223.253906 303.679688 225.265625 C 307.855469 227.167969 314.738281 227.230469 318.59375 224.492188 C 322.128906 221.984375 321.625 215.671875 316.6875 215.484375 C 314.078125 215.386719 314.082031 219.453125 316.6875 219.550781 C 317.828125 219.59375 315.84375 221.445312 315.53125 221.59375 C 314.472656 222.09375 313.140625 222.257812 311.992188 222.355469 C 309.703125 222.546875 305.648438 222.695312 304.089844 220.609375 C 301.84375 217.601562 308.085938 217.613281 309.597656 217.625 C 312.703125 217.648438 315.691406 218.285156 318.597656 219.363281 C 321.050781 220.269531 322.109375 216.34375 319.675781 215.441406 " fill-opacity="1" fill-rule="nonzero"/><path fill="rgb(6.269836%, 5.879211%, 5.099487%)" d="M 308.90625 222.148438 C 310.925781 238.632812 312.554688 255.371094 312.238281 271.996094 C 312.1875 274.613281 316.242188 274.613281 316.292969 271.996094 C 316.609375 255.371094 314.984375 238.632812 312.960938 222.148438 C 312.648438 219.585938 308.589844 219.554688 308.90625 222.148438 " fill-opacity="1" fill-rule="nonzero"/><path fill="rgb(6.269836%, 5.879211%, 5.099487%)" d="M 380.46875 157.078125 C 374.828125 156.285156 369.105469 151.699219 369.636719 146.015625 C 370.226562 139.625 378.152344 136.394531 384.449219 137.554688 C 388.441406 138.289062 392.585938 140.675781 393.507812 144.636719 C 394.234375 147.746094 392.730469 151.035156 390.457031 153.273438 C 388.183594 155.507812 385.234375 156.890625 382.347656 158.234375 " fill-opacity="1" fill-rule="nonzero"/><path fill="rgb(6.269836%, 5.879211%, 5.099487%)" d="M 381.007812 155.117188 C 376.847656 154.433594 371.523438 151.503906 371.628906 146.621094 C 371.726562 142.21875 376.429688 139.871094 380.253906 139.4375 C 384.242188 138.984375 390.242188 140.457031 391.472656 144.886719 C 393.148438 150.925781 385.59375 154.488281 381.324219 156.480469 C 378.957031 157.585938 381.015625 161.089844 383.371094 159.992188 C 388.5625 157.570312 394.34375 154.363281 395.511719 148.191406 C 396.550781 142.699219 392.828125 138.363281 387.957031 136.453125 C 379.84375 133.269531 365.953125 137.5 367.71875 148.34375 C 368.667969 154.1875 374.421875 158.132812 379.929688 159.035156 C 382.484375 159.457031 383.582031 155.539062 381.007812 155.117188 " fill-opacity="1" fill-rule="nonzero"/><path fill="rgb(6.269836%, 5.879211%, 5.099487%)" d="M 244.964844 153.9375 C 241.386719 155.542969 237.6875 157.171875 233.765625 157.261719 C 229.84375 157.355469 225.605469 155.523438 224.054688 151.910156 C 222.4375 148.148438 224.449219 143.378906 228.078125 141.496094 C 231.703125 139.609375 236.417969 140.480469 239.496094 143.175781 C 242.574219 145.871094 244.0625 150.121094 243.894531 154.214844 " fill-opacity="1" fill-rule="nonzero"/><path fill="rgb(6.269836%, 5.879211%, 5.099487%)" d="M 243.941406 152.183594 C 239.910156 153.984375 235.265625 156.101562 230.769531 154.871094 C 226.992188 153.835938 224.371094 150.417969 226.082031 146.519531 C 227.785156 142.632812 232.339844 141.667969 235.988281 143.320312 C 240.183594 145.214844 241.945312 149.855469 241.867188 154.214844 C 241.816406 156.832031 245.875 156.832031 245.921875 154.214844 C 246.035156 148.128906 243.144531 141.921875 237.316406 139.484375 C 231.871094 137.207031 225.273438 138.910156 222.585938 144.4375 C 220.085938 149.578125 222.160156 155.359375 227.261719 157.859375 C 233.519531 160.921875 240.09375 158.324219 245.992188 155.695312 C 248.371094 154.632812 246.308594 151.128906 243.941406 152.183594 " fill-opacity="1" fill-rule="nonzero"/><g fill="rgb(0%, 0%, 0%)" fill-opacity="1"><g transform="translate(445.541045, 587.957803)"><g><path d="M 167.472656 -85.46875 C 167.472656 -68.53125 161.3125 -54.285156 149.378906 -42.351562 C 137.058594 -30.03125 122.8125 -24.253906 105.875 -24.253906 C 88.933594 -24.253906 74.304688 -30.03125 62.371094 -42.351562 C 50.050781 -54.285156 44.273438 -68.53125 44.273438 -85.46875 C 44.273438 -102.410156 50.050781 -116.652344 62.371094 -128.972656 C 74.304688 -140.910156 88.933594 -147.070312 105.875 -147.070312 C 122.8125 -147.070312 137.058594 -140.910156 149.378906 -128.972656 C 161.3125 -116.652344 167.472656 -102.410156 167.472656 -85.46875 Z M 194.421875 -85.46875 C 194.421875 -109.722656 185.570312 -130.515625 168.242188 -147.839844 C 150.917969 -165.164062 130.128906 -174.019531 105.875 -174.019531 C 81.234375 -174.019531 60.445312 -165.164062 43.121094 -147.839844 C 25.792969 -130.515625 17.324219 -109.722656 17.324219 -85.46875 C 17.324219 -60.828125 25.792969 -40.039062 43.121094 -23.101562 C 60.445312 -5.773438 81.621094 2.695312 105.875 2.695312 C 129.746094 2.695312 150.917969 -5.773438 168.242188 -23.101562 C 185.570312 -40.039062 194.421875 -60.828125 194.421875 -85.46875 Z M 194.421875 -85.46875 "/></g></g></g></svg>