<svg xmlns="http://www.w3.org/2000/svg" xmlns:xlink="http://www.w3.org/1999/xlink" width="1080" zoomAndPan="magnify" viewBox="0 0 810 809.999993" height="1080" preserveAspectRatio="xMidYMid meet" version="1.0"><defs><g/><clipPath id="id1"><path d="M 539 475.023438 L 582 475.023438 L 582 496 L 539 496 Z M 539 475.023438 " clip-rule="nonzero"/></clipPath></defs><rect x="-81" width="972" fill="rgb(100%, 100%, 100%)" y="-80.999999" height="971.999992" fill-opacity="1"/><rect x="-81" width="972" fill="rgb(100%, 100%, 100%)" y="-80.999999" height="971.999992" fill-opacity="1"/><g fill="rgb(8.239746%, 43.919373%, 55.288696%)" fill-opacity="1"><g transform="translate(202.779221, 587.937178)"><g><path d="M 55.855469 -129.816406 L 55.855469 -236.132812 L 116.71875 -236.132812 C 132.511719 -236.132812 145.222656 -231.125 154.851562 -221.496094 C 164.097656 -211.480469 169.105469 -199.152344 169.105469 -183.742188 C 169.105469 -167.949219 164.097656 -155.238281 154.082031 -144.839844 C 144.066406 -134.824219 131.742188 -129.816406 116.71875 -129.816406 Z M 196.070312 -182.972656 C 196.070312 -206.085938 187.597656 -224.960938 171.417969 -239.984375 C 155.238281 -254.621094 135.976562 -261.941406 112.867188 -261.941406 L 28.890625 -261.941406 L 28.890625 0 L 55.855469 0 L 55.855469 -103.621094 L 112.867188 -103.621094 C 135.976562 -103.621094 155.625 -110.941406 171.417969 -125.578125 C 187.597656 -140.984375 196.070312 -159.859375 196.070312 -182.972656 Z M 196.070312 -182.972656 "/></g></g></g><g fill="rgb(100%, 78.819275%, 33.329773%)" fill-opacity="1"><g transform="translate(406.555303, 495.984369)"><g><path d="M 55.824219 96.25 L 55.824219 -28.875 C 56.980469 -26.566406 58.90625 -24.640625 60.445312 -23.101562 C 76.613281 -5.003906 96.25 3.851562 119.734375 3.851562 C 142.835938 3.851562 162.46875 -5.003906 178.640625 -23.101562 C 194.039062 -40.425781 202.125 -60.828125 202.125 -84.699219 C 202.125 -108.183594 194.039062 -128.589844 178.640625 -146.300781 C 162.46875 -164.007812 142.835938 -173.25 119.734375 -173.25 C 96.25 -173.25 76.613281 -164.007812 60.445312 -146.300781 C 58.90625 -144.375 56.980469 -142.449219 55.824219 -140.140625 L 55.824219 -169.398438 L 28.875 -169.398438 L 28.875 96.25 Z M 175.175781 -84.699219 C 175.175781 -68.144531 169.398438 -53.515625 157.847656 -41.578125 C 146.300781 -29.261719 132.054688 -23.101562 115.5 -23.101562 C 98.558594 -23.101562 84.316406 -29.261719 72.765625 -41.578125 C 61.214844 -53.515625 55.824219 -68.144531 55.824219 -84.699219 C 55.824219 -100.871094 61.214844 -115.5 72.765625 -127.820312 C 84.316406 -140.140625 98.558594 -146.300781 115.5 -146.300781 C 132.054688 -146.300781 146.300781 -140.140625 157.847656 -127.820312 C 169.398438 -115.5 175.175781 -100.871094 175.175781 -84.699219 Z M 175.175781 -84.699219 "/></g></g></g><path fill="rgb(16.468811%, 72.549438%, 89.408875%)" d="M 617.984375 541.015625 C 617.984375 542.078125 617.960938 543.144531 617.90625 544.207031 C 617.855469 545.269531 617.777344 546.328125 617.671875 547.386719 C 617.570312 548.445312 617.4375 549.503906 617.28125 550.554688 C 617.125 551.605469 616.945312 552.65625 616.738281 553.699219 C 616.53125 554.742188 616.296875 555.78125 616.039062 556.8125 C 615.78125 557.84375 615.496094 558.871094 615.1875 559.886719 C 614.878906 560.90625 614.546875 561.914062 614.1875 562.917969 C 613.828125 563.917969 613.445312 564.910156 613.039062 565.894531 C 612.632812 566.878906 612.203125 567.851562 611.746094 568.8125 C 611.292969 569.773438 610.816406 570.722656 610.3125 571.660156 C 609.8125 572.601562 609.289062 573.527344 608.742188 574.4375 C 608.195312 575.351562 607.625 576.25 607.035156 577.132812 C 606.445312 578.019531 605.832031 578.886719 605.199219 579.742188 C 604.566406 580.597656 603.910156 581.4375 603.238281 582.257812 C 602.5625 583.082031 601.867188 583.886719 601.152344 584.675781 C 600.441406 585.460938 599.707031 586.234375 598.957031 586.984375 C 598.203125 587.738281 597.433594 588.472656 596.644531 589.1875 C 595.859375 589.898438 595.050781 590.59375 594.230469 591.269531 C 593.410156 591.945312 592.570312 592.597656 591.714844 593.234375 C 590.863281 593.867188 589.992188 594.480469 589.109375 595.070312 C 588.226562 595.660156 587.328125 596.230469 586.414062 596.777344 C 585.503906 597.324219 584.578125 597.847656 583.640625 598.351562 C 582.703125 598.851562 581.753906 599.332031 580.789062 599.785156 C 579.828125 600.238281 578.859375 600.671875 577.875 601.078125 C 576.894531 601.484375 575.902344 601.867188 574.898438 602.226562 C 573.898438 602.585938 572.890625 602.917969 571.871094 603.226562 C 570.855469 603.535156 569.828125 603.820312 568.796875 604.078125 C 567.765625 604.335938 566.730469 604.570312 565.6875 604.777344 C 564.644531 604.984375 563.597656 605.167969 562.542969 605.324219 C 561.492188 605.480469 560.4375 605.609375 559.378906 605.714844 C 558.320312 605.816406 557.261719 605.894531 556.199219 605.949219 C 555.136719 606 554.074219 606.027344 553.011719 606.027344 C 551.945312 606.027344 550.882812 606 549.820312 605.949219 C 548.757812 605.894531 547.699219 605.816406 546.640625 605.714844 C 545.582031 605.609375 544.527344 605.480469 543.476562 605.324219 C 542.425781 605.167969 541.375 604.984375 540.332031 604.777344 C 539.289062 604.570312 538.253906 604.335938 537.222656 604.078125 C 536.191406 603.820312 535.164062 603.535156 534.148438 603.226562 C 533.128906 602.917969 532.121094 602.585938 531.121094 602.226562 C 530.117188 601.867188 529.128906 601.484375 528.144531 601.078125 C 527.164062 600.671875 526.191406 600.238281 525.230469 599.785156 C 524.269531 599.332031 523.316406 598.851562 522.378906 598.351562 C 521.441406 597.847656 520.519531 597.324219 519.605469 596.777344 C 518.695312 596.230469 517.796875 595.660156 516.910156 595.070312 C 516.027344 594.480469 515.15625 593.867188 514.304688 593.234375 C 513.449219 592.597656 512.613281 591.945312 511.789062 591.269531 C 510.96875 590.59375 510.164062 589.898438 509.375 589.1875 C 508.585938 588.472656 507.816406 587.738281 507.066406 586.984375 C 506.3125 586.234375 505.578125 585.460938 504.867188 584.675781 C 504.152344 583.886719 503.457031 583.082031 502.78125 582.257812 C 502.109375 581.4375 501.453125 580.597656 500.820312 579.742188 C 500.1875 578.886719 499.574219 578.019531 498.984375 577.132812 C 498.394531 576.25 497.824219 575.351562 497.277344 574.4375 C 496.730469 573.527344 496.207031 572.601562 495.707031 571.660156 C 495.203125 570.722656 494.726562 569.773438 494.273438 568.8125 C 493.816406 567.851562 493.386719 566.878906 492.980469 565.894531 C 492.574219 564.910156 492.191406 563.917969 491.832031 562.917969 C 491.472656 561.914062 491.140625 560.90625 490.832031 559.886719 C 490.523438 558.871094 490.238281 557.84375 489.980469 556.8125 C 489.722656 555.78125 489.488281 554.742188 489.28125 553.699219 C 489.074219 552.65625 488.894531 551.605469 488.738281 550.554688 C 488.582031 549.503906 488.449219 548.445312 488.347656 547.386719 C 488.242188 546.328125 488.164062 545.269531 488.113281 544.207031 C 488.058594 543.144531 488.035156 542.078125 488.035156 541.015625 C 488.035156 539.953125 488.058594 538.886719 488.113281 537.824219 C 488.164062 536.761719 488.242188 535.703125 488.347656 534.644531 C 488.449219 533.585938 488.582031 532.527344 488.738281 531.476562 C 488.894531 530.425781 489.074219 529.375 489.28125 528.332031 C 489.488281 527.289062 489.722656 526.25 489.980469 525.21875 C 490.238281 524.1875 490.523438 523.160156 490.832031 522.144531 C 491.140625 521.125 491.472656 520.117188 491.832031 519.113281 C 492.191406 518.113281 492.574219 517.121094 492.980469 516.136719 C 493.386719 515.152344 493.816406 514.179688 494.273438 513.21875 C 494.726562 512.257812 495.203125 511.308594 495.707031 510.371094 C 496.207031 509.429688 496.730469 508.503906 497.277344 507.59375 C 497.824219 506.679688 498.394531 505.78125 498.984375 504.898438 C 499.574219 504.011719 500.1875 503.144531 500.820312 502.289062 C 501.453125 501.433594 502.109375 500.59375 502.78125 499.773438 C 503.457031 498.949219 504.152344 498.144531 504.867188 497.355469 C 505.578125 496.566406 506.3125 495.796875 507.066406 495.046875 C 507.816406 494.292969 508.585938 493.558594 509.375 492.84375 C 510.164062 492.128906 510.96875 491.4375 511.789062 490.761719 C 512.613281 490.085938 513.449219 489.433594 514.304688 488.796875 C 515.15625 488.164062 516.027344 487.550781 516.910156 486.960938 C 517.796875 486.371094 518.695312 485.800781 519.605469 485.253906 C 520.519531 484.707031 521.441406 484.183594 522.378906 483.679688 C 523.316406 483.179688 524.269531 482.699219 525.230469 482.246094 C 526.191406 481.792969 527.164062 481.359375 528.144531 480.953125 C 529.128906 480.546875 530.117188 480.164062 531.121094 479.804688 C 532.121094 479.445312 533.128906 479.113281 534.148438 478.804688 C 535.164062 478.496094 536.191406 478.210938 537.222656 477.953125 C 538.253906 477.695312 539.289062 477.460938 540.332031 477.253906 C 541.375 477.046875 542.425781 476.863281 543.476562 476.707031 C 544.527344 476.550781 545.582031 476.421875 546.640625 476.316406 C 547.699219 476.214844 548.757812 476.132812 549.820312 476.082031 C 550.882812 476.03125 551.945312 476.003906 553.011719 476.003906 C 554.074219 476.003906 555.136719 476.03125 556.199219 476.082031 C 557.261719 476.132812 558.320312 476.214844 559.378906 476.316406 C 560.4375 476.421875 561.492188 476.550781 562.542969 476.707031 C 563.597656 476.863281 564.644531 477.046875 565.6875 477.253906 C 566.730469 477.460938 567.765625 477.695312 568.796875 477.953125 C 569.828125 478.210938 570.855469 478.496094 571.871094 478.804688 C 572.890625 479.113281 573.898438 479.445312 574.898438 479.804688 C 575.902344 480.164062 576.894531 480.546875 577.875 480.953125 C 578.859375 481.359375 579.828125 481.792969 580.789062 482.246094 C 581.753906 482.699219 582.703125 483.179688 583.640625 483.679688 C 584.578125 484.183594 585.503906 484.707031 586.414062 485.253906 C 587.328125 485.800781 588.226562 486.371094 589.109375 486.960938 C 589.992188 487.550781 590.863281 488.164062 591.714844 488.796875 C 592.570312 489.433594 593.410156 490.085938 594.230469 490.761719 C 595.050781 491.4375 595.859375 492.128906 596.644531 492.84375 C 597.433594 493.558594 598.203125 494.292969 598.957031 495.046875 C 599.707031 495.796875 600.441406 496.566406 601.152344 497.355469 C 601.867188 498.144531 602.5625 498.949219 603.238281 499.773438 C 603.910156 500.59375 604.566406 501.433594 605.199219 502.289062 C 605.832031 503.144531 606.445312 504.011719 607.035156 504.898438 C 607.625 505.78125 608.195312 506.679688 608.742188 507.59375 C 609.289062 508.503906 609.8125 509.429688 610.3125 510.371094 C 610.816406 511.308594 611.292969 512.257812 611.746094 513.21875 C 612.203125 514.179688 612.632812 515.152344 613.039062 516.136719 C 613.445312 517.121094 613.828125 518.113281 614.1875 519.113281 C 614.546875 520.117188 614.878906 521.125 615.1875 522.144531 C 615.496094 523.160156 615.78125 524.1875 616.039062 525.21875 C 616.296875 526.25 616.53125 527.289062 616.738281 528.332031 C 616.945312 529.375 617.125 530.425781 617.28125 531.476562 C 617.4375 532.527344 617.570312 533.585938 617.671875 534.644531 C 617.777344 535.703125 617.855469 536.761719 617.90625 537.824219 C 617.960938 538.886719 617.984375 539.953125 617.984375 541.015625 Z M 617.984375 541.015625 " fill-opacity="1" fill-rule="nonzero"/><g clip-path="url(#id1)"><path fill="rgb(97.24884%, 45.098877%, 69.018555%)" d="M 539.742188 477.363281 C 539.742188 477.363281 575.644531 485.460938 579.394531 495.859375 C 582.339844 491.359375 580.757812 482.214844 580.757812 482.214844 C 580.757812 482.214844 564.433594 472.363281 539.742188 477.363281 Z M 539.742188 477.363281 " fill-opacity="1" fill-rule="nonzero"/></g><path fill="rgb(97.24884%, 45.098877%, 69.018555%)" d="M 579.390625 495.859375 C 579.390625 495.859375 590.585938 531.550781 549.347656 606.023438 C 592.15625 607.472656 609.824219 574.566406 612.574219 567.027344 C 616.179688 525.746094 586.816406 497.4375 579.390625 495.859375 Z M 579.390625 495.859375 " fill-opacity="1" fill-rule="nonzero"/><path fill="rgb(99.21875%, 78.039551%, 30.979919%)" d="M 493.675781 567.542969 C 493.675781 567.542969 518.757812 513.714844 579.390625 495.859375 C 588.457031 539.800781 549.347656 606.023438 549.347656 606.023438 C 549.347656 606.023438 510.851562 606.023438 493.675781 567.542969 Z M 493.675781 567.542969 " fill-opacity="1" fill-rule="nonzero"/><path fill="rgb(99.21875%, 78.039551%, 30.979919%)" d="M 579.390625 495.859375 C 579.390625 495.859375 592.886719 493.523438 605.105469 502.15625 C 594.105469 487.398438 580.753906 482.214844 580.753906 482.214844 C 580.753906 482.214844 581.496094 490.78125 579.390625 495.859375 Z M 579.390625 495.859375 " fill-opacity="1" fill-rule="nonzero"/><path fill="rgb(91.758728%, 91.758728%, 91.758728%)" d="M 590.378906 502.882812 C 590.132812 503.265625 589.820312 503.601562 589.441406 503.886719 C 589.058594 504.171875 588.621094 504.402344 588.117188 504.582031 C 587.613281 504.757812 587.0625 504.878906 586.457031 504.941406 C 585.855469 505.003906 585.210938 505.003906 584.527344 504.949219 C 583.84375 504.894531 583.136719 504.78125 582.398438 504.609375 C 581.664062 504.441406 580.917969 504.214844 580.15625 503.933594 C 579.398438 503.65625 578.640625 503.328125 577.882812 502.949219 C 577.128906 502.570312 576.390625 502.152344 575.667969 501.691406 C 574.949219 501.230469 574.257812 500.734375 573.597656 500.207031 C 572.9375 499.679688 572.324219 499.132812 571.75 498.558594 C 571.175781 497.984375 570.660156 497.402344 570.195312 496.804688 C 569.730469 496.210938 569.332031 495.613281 568.996094 495.015625 C 568.65625 494.417969 568.390625 493.832031 568.191406 493.257812 C 567.996094 492.683594 567.871094 492.132812 567.820312 491.601562 C 567.773438 491.070312 567.796875 490.574219 567.894531 490.109375 C 567.996094 489.640625 568.167969 489.21875 568.410156 488.835938 C 568.65625 488.453125 568.96875 488.117188 569.347656 487.832031 C 569.730469 487.546875 570.171875 487.316406 570.671875 487.136719 C 571.175781 486.960938 571.726562 486.839844 572.332031 486.777344 C 572.9375 486.71875 573.578125 486.714844 574.261719 486.769531 C 574.945312 486.824219 575.65625 486.9375 576.390625 487.109375 C 577.125 487.28125 577.875 487.503906 578.632812 487.785156 C 579.394531 488.0625 580.152344 488.390625 580.90625 488.769531 C 581.660156 489.148438 582.398438 489.566406 583.121094 490.027344 C 583.839844 490.488281 584.53125 490.984375 585.191406 491.511719 C 585.851562 492.039062 586.46875 492.589844 587.039062 493.160156 C 587.613281 493.734375 588.132812 494.316406 588.59375 494.914062 C 589.058594 495.511719 589.457031 496.105469 589.796875 496.703125 C 590.132812 497.300781 590.398438 497.886719 590.597656 498.460938 C 590.792969 499.035156 590.917969 499.589844 590.96875 500.117188 C 591.019531 500.648438 590.992188 501.144531 590.894531 501.613281 C 590.796875 502.078125 590.625 502.5 590.378906 502.882812 Z M 590.378906 502.882812 " fill-opacity="1" fill-rule="nonzero"/><path fill="rgb(100%, 100%, 100%)" d="M 616.921875 538.222656 C 616.921875 540.222656 616.820312 542.222656 616.625 544.214844 C 616.429688 546.207031 616.136719 548.1875 615.746094 550.152344 C 615.355469 552.113281 614.871094 554.054688 614.289062 555.972656 C 613.707031 557.886719 613.035156 559.773438 612.269531 561.621094 C 611.5 563.472656 610.648438 565.28125 609.703125 567.046875 C 608.757812 568.8125 607.730469 570.527344 606.621094 572.195312 C 605.507812 573.859375 604.316406 575.464844 603.046875 577.015625 C 601.777344 578.5625 600.433594 580.042969 599.019531 581.460938 C 597.605469 582.875 596.121094 584.21875 594.574219 585.492188 C 593.027344 586.761719 591.421875 587.953125 589.757812 589.066406 C 588.09375 590.179688 586.378906 591.207031 584.613281 592.148438 C 582.847656 593.09375 581.039062 593.949219 579.191406 594.714844 C 577.34375 595.484375 575.460938 596.15625 573.542969 596.738281 C 571.628906 597.320312 569.691406 597.804688 567.726562 598.195312 C 565.761719 598.585938 563.785156 598.878906 561.792969 599.078125 C 559.800781 599.273438 557.804688 599.371094 555.804688 599.371094 C 553.800781 599.371094 551.804688 599.273438 549.8125 599.078125 C 547.820312 598.878906 545.84375 598.585938 543.878906 598.195312 C 541.917969 597.804688 539.976562 597.320312 538.0625 596.738281 C 536.144531 596.15625 534.265625 595.484375 532.414062 594.714844 C 530.566406 593.949219 528.757812 593.09375 526.992188 592.148438 C 525.226562 591.207031 523.511719 590.179688 521.847656 589.066406 C 520.183594 587.953125 518.578125 586.761719 517.03125 585.492188 C 515.484375 584.21875 514.003906 582.875 512.585938 581.460938 C 511.171875 580.042969 509.828125 578.5625 508.558594 577.015625 C 507.289062 575.464844 506.097656 573.859375 504.984375 572.195312 C 503.875 570.527344 502.847656 568.8125 501.902344 567.046875 C 500.960938 565.28125 500.105469 563.472656 499.339844 561.621094 C 498.574219 559.773438 497.898438 557.886719 497.316406 555.972656 C 496.738281 554.054688 496.25 552.113281 495.859375 550.152344 C 495.46875 548.1875 495.175781 546.207031 494.980469 544.214844 C 494.785156 542.222656 494.6875 540.222656 494.6875 538.222656 C 494.6875 536.21875 494.785156 534.21875 494.980469 532.226562 C 495.175781 530.234375 495.46875 528.253906 495.859375 526.292969 C 496.25 524.328125 496.738281 522.386719 497.316406 520.46875 C 497.898438 518.554688 498.574219 516.671875 499.339844 514.820312 C 500.105469 512.96875 500.960938 511.160156 501.902344 509.394531 C 502.847656 507.628906 503.875 505.914062 504.984375 504.246094 C 506.097656 502.582031 507.289062 500.976562 508.558594 499.429688 C 509.828125 497.878906 511.171875 496.398438 512.585938 494.980469 C 514.003906 493.566406 515.484375 492.222656 517.03125 490.953125 C 518.578125 489.679688 520.183594 488.488281 521.847656 487.375 C 523.511719 486.265625 525.226562 485.234375 526.992188 484.292969 C 528.757812 483.347656 530.566406 482.492188 532.414062 481.726562 C 534.265625 480.960938 536.144531 480.285156 538.0625 479.703125 C 539.976562 479.121094 541.917969 478.636719 543.878906 478.246094 C 545.84375 477.855469 547.820312 477.5625 549.8125 477.367188 C 551.804688 477.167969 553.800781 477.070312 555.804688 477.070312 C 557.804688 477.070312 559.800781 477.167969 561.792969 477.367188 C 563.785156 477.5625 565.761719 477.855469 567.726562 478.246094 C 569.691406 478.636719 571.628906 479.121094 573.542969 479.703125 C 575.460938 480.285156 577.34375 480.960938 579.191406 481.726562 C 581.039062 482.492188 582.847656 483.347656 584.613281 484.292969 C 586.378906 485.234375 588.09375 486.265625 589.757812 487.375 C 591.421875 488.488281 593.027344 489.679688 594.574219 490.953125 C 596.121094 492.222656 597.605469 493.566406 599.019531 494.980469 C 600.433594 496.398438 601.777344 497.878906 603.046875 499.429688 C 604.316406 500.976562 605.507812 502.582031 606.621094 504.246094 C 607.730469 505.914062 608.757812 507.628906 609.703125 509.394531 C 610.648438 511.160156 611.5 512.96875 612.269531 514.820312 C 613.035156 516.671875 613.707031 518.554688 614.289062 520.46875 C 614.871094 522.386719 615.355469 524.328125 615.746094 526.292969 C 616.136719 528.253906 616.429688 530.234375 616.625 532.226562 C 616.820312 534.21875 616.921875 536.21875 616.921875 538.222656 Z M 616.921875 538.222656 " fill-opacity="0.149" fill-rule="nonzero"/></svg>