<svg xmlns="http://www.w3.org/2000/svg" xmlns:xlink="http://www.w3.org/1999/xlink" width="1080" zoomAndPan="magnify" viewBox="0 0 810 809.999993" height="1080" preserveAspectRatio="xMidYMid meet" version="1.0"><defs><g/><clipPath id="id1"><path d="M 150 472 L 320 472 L 320 614.621094 L 150 614.621094 Z M 150 472 " clip-rule="nonzero"/></clipPath><clipPath id="id2"><path d="M 150 453.371094 L 320 453.371094 L 320 527 L 150 527 Z M 150 453.371094 " clip-rule="nonzero"/></clipPath></defs><rect x="-81" width="972" fill="rgb(100%, 100%, 100%)" y="-80.999999" height="971.999992" fill-opacity="1"/><rect x="-81" width="972" fill="rgb(100%, 100%, 100%)" y="-80.999999" height="971.999992" fill-opacity="1"/><g fill="rgb(47.059631%, 17.649841%, 48.629761%)" fill-opacity="1"><g transform="translate(148.970036, 543.340305)"><g><path d="M 286.59375 -130.585938 C 286.59375 -149.074219 282.742188 -166.410156 275.808594 -182.972656 C 268.875 -199.152344 259.246094 -213.40625 246.917969 -225.730469 C 234.589844 -238.058594 220.339844 -247.6875 204.160156 -254.621094 C 187.597656 -261.554688 170.261719 -265.40625 151.773438 -265.40625 C 133.28125 -265.40625 115.5625 -261.554688 99.382812 -254.621094 C 83.203125 -247.6875 68.953125 -238.058594 56.625 -225.730469 C 44.300781 -213.40625 34.667969 -199.152344 27.734375 -182.972656 C 20.800781 -166.410156 17.335938 -149.074219 17.335938 -130.585938 C 17.335938 -112.09375 20.800781 -94.375 27.734375 -78.195312 C 34.667969 -62.019531 44.300781 -47.765625 56.625 -35.4375 C 68.953125 -23.113281 83.203125 -13.480469 99.382812 -6.546875 C 115.5625 0.386719 133.28125 3.851562 151.773438 3.851562 C 162.558594 3.851562 173.34375 2.695312 183.742188 0 L 290.445312 0 L 290.445312 -21.957031 L 251.15625 -21.957031 C 241.523438 -19.644531 231.507812 -17.335938 220.722656 -15.023438 C 230.355469 -20.800781 239.214844 -27.734375 246.917969 -35.4375 C 259.246094 -47.765625 268.875 -62.019531 275.808594 -78.195312 C 282.742188 -94.375 286.59375 -112.09375 286.59375 -130.585938 Z M 259.628906 -130.585938 C 259.628906 -100.925781 248.84375 -75.5 228.042969 -54.699219 C 206.855469 -33.511719 181.433594 -23.113281 151.773438 -23.113281 C 122.109375 -23.113281 96.6875 -33.511719 75.886719 -54.699219 C 54.699219 -75.5 44.300781 -100.925781 44.300781 -130.585938 C 44.300781 -160.246094 54.699219 -185.671875 75.886719 -206.855469 C 96.6875 -227.65625 122.109375 -238.445312 151.773438 -238.445312 C 181.433594 -238.445312 206.855469 -227.65625 228.042969 -206.855469 C 248.84375 -185.671875 259.628906 -160.246094 259.628906 -130.585938 Z M 259.628906 -130.585938 "/></g></g></g><g clip-path="url(#id1)"><path fill="rgb(100%, 67.449951%, 19.999695%)" d="M 266.167969 472.589844 L 266.222656 489.132812 L 239.574219 482.234375 L 254.203125 472.28125 Z M 159.246094 559.289062 C 159.246094 553.625 155.453125 548.980469 150.527344 548.148438 L 150.527344 490.125 C 170.457031 485.335938 319.945312 525.914062 319.945312 525.914062 L 319.945312 543.511719 C 312.152344 544.972656 306.242188 551.78125 306.242188 559.996094 C 306.242188 568.207031 312.152344 575.023438 319.945312 576.488281 L 319.945312 614.890625 L 150.527344 582.628906 L 150.527344 570.429688 C 155.453125 569.59375 159.246094 564.945312 159.246094 559.289062 Z M 159.246094 559.289062 " fill-opacity="1" fill-rule="nonzero"/></g><g clip-path="url(#id2)"><path fill="rgb(100%, 85.099792%, 51.368713%)" d="M 247.269531 453.578125 L 266.417969 472.707031 C 262.746094 473.5625 260.148438 475.648438 260.148438 478.089844 C 260.148438 481.300781 264.613281 483.898438 270.113281 483.898438 C 272.476562 483.898438 274.613281 483.402344 276.320312 482.605469 L 319.945312 526.171875 C 254.335938 511.683594 210.109375 499.863281 150.027344 490.207031 C 174.253906 457.949219 231.113281 453.578125 247.269531 453.578125 Z M 247.269531 453.578125 " fill-opacity="1" fill-rule="nonzero"/></g><path fill="rgb(100%, 67.449951%, 19.999695%)" d="M 225.269531 468.136719 C 225.269531 471.347656 229.734375 473.945312 235.234375 473.945312 C 240.734375 473.945312 245.199219 471.347656 245.199219 468.136719 C 245.199219 464.925781 240.734375 462.328125 235.234375 462.328125 C 229.734375 462.328125 225.269531 464.925781 225.269531 468.136719 Z M 249.824219 499.964844 C 249.824219 504.832031 256.597656 508.777344 264.953125 508.777344 C 273.308594 508.777344 280.082031 504.832031 280.082031 499.964844 C 280.082031 495.101562 273.308594 491.148438 264.953125 491.148438 C 256.601562 491.15625 249.824219 495.101562 249.824219 499.964844 Z M 180.421875 483.988281 C 180.421875 489.433594 188 493.847656 197.34375 493.847656 C 206.6875 493.847656 214.265625 489.433594 214.265625 483.988281 C 214.265625 478.542969 206.6875 474.128906 197.34375 474.128906 C 188 474.128906 180.421875 478.542969 180.421875 483.988281 Z M 180.421875 483.988281 " fill-opacity="1" fill-rule="nonzero"/><path fill="rgb(95.689392%, 56.469727%, 4.708862%)" d="M 157.378906 520.160156 C 157.378906 526.789062 162.253906 532.160156 168.28125 532.160156 C 174.304688 532.160156 179.183594 526.789062 179.183594 520.160156 C 179.183594 513.53125 174.304688 508.160156 168.28125 508.160156 C 162.253906 508.160156 157.378906 513.53125 157.378906 520.160156 Z M 268.246094 544.355469 C 268.246094 550.601562 272.847656 555.664062 278.519531 555.664062 C 284.195312 555.664062 288.796875 550.597656 288.796875 544.355469 C 288.796875 538.105469 284.195312 533.042969 278.519531 533.042969 C 272.847656 533.042969 268.246094 538.109375 268.246094 544.355469 Z M 182.761719 569.140625 C 185.265625 572.136719 189.511719 572.726562 192.242188 570.445312 C 194.96875 568.171875 195.140625 563.890625 192.625 560.894531 C 190.109375 557.882812 185.871094 557.300781 183.144531 559.578125 C 180.414062 561.855469 180.242188 566.128906 182.761719 569.140625 Z M 231.015625 532.421875 C 234.386719 536.457031 240.109375 537.25 243.78125 534.179688 C 247.449219 531.117188 247.683594 525.355469 244.296875 521.324219 C 240.910156 517.273438 235.199219 516.492188 231.53125 519.550781 C 227.859375 522.617188 227.625 528.375 231.015625 532.421875 Z M 226.664062 582.265625 C 232.644531 590.25 243.375 592.324219 250.621094 586.910156 C 257.871094 581.496094 258.910156 570.625 252.929688 562.648438 C 246.949219 554.660156 236.214844 552.582031 228.972656 557.992188 C 221.722656 563.410156 220.683594 574.277344 226.664062 582.265625 Z M 226.664062 582.265625 " fill-opacity="1" fill-rule="nonzero"/><g fill="rgb(100%, 67.449951%, 19.999695%)" fill-opacity="1"><g transform="translate(435.305814, 519.214681)"><g><path d="M 163.625 -84.699219 C 163.625 -68.144531 157.847656 -53.515625 146.300781 -41.578125 C 134.75 -29.261719 120.503906 -23.101562 103.949219 -23.101562 C 87.007812 -23.101562 72.765625 -29.261719 61.214844 -41.578125 C 49.664062 -53.515625 44.273438 -68.144531 44.273438 -84.699219 C 44.273438 -100.871094 49.664062 -115.5 61.214844 -127.820312 C 72.765625 -140.140625 87.007812 -146.300781 103.949219 -146.300781 C 120.503906 -146.300781 134.75 -140.140625 146.300781 -127.820312 C 157.847656 -115.5 163.625 -100.871094 163.625 -84.699219 Z M 190.574219 96.25 L 190.574219 -169.398438 L 163.625 -169.398438 L 163.625 -140.140625 C 162.082031 -142.449219 160.160156 -144.375 158.617188 -146.300781 C 142.449219 -164.007812 122.8125 -173.25 99.714844 -173.25 C 76.230469 -173.25 56.59375 -164.007812 40.425781 -146.300781 C 25.023438 -128.589844 17.324219 -108.183594 17.324219 -84.699219 C 17.324219 -60.828125 25.023438 -40.425781 40.425781 -23.101562 C 56.59375 -5.003906 76.230469 3.851562 99.714844 3.851562 C 122.8125 3.851562 142.449219 -5.003906 158.617188 -23.101562 C 160.160156 -24.640625 162.082031 -26.566406 163.625 -28.875 L 163.625 96.25 Z M 190.574219 96.25 "/></g></g></g></svg>