<svg xmlns="http://www.w3.org/2000/svg" xmlns:xlink="http://www.w3.org/1999/xlink" width="1080" zoomAndPan="magnify" viewBox="0 0 810 809.999993" height="1080" preserveAspectRatio="xMidYMid meet" version="1.0"><defs><g/><clipPath id="id1"><path d="M 207.84375 380 L 332 380 L 332 439 L 207.84375 439 Z M 207.84375 380 " clip-rule="nonzero"/></clipPath><clipPath id="id2"><path d="M 252 402 L 370.59375 402 L 370.59375 549.566406 L 252 549.566406 Z M 252 402 " clip-rule="nonzero"/></clipPath><clipPath id="id3"><path d="M 312 446 L 370.59375 446 L 370.59375 516 L 312 516 Z M 312 446 " clip-rule="nonzero"/></clipPath><clipPath id="id4"><path d="M 310 519 L 364 519 L 364 549.566406 L 310 549.566406 Z M 310 519 " clip-rule="nonzero"/></clipPath><clipPath id="id5"><path d="M 310 522 L 353 522 L 353 549.566406 L 310 549.566406 Z M 310 522 " clip-rule="nonzero"/></clipPath><clipPath id="id6"><path d="M 264 519 L 317 519 L 317 549.566406 L 264 549.566406 Z M 264 519 " clip-rule="nonzero"/></clipPath><clipPath id="id7"><path d="M 274 522 L 317 522 L 317 549.566406 L 274 549.566406 Z M 274 522 " clip-rule="nonzero"/></clipPath></defs><rect x="-81" width="972" fill="rgb(100%, 100%, 100%)" y="-80.999999" height="971.999992" fill-opacity="1"/><rect x="-81" width="972" fill="rgb(100%, 100%, 100%)" y="-80.999999" height="971.999992" fill-opacity="1"/><rect x="-81" width="972" fill="rgb(100%, 100%, 100%)" y="-80.999999" height="971.999992" fill-opacity="1"/><g fill="rgb(32.939148%, 32.939148%, 32.939148%)" fill-opacity="1"><g transform="translate(265.608417, 539.627585)"><g><path d="M 55.855469 -129.429688 L 55.855469 -236.132812 L 116.71875 -236.132812 C 132.511719 -236.132812 145.222656 -231.125 154.851562 -221.109375 C 164.097656 -211.09375 169.105469 -198.765625 169.105469 -183.359375 C 169.105469 -167.949219 164.097656 -155.238281 154.082031 -144.839844 C 144.066406 -134.4375 131.742188 -129.429688 116.71875 -129.429688 Z M 196.070312 -182.972656 C 196.070312 -205.316406 187.597656 -224.574219 171.417969 -239.597656 C 155.625 -254.238281 135.976562 -261.941406 112.867188 -261.941406 L 28.890625 -261.941406 L 28.890625 0 L 55.855469 0 L 55.855469 -103.621094 L 87.058594 -103.621094 L 164.097656 0 L 200.308594 0 L 119.414062 -103.621094 C 139.832031 -104.777344 157.164062 -112.09375 171.417969 -125.578125 C 187.597656 -140.601562 196.070312 -159.859375 196.070312 -182.972656 Z M 196.070312 -182.972656 "/></g></g></g><path fill="rgb(100%, 100%, 100%)" d="M 320.089844 415.859375 C 319.167969 404.5 281.949219 374.113281 249.34375 404.808594 C 216.742188 435.503906 213.972656 421.078125 210.898438 421.691406 C 207.824219 422.304688 213.960938 428.953125 222.585938 427.828125 C 243.808594 425.066406 257.957031 398.667969 277.640625 398.976562 C 297.476562 399.285156 308.089844 416.472656 308.089844 416.472656 L 320.085938 415.859375 Z M 320.089844 415.859375 " fill-opacity="1" fill-rule="evenodd"/><g clip-path="url(#id1)"><path stroke-linecap="butt" transform="matrix(0.488592, 0, 0, 0.487601, 209.114993, 390.503907)" fill="none" stroke-linejoin="miter" d="M 227.131933 52.00049 C 225.245134 28.704014 149.069617 -33.614862 82.33609 29.336896 C 15.610559 92.288654 9.942167 62.703411 3.650171 63.961164 C -2.641824 65.218918 9.918182 78.853926 27.570946 76.546709 C 71.007301 70.882813 99.96487 16.74334 140.25123 17.376222 C 180.84939 18.009105 202.571565 53.258244 202.571565 53.258244 L 227.123938 52.00049 Z M 227.131933 52.00049 " stroke="rgb(0%, 0%, 0%)" stroke-width="4" stroke-opacity="1" stroke-miterlimit="4"/></g><path fill="rgb(0%, 0%, 0%)" d="M 277.609375 395.960938 C 268.789062 396.0625 259.246094 399.527344 250.113281 408.667969 C 241.703125 417.082031 235.511719 421.914062 230.890625 424.574219 L 230.890625 425.519531 C 247.757812 418.378906 260.636719 398.710938 277.640625 398.976562 C 297.476562 399.285156 308.085938 416.46875 308.085938 416.46875 L 312.699219 416.238281 C 309.140625 408.199219 294.726562 395.761719 277.609375 395.957031 Z M 277.609375 395.960938 " fill-opacity="0.3137" fill-rule="evenodd"/><path fill="rgb(74.899292%, 74.899292%, 74.899292%)" d="M 364.070312 464.355469 C 364.070312 492.144531 333.867188 543.246094 313.628906 543.246094 C 292.824219 543.246094 263.1875 492.144531 263.1875 464.355469 C 263.1875 436.566406 285.785156 414.015625 313.628906 414.015625 C 341.472656 414.015625 364.070312 436.570312 364.070312 464.355469 Z M 364.070312 464.355469 " fill-opacity="1" fill-rule="nonzero"/><g clip-path="url(#id2)"><path stroke-linecap="round" transform="matrix(0.488592, 0, 0, 0.487601, 209.114993, 390.503907)" fill="none" stroke-linejoin="miter" d="M 317.146642 151.459141 C 317.146642 208.45059 255.329986 313.25269 213.908349 313.25269 C 171.327451 313.25269 110.670057 208.45059 110.670057 151.459141 C 110.670057 94.467692 156.92062 48.219219 213.908349 48.219219 C 270.896079 48.219219 317.146642 94.475703 317.146642 151.459141 Z M 317.146642 151.459141 " stroke="rgb(0%, 0%, 0%)" stroke-width="4" stroke-opacity="1" stroke-miterlimit="4"/></g><path fill="rgb(0%, 0%, 0%)" d="M 363.394531 456.140625 C 363.515625 457.5625 363.574219 458.996094 363.574219 460.453125 C 363.574219 488.238281 333.382812 539.351562 313.144531 539.351562 C 294.167969 539.351562 267.835938 496.839844 263.351562 468.28125 C 265.847656 496.683594 293.769531 543.25 313.632812 543.25 C 333.871094 543.25 364.066406 492.140625 364.066406 464.351562 C 364.066406 461.554688 363.832031 458.8125 363.394531 456.140625 Z M 363.394531 456.140625 " fill-opacity="0.3137" fill-rule="nonzero"/><path fill="rgb(100%, 100%, 100%)" d="M 348.691406 504.132812 C 360.433594 502.980469 369.609375 493.097656 369.609375 481.082031 C 369.609375 468.289062 359.203125 457.902344 346.386719 457.902344 C 333.566406 457.902344 323.164062 468.289062 323.164062 481.082031 C 323.164062 481.980469 323.214844 482.875 323.316406 483.746094 " fill-opacity="1" fill-rule="nonzero"/><g clip-path="url(#id3)"><path stroke-linecap="round" transform="matrix(0.488592, 0, 0, 0.487601, 209.114993, 390.503907)" fill="none" stroke-linejoin="miter" d="M 285.670675 233.036865 C 309.703379 230.67357 328.483427 210.405315 328.483427 185.762963 C 328.483427 159.526387 307.184982 138.224692 280.953677 138.224692 C 254.714378 138.224692 233.423928 159.526387 233.423928 185.762963 C 233.423928 187.605531 233.527862 189.440089 233.73573 191.226579 " stroke="rgb(0%, 0%, 0%)" stroke-width="4" stroke-opacity="1" stroke-miterlimit="4"/></g><path stroke-linecap="round" transform="matrix(0.488592, 0, 0, 0.487601, 209.114993, 390.503907)" fill-opacity="1" fill="rgb(100%, 100%, 100%)" fill-rule="nonzero" stroke-linejoin="miter" d="M 190.851025 191.763327 C 191.098867 189.800591 191.226785 187.789788 191.226785 185.762963 C 191.226785 159.526387 169.960321 138.232703 143.721021 138.232703 C 117.489716 138.232703 96.191272 159.526387 96.191272 185.762963 C 96.191272 211.014164 115.906724 231.690989 140.786889 233.197088 " stroke="rgb(0%, 0%, 0%)" stroke-width="4" stroke-opacity="1" stroke-miterlimit="4"/><path fill="rgb(0%, 0%, 0%)" d="M 319.203125 532.6875 C 319.203125 535.675781 315.621094 539.253906 313.78125 539.253906 C 311.710938 539.253906 308.359375 535.675781 308.359375 532.6875 C 308.359375 529.699219 310.789062 530.039062 313.78125 530.039062 C 316.773438 530.039062 319.203125 529.699219 319.203125 532.6875 Z M 319.203125 532.6875 " fill-opacity="1" fill-rule="nonzero"/><path stroke-linecap="round" transform="matrix(0.488592, 0, 0, 0.487601, 209.114993, 390.503907)" fill-opacity="1" fill="rgb(0%, 0%, 0%)" fill-rule="nonzero" stroke-linejoin="miter" d="M 191.866378 250.613368 C 191.874373 256.349364 188.348617 261.003852 183.999385 261.003852 C 179.650154 261.003852 176.132392 256.349364 176.132392 250.613368 C 176.132392 244.86936 179.650154 240.214872 183.999385 240.214872 C 188.348617 240.214872 191.874373 244.86936 191.866378 250.613368 Z M 191.866378 250.613368 " stroke="rgb(0%, 0%, 0%)" stroke-width="2" stroke-opacity="1" stroke-miterlimit="4"/><path stroke-linecap="round" transform="matrix(0.488592, 0, 0, 0.487601, 209.114993, 390.503907)" fill-opacity="1" fill="rgb(0%, 0%, 0%)" fill-rule="nonzero" stroke-linejoin="miter" d="M 248.526316 250.613368 C 248.534311 256.349364 245.008555 261.003852 240.659323 261.003852 C 236.310092 261.003852 232.79233 256.349364 232.79233 250.613368 C 232.79233 244.86936 236.310092 240.214872 240.659323 240.214872 C 245.008555 240.214872 248.534311 244.86936 248.526316 250.613368 Z M 248.526316 250.613368 " stroke="rgb(0%, 0%, 0%)" stroke-width="2" stroke-opacity="1" stroke-miterlimit="4"/><path fill="rgb(100%, 100%, 100%)" d="M 300.554688 511.527344 C 300.554688 512.488281 300.074219 513.265625 299.476562 513.265625 C 298.882812 513.265625 298.402344 512.488281 298.402344 511.527344 C 298.402344 510.566406 298.882812 509.785156 299.476562 509.785156 C 300.074219 509.785156 300.554688 510.566406 300.554688 511.527344 Z M 300.554688 511.527344 " fill-opacity="1" fill-rule="nonzero"/><path fill="rgb(100%, 100%, 100%)" d="M 327.472656 511.984375 C 327.472656 512.945312 326.988281 513.722656 326.394531 513.722656 C 325.800781 513.722656 325.316406 512.945312 325.320312 511.984375 C 325.316406 511.023438 325.800781 510.246094 326.394531 510.246094 C 326.988281 510.246094 327.472656 511.023438 327.472656 511.984375 Z M 327.472656 511.984375 " fill-opacity="1" fill-rule="nonzero"/><path fill="rgb(0%, 0%, 0%)" d="M 346.445312 461.195312 C 337.730469 461.320312 329.65625 468.070312 327.570312 476.433594 C 331.667969 473.746094 336.804688 472.136719 342.382812 472.136719 C 353.589844 472.136719 363.019531 478.609375 365.773438 487.375 C 370.15625 475.691406 360.125 461.113281 347.449219 461.210938 C 347.113281 461.195312 346.777344 461.191406 346.441406 461.195312 Z M 346.445312 461.195312 " fill-opacity="0.3137" fill-rule="nonzero"/><path stroke-linecap="round" transform="matrix(0.679974, 0, 0, 0.685469, 92.219346, 68.746013)" fill="none" stroke-linejoin="miter" d="M 340.568457 672.76039 C 373.307554 657.653259 388.416139 671.500988 388.416139 671.500988 " stroke="rgb(0%, 0%, 0%)" stroke-width="2.86" stroke-opacity="1" stroke-miterlimit="4"/><g clip-path="url(#id4)"><path stroke-linecap="round" transform="matrix(0.679974, 0, 0, 0.685469, 92.219346, 68.746013)" fill="none" stroke-linejoin="miter" d="M 337.420356 678.430551 C 361.341325 663.32342 382.114193 687.87322 382.114193 687.87322 " stroke="rgb(0%, 0%, 0%)" stroke-width="2.86" stroke-opacity="1" stroke-miterlimit="4"/></g><g clip-path="url(#id5)"><path stroke-linecap="round" transform="matrix(0.679974, 0, 0, 0.685469, 92.219346, 68.746013)" fill="none" stroke-linejoin="miter" d="M 337.420356 681.570509 C 362.599416 668.982183 367.005608 699.823297 367.005608 699.823297 " stroke="rgb(0%, 0%, 0%)" stroke-width="2.86" stroke-opacity="1" stroke-miterlimit="4"/></g><path stroke-linecap="round" transform="matrix(-0.679974, 0, 0, 0.685469, 535.035217, 68.746013)" fill="none" stroke-linejoin="miter" d="M 340.569422 672.76039 C 373.302775 657.653259 388.411359 671.500988 388.411359 671.500988 " stroke="rgb(0%, 0%, 0%)" stroke-width="2.86" stroke-opacity="1" stroke-miterlimit="4"/><g clip-path="url(#id6)"><path stroke-linecap="round" transform="matrix(-0.679974, 0, 0, 0.685469, 535.035217, 68.746013)" fill="none" stroke-linejoin="miter" d="M 337.421322 678.430551 C 361.34229 663.32342 382.115158 687.87322 382.115158 687.87322 " stroke="rgb(0%, 0%, 0%)" stroke-width="2.86" stroke-opacity="1" stroke-miterlimit="4"/></g><g clip-path="url(#id7)"><path stroke-linecap="round" transform="matrix(-0.679974, 0, 0, 0.685469, 535.035217, 68.746013)" fill="none" stroke-linejoin="miter" d="M 337.421322 681.570509 C 362.600382 668.982183 367.006573 699.823297 367.006573 699.823297 " stroke="rgb(0%, 0%, 0%)" stroke-width="2.86" stroke-opacity="1" stroke-miterlimit="4"/></g><path fill="rgb(0%, 0%, 0%)" d="M 280.234375 461.195312 C 288.945312 461.320312 297.023438 468.070312 299.105469 476.433594 C 295.011719 473.746094 289.871094 472.136719 284.296875 472.136719 C 273.085938 472.136719 263.65625 478.609375 260.90625 487.375 C 256.519531 475.691406 266.554688 461.113281 279.226562 461.210938 C 279.5625 461.195312 279.898438 461.191406 280.234375 461.195312 Z M 280.234375 461.195312 " fill-opacity="0.3137" fill-rule="nonzero"/><g fill="rgb(95.689392%, 59.21936%, 69.018555%)" fill-opacity="1"><g transform="translate(482.415747, 539.648503)"><g><path d="M 115.882812 -134.363281 L 115.882812 -169.398438 C 110.496094 -171.707031 104.71875 -172.863281 98.945312 -172.863281 C 79.695312 -172.863281 65.835938 -162.082031 56.980469 -141.292969 L 55.824219 -134.363281 L 55.824219 -169.398438 L 28.875 -169.398438 L 28.875 0 L 55.824219 0 L 55.824219 -84.699219 C 55.824219 -98.558594 58.90625 -110.878906 65.449219 -122.042969 C 68.53125 -127.820312 72.765625 -132.824219 77.769531 -136.675781 C 82.773438 -140.523438 88.933594 -142.835938 95.863281 -142.835938 C 102.792969 -142.835938 109.339844 -139.753906 115.882812 -134.363281 Z M 115.882812 -134.363281 "/></g></g></g></svg>