<svg xmlns="http://www.w3.org/2000/svg" xmlns:xlink="http://www.w3.org/1999/xlink" width="1080" zoomAndPan="magnify" viewBox="0 0 810 809.999993" height="1080" preserveAspectRatio="xMidYMid meet" version="1.0"><defs><g/><clipPath id="id1"><path d="M 368.65625 370.34375 L 456.71875 370.34375 L 456.71875 524.84375 L 368.65625 524.84375 Z M 368.65625 370.34375 " clip-rule="nonzero"/></clipPath><clipPath id="id2"><path d="M 326.320312 381.511719 L 486.683594 381.511719 L 486.683594 420 L 326.320312 420 Z M 326.320312 381.511719 " clip-rule="nonzero"/></clipPath><clipPath id="id3"><path d="M 309.691406 378 L 328 378 L 328 391 L 309.691406 391 Z M 309.691406 378 " clip-rule="nonzero"/></clipPath></defs><rect x="-81" width="972" fill="rgb(100%, 100%, 100%)" y="-80.999999" height="971.999992" fill-opacity="1"/><rect x="-81" width="972" fill="rgb(100%, 100%, 100%)" y="-80.999999" height="971.999992" fill-opacity="1"/><g fill="rgb(30.979919%, 3.529358%, 4.309082%)" fill-opacity="1"><g transform="translate(212.718905, 533.192806)"><g><path d="M 101.308594 -123.265625 C 135.207031 -115.175781 158.320312 -106.316406 170.648438 -96.300781 C 179.121094 -89.367188 183.359375 -80.507812 183.359375 -69.722656 C 183.359375 -58.9375 181.046875 -50.078125 176.425781 -43.914062 C 164.867188 -27.734375 144.066406 -19.644531 114.792969 -19.644531 C 73.960938 -19.644531 50.847656 -33.511719 45.839844 -61.246094 L 14.253906 -61.246094 C 23.496094 -16.949219 57.011719 5.007812 114.792969 5.007812 C 140.601562 5.007812 162.171875 -0.386719 179.507812 -11.941406 C 200.308594 -25.421875 211.09375 -45.453125 211.09375 -71.648438 C 211.09375 -93.21875 202.621094 -109.785156 185.671875 -121.339844 C 173.730469 -129.816406 154.46875 -137.519531 127.890625 -144.453125 C 100.925781 -151.386719 83.589844 -157.164062 75.5 -161.402344 C 57.78125 -170.261719 48.921875 -182.589844 49.304688 -198.765625 C 49.304688 -207.242188 50.847656 -214.5625 54.699219 -219.953125 C 64.714844 -234.976562 82.433594 -242.679688 107.859375 -242.679688 C 143.683594 -242.679688 164.097656 -231.125 169.492188 -208.78125 L 198.765625 -208.78125 C 189.136719 -246.53125 158.707031 -265.792969 107.859375 -265.792969 C 84.746094 -265.792969 64.328125 -259.628906 47.378906 -247.304688 C 30.046875 -234.976562 21.1875 -216.871094 21.1875 -192.21875 C 21.1875 -158.707031 48.152344 -135.59375 101.308594 -123.265625 Z M 101.308594 -123.265625 "/></g></g></g><g clip-path="url(#id1)"><path fill="rgb(9.408569%, 41.569519%, 21.179199%)" d="M 456.402344 479.746094 C 455.160156 461.351562 447.21875 451.941406 440.207031 443.636719 C 436.828125 439.636719 433.921875 436.109375 432.027344 432.042969 C 439.722656 430.394531 445.628906 425.707031 446.6875 420.273438 C 450.222656 415.765625 452.054688 409.085938 452.054688 402.101562 C 452.054688 396.601562 450.921875 390.914062 448.605469 385.957031 C 443.214844 374.433594 432.144531 370.34375 424.304688 370.34375 C 419.214844 370.34375 416.492188 371.320312 416.214844 373.25 C 416.210938 373.273438 416.207031 373.292969 416.207031 373.316406 C 416.207031 373.316406 416.195312 373.476562 416.195312 373.480469 C 416.195312 374.316406 416.644531 375.722656 419.59375 376.589844 C 423.023438 377.601562 431.351562 382.28125 433.769531 389.632812 C 433.988281 390.296875 434.136719 390.933594 434.261719 391.558594 C 432.964844 390.023438 430.847656 388.453125 427.363281 387.457031 C 422.402344 386.042969 417.683594 386.460938 413.652344 388.609375 C 411.453125 386.675781 408.496094 385.652344 404.78125 385.652344 C 400.167969 385.652344 396.226562 386.960938 393 389.445312 C 391.535156 388.191406 389.730469 387.460938 387.582031 387.335938 C 381.265625 386.964844 373.019531 389.410156 369.625 403.179688 C 368.105469 409.335938 368.875 415.261719 371.789062 419.863281 C 374.035156 423.414062 377.328125 425.789062 381.066406 426.550781 C 384.417969 427.234375 387.503906 426.820312 390.0625 425.40625 C 393.730469 428.472656 398.472656 429.75 403.21875 428.84375 C 404.035156 428.691406 404.855469 428.40625 405.679688 428.066406 C 406.925781 433.492188 409.425781 438.757812 413.214844 443.71875 C 416.25 447.691406 419.421875 450.882812 422.488281 453.972656 C 429.488281 461.015625 435.53125 467.097656 436.691406 479.492188 C 436.875 481.453125 436.957031 483.253906 436.957031 484.910156 C 436.957031 494.761719 434.039062 499.492188 432.105469 501.542969 C 430.378906 503.371094 428.328125 504.300781 426.183594 504.226562 C 424.4375 504.167969 423.070312 503.539062 422.125 502.367188 C 420.972656 500.941406 420.367188 498.609375 420.347656 495.609375 C 426.535156 492.609375 430.828125 488.289062 431.066406 484.726562 C 431.082031 484.496094 431.089844 484.257812 431.089844 484.011719 C 431.089844 475.890625 422.585938 462.070312 417.660156 460.679688 C 414.929688 459.90625 413.792969 460.515625 412.585938 461.164062 C 411.453125 461.773438 410.171875 462.460938 406.539062 462.460938 C 402.953125 462.460938 400.917969 460.953125 398.949219 459.492188 C 397.054688 458.085938 395.097656 456.632812 392.378906 457.746094 C 388.957031 459.152344 381.480469 464.515625 376.917969 470.535156 C 374.496094 473.660156 373.121094 476.605469 372.839844 479.277344 C 372.796875 479.675781 372.777344 480.078125 372.777344 480.484375 C 372.777344 483.820312 374.210938 487.238281 376.886719 490.222656 C 376.894531 490.234375 376.988281 490.347656 376.988281 490.347656 C 381.070312 494.96875 387.535156 498.054688 395.273438 499.171875 C 394.960938 499.480469 394.632812 499.738281 394.285156 499.933594 C 392.160156 501.117188 391.203125 500.972656 390.097656 500.808594 C 389.261719 500.683594 388.308594 500.539062 386.957031 500.945312 C 386.566406 501.0625 386.304688 501.417969 386.304688 501.820312 C 386.304688 501.847656 386.304688 501.871094 386.308594 501.894531 C 386.34375 502.328125 386.675781 502.675781 387.105469 502.730469 C 387.796875 502.820312 388.539062 503.011719 388.90625 503.183594 C 388.800781 503.480469 388.535156 503.929688 388.203125 504.300781 C 388.042969 504.480469 387.960938 504.707031 387.960938 504.929688 C 387.960938 505.121094 388.015625 505.308594 388.136719 505.46875 C 388.402344 505.820312 388.863281 505.941406 389.253906 505.753906 L 393.539062 503.679688 C 394.476562 503.238281 395.640625 502.652344 396.804688 501.710938 C 396.804688 502.644531 396.84375 503.535156 396.917969 504.371094 C 397.230469 507.804688 398.136719 510.890625 399.609375 513.550781 C 401.4375 516.855469 404.132812 519.503906 407.613281 521.417969 C 413.875 524.859375 422.5625 525.785156 430.871094 523.898438 C 443.050781 521.789062 456.578125 510.277344 456.578125 484.90625 C 456.578125 483.25 456.523438 481.527344 456.402344 479.746094 " fill-opacity="1" fill-rule="nonzero"/></g><path fill="rgb(96.469116%, 88.238525%, 34.118652%)" d="M 430.609375 522.664062 C 423.652344 524.246094 414.910156 523.988281 408.234375 520.320312 C 405.164062 518.636719 402.53125 516.222656 400.710938 512.9375 C 399.378906 510.535156 398.484375 507.660156 398.175781 504.253906 C 397.960938 501.941406 398.023438 499.378906 398.398438 496.554688 C 401.722656 471.585938 412.039062 485.214844 415.136719 497.925781 C 418.230469 510.640625 430.609375 522.664062 430.609375 522.664062 " fill-opacity="1" fill-rule="nonzero"/><path fill="rgb(83.918762%, 75.289917%, 21.179199%)" d="M 414.515625 495.679688 C 410.847656 483.746094 401.527344 473.054688 398.398438 496.554688 C 398.242188 497.730469 398.152344 498.851562 398.101562 499.941406 C 403.605469 504.640625 409.328125 500.695312 414.515625 495.679688 " fill-opacity="1" fill-rule="nonzero"/><path fill="rgb(17.649841%, 56.079102%, 23.919678%)" d="M 404.84375 482.246094 C 401.578125 482.417969 399.292969 487.21875 398.054688 496.507812 C 397.6875 499.273438 397.613281 501.890625 397.832031 504.289062 C 398.132812 507.59375 399 510.558594 400.410156 513.105469 C 402.160156 516.261719 404.734375 518.792969 408.070312 520.625 C 414.128906 523.953125 422.585938 524.84375 430.6875 523 C 430.808594 522.972656 430.910156 522.878906 430.941406 522.757812 C 430.976562 522.636719 430.941406 522.507812 430.851562 522.417969 C 430.726562 522.300781 418.503906 510.316406 415.46875 497.847656 C 413.558594 490 409.0625 482.019531 404.84375 482.246094 Z M 408.402344 520.023438 C 405.183594 518.253906 402.695312 515.816406 401.011719 512.773438 C 399.648438 510.3125 398.8125 507.4375 398.515625 504.226562 C 398.300781 501.878906 398.375 499.316406 398.738281 496.597656 C 399.894531 487.933594 402.074219 483.082031 404.878906 482.933594 C 408.570312 482.734375 412.988281 490.570312 414.800781 498.007812 C 417.546875 509.296875 427.648438 520.125 429.902344 522.4375 C 422.15625 524.058594 414.160156 523.1875 408.402344 520.023438 " fill-opacity="1" fill-rule="nonzero"/><path fill="rgb(17.649841%, 56.079102%, 23.919678%)" d="M 397.875 504.085938 C 397.78125 504.25 397.839844 504.460938 398.003906 504.554688 C 398.074219 504.59375 405.316406 508.652344 414.085938 504.886719 C 414.261719 504.8125 414.339844 504.609375 414.265625 504.433594 C 414.191406 504.261719 413.988281 504.179688 413.8125 504.253906 C 405.371094 507.878906 398.414062 503.996094 398.34375 503.957031 C 398.179688 503.863281 397.96875 503.921875 397.875 504.085938 " fill-opacity="1" fill-rule="nonzero"/><path fill="rgb(17.649841%, 56.079102%, 23.919678%)" d="M 415.90625 511.609375 C 409.332031 515.742188 400.917969 512.648438 400.832031 512.617188 C 400.65625 512.550781 400.457031 512.640625 400.390625 512.816406 C 400.324219 512.996094 400.414062 513.191406 400.589844 513.257812 C 400.675781 513.292969 409.40625 516.507812 416.273438 512.191406 C 416.433594 512.089844 416.484375 511.878906 416.382812 511.71875 C 416.28125 511.558594 416.066406 511.507812 415.90625 511.609375 " fill-opacity="1" fill-rule="nonzero"/><path fill="rgb(17.649841%, 56.079102%, 23.919678%)" d="M 420.679688 517.597656 C 416.644531 521.113281 408.367188 519.992188 408.285156 519.980469 C 408.09375 519.957031 407.921875 520.085938 407.894531 520.273438 C 407.867188 520.460938 408 520.636719 408.1875 520.664062 C 408.539062 520.714844 416.859375 521.839844 421.132812 518.113281 C 421.273438 517.988281 421.289062 517.773438 421.164062 517.628906 C 421.039062 517.488281 420.824219 517.472656 420.679688 517.597656 " fill-opacity="1" fill-rule="nonzero"/><path fill="rgb(35.289001%, 71.759033%, 21.179199%)" d="M 406.191406 418.789062 C 406.191406 418.789062 404.246094 429.898438 414.21875 442.953125 C 424.191406 456.011719 436.226562 461.050781 437.949219 479.375 C 439.667969 497.699219 432.789062 505.714844 426.140625 505.484375 C 419.492188 505.257812 418.117188 498.15625 419.605469 489.910156 C 421.09375 481.664062 411.808594 484.296875 411.925781 498.957031 C 412.039062 513.617188 419.375 524.613281 430.609375 522.664062 C 441.84375 520.71875 457.132812 509.304688 455.144531 479.832031 C 453.15625 450.359375 433.371094 444.25 429.3125 428.371094 C 425.253906 412.492188 408.292969 398.671875 406.191406 418.789062 " fill-opacity="1" fill-rule="nonzero"/><path fill="rgb(45.098877%, 77.249146%, 19.60907%)" d="M 411.558594 409.6875 C 410.234375 409.785156 409.113281 412.429688 408.695312 416.421875 C 408.6875 416.484375 408.675781 416.578125 408.664062 416.644531 C 408.601562 417.042969 407.222656 426.511719 415.988281 437.980469 C 418.824219 441.695312 421.882812 444.773438 424.84375 447.753906 C 432.1875 455.144531 439.125 462.128906 440.453125 476.285156 C 441.535156 487.792969 439.433594 496.988281 434.546875 502.171875 C 431.855469 505.019531 428.417969 506.523438 424.867188 506.402344 C 421.671875 506.292969 419 505.015625 417.140625 502.710938 C 415.566406 500.757812 414.78125 498.308594 414.453125 495.753906 C 414.453125 495.820312 414.445312 495.871094 414.445312 495.933594 C 414.445312 496.015625 414.445312 496.097656 414.449219 496.179688 C 414.507812 504.171875 416.929688 510.933594 420.921875 514.261719 C 423.171875 516.136719 425.835938 516.828125 428.835938 516.304688 C 439.839844 514.398438 452.074219 503.046875 450.335938 477.332031 C 449.207031 460.546875 442.132812 452.167969 435.292969 444.0625 C 430.71875 438.648438 426.402344 433.535156 424.609375 426.53125 C 422.191406 417.054688 414.871094 409.449219 411.558594 409.6875 " fill-opacity="1" fill-rule="nonzero"/><path fill="rgb(31.369019%, 67.83905%, 21.569824%)" d="M 411.582031 428.066406 C 415.757812 433.628906 424.152344 435.484375 431.171875 433.261719 C 430.394531 431.71875 429.757812 430.105469 429.3125 428.371094 C 425.253906 412.492188 408.292969 398.671875 406.191406 418.789062 C 406.191406 418.789062 405.4375 423.101562 407.277344 429.507812 C 408.9375 429.742188 410.261719 429.382812 411.582031 428.066406 " fill-opacity="1" fill-rule="nonzero"/><path fill="rgb(31.369019%, 67.83905%, 21.569824%)" d="M 419.425781 491.039062 C 419.480469 490.664062 419.535156 490.289062 419.605469 489.910156 C 421.09375 481.664062 411.808594 484.296875 411.925781 498.957031 C 411.949219 502.25 412.34375 505.355469 413.0625 508.171875 C 413.292969 502.066406 415.449219 496.085938 419.425781 491.039062 " fill-opacity="1" fill-rule="nonzero"/><path fill="rgb(31.369019%, 67.83905%, 21.569824%)" d="M 455.144531 479.832031 C 454.792969 474.597656 453.871094 470.113281 452.582031 466.164062 C 453.578125 483.964844 452.207031 501.507812 438.175781 514.191406 C 432.785156 520.25 424.421875 520.863281 417.453125 517.488281 C 420.683594 521.53125 425.195312 523.605469 430.609375 522.664062 C 441.84375 520.71875 457.132812 509.304688 455.144531 479.832031 " fill-opacity="1" fill-rule="nonzero"/><path fill="rgb(17.649841%, 56.079102%, 23.919678%)" d="M 412.410156 408.441406 C 409.890625 408.625 406.707031 410.5625 405.851562 418.753906 C 405.851562 418.746094 405.851562 418.738281 405.855469 418.730469 C 405.835938 418.84375 403.996094 430.136719 413.945312 443.164062 C 416.941406 447.082031 420.09375 450.257812 423.140625 453.324219 C 430.261719 460.492188 436.410156 466.683594 437.605469 479.40625 C 438.914062 493.367188 435.140625 499.660156 432.773438 502.171875 C 430.859375 504.199219 428.570312 505.226562 426.152344 505.144531 C 424.128906 505.074219 422.53125 504.332031 421.410156 502.941406 C 419.402344 500.457031 418.882812 495.851562 419.945312 489.972656 C 420.34375 487.753906 420.003906 486.058594 419.011719 485.324219 C 418.351562 484.828125 417.480469 484.808594 416.570312 485.269531 C 414.046875 486.550781 411.523438 491.28125 411.582031 498.960938 C 411.652344 508.253906 414.539062 515.953125 419.496094 520.085938 C 422.648438 522.714844 426.511719 523.726562 430.671875 523.003906 C 443.3125 520.8125 457.402344 508.183594 455.488281 479.808594 C 454.265625 461.714844 446.425781 452.425781 439.507812 444.230469 C 435.054688 438.953125 431.207031 434.402344 429.644531 428.285156 C 426.921875 417.636719 418.546875 407.992188 412.410156 408.441406 Z M 433.273438 502.640625 C 437.5 498.164062 439.28125 489.890625 438.289062 479.34375 C 437.070312 466.371094 430.84375 460.101562 423.628906 452.839844 C 420.597656 449.789062 417.460938 446.632812 414.492188 442.746094 C 404.734375 429.972656 406.511719 418.957031 406.53125 418.847656 C 406.53125 418.839844 406.535156 418.832031 406.535156 418.824219 C 407.171875 412.714844 409.222656 409.363281 412.460938 409.125 C 418.195312 408.707031 426.378906 418.28125 428.980469 428.457031 C 430.582031 434.722656 434.660156 439.554688 438.980469 444.671875 C 445.832031 452.789062 453.59375 461.984375 454.800781 479.855469 C 456.683594 507.777344 442.914062 520.183594 430.550781 522.328125 C 426.597656 523.011719 422.929688 522.054688 419.9375 519.558594 C 415.136719 515.554688 412.339844 508.046875 412.269531 498.957031 C 412.210938 491.609375 414.621094 487.03125 416.882812 485.882812 C 417.546875 485.546875 418.160156 485.542969 418.601562 485.875 C 419.367188 486.441406 419.613281 487.929688 419.265625 489.851562 C 418.167969 495.925781 418.738281 500.730469 420.875 503.371094 C 422.128906 504.925781 423.894531 505.753906 426.128906 505.828125 C 428.710938 505.917969 431.25 504.785156 433.273438 502.640625 " fill-opacity="1" fill-rule="nonzero"/><path fill="rgb(35.289001%, 71.759033%, 21.179199%)" d="M 429.351562 484.640625 C 429.027344 489.453125 417.886719 498.730469 400.347656 498.386719 C 382.808594 498.042969 372.832031 488.078125 373.75 479.375 C 374.667969 470.667969 388.121094 460.667969 392.398438 458.910156 C 396.679688 457.15625 398.359375 463.722656 406.078125 463.722656 C 413.796875 463.722656 412.269531 460.59375 416.855469 461.890625 C 421.441406 463.1875 429.847656 477.238281 429.351562 484.640625 " fill-opacity="1" fill-rule="nonzero"/><path fill="rgb(45.098877%, 77.249146%, 19.60907%)" d="M 426.359375 483.984375 C 426.074219 488.277344 416.128906 496.554688 400.472656 496.25 C 384.820312 495.941406 375.917969 487.050781 376.734375 479.28125 C 377.554688 471.511719 389.558594 462.585938 393.382812 461.015625 C 397.199219 459.449219 398.703125 465.308594 405.589844 465.308594 C 412.480469 465.308594 411.117188 462.515625 415.207031 463.675781 C 419.300781 464.832031 426.804688 477.371094 426.359375 483.984375 " fill-opacity="1" fill-rule="nonzero"/><path fill="rgb(17.649841%, 56.079102%, 23.919678%)" d="M 392.726562 458.59375 C 388.25 460.429688 374.808594 470.421875 373.867188 479.339844 C 373.496094 482.847656 374.847656 486.542969 377.671875 489.738281 C 382.550781 495.261719 390.980469 498.535156 400.796875 498.730469 C 418.398438 499.074219 429.808594 489.820312 430.152344 484.664062 C 430.65625 477.160156 422.117188 462.890625 417.40625 461.558594 C 415.039062 460.890625 414.148438 461.367188 413.023438 461.972656 C 411.855469 462.597656 410.40625 463.378906 406.539062 463.378906 C 402.648438 463.378906 400.390625 461.703125 398.402344 460.226562 C 396.558594 458.855469 394.96875 457.675781 392.726562 458.59375 Z M 400.8125 498.042969 C 391.183594 497.851562 382.9375 494.664062 378.1875 489.285156 C 375.492188 486.234375 374.203125 482.726562 374.550781 479.410156 C 375.449219 470.902344 388.746094 460.972656 392.988281 459.230469 C 394.867188 458.457031 396.179688 459.429688 397.992188 460.777344 C 399.964844 462.242188 402.421875 464.066406 406.539062 464.066406 C 410.578125 464.066406 412.179688 463.203125 413.347656 462.578125 C 414.414062 462.003906 415.117188 461.625 417.21875 462.21875 C 421.632812 463.46875 429.941406 477.515625 429.464844 484.621094 C 429.144531 489.414062 417.734375 498.375 400.8125 498.042969 " fill-opacity="1" fill-rule="nonzero"/><path fill="rgb(78.039551%, 15.689087%, 16.468811%)" d="M 401.148438 491.171875 C 400.390625 491.300781 399.6875 491.332031 398.960938 491.257812 C 398.960938 491.257812 398.742188 498.5 394.730469 500.734375 C 390.71875 502.96875 390.085938 500.964844 387.222656 501.820312 C 387.222656 501.820312 389.914062 502.164062 389.914062 502.96875 C 389.914062 503.769531 388.882812 504.914062 388.882812 504.914062 C 388.882812 504.914062 390.429688 504.226562 392.324219 503.253906 C 394.214844 502.28125 397.136719 501.421875 399.144531 497.238281 C 401.148438 493.058594 401.148438 491.171875 401.148438 491.171875 " fill-opacity="1" fill-rule="nonzero"/><path fill="rgb(13.729858%, 12.159729%, 12.548828%)" d="M 390.066406 474.113281 C 390.265625 475.378906 389.394531 476.5625 388.128906 476.757812 C 386.859375 476.953125 385.675781 476.089844 385.480469 474.824219 C 385.28125 473.554688 386.152344 472.371094 387.417969 472.175781 C 388.6875 471.976562 389.871094 472.84375 390.066406 474.113281 " fill-opacity="1" fill-rule="nonzero"/><path fill="rgb(17.649841%, 56.079102%, 23.919678%)" d="M 389.902344 464.308594 C 389.230469 464.535156 388.6875 465.015625 388.375 465.65625 C 388.289062 465.824219 388.363281 466.03125 388.53125 466.113281 C 388.703125 466.199219 388.90625 466.128906 388.992188 465.957031 C 389.222656 465.484375 389.625 465.128906 390.125 464.957031 C 390.625 464.785156 391.160156 464.820312 391.636719 465.050781 C 392.109375 465.285156 392.464844 465.683594 392.636719 466.183594 C 392.808594 466.683594 392.777344 467.21875 392.542969 467.691406 C 392.457031 467.863281 392.53125 468.070312 392.699219 468.15625 C 392.871094 468.238281 393.078125 468.167969 393.160156 467.996094 C 393.472656 467.355469 393.519531 466.632812 393.289062 465.960938 C 393.058594 465.289062 392.578125 464.746094 391.9375 464.433594 C 391.300781 464.121094 390.578125 464.074219 389.902344 464.308594 " fill-opacity="1" fill-rule="nonzero"/><path fill="rgb(17.649841%, 56.079102%, 23.919678%)" d="M 414.265625 466.359375 C 413.574219 466.523438 412.988281 466.949219 412.613281 467.554688 C 412.242188 468.160156 412.125 468.875 412.289062 469.570312 C 412.335938 469.753906 412.519531 469.867188 412.703125 469.824219 C 412.890625 469.777344 413.003906 469.59375 412.960938 469.410156 C 412.835938 468.894531 412.921875 468.363281 413.199219 467.914062 C 413.476562 467.464844 413.910156 467.152344 414.425781 467.03125 C 414.941406 466.90625 415.472656 466.992188 415.921875 467.269531 C 416.371094 467.546875 416.683594 467.980469 416.804688 468.492188 C 416.851562 468.679688 417.035156 468.792969 417.222656 468.75 C 417.40625 468.703125 417.519531 468.519531 417.476562 468.335938 C 417.3125 467.640625 416.886719 467.054688 416.28125 466.683594 C 415.671875 466.3125 414.957031 466.195312 414.265625 466.359375 " fill-opacity="1" fill-rule="nonzero"/><path fill="rgb(13.729858%, 12.159729%, 12.548828%)" d="M 413.394531 476.042969 C 412.820312 477.1875 413.28125 478.582031 414.425781 479.15625 C 415.574219 479.730469 416.96875 479.269531 417.542969 478.125 C 418.117188 476.980469 417.65625 475.585938 416.511719 475.011719 C 415.367188 474.4375 413.972656 474.898438 413.394531 476.042969 " fill-opacity="1" fill-rule="nonzero"/><path fill="rgb(96.469116%, 88.238525%, 34.118652%)" d="M 402.257812 469.296875 C 402.257812 469.296875 404.167969 467.386719 406.230469 468.609375 C 408.296875 469.832031 404.324219 474.410156 402.027344 474.488281 C 399.738281 474.566406 398.207031 471.128906 398.207031 469.753906 C 398.207031 468.378906 400.5 466.011719 402.257812 469.296875 " fill-opacity="1" fill-rule="nonzero"/><path fill="rgb(17.649841%, 56.079102%, 23.919678%)" d="M 399.769531 467.351562 C 398.679688 467.621094 397.863281 468.84375 397.863281 469.753906 C 397.863281 470.835938 398.636719 472.742188 399.785156 473.851562 C 400.476562 474.519531 401.253906 474.855469 402.039062 474.832031 C 403.96875 474.765625 406.59375 472.117188 407.070312 470.261719 C 407.292969 469.390625 407.054688 468.699219 406.40625 468.316406 C 404.800781 467.363281 403.191406 468.101562 402.332031 468.789062 C 401.367188 467.273438 400.328125 467.210938 399.769531 467.351562 Z M 400.261719 473.359375 C 399.160156 472.292969 398.550781 470.550781 398.550781 469.753906 C 398.550781 469.125 399.167969 468.207031 399.9375 468.015625 C 400.84375 467.789062 401.535156 468.675781 401.953125 469.457031 C 402.007812 469.554688 402.101562 469.617188 402.207031 469.636719 C 402.3125 469.652344 402.421875 469.617188 402.5 469.539062 C 402.570312 469.46875 404.253906 467.835938 406.058594 468.902344 C 406.195312 468.988281 406.621094 469.238281 406.402344 470.089844 C 405.96875 471.785156 403.46875 474.097656 402.019531 474.144531 C 401.414062 474.164062 400.824219 473.898438 400.261719 473.359375 " fill-opacity="1" fill-rule="nonzero"/><path fill="rgb(96.469116%, 88.238525%, 34.118652%)" d="M 401.570312 473.648438 C 401.570312 473.648438 403.480469 471.742188 405.542969 472.960938 C 407.605469 474.183594 403.632812 478.761719 401.339844 478.839844 C 399.046875 478.917969 397.519531 475.480469 397.519531 474.105469 C 397.519531 472.730469 399.8125 470.367188 401.570312 473.648438 " fill-opacity="1" fill-rule="nonzero"/><path fill="rgb(17.649841%, 56.079102%, 23.919678%)" d="M 399.082031 471.703125 C 397.992188 471.972656 397.175781 473.195312 397.175781 474.105469 C 397.175781 475.1875 397.949219 477.09375 399.097656 478.203125 C 399.785156 478.871094 400.566406 479.210938 401.351562 479.183594 C 403.28125 479.117188 405.90625 476.46875 406.382812 474.613281 C 406.605469 473.742188 406.367188 473.050781 405.71875 472.664062 C 404.113281 471.714844 402.5 472.457031 401.644531 473.140625 C 400.679688 471.625 399.640625 471.5625 399.082031 471.703125 Z M 399.574219 477.710938 C 398.472656 476.644531 397.863281 474.902344 397.863281 474.105469 C 397.863281 473.476562 398.480469 472.558594 399.25 472.367188 C 400.15625 472.140625 400.847656 473.027344 401.265625 473.808594 C 401.320312 473.90625 401.410156 473.972656 401.519531 473.988281 C 401.628906 474.003906 401.734375 473.96875 401.8125 473.890625 C 401.882812 473.824219 403.5625 472.191406 405.367188 473.257812 C 405.507812 473.339844 405.933594 473.589844 405.714844 474.441406 C 405.28125 476.136719 402.78125 478.449219 401.328125 478.496094 C 400.726562 478.515625 400.136719 478.25 399.574219 477.710938 " fill-opacity="1" fill-rule="nonzero"/><path fill="rgb(96.469116%, 88.238525%, 34.118652%)" d="M 401.066406 478.066406 C 401.066406 478.066406 402.738281 476.398438 404.546875 477.464844 C 406.351562 478.535156 402.871094 482.546875 400.867188 482.613281 C 398.855469 482.679688 397.519531 479.671875 397.519531 478.46875 C 397.519531 477.265625 399.527344 475.191406 401.066406 478.066406 " fill-opacity="1" fill-rule="nonzero"/><path fill="rgb(17.649841%, 56.079102%, 23.919678%)" d="M 398.875 476.320312 C 397.902344 476.566406 397.175781 477.65625 397.175781 478.46875 C 397.175781 479.425781 397.855469 481.109375 398.871094 482.085938 C 399.484375 482.679688 400.175781 482.980469 400.875 482.957031 C 402.582031 482.898438 404.898438 480.5625 405.320312 478.921875 C 405.519531 478.140625 405.308594 477.519531 404.722656 477.171875 C 403.320312 476.339844 401.910156 476.960938 401.140625 477.558594 C 400.289062 476.25 399.371094 476.195312 398.875 476.320312 Z M 399.347656 481.59375 C 398.425781 480.703125 397.863281 479.175781 397.863281 478.46875 C 397.863281 477.9375 398.40625 477.148438 399.042969 476.988281 C 399.8125 476.792969 400.402344 477.554688 400.761719 478.230469 C 400.8125 478.324219 400.90625 478.390625 401.015625 478.40625 C 401.125 478.421875 401.230469 478.386719 401.308594 478.308594 C 401.371094 478.25 402.816406 476.84375 404.371094 477.761719 C 404.484375 477.828125 404.835938 478.039062 404.652344 478.75 C 404.277344 480.222656 402.109375 482.226562 400.851562 482.269531 C 400.335938 482.285156 399.832031 482.058594 399.347656 481.59375 " fill-opacity="1" fill-rule="nonzero"/><path fill="rgb(17.649841%, 56.079102%, 23.919678%)" d="M 395.5 485.847656 C 395.214844 486.070312 394.769531 485.976562 394.507812 485.640625 C 394.246094 485.304688 394.261719 484.851562 394.546875 484.628906 C 394.832031 484.40625 395.785156 485.625 395.5 485.847656 " fill-opacity="1" fill-rule="nonzero"/><path fill="rgb(17.649841%, 56.079102%, 23.919678%)" d="M 403.816406 486.738281 C 404.050781 487.015625 404.503906 487.019531 404.832031 486.746094 C 405.160156 486.472656 405.238281 486.027344 405.007812 485.75 C 404.773438 485.472656 403.585938 486.460938 403.816406 486.738281 " fill-opacity="1" fill-rule="nonzero"/><path fill="rgb(17.649841%, 56.079102%, 23.919678%)" d="M 379.523438 482.707031 C 379.433594 482.875 379.5 483.082031 379.667969 483.171875 C 379.742188 483.210938 387.367188 487.234375 392.871094 489.617188 C 395.625 490.808594 397.316406 491.441406 398.929688 491.601562 C 399.675781 491.675781 400.421875 491.644531 401.207031 491.511719 C 402.28125 491.328125 403.5 490.945312 405.289062 490.230469 C 410.433594 488.175781 418.199219 485.710938 423.097656 484.980469 C 423.28125 484.953125 423.414062 484.78125 423.386719 484.59375 C 423.355469 484.402344 423.183594 484.273438 422.992188 484.300781 C 417.8125 485.074219 410.054688 487.585938 405.035156 489.59375 C 403.292969 490.289062 402.113281 490.660156 401.09375 490.832031 C 400.355469 490.957031 399.691406 490.984375 398.996094 490.917969 C 397.476562 490.765625 395.835938 490.148438 393.148438 488.984375 C 387.664062 486.613281 380.066406 482.605469 379.988281 482.5625 C 379.820312 482.472656 379.613281 482.539062 379.523438 482.707031 " fill-opacity="1" fill-rule="nonzero"/><path fill="rgb(63.919067%, 85.879517%, 43.919373%)" d="M 423.441406 438.945312 C 422.609375 439.621094 422.160156 440.390625 422.097656 441.234375 C 422.007812 442.542969 422.90625 443.527344 422.945312 443.570312 C 423.074219 443.707031 423.292969 443.714844 423.429688 443.589844 C 423.570312 443.460938 423.578125 443.242188 423.449219 443.101562 C 423.445312 443.09375 422.710938 442.285156 422.785156 441.277344 C 422.832031 440.632812 423.199219 440.027344 423.875 439.480469 C 424.523438 438.953125 425.164062 438.734375 425.777344 438.832031 C 426.820312 438.992188 427.488281 440 427.496094 440.011719 C 427.597656 440.171875 427.8125 440.214844 427.972656 440.109375 C 428.128906 440.007812 428.175781 439.796875 428.070312 439.636719 C 428.039062 439.585938 427.234375 438.367188 425.890625 438.152344 C 425.070312 438.023438 424.25 438.289062 423.441406 438.945312 " fill-opacity="1" fill-rule="nonzero"/><path fill="rgb(63.919067%, 85.879517%, 43.919373%)" d="M 434.027344 452.050781 C 433.355469 452.441406 432.933594 452.984375 432.765625 453.65625 C 432.433594 454.996094 433.265625 456.363281 433.300781 456.421875 C 433.398438 456.582031 433.609375 456.632812 433.773438 456.535156 C 433.933594 456.433594 433.984375 456.222656 433.886719 456.058594 C 433.878906 456.046875 433.167969 454.875 433.433594 453.820312 C 433.554688 453.332031 433.875 452.9375 434.378906 452.640625 C 434.84375 452.367188 435.292969 452.300781 435.753906 452.433594 C 436.917969 452.761719 437.710938 454.246094 437.71875 454.261719 C 437.808594 454.429688 438.015625 454.496094 438.183594 454.40625 C 438.351562 454.316406 438.417969 454.109375 438.328125 453.941406 C 438.292969 453.871094 437.390625 452.183594 435.945312 451.773438 C 435.304688 451.589844 434.65625 451.683594 434.027344 452.050781 " fill-opacity="1" fill-rule="nonzero"/><path fill="rgb(63.919067%, 85.879517%, 43.919373%)" d="M 445.628906 473.648438 C 443.164062 473.648438 442.777344 477.683594 442.765625 477.855469 C 442.746094 478.042969 442.886719 478.210938 443.074219 478.226562 C 443.265625 478.242188 443.433594 478.105469 443.449219 477.914062 C 443.453125 477.878906 443.789062 474.335938 445.628906 474.335938 C 446.042969 474.335938 446.34375 474.457031 446.546875 474.714844 C 447.015625 475.300781 446.878906 476.484375 446.785156 476.894531 C 446.742188 477.078125 446.855469 477.261719 447.042969 477.304688 C 447.226562 477.347656 447.410156 477.230469 447.453125 477.046875 C 447.472656 476.972656 447.855469 475.253906 447.085938 474.285156 C 446.746094 473.863281 446.257812 473.648438 445.628906 473.648438 " fill-opacity="1" fill-rule="nonzero"/><path fill="rgb(63.919067%, 85.879517%, 43.919373%)" d="M 447.769531 482.820312 C 446.566406 483.734375 446.3125 485.644531 446.308594 487.085938 L 446.433594 488.933594 C 446.449219 489.121094 446.609375 489.234375 446.796875 489.222656 C 446.988281 489.210938 447.128906 489.015625 447.113281 488.824219 L 446.996094 487.085938 C 447 485.800781 447.207031 484.109375 448.1875 483.371094 C 448.601562 483.054688 448.953125 482.949219 449.230469 483.054688 C 449.722656 483.238281 449.988281 484.0625 450.046875 484.363281 C 450.085938 484.550781 450.265625 484.671875 450.453125 484.636719 C 450.636719 484.597656 450.761719 484.417969 450.722656 484.234375 C 450.695312 484.085938 450.410156 482.769531 449.476562 482.410156 C 448.964844 482.214844 448.390625 482.355469 447.769531 482.820312 " fill-opacity="1" fill-rule="nonzero"/><path fill="rgb(63.919067%, 85.879517%, 43.919373%)" d="M 444.746094 486.109375 C 443.632812 486.335938 442.691406 487.472656 441.945312 489.488281 C 441.878906 489.664062 441.96875 489.859375 442.144531 489.929688 C 442.324219 489.992188 442.519531 489.902344 442.585938 489.722656 C 443.234375 487.976562 444.027344 486.960938 444.875 486.785156 C 445.710938 486.613281 446.398438 487.316406 446.402344 487.324219 C 446.535156 487.457031 446.75 487.464844 446.890625 487.335938 C 447.027344 487.203125 447.03125 486.988281 446.902344 486.851562 C 446.863281 486.808594 445.957031 485.863281 444.746094 486.109375 " fill-opacity="1" fill-rule="nonzero"/><path fill="rgb(63.919067%, 85.879517%, 43.919373%)" d="M 433.976562 509.808594 C 433.832031 509.933594 433.820312 510.152344 433.945312 510.292969 C 434.070312 510.4375 434.289062 510.449219 434.429688 510.324219 C 435.414062 509.460938 438.234375 507.246094 439.453125 507.367188 C 439.648438 507.386719 439.730469 507.46875 439.777344 507.527344 C 439.972656 507.789062 440.050781 508.058594 440.003906 508.359375 C 439.878906 509.230469 438.824219 510.011719 438.816406 510.019531 C 438.660156 510.132812 438.628906 510.347656 438.742188 510.5 C 438.851562 510.652344 439.066406 510.6875 439.21875 510.574219 C 439.273438 510.535156 440.515625 509.617188 440.683594 508.460938 C 440.757812 507.972656 440.636719 507.519531 440.324219 507.109375 C 440.136719 506.863281 439.859375 506.71875 439.523438 506.683594 C 437.785156 506.511719 434.359375 509.472656 433.976562 509.808594 " fill-opacity="1" fill-rule="nonzero"/><path fill="rgb(63.919067%, 85.879517%, 43.919373%)" d="M 427.746094 510.75 C 427.578125 510.835938 427.507812 511.039062 427.589844 511.210938 C 427.671875 511.382812 427.878906 511.453125 428.050781 511.367188 C 429.300781 510.757812 432.8125 509.382812 433.988281 510.335938 C 434.140625 510.457031 434.148438 510.558594 434.140625 510.640625 C 434.039062 511.457031 431.617188 512.914062 429.933594 513.6875 C 429.765625 513.765625 429.6875 513.960938 429.757812 514.132812 C 429.828125 514.300781 430.023438 514.386719 430.195312 514.320312 C 430.230469 514.308594 433.449219 513.121094 435.019531 513.816406 C 435.289062 513.9375 435.304688 514.078125 435.3125 514.128906 C 435.386719 514.710938 434.25 515.898438 433.417969 516.554688 C 433.269531 516.671875 433.242188 516.886719 433.359375 517.039062 C 433.476562 517.1875 433.691406 517.210938 433.84375 517.09375 C 434.230469 516.792969 436.144531 515.21875 435.996094 514.042969 C 435.964844 513.78125 435.816406 513.417969 435.296875 513.191406 C 434.554688 512.859375 433.554688 512.882812 432.621094 513.015625 C 433.695312 512.332031 434.726562 511.496094 434.824219 510.726562 C 434.828125 510.6875 434.832031 510.644531 434.832031 510.597656 C 434.832031 510.363281 434.746094 510.066406 434.417969 509.800781 C 432.695312 508.40625 428.25 510.507812 427.746094 510.75 " fill-opacity="1" fill-rule="nonzero"/><path fill="rgb(13.729858%, 12.159729%, 12.548828%)" d="M 421.089844 417.59375 C 420.902344 417.628906 420.78125 417.808594 420.816406 417.992188 C 420.921875 418.550781 421.066406 420.148438 420.480469 420.867188 C 420.28125 421.117188 420.011719 421.242188 419.65625 421.25 C 417.800781 421.300781 417.4375 419.667969 417.421875 419.597656 C 417.382812 419.421875 417.21875 419.304688 417.039062 419.328125 C 416.859375 419.351562 416.730469 419.511719 416.742188 419.691406 C 416.742188 419.707031 416.839844 421.308594 416.039062 422.160156 C 415.710938 422.511719 415.277344 422.683594 414.714844 422.683594 C 412.480469 422.683594 412.308594 418.851562 412.308594 418.816406 C 412.300781 418.625 412.140625 418.476562 411.949219 418.484375 C 411.761719 418.492188 411.613281 418.652344 411.621094 418.839844 C 411.625 419.023438 411.820312 423.371094 414.714844 423.371094 C 415.46875 423.371094 416.082031 423.121094 416.542969 422.625 C 417.019531 422.121094 417.226562 421.457031 417.332031 420.875 C 417.789062 421.457031 418.515625 421.96875 419.671875 421.9375 C 420.234375 421.921875 420.6875 421.707031 421.019531 421.300781 C 421.917969 420.179688 421.507812 417.960938 421.492188 417.867188 C 421.457031 417.679688 421.273438 417.554688 421.089844 417.59375 Z M 417.429688 419.644531 C 417.429688 419.652344 417.429688 419.667969 417.429688 419.667969 C 417.429688 419.664062 417.429688 419.644531 417.429688 419.644531 " fill-opacity="1" fill-rule="nonzero"/><path fill="rgb(35.289001%, 71.759033%, 21.179199%)" d="M 433.363281 399.890625 C 433.363281 399.890625 437.488281 396.914062 434.96875 389.242188 C 432.445312 381.566406 423.847656 376.527344 419.949219 375.382812 C 416.050781 374.238281 416.167969 371.601562 424.304688 371.601562 C 432.445312 371.601562 442.535156 375.957031 447.464844 386.492188 C 452.394531 397.027344 451.933594 412.261719 445.285156 420.050781 C 438.636719 427.835938 417.847656 425.011719 417.847656 412.949219 C 417.847656 400.882812 424.421875 399.96875 433.363281 399.890625 " fill-opacity="1" fill-rule="nonzero"/><path fill="rgb(45.098877%, 77.249146%, 19.60907%)" d="M 435.4375 383.078125 C 436.679688 384.964844 437.535156 386.703125 438.113281 388.277344 C 439.972656 393.351562 438.933594 396.671875 438.636719 397.4375 C 438.382812 398.089844 437.914062 398.628906 437.355469 398.839844 C 431.453125 401.078125 429.652344 402.578125 432.589844 410.585938 C 433.957031 414.308594 437.105469 415.230469 438.859375 415.445312 C 443.28125 415.996094 447.625 413.429688 448.34375 409.847656 C 449.164062 405.753906 448.21875 399.898438 446.105469 394.136719 C 444.445312 389.609375 442.0625 385.140625 439.246094 381.625 C 434.300781 375.445312 428.734375 373.640625 424.492188 373.941406 C 428.160156 375.578125 432.375 378.4375 435.4375 383.078125 " fill-opacity="1" fill-rule="nonzero"/><path fill="rgb(31.369019%, 67.83905%, 21.569824%)" d="M 436.34375 405.160156 C 443.953125 395.867188 436.742188 377.246094 421.203125 375.828125 C 425.449219 377.53125 432.6875 382.300781 434.96875 389.242188 C 437.488281 396.914062 433.363281 399.890625 433.363281 399.890625 C 428.300781 399.933594 424 400.25 421.21875 402.703125 C 425.613281 408.652344 431.378906 411.605469 436.34375 405.160156 " fill-opacity="1" fill-rule="nonzero"/><path fill="rgb(17.649841%, 56.079102%, 23.919678%)" d="M 417.121094 373.382812 C 417.113281 373.433594 417.109375 373.488281 417.109375 373.542969 C 417.109375 374.398438 418.117188 375.203125 419.851562 375.710938 C 423.425781 376.761719 432.113281 381.65625 434.640625 389.347656 C 435.222656 391.125 435.449219 392.636719 435.449219 393.910156 C 435.449219 397.585938 433.609375 399.25 433.238281 399.550781 C 424.3125 399.632812 417.503906 400.714844 417.503906 412.949219 C 417.503906 417.621094 420.601562 421.441406 426.003906 423.429688 C 432.304688 425.75 441.335938 425.203125 445.546875 420.269531 C 451.992188 412.71875 452.992188 397.5 447.773438 386.347656 C 442.566406 375.210938 431.875 371.257812 424.304688 371.257812 C 419.933594 371.257812 417.316406 372.035156 417.121094 373.382812 Z M 426.238281 422.785156 C 421.125 420.902344 418.191406 417.316406 418.191406 412.949219 C 418.191406 401.265625 424.480469 400.308594 433.363281 400.234375 C 433.4375 400.234375 433.503906 400.210938 433.5625 400.171875 C 433.738281 400.042969 437.863281 396.957031 435.292969 389.132812 C 432.679688 381.183594 423.730469 376.136719 420.046875 375.054688 C 418.417969 374.574219 417.742188 373.902344 417.804688 373.480469 C 417.886719 372.910156 419.347656 371.945312 424.304688 371.945312 C 431.675781 371.945312 442.078125 375.792969 447.152344 386.636719 C 452.265625 397.570312 451.3125 412.460938 445.023438 419.824219 C 441.484375 423.96875 433.0625 425.296875 426.238281 422.785156 " fill-opacity="1" fill-rule="nonzero"/><path fill="rgb(45.098877%, 77.249146%, 19.60907%)" d="M 334.058594 412.605469 C 335.539062 411.152344 335.949219 407.59375 334 406.191406 C 332.054688 404.789062 327.515625 403.863281 322.316406 405.464844 C 317.121094 407.070312 325.296875 413.863281 328.085938 414.054688 C 330.878906 414.246094 332.613281 414.015625 334.058594 412.605469 " fill-opacity="1" fill-rule="nonzero"/><path fill="rgb(37.249756%, 23.529053%, 10.5896%)" d="M 322.21875 405.136719 C 320.460938 405.679688 320.207031 406.75 320.300781 407.550781 C 320.625 410.351562 325.800781 414.242188 328.0625 414.398438 C 330.820312 414.585938 332.722656 414.394531 334.300781 412.847656 C 335.140625 412.027344 335.664062 410.597656 335.664062 409.191406 C 335.664062 409.050781 335.660156 408.914062 335.648438 408.777344 C 335.554688 407.53125 335.039062 406.515625 334.203125 405.910156 C 332.109375 404.402344 327.464844 403.519531 322.21875 405.136719 Z M 328.109375 413.710938 C 326.1875 413.582031 321.257812 409.839844 320.980469 407.472656 C 320.890625 406.671875 321.359375 406.121094 322.417969 405.792969 C 327.21875 404.3125 331.777344 405.011719 333.800781 406.46875 C 334.472656 406.953125 334.882812 407.789062 334.960938 408.828125 C 335.0625 410.148438 334.589844 411.601562 333.816406 412.359375 C 332.417969 413.730469 330.730469 413.890625 328.109375 413.710938 Z M 328.109375 413.710938 " fill-opacity="1" fill-rule="nonzero"/><path fill="rgb(37.249756%, 23.529053%, 10.5896%)" d="M 327.679688 408.238281 C 327.628906 408.417969 327.734375 408.609375 327.917969 408.660156 C 333.660156 410.265625 333.714844 412.574219 333.714844 412.597656 C 333.714844 412.785156 333.863281 412.941406 334.050781 412.945312 C 334.238281 412.949219 334.394531 412.804688 334.402344 412.617188 C 334.40625 412.503906 334.445312 409.769531 328.105469 407.996094 C 327.921875 407.945312 327.730469 408.054688 327.679688 408.238281 " fill-opacity="1" fill-rule="nonzero"/><path fill="rgb(45.098877%, 77.249146%, 19.60907%)" d="M 327.246094 381.910156 C 327.246094 381.910156 326.675781 385.386719 330.535156 386.222656 C 334.394531 387.066406 338.863281 379.925781 338.632812 376.144531 C 338.40625 372.367188 328.28125 373.894531 327.246094 381.910156 " fill-opacity="1" fill-rule="nonzero"/><path fill="rgb(37.249756%, 23.529053%, 10.5896%)" d="M 326.90625 381.863281 C 326.90625 381.882812 326.878906 382.0625 326.878906 382.351562 C 326.878906 383.414062 327.238281 385.859375 330.460938 386.558594 C 331.734375 386.835938 333.148438 386.351562 334.546875 385.152344 C 337.113281 382.957031 339.140625 378.824219 338.976562 376.125 C 338.898438 374.777344 337.710938 373.898438 335.878906 373.839844 C 332.691406 373.730469 327.636719 376.207031 326.90625 381.863281 Z M 330.609375 385.886719 C 327.125 385.128906 327.566406 382.09375 327.585938 381.964844 C 327.585938 381.960938 327.585938 381.957031 327.589844 381.953125 C 328.261719 376.71875 332.921875 374.425781 335.859375 374.523438 C 337.324219 374.574219 338.230469 375.1875 338.292969 376.167969 C 338.441406 378.636719 336.480469 382.589844 334.097656 384.628906 C 333.242188 385.363281 331.941406 386.179688 330.609375 385.886719 Z M 326.90625 381.867188 C 326.90625 381.867188 326.90625 381.855469 326.90625 381.855469 C 326.90625 381.859375 326.90625 381.863281 326.90625 381.867188 " fill-opacity="1" fill-rule="nonzero"/><path fill="rgb(37.249756%, 23.529053%, 10.5896%)" d="M 332.945312 379.292969 C 332.816406 379.335938 329.679688 380.429688 327.921875 384.917969 C 327.851562 385.09375 327.9375 385.292969 328.117188 385.363281 C 328.292969 385.429688 328.492188 385.34375 328.5625 385.167969 C 330.195312 380.996094 333.136719 379.957031 333.167969 379.945312 C 333.34375 379.886719 333.441406 379.691406 333.382812 379.511719 C 333.320312 379.332031 333.128906 379.234375 332.945312 379.292969 " fill-opacity="1" fill-rule="nonzero"/><g clip-path="url(#id2)"><path fill="rgb(61.959839%, 45.098877%, 27.059937%)" d="M 483.113281 391.1875 C 483.113281 391.1875 473.179688 389.585938 464.164062 394.46875 C 455.144531 399.355469 453.15625 401.800781 433.363281 399.890625 C 413.570312 397.984375 384.222656 398.59375 376.425781 398.289062 C 368.632812 397.984375 362.367188 396.761719 354.265625 396.761719 C 346.164062 396.761719 333.628906 394.625 327.210938 381.796875 C 327.210938 381.796875 325.261719 385.804688 328.699219 391.53125 C 332.140625 397.257812 340.621094 398.863281 340.734375 402.066406 C 340.851562 405.273438 336.035156 409.511719 334.085938 410.429688 C 332.140625 411.34375 332.140625 413.863281 335.804688 412.71875 C 339.476562 411.574219 348.1875 408.824219 358.273438 409.167969 C 368.363281 409.511719 367.867188 414.324219 383.917969 415.699219 C 399.964844 417.070312 436.230469 420.164062 445.515625 419.820312 C 454.800781 419.476562 458.007812 418.558594 463.855469 415.808594 C 469.703125 413.0625 473.828125 412.144531 476.808594 412.949219 C 479.789062 413.75 492.898438 397.21875 483.113281 391.1875 " fill-opacity="1" fill-rule="nonzero"/></g><path fill="rgb(61.959839%, 45.098877%, 27.059937%)" d="M 352.75 409.273438 C 348.535156 409.386719 344.4375 409.816406 340.730469 411.289062 C 343.941406 410.453125 348.09375 409.59375 352.75 409.273438 " fill-opacity="1" fill-rule="nonzero"/><path fill="rgb(52.549744%, 36.468506%, 16.468811%)" d="M 428.089844 409.742188 C 425.875 408.265625 426.632812 402.652344 429.398438 399.550781 C 411.351562 398.175781 387.699219 398.507812 378.4375 398.339844 C 375.363281 399.363281 372.335938 400.425781 369.394531 401.496094 C 368.476562 402.410156 374.898438 406.992188 373.0625 407.910156 C 368.792969 409.128906 364.121094 409.230469 359.410156 409.230469 C 368.34375 409.886719 368.496094 414.378906 383.917969 415.699219 C 399.964844 417.070312 436.230469 420.164062 445.515625 419.820312 C 454.800781 419.476562 458.007812 418.558594 463.855469 415.808594 C 464.25 415.625 464.617188 415.46875 465 415.300781 C 452.21875 415.929688 439 417.734375 428.089844 409.742188 " fill-opacity="1" fill-rule="nonzero"/><path fill="rgb(37.249756%, 23.529053%, 10.5896%)" d="M 474.546875 412.34375 C 471.773438 412.339844 468.257812 413.359375 463.707031 415.5 C 457.800781 418.277344 454.695312 419.136719 445.503906 419.476562 C 436.136719 419.824219 399.5625 416.691406 383.945312 415.355469 C 375.3125 414.617188 371.550781 412.898438 368.230469 411.382812 C 365.414062 410.097656 362.980469 408.984375 358.285156 408.824219 C 348.222656 408.484375 339.511719 411.203125 335.792969 412.363281 C 334.074219 412.898438 333.320312 412.628906 333.167969 412.246094 C 333.144531 412.183594 333.132812 412.117188 333.132812 412.042969 C 333.132812 411.632812 333.523438 411.074219 334.234375 410.738281 C 336.359375 409.742188 341.082031 405.507812 341.082031 402.179688 C 341.082031 402.136719 341.082031 402.097656 341.078125 402.054688 C 341.019531 400.328125 339.003906 399.140625 336.449219 397.632812 C 333.90625 396.128906 330.738281 394.257812 328.992188 391.355469 C 327.425781 388.742188 327.011719 386.492188 327.011719 384.847656 C 327.011719 383.878906 327.152344 383.140625 327.289062 382.644531 C 333.652344 394.550781 345.417969 397.105469 354.265625 397.105469 C 358.847656 397.105469 362.925781 397.503906 366.871094 397.894531 C 369.902344 398.191406 373.035156 398.5 376.414062 398.632812 C 378.601562 398.71875 382.460938 398.730469 387.347656 398.746094 C 399.988281 398.792969 419.089844 398.863281 433.328125 400.234375 C 451.378906 401.972656 454.695312 400.125 461.964844 396.078125 L 464.328125 394.773438 C 470.511719 391.417969 477.175781 391.164062 480.628906 391.316406 C 480.859375 391.324219 481.355469 391.378906 481.28125 390.996094 C 481.203125 390.617188 480.839844 390.640625 480.59375 390.628906 C 477.011719 390.488281 470.257812 390.777344 464 394.167969 L 461.628906 395.476562 C 454.488281 399.453125 451.230469 401.269531 433.394531 399.550781 C 419.125 398.175781 400.003906 398.105469 387.351562 398.058594 C 382.46875 398.042969 378.613281 398.03125 376.441406 397.945312 C 373.082031 397.8125 369.960938 397.507812 366.9375 397.210938 C 362.976562 396.820312 358.882812 396.417969 354.265625 396.417969 C 345.433594 396.417969 333.628906 393.855469 327.515625 381.644531 C 327.460938 381.523438 327.339844 381.453125 327.207031 381.453125 C 327.078125 381.453125 326.957031 381.527344 326.902344 381.644531 C 326.816406 381.816406 324.910156 385.886719 328.40625 391.707031 C 330.238281 394.761719 333.488281 396.683594 336.101562 398.222656 C 338.378906 399.570312 340.34375 400.730469 340.390625 402.078125 C 340.496094 405.039062 335.851562 409.21875 333.941406 410.117188 C 332.832031 410.636719 332.210938 411.679688 332.527344 412.492188 C 332.660156 412.828125 333.292969 413.863281 335.910156 413.046875 C 339.683594 411.867188 348.316406 409.171875 358.265625 409.511719 C 362.820312 409.667969 365.195312 410.753906 367.945312 412.007812 C 371.316406 413.546875 375.132812 415.289062 383.886719 416.039062 C 399.515625 417.378906 436.121094 420.511719 445.527344 420.164062 C 454.773438 419.820312 458.09375 418.902344 464.003906 416.121094 C 468.386719 414.058594 471.757812 413.0625 474.398438 413.03125 C 474.574219 413.03125 474.960938 412.960938 475.074219 412.695312 C 475.1875 412.433594 474.773438 412.34375 474.546875 412.34375 " fill-opacity="1" fill-rule="nonzero"/><path fill="rgb(37.249756%, 23.529053%, 10.5896%)" d="M 340.730469 401.726562 C 340.542969 401.730469 340.390625 401.878906 340.390625 402.066406 C 340.390625 402.15625 340.4375 404.207031 344.253906 404.207031 C 346.332031 404.207031 348.011719 403.832031 349.363281 403.535156 C 350.328125 403.320312 351.164062 403.136719 351.894531 403.136719 C 352.085938 403.136719 352.238281 402.984375 352.238281 402.792969 C 352.238281 402.601562 352.085938 402.449219 351.894531 402.449219 C 351.085938 402.449219 350.21875 402.640625 349.214844 402.863281 C 347.828125 403.171875 346.253906 403.519531 344.253906 403.519531 C 341.167969 403.519531 341.082031 402.121094 341.078125 402.0625 C 341.074219 401.875 340.917969 401.722656 340.730469 401.726562 " fill-opacity="1" fill-rule="nonzero"/><path fill="rgb(37.249756%, 23.529053%, 10.5896%)" d="M 480.925781 395.882812 C 469.757812 396.21875 464.484375 399.347656 459.832031 402.105469 C 456.453125 404.105469 453.535156 405.835938 448.917969 406.308594 C 437.851562 407.4375 422.4375 405.640625 422.28125 405.621094 C 422.09375 405.597656 421.921875 405.734375 421.902344 405.921875 C 421.878906 406.109375 422.011719 406.28125 422.203125 406.304688 C 422.359375 406.320312 437.84375 408.128906 448.988281 406.992188 C 453.757812 406.503906 456.878906 404.652344 460.183594 402.695312 C 464.765625 399.980469 469.957031 396.902344 480.945312 396.570312 C 481.136719 396.5625 481.285156 396.40625 481.28125 396.214844 C 481.273438 396.027344 481.113281 395.878906 480.925781 395.882812 " fill-opacity="1" fill-rule="nonzero"/><path fill="rgb(37.249756%, 23.529053%, 10.5896%)" d="M 420.792969 413.605469 C 420.773438 413.792969 420.914062 413.960938 421.105469 413.976562 C 421.273438 413.992188 438.378906 415.503906 443.910156 415.503906 C 444.097656 415.503906 444.253906 415.351562 444.253906 415.160156 C 444.253906 414.972656 444.097656 414.816406 443.910156 414.816406 C 438.410156 414.816406 421.335938 413.308594 421.164062 413.292969 C 420.976562 413.277344 420.808594 413.414062 420.792969 413.605469 " fill-opacity="1" fill-rule="nonzero"/><path fill="rgb(37.249756%, 23.529053%, 10.5896%)" d="M 466.390625 407.03125 C 466.246094 407.148438 466.222656 407.367188 466.339844 407.511719 C 466.457031 407.660156 466.675781 407.683594 466.824219 407.566406 C 471.40625 403.875 477.167969 403.898438 477.226562 403.902344 C 477.417969 403.902344 477.570312 403.75 477.574219 403.5625 C 477.578125 403.371094 477.425781 403.214844 477.234375 403.214844 C 476.988281 403.210938 471.171875 403.179688 466.390625 407.03125 " fill-opacity="1" fill-rule="nonzero"/><path fill="rgb(37.249756%, 23.529053%, 10.5896%)" d="M 462.710938 408.953125 C 462.695312 408.964844 461.300781 410.195312 459.582031 410.550781 C 459.398438 410.589844 459.277344 410.773438 459.316406 410.957031 C 459.355469 411.144531 459.535156 411.261719 459.722656 411.222656 C 461.625 410.828125 463.105469 409.519531 463.167969 409.464844 C 463.308594 409.335938 463.320312 409.121094 463.195312 408.976562 C 463.070312 408.835938 462.851562 408.824219 462.710938 408.953125 " fill-opacity="1" fill-rule="nonzero"/><path fill="rgb(37.249756%, 23.529053%, 10.5896%)" d="M 355.351562 402.640625 C 355.351562 402.957031 355.09375 403.210938 354.78125 403.210938 C 354.464844 403.210938 354.207031 402.957031 354.207031 402.640625 C 354.207031 402.324219 354.464844 402.066406 354.78125 402.066406 C 355.09375 402.066406 355.351562 402.324219 355.351562 402.640625 " fill-opacity="1" fill-rule="nonzero"/><path fill="rgb(37.249756%, 23.529053%, 10.5896%)" d="M 360.855469 403.269531 C 360.855469 403.585938 360.597656 403.84375 360.28125 403.84375 C 359.964844 403.84375 359.707031 403.585938 359.707031 403.269531 C 359.707031 402.953125 359.964844 402.695312 360.28125 402.695312 C 360.597656 402.695312 360.855469 402.953125 360.855469 403.269531 " fill-opacity="1" fill-rule="nonzero"/><path fill="rgb(37.249756%, 23.529053%, 10.5896%)" d="M 449.640625 413.863281 C 449.640625 414.179688 449.382812 414.4375 449.066406 414.4375 C 448.75 414.4375 448.496094 414.179688 448.496094 413.863281 C 448.496094 413.546875 448.75 413.292969 449.066406 413.292969 C 449.382812 413.292969 449.640625 413.546875 449.640625 413.863281 " fill-opacity="1" fill-rule="nonzero"/><path fill="rgb(45.098877%, 77.249146%, 19.60907%)" d="M 327.246094 381.910156 C 327.246094 381.910156 328.355469 387.867188 324.039062 389.585938 C 319.71875 391.300781 309.957031 386.664062 310.070312 382.769531 C 310.183594 378.875 324.765625 376.128906 327.246094 381.910156 " fill-opacity="1" fill-rule="nonzero"/><g clip-path="url(#id3)"><path fill="rgb(37.249756%, 23.529053%, 10.5896%)" d="M 316.277344 378.589844 C 313.296875 379.15625 309.792969 380.589844 309.726562 382.761719 C 309.683594 384.183594 310.804688 385.769531 312.886719 387.222656 C 316.097656 389.46875 321.195312 391.085938 324.164062 389.902344 C 328.691406 388.101562 327.597656 381.910156 327.585938 381.847656 C 327.582031 381.824219 327.574219 381.800781 327.5625 381.773438 C 326.101562 378.371094 320.84375 377.722656 316.277344 378.589844 Z M 313.277344 386.660156 C 311.425781 385.359375 310.378906 383.949219 310.414062 382.78125 C 310.453125 381.394531 312.976562 379.917969 316.40625 379.265625 C 320.554688 378.476562 325.597656 379.011719 326.917969 382.027344 C 326.941406 382.164062 327.023438 382.734375 327.023438 383.539062 C 327.023438 385.347656 326.574219 388.203125 323.910156 389.265625 C 321.195312 390.347656 316.277344 388.753906 313.277344 386.660156 " fill-opacity="1" fill-rule="nonzero"/></g><path fill="rgb(37.249756%, 23.529053%, 10.5896%)" d="M 317.757812 383.632812 C 317.570312 383.664062 317.441406 383.835938 317.46875 384.023438 C 317.5 384.210938 317.675781 384.339844 317.863281 384.3125 C 324.761719 383.253906 326.96875 385.589844 326.988281 385.613281 C 327.117188 385.753906 327.332031 385.765625 327.476562 385.640625 C 327.617188 385.515625 327.632812 385.300781 327.503906 385.160156 C 327.410156 385.050781 325.082031 382.511719 317.757812 383.632812 " fill-opacity="1" fill-rule="nonzero"/><path fill="rgb(45.098877%, 77.249146%, 19.60907%)" d="M 332.40625 412.644531 C 332.40625 412.644531 330.269531 411.878906 327.898438 413.671875 C 325.527344 415.46875 324.152344 424.019531 327.972656 424.667969 C 331.792969 425.316406 336.304688 419.972656 336.34375 415.773438 C 336.378906 411.574219 333.324219 411.652344 332.40625 412.644531 " fill-opacity="1" fill-rule="nonzero"/><path fill="rgb(37.249756%, 23.529053%, 10.5896%)" d="M 332.355469 412.277344 C 331.894531 412.140625 329.925781 411.707031 327.6875 413.398438 C 325.914062 414.742188 324.75 419.414062 325.460938 422.320312 C 325.84375 423.867188 326.691406 424.796875 327.917969 425.007812 C 329.421875 425.261719 331.132812 424.667969 332.730469 423.332031 C 335.035156 421.402344 336.664062 418.296875 336.6875 415.777344 C 336.710938 413.078125 335.511719 412.199219 334.792969 411.914062 C 333.855469 411.542969 332.910156 411.820312 332.355469 412.277344 Z M 332.660156 412.875 C 333.015625 412.492188 333.8125 412.265625 334.539062 412.550781 C 335.496094 412.929688 336.015625 414.074219 335.996094 415.769531 C 335.976562 418.105469 334.453125 420.996094 332.289062 422.804688 C 330.847656 424.007812 329.335938 424.550781 328.03125 424.328125 C 327.082031 424.167969 326.445312 423.4375 326.132812 422.15625 C 325.429688 419.292969 326.667969 415.035156 328.105469 413.945312 C 330.285156 412.296875 332.210938 412.941406 332.289062 412.96875 C 332.421875 413.011719 332.566406 412.976562 332.660156 412.875 " fill-opacity="1" fill-rule="nonzero"/><path fill="rgb(37.249756%, 23.529053%, 10.5896%)" d="M 332.164062 412.398438 C 332.074219 412.488281 329.976562 414.617188 329.507812 417.9375 C 329.480469 418.128906 329.609375 418.300781 329.796875 418.328125 C 329.984375 418.355469 330.160156 418.222656 330.1875 418.035156 C 330.621094 414.949219 332.628906 412.90625 332.648438 412.886719 C 332.78125 412.75 332.78125 412.535156 332.648438 412.398438 C 332.515625 412.265625 332.296875 412.265625 332.164062 412.398438 " fill-opacity="1" fill-rule="nonzero"/><path fill="rgb(35.289001%, 71.759033%, 21.179199%)" d="M 394.894531 394.738281 C 394.101562 392.148438 392.171875 388.867188 387.507812 388.589844 C 379.714844 388.132812 373.523438 392.636719 370.847656 403.480469 C 368.035156 414.875 373.828125 423.789062 381.316406 425.316406 C 388.808594 426.84375 394.003906 422.566406 395.152344 415.316406 C 396.296875 408.0625 395.433594 396.476562 394.894531 394.738281 " fill-opacity="1" fill-rule="nonzero"/><path fill="rgb(45.098877%, 77.249146%, 19.60907%)" d="M 373.722656 402.523438 C 372.527344 407.367188 373.074219 411.941406 375.265625 415.398438 C 376.789062 417.804688 378.953125 419.402344 381.363281 419.894531 C 383.851562 420.402344 385.929688 420.09375 387.535156 418.980469 C 389.257812 417.785156 390.398438 415.6875 390.839844 412.910156 C 391.914062 406.125 391.0625 395.417969 390.6875 393.933594 C 389.78125 390.980469 388.027344 390.5 386.605469 390.417969 C 380.132812 390.039062 375.796875 394.109375 373.722656 402.523438 " fill-opacity="1" fill-rule="nonzero"/><path fill="rgb(31.369019%, 67.83905%, 21.569824%)" d="M 385.902344 408.824219 C 383.152344 410.65625 387.738281 417.070312 384.988281 418.902344 C 380.902344 421.621094 376.316406 420.304688 371.976562 417.570312 C 373.976562 421.699219 377.410156 424.519531 381.316406 425.316406 C 388.808594 426.84375 394.003906 422.566406 395.152344 415.316406 C 395.730469 411.644531 395.796875 406.871094 395.648438 402.820312 C 391.757812 403.757812 388.246094 405.703125 385.902344 408.824219 " fill-opacity="1" fill-rule="nonzero"/><path fill="rgb(17.649841%, 56.079102%, 23.919678%)" d="M 370.515625 403.398438 C 369.054688 409.308594 369.78125 414.984375 372.5625 419.375 C 374.675781 422.710938 377.761719 424.941406 381.25 425.652344 C 384.800781 426.378906 388.003906 425.84375 390.511719 424.105469 C 393.15625 422.273438 394.875 419.253906 395.488281 415.367188 C 396.632812 408.152344 395.796875 396.503906 395.226562 394.636719 C 394.378906 391.878906 392.355469 388.53125 387.527344 388.25 C 381.558594 387.898438 373.761719 390.242188 370.515625 403.398438 Z M 381.386719 424.980469 C 378.082031 424.304688 375.15625 422.183594 373.144531 419.007812 C 370.464844 414.777344 369.769531 409.289062 371.183594 403.5625 C 373.660156 393.511719 379.300781 388.453125 387.488281 388.933594 C 391.917969 389.195312 393.785156 392.289062 394.566406 394.839844 C 395.046875 396.398438 395.988281 407.8125 394.8125 415.261719 C 394.226562 418.953125 392.605469 421.816406 390.117188 423.542969 C 387.769531 425.167969 384.75 425.664062 381.386719 424.980469 " fill-opacity="1" fill-rule="nonzero"/><path fill="rgb(35.289001%, 71.759033%, 21.179199%)" d="M 415.710938 394.394531 C 415.710938 394.394531 414.714844 386.914062 404.78125 386.914062 C 394.84375 386.914062 387.621094 393.25 385.328125 406.992188 C 383.035156 420.738281 392.78125 429.554688 402.984375 427.605469 C 413.1875 425.660156 419.609375 409.972656 415.710938 394.394531 " fill-opacity="1" fill-rule="nonzero"/><path fill="rgb(45.098877%, 77.249146%, 19.60907%)" d="M 388.488281 405.457031 C 387.578125 410.910156 388.890625 415.832031 392.085938 418.945312 C 394.691406 421.488281 398.246094 422.554688 401.835938 421.871094 C 405.164062 421.234375 407.488281 418.558594 408.855469 416.425781 C 412.695312 410.421875 413.78125 401.5 411.691406 393.148438 C 411.671875 393.0625 411.640625 392.894531 411.625 392.8125 C 411.496094 392.082031 410.535156 388.4375 404.324219 388.4375 C 395.699219 388.4375 390.375 394.164062 388.488281 405.457031 " fill-opacity="1" fill-rule="nonzero"/><path fill="rgb(31.369019%, 67.83905%, 21.569824%)" d="M 403.328125 422.570312 C 398.679688 424.632812 393.164062 424.371094 388.574219 422.113281 C 391.988281 426.519531 397.414062 428.667969 402.984375 427.605469 C 410.871094 426.101562 416.492188 416.386719 416.839844 404.859375 C 413.257812 406.089844 409.847656 408.164062 406.996094 410.65625 C 404.246094 413.40625 406.996094 420.738281 403.328125 422.570312 " fill-opacity="1" fill-rule="nonzero"/><path fill="rgb(17.649841%, 56.079102%, 23.919678%)" d="M 384.992188 406.9375 C 383.863281 413.703125 385.59375 419.90625 389.742188 423.953125 C 393.300781 427.425781 398.152344 428.878906 403.046875 427.945312 C 406.792969 427.230469 410.128906 424.730469 412.691406 420.722656 C 417.109375 413.820312 418.390625 403.699219 416.042969 394.3125 C 416.046875 394.324219 416.046875 394.335938 416.050781 394.351562 C 416.039062 394.273438 414.898438 386.570312 404.78125 386.570312 C 394.054688 386.570312 387.214844 393.613281 384.992188 406.9375 Z M 390.222656 423.460938 C 386.238281 419.570312 384.578125 413.589844 385.667969 407.046875 C 387.828125 394.101562 394.4375 387.257812 404.78125 387.257812 C 414.28125 387.257812 415.328125 394.148438 415.367188 394.441406 C 415.371094 394.453125 415.371094 394.464844 415.375 394.476562 C 417.679688 403.6875 416.429688 413.601562 412.113281 420.351562 C 409.652344 424.199219 406.472656 426.59375 402.917969 427.269531 C 398.246094 428.164062 393.617188 426.773438 390.222656 423.460938 " fill-opacity="1" fill-rule="nonzero"/><path fill="rgb(35.289001%, 71.759033%, 21.179199%)" d="M 425.253906 412.492188 C 424.539062 407.597656 426.195312 401.40625 433.363281 399.890625 C 436.101562 399.3125 436.648438 391.417969 427.019531 388.667969 C 417.390625 385.921875 408.066406 390.347656 404.246094 403.632812 C 400.421875 416.917969 407.914062 429.136719 421.210938 431.121094 C 434.507812 433.105469 444.445312 426.234375 445.515625 419.820312 C 445.515625 419.820312 437.128906 419.804688 431.835938 419.210938 C 427.707031 418.75 425.726562 415.742188 425.253906 412.492188 " fill-opacity="1" fill-rule="nonzero"/><path fill="rgb(45.098877%, 77.249146%, 19.60907%)" d="M 407.769531 404.644531 C 406.171875 410.203125 406.824219 415.640625 409.605469 419.964844 C 412.226562 424.042969 416.542969 426.71875 421.753906 427.496094 C 429.871094 428.707031 435.914062 426.257812 439.179688 423.355469 C 436.632812 423.265625 433.773438 423.117188 431.425781 422.855469 C 426.175781 422.265625 422.421875 418.5 421.625 413.019531 C 421.5 412.167969 421.433594 411.304688 421.433594 410.4375 C 421.433594 404.570312 424.417969 398.707031 431.40625 396.667969 C 431.382812 396.390625 431.3125 396.03125 431.082031 395.582031 C 430.324219 394.113281 428.523438 392.910156 426.011719 392.191406 C 417.402344 389.734375 410.753906 394.273438 407.769531 404.644531 " fill-opacity="1" fill-rule="nonzero"/><path fill="rgb(31.369019%, 67.83905%, 21.569824%)" d="M 426.257812 421.804688 C 434.203125 427.300781 437.226562 424.382812 443.355469 424.28125 C 444.507812 422.851562 445.265625 421.324219 445.515625 419.820312 C 445.515625 419.820312 437.128906 419.804688 431.835938 419.210938 C 427.707031 418.75 425.726562 415.742188 425.253906 412.492188 C 424.539062 407.597656 426.195312 401.40625 433.363281 399.890625 C 433.566406 399.847656 433.757812 399.761719 433.933594 399.640625 C 423.382812 399.308594 419.949219 416.40625 426.257812 421.804688 " fill-opacity="1" fill-rule="nonzero"/><path fill="rgb(17.649841%, 56.079102%, 23.919678%)" d="M 403.914062 403.539062 C 401.992188 410.222656 402.8125 416.824219 406.226562 422.132812 C 409.488281 427.195312 414.789062 430.507812 421.160156 431.460938 C 434.25 433.414062 444.679688 426.921875 445.855469 419.878906 C 445.871094 419.777344 445.84375 419.675781 445.777344 419.597656 C 445.710938 419.523438 445.617188 419.476562 445.515625 419.476562 C 445.429688 419.476562 437.089844 419.453125 431.871094 418.871094 C 426.972656 418.320312 425.847656 414.195312 425.59375 412.445312 C 424.871094 407.492188 426.550781 401.683594 433.433594 400.226562 C 434.574219 399.984375 435.378906 398.707031 435.4375 397.042969 C 435.539062 394.152344 433.417969 390.136719 427.113281 388.339844 C 416.382812 385.273438 407.492188 391.101562 403.914062 403.539062 Z M 421.261719 430.78125 C 415.089844 429.859375 409.957031 426.652344 406.804688 421.757812 C 403.503906 416.621094 402.707031 410.21875 404.578125 403.726562 C 408.039062 391.695312 416.601562 386.050781 426.925781 389 C 432.847656 390.691406 434.84375 394.375 434.75 397.019531 C 434.703125 398.359375 434.117188 399.382812 433.289062 399.554688 C 425.933594 401.109375 424.179688 407.523438 424.914062 412.542969 C 425.5 416.574219 428.007812 419.128906 431.796875 419.554688 C 436.351562 420.0625 443.238281 420.148438 445.046875 420.160156 C 443.710938 426.015625 434.316406 432.730469 421.261719 430.78125 " fill-opacity="1" fill-rule="nonzero"/><path fill="rgb(63.919067%, 85.879517%, 43.919373%)" d="M 416.890625 405.007812 C 416.066406 406.660156 415.609375 409.148438 416.320312 410.292969 C 416.582031 410.71875 416.984375 410.945312 417.484375 410.945312 C 419.101562 410.945312 419.613281 409.535156 419.664062 408.789062 C 419.675781 408.601562 419.53125 408.4375 419.339844 408.425781 C 419.152344 408.414062 418.988281 408.554688 418.976562 408.746094 C 418.964844 408.898438 418.832031 410.257812 417.484375 410.257812 C 417.226562 410.257812 417.039062 410.152344 416.902344 409.929688 C 416.398438 409.117188 416.683594 406.960938 417.507812 405.3125 C 417.589844 405.144531 417.523438 404.9375 417.351562 404.851562 C 417.183594 404.769531 416.976562 404.835938 416.890625 405.007812 " fill-opacity="1" fill-rule="nonzero"/><path fill="rgb(63.919067%, 85.879517%, 43.919373%)" d="M 415.261719 396.953125 C 412.925781 398.816406 412.234375 401.4375 412.765625 402.953125 C 413.035156 403.726562 413.605469 404.167969 414.332031 404.167969 C 415.328125 404.167969 416.0625 403.746094 416.589844 403.296875 C 416.566406 403.476562 416.523438 403.640625 416.523438 403.828125 C 416.523438 404.308594 416.617188 404.792969 416.898438 405.1875 C 417.285156 405.742188 417.941406 406.011719 418.847656 406 C 421.507812 405.960938 422.785156 402.070312 422.835938 401.90625 C 422.894531 401.722656 422.796875 401.53125 422.617188 401.472656 C 422.433594 401.414062 422.242188 401.515625 422.183594 401.695312 C 422.171875 401.730469 421.003906 405.28125 418.835938 405.3125 C 418.171875 405.320312 417.707031 405.148438 417.460938 404.792969 C 417.09375 404.269531 417.128906 403.285156 417.558594 402.152344 C 417.621094 401.980469 417.542969 401.792969 417.378906 401.71875 C 417.214844 401.640625 417.019531 401.707031 416.933594 401.867188 C 416.898438 401.933594 416.042969 403.480469 414.332031 403.480469 C 413.792969 403.480469 413.535156 403.070312 413.414062 402.726562 C 413.023438 401.617188 413.476562 399.257812 415.695312 397.488281 C 415.839844 397.367188 415.867188 397.152344 415.746094 397.003906 C 415.628906 396.855469 415.414062 396.832031 415.261719 396.953125 " fill-opacity="1" fill-rule="nonzero"/><path fill="rgb(63.919067%, 85.879517%, 43.919373%)" d="M 395.207031 399.320312 C 395.144531 399.496094 395.238281 399.695312 395.417969 399.757812 C 395.59375 399.820312 395.792969 399.726562 395.855469 399.546875 C 396.203125 398.582031 397.441406 395.875 398.558594 396.105469 C 398.769531 396.148438 398.914062 396.253906 399.011719 396.433594 C 399.394531 397.121094 398.960938 398.621094 398.765625 399.140625 C 398.695312 399.316406 398.785156 399.511719 398.960938 399.582031 C 399.140625 399.652344 399.339844 399.5625 399.40625 399.386719 C 399.492188 399.164062 400.214844 397.195312 399.617188 396.101562 C 399.421875 395.746094 399.105469 395.515625 398.695312 395.433594 C 396.796875 395.039062 395.367188 398.878906 395.207031 399.320312 " fill-opacity="1" fill-rule="nonzero"/><path fill="rgb(63.919067%, 85.879517%, 43.919373%)" d="M 393.902344 411.230469 C 391.898438 412.347656 391.9375 415.976562 391.941406 416.128906 C 391.945312 416.316406 392.097656 416.46875 392.289062 416.46875 C 392.480469 416.464844 392.628906 416.308594 392.628906 416.117188 C 392.625 416.082031 392.59375 412.746094 394.238281 411.832031 C 394.566406 411.648438 394.867188 411.613281 395.160156 411.726562 C 395.910156 412.019531 396.453125 413.21875 396.601562 413.65625 C 396.660156 413.835938 396.855469 413.933594 397.035156 413.875 C 397.214844 413.816406 397.3125 413.621094 397.253906 413.441406 C 397.226562 413.363281 396.617188 411.554688 395.410156 411.085938 C 394.917969 410.898438 394.414062 410.945312 393.902344 411.230469 " fill-opacity="1" fill-rule="nonzero"/><path fill="rgb(63.919067%, 85.879517%, 43.919373%)" d="M 398.222656 411.824219 C 397.460938 412.101562 396.921875 412.574219 396.613281 413.230469 C 396.003906 414.539062 396.558594 416.09375 396.585938 416.15625 C 396.648438 416.335938 396.847656 416.425781 397.027344 416.363281 C 397.203125 416.296875 397.296875 416.101562 397.230469 415.921875 C 397.191406 415.8125 396.292969 413.253906 398.457031 412.46875 C 398.972656 412.28125 399.355469 412.292969 399.636719 412.503906 C 400.234375 412.960938 400.269531 414.28125 400.234375 414.753906 C 400.21875 414.941406 400.359375 415.105469 400.550781 415.121094 C 400.738281 415.136719 400.902344 414.996094 400.917969 414.808594 C 400.9375 414.597656 401.058594 412.722656 400.050781 411.957031 C 399.578125 411.597656 398.964844 411.554688 398.222656 411.824219 " fill-opacity="1" fill-rule="nonzero"/><path fill="rgb(63.919067%, 85.879517%, 43.919373%)" d="M 376.367188 400 C 376.296875 400.074219 374.664062 401.851562 374.726562 404.367188 C 374.746094 405.136719 374.996094 405.679688 375.476562 405.972656 C 376.386719 406.53125 377.738281 405.898438 377.796875 405.871094 C 377.96875 405.789062 378.039062 405.585938 377.960938 405.414062 C 377.878906 405.242188 377.671875 405.171875 377.5 405.25 C 377.203125 405.390625 376.324219 405.691406 375.832031 405.386719 C 375.566406 405.222656 375.425781 404.875 375.414062 404.351562 C 375.359375 402.121094 376.855469 400.484375 376.867188 400.46875 C 377 400.328125 376.988281 400.113281 376.851562 399.984375 C 376.710938 399.855469 376.496094 399.863281 376.367188 400 " fill-opacity="1" fill-rule="nonzero"/><path fill="rgb(63.919067%, 85.879517%, 43.919373%)" d="M 378.109375 403.421875 C 378.089844 403.453125 376.074219 406.511719 378.6875 408.6875 C 379.320312 409.210938 379.929688 409.371094 380.515625 409.167969 C 381.984375 408.648438 382.566406 405.933594 382.628906 405.628906 C 382.664062 405.441406 382.546875 405.261719 382.359375 405.222656 C 382.171875 405.1875 381.992188 405.308594 381.953125 405.492188 C 381.808594 406.222656 381.222656 408.1875 380.285156 408.519531 C 379.941406 408.640625 379.566406 408.523438 379.128906 408.160156 C 376.996094 406.382812 378.609375 403.910156 378.679688 403.804688 C 378.785156 403.648438 378.742188 403.433594 378.585938 403.328125 C 378.429688 403.222656 378.214844 403.265625 378.109375 403.421875 " fill-opacity="1" fill-rule="nonzero"/><path fill="rgb(63.919067%, 85.879517%, 43.919373%)" d="M 400.042969 489.070312 C 394.15625 489.226562 381.429688 483.039062 381.429688 483.039062 C 381.429688 483.039062 395.761719 490.371094 399.660156 490.371094 C 401.363281 490.371094 404.230469 489.230469 407.628906 487.945312 C 404.644531 488.5625 401.855469 489.023438 400.042969 489.070312 " fill-opacity="1" fill-rule="nonzero"/><g fill="rgb(100%, 79.998779%, 0%)" fill-opacity="1"><g transform="translate(445.637909, 533.925932)"><g><path d="M 53.128906 -23.871094 C 46.585938 -28.488281 41.578125 -36.191406 38.882812 -47.355469 L 10.394531 -47.355469 C 16.167969 -12.320312 38.5 5.003906 77.769531 5.003906 C 87.007812 5.003906 95.480469 4.234375 103.5625 1.925781 C 111.648438 -0.386719 118.578125 -3.464844 125.125 -7.699219 C 138.214844 -16.554688 144.757812 -30.03125 144.757812 -48.125 C 144.757812 -66.605469 136.289062 -79.695312 118.578125 -88.164062 C 111.265625 -91.628906 103.179688 -94.324219 94.324219 -96.25 C 85.855469 -98.175781 77.769531 -100.484375 70.453125 -102.792969 C 62.753906 -105.105469 56.59375 -108.183594 51.589844 -111.648438 C 46.585938 -115.113281 43.890625 -120.503906 43.890625 -128.203125 C 43.890625 -135.902344 46.96875 -141.679688 53.128906 -145.144531 C 59.289062 -148.992188 66.605469 -150.917969 74.691406 -150.917969 C 83.160156 -150.917969 90.472656 -148.992188 96.25 -145.914062 C 102.023438 -142.835938 106.644531 -136.675781 109.339844 -127.433594 L 138.214844 -127.433594 C 134.75 -144.375 127.433594 -156.308594 116.652344 -162.855469 C 105.488281 -169.785156 92.015625 -173.25 75.460938 -173.25 C 59.289062 -173.25 45.042969 -168.628906 33.109375 -160.160156 C 21.558594 -151.304688 15.398438 -138.597656 15.398438 -121.660156 C 15.398438 -113.574219 17.710938 -106.257812 21.945312 -100.097656 C 26.566406 -93.554688 33.109375 -88.550781 41.578125 -84.699219 C 49.28125 -81.234375 57.363281 -78.539062 65.835938 -76.230469 C 74.304688 -74.304688 82.390625 -71.996094 90.089844 -69.683594 C 107.414062 -63.910156 116.269531 -55.441406 116.269531 -44.660156 C 116.269531 -26.179688 103.949219 -17.324219 79.308594 -17.324219 C 68.914062 -17.324219 60.058594 -19.25 53.128906 -23.871094 Z M 53.128906 -23.871094 "/></g></g></g></svg>