<svg xmlns="http://www.w3.org/2000/svg" xmlns:xlink="http://www.w3.org/1999/xlink" width="1080" zoomAndPan="magnify" viewBox="0 0 810 809.999993" height="1080" preserveAspectRatio="xMidYMid meet" version="1.0"><defs><g/><clipPath id="id1"><path d="M 601.714844 398.53125 L 776.390625 398.53125 L 776.390625 566.597656 L 601.714844 566.597656 Z M 601.714844 398.53125 " clip-rule="nonzero"/></clipPath><clipPath id="id2"><path d="M 617 397.105469 L 762 397.105469 L 762 490 L 617 490 Z M 617 397.105469 " clip-rule="nonzero"/></clipPath><clipPath id="id3"><path d="M 756.320312 454.507812 L 776.390625 454.507812 L 776.390625 494 L 756.320312 494 Z M 756.320312 454.507812 " clip-rule="nonzero"/></clipPath></defs><rect x="-81" width="972" fill="rgb(100%, 100%, 100%)" y="-80.999999" height="971.999992" fill-opacity="1"/><rect x="-81" width="972" fill="rgb(100%, 100%, 100%)" y="-80.999999" height="971.999992" fill-opacity="1"/><g fill="rgb(100%, 47.059631%, 0.779724%)" fill-opacity="1"><g transform="translate(111.849768, 539.627688)"><g><path d="M 236.902344 21.1875 L 297.765625 -261.941406 L 270.414062 -261.941406 L 229.582031 -71.648438 L 151 -277.347656 L 72.035156 -71.648438 L 31.585938 -261.941406 L 3.851562 -261.941406 L 65.101562 21.1875 L 151 -206.855469 Z M 236.902344 21.1875 "/></g></g></g><g fill="rgb(100%, 79.998779%, 0%)" fill-opacity="1"><g transform="translate(400.314271, 540.361985)"><g><path d="M 194.421875 21.558594 L 274.886719 -169.398438 L 244.859375 -169.398438 L 194.039062 -38.882812 L 139.367188 -178.253906 L 84.699219 -38.882812 L 33.878906 -169.398438 L 3.851562 -169.398438 L 85.085938 21.558594 L 139.367188 -115.113281 Z M 194.421875 21.558594 "/></g></g></g><g clip-path="url(#id1)"><path fill="rgb(89.7995%, 52.549744%, 8.628845%)" d="M 772.859375 487.625 C 769.644531 491.621094 764.308594 493.828125 758.613281 493.828125 C 756.890625 493.828125 755.132812 493.621094 753.390625 493.203125 C 745.398438 512.683594 728.625 527.703125 707.933594 533.445312 C 709.160156 538.753906 709.421875 544.183594 708.707031 549.605469 C 707.953125 555.332031 703.289062 566.042969 703.238281 566.128906 C 702.757812 566.964844 700.664062 566.65625 698.566406 565.445312 C 696.46875 564.230469 695.15625 562.570312 695.636719 561.734375 C 696.121094 560.902344 698.210938 561.207031 700.3125 562.421875 C 700.789062 562.699219 701.226562 563 701.613281 563.308594 C 703.890625 558.90625 705.375 554.183594 706.027344 549.25 C 706.695312 544.175781 706.449219 539.089844 705.308594 534.113281 C 700.140625 535.335938 694.75 535.984375 689.207031 535.984375 C 683.933594 535.984375 678.804688 535.398438 673.875 534.292969 C 670.554688 541.78125 673.453125 549.824219 678.792969 553.15625 C 683.53125 556.113281 690.242188 555.554688 695.265625 551.824219 C 695.339844 551.738281 695.648438 551.566406 695.648438 551.566406 C 696.492188 551.246094 698.171875 551.632812 699.863281 552.609375 C 701.960938 553.824219 703.273438 555.484375 702.789062 556.320312 C 702.308594 557.152344 700.214844 556.847656 698.117188 555.632812 C 697.441406 555.242188 696.847656 554.804688 696.367188 554.363281 C 693.113281 556.628906 689.375 557.792969 685.738281 557.792969 C 682.773438 557.792969 679.871094 557.023438 677.359375 555.453125 C 670.410156 551.117188 667.960938 541.675781 671.226562 533.644531 C 649.855469 527.972656 632.558594 512.433594 624.636719 492.257812 C 617.785156 490.472656 610.636719 492.335938 606.875 497.015625 C 604.363281 500.140625 603.320312 504.554688 604.015625 509.125 C 604.792969 514.21875 607.640625 518.886719 611.890625 522.109375 C 612.332031 522.070312 612.84375 522.074219 613.386719 522.136719 C 614.941406 522.304688 616.15625 522.84375 616.101562 523.339844 C 616.058594 523.734375 615.207031 523.984375 614.070312 523.976562 C 615.058594 524.941406 615.601562 525.929688 615.296875 526.269531 C 615.027344 526.570312 614.175781 526.265625 613.234375 525.582031 C 613.589844 527.039062 613.507812 528.292969 613.042969 528.414062 C 612.5625 528.539062 611.863281 527.433594 611.46875 525.941406 C 611.296875 527.246094 610.859375 528.21875 610.417969 528.183594 C 609.921875 528.148438 609.613281 526.855469 609.726562 525.296875 C 609.785156 524.542969 609.929688 523.867188 610.121094 523.375 C 605.722656 519.84375 602.777344 514.867188 601.949219 509.441406 C 601.167969 504.292969 602.367188 499.285156 605.246094 495.703125 C 608.460938 491.710938 613.796875 489.503906 619.492188 489.503906 C 620.90625 489.503906 622.339844 489.644531 623.769531 489.921875 C 621.292969 482.871094 619.949219 475.296875 619.949219 467.414062 C 619.949219 429.546875 650.953125 398.847656 689.207031 398.847656 C 727.453125 398.847656 758.460938 429.546875 758.460938 467.414062 C 758.460938 475.792969 756.941406 483.820312 754.164062 491.242188 C 760.800781 492.730469 767.59375 490.835938 771.230469 486.3125 C 773.742188 483.191406 774.785156 478.777344 774.089844 474.207031 C 773.292969 468.980469 770.320312 464.207031 765.886719 460.980469 C 765.457031 461.195312 764.914062 461.398438 764.304688 461.542969 C 762.785156 461.910156 761.460938 461.816406 761.34375 461.332031 C 761.25 460.945312 761.964844 460.421875 763.039062 460.042969 C 761.78125 459.472656 760.933594 458.726562 761.105469 458.304688 C 761.253906 457.929688 762.164062 457.921875 763.277344 458.25 C 762.453125 457 762.101562 455.792969 762.5 455.519531 C 762.90625 455.242188 763.941406 456.042969 764.816406 457.3125 C 764.535156 456.023438 764.621094 454.964844 765.046875 454.84375 C 765.527344 454.710938 766.253906 455.824219 766.675781 457.328125 C 766.867188 458.011719 766.957031 458.660156 766.957031 459.175781 C 771.925781 462.730469 775.265625 468.050781 776.15625 473.890625 C 776.941406 479.039062 775.738281 484.046875 772.859375 487.625 " fill-opacity="1" fill-rule="nonzero"/></g><path fill="rgb(93.728638%, 73.329163%, 22.349548%)" d="M 689.207031 532.5 C 656.136719 532.5 628.777344 508.335938 624.152344 476.871094 C 625.867188 477.363281 627.875 477.210938 630.328125 477.328125 C 630.453125 477.332031 630.578125 477.335938 630.707031 477.335938 C 631.773438 483.785156 633.90625 489.878906 636.914062 495.4375 L 651.398438 495.4375 C 652.964844 495.4375 654.246094 494.15625 654.246094 492.589844 L 654.246094 488.585938 C 656.519531 487.3125 657.441406 483.488281 658.113281 479.664062 C 658.933594 474.984375 659.375 470.296875 661.457031 470.296875 C 661.527344 470.296875 661.601562 470.304688 661.675781 470.316406 C 662.546875 470.445312 663.121094 470.746094 663.488281 471.167969 C 662.253906 471.480469 661.332031 472.605469 661.332031 473.933594 L 661.332031 492.589844 C 661.332031 494.15625 662.613281 495.4375 664.175781 495.4375 L 682.816406 495.4375 C 684.382812 495.4375 685.664062 494.15625 685.664062 492.589844 L 685.664062 483.03125 C 686.90625 481.90625 686.917969 481.21875 689.667969 478.449219 C 690.960938 477.148438 691.921875 476.179688 692.746094 475.460938 L 692.746094 492.589844 C 692.746094 494.15625 694.027344 495.4375 695.59375 495.4375 L 714.234375 495.4375 C 714.746094 495.4375 715.230469 495.300781 715.648438 495.058594 C 715.652344 495.0625 715.65625 495.070312 715.664062 495.074219 C 716.996094 496.875 718.402344 498.773438 720.53125 498.894531 C 720.753906 498.90625 720.984375 498.914062 721.21875 498.914062 C 723.425781 498.914062 726.109375 498.28125 727.882812 495.4375 L 741.496094 495.4375 C 741.503906 495.425781 741.507812 495.414062 741.515625 495.398438 C 741.519531 495.394531 741.523438 495.386719 741.527344 495.382812 C 741.527344 495.375 741.535156 495.367188 741.539062 495.359375 C 741.542969 495.355469 741.542969 495.347656 741.546875 495.339844 C 741.550781 495.335938 741.554688 495.328125 741.558594 495.320312 C 741.5625 495.316406 741.566406 495.308594 741.570312 495.300781 C 741.574219 495.296875 741.574219 495.289062 741.578125 495.285156 C 741.582031 495.277344 741.585938 495.269531 741.589844 495.261719 C 741.59375 495.257812 741.597656 495.25 741.597656 495.246094 C 741.601562 495.238281 741.605469 495.230469 741.613281 495.222656 C 741.613281 495.21875 741.617188 495.210938 741.621094 495.207031 C 741.625 495.199219 741.628906 495.191406 741.632812 495.183594 C 741.636719 495.179688 741.636719 495.175781 741.640625 495.171875 C 741.644531 495.160156 741.648438 495.152344 741.65625 495.144531 C 741.65625 495.140625 741.660156 495.136719 741.660156 495.132812 C 741.664062 495.121094 741.667969 495.113281 741.675781 495.105469 C 741.675781 495.101562 741.679688 495.097656 741.679688 495.097656 C 741.683594 495.085938 741.691406 495.074219 741.695312 495.0625 C 741.695312 495.0625 741.699219 495.0625 741.699219 495.058594 C 743.296875 492.054688 744.640625 488.890625 745.699219 485.601562 C 745.789062 485.695312 745.875 485.78125 745.964844 485.863281 C 747.851562 487.632812 749.445312 488.871094 751.070312 489.480469 C 741.941406 514.566406 717.691406 532.5 689.207031 532.5 M 695.59375 502.097656 C 694.027344 502.097656 692.746094 503.382812 692.746094 504.949219 L 692.746094 523.605469 C 692.746094 524.773438 693.460938 525.78125 694.472656 526.21875 C 702.164062 525.550781 709.433594 523.425781 716.003906 520.125 C 716.003906 520.125 716.007812 520.125 716.007812 520.121094 C 716.019531 520.117188 716.027344 520.113281 716.039062 520.105469 C 716.042969 520.105469 716.046875 520.101562 716.054688 520.101562 C 716.058594 520.097656 716.066406 520.09375 716.074219 520.089844 C 716.082031 520.085938 716.09375 520.082031 716.101562 520.078125 C 716.101562 520.074219 716.109375 520.074219 716.113281 520.070312 C 716.4375 519.90625 716.757812 519.738281 717.078125 519.570312 L 717.078125 504.949219 C 717.078125 503.382812 715.796875 502.097656 714.234375 502.097656 L 695.59375 502.097656 M 683.898438 526.214844 C 683.910156 526.21875 683.925781 526.21875 683.9375 526.21875 C 684.949219 525.78125 685.664062 524.773438 685.664062 523.605469 L 685.664062 504.949219 C 685.664062 503.382812 684.382812 502.097656 682.816406 502.097656 L 664.175781 502.097656 C 662.613281 502.097656 661.332031 503.382812 661.332031 504.949219 L 661.332031 519.570312 C 668.144531 523.167969 675.746094 525.488281 683.820312 526.207031 C 683.820312 526.210938 683.824219 526.210938 683.824219 526.210938 C 683.835938 526.210938 683.84375 526.210938 683.855469 526.214844 C 683.863281 526.214844 683.867188 526.214844 683.871094 526.214844 C 683.878906 526.214844 683.886719 526.214844 683.898438 526.214844 M 727.007812 502.097656 C 725.441406 502.097656 724.164062 503.382812 724.164062 504.949219 L 724.164062 515.164062 C 729.199219 511.519531 733.632812 507.105469 737.285156 502.097656 L 727.007812 502.097656 M 654.246094 515.164062 L 654.246094 504.949219 C 654.246094 503.382812 652.964844 502.097656 651.398438 502.097656 L 641.121094 502.097656 C 641.96875 503.261719 642.859375 504.390625 643.789062 505.484375 C 645.574219 507.929688 649.097656 511.125 650.785156 512.457031 C 651.902344 513.402344 653.058594 514.304688 654.246094 515.164062 M 650.503906 471.085938 L 641.871094 471.085938 C 643.597656 468.65625 644.347656 466.753906 645.414062 464.421875 L 651.398438 464.421875 C 652.140625 464.421875 652.8125 464.136719 653.320312 463.671875 C 652.523438 465.617188 651.316406 468.050781 650.503906 471.085938 " fill-opacity="1" fill-rule="nonzero"/><path fill="rgb(88.62915%, 48.629761%, 9.408569%)" d="M 682.816406 471.085938 L 664.175781 471.085938 C 662.613281 471.085938 661.332031 472.367188 661.332031 473.933594 L 661.332031 492.589844 C 661.332031 494.15625 662.613281 495.4375 664.175781 495.4375 L 682.816406 495.4375 C 684.382812 495.4375 685.664062 494.15625 685.664062 492.589844 L 685.664062 473.933594 C 685.664062 472.367188 684.382812 471.085938 682.816406 471.085938 M 682.816406 440.070312 L 664.175781 440.070312 C 662.613281 440.070312 661.332031 441.351562 661.332031 442.917969 L 661.332031 461.574219 C 661.332031 463.140625 662.613281 464.421875 664.175781 464.421875 L 682.816406 464.421875 C 684.382812 464.421875 685.664062 463.140625 685.664062 461.574219 L 685.664062 442.917969 C 685.664062 441.351562 684.382812 440.070312 682.816406 440.070312 M 651.398438 440.070312 L 636.914062 440.070312 C 633.210938 446.90625 630.839844 454.554688 630.136719 462.675781 C 630.570312 463.699219 631.585938 464.421875 632.761719 464.421875 L 651.398438 464.421875 C 652.964844 464.421875 654.246094 463.140625 654.246094 461.574219 L 654.246094 442.917969 C 654.246094 441.351562 652.964844 440.070312 651.398438 440.070312 M 651.398438 502.097656 L 641.121094 502.097656 C 644.777344 507.105469 649.210938 511.519531 654.246094 515.164062 L 654.246094 504.949219 C 654.246094 503.382812 652.964844 502.097656 651.398438 502.097656 M 682.816406 502.097656 L 664.175781 502.097656 C 662.613281 502.097656 661.332031 503.382812 661.332031 504.949219 L 661.332031 519.570312 C 668.175781 523.1875 675.824219 525.511719 683.9375 526.21875 C 684.949219 525.78125 685.664062 524.773438 685.664062 523.605469 L 685.664062 504.949219 C 685.664062 503.382812 684.382812 502.097656 682.816406 502.097656 M 651.398438 471.085938 L 632.761719 471.085938 C 631.585938 471.085938 630.570312 471.808594 630.136719 472.832031 C 630.839844 480.953125 633.210938 488.597656 636.914062 495.4375 L 651.398438 495.4375 C 652.964844 495.4375 654.246094 494.15625 654.246094 492.589844 L 654.246094 473.933594 C 654.246094 472.367188 652.964844 471.085938 651.398438 471.085938 M 641.121094 433.40625 L 651.398438 433.40625 C 652.964844 433.40625 654.246094 432.125 654.246094 430.558594 L 654.246094 420.34375 C 649.210938 423.988281 644.777344 428.402344 641.121094 433.40625 M 683.9375 409.285156 C 675.824219 409.996094 668.175781 412.320312 661.332031 415.9375 L 661.332031 430.558594 C 661.332031 432.125 662.613281 433.40625 664.175781 433.40625 L 682.816406 433.40625 C 684.382812 433.40625 685.664062 432.125 685.664062 430.558594 L 685.664062 411.902344 C 685.664062 410.734375 684.949219 409.726562 683.9375 409.285156 M 714.234375 502.097656 L 695.59375 502.097656 C 694.027344 502.097656 692.746094 503.382812 692.746094 504.949219 L 692.746094 523.605469 C 692.746094 524.773438 693.460938 525.78125 694.472656 526.21875 C 702.585938 525.511719 710.234375 523.1875 717.078125 519.570312 L 717.078125 504.949219 C 717.078125 503.382812 715.796875 502.097656 714.234375 502.097656 M 714.234375 440.070312 L 695.59375 440.070312 C 694.027344 440.070312 692.746094 441.351562 692.746094 442.917969 L 692.746094 461.574219 C 692.746094 463.140625 694.027344 464.421875 695.59375 464.421875 L 714.234375 464.421875 C 715.796875 464.421875 717.078125 463.140625 717.078125 461.574219 L 717.078125 442.917969 C 717.078125 441.351562 715.796875 440.070312 714.234375 440.070312 M 727.007812 433.40625 L 737.285156 433.40625 C 733.632812 428.402344 729.199219 423.988281 724.164062 420.34375 L 724.164062 430.558594 C 724.164062 432.125 725.441406 433.40625 727.007812 433.40625 M 727.007812 464.421875 L 745.648438 464.421875 C 746.824219 464.421875 747.839844 463.699219 748.269531 462.675781 C 747.570312 454.554688 745.199219 446.90625 741.496094 440.070312 L 727.007812 440.070312 C 725.441406 440.070312 724.164062 441.351562 724.164062 442.917969 L 724.164062 461.574219 C 724.164062 463.140625 725.441406 464.421875 727.007812 464.421875 M 714.234375 471.085938 L 695.59375 471.085938 C 694.027344 471.085938 692.746094 472.367188 692.746094 473.933594 L 692.746094 492.589844 C 692.746094 494.15625 694.027344 495.4375 695.59375 495.4375 L 714.234375 495.4375 C 715.796875 495.4375 717.078125 494.15625 717.078125 492.589844 L 717.078125 473.933594 C 717.078125 472.367188 715.796875 471.085938 714.234375 471.085938 M 692.746094 411.902344 L 692.746094 430.558594 C 692.746094 432.125 694.027344 433.40625 695.59375 433.40625 L 714.234375 433.40625 C 715.796875 433.40625 717.078125 432.125 717.078125 430.558594 L 717.078125 415.9375 C 710.234375 412.320312 702.585938 409.996094 694.472656 409.285156 C 693.460938 409.726562 692.746094 410.734375 692.746094 411.902344 M 745.648438 471.085938 L 727.007812 471.085938 C 725.441406 471.085938 724.164062 472.367188 724.164062 473.933594 L 724.164062 492.589844 C 724.164062 494.15625 725.441406 495.4375 727.007812 495.4375 L 741.496094 495.4375 C 745.199219 488.597656 747.570312 480.953125 748.269531 472.832031 C 747.839844 471.808594 746.824219 471.085938 745.648438 471.085938 M 727.007812 502.097656 L 737.285156 502.097656 C 733.632812 507.105469 729.199219 511.519531 724.164062 515.164062 L 724.164062 504.949219 C 724.164062 503.382812 725.441406 502.097656 727.007812 502.097656 " fill-opacity="1" fill-rule="nonzero"/><path fill="rgb(89.7995%, 52.549744%, 8.628845%)" d="M 685.664062 523.605469 L 685.664062 505.484375 L 667.898438 505.484375 C 666.332031 505.484375 665.050781 506.769531 665.050781 508.332031 L 665.050781 521.371094 C 670.90625 523.960938 677.261719 525.636719 683.9375 526.21875 C 684.949219 525.78125 685.664062 524.773438 685.664062 523.605469 M 665.050781 433.40625 L 682.816406 433.40625 C 684.382812 433.40625 685.664062 432.125 685.664062 430.558594 L 685.664062 412.882812 C 678.289062 413.777344 671.332031 416.003906 665.050781 419.320312 L 665.050781 433.40625 M 667.898438 443.453125 C 666.332031 443.453125 665.050781 444.734375 665.050781 446.304688 L 665.050781 464.421875 L 682.816406 464.421875 C 684.382812 464.421875 685.664062 463.140625 685.664062 461.574219 L 685.664062 443.453125 L 667.898438 443.453125 M 685.664062 492.589844 L 685.664062 474.46875 L 667.898438 474.46875 C 666.332031 474.46875 665.050781 475.75 665.050781 477.316406 L 665.050781 495.4375 L 682.816406 495.4375 C 684.382812 495.4375 685.664062 494.15625 685.664062 492.589844 M 654.246094 505.484375 L 643.789062 505.484375 C 645.632812 508.011719 649.328125 511.335938 650.945312 512.582031 C 652.015625 513.480469 653.113281 514.34375 654.246094 515.164062 L 654.246094 505.484375 M 651.398438 495.4375 C 652.964844 495.4375 654.246094 494.15625 654.246094 492.589844 L 654.246094 474.46875 L 636.480469 474.46875 C 635.304688 474.46875 634.292969 475.191406 633.859375 476.214844 C 634.449219 483.023438 636.210938 489.492188 638.945312 495.4375 L 651.398438 495.4375 M 651.398438 464.421875 C 652.964844 464.421875 654.246094 463.140625 654.246094 461.574219 L 654.246094 443.453125 L 640.632812 443.453125 C 637.183594 449.832031 634.890625 456.910156 634.027344 464.421875 L 651.398438 464.421875 M 647.515625 433.40625 L 651.398438 433.40625 C 652.964844 433.40625 654.246094 432.125 654.246094 430.558594 L 654.246094 426.65625 C 651.824219 428.722656 649.574219 430.984375 647.515625 433.40625 M 730.726562 443.453125 C 729.164062 443.453125 727.882812 444.734375 727.882812 446.304688 L 727.882812 464.421875 L 745.648438 464.421875 C 746.824219 464.421875 747.839844 463.699219 748.269531 462.675781 C 747.683594 455.871094 745.917969 449.398438 743.183594 443.453125 L 730.726562 443.453125 M 734.613281 505.484375 L 730.726562 505.484375 C 729.164062 505.484375 727.882812 506.769531 727.882812 508.332031 L 727.882812 512.234375 C 730.304688 510.171875 732.554688 507.910156 734.613281 505.484375 M 727.882812 433.40625 L 737.285156 433.40625 C 735.441406 430.882812 733.398438 428.507812 731.183594 426.308594 C 730.113281 425.414062 729.015625 424.546875 727.882812 423.726562 L 727.882812 433.40625 M 699.3125 474.46875 C 697.746094 474.46875 696.46875 475.75 696.46875 477.316406 L 696.46875 495.4375 L 714.234375 495.4375 C 715.796875 495.4375 717.078125 494.15625 717.078125 492.589844 L 717.078125 474.46875 L 699.3125 474.46875 M 717.078125 505.484375 L 699.3125 505.484375 C 697.746094 505.484375 696.46875 506.769531 696.46875 508.332031 L 696.46875 526.007812 C 703.839844 525.117188 710.796875 522.890625 717.078125 519.570312 L 717.078125 505.484375 M 730.726562 474.46875 C 729.164062 474.46875 727.882812 475.75 727.882812 477.316406 L 727.882812 495.4375 L 741.496094 495.4375 C 744.945312 489.0625 747.238281 481.980469 748.105469 474.46875 L 730.726562 474.46875 M 699.3125 443.453125 C 697.746094 443.453125 696.46875 444.734375 696.46875 446.304688 L 696.46875 464.421875 L 714.234375 464.421875 C 715.796875 464.421875 717.078125 463.140625 717.078125 461.574219 L 717.078125 443.453125 L 699.3125 443.453125 M 698.191406 412.671875 C 704.867188 413.253906 711.222656 414.933594 717.078125 417.523438 L 717.078125 430.558594 C 717.078125 432.125 715.796875 433.40625 714.234375 433.40625 L 696.46875 433.40625 L 696.46875 415.289062 C 696.46875 414.121094 697.179688 413.109375 698.191406 412.671875 " fill-opacity="1" fill-rule="nonzero"/><path fill="rgb(75.689697%, 36.468506%, 11.759949%)" d="M 702.320312 519.488281 C 701.398438 518.085938 703.085938 515.183594 705.125 513.757812 C 706.742188 512.625 709.542969 511.757812 710.660156 512.933594 C 711.820312 514.15625 710.851562 517.246094 709.015625 518.851562 C 706.914062 520.683594 703.265625 520.929688 702.320312 519.488281 " fill-opacity="1" fill-rule="nonzero"/><path fill="rgb(6.269836%, 5.879211%, 5.099487%)" d="M 710.304688 511.015625 C 710.035156 510.953125 709.757812 511.121094 709.695312 511.394531 C 709.457031 512.394531 708.636719 514.90625 706.191406 516.660156 C 704.410156 517.933594 702.570312 518.257812 701.34375 518.308594 C 701.0625 518.320312 700.847656 518.558594 700.859375 518.839844 C 700.867188 519.113281 701.09375 519.324219 701.363281 519.324219 L 701.386719 519.324219 C 702.75 519.269531 704.796875 518.902344 706.78125 517.484375 C 709.507812 515.535156 710.417969 512.738281 710.683594 511.628906 C 710.746094 511.355469 710.578125 511.082031 710.304688 511.015625 Z M 673.804688 486.816406 C 672.378906 486.816406 671.101562 487.464844 670.246094 488.480469 L 668.976562 487.210938 C 668.777344 487.011719 668.457031 487.011719 668.257812 487.210938 C 668.058594 487.410156 668.058594 487.730469 668.257812 487.929688 L 669.667969 489.339844 C 669.617188 489.449219 669.5625 489.554688 669.515625 489.664062 L 667.828125 488.972656 C 667.570312 488.867188 667.273438 488.992188 667.167969 489.25 C 667.058594 489.511719 667.1875 489.808594 667.445312 489.914062 L 669.226562 490.640625 C 669.207031 490.753906 669.1875 490.859375 669.175781 490.972656 L 667.386719 490.972656 C 667.109375 490.972656 666.882812 491.199219 666.882812 491.480469 C 666.882812 491.761719 667.109375 491.988281 667.386719 491.988281 L 669.570312 491.988281 L 669.613281 491.984375 L 669.65625 491.988281 C 669.933594 491.988281 670.160156 491.761719 670.160156 491.480469 C 670.160156 489.46875 671.796875 487.832031 673.804688 487.832031 C 675.816406 487.832031 677.453125 489.46875 677.453125 491.480469 C 677.453125 491.761719 677.679688 491.988281 677.960938 491.988281 C 678.238281 491.988281 678.46875 491.761719 678.46875 491.480469 C 678.46875 488.910156 676.375 486.816406 673.804688 486.816406 Z M 711.53125 491.480469 C 711.53125 491.761719 711.300781 491.988281 711.023438 491.988281 L 708.839844 491.988281 C 708.558594 491.988281 708.332031 491.761719 708.332031 491.480469 C 708.332031 489.46875 706.695312 487.832031 704.683594 487.832031 C 702.671875 487.832031 701.039062 489.46875 701.039062 491.480469 C 701.039062 491.761719 700.8125 491.988281 700.53125 491.988281 C 700.25 491.988281 700.023438 491.761719 700.023438 491.480469 C 700.023438 488.910156 702.113281 486.816406 704.683594 486.816406 C 706.09375 486.816406 707.351562 487.445312 708.210938 488.4375 L 709.433594 487.210938 C 709.632812 487.011719 709.953125 487.011719 710.152344 487.210938 C 710.347656 487.410156 710.347656 487.730469 710.152344 487.929688 L 708.796875 489.285156 C 708.855469 489.398438 708.910156 489.515625 708.964844 489.636719 L 710.582031 488.972656 C 710.839844 488.867188 711.136719 488.992188 711.242188 489.25 C 711.347656 489.511719 711.222656 489.808594 710.964844 489.914062 L 709.261719 490.613281 C 709.285156 490.730469 709.304688 490.851562 709.316406 490.972656 L 711.023438 490.972656 C 711.300781 490.972656 711.53125 491.199219 711.53125 491.480469 " fill-opacity="1" fill-rule="nonzero"/><g clip-path="url(#id2)"><path fill="rgb(85.879517%, 61.569214%, 43.528748%)" d="M 754.6875 489.789062 C 757.132812 482.777344 758.460938 475.25 758.460938 467.414062 C 758.460938 467.101562 758.460938 466.785156 758.457031 466.46875 L 760.667969 467.992188 C 760.832031 468.136719 761.007812 468.257812 761.191406 468.363281 C 761.414062 479.113281 759.429688 488.3125 755.964844 489.457031 C 755.523438 489.605469 755.097656 489.714844 754.6875 489.789062 M 620.210938 473.4375 C 619.402344 471.992188 618.65625 469.988281 617.9375 467.21875 C 615.308594 457.0625 624.917969 430.238281 636.847656 418.242188 C 657.097656 397.886719 682.71875 397.171875 686.84375 397.125 C 687.378906 397.117188 688.089844 397.105469 688.953125 397.105469 C 697.050781 397.105469 718.601562 398.117188 736.570312 413.855469 C 738.84375 415.847656 751.539062 427.210938 757.804688 447.191406 L 756.011719 449.269531 C 747.976562 420.207031 721.109375 398.847656 689.207031 398.847656 C 650.953125 398.847656 619.949219 429.546875 619.949219 467.414062 C 619.949219 469.445312 620.035156 471.453125 620.210938 473.4375 " fill-opacity="1" fill-rule="nonzero"/></g><path fill="rgb(81.17981%, 43.139648%, 10.978699%)" d="M 753.394531 489.910156 C 752.59375 489.910156 751.828125 489.761719 751.070312 489.480469 C 753.578125 482.589844 754.945312 475.160156 754.945312 467.414062 C 754.945312 466.269531 754.914062 465.125 754.855469 463.992188 L 758.457031 466.46875 C 758.460938 466.785156 758.460938 467.101562 758.460938 467.414062 C 758.460938 475.25 757.132812 482.777344 754.6875 489.789062 C 754.242188 489.871094 753.8125 489.910156 753.394531 489.910156 M 624.152344 476.871094 C 622.644531 476.433594 621.363281 475.5 620.210938 473.4375 C 620.035156 471.453125 619.949219 469.445312 619.949219 467.414062 C 619.949219 429.546875 650.953125 398.847656 689.207031 398.847656 C 721.109375 398.847656 747.976562 420.207031 756.011719 449.269531 L 753.210938 452.507812 C 746.40625 423.746094 720.332031 402.328125 689.207031 402.328125 C 652.898438 402.328125 623.464844 431.46875 623.464844 467.414062 C 623.464844 470.625 623.699219 473.785156 624.152344 476.871094 " fill-opacity="1" fill-rule="nonzero"/><path fill="rgb(83.139038%, 51.368713%, 14.509583%)" d="M 721.21875 498.914062 C 720.984375 498.914062 720.753906 498.90625 720.53125 498.894531 C 718.402344 498.773438 716.996094 496.875 715.664062 495.074219 C 715.65625 495.070312 715.652344 495.0625 715.648438 495.058594 C 716.5 494.5625 717.078125 493.640625 717.078125 492.589844 L 717.078125 473.933594 C 717.078125 472.367188 715.796875 471.085938 714.234375 471.085938 L 695.59375 471.085938 C 694.027344 471.085938 692.746094 472.367188 692.746094 473.933594 L 692.746094 475.460938 C 691.921875 476.179688 690.960938 477.148438 689.667969 478.449219 C 686.917969 481.21875 686.90625 481.90625 685.664062 483.03125 L 685.664062 473.933594 C 685.664062 472.367188 684.382812 471.085938 682.816406 471.085938 L 664.175781 471.085938 C 663.9375 471.085938 663.710938 471.113281 663.488281 471.167969 C 663.121094 470.746094 662.546875 470.445312 661.675781 470.316406 C 661.601562 470.304688 661.527344 470.296875 661.457031 470.296875 C 659.375 470.296875 658.933594 474.984375 658.113281 479.664062 C 657.441406 483.488281 656.519531 487.3125 654.246094 488.585938 L 654.246094 473.933594 C 654.246094 472.367188 652.964844 471.085938 651.398438 471.085938 L 650.503906 471.085938 C 651.316406 468.050781 652.523438 465.617188 653.320312 463.671875 C 653.890625 463.148438 654.246094 462.402344 654.246094 461.574219 L 654.246094 442.917969 C 654.246094 441.351562 652.964844 440.070312 651.398438 440.070312 L 636.914062 440.070312 C 633.210938 446.90625 630.839844 454.554688 630.136719 462.675781 C 630.570312 463.699219 631.585938 464.421875 632.761719 464.421875 L 645.414062 464.421875 C 644.347656 466.753906 643.597656 468.65625 641.871094 471.085938 L 632.761719 471.085938 C 631.585938 471.085938 630.570312 471.808594 630.136719 472.832031 C 630.269531 474.351562 630.460938 475.851562 630.707031 477.335938 C 630.578125 477.335938 630.453125 477.332031 630.328125 477.328125 C 627.875 477.210938 625.867188 477.363281 624.152344 476.871094 C 623.699219 473.785156 623.464844 470.625 623.464844 467.414062 C 623.464844 431.46875 652.898438 402.328125 689.207031 402.328125 C 720.332031 402.328125 746.40625 423.746094 753.210938 452.507812 L 750.894531 455.195312 C 750.351562 455.820312 750.082031 456.945312 750.082031 458.09375 C 750.082031 459.449219 750.457031 460.832031 751.195312 461.472656 L 754.855469 463.992188 C 754.914062 465.125 754.945312 466.269531 754.945312 467.414062 C 754.945312 475.160156 753.578125 482.589844 751.070312 489.480469 C 749.445312 488.871094 747.851562 487.632812 745.964844 485.863281 C 745.875 485.78125 745.789062 485.695312 745.699219 485.601562 C 747.015625 481.519531 747.890625 477.246094 748.269531 472.832031 C 747.839844 471.808594 746.824219 471.085938 745.648438 471.085938 L 727.007812 471.085938 C 725.441406 471.085938 724.164062 472.367188 724.164062 473.933594 L 724.164062 492.589844 C 724.164062 494.15625 725.441406 495.4375 727.007812 495.4375 L 727.882812 495.4375 C 726.109375 498.28125 723.425781 498.914062 721.21875 498.914062 M 727.882812 464.421875 L 745.648438 464.421875 C 746.824219 464.421875 747.839844 463.699219 748.269531 462.675781 C 748.269531 462.664062 748.269531 462.648438 748.265625 462.632812 C 748.265625 462.628906 748.265625 462.621094 748.265625 462.617188 C 748.265625 462.609375 748.265625 462.597656 748.265625 462.589844 C 748.261719 462.582031 748.261719 462.578125 748.261719 462.570312 C 748.261719 462.5625 748.261719 462.554688 748.261719 462.546875 C 748.257812 462.539062 748.257812 462.53125 748.257812 462.527344 C 748.257812 462.515625 748.253906 462.511719 748.253906 462.503906 C 748.253906 462.496094 748.253906 462.488281 748.253906 462.480469 C 748.253906 462.472656 748.253906 462.46875 748.25 462.460938 C 748.25 462.429688 748.246094 462.398438 748.242188 462.367188 C 748.242188 462.363281 748.242188 462.359375 748.242188 462.355469 C 748.242188 462.34375 748.242188 462.332031 748.238281 462.320312 C 748.238281 462.320312 748.238281 462.316406 748.238281 462.316406 C 747.496094 454.328125 745.140625 446.804688 741.496094 440.070312 L 727.007812 440.070312 C 725.441406 440.070312 724.164062 441.351562 724.164062 442.917969 L 724.164062 461.574219 C 724.164062 463.140625 725.441406 464.421875 727.007812 464.421875 L 727.882812 464.421875 M 696.46875 464.421875 L 714.234375 464.421875 C 715.796875 464.421875 717.078125 463.140625 717.078125 461.574219 L 717.078125 442.917969 C 717.078125 441.351562 715.796875 440.070312 714.234375 440.070312 L 695.59375 440.070312 C 694.027344 440.070312 692.746094 441.351562 692.746094 442.917969 L 692.746094 461.574219 C 692.746094 463.140625 694.027344 464.421875 695.59375 464.421875 L 696.46875 464.421875 M 665.050781 464.421875 L 682.816406 464.421875 C 684.382812 464.421875 685.664062 463.140625 685.664062 461.574219 L 685.664062 442.917969 C 685.664062 441.351562 684.382812 440.070312 682.816406 440.070312 L 664.175781 440.070312 C 662.613281 440.070312 661.332031 441.351562 661.332031 442.917969 L 661.332031 461.574219 C 661.332031 463.140625 662.613281 464.421875 664.175781 464.421875 L 665.050781 464.421875 M 727.882812 433.40625 L 737.285156 433.40625 C 737.28125 433.398438 737.273438 433.386719 737.265625 433.378906 C 737.265625 433.375 737.261719 433.375 737.261719 433.371094 C 733.609375 428.378906 729.1875 423.980469 724.164062 420.34375 L 724.164062 430.558594 C 724.164062 432.125 725.441406 433.40625 727.007812 433.40625 L 727.882812 433.40625 M 696.46875 433.40625 L 714.234375 433.40625 C 715.796875 433.40625 717.078125 432.125 717.078125 430.558594 L 717.078125 415.9375 C 710.234375 412.320312 702.585938 409.996094 694.472656 409.285156 C 693.460938 409.726562 692.746094 410.734375 692.746094 411.902344 L 692.746094 430.558594 C 692.746094 432.125 694.027344 433.40625 695.59375 433.40625 L 696.46875 433.40625 M 665.050781 433.40625 L 682.816406 433.40625 C 684.382812 433.40625 685.664062 432.125 685.664062 430.558594 L 685.664062 411.902344 C 685.664062 410.734375 684.949219 409.726562 683.9375 409.285156 C 675.824219 409.996094 668.175781 412.320312 661.332031 415.9375 L 661.332031 430.558594 C 661.332031 432.125 662.613281 433.40625 664.175781 433.40625 L 665.050781 433.40625 M 647.515625 433.40625 L 651.398438 433.40625 C 652.964844 433.40625 654.246094 432.125 654.246094 430.558594 L 654.246094 420.34375 C 649.210938 423.988281 644.777344 428.402344 641.121094 433.40625 L 647.515625 433.40625 " fill-opacity="1" fill-rule="nonzero"/><path fill="rgb(81.17981%, 41.569519%, 10.978699%)" d="M 727.882812 495.4375 L 727.007812 495.4375 C 725.441406 495.4375 724.164062 494.15625 724.164062 492.589844 L 724.164062 473.933594 C 724.164062 472.367188 725.441406 471.085938 727.007812 471.085938 L 745.648438 471.085938 C 746.824219 471.085938 747.839844 471.808594 748.269531 472.832031 C 747.890625 477.246094 747.015625 481.519531 745.699219 485.601562 C 746.847656 482.027344 747.664062 478.304688 748.105469 474.46875 L 730.726562 474.46875 C 729.164062 474.46875 727.882812 475.75 727.882812 477.316406 L 727.882812 480.800781 C 727.082031 481.792969 726.472656 482.910156 726.125 484.066406 C 725.289062 486.835938 726.957031 489.105469 727.882812 491.273438 L 727.882812 495.4375 M 665.050781 479.574219 C 662.070312 478.332031 665.324219 473.269531 663.488281 471.167969 C 663.710938 471.113281 663.9375 471.085938 664.175781 471.085938 L 682.816406 471.085938 C 684.382812 471.085938 685.664062 472.367188 685.664062 473.933594 L 685.664062 474.46875 L 667.898438 474.46875 C 666.332031 474.46875 665.050781 475.75 665.050781 477.316406 L 665.050781 479.574219 M 630.789062 477.335938 C 630.761719 477.335938 630.734375 477.335938 630.707031 477.335938 C 630.460938 475.851562 630.269531 474.351562 630.136719 472.832031 C 630.570312 471.808594 631.585938 471.085938 632.761719 471.085938 L 641.871094 471.085938 C 641.726562 471.289062 641.574219 471.496094 641.414062 471.710938 C 640.644531 472.730469 639.699219 473.667969 638.636719 474.46875 L 636.480469 474.46875 C 635.304688 474.46875 634.292969 475.191406 633.859375 476.214844 C 633.875 476.433594 633.898438 476.652344 633.917969 476.871094 C 632.882812 477.171875 631.824219 477.335938 630.789062 477.335938 M 692.746094 475.460938 L 692.746094 473.933594 C 692.746094 472.367188 694.027344 471.085938 695.59375 471.085938 L 714.234375 471.085938 C 715.796875 471.085938 717.078125 472.367188 717.078125 473.933594 L 717.078125 474.46875 L 704.882812 474.46875 C 703.109375 473.585938 701.097656 473.105469 699.140625 473.105469 C 697.632812 473.105469 696.15625 473.390625 694.855469 474.003906 C 694.15625 474.332031 693.507812 474.792969 692.746094 475.460938 M 654.246094 474.46875 L 649.832031 474.46875 C 649.988281 473.265625 650.222656 472.136719 650.503906 471.085938 L 651.398438 471.085938 C 652.964844 471.085938 654.246094 472.367188 654.246094 473.933594 L 654.246094 474.46875 M 727.882812 464.421875 L 727.007812 464.421875 C 725.441406 464.421875 724.164062 463.140625 724.164062 461.574219 L 724.164062 442.917969 C 724.164062 441.351562 725.441406 440.070312 727.007812 440.070312 L 741.496094 440.070312 C 745.140625 446.804688 747.496094 454.328125 748.238281 462.316406 C 747.621094 455.644531 745.871094 449.292969 743.183594 443.453125 L 730.726562 443.453125 C 729.164062 443.453125 727.882812 444.734375 727.882812 446.304688 L 727.882812 464.421875 M 696.46875 464.421875 L 695.59375 464.421875 C 694.027344 464.421875 692.746094 463.140625 692.746094 461.574219 L 692.746094 442.917969 C 692.746094 441.351562 694.027344 440.070312 695.59375 440.070312 L 714.234375 440.070312 C 715.796875 440.070312 717.078125 441.351562 717.078125 442.917969 L 717.078125 443.453125 L 699.3125 443.453125 C 697.746094 443.453125 696.46875 444.734375 696.46875 446.304688 L 696.46875 464.421875 M 665.050781 464.421875 L 664.175781 464.421875 C 662.613281 464.421875 661.332031 463.140625 661.332031 461.574219 L 661.332031 442.917969 C 661.332031 441.351562 662.613281 440.070312 664.175781 440.070312 L 682.816406 440.070312 C 684.382812 440.070312 685.664062 441.351562 685.664062 442.917969 L 685.664062 443.453125 L 667.898438 443.453125 C 666.332031 443.453125 665.050781 444.734375 665.050781 446.304688 L 665.050781 464.421875 M 634.027344 464.421875 L 632.761719 464.421875 C 631.585938 464.421875 630.570312 463.699219 630.136719 462.675781 C 630.839844 454.554688 633.210938 446.90625 636.914062 440.070312 L 651.398438 440.070312 C 652.964844 440.070312 654.246094 441.351562 654.246094 442.917969 L 654.246094 443.453125 L 640.632812 443.453125 C 637.183594 449.832031 634.890625 456.910156 634.027344 464.421875 M 748.265625 462.632812 C 748.265625 462.628906 748.265625 462.625 748.265625 462.617188 C 748.265625 462.621094 748.265625 462.628906 748.265625 462.632812 M 748.265625 462.589844 C 748.261719 462.582031 748.261719 462.574219 748.261719 462.570312 C 748.261719 462.578125 748.261719 462.582031 748.265625 462.589844 M 748.261719 462.546875 C 748.257812 462.539062 748.257812 462.53125 748.257812 462.527344 C 748.257812 462.53125 748.257812 462.539062 748.261719 462.546875 M 748.253906 462.503906 C 748.253906 462.496094 748.253906 462.488281 748.253906 462.480469 C 748.253906 462.488281 748.253906 462.496094 748.253906 462.503906 M 748.25 462.460938 C 748.25 462.429688 748.246094 462.398438 748.242188 462.367188 C 748.246094 462.398438 748.25 462.429688 748.25 462.460938 M 748.242188 462.355469 C 748.242188 462.34375 748.242188 462.332031 748.238281 462.320312 C 748.242188 462.332031 748.242188 462.34375 748.242188 462.355469 M 737.285156 433.40625 C 737.28125 433.398438 737.273438 433.386719 737.265625 433.378906 C 737.273438 433.386719 737.28125 433.398438 737.285156 433.40625 M 727.882812 433.40625 L 727.007812 433.40625 C 725.441406 433.40625 724.164062 432.125 724.164062 430.558594 L 724.164062 420.34375 C 729.1875 423.980469 733.609375 428.378906 737.261719 433.371094 C 735.421875 430.859375 733.390625 428.5 731.183594 426.308594 C 730.113281 425.414062 729.015625 424.546875 727.882812 423.726562 L 727.882812 433.40625 M 696.46875 433.40625 L 695.59375 433.40625 C 694.027344 433.40625 692.746094 432.125 692.746094 430.558594 L 692.746094 411.902344 C 692.746094 410.734375 693.460938 409.726562 694.472656 409.285156 C 702.585938 409.996094 710.234375 412.320312 717.078125 415.9375 L 717.078125 417.523438 C 711.222656 414.933594 704.867188 413.253906 698.191406 412.671875 C 697.179688 413.109375 696.46875 414.121094 696.46875 415.289062 L 696.46875 433.40625 M 665.050781 433.40625 L 664.175781 433.40625 C 662.613281 433.40625 661.332031 432.125 661.332031 430.558594 L 661.332031 415.9375 C 668.175781 412.320312 675.824219 409.996094 683.9375 409.285156 C 684.949219 409.726562 685.664062 410.734375 685.664062 411.902344 L 685.664062 412.882812 C 678.289062 413.777344 671.332031 416.003906 665.050781 419.320312 L 665.050781 433.40625 M 647.515625 433.40625 L 641.121094 433.40625 C 644.777344 428.402344 649.210938 423.988281 654.246094 420.34375 L 654.246094 426.65625 C 651.824219 428.722656 649.574219 430.984375 647.515625 433.40625 " fill-opacity="1" fill-rule="nonzero"/><path fill="rgb(81.17981%, 43.139648%, 10.978699%)" d="M 727.882812 495.4375 L 727.882812 491.273438 C 728.476562 492.667969 728.765625 494.023438 727.882812 495.4375 M 715.648438 495.058594 C 713.839844 492.609375 713.355469 490.683594 711.1875 484.292969 C 709.757812 480.082031 709.035156 477.964844 708.578125 477.390625 C 707.613281 476.179688 706.328125 475.191406 704.882812 474.46875 L 717.078125 474.46875 L 717.078125 492.589844 C 717.078125 493.640625 716.5 494.5625 715.648438 495.058594 M 652.496094 489.03125 C 652.355469 489.03125 652.214844 489.023438 652.0625 489.007812 C 647.515625 488.558594 649.367188 481.671875 649.671875 476.203125 C 649.707031 475.609375 649.757812 475.03125 649.832031 474.46875 L 654.246094 474.46875 L 654.246094 488.585938 C 653.734375 488.875 653.15625 489.03125 652.496094 489.03125 M 745.699219 485.601562 C 743.074219 482.890625 740.789062 477.015625 735.398438 477.015625 C 734.636719 477.015625 733.816406 477.132812 732.921875 477.390625 C 730.933594 477.96875 729.164062 479.222656 727.882812 480.800781 L 727.882812 477.316406 C 727.882812 475.75 729.164062 474.46875 730.726562 474.46875 L 748.105469 474.46875 C 747.664062 478.304688 746.847656 482.027344 745.699219 485.601562 M 683.605469 484.089844 C 680.582031 484.089844 679.171875 476.277344 674.667969 476.15625 C 674.585938 476.15625 674.507812 476.152344 674.425781 476.152344 C 672.074219 476.152344 670.796875 477.101562 669.773438 478.046875 C 668.75 478.996094 667.980469 479.941406 666.644531 479.941406 C 666.191406 479.941406 665.671875 479.832031 665.050781 479.574219 L 665.050781 477.316406 C 665.050781 475.75 666.332031 474.46875 667.898438 474.46875 L 685.664062 474.46875 L 685.664062 483.03125 C 685.535156 483.148438 685.398438 483.265625 685.238281 483.394531 C 684.636719 483.878906 684.101562 484.089844 683.605469 484.089844 M 633.917969 476.871094 C 633.898438 476.652344 633.875 476.433594 633.859375 476.214844 C 634.292969 475.191406 635.304688 474.46875 636.480469 474.46875 L 638.636719 474.46875 C 637.21875 475.546875 635.59375 476.386719 633.917969 476.871094 M 745.648438 464.421875 L 727.882812 464.421875 L 727.882812 446.304688 C 727.882812 444.734375 729.164062 443.453125 730.726562 443.453125 L 743.183594 443.453125 C 745.871094 449.292969 747.621094 455.644531 748.238281 462.316406 C 748.238281 462.316406 748.238281 462.320312 748.238281 462.320312 C 748.242188 462.332031 748.242188 462.34375 748.242188 462.355469 C 748.242188 462.359375 748.242188 462.363281 748.242188 462.367188 C 748.246094 462.398438 748.25 462.429688 748.25 462.460938 C 748.253906 462.46875 748.253906 462.472656 748.253906 462.480469 C 748.253906 462.488281 748.253906 462.496094 748.253906 462.503906 C 748.253906 462.511719 748.257812 462.515625 748.257812 462.527344 C 748.257812 462.53125 748.257812 462.539062 748.261719 462.546875 C 748.261719 462.554688 748.261719 462.5625 748.261719 462.570312 C 748.261719 462.574219 748.261719 462.582031 748.265625 462.589844 C 748.265625 462.597656 748.265625 462.609375 748.265625 462.617188 C 748.265625 462.625 748.265625 462.628906 748.265625 462.632812 C 748.269531 462.648438 748.269531 462.664062 748.269531 462.675781 C 747.839844 463.699219 746.824219 464.421875 745.648438 464.421875 M 714.234375 464.421875 L 696.46875 464.421875 L 696.46875 446.304688 C 696.46875 444.734375 697.746094 443.453125 699.3125 443.453125 L 717.078125 443.453125 L 717.078125 461.574219 C 717.078125 463.140625 715.796875 464.421875 714.234375 464.421875 M 682.816406 464.421875 L 665.050781 464.421875 L 665.050781 446.304688 C 665.050781 444.734375 666.332031 443.453125 667.898438 443.453125 L 685.664062 443.453125 L 685.664062 461.574219 C 685.664062 463.140625 684.382812 464.421875 682.816406 464.421875 M 645.414062 464.421875 L 634.027344 464.421875 C 634.890625 456.910156 637.183594 449.832031 640.632812 443.453125 L 654.246094 443.453125 L 654.246094 461.574219 C 654.246094 462.402344 653.890625 463.148438 653.320312 463.671875 C 654.371094 461.105469 654.707031 459.382812 652.5 458.230469 C 651.976562 457.957031 651.390625 457.648438 650.722656 457.648438 C 649.757812 457.648438 648.621094 458.304688 647.28125 460.703125 C 646.496094 462.109375 645.917969 463.3125 645.414062 464.421875 M 737.285156 433.40625 L 727.882812 433.40625 L 727.882812 423.726562 C 729.015625 424.546875 730.113281 425.414062 731.183594 426.308594 C 733.390625 428.5 735.421875 430.859375 737.261719 433.371094 C 737.261719 433.375 737.265625 433.375 737.265625 433.378906 C 737.273438 433.386719 737.28125 433.398438 737.285156 433.40625 M 714.234375 433.40625 L 696.46875 433.40625 L 696.46875 415.289062 C 696.46875 414.121094 697.179688 413.109375 698.191406 412.671875 C 704.867188 413.253906 711.222656 414.933594 717.078125 417.523438 L 717.078125 430.558594 C 717.078125 432.125 715.796875 433.40625 714.234375 433.40625 M 682.816406 433.40625 L 665.050781 433.40625 L 665.050781 419.320312 C 671.332031 416.003906 678.289062 413.777344 685.664062 412.882812 L 685.664062 430.558594 C 685.664062 432.125 684.382812 433.40625 682.816406 433.40625 M 651.398438 433.40625 L 647.515625 433.40625 C 649.574219 430.984375 651.824219 428.722656 654.246094 426.65625 L 654.246094 430.558594 C 654.246094 432.125 652.964844 433.40625 651.398438 433.40625 " fill-opacity="1" fill-rule="nonzero"/><path fill="rgb(96.859741%, 94.509888%, 41.958618%)" d="M 760.667969 467.992188 L 751.195312 461.472656 C 749.828125 460.292969 749.710938 456.5625 750.894531 455.195312 L 759.054688 445.746094 C 760.234375 444.378906 762.316406 444.226562 763.683594 445.410156 L 773.121094 453.574219 C 774.488281 454.757812 775.226562 458.5 774.046875 459.867188 L 765.296875 467.65625 C 764.117188 469.023438 762.035156 469.175781 760.667969 467.992188 " fill-opacity="1" fill-rule="nonzero"/><path fill="rgb(95.689392%, 85.879517%, 34.118652%)" d="M 762.8125 468.789062 C 762.050781 468.789062 761.289062 468.527344 760.667969 467.992188 L 754.855469 463.992188 L 751.195312 461.472656 C 750.457031 460.832031 750.082031 459.449219 750.082031 458.09375 C 750.082031 456.945312 750.351562 455.820312 750.894531 455.195312 L 759.054688 445.746094 C 759.699219 444.996094 760.617188 444.613281 761.539062 444.613281 C 762.300781 444.613281 763.0625 444.875 763.683594 445.410156 L 773.121094 453.574219 C 774.011719 454.347656 774.636719 456.203125 774.636719 457.78125 C 774.636719 458.625 774.457031 459.390625 774.046875 459.867188 L 770.863281 462.699219 L 769.304688 464.089844 L 765.296875 467.65625 C 764.652344 468.40625 763.734375 468.789062 762.8125 468.789062 " fill-opacity="1" fill-rule="nonzero"/><path fill="rgb(96.859741%, 94.509888%, 41.958618%)" d="M 761.007812 470.027344 L 751.566406 461.855469 C 750.203125 460.675781 750.050781 458.589844 751.230469 457.226562 L 759.390625 447.777344 C 760.570312 446.410156 762.652344 446.257812 764.019531 447.441406 L 773.460938 455.605469 C 774.824219 456.789062 774.976562 458.875 773.796875 460.242188 L 765.636719 469.6875 C 764.457031 471.054688 762.371094 471.207031 761.007812 470.027344 " fill-opacity="1" fill-rule="nonzero"/><g clip-path="url(#id3)"><path fill="rgb(89.7995%, 52.549744%, 8.628845%)" d="M 772.859375 487.625 C 769.644531 491.621094 764.308594 493.828125 758.613281 493.828125 C 757.933594 493.828125 757.253906 493.792969 756.566406 493.730469 C 756.785156 493.050781 756.992188 492.371094 757.191406 491.6875 C 762.792969 492.089844 768.148438 490.148438 771.230469 486.3125 C 773.742188 483.191406 774.785156 478.777344 774.089844 474.207031 C 773.292969 468.980469 770.320312 464.207031 765.886719 460.980469 C 765.457031 461.195312 764.914062 461.398438 764.304688 461.542969 C 762.785156 461.910156 761.460938 461.816406 761.34375 461.332031 C 761.25 460.945312 761.964844 460.421875 763.039062 460.042969 C 761.78125 459.472656 760.933594 458.726562 761.105469 458.304688 C 761.253906 457.929688 762.164062 457.921875 763.277344 458.25 C 762.453125 457 762.101562 455.792969 762.5 455.519531 C 762.90625 455.242188 763.941406 456.042969 764.816406 457.3125 C 764.535156 456.023438 764.621094 454.964844 765.046875 454.84375 C 765.527344 454.710938 766.253906 455.824219 766.675781 457.328125 C 766.867188 458.011719 766.957031 458.660156 766.957031 459.175781 C 771.925781 462.730469 775.265625 468.050781 776.15625 473.890625 C 776.941406 479.039062 775.738281 484.046875 772.859375 487.625 " fill-opacity="1" fill-rule="nonzero"/></g></svg>