<svg xmlns="http://www.w3.org/2000/svg" xmlns:xlink="http://www.w3.org/1999/xlink" width="1080" zoomAndPan="magnify" viewBox="0 0 810 809.999993" height="1080" preserveAspectRatio="xMidYMid meet" version="1.0"><defs><g/><clipPath id="id1"><path d="M 168 237 L 216 237 L 216 557.949219 L 168 557.949219 Z M 168 237 " clip-rule="nonzero"/></clipPath><clipPath id="id2"><path d="M 262 237 L 311 237 L 311 557.949219 L 262 557.949219 Z M 262 237 " clip-rule="nonzero"/></clipPath><clipPath id="id3"><path d="M 138.757812 491 L 339 491 L 339 543 L 138.757812 543 Z M 138.757812 491 " clip-rule="nonzero"/></clipPath><clipPath id="id4"><path d="M 233 452 L 392.257812 452 L 392.257812 522 L 233 522 Z M 233 452 " clip-rule="nonzero"/></clipPath></defs><rect x="-81" width="972" fill="rgb(100%, 100%, 100%)" y="-80.999999" height="971.999992" fill-opacity="1"/><rect x="-81" width="972" fill="rgb(100%, 100%, 100%)" y="-80.999999" height="971.999992" fill-opacity="1"/><g fill="rgb(89.7995%, 12.939453%, 33.329773%)" fill-opacity="1"><g transform="translate(265.318994, 539.62757)"><g><path d="M 192.21875 0 L 225.347656 0 L 133.28125 -130.96875 L 225.347656 -261.941406 L 192.21875 -261.941406 L 116.71875 -150.230469 L 41.21875 -261.941406 L 7.703125 -261.941406 L 100.152344 -130.585938 L 8.089844 0 L 41.21875 0 L 116.71875 -111.710938 Z M 192.21875 0 "/></g></g></g><path fill="rgb(82.348633%, 26.269531%, 18.429565%)" d="M 207.714844 239.90625 C 211.140625 240.171875 213.675781 242.8125 213.375 245.816406 L 182.980469 550.183594 C 182.675781 553.183594 179.65625 555.40625 176.230469 555.140625 C 172.800781 554.882812 170.269531 552.234375 170.566406 549.234375 L 200.964844 244.863281 C 201.265625 241.867188 204.285156 239.644531 207.714844 239.90625 " fill-opacity="1" fill-rule="nonzero"/><g clip-path="url(#id1)"><path fill="rgb(6.669617%, 12.159729%, 16.079712%)" d="M 172.792969 549.714844 C 172.792969 551.347656 174.378906 552.746094 176.398438 552.898438 C 178.574219 553.066406 180.5625 551.71875 180.734375 549.960938 L 211.132812 245.589844 C 211.316406 243.851562 209.671875 242.308594 207.542969 242.148438 C 205.367188 241.980469 203.382812 243.324219 203.207031 245.089844 L 172.808594 549.457031 C 172.800781 549.542969 172.792969 549.628906 172.792969 549.714844 Z M 215.652344 245.332031 C 215.652344 245.566406 215.640625 245.796875 215.617188 246.035156 L 185.21875 550.40625 C 184.800781 554.609375 180.6875 557.738281 176.058594 557.382812 C 171.375 557.027344 167.902344 553.351562 168.324219 549.011719 L 198.722656 244.640625 C 199.144531 240.4375 203.253906 237.308594 207.886719 237.664062 C 212.3125 238.003906 215.652344 241.296875 215.652344 245.332031 " fill-opacity="1" fill-rule="nonzero"/></g><path fill="rgb(82.348633%, 26.269531%, 18.429565%)" d="M 270.804688 239.90625 C 267.375 240.171875 264.839844 242.8125 265.140625 245.816406 L 295.539062 550.183594 C 295.839844 553.183594 298.859375 555.402344 302.289062 555.140625 C 305.714844 554.882812 308.25 552.234375 307.949219 549.234375 L 277.550781 244.863281 C 277.253906 241.867188 274.230469 239.644531 270.804688 239.90625 " fill-opacity="1" fill-rule="nonzero"/><g clip-path="url(#id2)"><path fill="rgb(6.669617%, 12.159729%, 16.079712%)" d="M 267.367188 245.332031 C 267.367188 245.417969 267.371094 245.503906 267.382812 245.589844 L 297.777344 549.960938 C 297.953125 551.71875 299.941406 553.066406 302.117188 552.898438 C 304.242188 552.738281 305.890625 551.191406 305.710938 549.457031 L 275.3125 245.085938 C 275.132812 243.324219 273.148438 241.980469 270.972656 242.148438 C 268.953125 242.304688 267.367188 243.699219 267.367188 245.332031 Z M 310.226562 549.714844 C 310.226562 553.746094 306.886719 557.046875 302.457031 557.382812 C 297.828125 557.738281 293.71875 554.609375 293.296875 550.40625 L 262.898438 246.035156 C 262.476562 241.703125 265.949219 238.023438 270.632812 237.664062 C 275.261719 237.308594 279.371094 240.4375 279.792969 244.636719 L 310.191406 549.011719 C 310.214844 549.246094 310.226562 549.480469 310.226562 549.714844 " fill-opacity="1" fill-rule="nonzero"/></g><path fill="rgb(93.728638%, 16.859436%, 24.308777%)" d="M 325.199219 493.625 C 331.46875 493.625 336.558594 498.078125 336.558594 503.570312 L 336.558594 530.34375 C 336.558594 535.835938 331.46875 540.289062 325.199219 540.289062 L 152.359375 540.289062 C 146.085938 540.289062 141 535.835938 141 530.34375 L 141 503.570312 C 141 498.078125 146.085938 493.625 152.359375 493.625 L 325.199219 493.625 " fill-opacity="1" fill-rule="nonzero"/><g clip-path="url(#id3)"><path fill="rgb(6.669617%, 12.159729%, 16.079712%)" d="M 143.253906 530.34375 C 143.253906 534.585938 147.335938 538.039062 152.359375 538.039062 L 325.199219 538.039062 C 330.21875 538.039062 334.304688 534.585938 334.304688 530.34375 L 334.304688 503.570312 C 334.304688 499.324219 330.21875 495.871094 325.199219 495.871094 L 152.359375 495.871094 C 147.335938 495.871094 143.253906 499.324219 143.253906 503.570312 Z M 338.808594 503.570312 L 338.808594 530.34375 C 338.808594 537.066406 332.703125 542.535156 325.199219 542.535156 L 152.359375 542.535156 C 144.855469 542.535156 138.746094 537.066406 138.746094 530.34375 L 138.746094 503.570312 C 138.746094 496.847656 144.855469 491.375 152.359375 491.375 L 325.199219 491.375 C 332.703125 491.375 338.808594 496.847656 338.808594 503.570312 " fill-opacity="1" fill-rule="nonzero"/></g><path fill="rgb(91.369629%, 91.369629%, 91.369629%)" d="M 268.09375 529.453125 C 268.09375 530.695312 267.085938 531.703125 265.839844 531.703125 L 255.636719 531.703125 C 254.390625 531.703125 253.382812 530.695312 253.382812 529.453125 C 253.382812 528.210938 254.390625 527.207031 255.636719 527.207031 L 265.839844 527.207031 C 267.085938 527.207031 268.09375 528.210938 268.09375 529.453125 " fill-opacity="1" fill-rule="nonzero"/><path fill="rgb(91.369629%, 91.369629%, 91.369629%)" d="M 242.644531 529.453125 C 242.644531 530.695312 241.636719 531.703125 240.394531 531.703125 L 210.570312 531.703125 C 209.328125 531.703125 208.316406 530.695312 208.316406 529.453125 C 208.316406 528.210938 209.328125 527.207031 210.570312 527.207031 L 240.394531 527.207031 C 241.636719 527.207031 242.644531 528.210938 242.644531 529.453125 " fill-opacity="1" fill-rule="nonzero"/><path fill="rgb(95.289612%, 39.219666%, 21.569824%)" d="M 312.644531 430.820312 C 318.917969 430.820312 324 435.273438 324 440.765625 L 324 467.539062 C 324 473.03125 318.917969 477.484375 312.644531 477.484375 L 164.910156 477.484375 C 158.640625 477.484375 153.554688 473.03125 153.554688 467.539062 L 153.554688 440.765625 C 153.554688 435.273438 158.640625 430.820312 164.910156 430.820312 L 312.644531 430.820312 " fill-opacity="1" fill-rule="nonzero"/><path fill="rgb(6.669617%, 12.159729%, 16.079712%)" d="M 155.804688 467.539062 C 155.804688 471.78125 159.890625 475.234375 164.910156 475.234375 L 312.644531 475.234375 C 317.664062 475.234375 321.75 471.78125 321.75 467.539062 L 321.75 440.765625 C 321.75 436.523438 317.664062 433.070312 312.644531 433.070312 L 164.910156 433.070312 C 159.890625 433.070312 155.804688 436.523438 155.804688 440.765625 Z M 326.253906 440.765625 L 326.253906 467.539062 C 326.253906 474.261719 320.148438 479.734375 312.644531 479.734375 L 164.910156 479.734375 C 157.40625 479.734375 151.300781 474.261719 151.300781 467.539062 L 151.300781 440.765625 C 151.300781 434.042969 157.40625 428.574219 164.910156 428.574219 L 312.644531 428.574219 C 320.148438 428.574219 326.253906 434.042969 326.253906 440.765625 " fill-opacity="1" fill-rule="nonzero"/><path fill="rgb(97.24884%, 63.529968%, 16.079712%)" d="M 296.617188 369.773438 C 302.886719 369.773438 307.976562 374.226562 307.976562 379.71875 L 307.976562 406.492188 C 307.976562 411.984375 302.886719 416.4375 296.617188 416.4375 L 180.941406 416.4375 C 174.667969 416.4375 169.582031 411.984375 169.582031 406.492188 L 169.582031 379.71875 C 169.582031 374.226562 174.667969 369.773438 180.941406 369.773438 L 296.617188 369.773438 " fill-opacity="1" fill-rule="nonzero"/><path fill="rgb(6.669617%, 12.159729%, 16.079712%)" d="M 171.835938 406.492188 C 171.835938 410.734375 175.917969 414.1875 180.941406 414.1875 L 296.617188 414.1875 C 301.636719 414.1875 305.722656 410.734375 305.722656 406.492188 L 305.722656 379.71875 C 305.722656 375.472656 301.636719 372.019531 296.617188 372.019531 L 180.941406 372.019531 C 175.917969 372.019531 171.835938 375.472656 171.835938 379.71875 Z M 310.226562 379.71875 L 310.226562 406.492188 C 310.226562 413.214844 304.121094 418.683594 296.617188 418.683594 L 180.941406 418.683594 C 173.4375 418.683594 167.328125 413.214844 167.328125 406.492188 L 167.328125 379.71875 C 167.328125 372.992188 173.4375 367.523438 180.941406 367.523438 L 296.617188 367.523438 C 304.121094 367.523438 310.226562 372.992188 310.226562 379.71875 " fill-opacity="1" fill-rule="nonzero"/><path fill="rgb(21.179199%, 67.059326%, 61.178589%)" d="M 289.945312 309.074219 C 296.222656 309.074219 301.304688 313.527344 301.304688 319.019531 L 301.304688 345.792969 C 301.304688 351.285156 296.222656 355.738281 289.945312 355.738281 L 187.609375 355.738281 C 181.335938 355.738281 176.25 351.285156 176.25 345.792969 L 176.25 319.019531 C 176.25 313.527344 181.335938 309.074219 187.609375 309.074219 L 289.945312 309.074219 " fill-opacity="1" fill-rule="nonzero"/><path fill="rgb(6.669617%, 12.159729%, 16.079712%)" d="M 178.503906 345.792969 C 178.503906 350.035156 182.585938 353.488281 187.609375 353.488281 L 289.945312 353.488281 C 294.96875 353.488281 299.054688 350.035156 299.054688 345.792969 L 299.054688 319.019531 C 299.054688 314.777344 294.96875 311.324219 289.945312 311.324219 L 187.609375 311.324219 C 182.585938 311.324219 178.503906 314.777344 178.503906 319.019531 Z M 303.558594 319.019531 L 303.558594 345.792969 C 303.558594 352.515625 297.449219 357.984375 289.945312 357.984375 L 187.609375 357.984375 C 180.105469 357.984375 174 352.515625 174 345.792969 L 174 319.019531 C 174 312.292969 180.105469 306.824219 187.609375 306.824219 L 289.945312 306.824219 C 297.449219 306.824219 303.558594 312.292969 303.558594 319.019531 " fill-opacity="1" fill-rule="nonzero"/><path fill="rgb(21.958923%, 43.139648%, 53.329468%)" d="M 280.328125 249.425781 C 286.605469 249.425781 291.691406 253.878906 291.691406 259.371094 L 291.691406 286.144531 C 291.691406 291.640625 286.605469 296.089844 280.328125 296.089844 L 197.226562 296.089844 C 190.953125 296.089844 185.867188 291.640625 185.867188 286.144531 L 185.867188 259.371094 C 185.867188 253.878906 190.953125 249.425781 197.226562 249.425781 L 280.328125 249.425781 " fill-opacity="1" fill-rule="nonzero"/><path fill="rgb(6.669617%, 12.159729%, 16.079712%)" d="M 188.121094 286.144531 C 188.121094 290.394531 192.203125 293.84375 197.226562 293.84375 L 280.332031 293.84375 C 285.351562 293.84375 289.4375 290.394531 289.4375 286.144531 L 289.4375 259.371094 C 289.4375 255.128906 285.351562 251.675781 280.332031 251.675781 L 197.226562 251.675781 C 192.203125 251.675781 188.121094 255.128906 188.121094 259.371094 Z M 293.941406 259.371094 L 293.941406 286.144531 C 293.941406 292.871094 287.835938 298.339844 280.332031 298.339844 L 197.226562 298.339844 C 189.722656 298.339844 183.617188 292.871094 183.617188 286.144531 L 183.617188 259.371094 C 183.617188 252.652344 189.722656 247.179688 197.226562 247.179688 L 280.332031 247.179688 C 287.835938 247.179688 293.941406 252.652344 293.941406 259.371094 " fill-opacity="1" fill-rule="nonzero"/><path fill="rgb(95.689392%, 94.509888%, 76.469421%)" d="M 178.921875 511.523438 C 182.757812 511.523438 185.867188 514.628906 185.867188 518.457031 C 185.867188 522.289062 182.757812 525.394531 178.921875 525.394531 C 175.082031 525.394531 171.972656 522.289062 171.972656 518.457031 C 171.972656 514.628906 175.082031 511.523438 178.921875 511.523438 " fill-opacity="1" fill-rule="nonzero"/><path fill="rgb(6.669617%, 12.159729%, 16.079712%)" d="M 174.226562 518.457031 C 174.226562 521.042969 176.332031 523.144531 178.921875 523.144531 C 181.507812 523.144531 183.617188 521.042969 183.617188 518.457031 C 183.617188 515.875 181.507812 513.769531 178.921875 513.769531 C 176.332031 513.769531 174.226562 515.875 174.226562 518.457031 Z M 188.121094 518.457031 C 188.121094 523.523438 183.992188 527.644531 178.921875 527.644531 C 173.851562 527.644531 169.722656 523.523438 169.722656 518.457031 C 169.722656 513.394531 173.851562 509.273438 178.921875 509.273438 C 183.992188 509.273438 188.121094 513.394531 188.121094 518.457031 " fill-opacity="1" fill-rule="nonzero"/><path fill="rgb(95.689392%, 94.509888%, 76.469421%)" d="M 298.636719 511.523438 C 302.472656 511.523438 305.582031 514.628906 305.582031 518.457031 C 305.582031 522.289062 302.472656 525.394531 298.636719 525.394531 C 294.800781 525.394531 291.691406 522.289062 291.691406 518.457031 C 291.691406 514.628906 294.800781 511.523438 298.636719 511.523438 " fill-opacity="1" fill-rule="nonzero"/><path fill="rgb(6.669617%, 12.159729%, 16.079712%)" d="M 293.941406 518.457031 C 293.941406 521.042969 296.046875 523.144531 298.636719 523.144531 C 301.226562 523.144531 303.332031 521.042969 303.332031 518.457031 C 303.332031 515.875 301.226562 513.769531 298.636719 513.769531 C 296.046875 513.769531 293.941406 515.875 293.941406 518.457031 Z M 307.835938 518.457031 C 307.835938 523.523438 303.710938 527.644531 298.636719 527.644531 C 293.566406 527.644531 289.4375 523.523438 289.4375 518.457031 C 289.4375 513.394531 293.566406 509.273438 298.636719 509.273438 C 303.710938 509.273438 307.835938 513.394531 307.835938 518.457031 " fill-opacity="1" fill-rule="nonzero"/><path fill="rgb(95.689392%, 94.509888%, 76.469421%)" d="M 185.867188 447.214844 C 189.703125 447.214844 192.816406 450.324219 192.816406 454.152344 C 192.816406 457.984375 189.703125 461.089844 185.867188 461.089844 C 182.027344 461.089844 178.921875 457.984375 178.921875 454.152344 C 178.921875 450.324219 182.027344 447.214844 185.867188 447.214844 " fill-opacity="1" fill-rule="nonzero"/><path fill="rgb(6.669617%, 12.159729%, 16.079712%)" d="M 181.171875 454.152344 C 181.171875 456.738281 183.28125 458.839844 185.867188 458.839844 C 188.457031 458.839844 190.5625 456.738281 190.5625 454.152344 C 190.5625 451.566406 188.457031 449.464844 185.867188 449.464844 C 183.28125 449.464844 181.171875 451.566406 181.171875 454.152344 Z M 195.066406 454.152344 C 195.066406 459.21875 190.9375 463.339844 185.867188 463.339844 C 180.792969 463.339844 176.667969 459.21875 176.667969 454.152344 C 176.667969 449.089844 180.792969 444.96875 185.867188 444.96875 C 190.9375 444.96875 195.066406 449.089844 195.066406 454.152344 " fill-opacity="1" fill-rule="nonzero"/><path fill="rgb(95.689392%, 94.509888%, 76.469421%)" d="M 291.691406 447.214844 C 295.527344 447.214844 298.636719 450.324219 298.636719 454.152344 C 298.636719 457.984375 295.527344 461.089844 291.691406 461.089844 C 287.855469 461.089844 284.746094 457.984375 284.746094 454.152344 C 284.746094 450.324219 287.855469 447.214844 291.691406 447.214844 " fill-opacity="1" fill-rule="nonzero"/><path fill="rgb(6.669617%, 12.159729%, 16.079712%)" d="M 286.996094 454.152344 C 286.996094 456.738281 289.101562 458.839844 291.691406 458.839844 C 294.277344 458.839844 296.382812 456.738281 296.382812 454.152344 C 296.382812 451.566406 294.277344 449.464844 291.691406 449.464844 C 289.101562 449.464844 286.996094 451.566406 286.996094 454.152344 Z M 300.886719 454.152344 C 300.886719 459.21875 296.761719 463.339844 291.691406 463.339844 C 286.617188 463.339844 282.492188 459.21875 282.492188 454.152344 C 282.492188 449.089844 286.617188 444.96875 291.691406 444.96875 C 296.761719 444.96875 300.886719 449.089844 300.886719 454.152344 " fill-opacity="1" fill-rule="nonzero"/><path fill="rgb(95.689392%, 94.509888%, 76.469421%)" d="M 191.972656 386.167969 C 195.808594 386.167969 198.921875 389.273438 198.921875 393.105469 C 198.921875 396.933594 195.808594 400.039062 191.972656 400.039062 C 188.136719 400.039062 185.027344 396.933594 185.027344 393.105469 C 185.027344 389.273438 188.136719 386.167969 191.972656 386.167969 " fill-opacity="1" fill-rule="nonzero"/><path fill="rgb(6.669617%, 12.159729%, 16.079712%)" d="M 187.277344 393.105469 C 187.277344 395.6875 189.382812 397.792969 191.972656 397.792969 C 194.5625 397.792969 196.667969 395.6875 196.667969 393.105469 C 196.667969 390.519531 194.5625 388.417969 191.972656 388.417969 C 189.382812 388.417969 187.277344 390.519531 187.277344 393.105469 Z M 201.171875 393.105469 C 201.171875 398.167969 197.042969 402.289062 191.972656 402.289062 C 186.898438 402.289062 182.773438 398.167969 182.773438 393.105469 C 182.773438 388.039062 186.898438 383.917969 191.972656 383.917969 C 197.042969 383.917969 201.171875 388.039062 201.171875 393.105469 " fill-opacity="1" fill-rule="nonzero"/><path fill="rgb(95.689392%, 94.509888%, 76.469421%)" d="M 286.546875 386.167969 C 290.378906 386.167969 293.492188 389.273438 293.492188 393.105469 C 293.492188 396.933594 290.378906 400.039062 286.546875 400.039062 C 282.710938 400.039062 279.597656 396.933594 279.597656 393.105469 C 279.597656 389.273438 282.710938 386.167969 286.546875 386.167969 " fill-opacity="1" fill-rule="nonzero"/><path fill="rgb(6.669617%, 12.159729%, 16.079712%)" d="M 281.847656 393.105469 C 281.847656 395.6875 283.957031 397.792969 286.546875 397.792969 C 289.132812 397.792969 291.238281 395.6875 291.238281 393.105469 C 291.238281 390.519531 289.132812 388.417969 286.546875 388.417969 C 283.957031 388.417969 281.847656 390.519531 281.847656 393.105469 Z M 295.742188 393.105469 C 295.742188 398.167969 291.617188 402.289062 286.546875 402.289062 C 281.472656 402.289062 277.347656 398.167969 277.347656 393.105469 C 277.347656 388.039062 281.472656 383.917969 286.546875 383.917969 C 291.617188 383.917969 295.742188 388.039062 295.742188 393.105469 " fill-opacity="1" fill-rule="nonzero"/><path fill="rgb(95.689392%, 94.509888%, 76.469421%)" d="M 198.921875 325.46875 C 202.753906 325.46875 205.863281 328.574219 205.863281 332.40625 C 205.863281 336.234375 202.753906 339.34375 198.921875 339.34375 C 195.082031 339.34375 191.972656 336.234375 191.972656 332.40625 C 191.972656 328.574219 195.082031 325.46875 198.921875 325.46875 " fill-opacity="1" fill-rule="nonzero"/><path fill="rgb(6.669617%, 12.159729%, 16.079712%)" d="M 194.222656 332.40625 C 194.222656 334.992188 196.332031 337.09375 198.921875 337.09375 C 201.507812 337.09375 203.613281 334.992188 203.613281 332.40625 C 203.613281 329.820312 201.507812 327.71875 198.921875 327.71875 C 196.332031 327.71875 194.222656 329.820312 194.222656 332.40625 Z M 208.117188 332.40625 C 208.117188 337.46875 203.992188 341.589844 198.921875 341.589844 C 193.847656 341.589844 189.71875 337.46875 189.71875 332.40625 C 189.71875 327.339844 193.847656 323.21875 198.921875 323.21875 C 203.992188 323.21875 208.117188 327.339844 208.117188 332.40625 " fill-opacity="1" fill-rule="nonzero"/><path fill="rgb(95.689392%, 94.509888%, 76.469421%)" d="M 279.597656 325.46875 C 283.433594 325.46875 286.546875 328.574219 286.546875 332.40625 C 286.546875 336.234375 283.433594 339.34375 279.597656 339.34375 C 275.761719 339.34375 272.652344 336.234375 272.652344 332.40625 C 272.652344 328.574219 275.761719 325.46875 279.597656 325.46875 " fill-opacity="1" fill-rule="nonzero"/><path fill="rgb(6.669617%, 12.159729%, 16.079712%)" d="M 274.902344 332.40625 C 274.902344 334.992188 277.011719 337.09375 279.597656 337.09375 C 282.1875 337.09375 284.292969 334.992188 284.292969 332.40625 C 284.292969 329.820312 282.1875 327.71875 279.597656 327.71875 C 277.011719 327.71875 274.902344 329.820312 274.902344 332.40625 Z M 288.796875 332.40625 C 288.796875 337.46875 284.671875 341.589844 279.597656 341.589844 C 274.523438 341.589844 270.398438 337.46875 270.398438 332.40625 C 270.398438 327.339844 274.523438 323.21875 279.597656 323.21875 C 284.671875 323.21875 288.796875 327.339844 288.796875 332.40625 " fill-opacity="1" fill-rule="nonzero"/><path fill="rgb(95.689392%, 94.509888%, 76.469421%)" d="M 203.328125 265.820312 C 207.164062 265.820312 210.273438 268.929688 210.273438 272.757812 C 210.273438 276.589844 207.164062 279.695312 203.328125 279.695312 C 199.492188 279.695312 196.378906 276.589844 196.378906 272.757812 C 196.378906 268.929688 199.492188 265.820312 203.328125 265.820312 " fill-opacity="1" fill-rule="nonzero"/><path fill="rgb(6.669617%, 12.159729%, 16.079712%)" d="M 198.632812 272.761719 C 198.632812 275.347656 200.738281 277.449219 203.328125 277.449219 C 205.917969 277.449219 208.023438 275.347656 208.023438 272.761719 C 208.023438 270.175781 205.917969 268.074219 203.328125 268.074219 C 200.738281 268.074219 198.632812 270.175781 198.632812 272.761719 Z M 212.527344 272.761719 C 212.527344 277.828125 208.402344 281.945312 203.328125 281.945312 C 198.253906 281.945312 194.128906 277.828125 194.128906 272.761719 C 194.128906 267.699219 198.253906 263.578125 203.328125 263.578125 C 208.402344 263.578125 212.527344 267.699219 212.527344 272.761719 " fill-opacity="1" fill-rule="nonzero"/><path fill="rgb(95.689392%, 94.509888%, 76.469421%)" d="M 272.652344 265.820312 C 276.488281 265.820312 279.597656 268.929688 279.597656 272.757812 C 279.597656 276.589844 276.488281 279.695312 272.652344 279.695312 C 268.816406 279.695312 265.703125 276.589844 265.703125 272.757812 C 265.703125 268.929688 268.816406 265.820312 272.652344 265.820312 " fill-opacity="1" fill-rule="nonzero"/><path fill="rgb(6.669617%, 12.159729%, 16.079712%)" d="M 267.957031 272.761719 C 267.957031 275.347656 270.0625 277.449219 272.652344 277.449219 C 275.238281 277.449219 277.347656 275.347656 277.347656 272.761719 C 277.347656 270.175781 275.238281 268.074219 272.652344 268.074219 C 270.0625 268.074219 267.957031 270.175781 267.957031 272.761719 Z M 281.851562 272.761719 C 281.851562 277.828125 277.722656 281.945312 272.652344 281.945312 C 267.582031 281.945312 263.453125 277.828125 263.453125 272.761719 C 263.453125 267.699219 267.582031 263.578125 272.652344 263.578125 C 277.722656 263.578125 281.851562 267.699219 281.851562 272.761719 " fill-opacity="1" fill-rule="nonzero"/><path fill="rgb(95.689392%, 94.509888%, 76.469421%)" d="M 340.367188 238.09375 C 342.796875 235.8125 346.621094 235.929688 348.902344 238.359375 C 351.191406 240.785156 351.070312 244.601562 348.640625 246.882812 C 347.25 248.1875 302.90625 289.703125 272.398438 316.328125 C 272.398438 316.328125 228.746094 352.59375 227.765625 351.554688 C 226.777344 350.503906 265.914062 309.390625 265.914062 309.390625 C 294.433594 280.871094 338.984375 239.390625 340.367188 238.09375 " fill-opacity="1" fill-rule="nonzero"/><path fill="rgb(6.669617%, 12.159729%, 16.079712%)" d="M 242.019531 338.222656 C 251.121094 330.953125 262.542969 321.585938 270.953125 314.597656 C 301.019531 288.363281 345.230469 246.992188 347.097656 245.246094 C 347.867188 244.523438 348.289062 243.542969 348.289062 242.488281 C 348.289062 241.519531 347.925781 240.601562 347.261719 239.898438 C 346.570312 239.164062 345.628906 238.738281 344.621094 238.707031 C 343.605469 238.675781 342.644531 239.039062 341.910156 239.734375 L 341.265625 240.328125 C 330.269531 250.597656 292.453125 286.035156 267.507812 310.976562 C 259.988281 318.875 249.882812 329.632812 242.019531 338.222656 Z M 352.796875 242.488281 C 352.796875 244.761719 351.84375 246.960938 350.183594 248.519531 C 348.308594 250.277344 304.039062 291.699219 273.875 318.019531 C 273.726562 318.148438 262.785156 327.234375 251.863281 336.074219 C 245.445312 341.277344 240.28125 345.378906 236.523438 348.269531 C 229.523438 353.65625 227.859375 354.9375 226.121094 353.09375 C 225.730469 352.675781 225.496094 352.070312 225.496094 351.496094 C 225.496094 350.410156 225.496094 348.585938 264.28125 307.839844 C 289.3125 282.804688 327.179688 247.324219 338.191406 237.046875 L 338.824219 236.457031 C 340.4375 234.941406 342.542969 234.144531 344.761719 234.210938 C 346.976562 234.28125 349.027344 235.207031 350.546875 236.820312 C 351.996094 238.355469 352.796875 240.371094 352.796875 242.488281 " fill-opacity="1" fill-rule="nonzero"/><path fill="rgb(93.728638%, 16.859436%, 24.308777%)" d="M 233.789062 361.519531 C 241.289062 360.0625 246.1875 352.8125 244.730469 345.320312 C 243.273438 337.828125 236.011719 332.9375 228.511719 334.390625 C 221.007812 335.847656 216.109375 343.097656 217.566406 350.589844 C 219.019531 358.078125 226.285156 362.972656 233.789062 361.519531 " fill-opacity="1" fill-rule="nonzero"/><path fill="rgb(6.669617%, 12.159729%, 16.079712%)" d="M 219.558594 347.941406 C 219.558594 348.679688 219.632812 349.425781 219.773438 350.160156 C 220.367188 353.191406 222.101562 355.816406 224.667969 357.542969 C 227.234375 359.273438 230.320312 359.898438 233.359375 359.3125 C 238.792969 358.257812 242.734375 353.488281 242.734375 347.972656 C 242.734375 347.230469 242.664062 346.484375 242.523438 345.75 C 241.304688 339.488281 235.210938 335.386719 228.9375 336.601562 C 223.503906 337.65625 219.558594 342.421875 219.558594 347.941406 Z M 247.242188 347.972656 C 247.242188 355.636719 241.761719 362.261719 234.214844 363.726562 C 230 364.542969 225.710938 363.671875 222.152344 361.273438 C 218.585938 358.871094 216.175781 355.230469 215.355469 351.019531 C 215.15625 350 215.058594 348.96875 215.058594 347.941406 C 215.058594 340.273438 220.535156 333.648438 228.082031 332.183594 C 236.789062 330.496094 245.25 336.195312 246.941406 344.890625 C 247.140625 345.90625 247.242188 346.945312 247.242188 347.972656 " fill-opacity="1" fill-rule="nonzero"/><path fill="rgb(95.689392%, 94.509888%, 76.469421%)" d="M 381.71875 518.992188 C 384.816406 520.226562 388.328125 518.71875 389.5625 515.625 C 390.800781 512.53125 389.289062 509.023438 386.191406 507.789062 C 384.421875 507.082031 327.929688 484.664062 289.773438 471.046875 C 289.773438 471.046875 235.855469 453.261719 235.324219 454.585938 C 234.792969 455.925781 286.289062 479.871094 286.289062 479.871094 C 323.285156 495.984375 379.953125 518.289062 381.71875 518.992188 " fill-opacity="1" fill-rule="nonzero"/><g clip-path="url(#id4)"><path fill="rgb(6.669617%, 12.159729%, 16.079712%)" d="M 253.480469 461.78125 C 263.953125 466.898438 277.316406 473.21875 287.238281 477.835938 C 319.6875 491.964844 367.84375 511.089844 381.828125 516.617188 L 382.550781 516.902344 C 383.492188 517.277344 384.519531 517.261719 385.449219 516.863281 C 386.378906 516.464844 387.09375 515.730469 387.46875 514.792969 C 387.648438 514.339844 387.742188 513.867188 387.742188 513.390625 C 387.742188 511.832031 386.804688 510.453125 385.355469 509.875 C 384.792969 509.652344 327.253906 486.8125 289.015625 473.164062 C 278.65625 469.75 264.609375 465.214844 253.480469 461.78125 Z M 392.246094 513.390625 C 392.246094 514.441406 392.046875 515.472656 391.652344 516.457031 C 390.835938 518.511719 389.261719 520.121094 387.226562 520.996094 C 385.191406 521.871094 382.9375 521.898438 380.882812 521.078125 L 380.171875 520.796875 C 366.167969 515.265625 317.953125 496.117188 285.386719 481.933594 C 285.210938 481.851562 272.4375 475.910156 259.828125 469.851562 C 233.066406 456.996094 233.066406 456.445312 233.066406 454.609375 C 233.066406 454.324219 233.125 454.019531 233.230469 453.757812 C 234.171875 451.40625 236.1875 451.988281 244.679688 454.441406 C 249.234375 455.753906 255.542969 457.683594 263.425781 460.175781 C 276.832031 464.410156 290.347656 468.867188 290.480469 468.910156 C 329.472656 482.828125 386.460938 505.472656 387.023438 505.699219 C 390.195312 506.960938 392.246094 509.980469 392.246094 513.390625 " fill-opacity="1" fill-rule="nonzero"/></g><path fill="rgb(93.728638%, 16.859436%, 24.308777%)" d="M 237.273438 443.113281 C 244.789062 441.722656 252.007812 446.679688 253.398438 454.183594 C 254.789062 461.6875 249.828125 468.894531 242.3125 470.285156 C 234.796875 471.671875 227.578125 466.71875 226.1875 459.214844 C 224.796875 451.710938 229.757812 444.503906 237.273438 443.113281 " fill-opacity="1" fill-rule="nonzero"/><path fill="rgb(6.669617%, 12.159729%, 16.079712%)" d="M 228.207031 456.683594 C 228.207031 457.390625 228.269531 458.105469 228.398438 458.804688 C 229.566406 465.078125 235.621094 469.234375 241.902344 468.074219 C 247.394531 467.058594 251.378906 462.28125 251.378906 456.714844 C 251.378906 456.007812 251.3125 455.292969 251.183594 454.59375 C 250.621094 451.554688 248.90625 448.917969 246.355469 447.167969 C 243.804688 445.414062 240.726562 444.761719 237.683594 445.324219 C 232.191406 446.339844 228.207031 451.117188 228.207031 456.683594 Z M 255.882812 456.714844 C 255.882812 464.449219 250.347656 471.085938 242.722656 472.496094 C 234 474.109375 225.585938 468.335938 223.972656 459.625 C 223.792969 458.652344 223.699219 457.664062 223.699219 456.683594 C 223.699219 448.949219 229.238281 442.3125 236.863281 440.902344 C 241.089844 440.121094 245.367188 441.03125 248.90625 443.460938 C 252.449219 445.890625 254.828125 449.554688 255.613281 453.773438 C 255.792969 454.746094 255.882812 455.734375 255.882812 456.714844 " fill-opacity="1" fill-rule="nonzero"/><g fill="rgb(16.468811%, 72.549438%, 89.408875%)" fill-opacity="1"><g transform="translate(498.756482, 539.648431)"><g><path d="M 128.589844 0 L 162.855469 0 L 103.5625 -84.699219 L 162.855469 -169.398438 L 128.589844 -169.398438 L 86.238281 -104.335938 L 43.890625 -169.398438 L 9.625 -169.398438 L 68.914062 -85.085938 L 9.625 0 L 43.890625 0 L 86.238281 -65.835938 Z M 128.589844 0 "/></g></g></g></svg>