<svg xmlns="http://www.w3.org/2000/svg" xmlns:xlink="http://www.w3.org/1999/xlink" width="1080" zoomAndPan="magnify" viewBox="0 0 810 809.999993" height="1080" preserveAspectRatio="xMidYMid meet" version="1.0"><defs><g/><clipPath id="id1"><path d="M 242 281.519531 L 246 281.519531 L 246 367 L 242 367 Z M 242 281.519531 " clip-rule="nonzero"/></clipPath><clipPath id="id2"><path d="M 206.566406 362.5625 L 262.195312 362.5625 L 262.195312 440.519531 L 206.566406 440.519531 Z M 206.566406 362.5625 " clip-rule="nonzero"/></clipPath><clipPath id="id3"><path d="M 211.253906 362.5625 L 267 362.5625 L 267 440.519531 L 211.253906 440.519531 Z M 211.253906 362.5625 " clip-rule="nonzero"/></clipPath><clipPath id="id4"><path d="M 222.660156 362.5625 L 278.289062 362.5625 L 278.289062 440.519531 L 222.660156 440.519531 Z M 222.660156 362.5625 " clip-rule="nonzero"/></clipPath><clipPath id="id5"><path d="M 227.476562 362.5625 L 283.105469 362.5625 L 283.105469 440.519531 L 227.476562 440.519531 Z M 227.476562 362.5625 " clip-rule="nonzero"/></clipPath><clipPath id="id6"><path d="M 236.726562 368.035156 L 284.546875 368.035156 L 284.546875 435.074219 L 236.726562 435.074219 Z M 236.726562 368.035156 " clip-rule="nonzero"/></clipPath></defs><rect x="-81" width="972" fill="rgb(100%, 100%, 100%)" y="-80.999999" height="971.999992" fill-opacity="1"/><rect x="-81" width="972" fill="rgb(100%, 100%, 100%)" y="-80.999999" height="971.999992" fill-opacity="1"/><g clip-path="url(#id1)"><path fill="rgb(100%, 90.19928%, 90.19928%)" d="M 244.648438 366.773438 C 244.65625 366.773438 244.664062 366.773438 244.671875 366.773438 C 245.214844 366.761719 245.648438 366.308594 245.636719 365.761719 L 244.222656 282.503906 C 244.210938 281.953125 243.761719 281.523438 243.214844 281.53125 C 242.667969 281.542969 242.234375 281.996094 242.246094 282.546875 L 243.660156 365.804688 C 243.671875 366.34375 244.113281 366.773438 244.648438 366.773438 " fill-opacity="1" fill-rule="nonzero"/></g><g clip-path="url(#id2)"><path fill="rgb(57.249451%, 57.249451%, 100%)" d="M 262.148438 401.59375 C 262.148438 380.09375 249.707031 362.667969 234.355469 362.667969 C 219.007812 362.667969 206.566406 380.09375 206.566406 401.59375 C 206.566406 423.09375 219.007812 440.519531 234.355469 440.519531 C 249.707031 440.519531 262.148438 423.09375 262.148438 401.59375 " fill-opacity="1" fill-rule="nonzero"/></g><g clip-path="url(#id3)"><path fill="rgb(38.038635%, 29.798889%, 83.139038%)" d="M 266.953125 401.59375 C 266.953125 380.09375 254.511719 362.667969 239.164062 362.667969 C 223.816406 362.667969 211.375 380.09375 211.375 401.59375 C 211.375 423.09375 223.816406 440.519531 239.164062 440.519531 C 254.511719 440.519531 266.953125 423.09375 266.953125 401.59375 " fill-opacity="1" fill-rule="nonzero"/></g><path fill="rgb(100%, 90.19928%, 90.19928%)" d="M 265.839844 401.59375 C 265.839844 383.109375 255.140625 368.125 241.945312 368.125 C 228.75 368.125 218.050781 383.109375 218.050781 401.59375 C 218.050781 420.078125 228.75 435.0625 241.945312 435.0625 C 255.140625 435.0625 265.839844 420.078125 265.839844 401.59375 " fill-opacity="1" fill-rule="nonzero"/><g clip-path="url(#id4)"><path fill="rgb(57.249451%, 57.249451%, 100%)" d="M 278.265625 401.59375 C 278.265625 423.09375 265.824219 440.519531 250.476562 440.519531 C 235.128906 440.519531 222.683594 423.09375 222.683594 401.59375 C 222.683594 380.09375 235.128906 362.667969 250.476562 362.667969 C 265.824219 362.667969 278.265625 380.09375 278.265625 401.59375 " fill-opacity="1" fill-rule="nonzero"/></g><g clip-path="url(#id5)"><path fill="rgb(49.01886%, 47.839355%, 95.689392%)" d="M 283.074219 401.59375 C 283.074219 423.09375 270.628906 440.519531 255.28125 440.519531 C 239.933594 440.519531 227.492188 423.09375 227.492188 401.59375 C 227.492188 380.09375 239.933594 362.667969 255.28125 362.667969 C 270.628906 362.667969 283.074219 380.09375 283.074219 401.59375 " fill-opacity="1" fill-rule="nonzero"/></g><g clip-path="url(#id6)"><path fill="rgb(38.038635%, 29.798889%, 83.139038%)" d="M 284.546875 401.59375 C 284.546875 420.078125 273.851562 435.0625 260.65625 435.0625 C 247.457031 435.0625 236.761719 420.078125 236.761719 401.59375 C 236.761719 383.109375 247.457031 368.125 260.65625 368.125 C 273.851562 368.125 284.546875 383.109375 284.546875 401.59375 " fill-opacity="1" fill-rule="nonzero"/></g><path fill="rgb(100%, 90.19928%, 90.19928%)" d="M 267.289062 380.800781 L 271.410156 392.695312 L 280.617188 394.605469 L 273.953125 403.863281 L 275.527344 416.941406 L 267.289062 410.765625 L 259.054688 416.941406 L 260.625 403.863281 L 253.960938 394.605469 L 263.171875 392.695312 L 267.289062 380.800781 " fill-opacity="1" fill-rule="nonzero"/><g fill="rgb(47.059631%, 17.649841%, 48.629761%)" fill-opacity="1"><g transform="translate(228.404728, 537.255931)"><g><path d="M 130.199219 -123.265625 L 229.199219 -261.941406 L 194.914062 -261.941406 L 116.71875 -149.847656 L 38.519531 -261.941406 L 3.851562 -261.941406 L 103.234375 -122.882812 L 103.234375 0 L 130.199219 0 Z M 130.199219 -123.265625 "/></g></g></g><g fill="rgb(49.01886%, 47.839355%, 95.689392%)" fill-opacity="1"><g transform="translate(439.808477, 519.508823)"><g><path d="M 50.433594 96.25 L 167.472656 -169.398438 L 137.445312 -169.398438 L 88.933594 -55.824219 L 34.648438 -169.398438 L 3.851562 -169.398438 L 74.691406 -27.71875 L 17.710938 96.25 Z M 50.433594 96.25 "/></g></g></g></svg>