<svg xmlns="http://www.w3.org/2000/svg" xmlns:xlink="http://www.w3.org/1999/xlink" width="1080" zoomAndPan="magnify" viewBox="0 0 810 809.999993" height="1080" preserveAspectRatio="xMidYMid meet" version="1.0"><defs><g/><clipPath id="id1"><path d="M 480.921875 137.3125 L 681 137.3125 L 681 367.5625 L 480.921875 367.5625 Z M 480.921875 137.3125 " clip-rule="nonzero"/></clipPath><clipPath id="id2"><path d="M 480.921875 250 L 482 250 L 482 256 L 480.921875 256 Z M 480.921875 250 " clip-rule="nonzero"/></clipPath><clipPath id="id3"><path d="M 480.921875 141 L 568 141 L 568 364 L 480.921875 364 Z M 480.921875 141 " clip-rule="nonzero"/></clipPath><clipPath id="id4"><path d="M 484 219 L 681.125 219 L 681.125 285.59375 L 484 285.59375 Z M 484 219 " clip-rule="nonzero"/></clipPath><clipPath id="id5"><path d="M 245 160.988281 L 250 160.988281 L 250 199 L 245 199 Z M 245 160.988281 " clip-rule="nonzero"/></clipPath><clipPath id="id6"><path d="M 125.679688 280 L 163 280 L 163 286 L 125.679688 286 Z M 125.679688 280 " clip-rule="nonzero"/></clipPath><clipPath id="id7"><path d="M 245 367 L 250 367 L 250 404.738281 L 245 404.738281 Z M 245 367 " clip-rule="nonzero"/></clipPath><clipPath id="id8"><path d="M 332 280 L 369.429688 280 L 369.429688 286 L 332 286 Z M 332 280 " clip-rule="nonzero"/></clipPath></defs><rect x="-81" width="972" fill="#dec610" y="-80.999999" height="971.999992" fill-opacity="1"/><rect x="-81" width="972" fill="#ffffff" y="-80.999999" height="971.999992" fill-opacity="1"/><rect x="-81" width="972" fill="#dec610" y="-80.999999" height="971.999992" fill-opacity="1"/><g fill="#100f0d" fill-opacity="0.302"><g transform="translate(112.962809, 479.742212)"><g><path d="M 39.21875 -59.980469 L 44.984375 -94.003906 L 53.636719 -94.582031 L 62.285156 -61.710938 Z M 7.496094 0 L 27.683594 0 L 36.332031 -42.675781 L 65.746094 -43.253906 L 77.28125 0 L 101.503906 0 L 64.015625 -129.761719 L 31.144531 -131.492188 Z M 7.496094 0 "/></g></g></g><g fill="#100f0d" fill-opacity="0.302"><g transform="translate(223.885087, 479.742212)"><g><path d="M 84.199219 -75.164062 L 72.089844 -69.78125 L 64.015625 -76.128906 L 56.902344 -79.011719 C 53.058594 -79.78125 49.789062 -80.546875 45.5625 -79.585938 C 40.5625 -78.433594 36.527344 -77.089844 32.871094 -75.164062 L 32.871094 -82.472656 L 6.34375 -82.472656 L 6.34375 0 L 32.871094 0 L 32.871094 -62.863281 C 32.871094 -63.246094 33.449219 -63.246094 34.027344 -63.4375 C 39.410156 -65.554688 42.871094 -66.128906 48.445312 -65.167969 C 52.867188 -64.207031 54.980469 -60.941406 57.671875 -57.09375 L 57.671875 0 L 84.199219 0 L 84.199219 -62.863281 C 84.199219 -63.246094 84.777344 -63.246094 85.355469 -63.4375 C 90.738281 -65.554688 94.199219 -66.128906 99.773438 -65.167969 C 104.195312 -64.207031 106.5 -60.941406 109.191406 -56.902344 L 109.191406 0 L 124.570312 0 L 124.570312 -57.09375 C 123.609375 -65.363281 123.417969 -71.511719 117.074219 -76.703125 C 110.921875 -81.703125 104.578125 -81.507812 96.890625 -79.585938 C 91.890625 -78.433594 87.855469 -77.089844 84.199219 -75.164062 Z M 84.199219 -75.164062 "/></g></g></g><g fill="#100f0d" fill-opacity="0.302"><g transform="translate(356.722688, 479.742212)"><g><path d="M 46.714844 -82.472656 L 46.714844 -76.511719 C 45.367188 -77.089844 44.023438 -77.664062 42.675781 -78.433594 C 34.21875 -81.894531 27.875 -82.855469 19.609375 -79.011719 C 12.109375 -75.550781 9.417969 -70.167969 7.496094 -62.285156 C 4.035156 -48.445312 4.804688 -39.601562 6.34375 -25.375 C 7.304688 -17.109375 7.496094 -10.957031 13.839844 -5.765625 C 19.992188 -0.769531 26.335938 -0.960938 34.027344 -2.882812 C 38.832031 -3.84375 42.871094 -5.191406 46.714844 -7.113281 L 46.714844 0 L 73.242188 0 L 73.242188 -82.472656 Z M 46.714844 -19.417969 C 46.328125 -19.222656 45.945312 -19.03125 45.5625 -19.03125 C 40.179688 -16.726562 36.71875 -16.339844 31.144531 -17.300781 C 26.527344 -18.070312 22.875 -19.03125 20.183594 -23.070312 C 16.339844 -28.835938 16.53125 -33.449219 16.148438 -40.371094 C 15.957031 -44.601562 16.339844 -47.097656 18.453125 -50.75 C 21.339844 -55.558594 23.070312 -59.210938 28.257812 -61.132812 C 33.835938 -63.054688 37.101562 -60.171875 42.675781 -59.402344 L 46.714844 -55.75 Z M 46.714844 -19.417969 "/></g></g></g><g fill="#100f0d" fill-opacity="0.302"><g transform="translate(437.655575, 479.742212)"><g><path d="M 73.242188 -57.09375 L 57.863281 -56.902344 C 55.171875 -60.941406 52.867188 -64.207031 48.445312 -65.167969 C 42.871094 -66.128906 39.410156 -65.554688 34.027344 -63.4375 C 33.449219 -63.246094 32.871094 -63.246094 32.871094 -62.863281 L 32.871094 0 L 6.34375 0 L 6.34375 -82.472656 L 32.871094 -82.472656 L 32.871094 -75.164062 C 36.527344 -77.089844 40.5625 -78.433594 45.5625 -79.585938 C 53.25 -81.507812 59.59375 -81.703125 65.746094 -76.703125 C 72.089844 -71.511719 72.28125 -65.363281 73.242188 -57.09375 Z M 73.242188 -57.09375 "/></g></g></g><g fill="#100f0d" fill-opacity="0.302"><g transform="translate(518.588463, 479.742212)"><g><path d="M 4.613281 -64.015625 L 4.613281 0 L 34.027344 0 L 34.027344 -64.015625 Z M 4.035156 -97.464844 L 4.035156 -76.703125 L 34.601562 -76.703125 L 34.601562 -97.464844 Z M 4.035156 -97.464844 "/></g></g></g><g fill="#100f0d" fill-opacity="0.302"><g transform="translate(559.727773, 479.742212)"><g/></g></g><g fill="#100f0d" fill-opacity="0.302"><g transform="translate(602.597202, 479.742212)"><g><path d="M 8.074219 -136.105469 L 8.074219 0 L 36.910156 0 L 36.910156 -136.105469 Z M 8.074219 -136.105469 "/></g></g></g><g fill="#100f0d" fill-opacity="0.302"><g transform="translate(649.503648, 479.742212)"><g><path d="M 23.070312 -42.871094 C 23.070312 -53.058594 31.335938 -61.324219 41.523438 -61.324219 C 51.710938 -61.324219 59.980469 -53.058594 59.980469 -42.871094 C 59.980469 -32.679688 51.710938 -24.414062 41.523438 -24.414062 C 31.335938 -24.414062 23.070312 -32.679688 23.070312 -42.871094 Z M 3.460938 -42.871094 C 3.460938 -20.570312 19.992188 -2.5 40.371094 -2.5 C 60.746094 -2.5 77.28125 -20.570312 77.28125 -42.871094 C 77.28125 -65.167969 60.746094 -83.238281 40.371094 -83.238281 C 19.992188 -83.238281 3.460938 -65.167969 3.460938 -42.871094 Z M 3.460938 -42.871094 "/></g></g></g><g fill="#100f0d" fill-opacity="0.502"><g transform="translate(104.466752, 471.246179)"><g><path d="M 39.21875 -59.980469 L 44.984375 -94.003906 L 53.636719 -94.582031 L 62.285156 -61.710938 Z M 7.496094 0 L 27.683594 0 L 36.332031 -42.675781 L 65.746094 -43.253906 L 77.28125 0 L 101.503906 0 L 64.015625 -129.761719 L 31.144531 -131.492188 Z M 7.496094 0 "/></g></g></g><g fill="#100f0d" fill-opacity="0.502"><g transform="translate(215.38903, 471.246179)"><g><path d="M 84.199219 -75.164062 L 72.089844 -69.78125 L 64.015625 -76.128906 L 56.902344 -79.011719 C 53.058594 -79.78125 49.789062 -80.546875 45.5625 -79.585938 C 40.5625 -78.433594 36.527344 -77.089844 32.871094 -75.164062 L 32.871094 -82.472656 L 6.34375 -82.472656 L 6.34375 0 L 32.871094 0 L 32.871094 -62.863281 C 32.871094 -63.246094 33.449219 -63.246094 34.027344 -63.4375 C 39.410156 -65.554688 42.871094 -66.128906 48.445312 -65.167969 C 52.867188 -64.207031 54.980469 -60.941406 57.671875 -57.09375 L 57.671875 0 L 84.199219 0 L 84.199219 -62.863281 C 84.199219 -63.246094 84.777344 -63.246094 85.355469 -63.4375 C 90.738281 -65.554688 94.199219 -66.128906 99.773438 -65.167969 C 104.195312 -64.207031 106.5 -60.941406 109.191406 -56.902344 L 109.191406 0 L 124.570312 0 L 124.570312 -57.09375 C 123.609375 -65.363281 123.417969 -71.511719 117.074219 -76.703125 C 110.921875 -81.703125 104.578125 -81.507812 96.890625 -79.585938 C 91.890625 -78.433594 87.855469 -77.089844 84.199219 -75.164062 Z M 84.199219 -75.164062 "/></g></g></g><g fill="#100f0d" fill-opacity="0.502"><g transform="translate(348.226631, 471.246179)"><g><path d="M 46.714844 -82.472656 L 46.714844 -76.511719 C 45.367188 -77.089844 44.023438 -77.664062 42.675781 -78.433594 C 34.21875 -81.894531 27.875 -82.855469 19.609375 -79.011719 C 12.109375 -75.550781 9.417969 -70.167969 7.496094 -62.285156 C 4.035156 -48.445312 4.804688 -39.601562 6.34375 -25.375 C 7.304688 -17.109375 7.496094 -10.957031 13.839844 -5.765625 C 19.992188 -0.769531 26.335938 -0.960938 34.027344 -2.882812 C 38.832031 -3.84375 42.871094 -5.191406 46.714844 -7.113281 L 46.714844 0 L 73.242188 0 L 73.242188 -82.472656 Z M 46.714844 -19.417969 C 46.328125 -19.222656 45.945312 -19.03125 45.5625 -19.03125 C 40.179688 -16.726562 36.71875 -16.339844 31.144531 -17.300781 C 26.527344 -18.070312 22.875 -19.03125 20.183594 -23.070312 C 16.339844 -28.835938 16.53125 -33.449219 16.148438 -40.371094 C 15.957031 -44.601562 16.339844 -47.097656 18.453125 -50.75 C 21.339844 -55.558594 23.070312 -59.210938 28.257812 -61.132812 C 33.835938 -63.054688 37.101562 -60.171875 42.675781 -59.402344 L 46.714844 -55.75 Z M 46.714844 -19.417969 "/></g></g></g><g fill="#100f0d" fill-opacity="0.502"><g transform="translate(429.159518, 471.246179)"><g><path d="M 73.242188 -57.09375 L 57.863281 -56.902344 C 55.171875 -60.941406 52.867188 -64.207031 48.445312 -65.167969 C 42.871094 -66.128906 39.410156 -65.554688 34.027344 -63.4375 C 33.449219 -63.246094 32.871094 -63.246094 32.871094 -62.863281 L 32.871094 0 L 6.34375 0 L 6.34375 -82.472656 L 32.871094 -82.472656 L 32.871094 -75.164062 C 36.527344 -77.089844 40.5625 -78.433594 45.5625 -79.585938 C 53.25 -81.507812 59.59375 -81.703125 65.746094 -76.703125 C 72.089844 -71.511719 72.28125 -65.363281 73.242188 -57.09375 Z M 73.242188 -57.09375 "/></g></g></g><g fill="#100f0d" fill-opacity="0.502"><g transform="translate(510.092405, 471.246179)"><g><path d="M 4.613281 -64.015625 L 4.613281 0 L 34.027344 0 L 34.027344 -64.015625 Z M 4.035156 -97.464844 L 4.035156 -76.703125 L 34.601562 -76.703125 L 34.601562 -97.464844 Z M 4.035156 -97.464844 "/></g></g></g><g fill="#100f0d" fill-opacity="0.502"><g transform="translate(551.231716, 471.246179)"><g/></g></g><g fill="#100f0d" fill-opacity="0.502"><g transform="translate(594.101145, 471.246179)"><g><path d="M 8.074219 -136.105469 L 8.074219 0 L 36.910156 0 L 36.910156 -136.105469 Z M 8.074219 -136.105469 "/></g></g></g><g fill="#100f0d" fill-opacity="0.502"><g transform="translate(641.007591, 471.246179)"><g><path d="M 23.070312 -42.871094 C 23.070312 -53.058594 31.335938 -61.324219 41.523438 -61.324219 C 51.710938 -61.324219 59.980469 -53.058594 59.980469 -42.871094 C 59.980469 -32.679688 51.710938 -24.414062 41.523438 -24.414062 C 31.335938 -24.414062 23.070312 -32.679688 23.070312 -42.871094 Z M 3.460938 -42.871094 C 3.460938 -20.570312 19.992188 -2.5 40.371094 -2.5 C 60.746094 -2.5 77.28125 -20.570312 77.28125 -42.871094 C 77.28125 -65.167969 60.746094 -83.238281 40.371094 -83.238281 C 19.992188 -83.238281 3.460938 -65.167969 3.460938 -42.871094 Z M 3.460938 -42.871094 "/></g></g></g><g fill="#ffffff" fill-opacity="1"><g transform="translate(95.970702, 462.750114)"><g><path d="M 39.21875 -59.980469 L 44.984375 -94.003906 L 53.636719 -94.582031 L 62.285156 -61.710938 Z M 7.496094 0 L 27.683594 0 L 36.332031 -42.675781 L 65.746094 -43.253906 L 77.28125 0 L 101.503906 0 L 64.015625 -129.761719 L 31.144531 -131.492188 Z M 7.496094 0 "/></g></g></g><g fill="#ffffff" fill-opacity="1"><g transform="translate(206.89298, 462.750114)"><g><path d="M 84.199219 -75.164062 L 72.089844 -69.78125 L 64.015625 -76.128906 L 56.902344 -79.011719 C 53.058594 -79.78125 49.789062 -80.546875 45.5625 -79.585938 C 40.5625 -78.433594 36.527344 -77.089844 32.871094 -75.164062 L 32.871094 -82.472656 L 6.34375 -82.472656 L 6.34375 0 L 32.871094 0 L 32.871094 -62.863281 C 32.871094 -63.246094 33.449219 -63.246094 34.027344 -63.4375 C 39.410156 -65.554688 42.871094 -66.128906 48.445312 -65.167969 C 52.867188 -64.207031 54.980469 -60.941406 57.671875 -57.09375 L 57.671875 0 L 84.199219 0 L 84.199219 -62.863281 C 84.199219 -63.246094 84.777344 -63.246094 85.355469 -63.4375 C 90.738281 -65.554688 94.199219 -66.128906 99.773438 -65.167969 C 104.195312 -64.207031 106.5 -60.941406 109.191406 -56.902344 L 109.191406 0 L 124.570312 0 L 124.570312 -57.09375 C 123.609375 -65.363281 123.417969 -71.511719 117.074219 -76.703125 C 110.921875 -81.703125 104.578125 -81.507812 96.890625 -79.585938 C 91.890625 -78.433594 87.855469 -77.089844 84.199219 -75.164062 Z M 84.199219 -75.164062 "/></g></g></g><g fill="#ffffff" fill-opacity="1"><g transform="translate(339.730581, 462.750114)"><g><path d="M 46.714844 -82.472656 L 46.714844 -76.511719 C 45.367188 -77.089844 44.023438 -77.664062 42.675781 -78.433594 C 34.21875 -81.894531 27.875 -82.855469 19.609375 -79.011719 C 12.109375 -75.550781 9.417969 -70.167969 7.496094 -62.285156 C 4.035156 -48.445312 4.804688 -39.601562 6.34375 -25.375 C 7.304688 -17.109375 7.496094 -10.957031 13.839844 -5.765625 C 19.992188 -0.769531 26.335938 -0.960938 34.027344 -2.882812 C 38.832031 -3.84375 42.871094 -5.191406 46.714844 -7.113281 L 46.714844 0 L 73.242188 0 L 73.242188 -82.472656 Z M 46.714844 -19.417969 C 46.328125 -19.222656 45.945312 -19.03125 45.5625 -19.03125 C 40.179688 -16.726562 36.71875 -16.339844 31.144531 -17.300781 C 26.527344 -18.070312 22.875 -19.03125 20.183594 -23.070312 C 16.339844 -28.835938 16.53125 -33.449219 16.148438 -40.371094 C 15.957031 -44.601562 16.339844 -47.097656 18.453125 -50.75 C 21.339844 -55.558594 23.070312 -59.210938 28.257812 -61.132812 C 33.835938 -63.054688 37.101562 -60.171875 42.675781 -59.402344 L 46.714844 -55.75 Z M 46.714844 -19.417969 "/></g></g></g><g fill="#ffffff" fill-opacity="1"><g transform="translate(420.663468, 462.750114)"><g><path d="M 73.242188 -57.09375 L 57.863281 -56.902344 C 55.171875 -60.941406 52.867188 -64.207031 48.445312 -65.167969 C 42.871094 -66.128906 39.410156 -65.554688 34.027344 -63.4375 C 33.449219 -63.246094 32.871094 -63.246094 32.871094 -62.863281 L 32.871094 0 L 6.34375 0 L 6.34375 -82.472656 L 32.871094 -82.472656 L 32.871094 -75.164062 C 36.527344 -77.089844 40.5625 -78.433594 45.5625 -79.585938 C 53.25 -81.507812 59.59375 -81.703125 65.746094 -76.703125 C 72.089844 -71.511719 72.28125 -65.363281 73.242188 -57.09375 Z M 73.242188 -57.09375 "/></g></g></g><g fill="#ffffff" fill-opacity="1"><g transform="translate(501.596355, 462.750114)"><g><path d="M 4.613281 -64.015625 L 4.613281 0 L 34.027344 0 L 34.027344 -64.015625 Z M 4.035156 -97.464844 L 4.035156 -76.703125 L 34.601562 -76.703125 L 34.601562 -97.464844 Z M 4.035156 -97.464844 "/></g></g></g><g fill="#ffffff" fill-opacity="1"><g transform="translate(542.735666, 462.750114)"><g/></g></g><g fill="#ffffff" fill-opacity="1"><g transform="translate(585.605095, 462.750114)"><g><path d="M 8.074219 -136.105469 L 8.074219 0 L 36.910156 0 L 36.910156 -136.105469 Z M 8.074219 -136.105469 "/></g></g></g><g fill="#ffffff" fill-opacity="1"><g transform="translate(632.511541, 462.750114)"><g><path d="M 23.070312 -42.871094 C 23.070312 -53.058594 31.335938 -61.324219 41.523438 -61.324219 C 51.710938 -61.324219 59.980469 -53.058594 59.980469 -42.871094 C 59.980469 -32.679688 51.710938 -24.414062 41.523438 -24.414062 C 31.335938 -24.414062 23.070312 -32.679688 23.070312 -42.871094 Z M 3.460938 -42.871094 C 3.460938 -20.570312 19.992188 -2.5 40.371094 -2.5 C 60.746094 -2.5 77.28125 -20.570312 77.28125 -42.871094 C 77.28125 -65.167969 60.746094 -83.238281 40.371094 -83.238281 C 19.992188 -83.238281 3.460938 -65.167969 3.460938 -42.871094 Z M 3.460938 -42.871094 "/></g></g></g><g clip-path="url(#id1)"><path fill="#fdf15f" d="M 680.058594 273.335938 L 673.050781 261.300781 C 672.75 260.785156 672.726562 260.15625 672.980469 259.617188 L 678.925781 247.023438 C 679.566406 245.667969 678.371094 244.160156 676.902344 244.480469 L 663.285156 247.421875 C 662.699219 247.546875 662.089844 247.378906 661.65625 246.96875 L 651.511719 237.425781 C 650.417969 236.398438 648.613281 237.070312 648.464844 238.566406 L 647.054688 252.417969 C 646.996094 253.011719 646.644531 253.535156 646.121094 253.824219 L 633.90625 260.515625 C 632.585938 261.238281 632.667969 263.160156 634.046875 263.765625 L 646.792969 269.382812 C 647.339844 269.625 647.734375 270.117188 647.84375 270.703125 L 650.4375 284.382812 C 650.71875 285.859375 652.570312 286.375 653.574219 285.253906 L 662.859375 274.875 C 663.257812 274.429688 663.851562 274.210938 664.441406 274.285156 L 678.261719 276.046875 C 679.753906 276.238281 680.816406 274.632812 680.058594 273.335938 M 645.628906 356.433594 C 630.640625 363.5625 613.871094 367.5625 596.164062 367.5625 C 532.535156 367.5625 480.957031 316.015625 480.957031 252.4375 C 480.957031 188.855469 532.535156 137.3125 596.164062 137.3125 C 613.871094 137.3125 630.640625 141.308594 645.628906 148.441406 C 606.757812 166.9375 579.890625 206.546875 579.890625 252.4375 C 579.890625 298.324219 606.757812 337.9375 645.628906 356.433594 " fill-opacity="1" fill-rule="nonzero"/></g><g clip-path="url(#id2)"><path fill="#fafafa" d="M 481.007812 255.796875 L 481.007812 255.796875 M 480.992188 255.332031 L 480.992188 255.328125 L 480.992188 255.332031 M 480.992188 255.25 C 480.992188 255.253906 480.992188 255.246094 480.992188 255.25 M 480.984375 255.019531 L 480.984375 255.015625 L 480.984375 255.019531 M 480.984375 254.863281 L 480.984375 254.859375 L 480.984375 254.863281 M 480.980469 254.789062 L 480.980469 254.78125 L 480.980469 254.789062 M 480.980469 254.707031 L 480.980469 254.703125 L 480.980469 254.707031 M 480.976562 254.628906 L 480.976562 254.628906 M 480.976562 254.554688 C 480.976562 254.546875 480.976562 254.550781 480.976562 254.542969 C 480.976562 254.546875 480.976562 254.550781 480.976562 254.554688 M 480.976562 254.472656 L 480.976562 254.46875 L 480.976562 254.472656 M 480.972656 254.394531 L 480.972656 254.390625 C 480.972656 254.398438 480.972656 254.390625 480.972656 254.394531 M 480.972656 254.320312 L 480.972656 254.308594 C 480.972656 254.3125 480.972656 254.316406 480.972656 254.320312 M 480.972656 254.242188 C 480.972656 254.238281 480.972656 254.234375 480.972656 254.230469 C 480.972656 254.234375 480.972656 254.234375 480.972656 254.242188 M 480.96875 254.085938 C 480.96875 254.082031 480.96875 254.078125 480.96875 254.078125 C 480.96875 254.082031 480.96875 254.082031 480.96875 254.085938 M 480.96875 254.007812 C 480.96875 254.003906 480.96875 254 480.96875 253.996094 C 480.96875 254 480.96875 254 480.96875 254.007812 M 480.964844 253.925781 L 480.964844 253.921875 L 480.964844 253.925781 M 480.964844 253.851562 C 480.964844 253.847656 480.964844 253.84375 480.964844 253.839844 C 480.964844 253.847656 480.964844 253.847656 480.964844 253.851562 M 480.964844 253.773438 C 480.964844 253.765625 480.964844 253.765625 480.964844 253.761719 C 480.964844 253.765625 480.964844 253.769531 480.964844 253.773438 M 480.964844 253.691406 L 480.964844 253.6875 L 480.964844 253.691406 M 480.964844 253.617188 C 480.964844 253.613281 480.964844 253.609375 480.964844 253.605469 C 480.964844 253.609375 480.964844 253.613281 480.964844 253.617188 M 480.964844 253.539062 C 480.964844 253.535156 480.964844 253.535156 480.964844 253.527344 C 480.964844 253.53125 480.964844 253.535156 480.964844 253.539062 M 480.960938 253.457031 C 480.960938 253.453125 480.960938 253.453125 480.960938 253.449219 C 480.960938 253.453125 480.960938 253.453125 480.960938 253.457031 M 480.960938 253.382812 C 480.960938 253.378906 480.960938 253.375 480.960938 253.375 L 480.960938 253.382812 M 480.960938 253.304688 C 480.960938 253.296875 480.960938 253.296875 480.960938 253.289062 C 480.960938 253.296875 480.960938 253.296875 480.960938 253.304688 M 480.960938 253.222656 C 480.960938 253.21875 480.960938 253.214844 480.960938 253.214844 C 480.960938 253.214844 480.960938 253.21875 480.960938 253.222656 M 480.960938 253.148438 C 480.960938 253.144531 480.960938 253.140625 480.960938 253.136719 C 480.960938 253.144531 480.960938 253.144531 480.960938 253.148438 M 480.960938 253.070312 C 480.960938 253.0625 480.960938 253.0625 480.960938 253.058594 C 480.960938 253.0625 480.960938 253.066406 480.960938 253.070312 M 480.960938 252.988281 C 480.960938 252.984375 480.960938 252.980469 480.960938 252.976562 L 480.960938 252.988281 M 480.960938 252.910156 L 480.960938 252.90625 C 480.960938 252.910156 480.960938 252.90625 480.960938 252.910156 M 480.957031 252.835938 C 480.957031 252.828125 480.957031 252.828125 480.957031 252.820312 C 480.957031 252.824219 480.957031 252.832031 480.957031 252.835938 M 480.957031 252.753906 C 480.957031 252.75 480.957031 252.746094 480.957031 252.742188 C 480.957031 252.746094 480.957031 252.75 480.957031 252.753906 M 480.957031 252.671875 L 480.957031 252.667969 L 480.957031 252.671875 M 480.957031 252.601562 C 480.957031 252.59375 480.957031 252.59375 480.957031 252.585938 C 480.957031 252.59375 480.957031 252.597656 480.957031 252.601562 M 480.957031 252.519531 C 480.957031 252.515625 480.957031 252.511719 480.957031 252.507812 C 480.957031 252.511719 480.957031 252.515625 480.957031 252.519531 M 480.957031 252.367188 C 480.957031 252.359375 480.957031 252.359375 480.957031 252.351562 C 480.957031 252.355469 480.957031 252.363281 480.957031 252.367188 M 480.957031 252.285156 C 480.957031 252.28125 480.957031 252.277344 480.957031 252.273438 C 480.957031 252.277344 480.957031 252.28125 480.957031 252.285156 M 480.957031 252.207031 L 480.957031 252.203125 L 480.957031 252.207031 M 480.957031 252.136719 C 480.957031 252.128906 480.957031 252.128906 480.957031 252.125 C 480.957031 252.125 480.957031 252.132812 480.957031 252.136719 M 480.957031 252.054688 C 480.957031 252.054688 480.957031 252.046875 480.957031 252.042969 C 480.957031 252.046875 480.957031 252.054688 480.957031 252.054688 M 480.960938 251.980469 L 480.960938 251.972656 C 480.960938 251.976562 480.960938 251.976562 480.960938 251.980469 M 480.960938 251.90625 C 480.960938 251.898438 480.960938 251.898438 480.960938 251.894531 C 480.960938 251.894531 480.960938 251.902344 480.960938 251.90625 M 480.960938 251.824219 L 480.960938 251.816406 L 480.960938 251.824219 M 480.960938 251.753906 C 480.960938 251.75 480.960938 251.746094 480.960938 251.742188 C 480.960938 251.746094 480.960938 251.75 480.960938 251.753906 M 480.960938 251.675781 C 480.960938 251.667969 480.960938 251.667969 480.960938 251.660156 C 480.960938 251.667969 480.960938 251.667969 480.960938 251.675781 M 480.960938 251.59375 C 480.960938 251.589844 480.960938 251.589844 480.960938 251.585938 C 480.960938 251.589844 480.960938 251.589844 480.960938 251.59375 M 480.960938 251.519531 C 480.960938 251.519531 480.960938 251.515625 480.960938 251.511719 L 480.960938 251.519531 M 480.960938 251.441406 C 480.960938 251.4375 480.960938 251.4375 480.960938 251.433594 C 480.960938 251.4375 480.960938 251.441406 480.960938 251.441406 M 480.964844 251.363281 L 480.964844 251.359375 C 480.964844 251.363281 480.964844 251.359375 480.964844 251.363281 M 480.964844 251.289062 C 480.964844 251.289062 480.964844 251.285156 480.964844 251.28125 C 480.964844 251.285156 480.964844 251.285156 480.964844 251.289062 M 480.964844 251.210938 C 480.964844 251.210938 480.964844 251.207031 480.964844 251.203125 C 480.964844 251.207031 480.964844 251.210938 480.964844 251.210938 M 480.964844 251.132812 L 480.964844 251.128906 L 480.964844 251.132812 M 480.964844 251.0625 C 480.964844 251.058594 480.964844 251.054688 480.964844 251.050781 C 480.964844 251.054688 480.964844 251.058594 480.964844 251.0625 M 480.964844 250.984375 C 480.964844 250.980469 480.964844 250.972656 480.964844 250.972656 C 480.964844 250.976562 480.964844 250.980469 480.964844 250.984375 M 480.96875 250.828125 C 480.96875 250.828125 480.96875 250.824219 480.96875 250.820312 C 480.96875 250.824219 480.96875 250.824219 480.96875 250.828125 M 480.96875 250.75 L 480.96875 250.746094 C 480.96875 250.75 480.96875 250.746094 480.96875 250.75 M 480.972656 250.597656 L 480.972656 250.59375 C 480.972656 250.597656 480.972656 250.597656 480.972656 250.597656 M 480.972656 250.519531 L 480.972656 250.515625 L 480.972656 250.519531 M 480.976562 250.371094 L 480.976562 250.363281 L 480.976562 250.371094 M 480.976562 250.289062 L 480.976562 250.289062 M 480.980469 250.140625 L 480.980469 250.132812 L 480.980469 250.140625 " fill-opacity="1" fill-rule="nonzero"/></g><g clip-path="url(#id3)"><path fill="#f5ea5c" d="M 567.082031 363.859375 C 518.578125 351.253906 482.5 307.855469 481.007812 255.796875 C 481.003906 255.71875 481 255.640625 481 255.5625 C 481 255.539062 480.996094 255.511719 480.996094 255.484375 C 480.996094 255.433594 480.992188 255.382812 480.992188 255.332031 L 480.992188 255.328125 C 480.992188 255.304688 480.992188 255.277344 480.992188 255.25 C 480.992188 255.246094 480.992188 255.253906 480.992188 255.25 C 480.988281 255.199219 480.988281 255.148438 480.988281 255.09375 C 480.984375 255.070312 480.984375 255.042969 480.984375 255.019531 L 480.984375 255.015625 C 480.984375 254.964844 480.984375 254.914062 480.984375 254.863281 L 480.984375 254.859375 C 480.984375 254.835938 480.980469 254.8125 480.980469 254.789062 L 480.980469 254.78125 C 480.980469 254.753906 480.980469 254.730469 480.980469 254.707031 L 480.980469 254.703125 C 480.980469 254.675781 480.980469 254.65625 480.976562 254.628906 C 480.976562 254.605469 480.976562 254.578125 480.976562 254.554688 C 480.976562 254.550781 480.976562 254.546875 480.976562 254.542969 C 480.976562 254.519531 480.976562 254.496094 480.976562 254.472656 L 480.976562 254.46875 C 480.976562 254.441406 480.972656 254.421875 480.972656 254.394531 C 480.972656 254.390625 480.972656 254.398438 480.972656 254.390625 C 480.972656 254.367188 480.972656 254.347656 480.972656 254.320312 C 480.972656 254.316406 480.972656 254.3125 480.972656 254.308594 C 480.972656 254.285156 480.972656 254.265625 480.972656 254.242188 C 480.972656 254.234375 480.972656 254.234375 480.972656 254.230469 C 480.96875 254.1875 480.96875 254.132812 480.96875 254.085938 C 480.96875 254.082031 480.96875 254.082031 480.96875 254.078125 C 480.96875 254.050781 480.96875 254.03125 480.96875 254.007812 C 480.96875 254 480.96875 254 480.96875 253.996094 C 480.96875 253.972656 480.964844 253.945312 480.964844 253.925781 L 480.964844 253.921875 C 480.964844 253.898438 480.964844 253.875 480.964844 253.851562 C 480.964844 253.847656 480.964844 253.847656 480.964844 253.839844 C 480.964844 253.820312 480.964844 253.796875 480.964844 253.773438 C 480.964844 253.769531 480.964844 253.765625 480.964844 253.761719 C 480.964844 253.738281 480.964844 253.714844 480.964844 253.691406 L 480.964844 253.6875 C 480.964844 253.667969 480.964844 253.640625 480.964844 253.617188 C 480.964844 253.613281 480.964844 253.609375 480.964844 253.605469 C 480.964844 253.582031 480.964844 253.5625 480.964844 253.539062 C 480.964844 253.535156 480.964844 253.53125 480.964844 253.527344 C 480.964844 253.503906 480.964844 253.480469 480.960938 253.457031 C 480.960938 253.453125 480.960938 253.453125 480.960938 253.449219 C 480.960938 253.429688 480.960938 253.402344 480.960938 253.382812 L 480.960938 253.375 C 480.960938 253.351562 480.960938 253.328125 480.960938 253.304688 C 480.960938 253.296875 480.960938 253.296875 480.960938 253.289062 C 480.960938 253.265625 480.960938 253.246094 480.960938 253.222656 C 480.960938 253.21875 480.960938 253.214844 480.960938 253.214844 C 480.960938 253.195312 480.960938 253.167969 480.960938 253.148438 C 480.960938 253.144531 480.960938 253.144531 480.960938 253.136719 C 480.960938 253.117188 480.960938 253.09375 480.960938 253.070312 C 480.960938 253.066406 480.960938 253.0625 480.960938 253.058594 C 480.960938 253.035156 480.960938 253.011719 480.960938 252.988281 L 480.960938 252.976562 C 480.960938 252.957031 480.960938 252.933594 480.960938 252.910156 C 480.960938 252.90625 480.960938 252.910156 480.960938 252.90625 C 480.957031 252.882812 480.957031 252.859375 480.957031 252.835938 C 480.957031 252.832031 480.957031 252.824219 480.957031 252.820312 C 480.957031 252.796875 480.957031 252.777344 480.957031 252.753906 C 480.957031 252.75 480.957031 252.746094 480.957031 252.742188 C 480.957031 252.71875 480.957031 252.695312 480.957031 252.671875 L 480.957031 252.667969 C 480.957031 252.648438 480.957031 252.625 480.957031 252.601562 C 480.957031 252.597656 480.957031 252.59375 480.957031 252.585938 C 480.957031 252.566406 480.957031 252.542969 480.957031 252.519531 C 480.957031 252.515625 480.957031 252.511719 480.957031 252.507812 C 480.957031 252.484375 480.957031 252.460938 480.957031 252.4375 C 480.957031 252.414062 480.957031 252.390625 480.957031 252.367188 C 480.957031 252.363281 480.957031 252.355469 480.957031 252.351562 C 480.957031 252.332031 480.957031 252.308594 480.957031 252.285156 C 480.957031 252.28125 480.957031 252.277344 480.957031 252.273438 C 480.957031 252.253906 480.957031 252.230469 480.957031 252.207031 L 480.957031 252.203125 C 480.957031 252.183594 480.957031 252.160156 480.957031 252.136719 C 480.957031 252.132812 480.957031 252.125 480.957031 252.125 C 480.957031 252.101562 480.957031 252.078125 480.957031 252.054688 C 480.957031 252.054688 480.957031 252.046875 480.957031 252.042969 C 480.957031 252.023438 480.957031 252.003906 480.960938 251.980469 C 480.960938 251.976562 480.960938 251.976562 480.960938 251.972656 C 480.960938 251.949219 480.960938 251.925781 480.960938 251.90625 C 480.960938 251.902344 480.960938 251.894531 480.960938 251.894531 C 480.960938 251.871094 480.960938 251.847656 480.960938 251.824219 L 480.960938 251.816406 C 480.960938 251.796875 480.960938 251.773438 480.960938 251.753906 C 480.960938 251.75 480.960938 251.746094 480.960938 251.742188 C 480.960938 251.71875 480.960938 251.699219 480.960938 251.675781 C 480.960938 251.667969 480.960938 251.667969 480.960938 251.660156 C 480.960938 251.640625 480.960938 251.617188 480.960938 251.59375 C 480.960938 251.589844 480.960938 251.589844 480.960938 251.585938 C 480.960938 251.566406 480.960938 251.539062 480.960938 251.519531 L 480.960938 251.511719 C 480.960938 251.488281 480.960938 251.464844 480.960938 251.441406 C 480.960938 251.441406 480.960938 251.4375 480.960938 251.433594 C 480.964844 251.410156 480.964844 251.386719 480.964844 251.363281 C 480.964844 251.359375 480.964844 251.363281 480.964844 251.359375 C 480.964844 251.335938 480.964844 251.3125 480.964844 251.289062 C 480.964844 251.285156 480.964844 251.285156 480.964844 251.28125 C 480.964844 251.257812 480.964844 251.238281 480.964844 251.210938 C 480.964844 251.210938 480.964844 251.207031 480.964844 251.203125 C 480.964844 251.179688 480.964844 251.15625 480.964844 251.132812 L 480.964844 251.128906 C 480.964844 251.105469 480.964844 251.082031 480.964844 251.0625 C 480.964844 251.058594 480.964844 251.054688 480.964844 251.050781 C 480.964844 251.027344 480.964844 251.007812 480.964844 250.984375 C 480.964844 250.980469 480.964844 250.976562 480.964844 250.972656 C 480.964844 250.925781 480.96875 250.875 480.96875 250.828125 C 480.96875 250.824219 480.96875 250.824219 480.96875 250.820312 C 480.96875 250.796875 480.96875 250.777344 480.96875 250.75 C 480.96875 250.746094 480.96875 250.75 480.96875 250.746094 C 480.96875 250.691406 480.972656 250.648438 480.972656 250.597656 C 480.972656 250.597656 480.972656 250.597656 480.972656 250.59375 C 480.972656 250.566406 480.972656 250.546875 480.972656 250.519531 L 480.972656 250.515625 C 480.972656 250.464844 480.976562 250.417969 480.976562 250.371094 L 480.976562 250.363281 C 480.976562 250.335938 480.976562 250.316406 480.976562 250.289062 C 480.976562 250.238281 480.980469 250.1875 480.980469 250.140625 L 480.980469 250.132812 C 480.980469 250.058594 480.984375 249.984375 480.984375 249.90625 C 482.089844 198.5625 516.839844 155.503906 564.078125 141.839844 C 525.222656 160.347656 497.554688 206.5625 497.554688 252.4375 C 497.554688 298.320312 528.21875 345.359375 567.082031 363.859375 " fill-opacity="1" fill-rule="nonzero"/></g><path fill="#f36080" d="M 670.34375 251.167969 C 669.84375 250.089844 668.566406 249.621094 667.488281 250.121094 C 666.410156 250.621094 665.945312 251.894531 666.441406 252.96875 C 666.941406 254.046875 668.21875 254.515625 669.296875 254.015625 C 670.371094 253.519531 670.84375 252.242188 670.34375 251.167969 Z M 645.089844 259.972656 C 644.011719 260.46875 643.542969 261.746094 644.042969 262.824219 C 644.539062 263.898438 645.820312 264.367188 646.894531 263.871094 C 647.972656 263.371094 648.441406 262.09375 647.941406 261.019531 C 647.441406 259.941406 646.167969 259.472656 645.089844 259.972656 Z M 562.785156 223.605469 C 559.722656 223.605469 557.238281 226.085938 557.238281 229.148438 C 557.238281 232.207031 559.722656 234.6875 562.785156 234.6875 C 565.84375 234.6875 568.328125 232.207031 568.328125 229.148438 C 568.328125 226.085938 565.84375 223.605469 562.785156 223.605469 Z M 506.941406 230.011719 C 506.941406 233.074219 504.460938 235.554688 501.398438 235.554688 C 498.335938 235.554688 495.851562 233.074219 495.851562 230.011719 C 495.851562 226.953125 498.335938 224.472656 501.398438 224.472656 C 504.460938 224.472656 506.941406 226.953125 506.941406 230.011719 " fill-opacity="1" fill-rule="nonzero"/><g clip-path="url(#id4)"><path fill="#100f0d" d="M 526.878906 280.941406 C 528.273438 280.390625 529.277344 279.644531 529.128906 279.261719 C 528.996094 278.90625 527.933594 278.984375 526.671875 279.40625 C 527.421875 278.515625 527.816406 277.703125 527.570312 277.464844 C 527.3125 277.210938 526.453125 277.652344 525.535156 278.476562 C 525.671875 277.179688 525.523438 276.152344 525.152344 276.097656 C 524.738281 276.03125 524.207031 277.210938 523.96875 278.726562 C 523.871094 279.355469 523.839844 279.945312 523.863281 280.421875 C 512.863281 285.730469 500.015625 283.980469 492.503906 276.105469 C 485.503906 268.761719 485.832031 258.9375 486.097656 256.105469 C 486.144531 255.597656 485.773438 255.148438 485.265625 255.101562 C 484.757812 255.054688 484.3125 255.425781 484.261719 255.929688 C 483.976562 258.964844 483.632812 269.46875 491.167969 277.375 C 496.136719 282.585938 503.257812 285.3125 510.734375 285.3125 C 515.371094 285.308594 520.144531 284.257812 524.628906 282.101562 C 525.117188 282.265625 525.792969 282.390625 526.546875 282.4375 C 528.082031 282.535156 529.347656 282.273438 529.375 281.855469 C 529.398438 281.457031 528.300781 281.0625 526.878906 280.941406 Z M 670.632812 252.113281 C 670.269531 252.003906 669.878906 252.207031 669.769531 252.574219 C 669.652344 252.964844 669.390625 253.285156 669.027344 253.476562 C 668.667969 253.671875 668.253906 253.710938 667.863281 253.59375 C 667.058594 253.351562 666.597656 252.496094 666.84375 251.691406 C 666.953125 251.324219 666.75 250.9375 666.382812 250.828125 C 666.019531 250.71875 665.628906 250.921875 665.519531 251.289062 C 665.15625 252.496094 665.617188 253.757812 666.578125 254.46875 C 665.761719 256.257812 664.054688 259.046875 660.8125 260.964844 C 655.820312 263.917969 650.582031 262.742188 648.726562 262.167969 C 648.835938 260.972656 648.195312 259.785156 647.042969 259.257812 C 646.695312 259.097656 646.285156 259.25 646.125 259.597656 C 645.964844 259.945312 646.121094 260.355469 646.46875 260.511719 C 647.234375 260.863281 647.574219 261.773438 647.222656 262.539062 C 646.871094 263.304688 645.964844 263.644531 645.195312 263.292969 C 644.847656 263.132812 644.441406 263.289062 644.28125 263.632812 C 644.121094 263.980469 644.273438 264.390625 644.621094 264.550781 C 645.011719 264.726562 645.421875 264.8125 645.828125 264.8125 C 646.800781 264.8125 647.734375 264.324219 648.28125 263.476562 C 649.277344 263.785156 651.207031 264.265625 653.570312 264.265625 C 655.945312 264.265625 658.761719 263.78125 661.515625 262.152344 C 665.097656 260.039062 666.96875 256.953125 667.855469 255.003906 C 668.007812 255.027344 668.15625 255.042969 668.3125 255.042969 C 668.785156 255.039062 669.253906 254.925781 669.679688 254.695312 C 670.367188 254.328125 670.867188 253.71875 671.09375 252.972656 C 671.203125 252.609375 670.996094 252.222656 670.632812 252.113281 Z M 660.769531 254.664062 C 661.085938 254.664062 661.402344 254.605469 661.714844 254.492188 C 663.117188 253.96875 663.832031 252.402344 663.308594 251.003906 C 663.175781 250.644531 662.777344 250.464844 662.421875 250.597656 C 662.0625 250.730469 661.882812 251.128906 662.015625 251.484375 C 662.273438 252.171875 661.921875 252.941406 661.234375 253.195312 C 660.546875 253.449219 659.777344 253.101562 659.519531 252.414062 C 659.386719 252.058594 658.988281 251.875 658.628906 252.007812 C 658.273438 252.144531 658.09375 252.539062 658.226562 252.898438 C 658.628906 253.988281 659.667969 254.664062 660.769531 254.664062 Z M 650.25 258.582031 C 650.5625 258.582031 650.882812 258.527344 651.195312 258.410156 C 652.597656 257.886719 653.3125 256.324219 652.789062 254.921875 C 652.65625 254.5625 652.253906 254.382812 651.898438 254.515625 C 651.542969 254.652344 651.359375 255.046875 651.492188 255.402344 C 651.75 256.089844 651.398438 256.859375 650.710938 257.117188 C 650.019531 257.371094 649.253906 257.019531 648.996094 256.335938 C 648.863281 255.976562 648.464844 255.792969 648.109375 255.925781 C 647.75 256.0625 647.570312 256.457031 647.703125 256.816406 C 648.109375 257.90625 649.148438 258.582031 650.25 258.582031 Z M 675.101562 248.546875 C 674.742188 248.183594 674.160156 248.183594 673.796875 248.542969 C 673.4375 248.902344 673.4375 249.484375 673.796875 249.84375 C 674.507812 250.558594 680.699219 257.058594 678.984375 265.179688 C 678.496094 267.484375 677.445312 269.617188 675.871094 271.539062 C 675.503906 271.535156 675.015625 271.601562 674.488281 271.75 C 673.464844 272.027344 672.699219 272.480469 672.777344 272.757812 C 672.847656 273.019531 673.652344 273.035156 674.605469 272.796875 C 673.820312 273.464844 673.332031 274.175781 673.511719 274.390625 C 673.683594 274.589844 674.355469 274.304688 675.082031 273.75 C 674.792969 274.496094 674.71875 275.109375 674.929688 275.214844 C 675.15625 275.320312 675.613281 274.839844 676.03125 274.101562 C 676.226562 274.976562 676.558594 275.609375 676.8125 275.566406 C 677.09375 275.515625 677.175781 274.628906 676.992188 273.589844 C 676.96875 273.445312 676.9375 273.308594 676.90625 273.175781 C 678.863281 270.9375 680.207031 268.308594 680.789062 265.5625 C 682.703125 256.492188 675.886719 249.332031 675.101562 248.546875 Z M 636.167969 262.5 C 635.667969 262.472656 635.226562 262.863281 635.199219 263.371094 C 635.144531 264.375 634.464844 273.328125 627.28125 277.496094 C 625.515625 278.519531 623.558594 279.144531 621.449219 279.371094 C 620.949219 277.9375 618.511719 277.558594 615.878906 277.984375 C 613.089844 278.441406 611.144531 279.628906 611.414062 281.289062 C 611.4375 281.4375 611.484375 281.578125 611.546875 281.71875 C 601.308594 285.355469 590.097656 283.253906 583.277344 276.105469 C 576.277344 268.761719 576.605469 258.9375 576.871094 256.105469 C 576.921875 255.597656 576.546875 255.148438 576.042969 255.101562 C 575.535156 255.054688 575.085938 255.425781 575.039062 255.929688 C 574.753906 258.964844 574.40625 269.46875 581.945312 277.375 C 586.914062 282.585938 594.03125 285.3125 601.507812 285.3125 C 605.355469 285.308594 609.300781 284.585938 613.09375 283.109375 C 614.109375 283.550781 615.488281 283.710938 616.957031 283.476562 C 618.828125 283.171875 620.359375 282.296875 621.085938 281.257812 C 623.652344 281.054688 626.09375 280.316406 628.207031 279.085938 C 636.226562 274.433594 636.980469 264.578125 637.039062 263.46875 C 637.066406 262.960938 636.675781 262.527344 636.167969 262.5 Z M 566.382812 232.078125 C 565.59375 233.035156 564.480469 233.625 563.246094 233.746094 C 562.007812 233.863281 560.804688 233.492188 559.847656 232.703125 C 557.871094 231.074219 557.59375 228.144531 559.222656 226.171875 C 559.546875 225.777344 559.492188 225.199219 559.097656 224.875 C 558.707031 224.550781 558.125 224.605469 557.800781 225 C 555.867188 227.34375 555.867188 230.648438 557.601562 232.988281 C 554.035156 236.402344 547.046875 241.71875 537.035156 243.105469 C 521.585938 245.25 510 236.394531 506.769531 233.585938 C 507.429688 232.605469 507.8125 231.460938 507.859375 230.25 C 507.925781 228.519531 507.316406 226.867188 506.140625 225.597656 C 505.796875 225.222656 505.214844 225.199219 504.839844 225.542969 C 504.464844 225.890625 504.441406 226.472656 504.785156 226.847656 C 506.523438 228.722656 506.410156 231.664062 504.527344 233.402344 C 503.617188 234.242188 502.433594 234.679688 501.195312 234.632812 C 499.957031 234.582031 498.808594 234.054688 497.964844 233.144531 C 497.621094 232.769531 497.039062 232.746094 496.664062 233.089844 C 496.289062 233.4375 496.265625 234.019531 496.613281 234.394531 C 497.789062 235.664062 499.390625 236.402344 501.121094 236.472656 C 501.207031 236.476562 501.296875 236.476562 501.382812 236.476562 C 502.914062 236.476562 504.371094 235.9375 505.542969 234.953125 C 508.550781 237.574219 518.574219 245.28125 532.257812 245.28125 C 533.886719 245.28125 535.566406 245.171875 537.289062 244.933594 C 547.824219 243.46875 555.167969 237.875 558.902344 234.292969 C 560.03125 235.148438 561.382812 235.609375 562.789062 235.609375 C 563 235.609375 563.210938 235.597656 563.421875 235.578125 C 565.144531 235.414062 566.703125 234.585938 567.804688 233.25 C 568.128906 232.859375 568.074219 232.277344 567.679688 231.953125 C 567.289062 231.628906 566.707031 231.6875 566.382812 232.078125 Z M 545.308594 227.402344 C 545.390625 227.402344 545.46875 227.40625 545.550781 227.40625 C 547.0625 227.40625 548.496094 226.847656 549.609375 225.816406 C 550.785156 224.730469 551.46875 223.253906 551.53125 221.65625 C 551.550781 221.148438 551.15625 220.71875 550.648438 220.699219 C 550.136719 220.675781 549.710938 221.074219 549.691406 221.582031 C 549.648438 222.6875 549.171875 223.710938 548.359375 224.460938 C 547.546875 225.214844 546.488281 225.605469 545.382812 225.558594 C 543.097656 225.46875 541.3125 223.539062 541.402344 221.253906 C 541.421875 220.746094 541.027344 220.320312 540.515625 220.296875 C 540 220.28125 539.582031 220.675781 539.5625 221.183594 C 539.496094 222.78125 540.058594 224.308594 541.148438 225.480469 C 542.230469 226.65625 543.710938 227.335938 545.308594 227.402344 Z M 511.4375 220.074219 C 511.457031 219.5625 511.886719 219.164062 512.394531 219.1875 C 512.902344 219.210938 513.300781 219.636719 513.28125 220.144531 C 513.191406 222.429688 514.976562 224.359375 517.257812 224.449219 C 518.367188 224.496094 519.425781 224.105469 520.238281 223.351562 C 521.050781 222.601562 521.523438 221.578125 521.566406 220.472656 C 521.585938 219.964844 522.011719 219.566406 522.523438 219.589844 C 523.03125 219.609375 523.429688 220.039062 523.410156 220.542969 C 523.34375 222.144531 522.664062 223.621094 521.488281 224.707031 C 520.375 225.734375 518.9375 226.296875 517.429688 226.296875 C 517.347656 226.296875 517.269531 226.292969 517.1875 226.292969 C 513.886719 226.160156 511.308594 223.371094 511.4375 220.074219 " fill-opacity="1" fill-rule="nonzero"/></g><path fill="#f5ea5c" d="M 579.742188 360.257812 C 576.820312 360.257812 573.882812 359.277344 571.453125 357.273438 C 565.898438 352.699219 565.109375 344.484375 569.695312 338.933594 C 572.273438 335.8125 576 334.199219 579.757812 334.199219 C 582.679688 334.199219 585.621094 335.175781 588.050781 337.175781 C 593.601562 341.757812 594.390625 349.96875 589.804688 355.519531 C 587.226562 358.640625 583.5 360.257812 579.742188 360.257812 M 554.074219 346.914062 C 552.613281 346.914062 551.144531 346.425781 549.929688 345.425781 C 547.152344 343.136719 546.757812 339.027344 549.050781 336.253906 C 550.339844 334.691406 552.203125 333.886719 554.082031 333.886719 C 555.542969 333.886719 557.015625 334.371094 558.226562 335.375 C 561.003906 337.664062 561.398438 341.769531 559.109375 344.546875 C 557.816406 346.105469 555.953125 346.914062 554.074219 346.914062 M 563.34375 327.851562 C 562.820312 327.851562 562.296875 327.679688 561.863281 327.320312 C 560.875 326.503906 560.734375 325.039062 561.550781 324.050781 C 562.011719 323.492188 562.675781 323.207031 563.34375 323.207031 C 563.867188 323.207031 564.390625 323.378906 564.824219 323.734375 C 565.816406 324.554688 565.957031 326.015625 565.136719 327.007812 C 564.675781 327.5625 564.011719 327.851562 563.34375 327.851562 M 578.195312 196.859375 C 574.59375 196.859375 571.675781 193.941406 571.675781 190.34375 C 571.675781 186.746094 574.59375 183.832031 578.195312 183.832031 C 581.792969 183.832031 584.714844 186.746094 584.714844 190.34375 C 584.714844 193.941406 581.792969 196.859375 578.195312 196.859375 " fill-opacity="1" fill-rule="nonzero"/><path fill="#fafafa" d="M 597.433594 191.351562 C 597.429688 191.351562 597.429688 191.351562 597.429688 191.351562 C 601.886719 184.25 607.101562 177.664062 612.957031 171.71875 C 612.957031 171.71875 612.957031 171.71875 612.957031 171.722656 C 607.101562 177.667969 601.890625 184.25 597.433594 191.351562 " fill-opacity="1" fill-rule="nonzero"/><path fill="#f5ea5c" d="M 597.429688 191.351562 C 592.664062 189.414062 589.304688 184.742188 589.304688 179.28125 C 589.304688 172.085938 595.140625 166.253906 602.34375 166.253906 C 606.71875 166.253906 610.589844 168.410156 612.957031 171.71875 C 607.101562 177.664062 601.886719 184.25 597.429688 191.351562 M 575.867188 175.304688 C 574.585938 175.304688 573.542969 174.265625 573.542969 172.980469 C 573.542969 171.699219 574.585938 170.65625 575.867188 170.65625 C 577.152344 170.65625 578.195312 171.699219 578.195312 172.980469 C 578.195312 174.265625 577.152344 175.304688 575.867188 175.304688 " fill-opacity="1" fill-rule="nonzero"/><path fill="#fbc810" d="M 172.914062 282.859375 C 172.914062 241.660156 206.308594 208.261719 247.507812 208.261719 C 288.710938 208.261719 322.109375 241.660156 322.109375 282.859375 C 322.109375 324.054688 288.710938 357.457031 247.507812 357.457031 C 206.308594 357.457031 172.914062 324.054688 172.914062 282.859375 " fill-opacity="1" fill-rule="nonzero"/><path fill="#f7dff1" d="M 247.507812 357.457031 C 247.488281 357.457031 247.476562 357.457031 247.453125 357.457031 C 247.472656 357.457031 247.488281 357.457031 247.507812 357.457031 C 288.710938 357.457031 322.109375 324.054688 322.109375 282.859375 C 322.109375 324.054688 288.710938 357.457031 247.507812 357.457031 M 247.4375 357.457031 C 247.425781 357.457031 247.410156 357.457031 247.394531 357.457031 C 247.414062 357.457031 247.425781 357.457031 247.4375 357.457031 M 247.382812 357.457031 C 247.363281 357.457031 247.351562 357.457031 247.332031 357.457031 C 247.351562 357.457031 247.363281 357.457031 247.382812 357.457031 M 247.328125 357.457031 C 247.3125 357.457031 247.289062 357.457031 247.273438 357.457031 C 247.289062 357.457031 247.308594 357.457031 247.328125 357.457031 M 247.257812 357.457031 C 247.242188 357.457031 247.230469 357.457031 247.214844 357.457031 C 247.234375 357.457031 247.242188 357.457031 247.257812 357.457031 M 247.199219 357.457031 C 247.1875 357.457031 247.171875 357.457031 247.152344 357.457031 C 247.171875 357.457031 247.1875 357.457031 247.199219 357.457031 M 247.144531 357.457031 C 247.128906 357.457031 247.105469 357.457031 247.09375 357.457031 C 247.105469 357.457031 247.125 357.457031 247.144531 357.457031 M 247.074219 357.457031 C 247.0625 357.457031 247.050781 357.457031 247.039062 357.457031 C 247.050781 357.457031 247.0625 357.457031 247.074219 357.457031 M 247.015625 357.457031 C 247.003906 357.457031 246.992188 357.457031 246.980469 357.457031 C 246.996094 357.457031 247.003906 357.457031 247.015625 357.457031 M 246.960938 357.457031 C 246.945312 357.457031 246.929688 357.457031 246.910156 357.457031 C 246.925781 357.457031 246.949219 357.457031 246.960938 357.457031 M 246.894531 357.457031 C 246.878906 357.457031 246.871094 357.457031 246.855469 357.457031 C 246.871094 357.457031 246.878906 357.457031 246.894531 357.457031 M 246.832031 357.453125 C 246.824219 357.453125 246.8125 357.453125 246.804688 357.453125 C 246.8125 357.453125 246.824219 357.453125 246.832031 357.453125 M 246.78125 357.453125 C 246.761719 357.453125 246.75 357.453125 246.734375 357.453125 C 246.75 357.453125 246.761719 357.453125 246.78125 357.453125 M 246.707031 357.453125 C 246.695312 357.453125 246.6875 357.453125 246.679688 357.453125 C 246.6875 357.453125 246.695312 357.453125 246.707031 357.453125 M 246.648438 357.453125 C 246.640625 357.453125 246.632812 357.453125 246.628906 357.453125 C 246.632812 357.453125 246.640625 357.453125 246.648438 357.453125 M 246.59375 357.453125 C 246.589844 357.453125 246.585938 357.453125 246.574219 357.453125 C 246.585938 357.453125 246.589844 357.453125 246.59375 357.453125 M 246.515625 357.453125 C 246.503906 357.453125 246.503906 357.453125 246.496094 357.453125 C 246.5 357.453125 246.511719 357.453125 246.515625 357.453125 M 246.464844 357.453125 C 246.460938 357.453125 246.449219 357.453125 246.445312 357.453125 C 246.449219 357.453125 246.460938 357.453125 246.464844 357.453125 M 246.414062 357.445312 C 246.40625 357.445312 246.402344 357.445312 246.398438 357.445312 C 246.402344 357.445312 246.40625 357.445312 246.414062 357.445312 M 246.277344 357.445312 C 246.273438 357.445312 246.273438 357.445312 246.269531 357.445312 C 246.273438 357.445312 246.273438 357.445312 246.277344 357.445312 M 322.109375 282.859375 C 322.109375 282.84375 322.109375 282.824219 322.109375 282.804688 C 322.109375 282.824219 322.109375 282.835938 322.109375 282.859375 M 322.109375 282.789062 C 322.109375 282.773438 322.109375 282.761719 322.109375 282.75 C 322.109375 282.761719 322.109375 282.777344 322.109375 282.789062 M 322.109375 282.734375 C 322.109375 282.714844 322.109375 282.699219 322.109375 282.679688 C 322.109375 282.699219 322.109375 282.714844 322.109375 282.734375 M 322.109375 282.664062 C 322.109375 282.65625 322.109375 282.636719 322.109375 282.628906 C 322.109375 282.640625 322.109375 282.652344 322.109375 282.664062 M 322.109375 282.605469 C 322.109375 282.59375 322.109375 282.585938 322.109375 282.574219 C 322.109375 282.585938 322.109375 282.59375 322.109375 282.605469 M 322.109375 282.539062 C 322.109375 282.523438 322.109375 282.519531 322.109375 282.507812 C 322.109375 282.515625 322.109375 282.53125 322.109375 282.539062 M 322.105469 282.472656 C 322.105469 282.46875 322.105469 282.464844 322.105469 282.460938 C 322.105469 282.464844 322.105469 282.46875 322.105469 282.472656 " fill-opacity="1" fill-rule="nonzero"/><path fill="#f1ae0d" d="M 247.507812 357.457031 C 247.488281 357.457031 247.472656 357.457031 247.453125 357.457031 C 247.453125 357.457031 247.441406 357.457031 247.4375 357.457031 C 247.425781 357.457031 247.414062 357.457031 247.394531 357.457031 C 247.390625 357.457031 247.386719 357.457031 247.382812 357.457031 C 247.363281 357.457031 247.351562 357.457031 247.332031 357.457031 C 247.332031 357.457031 247.332031 357.457031 247.328125 357.457031 C 247.308594 357.457031 247.289062 357.457031 247.273438 357.457031 C 247.269531 357.457031 247.261719 357.457031 247.257812 357.457031 C 247.242188 357.457031 247.234375 357.457031 247.214844 357.457031 C 247.210938 357.457031 247.207031 357.457031 247.199219 357.457031 C 247.1875 357.457031 247.171875 357.457031 247.152344 357.457031 C 247.152344 357.457031 247.148438 357.457031 247.144531 357.457031 C 247.125 357.457031 247.105469 357.457031 247.09375 357.457031 C 247.085938 357.457031 247.078125 357.457031 247.074219 357.457031 C 247.0625 357.457031 247.050781 357.457031 247.039062 357.457031 C 247.03125 357.457031 247.023438 357.457031 247.015625 357.457031 C 247.003906 357.457031 246.996094 357.457031 246.980469 357.457031 C 246.976562 357.457031 246.96875 357.457031 246.960938 357.457031 C 246.949219 357.457031 246.925781 357.457031 246.910156 357.457031 C 246.902344 357.457031 246.898438 357.457031 246.894531 357.457031 C 246.878906 357.457031 246.871094 357.457031 246.855469 357.457031 C 246.851562 357.453125 246.839844 357.453125 246.832031 357.453125 C 246.824219 357.453125 246.8125 357.453125 246.804688 357.453125 C 246.796875 357.453125 246.785156 357.453125 246.78125 357.453125 C 246.761719 357.453125 246.75 357.453125 246.734375 357.453125 C 246.726562 357.453125 246.714844 357.453125 246.707031 357.453125 C 246.695312 357.453125 246.6875 357.453125 246.679688 357.453125 C 246.667969 357.453125 246.660156 357.453125 246.648438 357.453125 C 246.640625 357.453125 246.632812 357.453125 246.628906 357.453125 C 246.613281 357.453125 246.605469 357.453125 246.59375 357.453125 C 246.589844 357.453125 246.585938 357.453125 246.574219 357.453125 C 246.550781 357.453125 246.535156 357.453125 246.515625 357.453125 C 246.511719 357.453125 246.5 357.453125 246.496094 357.453125 C 246.488281 357.453125 246.476562 357.453125 246.464844 357.453125 C 246.460938 357.453125 246.449219 357.453125 246.445312 357.453125 C 246.4375 357.445312 246.425781 357.445312 246.414062 357.445312 C 246.40625 357.445312 246.402344 357.445312 246.398438 357.445312 C 246.359375 357.445312 246.316406 357.445312 246.277344 357.445312 C 246.273438 357.445312 246.273438 357.445312 246.269531 357.445312 C 246.253906 357.445312 246.238281 357.445312 246.226562 357.445312 C 215.441406 356.925781 189.214844 337.75 178.320312 310.746094 C 191.605469 331.289062 214.699219 344.898438 240.988281 344.898438 C 282.191406 344.898438 315.585938 311.5 315.585938 270.300781 C 315.585938 260.4375 313.65625 251.03125 310.175781 242.414062 C 317.648438 253.964844 322.03125 267.695312 322.105469 282.460938 C 322.105469 282.464844 322.105469 282.46875 322.105469 282.472656 C 322.105469 282.484375 322.109375 282.496094 322.109375 282.507812 C 322.109375 282.519531 322.109375 282.523438 322.109375 282.539062 C 322.109375 282.554688 322.109375 282.5625 322.109375 282.574219 C 322.109375 282.585938 322.109375 282.59375 322.109375 282.605469 C 322.109375 282.613281 322.109375 282.621094 322.109375 282.628906 C 322.109375 282.636719 322.109375 282.65625 322.109375 282.664062 C 322.109375 282.667969 322.109375 282.675781 322.109375 282.679688 C 322.109375 282.699219 322.109375 282.714844 322.109375 282.734375 C 322.109375 282.738281 322.109375 282.742188 322.109375 282.75 C 322.109375 282.761719 322.109375 282.773438 322.109375 282.789062 C 322.109375 282.796875 322.109375 282.800781 322.109375 282.804688 C 322.109375 282.824219 322.109375 282.84375 322.109375 282.859375 C 322.109375 324.054688 288.710938 357.457031 247.507812 357.457031 " fill-opacity="1" fill-rule="nonzero"/><path fill="#5c363c" d="M 279.289062 253.015625 C 278.015625 253.015625 276.992188 254.039062 276.992188 255.3125 L 276.992188 255.378906 C 276.992188 257.699219 275.097656 259.59375 272.644531 259.59375 C 270.324219 259.59375 268.433594 257.699219 268.433594 255.378906 L 268.433594 255.3125 C 268.433594 254.039062 267.40625 253.015625 266.136719 253.015625 C 264.863281 253.015625 263.835938 254.039062 263.835938 255.3125 L 263.835938 255.378906 C 263.835938 260.238281 267.785156 264.1875 272.777344 264.1875 C 277.636719 264.1875 281.589844 260.238281 281.589844 255.378906 L 281.589844 255.3125 C 281.589844 254.039062 280.558594 253.015625 279.289062 253.015625 " fill-opacity="1" fill-rule="nonzero"/><path fill="#5c363c" d="M 219.480469 253.015625 C 218.207031 253.015625 217.179688 254.039062 217.179688 255.3125 L 217.179688 255.378906 C 217.179688 257.699219 215.292969 259.59375 212.835938 259.59375 C 210.511719 259.59375 208.625 257.699219 208.625 255.378906 L 208.625 255.3125 C 208.625 254.039062 207.597656 253.015625 206.328125 253.015625 C 205.058594 253.015625 204.027344 254.039062 204.027344 255.3125 L 204.027344 255.378906 C 204.027344 260.238281 207.980469 264.1875 212.972656 264.1875 C 217.828125 264.1875 221.777344 260.238281 221.777344 255.378906 L 221.777344 255.3125 C 221.777344 254.039062 220.75 253.015625 219.480469 253.015625 " fill-opacity="1" fill-rule="nonzero"/><path fill="#f1ae0d" d="M 208.144531 276.335938 C 202.839844 276.335938 198.539062 273.929688 198.539062 270.96875 C 198.539062 268 202.839844 265.597656 208.144531 265.597656 C 213.445312 265.597656 217.746094 268 217.746094 270.96875 C 217.746094 273.929688 213.445312 276.335938 208.144531 276.335938 " fill-opacity="1" fill-rule="nonzero"/><path fill="#f1ae0d" d="M 275.328125 276.335938 C 270.019531 276.335938 265.722656 273.929688 265.722656 270.96875 C 265.722656 268 270.019531 265.597656 275.328125 265.597656 C 280.628906 265.597656 284.933594 268 284.933594 270.96875 C 284.933594 273.929688 280.628906 276.335938 275.328125 276.335938 " fill-opacity="1" fill-rule="nonzero"/><path fill="#5c363c" d="M 241.054688 284.144531 C 240.160156 284.144531 239.28125 284.011719 238.453125 283.753906 C 234.980469 282.753906 231.871094 279.691406 229.5 274.910156 C 229.054688 274.003906 228.636719 273.039062 228.261719 272.042969 C 227.796875 270.832031 228.414062 269.472656 229.625 269.015625 C 230.835938 268.558594 232.195312 269.171875 232.652344 270.382812 C 232.972656 271.242188 233.328125 272.066406 233.710938 272.832031 C 235.449219 276.34375 237.609375 278.625 239.796875 279.257812 C 240.527344 279.480469 241.265625 279.5 241.960938 279.347656 C 242.300781 279.28125 242.589844 279.191406 242.867188 279.074219 C 245.289062 278.0625 247.648438 275.011719 249.335938 270.710938 C 249.8125 269.5 251.171875 268.910156 252.382812 269.386719 C 253.589844 269.855469 254.179688 271.222656 253.710938 272.425781 C 251.492188 278.0625 248.371094 281.859375 244.683594 283.40625 C 244.117188 283.644531 243.527344 283.820312 242.925781 283.945312 C 242.34375 284.074219 241.703125 284.144531 241.054688 284.144531 " fill-opacity="1" fill-rule="nonzero"/><g clip-path="url(#id5)"><path fill="#fbc810" d="M 247.507812 198.324219 C 246.210938 198.324219 245.164062 197.269531 245.164062 195.972656 L 245.164062 163.339844 C 245.164062 162.039062 246.210938 160.988281 247.507812 160.988281 C 248.804688 160.988281 249.859375 162.039062 249.859375 163.339844 L 249.859375 195.972656 C 249.859375 197.269531 248.804688 198.324219 247.507812 198.324219 " fill-opacity="1" fill-rule="nonzero"/></g><path fill="#fbc810" d="M 204.070312 209.960938 C 203.257812 209.960938 202.46875 209.542969 202.035156 208.792969 L 185.714844 180.519531 C 185.070312 179.402344 185.449219 177.964844 186.574219 177.316406 C 187.699219 176.664062 189.132812 177.050781 189.78125 178.175781 L 206.101562 206.441406 C 206.75 207.566406 206.363281 209 205.246094 209.648438 C 204.871094 209.859375 204.46875 209.960938 204.070312 209.960938 " fill-opacity="1" fill-rule="nonzero"/><path fill="#fbc810" d="M 172.265625 241.765625 C 171.867188 241.765625 171.460938 241.664062 171.09375 241.449219 L 142.828125 225.128906 C 141.703125 224.480469 141.320312 223.046875 141.964844 221.921875 C 142.613281 220.796875 144.050781 220.417969 145.171875 221.0625 L 173.4375 237.382812 C 174.5625 238.03125 174.945312 239.46875 174.300781 240.59375 C 173.867188 241.34375 173.074219 241.765625 172.265625 241.765625 " fill-opacity="1" fill-rule="nonzero"/><g clip-path="url(#id6)"><path fill="#fbc810" d="M 160.625 285.207031 L 127.984375 285.207031 C 126.691406 285.207031 125.640625 284.15625 125.640625 282.859375 C 125.640625 281.5625 126.691406 280.511719 127.984375 280.511719 L 160.625 280.511719 C 161.921875 280.511719 162.976562 281.5625 162.976562 282.859375 C 162.976562 284.15625 161.921875 285.207031 160.625 285.207031 " fill-opacity="1" fill-rule="nonzero"/></g><path fill="#fbc810" d="M 144.003906 344.96875 C 143.191406 344.96875 142.398438 344.546875 141.964844 343.792969 C 141.320312 342.671875 141.703125 341.234375 142.828125 340.585938 L 171.09375 324.265625 C 172.214844 323.617188 173.648438 324 174.300781 325.125 C 174.945312 326.25 174.5625 327.683594 173.4375 328.332031 L 145.171875 344.652344 C 144.804688 344.867188 144.398438 344.96875 144.003906 344.96875 " fill-opacity="1" fill-rule="nonzero"/><path fill="#fbc810" d="M 187.746094 388.714844 C 187.347656 388.714844 186.941406 388.613281 186.574219 388.398438 C 185.449219 387.75 185.070312 386.320312 185.714844 385.195312 L 202.035156 356.925781 C 202.683594 355.804688 204.121094 355.417969 205.246094 356.070312 C 206.363281 356.714844 206.75 358.152344 206.101562 359.273438 L 189.78125 387.539062 C 189.347656 388.292969 188.554688 388.714844 187.746094 388.714844 " fill-opacity="1" fill-rule="nonzero"/><g clip-path="url(#id7)"><path fill="#fbc810" d="M 247.507812 404.726562 C 246.210938 404.726562 245.164062 403.679688 245.164062 402.382812 L 245.164062 369.742188 C 245.164062 368.441406 246.210938 367.394531 247.507812 367.394531 C 248.804688 367.394531 249.859375 368.441406 249.859375 369.742188 L 249.859375 402.382812 C 249.859375 403.679688 248.804688 404.726562 247.507812 404.726562 " fill-opacity="1" fill-rule="nonzero"/></g><path fill="#fbc810" d="M 307.273438 388.714844 C 306.464844 388.714844 305.671875 388.296875 305.238281 387.539062 L 288.917969 359.273438 C 288.269531 358.152344 288.652344 356.714844 289.777344 356.070312 C 290.894531 355.417969 292.335938 355.804688 292.984375 356.925781 L 309.304688 385.195312 C 309.953125 386.320312 309.566406 387.75 308.445312 388.398438 C 308.074219 388.613281 307.671875 388.714844 307.273438 388.714844 " fill-opacity="1" fill-rule="nonzero"/><path fill="#fbc810" d="M 351.019531 344.96875 C 350.617188 344.96875 350.214844 344.867188 349.847656 344.652344 L 321.578125 328.332031 C 320.453125 327.683594 320.070312 326.25 320.71875 325.125 C 321.367188 324 322.804688 323.617188 323.925781 324.265625 L 352.195312 340.585938 C 353.316406 341.234375 353.699219 342.671875 353.050781 343.792969 C 352.617188 344.546875 351.828125 344.96875 351.019531 344.96875 " fill-opacity="1" fill-rule="nonzero"/><g clip-path="url(#id8)"><path fill="#fbc810" d="M 367.03125 285.207031 L 334.390625 285.207031 C 333.09375 285.207031 332.046875 284.15625 332.046875 282.859375 C 332.046875 281.5625 333.09375 280.511719 334.390625 280.511719 L 367.03125 280.511719 C 368.328125 280.511719 369.378906 281.5625 369.378906 282.859375 C 369.378906 284.15625 368.328125 285.207031 367.03125 285.207031 " fill-opacity="1" fill-rule="nonzero"/></g><path fill="#fbc810" d="M 322.753906 241.765625 C 321.945312 241.765625 321.152344 241.34375 320.71875 240.59375 C 320.070312 239.46875 320.453125 238.03125 321.578125 237.382812 L 349.847656 221.0625 C 350.96875 220.417969 352.402344 220.796875 353.050781 221.921875 C 353.699219 223.046875 353.316406 224.480469 352.195312 225.128906 L 323.925781 241.449219 C 323.554688 241.664062 323.152344 241.765625 322.753906 241.765625 " fill-opacity="1" fill-rule="nonzero"/><path fill="#fbc810" d="M 290.953125 209.960938 C 290.550781 209.960938 290.144531 209.859375 289.777344 209.648438 C 288.652344 209 288.269531 207.566406 288.917969 206.441406 L 305.238281 178.175781 C 305.886719 177.050781 307.324219 176.664062 308.445312 177.316406 C 309.566406 177.964844 309.953125 179.402344 309.304688 180.519531 L 292.984375 208.792969 C 292.550781 209.542969 291.757812 209.960938 290.953125 209.960938 " fill-opacity="1" fill-rule="nonzero"/><g fill="#100f0d" fill-opacity="0.302"><g transform="translate(557.455703, 479.742212)"><g><path d="M 8.074219 -136.105469 L 8.074219 0 L 36.910156 0 L 36.910156 -136.105469 Z M 8.074219 -136.105469 "/></g></g></g><g fill="#100f0d" fill-opacity="0.502"><g transform="translate(548.959608, 471.246179)"><g><path d="M 8.074219 -136.105469 L 8.074219 0 L 36.910156 0 L 36.910156 -136.105469 Z M 8.074219 -136.105469 "/></g></g></g><g fill="#ffffff" fill-opacity="1"><g transform="translate(540.46356, 462.750114)"><g><path d="M 8.074219 -136.105469 L 8.074219 0 L 36.910156 0 L 36.910156 -136.105469 Z M 8.074219 -136.105469 "/></g></g></g></svg>