<svg xmlns="http://www.w3.org/2000/svg" xmlns:xlink="http://www.w3.org/1999/xlink" width="1080" zoomAndPan="magnify" viewBox="0 0 810 809.999993" height="1080" preserveAspectRatio="xMidYMid meet" version="1.0"><defs><g/></defs><rect x="-81" width="972" fill="rgb(100%, 100%, 100%)" y="-80.999999" height="971.999992" fill-opacity="1"/><rect x="-81" width="972" fill="rgb(100%, 100%, 100%)" y="-80.999999" height="971.999992" fill-opacity="1"/><g fill="rgb(0%, 0%, 0%)" fill-opacity="1"><g transform="translate(311.54946, 521.630619)"><g><path d="M 111.472656 -200.582031 C 122.152344 -193.910156 129.828125 -183.5625 135.167969 -169.546875 C 141.511719 -151.523438 144.847656 -132.832031 144.847656 -112.808594 C 144.847656 -108.136719 144.515625 -102.460938 143.847656 -96.121094 C 141.175781 -71.421875 134.835938 -52.066406 124.488281 -38.382812 C 115.8125 -26.367188 105.464844 -20.691406 93.117188 -20.691406 C 79.097656 -20.691406 67.75 -26.367188 59.074219 -38.046875 C 55.070312 -43.386719 52.066406 -49.0625 49.394531 -55.734375 C 46.726562 -62.410156 45.054688 -69.085938 43.722656 -76.09375 C 42.386719 -82.769531 41.386719 -89.445312 40.71875 -96.121094 C 40.050781 -102.460938 40.050781 -109.804688 40.050781 -118.148438 C 40.050781 -126.492188 41.050781 -137.171875 43.722656 -149.519531 C 45.054688 -156.195312 46.726562 -163.203125 49.394531 -169.878906 C 51.730469 -176.554688 54.734375 -182.5625 58.738281 -187.902344 C 62.746094 -193.242188 67.417969 -197.246094 72.757812 -200.582031 C 78.097656 -203.921875 84.773438 -205.589844 92.113281 -205.589844 C 99.457031 -205.589844 106.132812 -203.921875 111.472656 -200.582031 Z M 93.449219 3.003906 C 120.148438 3.003906 140.175781 -10.011719 153.859375 -36.378906 C 164.539062 -57.40625 170.210938 -83.105469 170.210938 -113.808594 C 170.210938 -144.179688 164.539062 -169.878906 153.859375 -190.90625 C 140.175781 -217.269531 120.148438 -230.621094 93.449219 -230.621094 C 66.417969 -230.621094 46.390625 -217.269531 32.707031 -190.90625 C 22.027344 -169.878906 16.6875 -144.179688 16.6875 -113.808594 C 16.6875 -83.105469 22.027344 -57.40625 32.707031 -36.378906 C 46.390625 -10.011719 66.417969 3.003906 93.449219 3.003906 Z M 93.449219 3.003906 "/></g></g></g></svg>