<svg xmlns="http://www.w3.org/2000/svg" xmlns:xlink="http://www.w3.org/1999/xlink" width="1080" zoomAndPan="magnify" viewBox="0 0 810 809.999993" height="1080" preserveAspectRatio="xMidYMid meet" version="1.0"><defs><g/><clipPath id="id1"><path d="M 319.714844 327 L 642.4375 327 L 642.4375 533.300781 L 319.714844 533.300781 Z M 319.714844 327 " clip-rule="nonzero"/></clipPath></defs><rect x="-81" width="972" fill="rgb(100%, 100%, 100%)" y="-80.999999" height="971.999992" fill-opacity="1"/><rect x="-81" width="972" fill="rgb(100%, 100%, 100%)" y="-80.999999" height="971.999992" fill-opacity="1"/><rect x="-81" width="972" fill="rgb(100%, 100%, 100%)" y="-80.999999" height="971.999992" fill-opacity="1"/><path fill="rgb(82.348633%, 67.059326%, 30.198669%)" d="M 420.683594 457.167969 C 419.027344 459.652344 372.6875 510.160156 372.6875 510.160156 C 372.6875 510.160156 345.40625 505.183594 339.605469 525.910156 C 339.605469 525.910156 364.398438 535.03125 378.488281 530.054688 C 378.488281 530.054688 424.828125 514.996094 446.308594 494.40625 C 446.308594 494.40625 509.984375 510.226562 560.472656 487.015625 L 560.472656 506.011719 C 560.472656 506.011719 542.308594 506.839844 541.480469 520.933594 C 541.480469 520.933594 586.164062 532.542969 586.164062 504.351562 L 595.488281 470.914062 L 612.613281 437.339844 L 581.191406 410.878906 L 420.683594 457.167969 " fill-opacity="1" fill-rule="nonzero"/><path fill="rgb(58.428955%, 27.839661%, 11.369324%)" d="M 534.960938 417.945312 C 530.226562 417.226562 525.667969 416.5 521.566406 416.414062 C 525.675781 416.507812 530.234375 417.234375 534.960938 417.945312 " fill-opacity="1" fill-rule="nonzero"/><path fill="rgb(58.428955%, 27.839661%, 11.369324%)" d="M 520.808594 416.40625 C 520.972656 416.40625 521.140625 416.410156 521.308594 416.414062 C 521.140625 416.410156 520.972656 416.40625 520.808594 416.40625 " fill-opacity="1" fill-rule="nonzero"/><path fill="rgb(58.428955%, 27.839661%, 11.369324%)" d="M 575.320312 405.558594 C 565.726562 422.246094 549.539062 420.140625 534.960938 417.945312 C 530.226562 417.226562 525.667969 416.5 521.566406 416.414062 C 521.480469 416.414062 521.394531 416.414062 521.308594 416.414062 C 521.140625 416.410156 520.972656 416.40625 520.808594 416.40625 C 519.347656 416.402344 517.945312 416.484375 516.617188 416.683594 C 500.109375 419.171875 505.910156 440.65625 462.054688 443.144531 C 461.472656 443.175781 460.902344 443.1875 460.335938 443.195312 C 447.859375 443.300781 439.890625 436.621094 434.910156 427.195312 C 428.542969 432.546875 419.714844 436.269531 407.632812 437.339844 C 407.632812 437.339844 399.71875 439.773438 388.917969 441.527344 C 372.65625 444.167969 349.84375 445.273438 337.601562 434.230469 C 337.945312 433.953125 338.152344 433.816406 338.152344 433.816406 C 347.546875 443.972656 368.335938 440.863281 368.335938 440.863281 C 400.105469 438.515625 386.777344 400.101562 386.777344 400.101562 C 382.90625 392.019531 379.664062 383.105469 379.730469 382 C 383.804688 355.609375 400.589844 340.410156 413.917969 332.324219 C 422.828125 333.777344 432.496094 337.851562 442.511719 346.285156 C 442.511719 346.285156 453.449219 376.007812 448.75 401.546875 C 461.378906 406.617188 479.136719 407.945312 504.183594 400.929688 L 576.148438 362.863281 C 576.148438 362.863281 578.632812 362.449219 582.710938 362.449219 C 585.472656 374.195312 584.230469 390.152344 575.320312 405.558594 Z M 368.75 373.019531 C 368.75 373.019531 374.484375 348.285156 393.886719 333.292969 C 376.96875 337.714844 365.988281 349.460938 365.988281 349.460938 C 358.941406 361.203125 345.957031 382.414062 345.957031 382.414062 C 344.230469 383.449219 342.574219 384.417969 341.054688 385.386719 C 347.203125 384.902344 361.222656 382.757812 368.75 373.019531 Z M 617.863281 327.007812 C 622.144531 317.613281 624.839844 307.59375 624.214844 297.4375 C 624.214844 297.4375 632.503906 295.777344 630.847656 310.703125 C 630.777344 310.703125 631.953125 317.332031 628.84375 329.839844 L 617.863281 327.007812 " fill-opacity="1" fill-rule="nonzero"/><g clip-path="url(#id1)"><path fill="rgb(91.758728%, 85.488892%, 62.748718%)" d="M 413.988281 332.394531 C 406.664062 331.152344 399.898438 331.773438 393.886719 333.363281 C 374.484375 348.355469 368.75 373.085938 368.75 373.085938 C 361.222656 382.828125 347.203125 384.972656 341.125 385.457031 C 339.261719 385.59375 338.152344 385.59375 338.152344 385.59375 C 338.152344 385.59375 319.714844 388.285156 319.714844 418.132812 C 319.714844 444.800781 334.425781 436.300781 337.601562 434.230469 C 337.945312 433.953125 338.152344 433.816406 338.152344 433.816406 C 347.546875 443.972656 368.335938 440.863281 368.335938 440.863281 C 400.105469 438.515625 386.777344 400.101562 386.777344 400.101562 C 382.90625 392.019531 379.664062 383.105469 379.730469 382 C 383.804688 355.609375 400.589844 340.410156 413.988281 332.394531 Z M 642.3125 458.066406 C 642.3125 458.066406 642.3125 502.765625 623.320312 523.421875 C 623.320312 523.421875 593.550781 533.371094 591.066406 517.621094 C 591.066406 517.621094 585.265625 510.160156 601.839844 506.011719 L 609.300781 479.550781 C 609.300781 479.550781 589.480469 472.917969 586.164062 453.917969 C 586.164062 453.917969 568.757812 479.550781 510.054688 484.527344 C 510.054688 484.527344 514.199219 501.039062 488.574219 511.816406 L 447.207031 533.300781 L 405.007812 533.300781 C 405.007812 533.300781 404.179688 515.0625 434.777344 515.894531 L 462.054688 490.261719 C 462.054688 490.261719 424.699219 495.972656 388.917969 441.527344 C 399.71875 439.773438 407.632812 437.339844 407.632812 437.339844 C 419.714844 436.269531 428.542969 432.546875 434.910156 427.195312 C 439.890625 436.621094 447.859375 443.300781 460.335938 443.195312 C 460.949219 443.191406 461.5625 443.179688 462.195312 443.144531 C 505.980469 440.65625 500.179688 419.171875 516.753906 416.683594 C 518.039062 416.488281 519.394531 416.40625 520.808594 416.40625 C 520.972656 416.40625 521.140625 416.410156 521.308594 416.414062 C 521.394531 416.414062 521.480469 416.414062 521.566406 416.414062 C 525.675781 416.507812 530.234375 417.234375 534.960938 417.945312 C 549.546875 420.160156 565.796875 422.332031 575.457031 405.558594 C 584.300781 390.082031 585.609375 374.195312 582.847656 362.449219 C 585.402344 362.449219 588.582031 362.65625 592.171875 363.277344 C 600.390625 354.640625 611.164062 341.722656 617.863281 327.078125 L 628.84375 329.90625 C 626.359375 339.789062 621.179688 353.328125 610.609375 370.1875 C 627.53125 380.550781 644.039062 404.382812 642.3125 458.066406 " fill-opacity="1" fill-rule="nonzero"/></g><path fill="rgb(7.058716%, 6.269836%, 5.879211%)" d="M 404.316406 379.375 C 404.316406 379.375 403.972656 348.355469 383.390625 379.375 C 383.390625 379.375 398.722656 362.65625 404.316406 379.375 Z M 365.503906 374.675781 C 365.503906 374.675781 365.296875 354.15625 351.691406 374.675781 C 351.691406 374.675781 361.84375 363.621094 365.503906 374.675781 Z M 364.46875 430.222656 C 364.46875 430.222656 361.222656 435.820312 350.378906 436.300781 C 350.378906 436.300781 343.058594 436.648438 337.742188 434.507812 C 337.671875 434.507812 337.601562 434.507812 337.535156 434.507812 C 337.324219 434.507812 337.117188 434.4375 336.910156 434.300781 C 336.566406 434.09375 336.21875 433.816406 335.875 433.539062 C 330.695312 428.980469 330.765625 419.101562 331.386719 413.4375 C 321.996094 415.644531 319.851562 406.25 319.851562 406.25 C 319.230469 396.4375 323.996094 395.679688 323.996094 395.679688 C 351.277344 395.679688 348.511719 408.253906 348.511719 408.253906 C 345.957031 418.683594 334.21875 412.535156 334.21875 412.535156 C 334.082031 412.605469 334.011719 412.605469 333.871094 412.675781 C 333.253906 417.582031 333.042969 428.082031 337.671875 431.882812 C 337.878906 432.019531 338.085938 432.226562 338.292969 432.296875 C 338.363281 432.296875 338.363281 432.363281 338.363281 432.363281 C 339.742188 433.191406 343.195312 434.78125 350.238281 434.4375 C 350.238281 434.4375 358.183594 434.023438 363.015625 428.566406 C 363.015625 428.566406 363.914062 427.667969 364.605469 428.566406 C 364.46875 428.636719 365.160156 429.464844 364.46875 430.222656 " fill-opacity="1" fill-rule="nonzero"/><path fill="rgb(37.249756%, 17.248535%, 9.01947%)" d="M 337.371094 433.769531 C 335.011719 435.308594 326.292969 440.386719 321.960938 431.976562 C 321.730469 451.125 328.902344 461.660156 328.902344 461.660156 C 334.289062 474.785156 355.007812 468.566406 355.007812 468.566406 C 368.003906 464.933594 371.371094 452.964844 371.730469 442.777344 C 358.980469 443.179688 345.722656 441.300781 337.371094 433.769531 Z M 341.585938 384.992188 C 347.664062 384.511719 361.679688 382.367188 369.210938 372.628906 C 369.210938 372.628906 372.894531 356.757812 384.335938 342.734375 C 384.328125 342.722656 384.320312 342.710938 384.3125 342.695312 C 372.890625 356.710938 369.210938 372.558594 369.210938 372.558594 C 361.679688 382.300781 347.664062 384.441406 341.515625 384.925781 C 343.035156 383.957031 344.695312 382.992188 346.421875 381.953125 C 346.421875 381.953125 359.40625 360.746094 366.449219 349 C 366.449219 349 371.28125 343.835938 379.472656 339.066406 C 374.027344 337.386719 368.335938 341.652344 368.335938 341.652344 L 344.441406 371.085938 C 340.953125 376.296875 337.988281 381.316406 335.46875 386.132812 C 337.34375 385.320312 338.617188 385.132812 338.617188 385.132812 C 338.617188 385.132812 339.722656 385.132812 341.585938 384.992188 Z M 464.128906 375.300781 C 496.308594 435.542969 470 466.910156 470 466.910156 C 463.296875 479.480469 443.339844 471.191406 443.339844 471.191406 C 420.203125 462.140625 432.359375 428.152344 432.359375 428.152344 C 440.230469 407.492188 419.785156 352.292969 426.832031 343.65625 C 433.878906 335.019531 443.339844 343.65625 443.339844 343.65625 L 464.128906 375.300781 " fill-opacity="1" fill-rule="nonzero"/><g fill="rgb(58.428955%, 27.839661%, 11.369324%)" fill-opacity="1"><g transform="translate(167.15141, 523.067089)"><g><path d="M 49.394531 0 L 72.757812 0 L 72.757812 -229.621094 L 16.6875 -223.613281 L 16.6875 -203.253906 L 49.394531 -203.253906 Z M 49.394531 0 "/></g></g></g></svg>