<svg xmlns="http://www.w3.org/2000/svg" xmlns:xlink="http://www.w3.org/1999/xlink" width="1080" zoomAndPan="magnify" viewBox="0 0 810 809.999993" height="1080" preserveAspectRatio="xMidYMid meet" version="1.0"><defs><g/></defs><rect x="-81" width="972" fill="rgb(100%, 100%, 100%)" y="-80.999999" height="971.999992" fill-opacity="1"/><rect x="-81" width="972" fill="rgb(100%, 100%, 100%)" y="-80.999999" height="971.999992" fill-opacity="1"/><path fill="rgb(30.979919%, 3.529358%, 4.309082%)" d="M 430.589844 325.398438 C 430.589844 325.398438 430.792969 325.472656 431.167969 325.617188 C 436.648438 327.699219 440.085938 333.03125 441.953125 338.273438 C 444.292969 344.875 445.8125 351.941406 446.332031 358.921875 C 446.75 364.519531 446.871094 370.578125 445.828125 376.121094 C 445.679688 376.898438 445.355469 379.453125 444.167969 379.296875 C 442.414062 379.070312 443.683594 375.101562 443.765625 374.21875 C 444.027344 371.511719 443.898438 368.707031 443.539062 366.015625 C 442.777344 360.199219 441 354.582031 439.058594 349.066406 C 437.433594 344.460938 435.484375 339.464844 431.632812 336.242188 C 429.308594 334.296875 428.332031 334.234375 428.332031 334.234375 C 428.445312 333.859375 430.679688 325.429688 430.589844 325.398438 " fill-opacity="1" fill-rule="nonzero"/><path fill="rgb(19.60907%, 1.568604%, 1.568604%)" d="M 432.65625 330.753906 C 433.347656 328.332031 432.660156 326.015625 431.121094 325.574219 C 429.582031 325.132812 427.769531 326.734375 427.078125 329.15625 C 426.382812 331.574219 427.070312 333.894531 428.609375 334.335938 C 430.152344 334.777344 431.960938 333.171875 432.65625 330.753906 " fill-opacity="1" fill-rule="nonzero"/><path fill="rgb(81.17981%, 11.759949%, 16.859436%)" d="M 514.207031 395.058594 C 517.746094 428.101562 507.550781 484.519531 463.8125 485.730469 C 455.191406 485.972656 452.074219 481.984375 445.160156 481.984375 C 438.5 481.984375 435.523438 485.972656 427.046875 485.375 C 387.46875 482.589844 374.027344 426.996094 375.726562 395.453125 C 377.6875 358.871094 424.902344 363.195312 445.160156 373.988281 C 470.925781 361.230469 510.355469 359.160156 514.207031 395.058594 " fill-opacity="1" fill-rule="nonzero"/><path fill="rgb(50.19989%, 80.389404%, 23.139954%)" d="M 488.21875 332.964844 C 489.585938 337.035156 481.425781 346.761719 468.757812 351.015625 C 456.09375 355.269531 443.710938 352.441406 442.347656 348.371094 C 440.980469 344.304688 448.4375 332.488281 461.101562 328.234375 C 473.773438 323.980469 486.851562 328.902344 488.21875 332.964844 " fill-opacity="1" fill-rule="nonzero"/><g fill="rgb(81.17981%, 11.759949%, 16.859436%)" fill-opacity="1"><g transform="translate(132.724713, 521.630327)"><g><path d="M 21.027344 0 L 180.890625 0 L 180.890625 -23.363281 L 77.429688 -23.363281 L 156.527344 -101.792969 C 171.214844 -116.480469 178.554688 -134.167969 178.554688 -154.859375 C 178.554688 -175.886719 170.878906 -193.574219 155.859375 -208.261719 C 140.507812 -222.945312 122.484375 -230.621094 101.792969 -230.621094 C 79.765625 -230.621094 61.410156 -222.609375 46.058594 -207.257812 C 31.039062 -191.90625 24.03125 -173.214844 25.03125 -151.523438 L 48.726562 -151.523438 C 47.390625 -165.539062 52.066406 -178.222656 62.746094 -189.902344 C 73.089844 -200.917969 85.773438 -206.589844 100.792969 -206.589844 C 115.144531 -206.589844 127.492188 -201.585938 137.839844 -191.574219 C 148.183594 -181.226562 153.523438 -169.210938 153.523438 -155.195312 C 153.523438 -140.507812 148.519531 -128.492188 138.507812 -118.480469 Z M 21.027344 0 "/></g></g></g><path fill="rgb(30.979919%, 3.529358%, 4.309082%)" d="M 589.972656 325.398438 C 589.972656 325.398438 590.171875 325.472656 590.550781 325.617188 C 596.027344 327.699219 599.46875 333.03125 601.332031 338.273438 C 603.675781 344.875 605.191406 351.941406 605.714844 358.921875 C 606.132812 364.519531 606.253906 370.578125 605.207031 376.121094 C 605.0625 376.898438 604.738281 379.453125 603.550781 379.296875 C 601.792969 379.070312 603.0625 375.101562 603.148438 374.21875 C 603.40625 371.511719 603.277344 368.707031 602.921875 366.015625 C 602.160156 360.199219 600.382812 354.582031 598.441406 349.066406 C 596.816406 344.460938 594.863281 339.464844 591.015625 336.242188 C 588.691406 334.296875 587.714844 334.234375 587.714844 334.234375 C 587.828125 333.859375 590.0625 325.429688 589.972656 325.398438 " fill-opacity="1" fill-rule="nonzero"/><path fill="rgb(19.60907%, 1.568604%, 1.568604%)" d="M 592.039062 330.753906 C 592.730469 328.332031 592.042969 326.015625 590.503906 325.574219 C 588.960938 325.132812 587.148438 326.734375 586.457031 329.15625 C 585.765625 331.574219 586.453125 333.894531 587.992188 334.335938 C 589.53125 334.777344 591.34375 333.171875 592.039062 330.753906 " fill-opacity="1" fill-rule="nonzero"/><path fill="rgb(81.17981%, 11.759949%, 16.859436%)" d="M 673.585938 395.058594 C 677.125 428.101562 666.933594 484.519531 623.191406 485.730469 C 614.574219 485.972656 611.457031 481.984375 604.539062 481.984375 C 597.882812 481.984375 594.902344 485.972656 586.429688 485.375 C 546.851562 482.589844 533.410156 426.996094 535.105469 395.453125 C 537.070312 358.871094 584.28125 363.195312 604.539062 373.988281 C 630.308594 361.230469 669.738281 359.160156 673.585938 395.058594 " fill-opacity="1" fill-rule="nonzero"/><path fill="rgb(50.19989%, 80.389404%, 23.139954%)" d="M 647.601562 332.964844 C 648.964844 337.035156 640.808594 346.761719 628.140625 351.015625 C 615.476562 355.269531 603.09375 352.441406 601.726562 348.371094 C 600.359375 344.304688 607.820312 332.488281 620.484375 328.234375 C 633.152344 323.980469 646.234375 328.902344 647.601562 332.964844 " fill-opacity="1" fill-rule="nonzero"/></svg>