<svg xmlns="http://www.w3.org/2000/svg" xmlns:xlink="http://www.w3.org/1999/xlink" width="1080" zoomAndPan="magnify" viewBox="0 0 810 809.999993" height="1080" preserveAspectRatio="xMidYMid meet" version="1.0"><defs><g/><clipPath id="id1"><path d="M 342 406.867188 L 719 406.867188 L 719 515.230469 L 342 515.230469 Z M 342 406.867188 " clip-rule="nonzero"/></clipPath><clipPath id="id2"><path d="M 331.183594 455 L 736.933594 455 L 736.933594 466 L 331.183594 466 Z M 331.183594 455 " clip-rule="nonzero"/></clipPath></defs><rect x="-81" width="972" fill="rgb(100%, 100%, 100%)" y="-80.999999" height="971.999992" fill-opacity="1"/><rect x="-81" width="972" fill="rgb(100%, 100%, 100%)" y="-80.999999" height="971.999992" fill-opacity="1"/><path fill="rgb(22.749329%, 48.239136%, 78.039551%)" d="M 611.25 456.25 C 609.234375 453.472656 596.898438 455.25 592.957031 455.25 C 567.695312 455.25 542.425781 455.25 517.164062 455.25 C 513.65625 455.25 504.53125 453.847656 502.792969 456.25 C 501.210938 458.425781 502.453125 467.816406 502.734375 471.875 C 501.457031 472.117188 499.300781 475.792969 499.300781 475.792969 L 502.109375 481.390625 C 501.855469 484.992188 501.824219 488.585938 502.792969 489.917969 C 504.464844 492.222656 512.429688 490.917969 515.9375 490.917969 C 528.453125 490.917969 540.972656 490.917969 553.484375 490.917969 C 572.738281 490.917969 591.992188 490.917969 611.25 490.917969 C 611.25 487.804688 611.25 484.691406 611.25 481.582031 L 613.324219 477.464844 L 611.441406 471.875 C 611.882812 466.863281 612.8125 458.402344 611.25 456.25 Z M 733.339844 456.25 C 732.691406 455.355469 730.976562 454.9375 728.820312 454.773438 L 678.210938 437.160156 L 627.792969 455.019531 C 626.4375 455.210938 625.367188 455.578125 624.878906 456.25 C 623.300781 458.425781 624.542969 467.816406 624.828125 471.875 L 622.785156 475.859375 L 624.199219 481.390625 C 623.941406 484.992188 623.910156 488.585938 624.878906 489.917969 C 626.554688 492.222656 634.519531 490.917969 638.03125 490.917969 C 650.542969 490.917969 663.058594 490.917969 675.578125 490.917969 C 694.828125 490.917969 714.085938 490.917969 733.339844 490.917969 C 733.339844 485.5625 733.339844 480.214844 733.339844 474.863281 C 733.339844 471.5625 735.296875 458.953125 733.339844 456.25 Z M 354.0625 425.144531 C 354.0625 425.144531 358.027344 430.339844 366.222656 430.339844 C 366.222656 430.339844 382.585938 429.804688 383.546875 425.179688 C 385.144531 424.171875 384.804688 421.613281 384.511719 420.558594 C 384 418.726562 381.097656 419.027344 378.707031 419.027344 C 372.171875 419.027344 365.636719 419.027344 359.101562 419.027344 C 357.664062 419.027344 355.167969 418.789062 353.914062 419.324219 C 352.15625 420.074219 352.550781 422.953125 352.839844 424.050781 C 352.96875 424.53125 353.410156 424.886719 354.0625 425.144531 Z M 488.527344 461.195312 C 488.527344 470.027344 489.085938 479.054688 488.527344 487.867188 C 488.230469 492.5625 486.535156 494.269531 482.023438 494.570312 C 469.402344 495.414062 456.441406 494.570312 443.800781 494.570312 C 410.402344 494.570312 376.800781 495.6875 343.421875 494.570312 C 339.351562 494.433594 336.492188 495.035156 335.238281 489.914062 C 333.664062 483.464844 335.238281 474.660156 335.238281 468.046875 C 335.238281 462.726562 333.335938 453.261719 335.53125 448.222656 C 337.652344 443.34375 345.734375 445.03125 350.148438 445.03125 C 353.003906 445.03125 355.851562 445.03125 358.703125 445.03125 L 368.804688 439.964844 L 379.597656 445.03125 C 387.148438 445.03125 394.699219 445.03125 402.25 445.03125 C 407.761719 445.03125 411.394531 445.09375 411.886719 438.464844 C 412.414062 431.257812 411.886719 423.828125 411.886719 416.597656 C 411.886719 408.824219 444.246094 412.289062 449.46875 412.320312 C 456.730469 412.359375 477.976562 408.820312 480.011719 417.398438 C 481.875 425.242188 478.050781 434.492188 480.011719 442.3125 C 481.375 447.757812 487.082031 445.796875 488.527344 451.269531 C 489.289062 454.15625 488.527344 458.226562 488.527344 461.195312 " fill-opacity="1" fill-rule="nonzero"/><path fill="rgb(93.728638%, 19.60907%, 12.548828%)" d="M 489.933594 460.128906 C 488.835938 456.941406 490.046875 457.984375 485.949219 457.785156 C 472.652344 457.148438 459.167969 457.785156 445.863281 457.785156 C 414.019531 457.785156 382.171875 457.785156 350.324219 457.785156 C 346.269531 457.785156 341.476562 457.0625 337.480469 457.785156 C 333.761719 458.460938 335.53125 456.777344 334.375 460.128906 C 333.332031 463.148438 334.375 468.640625 334.375 471.847656 C 334.375 473.757812 333.324219 479.773438 334.375 481.410156 C 335.335938 482.910156 335.867188 482.230469 338.359375 482.40625 C 366.210938 484.355469 394.898438 482.40625 422.808594 482.40625 C 445.1875 482.40625 467.5625 482.40625 489.933594 482.40625 C 489.933594 482.117188 489.941406 481.8125 489.953125 481.507812 L 492.503906 476.691406 L 490.644531 471.875 C 490.949219 467.582031 491.019531 463.28125 489.933594 460.128906 Z M 728.820312 412.511719 C 728.050781 408.449219 726.246094 407.765625 722.605469 407.542969 C 697.332031 406.011719 671.515625 407.542969 646.195312 407.542969 C 640.308594 407.542969 629.574219 405.007812 628.140625 412.277344 C 625.910156 423.582031 628.140625 437.554688 628.140625 449.078125 C 628.140625 450.820312 627.957031 452.882812 627.792969 455.019531 C 631.289062 454.527344 636.726562 455.25 639.253906 455.25 C 664.519531 455.25 689.78125 455.25 715.046875 455.25 C 717.722656 455.25 724.261719 454.433594 728.820312 454.773438 C 728.820312 446.535156 728.820312 438.300781 728.820312 430.058594 C 728.820312 424.535156 729.851562 417.949219 728.820312 412.511719 Z M 354.0625 425.144531 C 356.96875 426.3125 364.113281 425.605469 366.699219 425.605469 C 371.761719 425.605469 376.828125 425.605469 381.894531 425.605469 C 382.601562 425.605469 383.136719 425.441406 383.546875 425.179688 C 382.886719 427.554688 379.5625 429.746094 378.863281 431.363281 C 377.339844 434.875 380.410156 441.078125 379.597656 445.03125 C 372.632812 445.03125 365.667969 445.03125 358.703125 445.03125 C 357.246094 441.296875 358.78125 435.042969 358.78125 431.0625 C 357.394531 430.039062 354.722656 427.507812 354.0625 425.144531 " fill-opacity="1" fill-rule="nonzero"/><g clip-path="url(#id1)"><path fill="rgb(16.859436%, 21.569824%, 52.549744%)" d="M 641.402344 501.132812 C 641.402344 518.777344 668.8125 518.882812 668.8125 501.132812 C 668.8125 483.386719 641.402344 483.46875 641.402344 501.132812 Z M 691.074219 501.132812 C 691.074219 518.777344 718.484375 518.882812 718.484375 501.132812 C 718.484375 483.386719 691.074219 483.46875 691.074219 501.132812 Z M 519.3125 501.132812 C 519.3125 518.777344 546.722656 518.882812 546.722656 501.132812 C 546.722656 483.386719 519.3125 483.46875 519.3125 501.132812 Z M 568.984375 501.132812 C 568.984375 518.777344 596.394531 518.882812 596.394531 501.132812 C 596.394531 483.386719 568.984375 483.46875 568.984375 501.132812 Z M 600.515625 407.542969 C 575.246094 406.011719 549.425781 407.542969 524.101562 407.542969 C 518.21875 407.542969 507.484375 405.007812 506.050781 412.277344 C 503.820312 423.582031 506.050781 437.554688 506.050781 449.078125 C 506.050781 450.820312 505.867188 452.882812 505.703125 455.019531 C 509.199219 454.527344 514.632812 455.25 517.164062 455.25 C 542.425781 455.25 567.695312 455.25 592.957031 455.25 C 595.632812 455.25 602.171875 454.433594 606.730469 454.773438 C 606.730469 446.535156 606.730469 438.300781 606.730469 430.058594 C 606.730469 424.535156 607.757812 417.949219 606.730469 412.511719 C 605.957031 408.449219 604.15625 407.765625 600.515625 407.542969 Z M 611.441406 471.875 C 611.328125 473.144531 611.25 474.195312 611.25 474.863281 C 611.25 477.101562 611.25 479.34375 611.25 481.582031 C 612.335938 481.476562 613.261719 481.390625 613.828125 481.390625 C 617.285156 481.390625 620.742188 481.390625 624.199219 481.390625 C 624.441406 478.015625 624.878906 474.628906 624.878906 473.082031 C 624.878906 472.769531 624.859375 472.359375 624.828125 471.875 C 620.367188 471.875 615.902344 471.875 611.441406 471.875 Z M 490.644531 471.875 C 490.402344 475.285156 490.023438 478.679688 489.953125 481.507812 C 490.695312 481.4375 491.316406 481.390625 491.742188 481.390625 C 495.195312 481.390625 498.652344 481.390625 502.109375 481.390625 C 502.351562 478.015625 502.792969 474.628906 502.792969 473.082031 C 502.792969 472.769531 502.769531 472.359375 502.734375 471.875 C 498.707031 471.875 494.675781 471.875 490.644531 471.875 Z M 342.355469 501.648438 C 342.355469 519.800781 370.398438 519.726562 370.398438 501.648438 C 370.398438 483.566406 342.355469 483.496094 342.355469 501.648438 Z M 379.308594 501.648438 C 379.308594 519.800781 407.351562 519.726562 407.351562 501.648438 C 407.351562 483.566406 379.308594 483.496094 379.308594 501.648438 Z M 466.386719 493.503906 C 466.386719 522.316406 422.101562 521.96875 422.101562 493.503906 C 422.101562 465.0625 466.386719 464.652344 466.386719 493.503906 " fill-opacity="1" fill-rule="nonzero"/></g><path fill="rgb(97.648621%, 89.019775%, 2.349854%)" d="M 591.40625 420.03125 C 588.761719 418.078125 577.671875 420.03125 574.308594 420.03125 C 572.457031 420.03125 562.5625 418.671875 561.3125 420.03125 C 559.460938 422.039062 560.769531 444.679688 562.089844 445.511719 C 565.027344 447.363281 575.179688 445.511719 578.621094 445.511719 C 583.238281 445.511719 587.859375 445.511719 592.476562 445.511719 C 592.476562 440.011719 594.933594 422.628906 591.40625 420.03125 Z M 673.824219 420.292969 C 671.175781 418.34375 660.085938 420.292969 656.722656 420.292969 C 654.871094 420.292969 644.976562 418.941406 643.730469 420.292969 C 641.875 422.304688 643.183594 444.941406 644.507812 445.773438 C 647.445312 447.625 657.59375 445.773438 661.035156 445.773438 C 665.652344 445.773438 670.273438 445.773438 674.890625 445.773438 C 674.890625 440.277344 677.347656 422.894531 673.824219 420.292969 Z M 713.496094 420.03125 C 710.847656 418.078125 699.757812 420.03125 696.398438 420.03125 C 694.546875 420.03125 684.652344 418.671875 683.402344 420.03125 C 681.546875 422.039062 682.859375 444.679688 684.179688 445.511719 C 687.117188 447.363281 697.265625 445.511719 700.710938 445.511719 C 705.328125 445.511719 709.945312 445.511719 714.566406 445.511719 C 714.566406 440.011719 717.027344 422.628906 713.496094 420.03125 Z M 551.730469 420.292969 C 549.085938 418.34375 537.996094 420.292969 534.632812 420.292969 C 532.78125 420.292969 522.886719 418.941406 521.636719 420.292969 C 519.785156 422.304688 521.09375 444.941406 522.414062 445.773438 C 525.355469 447.625 535.503906 445.773438 538.945312 445.773438 C 543.566406 445.773438 548.183594 445.773438 552.800781 445.773438 C 552.800781 440.277344 555.261719 422.894531 551.730469 420.292969 Z M 449.476562 446.34375 C 449.476562 441.375 449.476562 436.414062 449.476562 431.449219 C 449.476562 429.730469 450.558594 421.179688 449.335938 419.980469 C 447.96875 418.644531 421.4375 418.632812 420.1875 419.980469 C 418.746094 421.539062 419.007812 444.929688 420.324219 446.34375 C 421.773438 447.898438 433.503906 446.34375 435.707031 446.34375 C 440.296875 446.34375 444.886719 446.34375 449.476562 446.34375 Z M 466.019531 420.257812 C 464.253906 420.226562 456.015625 419.089844 454.949219 420.257812 C 453.925781 421.386719 454.949219 427.664062 454.949219 429.207031 C 454.949219 433.539062 453.96875 439.207031 454.949219 443.421875 C 455.882812 447.429688 453.914062 446.015625 458.410156 446.613281 C 462.226562 447.125 466.414062 446.613281 470.277344 446.613281 C 470.277344 439.488281 472.167969 429.707031 470.277344 422.914062 C 469.332031 419.5 470.753906 420.347656 466.019531 420.257812 Z M 384.511719 501.648438 C 384.511719 513.007812 402.152344 513.039062 402.152344 501.648438 C 402.152344 490.1875 384.511719 490.300781 384.511719 501.648438 Z M 432.960938 493.503906 C 432.960938 508.097656 455.527344 508.097656 455.527344 493.503906 C 455.527344 478.90625 432.960938 478.90625 432.960938 493.503906 Z M 347.554688 501.648438 C 347.554688 513.007812 365.199219 513.039062 365.199219 501.648438 C 365.199219 490.1875 347.554688 490.300781 347.554688 501.648438 Z M 646.484375 501.132812 C 646.484375 512.238281 663.730469 512.265625 663.730469 501.132812 C 663.730469 489.929688 646.484375 490.039062 646.484375 501.132812 Z M 696.15625 501.132812 C 696.15625 512.238281 713.398438 512.265625 713.398438 501.132812 C 713.398438 489.929688 696.15625 490.039062 696.15625 501.132812 Z M 524.398438 501.132812 C 524.398438 512.238281 541.636719 512.265625 541.636719 501.132812 C 541.636719 489.929688 524.398438 490.039062 524.398438 501.132812 Z M 591.3125 501.132812 C 591.3125 512.265625 574.070312 512.238281 574.070312 501.132812 C 574.070312 490.039062 591.3125 489.929688 591.3125 501.132812 " fill-opacity="1" fill-rule="nonzero"/><g clip-path="url(#id2)"><path fill="rgb(6.669617%, 5.879211%, 5.099487%)" d="M 488.867188 455.726562 L 333.90625 455.726562 C 332.773438 455.726562 331.851562 456.648438 331.851562 457.785156 C 331.851562 458.925781 332.773438 459.847656 333.90625 459.847656 L 488.867188 459.847656 C 490 459.847656 490.917969 458.925781 490.917969 457.785156 C 490.917969 456.648438 490 455.726562 488.867188 455.726562 Z M 734.210938 461.328125 L 624.046875 461.328125 C 622.910156 461.328125 621.988281 462.25 621.988281 463.390625 C 621.988281 464.527344 622.910156 465.449219 624.046875 465.449219 L 734.210938 465.449219 C 735.34375 465.449219 736.265625 464.527344 736.265625 463.390625 C 736.265625 462.25 735.34375 461.328125 734.210938 461.328125 Z M 613.820312 463.390625 C 613.820312 464.527344 612.898438 465.449219 611.761719 465.449219 L 502.070312 465.449219 C 500.933594 465.449219 500.011719 464.527344 500.011719 463.390625 C 500.011719 462.25 500.933594 461.328125 502.070312 461.328125 L 611.761719 461.328125 C 612.898438 461.328125 613.820312 462.25 613.820312 463.390625 " fill-opacity="1" fill-rule="nonzero"/></g><g fill="rgb(22.749329%, 48.239136%, 78.039551%)" fill-opacity="1"><g transform="translate(128.271208, 523.067221)"><g><path d="M 118.816406 -2.335938 C 128.160156 -6.339844 136.171875 -11.679688 143.179688 -18.355469 C 158.199219 -33.042969 165.875 -50.730469 165.875 -72.089844 C 165.875 -93.117188 158.199219 -111.140625 142.84375 -125.824219 C 128.492188 -139.507812 110.472656 -147.183594 88.777344 -148.851562 L 78.765625 -142.84375 L 149.855469 -226.949219 L 27.703125 -226.949219 L 27.703125 -203.585938 L 102.460938 -203.585938 L 33.707031 -123.488281 L 51.398438 -109.136719 C 62.078125 -119.816406 74.761719 -125.15625 89.445312 -125.15625 C 104.128906 -125.15625 116.480469 -119.816406 126.824219 -109.46875 C 137.171875 -99.125 142.511719 -86.773438 142.511719 -72.421875 C 142.511719 -58.074219 137.171875 -45.722656 126.492188 -35.710938 C 121.820312 -31.039062 116.144531 -27.035156 109.804688 -24.363281 C 103.128906 -21.695312 95.453125 -20.359375 86.441406 -20.359375 C 77.097656 -20.359375 68.085938 -23.363281 59.074219 -29.371094 C 49.730469 -35.378906 43.386719 -43.722656 39.714844 -54.402344 L 17.019531 -46.726562 C 22.027344 -31.707031 31.371094 -19.691406 45.054688 -10.347656 C 51.398438 -6.007812 58.40625 -2.671875 66.082031 -0.332031 C 73.425781 2.335938 81.769531 3.335938 91.113281 3.335938 C 100.457031 3.335938 109.46875 1.667969 118.816406 -2.335938 Z M 118.816406 -2.335938 "/></g></g></g></svg>