<svg xmlns="http://www.w3.org/2000/svg" xmlns:xlink="http://www.w3.org/1999/xlink" width="1080" zoomAndPan="magnify" viewBox="0 0 810 809.999993" height="1080" preserveAspectRatio="xMidYMid meet" version="1.0"><defs><g/></defs><rect x="-81" width="972" fill="rgb(100%, 100%, 100%)" y="-80.999999" height="971.999992" fill-opacity="1"/><rect x="-81" width="972" fill="rgb(100%, 100%, 100%)" y="-80.999999" height="971.999992" fill-opacity="1"/><path fill="rgb(47.059631%, 17.649841%, 48.629761%)" d="M 511.589844 389.691406 C 511.464844 389.625 511.332031 389.566406 511.199219 389.507812 C 505.6875 387.679688 500.011719 391.601562 497.046875 396.15625 C 494.136719 400.171875 493.027344 406.746094 497.1875 410.230469 C 497.796875 410.730469 498.535156 411.046875 499.296875 411.222656 C 505.964844 412.332031 512.128906 406.90625 514.328125 400.855469 C 516.039062 397.101562 515.464844 391.710938 511.589844 389.691406 Z M 490.101562 378.445312 C 486.925781 376.839844 482.753906 378.753906 480.628906 381.519531 C 476.355469 386.964844 475.039062 395.878906 480.183594 401.09375 C 480.691406 401.53125 481.28125 401.863281 481.914062 402.085938 C 486.460938 403.621094 490.773438 399.828125 492.65625 395.902344 C 495.242188 390.785156 495.796875 383.554688 491.390625 379.355469 C 490.988281 378.972656 490.554688 378.671875 490.101562 378.445312 Z M 515.949219 414.328125 C 510.355469 411.746094 503.691406 415.242188 500.40625 420.082031 C 497.703125 423.394531 496.988281 429.386719 500.984375 431.914062 C 506.820312 434.957031 514.148438 430.792969 517.21875 425.472656 C 519.503906 422.089844 519.761719 416.632812 515.949219 414.328125 Z M 467.855469 390.050781 C 465.5625 388.792969 462.539062 388.976562 460.507812 390.949219 C 455.078125 396.238281 454.785156 406.472656 460.707031 411.378906 C 463.222656 413.351562 466.816406 412.496094 468.902344 410.265625 C 473.34375 405.488281 473.820312 397.421875 470.113281 392.175781 C 469.542969 391.261719 468.753906 390.546875 467.855469 390.050781 Z M 486.023438 414.527344 C 481.496094 412.109375 475.65625 411.96875 470.867188 413.863281 C 465.535156 416.207031 460.417969 419.519531 456.664062 424.074219 C 453.464844 427.082031 453.984375 432.808594 457.835938 434.910156 C 462.414062 437.542969 468.152344 436.445312 472.90625 438.691406 C 477.15625 440.191406 479.554688 444.152344 482.355469 447.402344 C 484.65625 450.320312 489.074219 452.050781 492.371094 449.59375 C 495.371094 446.894531 495.511719 442.375 495.636719 438.617188 C 495.226562 432.183594 494.734375 425.386719 491.433594 419.734375 C 490.128906 417.433594 488.234375 415.710938 486.023438 414.527344 Z M 486.023438 414.527344 " fill-opacity="1" fill-rule="nonzero"/><path fill="rgb(47.059631%, 17.649841%, 48.629761%)" d="M 594.230469 263.816406 C 594.105469 263.75 593.972656 263.691406 593.839844 263.632812 C 588.328125 261.808594 582.652344 265.726562 579.6875 270.285156 C 576.777344 274.296875 575.667969 280.871094 579.828125 284.359375 C 580.4375 284.851562 581.175781 285.171875 581.9375 285.347656 C 588.605469 286.457031 594.769531 281.03125 596.96875 274.980469 C 598.679688 271.226562 598.105469 265.835938 594.230469 263.816406 Z M 572.742188 252.570312 C 569.566406 250.964844 565.394531 252.878906 563.269531 255.644531 C 558.996094 261.089844 557.675781 270.003906 562.820312 275.21875 C 563.332031 275.65625 563.921875 275.988281 564.554688 276.210938 C 569.101562 277.746094 573.414062 273.949219 575.292969 270.027344 C 577.882812 264.90625 578.4375 257.675781 574.03125 253.480469 C 573.628906 253.097656 573.195312 252.796875 572.742188 252.570312 Z M 598.589844 288.453125 C 592.996094 285.871094 586.328125 289.363281 583.046875 294.207031 C 580.34375 297.519531 579.628906 303.511719 583.625 306.039062 C 589.460938 309.082031 596.789062 304.917969 599.859375 299.597656 C 602.144531 296.214844 602.402344 290.757812 598.589844 288.453125 Z M 550.496094 264.175781 C 548.203125 262.917969 545.179688 263.101562 543.148438 265.078125 C 537.71875 270.363281 537.425781 280.597656 543.347656 285.503906 C 545.859375 287.476562 549.457031 286.621094 551.542969 284.390625 C 555.984375 279.613281 556.460938 271.546875 552.753906 266.300781 C 552.183594 265.386719 551.394531 264.671875 550.496094 264.179688 Z M 568.664062 288.652344 C 564.136719 286.234375 558.292969 286.09375 553.507812 287.988281 C 548.175781 290.332031 543.058594 293.644531 539.304688 298.199219 C 536.105469 301.210938 536.625 306.933594 540.476562 309.035156 C 545.054688 311.667969 550.792969 310.570312 555.546875 312.816406 C 559.792969 314.316406 562.195312 318.277344 564.992188 321.527344 C 567.296875 324.445312 571.714844 326.175781 575.011719 323.71875 C 578.011719 321.023438 578.152344 316.5 578.277344 312.742188 C 577.867188 306.308594 577.375 299.515625 574.074219 293.859375 C 572.769531 291.5625 570.875 289.835938 568.664062 288.652344 Z M 568.664062 288.652344 " fill-opacity="1" fill-rule="nonzero"/><path fill="rgb(47.059631%, 17.649841%, 48.629761%)" d="M 607.792969 366.347656 C 607.667969 366.28125 607.539062 366.222656 607.40625 366.164062 C 601.894531 364.335938 596.21875 368.261719 593.253906 372.816406 C 590.34375 376.828125 589.234375 383.402344 593.394531 386.890625 C 594.003906 387.382812 594.742188 387.703125 595.503906 387.878906 C 602.167969 388.988281 608.332031 383.566406 610.535156 377.511719 C 612.242188 373.757812 611.667969 368.367188 607.792969 366.347656 Z M 586.308594 355.101562 C 583.132812 353.492188 578.960938 355.410156 576.835938 358.175781 C 572.558594 363.621094 571.242188 372.535156 576.386719 377.75 C 576.894531 378.1875 577.488281 378.519531 578.121094 378.742188 C 582.664062 380.277344 586.976562 376.484375 588.859375 372.558594 C 591.449219 367.4375 592 360.210938 587.597656 356.011719 C 587.191406 355.628906 586.761719 355.328125 586.308594 355.101562 Z M 612.15625 390.984375 C 606.558594 388.402344 599.894531 391.894531 596.609375 396.738281 C 593.90625 400.050781 593.191406 406.042969 597.191406 408.570312 C 603.023438 411.613281 610.355469 407.449219 613.421875 402.128906 C 615.710938 398.746094 615.96875 393.285156 612.15625 390.984375 Z M 564.0625 366.707031 C 561.765625 365.449219 558.746094 365.632812 556.710938 367.609375 C 551.285156 372.894531 550.992188 383.128906 556.914062 388.035156 C 559.425781 390.003906 563.023438 389.152344 565.105469 386.921875 C 569.550781 382.140625 570.027344 374.078125 566.320312 368.832031 C 565.746094 367.917969 564.957031 367.199219 564.0625 366.707031 Z M 582.230469 391.183594 C 577.703125 388.765625 571.859375 388.625 567.070312 390.519531 C 561.738281 392.863281 556.625 396.175781 552.871094 400.730469 C 549.667969 403.738281 550.191406 409.464844 554.042969 411.566406 C 558.621094 414.195312 564.359375 413.101562 569.109375 415.347656 C 573.359375 416.847656 575.761719 420.808594 578.558594 424.058594 C 580.863281 426.976562 585.28125 428.707031 588.574219 426.25 C 591.578125 423.550781 591.71875 419.03125 591.839844 415.269531 C 591.433594 408.839844 590.941406 402.042969 587.636719 396.390625 C 586.335938 394.09375 584.4375 392.367188 582.230469 391.183594 Z M 582.230469 391.183594 " fill-opacity="1" fill-rule="nonzero"/><path fill="rgb(47.059631%, 17.649841%, 48.629761%)" d="M 536.15625 496.515625 C 536.03125 496.449219 535.902344 496.386719 535.769531 496.328125 C 530.257812 494.503906 524.578125 498.425781 521.617188 502.980469 C 518.703125 506.996094 517.59375 513.570312 521.757812 517.054688 C 522.363281 517.550781 523.101562 517.871094 523.863281 518.042969 C 530.53125 519.152344 536.695312 513.730469 538.894531 507.679688 C 540.605469 503.921875 540.03125 498.53125 536.15625 496.515625 Z M 514.671875 485.265625 C 511.496094 483.660156 507.320312 485.574219 505.195312 488.339844 C 500.921875 493.789062 499.605469 502.703125 504.75 507.914062 C 505.257812 508.351562 505.847656 508.6875 506.480469 508.910156 C 511.027344 510.441406 515.339844 506.648438 517.222656 502.722656 C 519.808594 497.605469 520.363281 490.375 515.957031 486.175781 C 515.554688 485.796875 515.125 485.496094 514.671875 485.265625 Z M 540.519531 521.152344 C 534.921875 518.566406 528.257812 522.0625 524.972656 526.90625 C 522.269531 530.21875 521.554688 536.207031 525.550781 538.734375 C 531.386719 541.777344 538.714844 537.613281 541.785156 532.292969 C 544.074219 528.914062 544.328125 523.453125 540.519531 521.152344 Z M 492.425781 496.875 C 490.128906 495.613281 487.109375 495.796875 485.074219 497.773438 C 479.644531 503.058594 479.351562 513.292969 485.277344 518.199219 C 487.789062 520.171875 491.382812 519.320312 493.46875 517.089844 C 497.914062 512.308594 498.390625 504.242188 494.683594 498.996094 C 494.109375 498.082031 493.320312 497.367188 492.425781 496.875 Z M 510.589844 521.347656 C 506.066406 518.929688 500.222656 518.792969 495.433594 520.6875 C 490.101562 523.027344 484.984375 526.339844 481.234375 530.898438 C 478.03125 533.90625 478.550781 539.628906 482.402344 541.734375 C 486.984375 544.363281 492.71875 543.269531 497.472656 545.511719 C 501.722656 547.015625 504.121094 550.972656 506.921875 554.226562 C 509.222656 557.144531 513.640625 558.875 516.9375 556.417969 C 519.941406 553.71875 520.078125 549.199219 520.203125 545.4375 C 519.792969 539.003906 519.300781 532.210938 516 526.558594 C 514.695312 524.257812 512.800781 522.53125 510.589844 521.351562 Z M 510.589844 521.347656 " fill-opacity="1" fill-rule="nonzero"/><g fill="rgb(70.979309%, 34.899902%, 56.469727%)" fill-opacity="1"><g transform="translate(182.483754, 521.630384)"><g><path d="M 133.167969 -201.585938 L 133.167969 -70.421875 L 46.390625 -70.421875 Z M 157.53125 -46.390625 L 186.234375 -46.390625 L 186.234375 -70.421875 L 157.53125 -70.421875 L 157.195312 -226.949219 L 124.488281 -226.949219 L 5.007812 -46.390625 L 133.167969 -46.390625 L 133.167969 0 L 157.53125 0 Z M 157.53125 -46.390625 "/></g></g></g></svg>