<svg xmlns="http://www.w3.org/2000/svg" xmlns:xlink="http://www.w3.org/1999/xlink" width="1080" zoomAndPan="magnify" viewBox="0 0 810 809.999993" height="1080" preserveAspectRatio="xMidYMid meet" version="1.0"><defs><g/><clipPath id="id1"><path d="M 577 441 L 703.128906 441 L 703.128906 567 L 577 567 Z M 577 441 " clip-rule="nonzero"/></clipPath></defs><rect x="-81" width="972" fill="rgb(100%, 100%, 100%)" y="-80.999999" height="971.999992" fill-opacity="1"/><rect x="-81" width="972" fill="rgb(100%, 100%, 100%)" y="-80.999999" height="971.999992" fill-opacity="1"/><path fill="rgb(46.669006%, 69.799805%, 33.329773%)" d="M 469.816406 351.597656 C 468.472656 351.597656 467.097656 351.292969 465.816406 350.648438 C 426.523438 330.992188 398.679688 283.101562 389.554688 255.707031 C 387.976562 251.003906 390.523438 245.925781 395.226562 244.355469 C 399.933594 242.777344 405.011719 245.332031 406.574219 250.027344 C 414.441406 273.648438 439.65625 317.492188 473.84375 334.589844 C 478.277344 336.808594 480.070312 342.203125 477.855469 346.636719 C 476.277344 349.785156 473.109375 351.597656 469.816406 351.597656 Z M 469.816406 351.597656 " fill-opacity="1" fill-rule="nonzero"/><path fill="rgb(33.329773%, 21.569824%, 53.329468%)" d="M 613.359375 504.175781 C 613.359375 506.230469 613.257812 508.285156 613.054688 510.332031 C 612.855469 512.378906 612.550781 514.414062 612.152344 516.429688 C 611.75 518.449219 611.25 520.441406 610.652344 522.410156 C 610.058594 524.378906 609.363281 526.316406 608.578125 528.214844 C 607.789062 530.117188 606.914062 531.976562 605.941406 533.789062 C 604.972656 535.605469 603.917969 537.367188 602.773438 539.078125 C 601.632812 540.789062 600.410156 542.441406 599.105469 544.03125 C 597.800781 545.621094 596.417969 547.144531 594.964844 548.597656 C 593.511719 550.054688 591.988281 551.433594 590.398438 552.738281 C 588.808594 554.042969 587.160156 555.269531 585.449219 556.410156 C 583.738281 557.554688 581.976562 558.613281 580.164062 559.582031 C 578.351562 560.550781 576.492188 561.429688 574.59375 562.21875 C 572.691406 563.003906 570.757812 563.699219 568.792969 564.292969 C 566.824219 564.890625 564.832031 565.390625 562.8125 565.792969 C 560.796875 566.195312 558.765625 566.496094 556.71875 566.699219 C 554.671875 566.898438 552.621094 567 550.5625 567 C 548.507812 567 546.453125 566.898438 544.40625 566.699219 C 542.359375 566.496094 540.328125 566.195312 538.3125 565.792969 C 536.296875 565.390625 534.300781 564.890625 532.335938 564.292969 C 530.367188 563.699219 528.433594 563.003906 526.53125 562.21875 C 524.632812 561.429688 522.773438 560.550781 520.960938 559.582031 C 519.148438 558.613281 517.386719 557.554688 515.675781 556.410156 C 513.964844 555.269531 512.316406 554.042969 510.726562 552.738281 C 509.136719 551.433594 507.613281 550.054688 506.160156 548.597656 C 504.707031 547.144531 503.328125 545.621094 502.023438 544.03125 C 500.714844 542.441406 499.492188 540.789062 498.351562 539.078125 C 497.207031 537.367188 496.152344 535.605469 495.183594 533.789062 C 494.214844 531.976562 493.335938 530.117188 492.546875 528.214844 C 491.761719 526.316406 491.070312 524.378906 490.472656 522.410156 C 489.875 520.441406 489.375 518.449219 488.972656 516.429688 C 488.574219 514.414062 488.273438 512.378906 488.070312 510.332031 C 487.867188 508.285156 487.769531 506.230469 487.769531 504.175781 C 487.769531 502.117188 487.867188 500.0625 488.070312 498.015625 C 488.273438 495.96875 488.574219 493.9375 488.972656 491.917969 C 489.375 489.898438 489.875 487.90625 490.472656 485.9375 C 491.070312 483.96875 491.761719 482.035156 492.546875 480.132812 C 493.335938 478.230469 494.214844 476.375 495.183594 474.558594 C 496.152344 472.746094 497.207031 470.980469 498.351562 469.269531 C 499.492188 467.558594 500.71875 465.910156 502.023438 464.320312 C 503.328125 462.726562 504.707031 461.207031 506.160156 459.75 C 507.613281 458.296875 509.136719 456.914062 510.726562 455.609375 C 512.316406 454.304688 513.964844 453.082031 515.675781 451.9375 C 517.386719 450.792969 519.148438 449.738281 520.960938 448.765625 C 522.773438 447.796875 524.632812 446.917969 526.53125 446.132812 C 528.433594 445.34375 530.367188 444.652344 532.335938 444.054688 C 534.300781 443.457031 536.296875 442.957031 538.3125 442.554688 C 540.328125 442.15625 542.359375 441.851562 544.40625 441.652344 C 546.453125 441.449219 548.507812 441.347656 550.5625 441.347656 C 552.621094 441.347656 554.671875 441.449219 556.71875 441.652344 C 558.765625 441.851562 560.796875 442.15625 562.8125 442.554688 C 564.832031 442.957031 566.824219 443.457031 568.792969 444.054688 C 570.757812 444.652344 572.691406 445.34375 574.59375 446.132812 C 576.492188 446.917969 578.351562 447.796875 580.164062 448.765625 C 581.976562 449.738281 583.738281 450.792969 585.449219 451.9375 C 587.160156 453.082031 588.808594 454.304688 590.398438 455.609375 C 591.988281 456.914062 593.511719 458.296875 594.964844 459.75 C 596.417969 461.207031 597.800781 462.726562 599.105469 464.320312 C 600.410156 465.910156 601.632812 467.558594 602.773438 469.269531 C 603.917969 470.980469 604.972656 472.746094 605.941406 474.558594 C 606.914062 476.375 607.789062 478.230469 608.578125 480.132812 C 609.363281 482.035156 610.058594 483.96875 610.652344 485.9375 C 611.25 487.90625 611.75 489.898438 612.152344 491.917969 C 612.550781 493.9375 612.855469 495.96875 613.054688 498.015625 C 613.257812 500.0625 613.359375 502.117188 613.359375 504.175781 Z M 613.359375 504.175781 " fill-opacity="1" fill-rule="nonzero"/><path fill="rgb(57.249451%, 39.99939%, 79.998779%)" d="M 532.621094 378.523438 C 532.621094 380.582031 532.519531 382.632812 532.320312 384.679688 C 532.117188 386.730469 531.816406 388.761719 531.414062 390.78125 C 531.011719 392.796875 530.515625 394.792969 529.917969 396.761719 C 529.320312 398.730469 528.628906 400.664062 527.839844 402.566406 C 527.054688 404.46875 526.175781 406.324219 525.207031 408.140625 C 524.238281 409.953125 523.179688 411.714844 522.039062 413.425781 C 520.894531 415.136719 519.671875 416.789062 518.367188 418.378906 C 517.0625 419.96875 515.683594 421.492188 514.230469 422.949219 C 512.773438 424.402344 511.253906 425.78125 509.664062 427.089844 C 508.074219 428.394531 506.421875 429.617188 504.714844 430.761719 C 503.003906 431.902344 501.242188 432.960938 499.425781 433.929688 C 497.613281 434.902344 495.757812 435.78125 493.855469 436.566406 C 491.957031 437.355469 490.023438 438.046875 488.054688 438.644531 C 486.085938 439.242188 484.09375 439.742188 482.078125 440.140625 C 480.058594 440.542969 478.027344 440.84375 475.980469 441.046875 C 473.933594 441.25 471.882812 441.347656 469.828125 441.347656 C 467.769531 441.347656 465.71875 441.25 463.671875 441.046875 C 461.625 440.84375 459.59375 440.542969 457.574219 440.140625 C 455.558594 439.742188 453.566406 439.242188 451.597656 438.644531 C 449.628906 438.046875 447.695312 437.355469 445.796875 436.566406 C 443.894531 435.78125 442.039062 434.902344 440.226562 433.929688 C 438.410156 432.960938 436.648438 431.902344 434.9375 430.761719 C 433.230469 429.617188 431.578125 428.394531 429.988281 427.089844 C 428.398438 425.78125 426.878906 424.402344 425.421875 422.949219 C 423.96875 421.492188 422.589844 419.96875 421.285156 418.378906 C 419.980469 416.789062 418.757812 415.136719 417.613281 413.425781 C 416.472656 411.714844 415.414062 409.953125 414.445312 408.140625 C 413.476562 406.324219 412.597656 404.46875 411.8125 402.566406 C 411.023438 400.664062 410.332031 398.730469 409.734375 396.761719 C 409.136719 394.792969 408.640625 392.796875 408.238281 390.78125 C 407.835938 388.761719 407.535156 386.730469 407.332031 384.679688 C 407.132812 382.632812 407.03125 380.582031 407.03125 378.523438 C 407.03125 376.464844 407.132812 374.414062 407.332031 372.367188 C 407.535156 370.316406 407.835938 368.285156 408.238281 366.265625 C 408.640625 364.25 409.136719 362.253906 409.734375 360.285156 C 410.332031 358.316406 411.023438 356.382812 411.8125 354.480469 C 412.597656 352.582031 413.476562 350.722656 414.445312 348.90625 C 415.414062 347.09375 416.472656 345.332031 417.613281 343.621094 C 418.757812 341.910156 419.980469 340.257812 421.285156 338.667969 C 422.589844 337.078125 423.96875 335.554688 425.421875 334.097656 C 426.878906 332.644531 428.398438 331.265625 429.988281 329.957031 C 431.578125 328.652344 433.230469 327.429688 434.9375 326.285156 C 436.648438 325.144531 438.410156 324.085938 440.226562 323.117188 C 442.039062 322.144531 443.894531 321.269531 445.796875 320.480469 C 447.695312 319.691406 449.628906 319 451.597656 318.402344 C 453.566406 317.804688 455.558594 317.308594 457.574219 316.90625 C 459.59375 316.503906 461.625 316.203125 463.671875 316 C 465.71875 315.800781 467.769531 315.699219 469.828125 315.699219 C 471.882812 315.699219 473.933594 315.800781 475.980469 316 C 478.027344 316.203125 480.058594 316.503906 482.078125 316.90625 C 484.09375 317.308594 486.085938 317.804688 488.054688 318.402344 C 490.023438 319 491.957031 319.691406 493.855469 320.480469 C 495.757812 321.269531 497.613281 322.144531 499.425781 323.117188 C 501.242188 324.085938 503.003906 325.144531 504.714844 326.285156 C 506.421875 327.429688 508.074219 328.652344 509.664062 329.957031 C 511.253906 331.265625 512.773438 332.644531 514.230469 334.097656 C 515.683594 335.554688 517.0625 337.078125 518.367188 338.667969 C 519.671875 340.257812 520.894531 341.910156 522.039062 343.621094 C 523.179688 345.332031 524.238281 347.09375 525.207031 348.90625 C 526.175781 350.722656 527.054688 352.582031 527.839844 354.480469 C 528.628906 356.382812 529.320312 358.316406 529.917969 360.285156 C 530.515625 362.253906 531.011719 364.25 531.414062 366.265625 C 531.816406 368.285156 532.117188 370.316406 532.320312 372.367188 C 532.519531 374.414062 532.621094 376.464844 532.621094 378.523438 Z M 532.621094 378.523438 " fill-opacity="1" fill-rule="nonzero"/><path fill="rgb(66.668701%, 55.288696%, 84.709167%)" d="M 613.359375 351.597656 C 613.359375 353.65625 613.257812 355.707031 613.054688 357.757812 C 612.855469 359.804688 612.550781 361.835938 612.152344 363.855469 C 611.75 365.875 611.25 367.867188 610.652344 369.835938 C 610.058594 371.804688 609.363281 373.738281 608.578125 375.640625 C 607.789062 377.542969 606.914062 379.398438 605.941406 381.214844 C 604.972656 383.027344 603.917969 384.792969 602.773438 386.503906 C 601.632812 388.214844 600.410156 389.863281 599.105469 391.453125 C 597.800781 393.046875 596.417969 394.566406 594.964844 396.023438 C 593.511719 397.476562 591.988281 398.859375 590.398438 400.164062 C 588.808594 401.46875 587.160156 402.691406 585.449219 403.835938 C 583.738281 404.980469 581.976562 406.035156 580.164062 407.003906 C 578.351562 407.976562 576.492188 408.855469 574.59375 409.640625 C 572.691406 410.429688 570.757812 411.121094 568.792969 411.71875 C 566.824219 412.316406 564.832031 412.816406 562.8125 413.214844 C 560.796875 413.617188 558.765625 413.917969 556.71875 414.121094 C 554.671875 414.324219 552.621094 414.425781 550.5625 414.425781 C 548.507812 414.425781 546.453125 414.324219 544.40625 414.121094 C 542.359375 413.917969 540.328125 413.617188 538.3125 413.214844 C 536.296875 412.816406 534.300781 412.316406 532.335938 411.71875 C 530.367188 411.121094 528.433594 410.429688 526.53125 409.640625 C 524.632812 408.855469 522.773438 407.976562 520.960938 407.003906 C 519.148438 406.035156 517.386719 404.980469 515.675781 403.835938 C 513.964844 402.691406 512.316406 401.46875 510.726562 400.164062 C 509.136719 398.859375 507.613281 397.476562 506.160156 396.023438 C 504.707031 394.566406 503.328125 393.046875 502.023438 391.453125 C 500.714844 389.863281 499.492188 388.214844 498.351562 386.503906 C 497.207031 384.792969 496.152344 383.027344 495.183594 381.214844 C 494.214844 379.398438 493.335938 377.542969 492.546875 375.640625 C 491.761719 373.738281 491.070312 371.804688 490.472656 369.835938 C 489.875 367.867188 489.375 365.875 488.972656 363.855469 C 488.574219 361.835938 488.273438 359.804688 488.070312 357.757812 C 487.867188 355.707031 487.769531 353.65625 487.769531 351.597656 C 487.769531 349.539062 487.867188 347.488281 488.070312 345.441406 C 488.273438 343.394531 488.574219 341.359375 488.972656 339.339844 C 489.375 337.324219 489.875 335.332031 490.472656 333.359375 C 491.070312 331.390625 491.761719 329.457031 492.546875 327.554688 C 493.335938 325.65625 494.214844 323.796875 495.183594 321.984375 C 496.152344 320.167969 497.207031 318.40625 498.351562 316.695312 C 499.492188 314.984375 500.71875 313.332031 502.023438 311.742188 C 503.328125 310.152344 504.707031 308.628906 506.160156 307.175781 C 507.613281 305.71875 509.136719 304.339844 510.726562 303.035156 C 512.316406 301.726562 513.964844 300.503906 515.675781 299.359375 C 517.386719 298.21875 519.148438 297.160156 520.960938 296.191406 C 522.773438 295.222656 524.632812 294.34375 526.53125 293.554688 C 528.433594 292.769531 530.367188 292.074219 532.335938 291.476562 C 534.300781 290.878906 536.296875 290.382812 538.3125 289.980469 C 540.328125 289.578125 542.359375 289.277344 544.40625 289.074219 C 546.453125 288.875 548.507812 288.773438 550.5625 288.773438 C 552.621094 288.773438 554.671875 288.875 556.71875 289.074219 C 558.765625 289.277344 560.796875 289.578125 562.8125 289.980469 C 564.832031 290.382812 566.824219 290.878906 568.792969 291.476562 C 570.757812 292.074219 572.691406 292.769531 574.59375 293.554688 C 576.492188 294.34375 578.351562 295.222656 580.164062 296.191406 C 581.976562 297.160156 583.738281 298.21875 585.449219 299.359375 C 587.160156 300.503906 588.808594 301.726562 590.398438 303.035156 C 591.988281 304.339844 593.511719 305.71875 594.964844 307.175781 C 596.417969 308.628906 597.800781 310.152344 599.105469 311.742188 C 600.410156 313.332031 601.632812 314.984375 602.773438 316.695312 C 603.917969 318.40625 604.972656 320.167969 605.941406 321.984375 C 606.914062 323.796875 607.789062 325.65625 608.578125 327.554688 C 609.363281 329.457031 610.058594 331.390625 610.652344 333.359375 C 611.25 335.332031 611.75 337.324219 612.152344 339.339844 C 612.550781 341.359375 612.855469 343.394531 613.054688 345.441406 C 613.257812 347.488281 613.359375 349.539062 613.359375 351.597656 Z M 613.359375 351.597656 " fill-opacity="1" fill-rule="nonzero"/><path fill="rgb(45.489502%, 30.589294%, 66.668701%)" d="M 685.125 405.449219 C 685.125 407.507812 685.023438 409.558594 684.820312 411.605469 C 684.621094 413.65625 684.316406 415.6875 683.917969 417.707031 C 683.515625 419.722656 683.015625 421.71875 682.417969 423.6875 C 681.824219 425.65625 681.128906 427.589844 680.34375 429.492188 C 679.558594 431.390625 678.679688 433.25 677.707031 435.066406 C 676.738281 436.878906 675.683594 438.640625 674.539062 440.351562 C 673.398438 442.0625 672.175781 443.714844 670.871094 445.304688 C 669.566406 446.894531 668.1875 448.417969 666.730469 449.875 C 665.277344 451.328125 663.753906 452.707031 662.164062 454.011719 C 660.574219 455.320312 658.925781 456.542969 657.214844 457.6875 C 655.503906 458.828125 653.742188 459.886719 651.929688 460.855469 C 650.117188 461.824219 648.257812 462.703125 646.359375 463.492188 C 644.460938 464.28125 642.523438 464.972656 640.558594 465.570312 C 638.589844 466.167969 636.597656 466.664062 634.578125 467.066406 C 632.5625 467.46875 630.53125 467.769531 628.484375 467.972656 C 626.4375 468.171875 624.386719 468.273438 622.328125 468.273438 C 620.273438 468.273438 618.21875 468.171875 616.171875 467.972656 C 614.125 467.769531 612.09375 467.46875 610.078125 467.066406 C 608.0625 466.664062 606.066406 466.167969 604.101562 465.570312 C 602.132812 464.972656 600.199219 464.28125 598.296875 463.492188 C 596.398438 462.703125 594.539062 461.824219 592.726562 460.855469 C 590.914062 459.886719 589.152344 458.828125 587.441406 457.6875 C 585.730469 456.542969 584.082031 455.320312 582.492188 454.011719 C 580.902344 452.707031 579.378906 451.328125 577.925781 449.875 C 576.472656 448.417969 575.09375 446.894531 573.789062 445.304688 C 572.484375 443.714844 571.257812 442.0625 570.117188 440.351562 C 568.972656 438.640625 567.917969 436.878906 566.949219 435.066406 C 565.980469 433.25 565.101562 431.390625 564.3125 429.492188 C 563.527344 427.589844 562.835938 425.65625 562.238281 423.6875 C 561.640625 421.71875 561.140625 419.722656 560.738281 417.707031 C 560.339844 415.6875 560.039062 413.65625 559.835938 411.605469 C 559.632812 409.558594 559.535156 407.507812 559.535156 405.449219 C 559.535156 403.390625 559.632812 401.339844 559.835938 399.289062 C 560.039062 397.242188 560.339844 395.210938 560.738281 393.191406 C 561.140625 391.175781 561.640625 389.179688 562.238281 387.210938 C 562.835938 385.242188 563.527344 383.308594 564.3125 381.40625 C 565.101562 379.503906 565.980469 377.648438 566.949219 375.832031 C 567.917969 374.019531 568.972656 372.253906 570.117188 370.542969 C 571.257812 368.832031 572.484375 367.183594 573.789062 365.59375 C 575.09375 364.003906 576.472656 362.480469 577.925781 361.023438 C 579.378906 359.570312 580.902344 358.1875 582.492188 356.882812 C 584.082031 355.578125 585.730469 354.355469 587.441406 353.210938 C 589.152344 352.066406 590.914062 351.011719 592.726562 350.042969 C 594.539062 349.070312 596.398438 348.191406 598.296875 347.40625 C 600.199219 346.617188 602.132812 345.925781 604.101562 345.328125 C 606.066406 344.730469 608.0625 344.230469 610.078125 343.832031 C 612.09375 343.429688 614.125 343.128906 616.171875 342.925781 C 618.21875 342.722656 620.273438 342.625 622.328125 342.625 C 624.386719 342.625 626.4375 342.722656 628.484375 342.925781 C 630.53125 343.128906 632.5625 343.429688 634.578125 343.832031 C 636.597656 344.230469 638.589844 344.730469 640.558594 345.328125 C 642.523438 345.925781 644.460938 346.617188 646.359375 347.40625 C 648.257812 348.191406 650.117188 349.070312 651.929688 350.042969 C 653.742188 351.011719 655.503906 352.066406 657.214844 353.210938 C 658.925781 354.355469 660.574219 355.578125 662.164062 356.882812 C 663.753906 358.1875 665.277344 359.570312 666.730469 361.023438 C 668.1875 362.480469 669.566406 364.003906 670.871094 365.59375 C 672.175781 367.183594 673.398438 368.832031 674.539062 370.542969 C 675.683594 372.253906 676.738281 374.019531 677.707031 375.832031 C 678.679688 377.648438 679.558594 379.503906 680.34375 381.40625 C 681.128906 383.308594 681.824219 385.242188 682.417969 387.210938 C 683.015625 389.179688 683.515625 391.175781 683.917969 393.191406 C 684.316406 395.210938 684.621094 397.242188 684.820312 399.289062 C 685.023438 401.339844 685.125 403.390625 685.125 405.449219 Z M 685.125 405.449219 " fill-opacity="1" fill-rule="nonzero"/><path fill="rgb(45.489502%, 30.589294%, 66.668701%)" d="M 523.652344 477.25 C 523.652344 479.308594 523.550781 481.359375 523.347656 483.40625 C 523.148438 485.453125 522.84375 487.488281 522.445312 489.507812 C 522.042969 491.523438 521.542969 493.519531 520.945312 495.488281 C 520.351562 497.457031 519.65625 499.390625 518.871094 501.292969 C 518.082031 503.191406 517.207031 505.050781 516.234375 506.863281 C 515.265625 508.679688 514.210938 510.441406 513.066406 512.152344 C 511.925781 513.863281 510.703125 515.515625 509.398438 517.105469 C 508.09375 518.695312 506.710938 520.21875 505.257812 521.671875 C 503.804688 523.128906 502.28125 524.507812 500.691406 525.8125 C 499.101562 527.121094 497.453125 528.34375 495.742188 529.488281 C 494.03125 530.628906 492.269531 531.6875 490.457031 532.65625 C 488.644531 533.625 486.785156 534.503906 484.886719 535.292969 C 482.984375 536.078125 481.050781 536.773438 479.082031 537.371094 C 477.117188 537.96875 475.125 538.464844 473.105469 538.867188 C 471.089844 539.269531 469.058594 539.570312 467.011719 539.773438 C 464.964844 539.972656 462.910156 540.074219 460.855469 540.074219 C 458.800781 540.074219 456.746094 539.972656 454.699219 539.773438 C 452.652344 539.570312 450.621094 539.269531 448.605469 538.867188 C 446.585938 538.464844 444.59375 537.96875 442.628906 537.371094 C 440.660156 536.773438 438.726562 536.078125 436.824219 535.292969 C 434.925781 534.503906 433.066406 533.625 431.253906 532.65625 C 429.441406 531.6875 427.679688 530.628906 425.96875 529.488281 C 424.257812 528.34375 422.609375 527.121094 421.019531 525.8125 C 419.429688 524.507812 417.90625 523.128906 416.453125 521.671875 C 415 520.21875 413.617188 518.695312 412.3125 517.105469 C 411.007812 515.515625 409.785156 513.863281 408.644531 512.152344 C 407.5 510.441406 406.445312 508.679688 405.476562 506.863281 C 404.503906 505.050781 403.628906 503.191406 402.839844 501.292969 C 402.054688 499.390625 401.359375 497.457031 400.765625 495.488281 C 400.167969 493.519531 399.667969 491.523438 399.265625 489.507812 C 398.867188 487.488281 398.5625 485.453125 398.363281 483.40625 C 398.160156 481.359375 398.058594 479.308594 398.058594 477.25 C 398.058594 475.191406 398.160156 473.140625 398.363281 471.089844 C 398.5625 469.042969 398.867188 467.011719 399.265625 464.992188 C 399.667969 462.972656 400.167969 460.980469 400.765625 459.011719 C 401.359375 457.042969 402.054688 455.109375 402.839844 453.207031 C 403.628906 451.304688 404.503906 449.449219 405.476562 447.632812 C 406.445312 445.820312 407.5 444.054688 408.644531 442.34375 C 409.785156 440.632812 411.007812 438.984375 412.3125 437.394531 C 413.617188 435.800781 415 434.28125 416.453125 432.824219 C 417.90625 431.371094 419.429688 429.988281 421.019531 428.683594 C 422.609375 427.378906 424.257812 426.15625 425.96875 425.011719 C 427.679688 423.867188 429.441406 422.8125 431.253906 421.84375 C 433.066406 420.871094 434.925781 419.992188 436.824219 419.207031 C 438.726562 418.417969 440.660156 417.726562 442.628906 417.128906 C 444.59375 416.53125 446.585938 416.03125 448.605469 415.632812 C 450.621094 415.230469 452.652344 414.929688 454.699219 414.726562 C 456.746094 414.523438 458.800781 414.425781 460.855469 414.425781 C 462.910156 414.425781 464.964844 414.523438 467.011719 414.726562 C 469.058594 414.929688 471.089844 415.230469 473.105469 415.632812 C 475.125 416.03125 477.117188 416.53125 479.082031 417.128906 C 481.050781 417.726562 482.984375 418.417969 484.886719 419.207031 C 486.785156 419.992188 488.644531 420.871094 490.457031 421.84375 C 492.269531 422.8125 494.03125 423.867188 495.742188 425.011719 C 497.453125 426.15625 499.101562 427.378906 500.691406 428.683594 C 502.28125 429.988281 503.804688 431.371094 505.257812 432.824219 C 506.710938 434.28125 508.09375 435.800781 509.398438 437.394531 C 510.703125 438.984375 511.925781 440.632812 513.066406 442.34375 C 514.210938 444.054688 515.265625 445.820312 516.234375 447.632812 C 517.207031 449.449219 518.082031 451.304688 518.871094 453.207031 C 519.65625 455.109375 520.351562 457.042969 520.945312 459.011719 C 521.542969 460.980469 522.042969 462.972656 522.445312 464.992188 C 522.84375 467.011719 523.148438 469.042969 523.347656 471.089844 C 523.550781 473.140625 523.652344 475.191406 523.652344 477.25 Z M 523.652344 477.25 " fill-opacity="1" fill-rule="nonzero"/><path fill="rgb(57.249451%, 39.99939%, 79.998779%)" d="M 604.386719 432.375 C 604.386719 434.429688 604.285156 436.484375 604.085938 438.53125 C 603.882812 440.578125 603.582031 442.613281 603.179688 444.628906 C 602.78125 446.648438 602.28125 448.640625 601.683594 450.609375 C 601.085938 452.582031 600.394531 454.515625 599.605469 456.417969 C 598.820312 458.316406 597.941406 460.175781 596.972656 461.988281 C 596.003906 463.804688 594.945312 465.566406 593.804688 467.277344 C 592.660156 468.988281 591.4375 470.640625 590.132812 472.230469 C 588.828125 473.820312 587.449219 475.34375 585.996094 476.796875 C 584.539062 478.253906 583.019531 479.632812 581.429688 480.9375 C 579.839844 482.242188 578.1875 483.46875 576.480469 484.613281 C 574.769531 485.753906 573.007812 486.8125 571.195312 487.78125 C 569.378906 488.75 567.523438 489.628906 565.621094 490.417969 C 563.722656 491.203125 561.789062 491.898438 559.820312 492.496094 C 557.851562 493.089844 555.859375 493.589844 553.84375 493.992188 C 551.824219 494.394531 549.792969 494.695312 547.746094 494.898438 C 545.699219 495.097656 543.648438 495.199219 541.59375 495.199219 C 539.535156 495.199219 537.484375 495.097656 535.4375 494.898438 C 533.390625 494.695312 531.359375 494.394531 529.339844 493.992188 C 527.324219 493.589844 525.332031 493.089844 523.363281 492.496094 C 521.394531 491.898438 519.460938 491.203125 517.5625 490.417969 C 515.660156 489.628906 513.804688 488.75 511.992188 487.78125 C 510.175781 486.8125 508.414062 485.753906 506.703125 484.613281 C 504.996094 483.46875 503.34375 482.242188 501.753906 480.9375 C 500.164062 479.632812 498.644531 478.253906 497.1875 476.796875 C 495.734375 475.34375 494.355469 473.820312 493.050781 472.230469 C 491.746094 470.640625 490.523438 468.988281 489.378906 467.277344 C 488.238281 465.566406 487.179688 463.804688 486.210938 461.988281 C 485.242188 460.175781 484.363281 458.316406 483.578125 456.417969 C 482.789062 454.515625 482.097656 452.582031 481.5 450.609375 C 480.902344 448.640625 480.40625 446.648438 480.003906 444.628906 C 479.601562 442.613281 479.300781 440.578125 479.097656 438.53125 C 478.898438 436.484375 478.796875 434.429688 478.796875 432.375 C 478.796875 430.316406 478.898438 428.265625 479.097656 426.214844 C 479.300781 424.167969 479.601562 422.136719 480.003906 420.117188 C 480.40625 418.097656 480.902344 416.105469 481.5 414.136719 C 482.097656 412.167969 482.789062 410.234375 483.578125 408.332031 C 484.363281 406.429688 485.242188 404.574219 486.210938 402.757812 C 487.179688 400.945312 488.238281 399.179688 489.378906 397.46875 C 490.523438 395.757812 491.746094 394.109375 493.050781 392.519531 C 494.355469 390.925781 495.734375 389.40625 497.1875 387.949219 C 498.644531 386.496094 500.164062 385.113281 501.753906 383.808594 C 503.34375 382.503906 504.996094 381.28125 506.703125 380.136719 C 508.414062 378.992188 510.175781 377.9375 511.992188 376.96875 C 513.804688 375.996094 515.660156 375.117188 517.5625 374.332031 C 519.460938 373.542969 521.394531 372.851562 523.363281 372.253906 C 525.332031 371.65625 527.324219 371.15625 529.339844 370.753906 C 531.359375 370.355469 533.390625 370.050781 535.4375 369.851562 C 537.484375 369.648438 539.535156 369.546875 541.59375 369.546875 C 543.648438 369.546875 545.699219 369.648438 547.746094 369.851562 C 549.792969 370.050781 551.824219 370.355469 553.84375 370.753906 C 555.859375 371.15625 557.851562 371.65625 559.820312 372.253906 C 561.789062 372.851562 563.722656 373.542969 565.621094 374.332031 C 567.523438 375.117188 569.378906 375.996094 571.195312 376.96875 C 573.007812 377.9375 574.769531 378.992188 576.480469 380.136719 C 578.1875 381.28125 579.839844 382.503906 581.429688 383.808594 C 583.019531 385.113281 584.539062 386.496094 585.996094 387.949219 C 587.449219 389.40625 588.828125 390.925781 590.132812 392.519531 C 591.4375 394.109375 592.660156 395.757812 593.804688 397.46875 C 594.945312 399.179688 596.003906 400.945312 596.972656 402.757812 C 597.941406 404.574219 598.820312 406.429688 599.605469 408.332031 C 600.394531 410.234375 601.085938 412.167969 601.683594 414.136719 C 602.28125 416.105469 602.78125 418.097656 603.179688 420.117188 C 603.582031 422.136719 603.882812 424.167969 604.085938 426.214844 C 604.285156 428.265625 604.386719 430.316406 604.386719 432.375 Z M 604.386719 432.375 " fill-opacity="1" fill-rule="nonzero"/><g clip-path="url(#id1)"><path fill="rgb(57.249451%, 39.99939%, 79.998779%)" d="M 703.066406 504.175781 C 703.066406 506.230469 702.964844 508.285156 702.761719 510.332031 C 702.5625 512.378906 702.261719 514.414062 701.859375 516.429688 C 701.457031 518.449219 700.957031 520.441406 700.359375 522.410156 C 699.765625 524.378906 699.070312 526.316406 698.285156 528.214844 C 697.5 530.117188 696.621094 531.976562 695.652344 533.789062 C 694.679688 535.605469 693.625 537.367188 692.480469 539.078125 C 691.339844 540.789062 690.117188 542.441406 688.8125 544.03125 C 687.507812 545.621094 686.128906 547.144531 684.671875 548.597656 C 683.21875 550.054688 681.695312 551.433594 680.105469 552.738281 C 678.515625 554.042969 676.867188 555.269531 675.15625 556.410156 C 673.445312 557.554688 671.683594 558.613281 669.871094 559.582031 C 668.058594 560.550781 666.199219 561.429688 664.300781 562.21875 C 662.402344 563.003906 660.464844 563.699219 658.5 564.292969 C 656.53125 564.890625 654.539062 565.390625 652.519531 565.792969 C 650.503906 566.195312 648.472656 566.496094 646.425781 566.699219 C 644.378906 566.898438 642.328125 567 640.269531 567 C 638.214844 567 636.160156 566.898438 634.113281 566.699219 C 632.070312 566.496094 630.035156 566.195312 628.019531 565.792969 C 626.003906 565.390625 624.007812 564.890625 622.042969 564.292969 C 620.074219 563.699219 618.140625 563.003906 616.238281 562.21875 C 614.339844 561.429688 612.484375 560.550781 610.667969 559.582031 C 608.855469 558.613281 607.09375 557.554688 605.382812 556.410156 C 603.671875 555.269531 602.023438 554.042969 600.433594 552.738281 C 598.84375 551.433594 597.320312 550.054688 595.867188 548.597656 C 594.414062 547.144531 593.035156 545.621094 591.730469 544.03125 C 590.425781 542.441406 589.199219 540.789062 588.058594 539.078125 C 586.914062 537.367188 585.859375 535.605469 584.890625 533.789062 C 583.921875 531.976562 583.042969 530.117188 582.253906 528.214844 C 581.46875 526.316406 580.777344 524.378906 580.179688 522.410156 C 579.582031 520.441406 579.082031 518.449219 578.679688 516.429688 C 578.28125 514.414062 577.980469 512.378906 577.777344 510.332031 C 577.574219 508.285156 577.476562 506.230469 577.476562 504.175781 C 577.476562 502.117188 577.574219 500.0625 577.777344 498.015625 C 577.980469 495.96875 578.28125 493.9375 578.679688 491.917969 C 579.082031 489.898438 579.582031 487.90625 580.179688 485.9375 C 580.777344 483.96875 581.46875 482.035156 582.253906 480.132812 C 583.042969 478.230469 583.921875 476.375 584.890625 474.558594 C 585.859375 472.746094 586.914062 470.980469 588.058594 469.269531 C 589.199219 467.558594 590.425781 465.910156 591.730469 464.320312 C 593.035156 462.726562 594.414062 461.207031 595.867188 459.75 C 597.320312 458.296875 598.84375 456.914062 600.433594 455.609375 C 602.023438 454.304688 603.671875 453.082031 605.382812 451.9375 C 607.09375 450.792969 608.855469 449.738281 610.667969 448.765625 C 612.484375 447.796875 614.339844 446.917969 616.238281 446.132812 C 618.140625 445.34375 620.074219 444.652344 622.042969 444.054688 C 624.007812 443.457031 626.003906 442.957031 628.019531 442.554688 C 630.035156 442.15625 632.070312 441.851562 634.113281 441.652344 C 636.160156 441.449219 638.214844 441.347656 640.269531 441.347656 C 642.328125 441.347656 644.378906 441.449219 646.425781 441.652344 C 648.472656 441.851562 650.503906 442.15625 652.519531 442.554688 C 654.539062 442.957031 656.53125 443.457031 658.5 444.054688 C 660.464844 444.652344 662.402344 445.34375 664.300781 446.132812 C 666.199219 446.917969 668.058594 447.796875 669.871094 448.765625 C 671.683594 449.738281 673.445312 450.792969 675.15625 451.9375 C 676.867188 453.082031 678.515625 454.304688 680.105469 455.609375 C 681.695312 456.914062 683.21875 458.296875 684.671875 459.75 C 686.128906 461.207031 687.507812 462.726562 688.8125 464.320312 C 690.117188 465.910156 691.339844 467.558594 692.480469 469.269531 C 693.625 470.980469 694.679688 472.746094 695.652344 474.558594 C 696.621094 476.375 697.5 478.230469 698.285156 480.132812 C 699.070312 482.035156 699.765625 483.96875 700.359375 485.9375 C 700.957031 487.90625 701.457031 489.898438 701.859375 491.917969 C 702.261719 493.9375 702.5625 495.96875 702.761719 498.015625 C 702.964844 500.0625 703.066406 502.117188 703.066406 504.175781 Z M 703.066406 504.175781 " fill-opacity="1" fill-rule="nonzero"/></g><g fill="rgb(70.979309%, 34.899902%, 56.469727%)" fill-opacity="1"><g transform="translate(199.470769, 521.630149)"><g><path d="M 52.734375 0 L 152.523438 -225.949219 L 10.011719 -225.949219 L 10.011719 -202.585938 L 116.144531 -202.585938 L 26.699219 0 Z M 52.734375 0 "/></g></g></g></svg>