<svg xmlns="http://www.w3.org/2000/svg" xmlns:xlink="http://www.w3.org/1999/xlink" width="1080" zoomAndPan="magnify" viewBox="0 0 810 809.999993" height="1080" preserveAspectRatio="xMidYMid meet" version="1.0"><defs><g/><clipPath id="id1"><path d="M 370 268 L 460 268 L 460 348.113281 L 370 348.113281 Z M 370 268 " clip-rule="nonzero"/></clipPath><clipPath id="id2"><path d="M 468 268 L 558 268 L 558 348.113281 L 468 348.113281 Z M 468 268 " clip-rule="nonzero"/></clipPath><clipPath id="id3"><path d="M 565 268 L 655 268 L 655 348.113281 L 565 348.113281 Z M 565 268 " clip-rule="nonzero"/></clipPath><clipPath id="id4"><path d="M 370 371 L 460 371 L 460 451.210938 L 370 451.210938 Z M 370 371 " clip-rule="nonzero"/></clipPath><clipPath id="id5"><path d="M 468 371 L 558 371 L 558 451.210938 L 468 451.210938 Z M 468 371 " clip-rule="nonzero"/></clipPath><clipPath id="id6"><path d="M 565 371 L 655 371 L 655 451.210938 L 565 451.210938 Z M 565 371 " clip-rule="nonzero"/></clipPath><clipPath id="id7"><path d="M 370 468 L 460 468 L 460 547.871094 L 370 547.871094 Z M 370 468 " clip-rule="nonzero"/></clipPath><clipPath id="id8"><path d="M 468 468 L 558 468 L 558 547.871094 L 468 547.871094 Z M 468 468 " clip-rule="nonzero"/></clipPath><clipPath id="id9"><path d="M 565 468 L 655 468 L 655 547.871094 L 565 547.871094 Z M 565 468 " clip-rule="nonzero"/></clipPath></defs><rect x="-81" width="972" fill="rgb(100%, 100%, 100%)" y="-80.999999" height="971.999992" fill-opacity="1"/><rect x="-81" width="972" fill="rgb(100%, 100%, 100%)" y="-80.999999" height="971.999992" fill-opacity="1"/><g clip-path="url(#id1)"><path fill="rgb(77.648926%, 18.818665%, 17.248535%)" d="M 459.546875 288.050781 C 454.53125 262.410156 423.097656 261.980469 415.347656 285.953125 C 407.597656 261.980469 376.160156 262.410156 371.148438 288.050781 C 366.597656 311.3125 415.347656 348.015625 415.347656 348.015625 C 415.347656 348.015625 464.097656 311.3125 459.546875 288.050781 Z M 459.546875 288.050781 " fill-opacity="1" fill-rule="nonzero"/></g><g fill="rgb(81.17981%, 11.759949%, 16.859436%)" fill-opacity="1"><g transform="translate(151.800874, 521.630619)"><g><path d="M 84.773438 -103.128906 C 70.421875 -103.128906 58.074219 -108.136719 47.726562 -118.816406 C 37.714844 -129.160156 32.707031 -141.511719 32.707031 -155.859375 C 32.707031 -169.878906 37.714844 -181.894531 48.058594 -192.238281 C 58.074219 -202.253906 70.421875 -207.257812 85.105469 -207.257812 C 99.125 -207.257812 111.804688 -201.917969 122.484375 -191.574219 C 132.832031 -181.226562 138.171875 -169.210938 138.171875 -154.859375 C 138.171875 -140.84375 132.832031 -128.492188 122.152344 -118.480469 C 117.480469 -113.808594 111.804688 -109.804688 105.464844 -107.132812 C 98.789062 -104.464844 92.113281 -103.128906 84.773438 -103.128906 Z M 9.011719 -154.191406 C 9.011719 -132.164062 16.6875 -114.140625 32.375 -100.125 C 46.726562 -86.773438 65.082031 -79.765625 88.109375 -79.097656 L 94.785156 -83.4375 L 25.363281 0 L 56.070312 0 L 144.847656 -107.132812 C 156.195312 -120.484375 161.867188 -136.503906 161.867188 -154.859375 C 161.867188 -175.886719 154.191406 -193.574219 139.507812 -208.261719 C 124.15625 -222.945312 106.132812 -230.621094 85.441406 -230.621094 C 64.078125 -230.621094 46.058594 -223.277344 31.371094 -208.59375 C 24.363281 -201.585938 19.023438 -193.574219 15.019531 -184.5625 C 11.015625 -175.21875 9.011719 -165.207031 9.011719 -154.191406 Z M 9.011719 -154.191406 "/></g></g></g><g clip-path="url(#id2)"><path fill="rgb(19.60907%, 1.568604%, 1.568604%)" d="M 556.753906 288.050781 C 551.738281 262.410156 520.304688 261.980469 512.554688 285.953125 C 504.804688 261.980469 473.367188 262.410156 468.355469 288.050781 C 463.804688 311.3125 512.554688 348.015625 512.554688 348.015625 C 512.554688 348.015625 561.304688 311.3125 556.753906 288.050781 Z M 556.753906 288.050781 " fill-opacity="1" fill-rule="nonzero"/></g><g clip-path="url(#id3)"><path fill="rgb(77.648926%, 18.818665%, 17.248535%)" d="M 653.964844 288.050781 C 648.949219 262.410156 617.515625 261.980469 609.761719 285.953125 C 602.011719 261.980469 570.578125 262.410156 565.5625 288.050781 C 561.011719 311.3125 609.761719 348.015625 609.761719 348.015625 C 609.761719 348.015625 658.511719 311.3125 653.964844 288.050781 Z M 653.964844 288.050781 " fill-opacity="1" fill-rule="nonzero"/></g><g clip-path="url(#id4)"><path fill="rgb(19.60907%, 1.568604%, 1.568604%)" d="M 459.546875 391.148438 C 454.53125 365.507812 423.097656 365.078125 415.347656 389.046875 C 407.597656 365.078125 376.160156 365.507812 371.148438 391.148438 C 366.597656 414.410156 415.347656 451.113281 415.347656 451.113281 C 415.347656 451.113281 464.097656 414.410156 459.546875 391.148438 Z M 459.546875 391.148438 " fill-opacity="1" fill-rule="nonzero"/></g><g clip-path="url(#id5)"><path fill="rgb(77.648926%, 18.818665%, 17.248535%)" d="M 556.753906 391.148438 C 551.738281 365.507812 520.304688 365.078125 512.554688 389.046875 C 504.804688 365.078125 473.367188 365.507812 468.355469 391.148438 C 463.804688 414.410156 512.554688 451.113281 512.554688 451.113281 C 512.554688 451.113281 561.304688 414.410156 556.753906 391.148438 Z M 556.753906 391.148438 " fill-opacity="1" fill-rule="nonzero"/></g><g clip-path="url(#id6)"><path fill="rgb(19.60907%, 1.568604%, 1.568604%)" d="M 653.964844 391.148438 C 648.949219 365.507812 617.515625 365.078125 609.761719 389.046875 C 602.011719 365.078125 570.578125 365.507812 565.5625 391.148438 C 561.011719 414.410156 609.761719 451.113281 609.761719 451.113281 C 609.761719 451.113281 658.511719 414.410156 653.964844 391.148438 Z M 653.964844 391.148438 " fill-opacity="1" fill-rule="nonzero"/></g><g clip-path="url(#id7)"><path fill="rgb(77.648926%, 18.818665%, 17.248535%)" d="M 459.546875 487.808594 C 454.53125 462.167969 423.097656 461.738281 415.347656 485.710938 C 407.597656 461.742188 376.160156 462.167969 371.148438 487.808594 C 366.597656 511.074219 415.347656 547.777344 415.347656 547.777344 C 415.347656 547.777344 464.097656 511.074219 459.546875 487.808594 Z M 459.546875 487.808594 " fill-opacity="1" fill-rule="nonzero"/></g><g clip-path="url(#id8)"><path fill="rgb(19.60907%, 1.568604%, 1.568604%)" d="M 556.753906 487.808594 C 551.738281 462.167969 520.304688 461.738281 512.554688 485.710938 C 504.804688 461.742188 473.367188 462.167969 468.355469 487.808594 C 463.804688 511.074219 512.554688 547.777344 512.554688 547.777344 C 512.554688 547.777344 561.304688 511.074219 556.753906 487.808594 Z M 556.753906 487.808594 " fill-opacity="1" fill-rule="nonzero"/></g><g clip-path="url(#id9)"><path fill="rgb(77.648926%, 18.818665%, 17.248535%)" d="M 653.964844 487.808594 C 648.949219 462.167969 617.515625 461.738281 609.761719 485.710938 C 602.011719 461.742188 570.578125 462.167969 565.5625 487.808594 C 561.011719 511.074219 609.761719 547.777344 609.761719 547.777344 C 609.761719 547.777344 658.511719 511.074219 653.964844 487.808594 Z M 653.964844 487.808594 " fill-opacity="1" fill-rule="nonzero"/></g></svg>